<?xml version="1.0" encoding="UTF-8"?><svg width="45" height="50" viewBox="0 0 45 50" fill="none" xmlns="http://www.w3.org/2000/svg">
<path d="M13.2727 26.0707L11.7512 26.5005C11.7512 26.5005 7.25899 25.1388 4.2046 28.623L1.92236 26.5994C1.92236 26.5994 6.95088 14.7432 16.0836 14.6785C16.7465 14.7124 17.4054 14.8001 18.0539 14.941L18.305 14.9942C16.1055 18.2829 14.4381 21.8977 13.364 25.7055L13.2727 26.0707Z" fill="#339970"/>
<path d="M23.0952 45.1845L20.813 43.1837C23.856 39.6995 21.9541 35.4241 21.9541 35.4241L22.1824 33.8646L22.5323 33.7125C26.1667 32.1596 29.5347 30.0456 32.5133 27.4477C32.5133 27.4477 32.5437 27.539 32.597 27.6874C32.8198 28.3065 32.9927 28.9425 33.1143 29.5892C34.1945 38.6573 23.0952 45.1845 23.0952 45.1845Z" fill="#339970"/>
<g style="mix-blend-mode:multiply">
<g style="mix-blend-mode:multiply">
<path d="M13.2769 26.0707L11.7554 26.5005C13.1002 22.2832 15.2354 18.3602 18.0468 14.941L18.2978 14.9943C16.1023 18.2837 14.4387 21.8984 13.3682 25.7055L13.2769 26.0707Z" fill="#D1D3D4"/>
</g>
<g style="mix-blend-mode:multiply">
<path d="M32.5576 27.6759C29.3815 31.1639 25.5322 33.6554 21.9072 35.4127L22.1355 33.8532L22.4816 33.701C26.117 32.1483 29.4852 30.0329 32.4626 27.4325C32.4626 27.4325 32.5044 27.5276 32.5576 27.6759Z" fill="#D1D3D4"/>
</g>
</g>
<path d="M35.0501 24.8307C34.2456 25.7474 33.3843 26.6125 32.4712 27.4211C29.498 30.0253 26.132 32.1434 22.4978 33.6972L22.1745 33.838C21.7295 34.032 21.2844 34.2183 20.8508 34.3819L12.9238 27.4287C13.0341 26.9836 13.1559 26.531 13.3042 26.0708L13.4069 25.6904C14.4719 21.8899 16.1277 18.2805 18.3137 14.9943C18.9963 13.9846 19.742 13.019 20.5465 12.1035C24.7496 7.31457 30.1775 4.35527 34.7572 2.55991C37.7405 1.37081 40.8451 0.512378 44.0155 0C43.9195 3.20906 43.4718 6.3979 42.6804 9.50932C41.4822 14.2868 39.2532 20.0533 35.0501 24.8307Z" fill="url(#paint0_linear_9955_10431)"/>
<path d="M42.6521 9.51693L34.729 2.55991C37.7123 1.37081 40.8169 0.512378 43.9873 0C43.8918 3.21161 43.4441 6.40304 42.6521 9.51693Z" fill="#339970"/>
<path d="M20.1788 35.135L12.2632 28.1894C3.29402 31.7725 0 41.2857 0 41.2857C1.32842 40.6826 2.73813 40.2776 4.1841 40.0837C1.98554 44.9296 0.125506 50 0.125506 50C0.125506 50 4.91443 47.4895 9.42945 44.6748C9.42889 46.1414 9.21227 47.5999 8.7866 49.0034C8.7866 49.0034 17.7938 44.5036 20.1788 35.135Z" fill="#C43133"/>
<path d="M18.4516 34.9677L12.651 29.8745C6.07431 32.4991 3.08838 38.9692 3.08838 38.9692C3.08838 38.9692 5.30594 38.7105 6.73995 38.5888C5.12717 42.1415 3.76545 45.8577 3.76545 45.8577C3.76545 45.8577 7.27627 44.0167 10.5855 41.9589C10.654 43.4005 10.6882 45.6333 10.6882 45.6333C10.6882 45.6333 16.7057 41.8334 18.4516 34.9677Z" fill="#E08F00"/>
<path d="M16.7222 34.8649L12.9718 31.5709C8.72301 33.2712 6.7793 37.4439 6.7793 37.4439C7.45473 37.2076 8.15357 37.0444 8.86378 36.957C8.17321 38.5536 7.62584 40.2084 7.22816 41.9018C8.85806 41.2807 10.43 40.517 11.9257 39.6196C11.9298 40.3362 11.8597 41.0513 11.7166 41.7535C11.7166 41.7535 15.5925 39.3039 16.7222 34.8649Z" fill="#FFBC1F"/>
<path d="M12.9246 27.4367L12.2622 28.1915L20.1843 35.1439L20.8466 34.3891L12.9246 27.4367Z" fill="url(#paint1_linear_9955_10431)"/>
<path d="M22.4978 33.6972C21.9387 33.9444 21.3872 34.1726 20.8508 34.3818L12.9238 27.4286C13.0646 26.8657 13.2168 26.2875 13.3879 25.7055L22.4978 33.6972Z" fill="url(#paint2_linear_9955_10431)"/>
<path d="M32.5136 17.6378C35.0261 17.6378 37.0629 15.601 37.0629 13.0885C37.0629 10.5761 35.0261 8.53929 32.5136 8.53929C30.0011 8.53929 27.9644 10.5761 27.9644 13.0885C27.9644 15.601 30.0011 17.6378 32.5136 17.6378Z" fill="#339970"/>
<path d="M35.3724 15.6033C34.9616 16.0723 34.4417 16.4331 33.8587 16.654C33.2756 16.8749 32.6472 16.9491 32.0287 16.8701C31.4976 16.8056 30.9865 16.6278 30.5299 16.3489C30.3411 16.237 30.1617 16.1097 29.9935 15.9685C29.3641 15.4238 28.9307 14.6876 28.7598 13.8729C28.5888 13.0582 28.6899 12.2099 29.0474 11.4582C29.4049 10.7064 29.9992 10.0927 30.739 9.7111C31.4789 9.32953 32.3235 9.20118 33.1433 9.34573C33.6713 9.43158 34.1747 9.63008 34.6192 9.92774C34.7595 10.0225 34.8941 10.1254 35.0225 10.2359C35.7805 10.9013 36.2432 11.8406 36.3089 12.8471C36.3745 13.8537 36.0377 14.8451 35.3724 15.6033Z" fill="#5A6072"/>
<path opacity="0.5" d="M32.0285 16.87C31.4974 16.8055 30.9863 16.6278 30.5298 16.3489L33.1431 9.33427C33.6712 9.42013 34.1746 9.61863 34.6191 9.91629L32.0285 16.87Z" fill="white"/>
<path d="M24.9394 20.831L12.0508 35.5173L12.937 36.2951L25.8256 21.6088L24.9394 20.831Z" fill="#339970"/>
<g style="mix-blend-mode:multiply">
<path d="M25.8296 21.6014L22.4899 33.6973L20.8429 34.3819L20.1772 35.1351L16.6626 32.0464L25.8296 21.6014Z" fill="#E6E7E8"/>
</g>
<defs>
<linearGradient id="paint0_linear_9955_10431" x1="23.1733" y1="9.08606" x2="37.6909" y2="21.8266" gradientUnits="userSpaceOnUse">
<stop offset="0.5" stop-color="#D1D3D4"/>
</linearGradient>
<linearGradient id="paint1_linear_9955_10431" x1="12.5934" y1="27.8141" x2="20.5155" y2="34.7665" gradientUnits="userSpaceOnUse">
<stop offset="0.5" stop-color="#808285"/>
</linearGradient>
<linearGradient id="paint2_linear_9955_10431" x1="12.8438" y1="26.3116" x2="21.9551" y2="34.3077" gradientUnits="userSpaceOnUse">
<stop offset="0.5" stop-color="#A7A9AC"/>
</linearGradient>
</defs>
</svg>
