<svg width="27" height="27" viewBox="0 0 27 27" fill="none" xmlns="http://www.w3.org/2000/svg">
<g clip-path="url(#clip0_201:2094)">
<path d="M18.1079 4.46887L19.9268 0.171089C19.9439 0.130451 19.9702 0.0943462 20.0036 0.0656278C20.0371 0.0369094 20.0767 0.0163635 20.1195 0.00562532C20.1622 -0.00511289 20.2069 -0.00574994 20.2499 0.00375801C20.293 0.013266 20.3332 0.0326605 20.3675 0.0604083L21.5244 0.776703C21.594 0.837697 21.6383 0.922608 21.6483 1.01464C21.6584 1.10668 21.6335 1.19913 21.5787 1.27373L18.655 4.79883C18.5958 4.85155 18.5219 4.88498 18.4432 4.89468C18.3645 4.90438 18.2847 4.88989 18.2144 4.85313C18.1622 4.80554 18.1243 4.74445 18.1048 4.67663C18.0852 4.6088 18.0849 4.5369 18.1037 4.46887H18.1079ZM20.9188 6.67206C20.9428 6.7131 20.9751 6.74874 21.0135 6.77678C21.0519 6.80482 21.0957 6.82465 21.1422 6.83503C21.1886 6.84541 21.2367 6.84613 21.2834 6.83713C21.3301 6.82814 21.3745 6.80961 21.4137 6.78273L26.5364 4.13682C26.7577 3.99064 26.7932 3.78807 26.6471 3.53121L25.7115 2.09862C25.6377 2.01212 25.533 1.95798 25.4198 1.94783C25.3065 1.93768 25.1938 1.97232 25.1059 2.04432L20.9731 6.17503C20.9034 6.23603 20.8592 6.32094 20.8491 6.41298C20.8391 6.50501 20.8639 6.59746 20.9188 6.67206ZM21.8543 9.37017L26.1521 7.60762C26.361 7.53453 26.5009 7.60762 26.5364 7.82899L26.812 9.1509C26.826 9.19479 26.8295 9.24133 26.8224 9.28683C26.8152 9.33232 26.7976 9.37554 26.7708 9.41303C26.7441 9.45052 26.709 9.48126 26.6683 9.50282C26.6276 9.52439 26.5824 9.53616 26.5364 9.53724L21.965 9.97789C21.8189 9.97789 21.7082 9.886 21.6351 9.70222C21.6345 9.63137 21.6551 9.56195 21.6942 9.50282C21.7332 9.4437 21.789 9.39752 21.8543 9.37017Z" fill="white"/>
<path d="M11.3813 26.2838L10.5 26.7788C10.3345 26.8855 10.148 26.9556 9.9532 26.9844C9.75836 27.0132 9.55959 27.0001 9.37024 26.9458C8.98519 26.8355 8.65893 26.5782 8.46183 26.2295L6.09367 22.2617C5.98858 22.0896 5.91932 21.898 5.89009 21.6985C5.86085 21.499 5.87222 21.2956 5.92351 21.1006C5.9748 20.9056 6.06496 20.7229 6.18858 20.5636C6.31219 20.4042 6.46674 20.2715 6.6429 20.1734L7.52417 19.6764C7.68988 19.57 7.87639 19.5002 8.07123 19.4718C8.26608 19.4433 8.46473 19.4568 8.65394 19.5114C9.03899 19.6217 9.36527 19.879 9.56238 20.2277L11.9326 24.1955C12.1114 24.5632 12.16 24.9807 12.0705 25.3796C12.024 25.5696 11.9388 25.748 11.8202 25.9036C11.7016 26.0592 11.5522 26.1886 11.3813 26.2838Z" fill="#1E325C"/>
<path d="M4.39176 22.4265C3.4005 22.3541 2.29854 21.4729 1.08592 19.7827C0.0946558 17.9854 -0.217197 16.6175 0.150349 15.6791C0.517895 14.7408 0.774772 14.2723 0.920955 14.2737L8.68744 8.54541L14.5348 17.6902L5.99558 22.3179C5.91413 22.4641 5.38371 22.5017 4.39176 22.4265Z" fill="#1C58D9"/>
<path d="M19.3171 8.15907C20.4988 9.97057 21.4693 11.9114 22.2094 13.9437C22.815 15.7063 22.8791 16.7894 22.4015 17.1932C21.7764 17.4869 20.8019 16.9913 19.4779 15.7063C18.1539 14.4213 16.8222 12.7318 15.4829 10.6379C14.1422 8.54959 13.1676 6.63042 12.5592 4.8804C11.9508 3.13038 11.9049 2.03819 12.4214 1.60381C13.0075 1.34625 13.9716 1.85998 15.3137 3.14499C16.8383 4.65531 18.1818 6.338 19.3171 8.15907Z" fill="#546266"/>
<path d="M22.5164 17.0846C22.3306 17.5253 21.9463 17.7821 21.3595 17.8552C19.9673 17.929 18.3509 18.0571 16.5104 18.2395L13.426 18.5151C13.3884 18.6251 12.8837 18.543 11.9119 18.2687C10.9401 17.9944 9.81036 16.9384 8.52256 15.1007C7.38373 13.1168 6.88807 11.6383 7.03565 10.6651C7.18183 9.69402 7.31133 9.20326 7.42201 9.20326L9.01956 6.55945C9.97462 4.94308 10.7821 3.51048 11.442 2.26166C11.7365 1.78552 12.104 1.56416 12.5447 1.60175C12.4866 1.6085 12.4305 1.62698 12.3797 1.65605C11.9398 2.02359 12.0497 3.06776 12.7096 4.78854C13.5091 6.78334 14.506 8.69321 15.6855 10.4897C16.8142 12.3157 18.1247 14.0229 19.5969 15.5852C20.882 16.9078 21.8001 17.4591 22.3515 17.2391C22.4227 17.2033 22.4806 17.1454 22.5164 17.0742V17.0846Z" fill="#E1E7EA"/>
<path opacity="0.5" d="M2.68359 16.6419C2.5591 16.7445 2.40422 16.8033 2.24295 16.8089C2.12172 16.8118 2.00188 16.7826 1.89554 16.7243C1.78921 16.666 1.70014 16.5806 1.63733 16.4769C1.5695 16.3887 1.51998 16.2879 1.49164 16.1803C1.46331 16.0727 1.45677 15.9605 1.47237 15.8504C1.489 15.7527 1.52727 15.6601 1.58436 15.5791C1.64145 15.4982 1.71592 15.431 1.80232 15.3826L4.99747 13.3444C5.08527 13.2766 5.18696 13.2291 5.29527 13.2053C5.40359 13.1815 5.51584 13.1819 5.62397 13.2066C5.7221 13.2319 5.81417 13.2765 5.89485 13.3378C5.97553 13.3991 6.04319 13.4759 6.09384 13.5637C6.20089 13.7362 6.23959 13.9425 6.20242 14.1421C6.18636 14.24 6.14834 14.3329 6.09119 14.4139C6.03404 14.495 5.95926 14.562 5.87247 14.6099L2.67732 16.6481L2.68359 16.6419Z" fill="white"/>
</g>
<defs>
<clipPath id="clip0_201:2094">
<rect width="26.8204" height="27" fill="white"/>
</clipPath>
</defs>
</svg>
