<?xml version="1.0" standalone="no"?>
<!DOCTYPE svg PUBLIC "-//W3C//DTD SVG 1.1//EN" "http://www.w3.org/Graphics/SVG/1.1/DTD/svg11.dtd">
<svg xmlns="http://www.w3.org/2000/svg">
<defs >
<font id="Lora" horiz-adv-x="1164" ><font-face
    font-family="Lora"
    units-per-em="2048"
    panose-1="2 0 5 3 0 0 0 2 0 4"
    ascent="1934"
    descent="-551"
    alphabetic="0" />
<glyph unicode=" " glyph-name="space" horiz-adv-x="539" />
<glyph unicode="!" glyph-name="exclam" horiz-adv-x="545" d="M391 98Q391 71 381 47T354 5T316 -23T270 -33Q246 -33 225 -23T187 5T161 47T151 98Q151 126 161 150T187 193T226 221T272 232Q297 232 319 222T357 193T382 151T391 98ZM309 471H233L153 1316Q151
1343 157 1370T179 1418T217 1453T272 1467Q305 1467 328 1454T365 1419T385 1370T389 1316L309 471Z" />
<glyph unicode="&quot;" glyph-name="quotedbl" horiz-adv-x="709" d="M144 1006L127 1467H287L270 1006H144ZM437 1006L420 1467H580L563 1006H437Z" />
<glyph unicode="#" glyph-name="numbersign" horiz-adv-x="1700" d="M315 -33L408 365H68L101 487H436L548 961H203L236 1083H577L668 1467H803L715 1083H1150L1241 1467H1376L1288 1083H1631V1081L1600 961H1260L1153 487H1495L1463 365H1126L1036 -33H888L981
365H552L462 -33H315ZM579 487H1009L1121 961H687L579 487Z" />
<glyph unicode="$" glyph-name="dollar" horiz-adv-x="1083" d="M227 -27H117V406H188Q194 311 222 244T299 133T415 69T563 48Q623 48 673 67T759 119T815 200T835 303Q835 374 804 427T721 522T603 600T469 672T334 748T217 839T134 956T102 1110Q102 1142 111
1180T139 1258T188 1334T262 1400T361 1447T489 1467V1706H600L598 1466Q656 1460 713 1441T825 1380L817 1467H919V1019H844Q839 1093 822 1160T767 1277T669 1358T518 1388Q453 1388 406 1367T329 1313T283 1236T268 1147Q268 1080 300 1029T384 937T502 859T638
787T773 710T892 618T976 500T1008 348Q1008 276 984 211T909 93T784 8T609 -33L608 -313H502L500 -33Q464 -32 426 -25T351 -5T280 22T217 56L227 -27Z" />
<glyph unicode="%" glyph-name="percent" horiz-adv-x="1782" d="M250 1103Q250 1054 258 996T289 886T351 801T451 767Q507 767 544 794T603 864T635 957T645 1056Q645 1107 636 1166T604 1276T543 1360T447 1394Q389 1394 351 1363T291 1288T259 1193T250 1103ZM1500
1385L338 -35L251 37L1407 1467L1500 1385ZM74 1070Q74 1142 98 1212T169 1338T286 1430T445 1467Q540 1469 611 1437T728 1351T798 1228T821 1089Q821 1010 792 937T711 809T592 720T445 687Q353 687 284 719T168 804T98 927T74 1070ZM1534 331Q1534 364 1531
401T1518 476T1494 548T1457 609T1404 651T1333 667Q1277 667 1240 640T1181 571T1149 478T1139 379Q1139 327 1149 268T1183 159T1246 75T1342 41Q1400 41 1437 71T1495 147T1525 242T1534 331ZM1710 364Q1710 293 1686 223T1615 96T1499 4T1340 -33Q1245 -35
1174 -3T1055 84T985 206T961 346Q961 425 991 497T1072 625T1193 714T1340 747Q1431 747 1500 715T1616 630T1686 507T1710 364Z" />
<glyph unicode="&amp;" glyph-name="ampersand" horiz-adv-x="1423" d="M1121 547Q1123 506 1114 447T1079 322Q1102 301 1127 278T1182 229Q1275 146 1341 107T1440 68V0H1250Q1230 0 1166 38T995 169Q962 127 920 90T823 26T702 -17T554 -33Q465 -33 379 -11T225
59T116 183T74 369Q74 435 96 493T161 603T262 696T396 771Q355 822 325 868T276 960T249 1051T240 1145Q241 1218 269 1277T348 1379T467 1444T619 1467Q697 1467 760 1445T867 1384T936 1293T961 1180Q961 1123 943 1070T885 967T781 868T624 772Q663 730 705
687T789 600Q810 577 831 556T878 510T933 456T1004 390Q1014 426 1018 459T1023 520Q1023 555 1016 590T992 655T944 704T869 725V793H1227V709L1057 716Q1089 688 1104 646T1121 547ZM871 283Q732 418 627 521T448 710Q399 681 367 641T315 557T287 473T279 400Q279
316 305 255T373 153T469 93T580 70Q644 67 697 78T793 111T869 163T929 228Q900 253 871 283ZM412 1161Q412 1117 424 1074T459 988T512 903T579 822Q694 897 749 990T804 1173Q804 1222 791 1264T754 1336T693 1383T609 1400Q567 1400 531 1385T468 1339T427
1264T412 1161Z" />
<glyph unicode="&apos;" glyph-name="quotesingle" horiz-adv-x="426" d="M146 1006L127 1467H299L281 1006H146Z" />
<glyph unicode="(" glyph-name="parenleft" horiz-adv-x="625" d="M280 489Q280 200 355 -49T589 -508L538 -555Q487 -508 433 -445T328 -303T230 -134T149 57T94 266T73 489Q73 603 93 713T148 926T229 1123T327 1297T433 1444T538 1556L589 1509Q430 1297 355
1039T280 489Z" />
<glyph unicode=")" glyph-name="parenright" horiz-adv-x="625" d="M346 512Q346 801 271 1050T37 1509L88 1556Q139 1509 193 1446T298 1304T396 1135T477 944T532 735T553 512Q553 398 533 288T478 75T397 -122T299 -296T193 -443T88 -555L37 -508Q196 -296
271 -38T346 512Z" />
<glyph unicode="*" glyph-name="asterisk" horiz-adv-x="1065" d="M559 1041Q613 1075 678 1107T806 1170Q828 1181 854 1188T904 1194T947 1182T974 1144Q979 1129 979 1116Q979 1104 974 1091T951 1064T908 1040T858 1025Q825 1019 789 1012T717 1000T646 990T579
984Q629 944 680 893T780 791Q799 771 812 749T831 709T837 678Q837 663 831 648T806 619Q784 603 763 604T724 618T689 651T659 693Q643 723 625 756T590 822T558 887T532 949Q520 920 505 888T473 822T439 756T405 693Q393 672 377 652T342 619T302 605T257 619Q239
634 234 647T228 678Q228 690 233 708T252 750T282 791Q330 842 381 894T483 984Q451 985 416 989T344 999T271 1012T202 1025Q178 1030 153 1039T110 1062T86 1091T80 1117Q80 1130 85 1144Q94 1171 113 1182T155 1194T204 1188T253 1170Q316 1141 382 1109T501
1041Q483 1101 473 1175T454 1318Q451 1342 452 1368T461 1417T486 1453T532 1467Q560 1467 576 1453T600 1417T608 1369T606 1318Q598 1249 588 1175T559 1041Z" />
<glyph unicode="+" glyph-name="plus" horiz-adv-x="1055" d="M72 711L461 709V1112H593V709L984 707V592L593 590V168H461V589L72 588V711Z" />
<glyph unicode="," glyph-name="comma" horiz-adv-x="518" d="M186 -325Q203 -304 222 -268T255 -188T278 -96T280 0Q251 -13 225 -11T178 4T147 39T135 88Q135 145 168 176T248 207Q283 207 310 193T355 153T383 94T393 21Q393 -18 382 -70T351 -177T303 -281T241
-366L186 -325Z" />
<glyph unicode="-" glyph-name="hyphen" horiz-adv-x="1001" d="M137 727H864V592L137 584V727Z" />
<glyph unicode="." glyph-name="period" horiz-adv-x="504" d="M370 98Q370 71 360 47T334 5T296 -23T250 -33Q226 -33 205 -23T167 5T141 47T131 98Q131 126 141 150T167 193T206 221T252 232Q277 232 298 222T336 193T361 151T370 98Z" />
<glyph unicode="/" glyph-name="slash" horiz-adv-x="1413" d="M1372 1473L162 -556L43 -481L1240 1556L1372 1473Z" />
<glyph unicode="0" glyph-name="zero" horiz-adv-x="1272" d="M326 753Q326 682 331 602T351 444T388 293T448 167T533 80T649 47Q707 47 752 73T830 143T886 249T922 380T942 526T948 677Q948 760 942 845T922 1009T885 1157T828 1278T748 1359T641 1389Q582
1389 536 1363T454 1292T395 1186T356 1054T333 906T326 753ZM115 711Q115 797 128 886T168 1060T237 1218T339 1347T474 1435T646 1467Q745 1467 821 1436T955 1350T1051 1222T1114 1067T1148 895T1159 721Q1159 636 1147 547T1109 375T1041 217T942 87T808 -1T637
-33Q533 -33 454 -2T316 84T220 210T158 366T125 537T115 711Z" />
<glyph unicode="1" glyph-name="one" horiz-adv-x="745" d="M508 223Q508 183 508 147T502 82L674 90V0H152V68Q205 70 239 87T294 134T322 206T330 301L328 1268H324L78 1109L37 1169L437 1467H506L508 223Z" />
<glyph unicode="2" glyph-name="two" horiz-adv-x="1100" d="M260 1242Q280 1220 288 1197T297 1150Q297 1137 292 1120T275 1089T244 1064T197 1055Q151 1057 127 1089T103 1168Q103 1211 130 1263T211 1361T345 1436T531 1467Q612 1467 689 1448T827 1386T924
1271T961 1095Q961 1043 939 984T869 857T745 712T559 544Q489 487 431 432T330 328T261 235T227 155L590 145Q665 143 727 143T835 154T906 196T932 287H994L981 0H94Q94 108 128 192T219 347T348 485T498 624Q631 751 690 860T750 1070Q750 1127 739 1183T698
1285T621 1359T498 1387Q456 1387 418 1376T348 1345T294 1299T260 1242Z" />
<glyph unicode="3" glyph-name="three" horiz-adv-x="1141" d="M275 1239Q293 1219 300 1198T308 1155Q308 1143 303 1127T287 1098T258 1075T214 1066Q170 1068 148 1098T125 1172Q125 1214 150 1265T228 1362T358 1437T543 1467Q625 1467 699 1448T831 1386T922
1276T956 1111Q956 1062 939 1014T883 920T780 837T621 769V767Q718 757 795 725T927 643T1010 525T1039 379Q1039 275 996 198T882 69T717 -7T523 -33Q412 -33 331 -7T196 61T116 151T90 246Q90 292 114 324T184 359Q212 360 230 351T260 328T275 297T280 266Q280
245 274 225T258 184Q268 149 292 125T351 85T425 62T507 54Q580 54 639 74T741 133T805 231T828 365Q828 432 814 496T759 609T647 687T464 714Q430 714 390 711V803H474Q555 803 609 832T696 906T743 1000T757 1093Q757 1156 746 1210T706 1303T632 1364T515
1387Q469 1387 429 1374T357 1339T304 1291T275 1239Z" />
<glyph unicode="4" glyph-name="four" horiz-adv-x="1110" d="M834 223Q834 181 833 145T826 78L984 84V0H468V68H484Q536 72 568 91T618 144T642 224T648 326V395H25V496L765 1467H834V518L1041 516V395H834V223ZM160 528L648 522V1175H644L160 528Z" />
<glyph unicode="5" glyph-name="five" horiz-adv-x="1114" d="M274 187Q280 149 307 122T371 77T450 53T528 47Q603 50 656 80T744 158T795 267T811 393Q811 431 808 476T793 566T761 652T704 726T618 778T494 797Q468 797 432 792T359 778T285 756T223 725L166
778L161 1434H693Q751 1434 790 1442T852 1466T886 1507T896 1567H953L941 1296L255 1282L256 832Q306 852 384 870T553 889Q679 889 768 849T914 743T997 595T1024 430Q1024 316 983 230T872 85T711 -3T520 -33Q422 -33 345 -7T215 61T134 151T106 246Q106 292
130 324T200 359Q228 360 246 351T276 328T291 297T296 266Q296 246 290 225T274 187Z" />
<glyph unicode="6" glyph-name="six" horiz-adv-x="1184" d="M608 803Q560 803 513 785T426 735T355 662T309 577Q314 480 331 385T383 215T472 94T608 47Q680 47 731 75T815 151T862 261T877 391Q877 429 873 474T859 566T829 654T780 730T708 783T608 803ZM879
1271Q873 1289 857 1310T814 1349T753 1378T676 1390Q598 1390 541 1354T443 1260T377 1129T336 982T315 840T307 722Q332 756 366 787T444 843T539 881T651 895Q774 895 857 853T990 743T1062 595T1084 436Q1084 340 1048 255T947 106T795 5T604 -33Q467 -33 374
16T223 158T140 380T115 674Q115 735 124 817T156 988T218 1162T320 1315T468 1425T672 1467Q763 1467 831 1441T944 1375T1011 1291T1034 1207Q1034 1163 1013 1133T947 1100Q921 1099 903 1107T874 1128T858 1156T853 1185Q853 1205 859 1228T879 1271Z" />
<glyph unicode="7" glyph-name="seven" horiz-adv-x="944" d="M400 -33Q359 -30 344 -5T328 58Q328 91 342 141T378 249T423 365T467 475Q495 547 533 644T616 850T709 1073T809 1293L268 1290Q185 1289 140 1252T94 1130H45V1434H903V1294Q853 1192 814 1097T741
909T678 722T622 529T569 321T512 93Q506 68 497 45T474 4T443 -24T400 -33Z" />
<glyph unicode="8" glyph-name="eight" horiz-adv-x="1151" d="M984 1136Q984 1075 962 1022T902 924T814 843T707 778Q775 738 837 689T946 585T1021 467T1049 339Q1049 242 1009 172T902 57T748 -11T565 -33Q493 -33 415 -16T272 40T164 145T121 307Q121 376
147 436T216 549T316 645T432 728Q354 774 300 820T213 913T164 1004T149 1095Q149 1192 188 1262T289 1377T428 1445T584 1467Q662 1467 734 1445T861 1381T950 1278T984 1136ZM509 690Q453 649 413 605T347 515T308 426T293 344Q289 279 307 225T362 132T451
72T569 49Q702 47 775 114T848 302Q848 355 831 407T774 509T669 604T509 690ZM340 1140Q340 1084 362 1036T424 946T518 873T634 819Q726 882 774 958T824 1113Q826 1245 762 1315T588 1387Q527 1388 481 1367T404 1312T356 1233T340 1140Z" />
<glyph unicode="9" glyph-name="nine" horiz-adv-x="1184" d="M569 629Q617 629 664 647T752 697T823 768T868 854Q863 950 847 1045T796 1217T706 1340T567 1388Q501 1388 451 1359T368 1281T318 1169T301 1038Q301 1000 305 955T319 864T349 777T398 701T470
649T569 629ZM308 155Q315 133 330 113T370 78T431 54T516 45Q594 45 650 78T746 165T810 288T848 432T866 577T870 708Q844 674 810 643T733 589T638 551T526 537Q444 537 381 556T270 609T190 688T137 783T107 887T98 993Q98 1093 132 1179T229 1330T381 1430T582
1467Q726 1467 819 1411T967 1257T1042 1024T1063 735Q1063 660 1056 575T1028 404T970 240T873 101T728 5T526 -33Q425 -34 355 -10T240 52T175 134T154 220Q154 264 176 294T243 327Q268 328 285 320T314 298T330 268T335 239Q335 197 308 155Z" />
<glyph unicode=":" glyph-name="colon" horiz-adv-x="512" d="M376 98Q376 71 366 47T340 5T302 -23T256 -33Q232 -33 211 -23T173 5T147 47T137 98Q137 126 147 150T173 193T212 221T258 232Q283 232 304 222T342 193T367 151T376 98ZM376 923Q376 896 366 872T340
830T302 802T256 792Q232 792 211 802T173 830T147 872T137 923Q137 951 147 975T173 1018T212 1046T258 1057Q283 1057 304 1047T342 1018T367 976T376 923Z" />
<glyph unicode=";" glyph-name="semicolon" horiz-adv-x="539" d="M194 -325Q211 -304 230 -268T263 -188T286 -96T288 0Q259 -13 233 -11T186 4T155 39T143 88Q143 145 176 176T256 207Q291 207 318 193T363 153T391 94T401 21Q401 -18 390 -70T359 -177T311
-281T249 -366L194 -325ZM382 923Q382 896 372 872T346 830T308 802T262 792Q238 792 217 802T179 830T153 872T143 923Q143 951 153 975T179 1018T218 1046T264 1057Q289 1057 310 1047T348 1018T373 976T382 923Z" />
<glyph unicode="&lt;" glyph-name="less" horiz-adv-x="1110" d="M70 709L982 1114V987L209 647L982 305V174L70 571V709Z" />
<glyph unicode="=" glyph-name="equal" horiz-adv-x="1212" d="M150 510L1062 506V387L150 383V510ZM150 895L1062 891V772L150 768V895Z" />
<glyph unicode="&gt;" glyph-name="greater" horiz-adv-x="1108" d="M1039 579L127 174V301L900 641L127 983V1114L1039 717V579Z" />
<glyph unicode="?" glyph-name="question" horiz-adv-x="971" d="M226 1242Q237 1224 243 1204T249 1162Q249 1149 244 1133T227 1104T198 1082T155 1074Q111 1076 90 1106T68 1181Q68 1226 96 1276T178 1369T308 1439T482 1467Q600 1467 681 1435T810 1352T878
1237T894 1109Q890 1040 855 981T768 871T659 776T552 692T470 617T437 547Q437 535 441 523T456 501T482 485T523 479Q537 479 558 482T599 494L623 422Q591 403 546 394T462 385Q432 385 403 392T350 416T313 458T298 522Q298 568 327 608T400 688T495 770T592
863T667 975T701 1115Q702 1170 691 1219T650 1306T572 1365T451 1387Q407 1387 368 1374T298 1339T249 1292T226 1242ZM585 88Q585 63 577 41T555 3T520 -23T476 -33Q455 -33 435 -25T400 -1T375 37T365 88Q365 113 374 135T399 173T435 199T476 209Q499 209 519
200T553 174T576 135T585 88Z" />
<glyph unicode="@" glyph-name="at" horiz-adv-x="1630" d="M1005 907Q957 926 878 926Q806 926 752 882T663 767T609 612T591 446Q591 343 619 282T700 221Q737 221 773 252T844 335T907 457T957 602T991 756T1005 907ZM1544 651Q1544 544 1522 462T1463 321T1381
223T1277 158T1149 132Q1116 132 1076 144T1006 187T969 256T960 332Q960 364 964 401T980 498H976Q938 381 898 311T816 204T737 155T665 143Q622 143 583 159T513 210T466 299T448 428Q448 540 479 641T571 819T722 941T929 987Q953 987 981 986T1038 981T1096
973T1150 961Q1142 891 1133 820T1115 680T1100 551T1090 449T1086 369Q1086 327 1094 291T1116 236T1150 209T1185 202Q1223 202 1256 222T1322 288T1376 412T1399 586Q1399 770 1355 889T1237 1080T1068 1185T846 1219Q795 1220 718 1205T556 1139T402 997T297
787T260 539Q260 428 282 338T345 176T442 53T564 -34T708 -87T853 -106Q943 -106 985 -101T1094 -77T1223 -19T1339 84L1388 33Q1269 -94 1130 -144T856 -195Q714 -195 617 -171T437 -100T290 14T186 162T123 335T102 526Q102 612 121 701T178 874T274 1033T412
1166T581 1256T740 1296T856 1304Q958 1304 1048 1284T1219 1219T1361 1110T1462 972T1523 815T1544 651Z" />
<glyph unicode="A" glyph-name="A" horiz-adv-x="1282" d="M262 223Q254 199 248 180T236 145T224 114T211 82L371 90V0H-12V68Q34 68 63 86T112 139T148 220T186 324L608 1473H657L1114 307Q1123 286 1132 257T1150 196T1163 135T1167 82L1307 90V0H838V68Q895
69 922 89T956 138T956 200T938 262L866 454L333 442Q311 379 294 327T262 223ZM510 942Q463 810 428 710T364 530H838L692 922L600 1174H596L510 942Z" />
<glyph unicode="B" glyph-name="B" horiz-adv-x="1274" d="M254 1190Q254 1246 255 1286T261 1352L113 1343V1434Q226 1436 339 1437T576 1438Q695 1438 789 1417T947 1353T1045 1247T1078 1087Q1077 1037 1056 987T993 894T888 818T740 770V766Q853 766 938 739T1080
663T1165 547T1194 401Q1194 307 1158 233T1057 107T904 28T711 0H113V68Q171 69 200 88T241 142T253 224T254 330V1190ZM586 1364Q536 1364 506 1354T460 1321T438 1259T433 1165V784L582 788Q670 790 729 817T825 887T876 983T891 1098Q891 1176 861 1232T787
1315T690 1353T586 1364ZM426 82Q450 80 483 79T548 78T607 78T643 78Q722 78 787 98T898 157T970 254T996 389Q996 483 967 545T890 644T777 696T643 711Q582 711 532 710T433 705V242Q433 186 432 147T426 82Z" />
<glyph unicode="C" glyph-name="C" horiz-adv-x="1432" d="M819 1383Q710 1383 615 1337T448 1205T336 997T295 725Q295 628 314 543T370 385T456 255T567 157T698 96T844 74Q911 74 977 89T1105 134T1221 208T1317 309L1370 266Q1304 175 1229 117T1077 26T927
-20T790 -33Q636 -33 508 23T288 178T145 408T94 694Q94 790 113 885T172 1065T271 1224T409 1352T587 1436T805 1467Q921 1467 1022 1436T1218 1342L1208 1452H1319V977H1245Q1234 1073 1200 1148T1111 1276T982 1355T819 1383Z" />
<glyph unicode="D" glyph-name="D" horiz-adv-x="1526" d="M433 242Q433 186 432 147T426 82Q467 80 504 79T570 78T620 78T646 78Q778 78 886 127T1070 262T1189 467T1231 723Q1231 868 1192 985T1071 1186T867 1315T574 1360Q516 1360 487 1342T446 1292T434
1214T433 1114V242ZM596 1436Q782 1436 935 1393T1199 1261T1371 1036T1432 715Q1432 621 1410 532T1344 363T1235 217T1083 102T888 27T652 0H113V68Q171 70 200 89T241 141T253 219T254 319V1204Q254 1246 255 1283T261 1352L113 1343V1434L596 1436Z" />
<glyph unicode="E" glyph-name="E" horiz-adv-x="1274" d="M433 236Q433 179 432 141T426 76L818 82Q885 83 939 98T1031 150T1091 247T1112 399H1182L1170 0H113V68Q162 69 190 83T233 123T250 182T254 259V319V1204Q254 1246 255 1283T261 1352L113 1343V1434H1098L1108
1075H1041Q1041 1163 1021 1219T965 1307T881 1350T777 1362L588 1359Q531 1356 500 1341T453 1297T436 1222T433 1114V784H817L802 961H893V530H826Q826 590 816 625T783 680T726 706T642 712Q628 712 613 712T433 705V236Z" />
<glyph unicode="F" glyph-name="F" horiz-adv-x="1122" d="M433 244Q433 188 432 148T426 82L635 90V0H113V68Q171 70 200 89T241 141T253 219T254 319V1204Q254 1246 255 1283T261 1352L113 1343V1434H1063L1074 1075H1006Q1006 1166 984 1222T923 1310T833 1352T723
1362L574 1358Q517 1356 488 1337T446 1284T434 1205T433 1106V752H789L774 929H865V498H798Q798 558 788 593T755 648T698 674T614 680Q600 680 585 680T433 673V244Z" />
<glyph unicode="G" glyph-name="G" horiz-adv-x="1559" d="M1368 74H1312Q1278 74 1222 62T1091 21Q1059 9 1021 -1T944 -18T865 -29T792 -33Q638 -33 510 16T290 158T147 384T96 686Q96 782 115 877T174 1059T273 1220T411 1350T590 1436T809 1467Q864 1467 921
1459T1033 1437T1139 1401T1233 1354L1224 1452H1337V983H1263Q1256 1079 1220 1154T1126 1280T990 1358T823 1385Q714 1385 618 1337T451 1202T339 996T297 733Q297 588 337 466T449 255T623 116T845 66Q886 66 931 72T1021 90T1111 121T1196 168V616L1052 608V698H1515V631Q1477
631 1451 617T1409 580T1385 530T1373 475T1369 425T1368 387V74Z" />
<glyph unicode="H" glyph-name="H" horiz-adv-x="1597" d="M1166 693L433 684V244Q433 188 432 148T426 82L574 90V0H113V68Q171 70 200 89T241 141T253 219T254 319V1204Q254 1246 255 1283T261 1352L113 1343V1434H574V1366Q516 1364 487 1345T446 1292T434
1214T433 1114V774H1166V1204Q1166 1290 1172 1352L1024 1343V1434H1485V1366Q1428 1364 1399 1345T1357 1292T1345 1214T1344 1114V244Q1344 134 1338 82L1485 90V0H1024V68Q1082 70 1111 89T1153 141T1165 219T1166 319V693Z" />
<glyph unicode="I" glyph-name="I" horiz-adv-x="686" d="M254 1204Q254 1246 255 1283T261 1352L113 1343V1434H574V1366Q516 1364 487 1345T446 1292T434 1214T433 1114V244Q433 188 432 148T426 82L574 90V0H113V68Q171 70 200 89T241 141T253 219T254 319V1204Z" />
<glyph unicode="J" glyph-name="J" horiz-adv-x="764" d="M165 83Q171 74 181 68T204 57T227 52T246 51Q276 52 299 65T337 106T359 178T367 285V1352L158 1343V1434H703V1366Q652 1366 621 1351T573 1308T551 1243T545 1163V500Q545 356 526 255T467 89T364 -4T212
-33Q169 -33 130 -23T61 6T14 52T-4 113Q-4 133 1 151T18 185T42 207T66 217T92 220Q110 220 127 212T154 191T170 161T175 129Q175 119 173 107T165 83Z" />
<glyph unicode="K" glyph-name="K" horiz-adv-x="1364" d="M254 1204Q254 1246 255 1283T261 1352L113 1343V1434H574V1366Q516 1364 487 1345T446 1292T434 1214T433 1114V778H586L842 1182Q855 1202 871 1225T906 1271T946 1315T988 1354L863 1350V1434H1303V1366Q1238
1361 1185 1349T1084 1307T989 1226T889 1090L689 770Q718 752 741 732T784 689T822 644T859 596L1088 291Q1146 213 1188 169T1264 102T1327 74T1389 68V0H1139Q1124 0 1101 16T1051 61T993 125T932 201L687 532Q648 583 609 629T533 698L433 696V244Q433 188
432 148T426 82L574 90V0H113V68Q171 70 200 89T241 141T253 219T254 319V1204Z" />
<glyph unicode="L" glyph-name="L" horiz-adv-x="1184" d="M433 236Q433 180 432 141T426 76L809 82Q873 83 922 102T1005 163T1055 268T1072 424H1141L1129 0H113V68Q171 70 200 89T241 141T253 219T254 319V1204Q254 1246 255 1283T261 1352L113 1343V1434H574V1366Q516
1364 487 1345T446 1292T434 1214T433 1114V236Z" />
<glyph unicode="M" glyph-name="M" horiz-adv-x="1880" d="M129 1434H442Q513 1273 577 1124T704 831T827 543T954 250H958Q970 278 983 312T1011 382T1038 452T1063 514Q1152 738 1249 965T1442 1434H1745V1366Q1706 1367 1678 1356T1632 1318T1607 1249T1603
1143L1657 211Q1659 175 1660 143T1661 83L1810 90V0H1351V68Q1399 69 1427 85T1469 133T1487 208T1487 311L1434 1184Q1428 1169 1421 1153T1407 1118L946 -20H885Q818 130 750 280T616 582T485 888T360 1202L358 1112Q356 1063 355 1000T351 864T346 714T342
557T338 402T335 256Q334 210 333 165T327 82L481 90V0H90V68Q138 69 165 84T206 125T225 184T231 256L276 1351L129 1346V1434Z" />
<glyph unicode="N" glyph-name="N" horiz-adv-x="1561" d="M1332 -33H1233L344 1162H341L348 285Q348 232 348 182T344 82L492 90V0H117V68Q164 68 191 84T231 125T248 177T252 229L254 1352L117 1343V1434H361L1233 267H1235L1237 1204Q1237 1290 1243 1352L1096
1343V1434H1473V1366Q1415 1364 1387 1345T1347 1292T1335 1214T1336 1114L1332 -33Z" />
<glyph unicode="O" glyph-name="O" horiz-adv-x="1626" d="M295 754Q295 678 309 597T351 437T423 289T526 166T660 82T827 51Q911 51 981 76T1107 146T1205 251T1275 381T1317 530T1332 678Q1332 752 1316 842T1269 1010T1193 1157T1089 1276T958 1356T800 1385Q674
1385 579 1329T421 1183T327 981T295 754ZM94 717Q94 803 113 892T171 1064T269 1221T407 1349T586 1435T807 1467Q932 1467 1034 1435T1218 1349T1358 1221T1457 1064T1516 891T1536 717Q1536 632 1517 544T1459 372T1361 215T1223 86T1044 -1T823 -33Q693 -33
589 -2T403 82T264 208T168 364T112 537T94 717Z" />
<glyph unicode="P" glyph-name="P" horiz-adv-x="1240" d="M506 539Q496 539 475 539T433 540V244Q433 188 432 148T426 82L615 92V0H113V68Q171 70 200 89T241 141T253 219T254 319V1204Q254 1246 255 1283T261 1352L113 1343V1434Q221 1436 335 1436T570 1437Q868
1437 1023 1337Q1189 1228 1189 1018Q1189 975 1180 923T1141 816T1062 710T935 622T752 562T506 539ZM433 625Q471 620 499 619T566 618Q653 618 730 644T865 719T956 840T990 1001Q990 1098 959 1166T872 1276T738 1338T566 1357Q511 1357 484 1340T445 1290T433
1214T433 1114V625Z" />
<glyph unicode="Q" glyph-name="Q" horiz-adv-x="1630" d="M94 717Q94 803 113 892T171 1064T269 1221T407 1349T586 1435T807 1467Q932 1467 1034 1435T1218 1349T1358 1221T1457 1064T1516 891T1536 717Q1536 632 1517 544T1459 372T1361 215T1223 86T1043 -1Q1017
-9 990 -15Q995 -16 999 -16Q1035 -17 1067 -22T1133 -40T1202 -79T1282 -145Q1353 -211 1402 -256T1487 -328T1551 -367T1609 -379V-446H1544Q1488 -446 1445 -444T1363 -432T1285 -398T1198 -332Q1129 -270 1078 -216T984 -121T899 -57T809 -33Q687 -31 588 -2Q484
29 403 82T264 208T168 364T112 537T94 717ZM295 754Q295 678 309 597T351 437T423 289T526 166T660 82T827 51Q911 51 981 76T1107 146T1205 251T1275 381T1317 530T1332 678Q1332 752 1316 842T1269 1010T1193 1157T1089 1276T958 1356T800 1385Q674 1385 579
1329T421 1183T327 981T295 754Z" />
<glyph unicode="R" glyph-name="R" horiz-adv-x="1286" d="M572 640Q538 638 503 638T433 642V244Q433 188 432 148T426 82L574 90V0H113V68Q171 70 200 89T241 141T253 219T254 319V1204Q254 1246 255 1283T261 1352L113 1343V1434Q229 1436 346 1437T582 1436Q730
1433 835 1408T1008 1335T1107 1221T1139 1069Q1139 1009 1123 947T1064 828T947 728T755 660Q795 631 827 586T897 481L1037 262Q1063 221 1087 186T1139 124T1203 83T1287 68V0H1029Q999 26 975 52T930 106T888 163T846 227L709 446Q695 468 680 493T648 545T612
595T572 640ZM433 720Q465 718 494 717T560 717Q644 720 713 738T833 796T912 896T940 1047Q940 1201 852 1279T574 1358Q516 1358 487 1341T446 1291T434 1214T433 1114V720Z" />
<glyph unicode="S" glyph-name="S" horiz-adv-x="1161" d="M237 -16H131L119 420H198Q204 329 237 261T323 146T448 77T600 53Q660 53 713 69T807 118T871 199T895 309Q895 384 862 438T775 533T651 608T509 675T368 746T244 833T156 949T123 1106Q123 1141 131
1181T157 1261T206 1338T283 1404T392 1450T538 1467Q578 1467 623 1462T714 1445T807 1413T895 1361L887 1449H991V1000H917Q912 1074 889 1143T820 1266T709 1352T553 1385Q489 1385 440 1366T358 1313T308 1237T291 1145Q291 1075 324 1024T413 932T538 859T681
793T824 721T949 632T1037 514T1071 356Q1071 271 1039 200T946 77T796 -4T592 -33Q546 -33 498 -27T402 -7T310 26T227 72L237 -16Z" />
<glyph unicode="T" glyph-name="T" horiz-adv-x="1311" d="M1186 1001Q1184 1092 1172 1159T1130 1271T1049 1338T919 1360L746 1359L743 244Q743 134 737 82L907 90V0H426V68Q483 70 512 90T553 143T565 222T565 319L568 1357L356 1356Q291 1356 247 1335T174
1269T134 1159T121 1001H45L57 1434H1251L1263 1001H1186Z" />
<glyph unicode="U" glyph-name="U" horiz-adv-x="1540" d="M1332 639Q1331 505 1303 384T1210 170T1040 22T781 -33Q617 -33 506 10T328 142T231 370T202 698V1114Q202 1141 202 1174T204 1240T207 1302T210 1352L63 1346V1434H523V1366Q471 1366 443 1349T401
1306T385 1253T382 1204V688Q382 612 388 538T410 396T456 272T533 173T647 108T806 84Q917 84 996 124T1127 236T1203 409T1230 629L1238 1204Q1238 1290 1244 1352L1097 1343V1434H1478V1366Q1420 1364 1391 1345T1349 1292T1337 1214T1336 1114L1332 639Z" />
<glyph unicode="V" glyph-name="V" horiz-adv-x="1337" d="M-8 1434H467V1366L465 1364Q414 1361 384 1345T342 1301T336 1234T363 1143Q387 1082 410 1025T456 909T504 791T557 666Q582 608 606 552T652 445T692 349T723 270H727Q1000 1040 1046 1172T1116 1352L959
1343V1434H1374V1366Q1329 1364 1295 1353T1235 1319T1188 1258T1133 1123T1047 884T952 623T850 345T717 -20H660L195 1069Q172 1121 157 1162T132 1237T116 1298T107 1348L-8 1343V1434Z" />
<glyph unicode="W" glyph-name="W" horiz-adv-x="2038" d="M14 1434H511V1366Q451 1363 417 1351T368 1313T357 1246T378 1143Q435 956 521 706T623 413T653 322H657Q667 356 679 395T702 471T771 685T855 946T907 1105T1013 1438H1079Q1179 1122 1205 1046T1327
682T1453 297H1458Q1670 939 1717 1086T1780 1274T1816 1350L1652 1343V1434H2068V1366Q2016 1360 1982 1348T1922 1303T1871 1214T1694 701T1445 -20H1384L1001 1075L640 -20H581Q198 1123 184 1164T159 1239T141 1298T130 1348L14 1343V1434Z" />
<glyph unicode="X" glyph-name="X" horiz-adv-x="1329" d="M18 1434H548V1366L458 1362Q402 1359 382 1344T361 1305T377 1253T411 1196Q484 1084 555 985T666 830Q940 1224 963 1255T1007 1312T1044 1352L872 1343V1434H1275V1366Q1226 1359 1182 1331T1098 1263T1023
1175T723 753L1083 276L1224 86L1343 90V0H841V68Q900 65 928 78T962 114T957 164T927 217L627 615Q386 258 347 199T257 80L427 90V0H24V68Q73 78 110 98T179 149T241 221T306 313L571 694Q482 820 373 973T235 1168T187 1241T155 1296T132 1348L18 1343V1434Z"
/>
<glyph unicode="Y" glyph-name="Y" horiz-adv-x="1298" d="M581 553L226 1116Q173 1198 148 1253T115 1348L-12 1343V1434H516V1366Q445 1366 408 1350T361 1304T363 1233T408 1143Q446 1082 480 1028T548 920T618 812T699 696H703Q932 1132 976 1212T1034 1313T1063
1350L901 1343V1434H1319V1366Q1268 1363 1228 1346T1153 1297T1086 1216T759 614Q758 515 758 380T758 244Q758 134 752 82L922 90V0H441V68Q498 70 527 90T568 143T580 222T580 319L581 553Z" />
<glyph unicode="Z" glyph-name="Z" horiz-adv-x="1249" d="M88 94Q146 175 219 278T382 512T580 808T815 1174Q844 1220 876 1266T946 1358L424 1350Q363 1347 318 1327T243 1265T198 1160T183 1010H113L125 1434H1141V1362L406 246Q383 213 365 188T330 143T298
107T266 76L764 84Q831 85 889 105T990 166T1057 271T1082 420H1151L1139 0H88V94Z" />
<glyph unicode="[" glyph-name="bracketleft" horiz-adv-x="735" d="M164 1546H707V1423L317 1417L308 -393L711 -399V-522H162L164 1546Z" />
<glyph unicode="\" glyph-name="backslash" horiz-adv-x="1413" d="M43 1473L1253 -556L1372 -481L175 1556L43 1473Z" />
<glyph unicode="]" glyph-name="bracketright" horiz-adv-x="735" d="M572 -522H29V-399L419 -393L428 1417L25 1423V1546H574L572 -522Z" />
<glyph unicode="^" glyph-name="asciicircum" horiz-adv-x="1686" d="M936 1467L1563 894H1382L837 1394L291 904H123L754 1467H936Z" />
<glyph unicode="_" glyph-name="underscore" horiz-adv-x="1493" d="M117 -102L1376 -111V-227H117V-102Z" />
<glyph unicode="`" glyph-name="grave" horiz-adv-x="516" d="M137 1405Q111 1432 102 1455Q99 1462 96 1472T93 1493Q93 1506 96 1517T110 1541T135 1560T167 1567T206 1556T252 1511L424 1235L367 1188L137 1405Z" />
<glyph unicode="a" glyph-name="a" horiz-adv-x="1057" d="M694 501Q647 499 597 493T498 473T406 438T331 388T281 321T265 235Q266 197 279 169T314 122T364 94T424 84Q465 84 501 92T569 115T632 153T694 204V501ZM132 811Q132 862 162 907T246 985T374 1038T537
1057Q709 1057 790 966T871 677L869 217Q869 185 868 153T861 78L1006 86V0H713Q707 35 704 61T699 116Q630 47 549 7T376 -33Q299 -33 242 -15T146 37T89 114T70 210Q70 273 97 325T171 417T280 487T411 536T553 563T695 571V699Q695 752 689 802T663 893T599
958T498 982Q465 982 435 977T376 958T324 924T285 874Q300 857 305 837T311 797Q311 785 306 770T291 741T264 719T219 710Q179 710 156 739T132 811Z" />
<glyph unicode="b" glyph-name="b" horiz-adv-x="1192" d="M155 1280Q155 1312 155 1342T161 1413L16 1405V1491Q83 1491 127 1495T200 1508T244 1525T272 1546H331V935Q388 992 466 1024T642 1057Q740 1057 824 1021T971 917T1069 753T1105 536Q1105 405 1061
300T943 121T773 7T573 -33Q538 -33 499 -28T420 -8T342 31T272 92L223 0H151L155 1280ZM579 956Q511 956 445 925T331 840V322Q331 240 351 188T405 105T482 63T573 51Q647 51 706 82T807 171T871 309T894 486Q894 589 875 675T816 824T718 921T579 956Z" />
<glyph unicode="c" glyph-name="c" horiz-adv-x="1090" d="M838 871Q824 907 797 928T739 962T676 977T623 981Q553 981 493 953T388 869T319 732T293 544Q293 442 318 356T390 207T501 109T645 74Q693 74 740 87T829 125T906 181T967 250L1020 209Q979 145 927
100T817 25T701 -19T590 -33Q486 -33 394 2T233 105T124 271T84 494Q84 565 101 634T152 765T232 881T338 974T468 1035T618 1057Q703 1057 773 1036T893 980T970 900T997 804Q997 760 973 729T902 696Q875 695 857 704T828 728T812 758T807 788Q807 808 813 830T838
871Z" />
<glyph unicode="d" glyph-name="d" horiz-adv-x="1225" d="M1026 217Q1026 185 1025 153T1018 78L1163 86V0H870Q865 30 862 56T857 107Q798 43 715 5T528 -33Q433 -33 353 3T213 106T120 268T86 483Q86 608 125 713T235 895T401 1014T612 1057Q646 1057 680 1052T745
1039T804 1021T851 1000L852 1280Q852 1312 852 1342T858 1413L713 1405V1491Q780 1491 824 1495T896 1508T939 1525T967 1546H1026V217ZM602 68Q636 68 671 78T738 106T799 148T851 202Q850 227 850 255T850 315L851 905Q802 943 744 959T625 976Q548 976 486
942T381 846T317 703T297 502Q297 419 319 334T380 191T474 101T602 68Z" />
<glyph unicode="e" glyph-name="e" horiz-adv-x="1110" d="M604 977Q484 977 406 907T303 678H825Q825 732 813 785T775 881T706 950T604 977ZM1018 604L297 592Q296 474 315 378T375 214T480 109T635 72Q683 72 733 85T829 120T915 174T980 242L1030 201Q988
137 933 93T818 20T698 -20T586 -33Q480 -33 389 5T230 114T125 285T86 510Q86 618 123 716T228 891T391 1012T602 1057Q687 1057 762 1029T895 945T985 804T1018 604Z" />
<glyph unicode="f" glyph-name="f" horiz-adv-x="692" d="M645 1447Q630 1467 605 1475T557 1483Q509 1483 478 1462T429 1405T404 1327T396 1239V1024H672V944L396 939L398 217Q398 176 397 145T389 78L518 84V0H101V61Q148 61 172 79T208 131T220 210T221 311L219
935L51 932V1024H219V1067Q219 1181 238 1271T302 1425T416 1522T588 1556Q621 1556 659 1548T730 1521T785 1474T807 1405Q807 1364 783 1338T722 1312Q696 1312 680 1320T654 1342T639 1370T634 1397Q634 1409 636 1421T645 1447Z" />
<glyph unicode="g" glyph-name="g" horiz-adv-x="1133" d="M562 -67Q505 -65 452 -62T351 -51Q294 -88 264 -141T233 -254Q233 -305 257 -345T327 -415T437 -459T581 -475Q669 -475 738 -457T856 -409T929 -340T954 -256Q954 -199 925 -164T843 -108T719 -79T562
-67ZM544 985Q489 985 446 963T374 902T329 810T313 696Q313 622 329 562T376 457T452 389T554 365Q611 365 653 386T724 444T767 533T782 645Q782 712 767 774T722 882T648 957T544 985ZM992 1065Q966 1061 946 1049T911 1017T887 976T872 930Q923 883 952 820T982
686Q982 599 947 527T851 402T713 320T548 291Q510 291 481 296T411 301Q373 301 342 291T289 264T260 230T253 201Q253 189 257 176Q264 152 289 137T356 114T453 101T581 94Q699 89 792 72T951 19T1050 -73T1085 -213Q1085 -296 1041 -359T925 -466T764 -532T583
-555Q445 -555 348 -531T189 -468T100 -379T72 -278Q72 -231 90 -192T135 -122T196 -69T261 -32Q195 -12 157 25T119 129Q119 165 134 199T176 263T240 312T323 340Q276 362 238 393T173 464T132 551T117 652Q117 744 154 819T252 947T390 1028T548 1057Q617 1057
684 1038T808 980Q823 1023 849 1060T907 1123T978 1165T1057 1180Q1109 1180 1137 1153T1166 1078Q1166 1066 1161 1051T1146 1023T1118 1001T1077 993Q1042 994 1020 1014T992 1065Z" />
<glyph unicode="h" glyph-name="h" horiz-adv-x="1227" d="M192 1280Q192 1312 192 1342T198 1413L53 1405V1491Q120 1491 164 1495T237 1508T281 1525T309 1546H368V922Q402 950 442 975T525 1018T614 1046T704 1057Q793 1057 857 1030T961 946T1021 803T1042
599L1044 217Q1044 176 1043 145T1036 78L1165 84V0H747V61Q794 61 818 79T854 131T866 210T868 311V597Q868 774 812 861T634 949Q599 949 560 939T487 912T422 872T368 822V217Q368 176 366 145T358 78L487 84V0H69V61Q116 61 141 79T177 131T190 210T192 311V1280Z"
/>
<glyph unicode="i" glyph-name="i" horiz-adv-x="575" d="M211 778Q211 810 212 840T219 911L74 903V989Q141 989 185 993T257 1006T300 1023T328 1044H387V217Q387 176 386 145T379 78L508 84V0H90V61Q137 61 161 79T197 131T209 210T211 311V778ZM406 1368Q406
1343 397 1321T372 1283T337 1257T295 1248Q273 1248 253 1257T218 1282T194 1321T185 1368Q185 1394 194 1416T218 1456T254 1482T297 1492Q320 1492 339 1483T374 1456T397 1417T406 1368Z" />
<glyph unicode="j" glyph-name="j" horiz-adv-x="526" d="M-180 -441Q-180 -403 -156 -374T-92 -344Q-67 -344 -50 -352T-23 -374T-8 -402T-3 -430Q-3 -435 -3 -439T-4 -449Q25 -461 48 -461Q61 -461 83 -456T132 -426Q166 -394 178 -329T191 -177L195 778Q195
810 195 840T201 911L56 903V989Q123 989 167 993T240 1005T284 1023T312 1044H371V-7Q371 -150 342 -253T260 -424T136 -523T-18 -555Q-60 -555 -91 -546T-141 -520T-170 -484T-180 -441ZM382 1368Q382 1343 373 1321T348 1283T313 1257T271 1248Q249 1248 229
1257T194 1282T170 1321T161 1368Q161 1394 170 1416T194 1456T230 1482T273 1492Q296 1492 315 1483T350 1456T373 1417T382 1368Z" />
<glyph unicode="k" glyph-name="k" horiz-adv-x="1100" d="M679 1024H1052V963Q1000 957 953 934T864 878T787 811T724 748L565 580Q605 561 634 533T692 469L837 283Q843 275 857 255T891 211T935 160T984 111T1035 75T1085 61V0H899Q871 0 844 16T791 60T738
121T683 193Q602 303 546 383T450 502L366 498V217Q366 176 365 145T358 78L489 84V0H71V61Q118 61 142 79T177 131T190 210T192 1280Q192 1312 192 1342T198 1413L53 1405V1491Q120 1491 164 1495T236 1508T279 1525T307 1546H366V578H448L698 840Q732 875 761
902T819 948L679 942V1024Z" />
<glyph unicode="l" glyph-name="l" horiz-adv-x="557" d="M190 1280Q190 1312 190 1342T196 1413L51 1405V1491Q118 1491 162 1495T235 1508T279 1525T307 1546H366L368 217Q368 176 366 145T358 78L487 84V0H69V61Q116 61 140 79T176 131T188 210T190 311V1280Z" />
<glyph unicode="m" glyph-name="m" horiz-adv-x="1831" d="M211 778Q211 810 212 843T219 911L74 903V989Q141 989 183 993T250 1006T290 1023T316 1044H375Q377 1024 379 998T383 935Q414 961 450 983T524 1022T603 1048T684 1057Q788 1057 857 1020T965 919Q999
948 1040 973T1125 1017T1215 1046T1305 1057Q1394 1057 1459 1031T1567 950T1629 807T1647 599L1645 217Q1645 176 1644 145T1637 78L1766 84V0H1348V61Q1395 61 1419 79T1455 131T1467 210T1469 311V597Q1469 774 1413 861T1235 949Q1171 949 1108 920T997 848Q1018
779 1018 699L1014 217Q1014 176 1013 145T1006 78L1135 84V0H717V61Q764 61 788 79T823 131T835 210T838 311L840 597Q841 773 789 863T615 953Q552 953 491 926T386 854Q386 830 386 803T387 744V217Q387 176 386 145T379 78L508 84V0H90V61Q137 61 161 79T197
131T209 210T211 311V778Z" />
<glyph unicode="n" glyph-name="n" horiz-adv-x="1243" d="M213 778Q213 810 214 843T221 911L76 903V989Q143 989 185 993T252 1006T292 1023T318 1044H377Q379 1021 381 992T386 920Q419 949 458 974T541 1017T629 1046T719 1057Q897 1057 979 946T1061 599V217Q1061
176 1060 145T1053 78L1182 84V0H764V61Q811 61 835 79T871 131T883 210T885 311V597Q883 774 827 863T649 953Q612 953 575 942T504 914T440 872T388 820Q389 802 389 782T389 740L387 217Q387 176 386 145T379 78L508 84V0H90V61Q137 61 161 79T196 131T208 210T211
311L213 778Z" />
<glyph unicode="o" glyph-name="o" horiz-adv-x="1198" d="M598 979Q517 979 460 943T365 847T311 709T293 547Q293 452 312 362T372 203T472 91T614 49Q695 49 750 85T840 182T890 319T905 477Q905 569 888 659T834 820T739 935T598 979ZM598 1057Q706 1057 800
1018T963 909T1073 744T1114 537Q1114 418 1075 314T966 133T802 12T598 -33Q490 -33 397 5T234 113T124 277T84 487Q84 608 123 712T232 893T395 1013T598 1057Z" />
<glyph unicode="p" glyph-name="p" horiz-adv-x="1223" d="M196 778Q196 810 197 843T204 911L59 903V989Q126 989 168 993T235 1006T275 1023T300 1044H360Q362 1024 364 997T368 934Q399 961 436 984T515 1023T600 1048T686 1057Q775 1057 856 1022T1000 922T1099
762T1136 548Q1136 461 1117 384T1062 243T979 127T872 41T749 -14T614 -33Q472 -33 369 34L368 -305Q368 -346 367 -377T360 -444L489 -438V-522H71V-461Q118 -461 142 -443T177 -391T189 -312T192 -211L196 778ZM613 957Q577 957 543 948T478 923T420 886T371
842Q371 834 371 824T372 788T372 718T372 596T371 405T370 129Q421 91 482 70T610 49Q683 49 741 84T840 181T903 329T925 517Q925 600 908 679T853 820T756 919T613 957Z" />
<glyph unicode="q" glyph-name="q" horiz-adv-x="1180" d="M1028 -305Q1028 -346 1027 -377T1020 -444L1149 -438V-522H731V-461Q778 -461 802 -443T838 -391T850 -312T852 -211V96Q798 35 721 1T545 -33Q449 -33 366 4T220 109T122 273T86 489Q86 617 127 722T240
901T407 1016T612 1057Q675 1057 728 1044T825 1020T906 1012T969 1044H1026L1028 -305ZM618 68Q686 68 748 103T852 198V735Q852 797 840 843T800 920T728 966T617 982Q542 982 483 950T382 860T319 720T297 539Q297 440 318 355T381 205T482 105T618 68Z" />
<glyph unicode="r" glyph-name="r" horiz-adv-x="887" d="M678 945Q639 946 599 931T521 885T448 813T387 720L389 217Q389 176 388 145T381 78L510 84V0H90V61Q137 61 161 79T197 131T209 210T211 311V779Q211 811 212 843T219 911L74 905V989H137Q181 989 210
993T258 1006T291 1023T316 1044H375Q378 1012 380 965T385 842Q408 880 444 918T525 987T622 1037T729 1057Q757 1057 783 1050T829 1026T861 986T873 928Q873 914 868 897T850 865T818 840T771 830Q748 830 730 840T699 865T681 901T678 945Z" />
<glyph unicode="s" glyph-name="s" horiz-adv-x="948" d="M474 47Q513 47 552 56T624 86T677 136T698 209Q698 258 673 292T606 353T511 401T402 444T293 492T199 555T132 641T106 760Q106 803 122 854T178 951T285 1026T456 1057Q484 1057 515 1053T580 1039T646
1011T711 969L706 1047H792V688H728Q724 741 708 793T660 886T580 954T466 980Q418 980 381 968T319 934T280 884T267 825Q267 775 292 739T360 675T456 625T566 579T676 529T772 466T839 382T865 268Q865 191 834 134T753 40T639 -15T510 -33Q406 -33 327 -6T197
57L204 -14H118L106 338H169Q173 274 198 221T265 129T360 69T474 47Z" />
<glyph unicode="t" glyph-name="t" horiz-adv-x="793" d="M43 1024Q97 1025 141 1053T218 1124T275 1217T311 1311H381Q381 1229 381 1158T380 1024H725V944L380 940Q379 807 379 713T379 556T378 457T378 401T377 377T377 370Q377 300 384 247T410 157T457 102T532
83Q585 83 637 115T729 206L784 161Q739 93 695 55T610 -3T536 -28T475 -33Q444 -33 412 -28T348 -9T289 32T240 101T207 203T196 345L200 937L43 936V1024Z" />
<glyph unicode="u" glyph-name="u" horiz-adv-x="1223" d="M850 755Q850 805 852 840T860 911L713 905V989H776Q820 989 851 993T904 1006T940 1023T967 1044H1026L1024 270Q1024 254 1024 230T1022 179T1020 126T1016 78L1163 86V0H870Q865 35 862 64T856 123Q824
91 785 63T703 13T613 -20T522 -33Q438 -33 375 -11T270 64T207 201T186 414V778Q186 810 187 843T194 911L53 905V989H117Q160 989 191 993T244 1006T280 1023T307 1044H366V420Q366 331 378 266T416 157T485 93T588 72Q627 72 664 85T736 120T799 170T850 230V315V755Z"
/>
<glyph unicode="v" glyph-name="v" horiz-adv-x="1034" d="M561 -6H479L186 662Q161 720 145 765T119 844T105 903T100 946L12 940V1024H389V963Q342 963 322 944T299 894T309 821T342 735L499 375Q515 340 530 302T561 224H563Q574 254 586 288T611 356L774 805Q791
854 808 891T835 946L704 940V1024H1028V963Q994 963 969 946T922 894T878 807T829 686L561 -6Z" />
<glyph unicode="w" glyph-name="w" horiz-adv-x="1640" d="M12 1024H446V963Q400 961 376 945T345 899T344 830T368 741L529 257Q765 957 786 1024H870L1143 242Q1353 851 1367 887T1401 947L1282 940V1024H1638V963Q1585 960 1551 948T1495 915T1459 866T1431
800L1136 -6H1054L786 769L520 -6H442L174 780Q151 845 139 883T121 946L12 940V1024Z" />
<glyph unicode="x" glyph-name="x" horiz-adv-x="1085" d="M45 1024H467V963Q421 961 395 951T363 920T374 863T428 776L547 614Q803 927 825 948L684 940V1024H1020V963Q978 951 947 934T887 891T598 555L880 204Q904 174 925 145T970 78L1063 84V0H667V61Q692
61 711 66T738 84T743 116T717 162L501 428Q292 142 283 130T262 106T236 78L393 84V0H49V61Q80 69 104 82T149 115T448 494Q196 830 174 873T141 945L45 940V1024Z" />
<glyph unicode="y" glyph-name="y" horiz-adv-x="1081" d="M264 -448Q275 -453 287 -453Q305 -453 333 -438T391 -372Q417 -327 453 -238T535 -23Q188 720 169 765T138 844T118 903T107 945L8 940V1024H432V963L423 962Q380 959 358 943T330 898T336 821T617 207Q830
828 843 860T869 916T893 948L752 940V1024H1073V963Q1035 948 1008 925T959 868T920 791T627 -18Q580 -147 541 -247T460 -416T367 -519T248 -555Q216 -555 188 -548T139 -525T106 -486T94 -431Q94 -412 100 -394T117 -362T145 -340T182 -331Q206 -331 222 -340T249
-363T263 -392T267 -420Q267 -426 267 -433T264 -448Z" />
<glyph unicode="z" glyph-name="z" horiz-adv-x="1047" d="M82 0V84Q702 882 717 900T746 932T770 952L385 946Q328 945 291 922T232 860T197 769T176 657H113L137 1024H940V958L363 199Q350 182 339 168T315 141T289 114T256 84L651 78Q715 77 758 100T829 163T872
257T897 373H957L932 0H82Z" />
<glyph unicode="{" glyph-name="braceleft" horiz-adv-x="684" d="M192 537Q236 528 277 507T351 452T402 369T422 256Q422 232 420 200T415 130Q402 -22 400 -47T397 -90T396 -119T395 -145Q395 -232 406 -298T445 -408T523 -475T647 -498H659V-555H602Q497 -555
427 -527T314 -444T255 -307T237 -117Q237 -72 240 -20T247 86T254 189T258 279Q258 331 249 370T217 434T156 473T61 486H14V592H61Q118 592 156 603T216 639T248 700T258 791Q258 872 248 957T237 1134Q237 1242 254 1321T314 1453T426 1530T602 1556H659V1486H636Q564
1486 518 1467T444 1408T406 1308T395 1163Q395 1146 396 1126T399 1082L412 943Q417 895 420 863T422 813Q422 749 403 702T351 621T278 569T192 541V537V537Z" />
<glyph unicode="|" glyph-name="bar" horiz-adv-x="473" d="M315 1556L307 -555H168L162 1556H315Z" />
<glyph unicode="}" glyph-name="braceright" horiz-adv-x="684" d="M492 537V541Q448 549 407 568T333 621T282 701T262 813Q261 831 264 863T272 943L285 1082Q287 1105 288 1125T289 1163Q289 1247 279 1307T241 1408T167 1467T48 1486H25V1556H82Q187 1556
257 1531T370 1453T429 1322T447 1134Q447 1043 437 958T426 791Q426 738 435 701T467 639T528 604T623 592H670V486H623Q566 486 528 473T468 435T436 370T426 279Q426 239 429 189T436 86T443 -19T447 -117Q447 -225 430 -307T370 -444T258 -527T82 -555H25V-498H37Q112
-498 161 -476T238 -409T278 -298T289 -145Q289 -132 289 -120T287 -90T284 -48T269 130Q266 167 264 199T262 256Q262 320 281 368T333 451T406 507T492 537Z" />
<glyph unicode="~" glyph-name="asciitilde" horiz-adv-x="1188" d="M391 627Q349 627 315 619T251 598T194 566T139 528V657Q171 683 200 703T260 738T324 759T399 766Q454 766 495 755T568 726T626 689T680 651T739 623T813 611Q881 611 940 637T1049 709V580Q1007
532 947 503T805 473Q754 473 715 484T643 513T583 550T526 587T465 615T391 627Z" />
<glyph unicode="&#xa0;" glyph-name="uni00A0" horiz-adv-x="539" />
<glyph unicode="&#xa1;" glyph-name="exclamdown" horiz-adv-x="498" d="M129 926Q129 953 139 977T166 1019T204 1047T250 1057Q274 1057 295 1047T333 1019T359 977T369 926Q369 898 359 874T333 831T294 803T248 792Q223 792 201 802T163 831T138 873T129 926ZM211
553H287L367 -292Q369 -319 363 -346T341 -394T303 -429T248 -443Q215 -443 192 -430T155 -395T135 -346T131 -292L211 553Z" />
<glyph unicode="&#xa2;" glyph-name="cent" horiz-adv-x="1087" d="M828 873Q814 909 787 930T729 964T666 979T613 983Q543 983 483 955T378 870T309 732T283 544Q283 442 308 355T380 205T491 107T635 71Q683 71 730 85T819 123T896 179T957 249L1010 208Q974
152 929 110T833 38T731 -9T630 -33L629 -274H510L509 -33Q417 -22 338 19T200 127T108 287T74 494Q74 589 105 682T194 852T333 984T513 1057L512 1274H645L643 1057Q721 1052 784 1030T893 974T962 897T987 806Q987 784 981 765T962 730T933 707T892 698Q865
698 847 707T818 730T802 760T797 790Q797 810 803 832T828 873Z" />
<glyph unicode="&#xa3;" glyph-name="sterling" horiz-adv-x="1122" d="M788 1288Q777 1328 736 1358T622 1389Q564 1389 521 1365T448 1301T405 1209T390 1100Q390 1048 394 1001T406 909T421 822T439 737H749V639H456Q461 602 464 565T468 487Q468 421 439 359T362
240Q388 244 414 246T468 248Q535 248 594 229T705 187T800 144T878 125Q924 125 953 156T988 254H1052Q1050 192 1036 140T995 49T931 -11T843 -33Q800 -33 760 -19T680 18T601 65T522 113T439 149T350 164Q329 164 317 162Q312 123 298 88T265 25T222 -17T173
-33Q136 -33 116 -10T96 43Q96 71 109 98T146 149T202 191T274 221Q297 257 312 304T327 408Q327 474 317 529T291 639H128V737H264Q249 797 238 864T227 1018Q227 1120 255 1203T334 1344T453 1435T606 1467Q696 1467 757 1443T856 1383T910 1305T926 1228Q926
1193 905 1166T844 1139Q821 1139 806 1147T780 1167T766 1193T762 1219Q762 1230 766 1250T788 1288Z" />
<glyph unicode="&#xa4;" glyph-name="currency" horiz-adv-x="1096" d="M208 976L318 838Q364 875 421 896T549 918Q618 918 674 897T779 838L890 976L973 910L847 766Q886 713 906 649T926 521Q926 458 908 396T852 285L973 148L890 82L784 214Q739 179 680 159T548
138Q476 138 418 158T313 213L208 82L125 148L245 284Q208 335 190 396T172 521Q172 585 192 649T251 767L125 910L208 976ZM549 845Q511 845 481 831T429 793T391 739T366 676T352 612T348 554Q348 505 356 447T387 337T449 252T549 218Q610 218 649 252T710 337T741
446T750 554Q750 593 740 643T707 738T646 814T549 845Z" />
<glyph unicode="&#xa5;" glyph-name="yen" horiz-adv-x="1444" d="M388 648H590L295 1116Q242 1198 217 1253T184 1348L57 1343V1434H585V1366Q499 1366 462 1342T425 1276Q425 1248 438 1215T477 1143Q515 1082 548 1028T616 920T687 812T768 696H772Q808 766
841 829T906 953T969 1072T1034 1194Q1041 1209 1051 1229T1075 1271T1102 1313T1132 1350L970 1343V1434H1388V1366Q1337 1363 1297 1346T1222 1297T1155 1216T1087 1102L845 645H1094V557L827 555L826 425L1094 424V336L826 334Q826 244 827 244Q827 134 821
82L991 90V0H510V68Q558 69 586 84T628 123T645 182T649 257V332H388V426H650V553H388V648Z" />
<glyph unicode="&#xa6;" glyph-name="brokenbar" horiz-adv-x="498" d="M325 1556L317 789H178L172 1556H325ZM325 207L317 -555H178L172 207H325Z" />
<glyph unicode="&#xa7;" glyph-name="section" horiz-adv-x="1092" d="M236 698Q236 624 263 568T335 468T438 387T557 316T679 245T790 165Q825 210 843 269T861 385Q861 458 834 514T761 614T658 694T539 765T417 836T306 916Q271 870 254 813T236 698ZM170
-205Q170 -185 176 -166T195 -133T224 -109T262 -100Q285 -100 300 -108T326 -130T340 -159T344 -192Q344 -203 338 -222T321 -255Q323 -281 340 -304T386 -347T450 -377T527 -388Q597 -388 645 -367T723 -314T766 -244T779 -172Q779 -114 749 -68T670 19T557 96T429
171T300 253T188 350T108 470T78 622Q78 665 90 710T125 799T182 884T259 962Q220 1007 197 1066T173 1192Q173 1227 181 1268T207 1349T254 1426T327 1493T427 1539T558 1556Q640 1556 707 1534T823 1475T897 1394T924 1302Q924 1283 919 1266T902 1236T876 1215T839
1207Q813 1207 797 1215T772 1236T758 1263T753 1291Q753 1303 758 1325T778 1360Q768 1385 748 1407T701 1444T639 1469T566 1478Q495 1478 447 1456T370 1401T327 1328T314 1255Q314 1197 344 1151T423 1064T536 987T665 912T794 830T906 733T986 613T1016 461Q1016
417 1004 372T969 282T912 197T835 119Q873 74 896 19T920 -109Q920 -142 912 -181T885 -260T837 -337T764 -403T665 -449T535 -467Q445 -467 377 -444T263 -383T194 -299T170 -205Z" />
<glyph unicode="&#xa8;" glyph-name="dieresis" horiz-adv-x="793" d="M327 1369Q327 1344 319 1322T296 1284T264 1258T225 1248Q204 1248 186 1257T153 1283T131 1322T123 1369Q123 1394 131 1417T154 1456T187 1483T226 1493Q248 1493 266 1483T298 1457T319
1417T327 1369ZM669 1369Q669 1344 661 1322T638 1284T606 1258T567 1248Q546 1248 528 1257T495 1283T473 1322T465 1369Q465 1394 473 1417T496 1456T529 1483T568 1493Q590 1493 608 1483T640 1457T661 1417T669 1369Z" />
<glyph unicode="&#xa9;" glyph-name="copyright" horiz-adv-x="1796" d="M90 713Q90 826 117 931T195 1127T318 1294T481 1423T677 1506T901 1536Q1020 1536 1126 1507T1322 1423T1484 1294T1606 1128T1683 931T1710 713Q1710 601 1681 497T1600 303T1473 138T1309
10T1114 -72T897 -102Q715 -102 566 -41T312 129T148 387T90 713ZM228 713Q228 619 249 530T310 361T408 215T542 101T707 27T903 0Q1005 0 1094 26T1258 101T1392 215T1491 360T1553 529T1575 713Q1575 808 1553 898T1490 1069T1389 1216T1254 1333T1088 1409T897
1436Q797 1436 709 1409T546 1333T412 1217T312 1069T250 899T228 713ZM924 1116Q865 1116 808 1092T706 1019T634 899T606 733Q606 648 632 576T707 451T821 368T969 338Q1003 338 1042 348T1121 378T1198 426T1264 489L1325 418Q1280 356 1226 316T1116 252T1007
219T910 209Q803 209 713 247T556 353T452 512T414 709Q414 769 428 831T471 950T541 1058T639 1146T764 1205T916 1227Q991 1227 1060 1204T1183 1143L1176 1217H1278V872H1196Q1188 939 1165 985T1105 1061T1023 1103T924 1116Z" />
<glyph unicode="&#xaa;" glyph-name="ordfeminine" horiz-adv-x="838" d="M511 1102Q465 1102 420 1093T338 1066T279 1020T256 954Q256 921 271 902T303 874T335 866T350 865Q392 865 432 885T508 941L511 1102ZM144 1278Q144 1313 164 1347T219 1407T303 1450T410
1467Q521 1467 580 1408T639 1222L637 994Q636 930 651 901T695 871Q708 871 731 888L754 849Q745 837 731 826T698 805T661 789T623 783Q596 783 577 790T545 810T525 838T513 870Q475 828 426 804T312 779Q212 779 162 822T111 931Q111 993 148 1037T244 1110T374
1152T512 1166V1236Q512 1267 509 1296T493 1348T454 1384T382 1398Q363 1398 344 1393T307 1377T278 1352T259 1320Q276 1300 276 1270Q276 1260 273 1249T261 1229T241 1213T209 1206Q179 1206 162 1227T144 1278Z" />
<glyph unicode="&#xab;" glyph-name="guillemotleft" horiz-adv-x="1085" d="M65 540V548L626 1123L689 1058L286 540V536L685 50L620 -15L65 540ZM501 546V552L907 951L972 890L724 558V554L968 218L902 157L501 546Z" />
<glyph unicode="&#xac;" glyph-name="logicalnot" horiz-adv-x="1212" d="M150 705L1062 700V322H957L950 581L150 578V705Z" />
<glyph unicode="&#xad;" glyph-name="uni00AD" horiz-adv-x="1001" d="M137 727H864V592L137 584V727Z" />
<glyph unicode="&#xae;" glyph-name="registered" horiz-adv-x="1798" d="M90 713Q90 826 117 931T195 1128T318 1295T480 1423T677 1506T901 1536Q1021 1536 1127 1507T1324 1424T1485 1295T1607 1129T1683 932T1710 713Q1710 600 1682 496T1601 301T1474 136T1310
9T1116 -73T897 -102Q714 -102 566 -42T311 127T148 385T90 713ZM230 713Q230 618 250 529T311 360T409 216T541 103T707 29T903 2Q1006 2 1095 28T1259 102T1392 215T1491 360T1553 528T1575 713Q1575 808 1553 898T1490 1069T1389 1217T1254 1333T1089 1409T897
1436Q796 1436 708 1409T545 1334T413 1218T314 1070T252 899T230 713ZM764 461Q764 426 763 401T760 356L862 360V279H514V348Q551 349 571 361T601 394T611 446T613 512V1047Q613 1074 613 1099T617 1145L514 1135V1221Q546 1222 586 1223T670 1226T757 1229T840
1230Q953 1230 1035 1210T1169 1154T1247 1068T1272 958Q1272 924 1260 884T1219 806T1143 735T1023 682V680Q1040 672 1062 653T1110 596Q1168 509 1206 459T1271 382T1319 348T1362 340V270H1184Q1153 278 1117 320T1030 434Q985 497 946 556T876 661Q861 658
833 658Q813 658 794 659T764 662V461ZM764 748H766Q783 746 801 745T837 744Q859 744 888 747T948 760T1008 784T1061 822T1098 877T1112 952Q1112 998 1093 1033T1043 1093T970 1129T886 1142Q838 1142 813 1130T777 1095T765 1040T764 969V748Z" />
<glyph unicode="&#xaf;" glyph-name="overscore" horiz-adv-x="727" d="M92 1434H635V1319L92 1311V1434Z" />
<glyph unicode="&#xb0;" glyph-name="degree" horiz-adv-x="829" d="M225 1148Q225 1106 238 1067T277 998T337 951T415 933Q457 933 492 950T552 998T590 1067T604 1148Q604 1190 591 1229T552 1298T492 1347T413 1365Q371 1365 337 1347T277 1299T239 1229T225
1148ZM96 1148Q96 1215 121 1273T191 1374T293 1442T417 1467Q489 1467 547 1442T647 1374T711 1273T733 1148Q733 1081 707 1023T637 922T535 853T411 828Q339 828 281 853T182 921T118 1023T96 1148Z" />
<glyph unicode="&#xb1;" glyph-name="plusminus" horiz-adv-x="1180" d="M133 737L522 735V1057H654V735L1045 733V618L654 616V276H522V615L133 614V737ZM1045 6H133V112L1045 121V6Z" />
<glyph unicode="&#xb2;" glyph-name="twosuperior" horiz-adv-x="788" d="M239 1311Q258 1294 258 1264Q258 1255 255 1245T245 1225T226 1210T197 1204Q171 1204 155 1223T139 1270Q139 1300 155 1334T204 1398T283 1447T393 1467Q441 1467 485 1454T563 1414T618
1346T639 1248Q639 1218 631 1186T598 1115T525 1032T399 929Q262 829 237 742L410 738Q431 737 451 737T488 736Q515 736 537 739T574 751T597 776T606 820H649V627H125Q125 691 144 743T197 842T273 928T365 1008Q408 1043 433 1076T473 1140T491 1198T496 1246Q496
1312 463 1352T367 1393Q342 1393 321 1386T282 1368T254 1342T239 1311Z" />
<glyph unicode="&#xb3;" glyph-name="threesuperior" horiz-adv-x="758" d="M111 808Q111 840 128 861T178 883Q194 883 205 877T224 862T235 840T238 817Q238 806 234 794T222 773Q225 752 237 738T267 714T307 700T352 695Q392 695 422 710T471 749T501 804T511
867Q511 892 505 922T482 980T428 1026T343 1044Q317 1044 286 1042V1107H310Q369 1107 403 1124T454 1165T475 1214T480 1256Q480 1281 474 1306T452 1352T413 1386T352 1399Q299 1399 269 1373T232 1317Q250 1299 250 1272Q250 1263 247 1253T237 1233T218 1218T189
1212Q162 1212 147 1232T132 1279Q132 1307 147 1339T193 1400T268 1448T374 1467Q427 1467 470 1453T544 1413T592 1350T609 1268Q609 1242 598 1215T566 1162T512 1117T436 1086V1084Q489 1079 529 1060T596 1012T636 946T650 867Q650 817 631 773T575 696T485
644T364 625Q302 625 255 641T176 683T128 742T111 808Z" />
<glyph unicode="&#xb4;" glyph-name="acute" horiz-adv-x="516" d="M149 1188L92 1235L264 1511Q287 1544 309 1555T348 1567T380 1561T406 1541T419 1517T423 1493Q423 1482 420 1472T414 1455Q405 1432 379 1405L149 1188Z" />
<glyph unicode="&#xb5;" glyph-name="mu" horiz-adv-x="1257" d="M1006 1024L1004 289Q1004 236 1010 200T1029 141T1058 108T1096 98Q1115 98 1134 105T1182 133L1205 102Q1192 84 1171 64T1124 27T1065 -1T998 -12Q960 -12 934 -2T888 27T858 68T841 115Q812
85 776 58T698 11T613 -21T525 -33Q447 -33 391 11T293 133Q304 21 315 -57T338 -188T359 -276T376 -334T387 -377T392 -421Q392 -441 386 -461T369 -496T340 -522T298 -532Q241 -532 217 -485T193 -355L195 1024H367V483Q367 396 376 321T409 190T476 104T586
72Q624 72 659 83T727 115T785 161T832 218V1024H1006Z" />
<glyph unicode="&#xb6;" glyph-name="paragraph" horiz-adv-x="1026" d="M823 1434L819 -522H676L680 1350L501 1344L496 -522H352L357 837Q306 841 255 858T162 911T94 1002T68 1136Q68 1209 93 1265T159 1358T252 1415T359 1434H823Z" />
<glyph unicode="&#xb7;" glyph-name="middot" horiz-adv-x="512" d="M376 671Q376 644 366 620T340 578T302 550T256 540Q232 540 211 550T173 578T147 620T137 671Q137 699 147 723T173 766T212 794T258 805Q283 805 304 795T342 766T367 724T376 671Z" />
<glyph unicode="&#xb8;" glyph-name="cedilla" horiz-adv-x="598" d="M369 -116Q432 -116 469 -152T506 -251Q506 -292 486 -325T433 -383T358 -427T271 -459T183 -480T104 -494L92 -425Q144 -416 189 -402T267 -368T319 -324T338 -269Q338 -236 319 -222T273
-208Q250 -208 225 -216T180 -238L111 -204L170 16H285L229 -152Q258 -134 296 -125T369 -116Z" />
<glyph unicode="&#xb9;" glyph-name="onesuperior" horiz-adv-x="580" d="M155 674Q186 674 206 686T237 718T252 765T256 825V1319H251L124 1243L92 1301L320 1467H371L373 762Q373 739 372 719T369 682L473 686V616H155V674V674Z" />
<glyph unicode="&#xba;" glyph-name="ordmasculine" horiz-adv-x="858" d="M425 1398Q387 1398 352 1377T294 1322T259 1243T247 1144Q247 1086 258 1033T293 940T352 875T437 851Q482 851 515 870T572 924T606 1003T618 1101Q618 1159 607 1213T573 1308T515
1373T425 1398ZM434 1467Q505 1467 564 1443T667 1374T736 1269T761 1133Q761 1055 737 990T668 878T563 805T429 779Q358 779 298 803T193 871T124 975T98 1107Q98 1183 123 1249T194 1363T300 1439T434 1467Z" />
<glyph unicode="&#xbb;" glyph-name="guillemotright" horiz-adv-x="1083" d="M1020 568V560L459 -15L396 50L799 568V572L400 1058L465 1123L1020 568ZM584 562V556L178 157L113 218L361 550V554L117 890L183 951L584 562Z" />
<glyph unicode="&#xbc;" glyph-name="onequarter" horiz-adv-x="1563" d="M1278 1402L309 -33L232 20L1188 1467L1278 1402ZM156 674Q187 674 207 686T238 718T253 765T257 825V1319H252L125 1243L93 1301L321 1467H372L374 762Q374 739 373 719T370 682L474 686V616H156V674V674ZM1460
0H1159V59Q1190 60 1210 70T1241 98T1256 140T1260 195V215H913V276L1321 842H1375V289H1491V215H1376V66L1460 70V0ZM1009 296L1259 292V643H1257L1009 296Z" />
<glyph unicode="&#xbd;" glyph-name="onehalf" horiz-adv-x="1642" d="M1276 1402L307 -33L230 20L1186 1467L1276 1402ZM410 674Q441 674 461 686T492 718T507 765T511 825V1319H506L379 1243L347 1301L575 1467H626L628 762Q628 739 627 719T624 682L728 686V616H410V674V674ZM1140
684Q1159 667 1159 637Q1159 628 1156 618T1146 598T1127 583T1098 577Q1072 577 1056 596T1040 643Q1040 673 1056 707T1105 771T1184 820T1294 840Q1342 840 1386 827T1464 787T1519 719T1540 621Q1540 591 1532 559T1499 488T1426 405T1300 302Q1163 202 1138
115L1311 111Q1332 110 1352 110T1389 109Q1416 109 1438 112T1475 124T1498 149T1507 193H1550V0H1026Q1026 64 1045 116T1098 215T1174 301T1266 381Q1309 416 1334 449T1374 513T1392 571T1397 619Q1397 685 1364 725T1268 766Q1243 766 1222 759T1183 741T1155
715T1140 684Z" />
<glyph unicode="&#xbe;" glyph-name="threequarters" horiz-adv-x="1649" d="M1396 1402L427 -33L350 20L1306 1467L1396 1402ZM328 808Q328 840 345 861T395 883Q411 883 422 877T441 862T452 840T455 817Q455 806 451 794T439 773Q442 752 454 738T484 714T524
700T569 695Q609 695 639 710T688 749T718 804T728 867Q728 892 722 922T699 980T645 1026T560 1044Q534 1044 503 1042V1107H527Q586 1107 620 1124T671 1165T692 1214T697 1256Q697 1281 691 1306T669 1352T630 1386T569 1399Q516 1399 486 1373T449 1317Q467
1299 467 1272Q467 1263 464 1253T454 1233T435 1218T406 1212Q379 1212 364 1232T349 1279Q349 1307 364 1339T410 1400T485 1448T591 1467Q644 1467 687 1453T761 1413T809 1350T826 1268Q826 1242 815 1215T783 1162T729 1117T653 1086V1084Q706 1079 746 1060T813
1012T853 946T867 867Q867 817 848 773T792 696T702 644T581 625Q519 625 472 641T393 683T345 742T328 808ZM1582 0H1281V59Q1312 60 1332 70T1363 98T1378 140T1382 195V215H1035V276L1443 842H1497V289H1613V215H1498V66L1582 70V0ZM1131 296L1381 292V643H1379L1131
296Z" />
<glyph unicode="&#xbf;" glyph-name="questiondown" horiz-adv-x="956" d="M737 -218Q726 -200 720 -180T714 -138Q714 -125 719 -109T736 -80T765 -58T808 -50Q852 -52 873 -82T895 -157Q895 -202 867 -252T785 -345T655 -415T481 -443Q363 -443 282 -411T153
-328T85 -213T69 -85Q73 -16 108 43T195 153T304 248T411 332T493 407T526 477Q526 489 522 501T507 523T481 539T440 545Q426 545 405 542T364 530L340 602Q372 621 417 630T501 639Q531 639 560 632T613 608T650 566T665 502Q665 456 636 416T563 336T468 254T371
161T296 49T262 -91Q261 -146 272 -195T313 -282T391 -341T512 -363Q556 -363 595 -350T665 -315T714 -268T737 -218ZM378 936Q378 961 386 983T408 1021T443 1047T487 1057Q508 1057 528 1049T563 1025T588 987T598 936Q598 911 589 889T564 851T528 825T487 815Q464
815 444 824T410 850T387 889T378 936Z" />
<glyph unicode="&#xc0;" glyph-name="Agrave" horiz-adv-x="1282" d="M262 223Q254 199 248 180T236 145T224 114T211 82L371 90V0H-12V68Q34 68 63 86T112 139T148 220T186 324L608 1473H657L1114 307Q1123 286 1132 257T1150 196T1163 135T1167 82L1307 90V0H838V68Q895
69 922 89T956 138T956 200T938 262L866 454L333 442Q311 379 294 327T262 223ZM510 942Q463 810 428 710T364 530H838L692 922L600 1174H596L510 942ZM336 1739Q301 1760 287 1781T270 1820T272 1851T282 1872Q285 1876 295 1884T323 1896T365 1894T420 1862L678
1616L633 1556L336 1739Z" />
<glyph unicode="&#xc1;" glyph-name="Aacute" horiz-adv-x="1282" d="M262 223Q254 199 248 180T236 145T224 114T211 82L371 90V0H-12V68Q34 68 63 86T112 139T148 220T186 324L608 1473H657L1114 307Q1123 286 1132 257T1150 196T1163 135T1167 82L1307 90V0H838V68Q895
69 922 89T956 138T956 200T938 262L866 454L333 442Q311 379 294 327T262 223ZM510 942Q463 810 428 710T364 530H838L692 922L600 1174H596L510 942ZM630 1556L585 1616L843 1862Q873 1888 897 1894T939 1897T967 1885T981 1872Q986 1865 991 1852T993 1820T976
1781T927 1739L630 1556Z" />
<glyph unicode="&#xc2;" glyph-name="Acircumflex" horiz-adv-x="1282" d="M262 223Q254 199 248 180T236 145T224 114T211 82L371 90V0H-12V68Q34 68 63 86T112 139T148 220T186 324L608 1473H657L1114 307Q1123 286 1132 257T1150 196T1163 135T1167 82L1307
90V0H838V68Q895 69 922 89T956 138T956 200T938 262L866 454L333 442Q311 379 294 327T262 223ZM510 942Q463 810 428 710T364 530H838L692 922L600 1174H596L510 942ZM634 1907H639L1015 1618L970 1548L630 1729H626L278 1550L237 1616L634 1907Z" />
<glyph unicode="&#xc3;" glyph-name="Atilde" horiz-adv-x="1282" d="M262 223Q254 199 248 180T236 145T224 114T211 82L371 90V0H-12V68Q34 68 63 86T112 139T148 220T186 324L608 1473H657L1114 307Q1123 286 1132 257T1150 196T1163 135T1167 82L1307 90V0H838V68Q895
69 922 89T956 138T956 200T938 262L866 454L333 442Q311 379 294 327T262 223ZM510 942Q463 810 428 710T364 530H838L692 922L600 1174H596L510 942ZM448 1737Q404 1737 370 1704T297 1614L227 1653Q245 1698 271 1736T328 1802T392 1846T459 1864Q499 1864 531
1854T591 1827T641 1792T688 1757T734 1731T786 1720Q813 1720 837 1731T881 1760T919 1802T952 1853L1018 1821Q996 1758 968 1714T908 1643T842 1604T774 1591Q734 1591 702 1602T641 1629T589 1664T541 1699T495 1726T448 1737Z" />
<glyph unicode="&#xc4;" glyph-name="Adieresis" horiz-adv-x="1282" d="M262 223Q254 199 248 180T236 145T224 114T211 82L371 90V0H-12V68Q34 68 63 86T112 139T148 220T186 324L608 1473H657L1114 307Q1123 286 1132 257T1150 196T1163 135T1167 82L1307 90V0H838V68Q895
69 922 89T956 138T956 200T938 262L866 454L333 442Q311 379 294 327T262 223ZM510 942Q463 810 428 710T364 530H838L692 922L600 1174H596L510 942ZM932 1718Q932 1691 923 1668T899 1627T863 1599T820 1589Q797 1589 777 1599T742 1626T718 1667T709 1718Q709
1745 718 1769T743 1811T779 1839T822 1850Q845 1850 865 1840T900 1811T923 1769T932 1718ZM564 1718Q564 1691 555 1668T531 1627T495 1599T452 1589Q429 1589 409 1599T374 1626T350 1667T341 1718Q341 1745 350 1769T375 1811T411 1839T454 1850Q477 1850 497
1840T532 1811T555 1769T564 1718Z" />
<glyph unicode="&#xc5;" glyph-name="Aring" horiz-adv-x="1286" d="M264 223Q256 199 250 180T238 145T226 114T213 82L373 90V0H-10V68Q36 68 65 86T114 139T150 220T188 324L610 1473H659L1116 307Q1125 286 1134 257T1152 196T1165 135T1169 82L1309 90V0H840V68Q897
69 924 89T958 138T958 200T940 262L868 454L335 442Q313 379 296 327T264 223ZM512 942Q465 810 430 710T366 530H840L694 922L602 1174H598L512 942ZM622 1847Q574 1844 545 1805T516 1700Q516 1626 548 1581T636 1536Q657 1536 677 1545T712 1573T736 1616T745
1675Q745 1760 713 1803T629 1847H622ZM629 1917Q670 1917 711 1905T785 1866T840 1799T864 1704Q864 1648 845 1604T793 1529T719 1481T633 1464Q589 1464 547 1477T471 1517T418 1587T397 1687Q397 1739 417 1781T471 1854T545 1900T629 1917Z" />
<glyph unicode="&#xc6;" glyph-name="AE" horiz-adv-x="1944" d="M1496 530Q1496 597 1483 634T1440 688T1366 708T1256 711L1102 703Q1102 185 1101 147T1096 82L1499 76Q1564 76 1616 93T1705 148T1762 247T1782 399H1852L1840 0H783V74H799Q839 77 863 90T901
126T919 184T924 266V453L425 442L184 82L340 90V0H-43V68Q-2 68 31 86T92 131T143 192T926 1353L742 1343V1434H1769L1778 1075H1711Q1711 1163 1691 1219T1635 1307T1551 1350T1447 1362H1434L1258 1358Q1200 1356 1169 1341T1122 1297T1105 1222T1102 1114V784H1254Q1318
784 1364 789T1439 813T1482 870T1496 977H1563V530H1496ZM924 530V1191L483 530H924Z" />
<glyph unicode="&#xc7;" glyph-name="Ccedilla" horiz-adv-x="1434" d="M619 -454Q671 -445 716 -429T796 -392T849 -345T869 -288Q869 -253 850 -238T803 -223Q781 -223 757 -230T713 -251L640 -217L688 -26Q555 -7 446 55T259 213T139 431T96 694Q96 790 115
885T174 1065T273 1224T411 1352T589 1436T807 1467Q924 1467 1024 1436T1220 1342L1210 1452H1321V977H1247Q1236 1073 1202 1148T1113 1276T984 1355T821 1383Q712 1383 617 1337T450 1205T338 997T297 725Q297 580 340 461T457 255T632 122T846 74Q913 74 979
89T1107 134T1223 208T1319 309L1372 266Q1307 176 1234 119T1085 28T938 -18T801 -33L762 -157Q777 -148 795 -142T831 -132T867 -126T896 -124Q935 -124 964 -135T1013 -166T1043 -212T1053 -270Q1053 -312 1032 -346T975 -407T895 -456T803 -492T711 -517T631
-532L619 -454Z" />
<glyph unicode="&#xc8;" glyph-name="Egrave" horiz-adv-x="1274" d="M433 236Q433 179 432 141T426 76L818 82Q885 83 939 98T1031 150T1091 247T1112 399H1182L1170 0H113V68Q162 69 190 83T233 123T250 182T254 259V319V1204Q254 1246 255 1283T261 1352L113
1343V1434H1098L1108 1075H1041Q1041 1163 1021 1219T965 1307T881 1350T777 1362L588 1359Q531 1356 500 1341T453 1297T436 1222T433 1114V784H817L802 961H893V530H826Q826 590 816 625T783 680T726 706T642 712Q628 712 613 712T433 705V236ZM410 1739Q375
1760 361 1781T344 1820T346 1851T356 1872Q359 1876 369 1884T397 1896T439 1894T494 1862L752 1616L707 1556L410 1739Z" />
<glyph unicode="&#xc9;" glyph-name="Eacute" horiz-adv-x="1274" d="M433 236Q433 179 432 141T426 76L818 82Q885 83 939 98T1031 150T1091 247T1112 399H1182L1170 0H113V68Q162 69 190 83T233 123T250 182T254 259V319V1204Q254 1246 255 1283T261 1352L113
1343V1434H1098L1108 1075H1041Q1041 1163 1021 1219T965 1307T881 1350T777 1362L588 1359Q531 1356 500 1341T453 1297T436 1222T433 1114V784H817L802 961H893V530H826Q826 590 816 625T783 680T726 706T642 712Q628 712 613 712T433 705V236ZM592 1556L547
1616L805 1862Q835 1888 859 1894T901 1897T929 1885T943 1872Q948 1865 953 1852T955 1820T938 1781T889 1739L592 1556Z" />
<glyph unicode="&#xca;" glyph-name="Ecircumflex" horiz-adv-x="1274" d="M433 236Q433 179 432 141T426 76L818 82Q885 83 939 98T1031 150T1091 247T1112 399H1182L1170 0H113V68Q162 69 190 83T233 123T250 182T254 259V319V1204Q254 1246 255 1283T261 1352L113
1343V1434H1098L1108 1075H1041Q1041 1163 1021 1219T965 1307T881 1350T777 1362L588 1359Q531 1356 500 1341T453 1297T436 1222T433 1114V784H817L802 961H893V530H826Q826 590 816 625T783 680T726 706T642 712Q628 712 613 712T433 705V236ZM678 1907H683L1059
1618L1014 1548L674 1729H670L322 1550L281 1616L678 1907Z" />
<glyph unicode="&#xcb;" glyph-name="Edieresis" horiz-adv-x="1274" d="M433 236Q433 179 432 141T426 76L818 82Q885 83 939 98T1031 150T1091 247T1112 399H1182L1170 0H113V68Q162 69 190 83T233 123T250 182T254 259V319V1204Q254 1246 255 1283T261 1352L113
1343V1434H1098L1108 1075H1041Q1041 1163 1021 1219T965 1307T881 1350T777 1362L588 1359Q531 1356 500 1341T453 1297T436 1222T433 1114V784H817L802 961H893V530H826Q826 590 816 625T783 680T726 706T642 712Q628 712 613 712T433 705V236ZM966 1718Q966
1691 957 1668T933 1627T897 1599T854 1589Q831 1589 811 1599T776 1626T752 1667T743 1718Q743 1745 752 1769T777 1811T813 1839T856 1850Q879 1850 899 1840T934 1811T957 1769T966 1718ZM598 1718Q598 1691 589 1668T565 1627T529 1599T486 1589Q463 1589 443
1599T408 1626T384 1667T375 1718Q375 1745 384 1769T409 1811T445 1839T488 1850Q511 1850 531 1840T566 1811T589 1769T598 1718Z" />
<glyph unicode="&#xcc;" glyph-name="Igrave" horiz-adv-x="684" d="M509 1204Q509 1246 510 1283T516 1352L368 1343V1434H829V1366Q771 1364 742 1345T701 1292T689 1214T688 1114V244Q688 188 687 148T681 82L829 90V0H368V68Q426 70 455 89T496 141T508 219T509
319V1204ZM358 1739Q323 1760 309 1781T292 1820T294 1851T304 1872Q307 1876 317 1884T345 1896T387 1894T442 1862L700 1616L655 1556L358 1739Z" />
<glyph unicode="&#xcd;" glyph-name="Iacute" horiz-adv-x="684" d="M254 1204Q254 1246 255 1283T261 1352L113 1343V1434H574V1366Q516 1364 487 1345T446 1292T434 1214T433 1114V244Q433 188 432 148T426 82L574 90V0H113V68Q171 70 200 89T241 141T253 219T254
319V1204ZM246 1556L201 1616L459 1862Q489 1888 513 1894T555 1897T583 1885T597 1872Q602 1865 607 1852T609 1820T592 1781T543 1739L246 1556Z" />
<glyph unicode="&#xce;" glyph-name="Icircumflex" horiz-adv-x="686" d="M359 1907H363L719 1618L674 1548L355 1729H351L23 1550L-18 1616L359 1907ZM253 1204Q253 1246 254 1283T260 1352L112 1343V1434H573V1366Q515 1364 486 1345T445 1292T433 1214T432
1114V244Q432 188 431 148T425 82L573 90V0H112V68Q170 70 199 89T240 141T252 219T253 319V1204Z" />
<glyph unicode="&#xcf;" glyph-name="Idieresis" horiz-adv-x="684" d="M253 1204Q253 1246 254 1283T260 1352L112 1343V1434H573V1366Q515 1364 486 1345T445 1292T433 1214T432 1114V244Q432 188 431 148T425 82L573 90V0H112V68Q170 70 199 89T240 141T252
219T253 319V1204ZM635 1714Q635 1688 626 1665T601 1623T565 1596T523 1586Q501 1586 481 1595T445 1623T421 1664T412 1714Q412 1742 421 1766T446 1808T481 1836T525 1846Q548 1846 568 1836T603 1808T626 1766T635 1714ZM309 1714Q309 1688 300 1665T275 1623T239
1596T197 1586Q175 1586 155 1595T119 1623T95 1664T86 1714Q86 1742 95 1766T120 1808T155 1836T199 1846Q222 1846 242 1836T277 1808T300 1766T309 1714Z" />
<glyph unicode="&#xd0;" glyph-name="Eth" horiz-adv-x="1528" d="M39 772H256V1204Q256 1246 257 1283T263 1352L115 1343V1434L598 1436Q784 1436 937 1393T1201 1261T1373 1036T1434 715Q1434 621 1412 532T1346 363T1237 217T1085 102T890 27T654 0H115V68Q164
69 192 83T235 123T252 182T256 259V668L39 666V772ZM684 772V674L435 670V242Q435 185 434 147T428 82Q473 80 512 79T580 78H648Q780 78 888 127T1072 262T1191 467T1233 723Q1233 868 1194 985T1073 1186T869 1315T576 1360Q526 1360 498 1347T456 1310T439
1251T435 1174V772H684Z" />
<glyph unicode="&#xd1;" glyph-name="Ntilde" horiz-adv-x="1563" d="M1332 -33H1233L344 1162H341L348 285Q348 232 348 182T344 82L492 90V0H117V68Q164 68 191 84T231 125T248 177T252 229L254 1352L117 1343V1434H361L1233 267H1235L1237 1204Q1237 1290 1243
1352L1096 1343V1434H1473V1366Q1415 1364 1387 1345T1347 1292T1335 1214T1336 1114L1332 -33ZM619 1737Q575 1737 541 1704T468 1614L398 1653Q416 1698 442 1736T499 1802T563 1846T630 1864Q670 1864 702 1854T762 1827T812 1792T859 1757T905 1731T957 1720Q984
1720 1008 1731T1052 1760T1090 1802T1123 1853L1189 1821Q1167 1758 1139 1714T1079 1643T1013 1604T945 1591Q905 1591 873 1602T812 1629T760 1664T712 1699T666 1726T619 1737Z" />
<glyph unicode="&#xd2;" glyph-name="Ograve" horiz-adv-x="1626" d="M295 754Q295 678 309 597T351 437T423 289T526 166T660 82T827 51Q911 51 981 76T1107 146T1205 251T1275 381T1317 530T1332 678Q1332 752 1316 842T1269 1010T1193 1157T1089 1276T958 1356T800
1385Q674 1385 579 1329T421 1183T327 981T295 754ZM94 717Q94 803 113 892T171 1064T269 1221T407 1349T586 1435T807 1467Q932 1467 1034 1435T1218 1349T1358 1221T1457 1064T1516 891T1536 717Q1536 632 1517 544T1459 372T1361 215T1223 86T1044 -1T823 -33Q693
-33 589 -2T403 82T264 208T168 364T112 537T94 717ZM606 1739Q571 1760 557 1781T540 1820T542 1851T552 1872Q555 1876 565 1884T593 1896T635 1894T690 1862L948 1616L903 1556L606 1739Z" />
<glyph unicode="&#xd3;" glyph-name="Oacute" horiz-adv-x="1626" d="M295 754Q295 678 309 597T351 437T423 289T526 166T660 82T827 51Q911 51 981 76T1107 146T1205 251T1275 381T1317 530T1332 678Q1332 752 1316 842T1269 1010T1193 1157T1089 1276T958 1356T800
1385Q674 1385 579 1329T421 1183T327 981T295 754ZM94 717Q94 803 113 892T171 1064T269 1221T407 1349T586 1435T807 1467Q932 1467 1034 1435T1218 1349T1358 1221T1457 1064T1516 891T1536 717Q1536 632 1517 544T1459 372T1361 215T1223 86T1044 -1T823 -33Q693
-33 589 -2T403 82T264 208T168 364T112 537T94 717ZM687 1556L642 1616L900 1862Q930 1888 954 1894T996 1897T1024 1885T1038 1872Q1043 1865 1048 1852T1050 1820T1033 1781T984 1739L687 1556Z" />
<glyph unicode="&#xd4;" glyph-name="Ocircumflex" horiz-adv-x="1626" d="M295 754Q295 678 309 597T351 437T423 289T526 166T660 82T827 51Q911 51 981 76T1107 146T1205 251T1275 381T1317 530T1332 678Q1332 752 1316 842T1269 1010T1193 1157T1089 1276T958
1356T800 1385Q674 1385 579 1329T421 1183T327 981T295 754ZM94 717Q94 803 113 892T171 1064T269 1221T407 1349T586 1435T807 1467Q932 1467 1034 1435T1218 1349T1358 1221T1457 1064T1516 891T1536 717Q1536 632 1517 544T1459 372T1361 215T1223 86T1044
-1T823 -33Q693 -33 589 -2T403 82T264 208T168 364T112 537T94 717ZM829 1907H834L1210 1618L1165 1548L825 1729H821L473 1550L432 1616L829 1907Z" />
<glyph unicode="&#xd5;" glyph-name="Otilde" horiz-adv-x="1626" d="M295 754Q295 678 309 597T351 437T423 289T526 166T660 82T827 51Q911 51 981 76T1107 146T1205 251T1275 381T1317 530T1332 678Q1332 752 1316 842T1269 1010T1193 1157T1089 1276T958 1356T800
1385Q674 1385 579 1329T421 1183T327 981T295 754ZM94 717Q94 803 113 892T171 1064T269 1221T407 1349T586 1435T807 1467Q932 1467 1034 1435T1218 1349T1358 1221T1457 1064T1516 891T1536 717Q1536 632 1517 544T1459 372T1361 215T1223 86T1044 -1T823 -33Q693
-33 589 -2T403 82T264 208T168 364T112 537T94 717ZM653 1737Q609 1737 575 1704T502 1614L432 1653Q450 1698 476 1736T533 1802T597 1846T664 1864Q704 1864 736 1854T796 1827T846 1792T893 1757T939 1731T991 1720Q1018 1720 1042 1731T1086 1760T1124 1802T1157
1853L1223 1821Q1201 1758 1173 1714T1113 1643T1047 1604T979 1591Q939 1591 907 1602T846 1629T794 1664T746 1699T700 1726T653 1737Z" />
<glyph unicode="&#xd6;" glyph-name="Odieresis" horiz-adv-x="1626" d="M295 754Q295 678 309 597T351 437T423 289T526 166T660 82T827 51Q911 51 981 76T1107 146T1205 251T1275 381T1317 530T1332 678Q1332 752 1316 842T1269 1010T1193 1157T1089 1276T958
1356T800 1385Q674 1385 579 1329T421 1183T327 981T295 754ZM94 717Q94 803 113 892T171 1064T269 1221T407 1349T586 1435T807 1467Q932 1467 1034 1435T1218 1349T1358 1221T1457 1064T1516 891T1536 717Q1536 632 1517 544T1459 372T1361 215T1223 86T1044
-1T823 -33Q693 -33 589 -2T403 82T264 208T168 364T112 537T94 717ZM1108 1718Q1108 1691 1099 1668T1075 1627T1039 1599T996 1589Q973 1589 953 1599T918 1626T894 1667T885 1718Q885 1745 894 1769T919 1811T955 1839T998 1850Q1021 1850 1041 1840T1076 1811T1099
1769T1108 1718ZM740 1718Q740 1691 731 1668T707 1627T671 1599T628 1589Q605 1589 585 1599T550 1626T526 1667T517 1718Q517 1745 526 1769T551 1811T587 1839T630 1850Q653 1850 673 1840T708 1811T731 1769T740 1718Z" />
<glyph unicode="&#xd7;" glyph-name="multiply" horiz-adv-x="1130" d="M111 279L474 635L115 991L210 1083L567 727L941 1094L1023 1006L654 641L1023 274L931 182L561 549L199 190L111 279Z" />
<glyph unicode="&#xd8;" glyph-name="Oslash" horiz-adv-x="1626" d="M92 717Q92 803 111 892T169 1064T267 1221T405 1349T584 1435T805 1467Q930 1467 1032 1435Q1099 1414 1157 1383L1251 1546L1362 1477L1265 1312Q1315 1271 1356 1220Q1416 1147 1455 1064T1514
891T1534 717Q1534 632 1515 544T1457 372T1359 215T1221 86T1042 -1T821 -33Q691 -33 586 -2Q545 10 507 26L395 -164L297 -102L403 81Q402 82 401 82Q320 136 262 208T166 364T110 538T92 717ZM293 754Q293 678 307 597T349 437T421 288Q447 246 478 211L1092
1271L1084 1278Q1025 1328 953 1356T798 1385Q672 1385 577 1329T419 1183T325 981T293 754ZM1189 1161Q1185 1166 1182 1171L568 130Q610 102 658 82Q733 51 825 51Q909 51 979 76T1105 146T1203 251T1273 381T1316 527T1330 678Q1330 764 1314 850T1266 1014T1189
1161Z" />
<glyph unicode="&#xd9;" glyph-name="Ugrave" horiz-adv-x="1540" d="M1332 639Q1331 505 1303 384T1210 170T1040 22T781 -33Q617 -33 506 10T328 142T231 370T202 698V1114Q202 1141 202 1174T204 1240T207 1302T210 1352L63 1346V1434H523V1366Q471 1366 443
1349T401 1306T385 1253T382 1204V688Q382 612 388 538T410 396T456 272T533 173T647 108T806 84Q917 84 996 124T1127 236T1203 409T1230 629L1238 1204Q1238 1290 1244 1352L1097 1343V1434H1478V1366Q1420 1364 1391 1345T1349 1292T1337 1214T1336 1114L1332
639ZM574 1739Q539 1760 525 1781T508 1820T510 1851T520 1872Q523 1876 533 1884T561 1896T603 1894T658 1862L916 1616L871 1556L574 1739Z" />
<glyph unicode="&#xda;" glyph-name="Uacute" horiz-adv-x="1540" d="M1332 639Q1331 505 1303 384T1210 170T1040 22T781 -33Q617 -33 506 10T328 142T231 370T202 698V1114Q202 1141 202 1174T204 1240T207 1302T210 1352L63 1346V1434H523V1366Q471 1366 443
1349T401 1306T385 1253T382 1204V688Q382 612 388 538T410 396T456 272T533 173T647 108T806 84Q917 84 996 124T1127 236T1203 409T1230 629L1238 1204Q1238 1290 1244 1352L1097 1343V1434H1478V1366Q1420 1364 1391 1345T1349 1292T1337 1214T1336 1114L1332
639ZM747 1556L702 1616L960 1862Q990 1888 1014 1894T1056 1897T1084 1885T1098 1872Q1103 1865 1108 1852T1110 1820T1093 1781T1044 1739L747 1556Z" />
<glyph unicode="&#xdb;" glyph-name="Ucircumflex" horiz-adv-x="1540" d="M1332 639Q1331 505 1303 384T1210 170T1040 22T781 -33Q617 -33 506 10T328 142T231 370T202 698V1114Q202 1141 202 1174T204 1240T207 1302T210 1352L63 1346V1434H523V1366Q471 1366
443 1349T401 1306T385 1253T382 1204V688Q382 612 388 538T410 396T456 272T533 173T647 108T806 84Q917 84 996 124T1127 236T1203 409T1230 629L1238 1204Q1238 1290 1244 1352L1097 1343V1434H1478V1366Q1420 1364 1391 1345T1349 1292T1337 1214T1336 1114L1332
639ZM807 1907H812L1188 1618L1143 1548L803 1729H799L451 1550L410 1616L807 1907Z" />
<glyph unicode="&#xdc;" glyph-name="Udieresis" horiz-adv-x="1540" d="M1332 639Q1331 505 1303 384T1210 170T1040 22T781 -33Q617 -33 506 10T328 142T231 370T202 698V1114Q202 1141 202 1174T204 1240T207 1302T210 1352L63 1346V1434H523V1366Q471 1366
443 1349T401 1306T385 1253T382 1204V688Q382 612 388 538T410 396T456 272T533 173T647 108T806 84Q917 84 996 124T1127 236T1203 409T1230 629L1238 1204Q1238 1290 1244 1352L1097 1343V1434H1478V1366Q1420 1364 1391 1345T1349 1292T1337 1214T1336 1114L1332
639ZM1103 1718Q1103 1691 1094 1668T1070 1627T1034 1599T991 1589Q968 1589 948 1599T913 1626T889 1667T880 1718Q880 1745 889 1769T914 1811T950 1839T993 1850Q1016 1850 1036 1840T1071 1811T1094 1769T1103 1718ZM735 1718Q735 1691 726 1668T702 1627T666
1599T623 1589Q600 1589 580 1599T545 1626T521 1667T512 1718Q512 1745 521 1769T546 1811T582 1839T625 1850Q648 1850 668 1840T703 1811T726 1769T735 1718Z" />
<glyph unicode="&#xdd;" glyph-name="Yacute" horiz-adv-x="1298" d="M581 553L226 1116Q173 1198 148 1253T115 1348L-12 1343V1434H516V1366Q445 1366 408 1350T361 1304T363 1233T408 1143Q446 1082 480 1028T548 920T618 812T699 696H703Q932 1132 976 1212T1034
1313T1063 1350L901 1343V1434H1319V1366Q1268 1363 1228 1346T1153 1297T1086 1216T759 614Q758 515 758 380T758 244Q758 134 752 82L922 90V0H441V68Q498 70 527 90T568 143T580 222T580 319L581 553ZM656 1556L611 1616L869 1862Q899 1888 923 1894T965 1897T993
1885T1007 1872Q1012 1865 1017 1852T1019 1820T1002 1781T953 1739L656 1556Z" />
<glyph unicode="&#xde;" glyph-name="Thorn" horiz-adv-x="1221" d="M254 1204Q254 1246 255 1283T261 1352L113 1343V1434H574V1366Q524 1364 496 1350T454 1311T436 1250Q433 1220 433 1184L543 1186Q846 1186 1007 1086T1169 777Q1169 723 1156 669T1110 565T1025
473T895 398T720 348T461 330H433V244Q433 187 432 148T426 82L574 90V0H113V68Q162 69 190 83T233 123T250 182T254 259V1204ZM487 1107Q460 1106 433 1104V414Q455 411 473 410Q495 408 518 408Q633 408 718 433T858 506T941 621T969 772Q969 937 866 1022T555
1108Q517 1108 487 1107Z" />
<glyph unicode="&#xdf;" glyph-name="germandbls" horiz-adv-x="1395" d="M398 217Q398 176 397 145T389 78L518 84V0H101V61Q147 61 172 79T207 131T219 210T221 311L219 936L51 932V1024H219V1026Q219 1140 250 1237T343 1405T497 1516T712 1556Q750 1556 800
1549T903 1523T1006 1471T1097 1383T1161 1252T1186 1070Q1186 1050 1185 1030T1180 979Q1155 981 1124 982T1059 984Q1013 984 967 978T884 955T823 907T799 825Q799 779 822 744T883 679T969 625T1068 574T1167 519T1254 455T1315 374T1338 270Q1338 192 1313
135T1242 41T1132 -15T990 -33Q967 -33 938 -29T876 -17T813 3T754 33L760 -16H662V336H725Q729 272 748 219T800 128T879 68T986 47Q1020 47 1052 57T1110 89T1151 141T1166 213Q1166 258 1144 292T1084 353T999 404T902 451T805 503T720 567T660 650T637 760Q637
827 660 882T729 976T840 1036T994 1057H1009V1079Q1009 1173 994 1238T953 1346T896 1414T830 1451T770 1466T705 1469Q623 1469 558 1430T459 1323T410 1159T396 938L398 217Z" />
<glyph unicode="&#xe0;" glyph-name="agrave" horiz-adv-x="1057" d="M694 501Q647 499 597 493T498 473T406 438T331 388T281 321T265 235Q266 197 279 169T314 122T364 94T424 84Q465 84 501 92T569 115T632 153T694 204V501ZM132 811Q132 862 162 907T246 985T374
1038T537 1057Q709 1057 790 966T871 677L869 217Q869 185 868 153T861 78L1006 86V0H713Q707 35 704 61T699 116Q630 47 549 7T376 -33Q299 -33 242 -15T146 37T89 114T70 210Q70 273 97 325T171 417T280 487T411 536T553 563T695 571V699Q695 752 689 802T663
893T599 958T498 982Q465 982 435 977T376 958T324 924T285 874Q300 857 305 837T311 797Q311 785 306 770T291 741T264 719T219 710Q179 710 156 739T132 811ZM328 1405Q302 1432 293 1455Q290 1462 287 1472T284 1493Q284 1506 287 1517T301 1541T326 1560T358
1567T397 1556T443 1511L615 1235L558 1188L328 1405Z" />
<glyph unicode="&#xe1;" glyph-name="aacute" horiz-adv-x="1057" d="M694 501Q647 499 597 493T498 473T406 438T331 388T281 321T265 235Q266 197 279 169T314 122T364 94T424 84Q465 84 501 92T569 115T632 153T694 204V501ZM132 811Q132 862 162 907T246 985T374
1038T537 1057Q709 1057 790 966T871 677L869 217Q869 185 868 153T861 78L1006 86V0H713Q707 35 704 61T699 116Q630 47 549 7T376 -33Q299 -33 242 -15T146 37T89 114T70 210Q70 273 97 325T171 417T280 487T411 536T553 563T695 571V699Q695 752 689 802T663
893T599 958T498 982Q465 982 435 977T376 958T324 924T285 874Q300 857 305 837T311 797Q311 785 306 770T291 741T264 719T219 710Q179 710 156 739T132 811ZM453 1188L396 1235L568 1511Q591 1544 613 1555T652 1567T684 1561T710 1541T723 1517T727 1493Q727
1482 724 1472T718 1455Q709 1432 683 1405L453 1188Z" />
<glyph unicode="&#xe2;" glyph-name="acircumflex" horiz-adv-x="1057" d="M694 501Q647 499 597 493T498 473T406 438T331 388T281 321T265 235Q266 197 279 169T314 122T364 94T424 84Q465 84 501 92T569 115T632 153T694 204V501ZM132 811Q132 862 162 907T246
985T374 1038T537 1057Q709 1057 790 966T871 677L869 217Q869 185 868 153T861 78L1006 86V0H713Q707 35 704 61T699 116Q630 47 549 7T376 -33Q299 -33 242 -15T146 37T89 114T70 210Q70 273 97 325T171 417T280 487T411 536T553 563T695 571V699Q695 752 689
802T663 893T599 958T498 982Q465 982 435 977T376 958T324 924T285 874Q300 857 305 837T311 797Q311 785 306 770T291 741T264 719T219 710Q179 710 156 739T132 811ZM513 1593H517L822 1260L767 1194L507 1417H503L238 1208L187 1268L513 1593Z" />
<glyph unicode="&#xe3;" glyph-name="atilde" horiz-adv-x="1057" d="M694 501Q647 499 597 493T498 473T406 438T331 388T281 321T265 235Q266 197 279 169T314 122T364 94T424 84Q465 84 501 92T569 115T632 153T694 204V501ZM132 811Q132 862 162 907T246 985T374
1038T537 1057Q709 1057 790 966T871 677L869 217Q869 185 868 153T861 78L1006 86V0H713Q707 35 704 61T699 116Q630 47 549 7T376 -33Q299 -33 242 -15T146 37T89 114T70 210Q70 273 97 325T171 417T280 487T411 536T553 563T695 571V699Q695 752 689 802T663
893T599 958T498 982Q465 982 435 977T376 958T324 924T285 874Q300 857 305 837T311 797Q311 785 306 770T291 741T264 719T219 710Q179 710 156 739T132 811ZM363 1364Q325 1364 284 1344T213 1278L152 1313Q165 1349 188 1380T241 1436T301 1474T361 1489Q409
1489 445 1472T511 1435T569 1397T631 1380Q676 1380 716 1407T780 1479L840 1448Q823 1397 799 1361T746 1300T688 1265T631 1253Q583 1253 546 1270T478 1308T419 1346T363 1364Z" />
<glyph unicode="&#xe4;" glyph-name="adieresis" horiz-adv-x="1057" d="M694 501Q647 499 597 493T498 473T406 438T331 388T281 321T265 235Q266 197 279 169T314 122T364 94T424 84Q465 84 501 92T569 115T632 153T694 204V501ZM132 811Q132 862 162 907T246
985T374 1038T537 1057Q709 1057 790 966T871 677L869 217Q869 185 868 153T861 78L1006 86V0H713Q707 35 704 61T699 116Q630 47 549 7T376 -33Q299 -33 242 -15T146 37T89 114T70 210Q70 273 97 325T171 417T280 487T411 536T553 563T695 571V699Q695 752 689
802T663 893T599 958T498 982Q465 982 435 977T376 958T324 924T285 874Q300 857 305 837T311 797Q311 785 306 770T291 741T264 719T219 710Q179 710 156 739T132 811ZM430 1369Q430 1344 422 1322T399 1284T367 1258T328 1248Q307 1248 289 1257T256 1283T234
1322T226 1369Q226 1394 234 1417T257 1456T290 1483T329 1493Q351 1493 369 1483T401 1457T422 1417T430 1369ZM772 1369Q772 1344 764 1322T741 1284T709 1258T670 1248Q649 1248 631 1257T598 1283T576 1322T568 1369Q568 1394 576 1417T599 1456T632 1483T671
1493Q693 1493 711 1483T743 1457T764 1417T772 1369Z" />
<glyph unicode="&#xe5;" glyph-name="aring" horiz-adv-x="1057" d="M694 501Q647 499 597 493T498 473T406 438T331 388T281 321T265 235Q266 197 279 169T314 122T364 94T424 84Q465 84 501 92T569 115T632 153T694 204V501ZM132 811Q132 862 162 907T246 985T374
1038T537 1057Q709 1057 790 966T871 677L869 217Q869 185 868 153T861 78L1006 86V0H713Q707 35 704 61T699 116Q630 47 549 7T376 -33Q299 -33 242 -15T146 37T89 114T70 210Q70 273 97 325T171 417T280 487T411 536T553 563T695 571V699Q695 752 689 802T663
893T599 958T498 982Q465 982 435 977T376 958T324 924T285 874Q300 857 305 837T311 797Q311 785 306 770T291 741T264 719T219 710Q179 710 156 739T132 811ZM515 1495Q480 1495 452 1464T424 1372Q424 1343 430 1318T449 1273T480 1242T521 1231Q559 1231 584
1263T609 1352Q609 1418 585 1456T515 1495ZM515 1559Q551 1559 586 1548T650 1514T698 1454T717 1374Q717 1322 701 1286T656 1223T593 1182T519 1167Q481 1167 445 1178T380 1214T334 1274T316 1362Q316 1406 333 1442T379 1504T442 1544T515 1559Z" />
<glyph unicode="&#xe6;" glyph-name="ae" horiz-adv-x="1591" d="M707 219Q704 240 701 274T695 347T690 424T686 493Q617 490 543 476T407 433T305 356T265 239Q265 192 281 162T322 115T376 90T432 83Q517 83 583 119T707 219ZM1125 977Q1065 977 1023 953T952
888T908 793T885 678H1311Q1311 732 1305 785T1278 881T1222 950T1125 977ZM136 804Q136 850 162 895T237 977T357 1035T516 1057Q619 1057 690 1011T799 880Q856 958 939 1007T1133 1057Q1211 1057 1277 1032T1391 953T1467 812T1496 604L871 592Q868 553 868
518Q868 410 891 327T955 187T1052 101T1174 72Q1222 72 1262 85T1337 120T1401 174T1457 242L1508 201Q1466 137 1421 93T1327 20T1228 -20T1125 -33Q1004 -33 910 13T759 161H757Q718 108 673 71T579 11T477 -22T369 -33Q299 -33 244 -15T150 34T91 110T70 205Q70
269 97 320T170 411T277 479T407 526T548 554T689 563V688Q689 743 684 795T657 889T596 956T486 982Q452 982 420 974T361 949T314 911T282 860Q296 847 303 826T310 793Q310 781 305 766T290 738T262 715T221 706Q183 706 160 732T136 804Z" />
<glyph unicode="&#xe7;" glyph-name="ccedilla" horiz-adv-x="1094" d="M662 -116Q725 -116 762 -152T799 -251Q799 -292 779 -325T726 -383T651 -427T564 -459T476 -480T397 -494L385 -425Q437 -416 482 -402T560 -368T612 -324T631 -269Q631 -236 612 -222T566
-208Q543 -208 518 -216T473 -238L404 -204L454 -16Q424 -8 396 2Q304 38 235 105T126 271T86 494Q86 565 103 634T154 765T234 881T340 974T470 1035T620 1057Q705 1057 775 1036T895 980T972 899T999 804Q999 782 993 763T974 728T945 705T904 696Q877 696 859
705T830 728T814 758T809 788Q809 808 815 830T840 871Q826 907 799 928T741 962T678 977T625 981Q555 981 495 953T390 869T321 732T295 544Q295 442 320 356T392 207T503 109T647 74Q695 74 742 87T831 125T908 181T969 250L1022 209Q981 145 929 100T819 25T703
-19T592 -33Q577 -33 562 -32L522 -152Q551 -134 589 -125T662 -116Z" />
<glyph unicode="&#xe8;" glyph-name="egrave" horiz-adv-x="1110" d="M604 977Q484 977 406 907T303 678H825Q825 732 813 785T775 881T706 950T604 977ZM1018 604L297 592Q296 474 315 378T375 214T480 109T635 72Q683 72 733 85T829 120T915 174T980 242L1030
201Q988 137 933 93T818 20T698 -20T586 -33Q480 -33 389 5T230 114T125 285T86 510Q86 618 123 716T228 891T391 1012T602 1057Q687 1057 762 1029T895 945T985 804T1018 604ZM371 1405Q345 1432 336 1455Q333 1462 330 1472T327 1493Q327 1506 330 1517T344 1541T369
1560T401 1567T440 1556T486 1511L658 1235L601 1188L371 1405Z" />
<glyph unicode="&#xe9;" glyph-name="eacute" horiz-adv-x="1110" d="M604 977Q484 977 406 907T303 678H825Q825 732 813 785T775 881T706 950T604 977ZM1018 604L297 592Q296 474 315 378T375 214T480 109T635 72Q683 72 733 85T829 120T915 174T980 242L1030
201Q988 137 933 93T818 20T698 -20T586 -33Q480 -33 389 5T230 114T125 285T86 510Q86 618 123 716T228 891T391 1012T602 1057Q687 1057 762 1029T895 945T985 804T1018 604ZM540 1188L483 1235L655 1511Q678 1544 700 1555T739 1567T771 1561T797 1541T810 1517T814
1493Q814 1482 811 1472T805 1455Q796 1432 770 1405L540 1188Z" />
<glyph unicode="&#xea;" glyph-name="ecircumflex" horiz-adv-x="1110" d="M604 977Q484 977 406 907T303 678H825Q825 732 813 785T775 881T706 950T604 977ZM1018 604L297 592Q296 474 315 378T375 214T480 109T635 72Q683 72 733 85T829 120T915 174T980 242L1030
201Q988 137 933 93T818 20T698 -20T586 -33Q480 -33 389 5T230 114T125 285T86 510Q86 618 123 716T228 891T391 1012T602 1057Q687 1057 762 1029T895 945T985 804T1018 604ZM601 1593H605L910 1260L855 1194L595 1417H591L326 1208L275 1268L601 1593Z" />
<glyph unicode="&#xeb;" glyph-name="edieresis" horiz-adv-x="1110" d="M604 977Q484 977 406 907T303 678H825Q825 732 813 785T775 881T706 950T604 977ZM1018 604L297 592Q296 474 315 378T375 214T480 109T635 72Q683 72 733 85T829 120T915 174T980 242L1030
201Q988 137 933 93T818 20T698 -20T586 -33Q480 -33 389 5T230 114T125 285T86 510Q86 618 123 716T228 891T391 1012T602 1057Q687 1057 762 1029T895 945T985 804T1018 604ZM512 1369Q512 1344 504 1322T481 1284T449 1258T410 1248Q389 1248 371 1257T338 1283T316
1322T308 1369Q308 1394 316 1417T339 1456T372 1483T411 1493Q433 1493 451 1483T483 1457T504 1417T512 1369ZM854 1369Q854 1344 846 1322T823 1284T791 1258T752 1248Q731 1248 713 1257T680 1283T658 1322T650 1369Q650 1394 658 1417T681 1456T714 1483T753
1493Q775 1493 793 1483T825 1457T846 1417T854 1369Z" />
<glyph unicode="&#xec;" glyph-name="igrave" horiz-adv-x="575" d="M466 778Q466 810 467 840T474 911L329 903V989Q396 989 440 993T512 1006T555 1023T583 1044H642V217Q642 176 641 145T634 78L763 84V0H345V61Q391 61 416 79T452 131T464 210T466 311V778ZM309
1405Q283 1432 274 1455Q271 1462 268 1472T265 1493Q265 1506 268 1517T282 1541T307 1560T339 1567T378 1556T424 1511L596 1235L539 1188L309 1405Z" />
<glyph unicode="&#xed;" glyph-name="iacute" horiz-adv-x="578" d="M212 778Q212 810 213 840T220 911L75 903V989Q142 989 186 993T258 1006T301 1023T329 1044H388V217Q388 176 387 145T380 78L509 84V0H91V61Q137 61 162 79T198 131T210 210T212 311V778ZM263
1188L206 1235L378 1511Q401 1544 423 1555T462 1567T494 1561T520 1541T533 1517T537 1493Q537 1482 534 1472T528 1455Q519 1432 493 1405L263 1188Z" />
<glyph unicode="&#xee;" glyph-name="icircumflex" horiz-adv-x="575" d="M295 1593H299L574 1260L518 1194L289 1407H285L51 1208L0 1268L295 1593ZM212 778Q212 810 213 840T220 911L75 903V989Q142 989 186 993T258 1006T301 1023T329 1044H388V217Q388 176
387 145T380 78L509 84V0H91V61Q137 61 162 79T198 131T210 210T212 311V778Z" />
<glyph unicode="&#xef;" glyph-name="idieresis" horiz-adv-x="575" d="M212 778Q212 810 213 840T220 911L75 903V989Q142 989 186 993T258 1006T301 1023T329 1044H388V217Q388 176 387 145T380 78L509 84V0H91V61Q137 61 162 79T198 131T210 210T212 311V778ZM243
1368Q243 1343 235 1321T212 1283T180 1257T141 1248Q120 1248 102 1257T69 1282T47 1321T39 1368Q39 1394 47 1416T70 1456T103 1482T142 1492Q164 1492 182 1483T214 1456T235 1417T243 1368ZM530 1368Q530 1343 522 1321T499 1283T467 1257T428 1248Q407 1248
389 1257T356 1282T334 1321T326 1368Q326 1394 334 1416T357 1456T390 1482T429 1492Q451 1492 469 1483T501 1456T522 1417T530 1368Z" />
<glyph unicode="&#xf0;" glyph-name="eth" horiz-adv-x="1145" d="M299 1274L418 1415Q370 1436 319 1450T211 1470L220 1556Q293 1552 358 1536T485 1494L596 1624L655 1569L565 1455Q675 1393 761 1299T906 1087T996 834T1028 557Q1028 435 1000 328T910 141T755
14T530 -33Q438 -33 358 0T217 97T123 250T88 455Q88 564 119 665T208 845T349 969T539 1016Q576 1016 617 1009T696 987T768 945T825 881H829Q814 942 786 1009T717 1141T622 1266T498 1370L373 1212L299 1274ZM846 469Q846 517 841 570T823 674T789 772T737 854T665
911T569 932Q502 932 451 897T364 802T311 664T293 498Q293 388 313 305T370 164T455 78T563 49Q619 49 670 75T759 154T822 285T846 469Z" />
<glyph unicode="&#xf1;" glyph-name="ntilde" horiz-adv-x="1241" d="M213 778Q213 810 214 843T221 911L76 903V989Q143 989 185 993T252 1006T292 1023T318 1044H377Q379 1021 381 992T386 920Q419 949 458 974T541 1017T629 1046T719 1057Q897 1057 979 946T1061
599V217Q1061 176 1060 145T1053 78L1182 84V0H764V61Q811 61 835 79T871 131T883 210T885 311V597Q883 774 827 863T649 953Q612 953 575 942T504 914T440 872T388 820Q389 802 389 782T389 740L387 217Q387 176 386 145T379 78L508 84V0H90V61Q137 61 161 79T196
131T208 210T211 311L213 778ZM490 1364Q452 1364 411 1344T340 1278L279 1313Q292 1349 315 1380T368 1436T428 1474T488 1489Q536 1489 572 1472T638 1435T696 1397T758 1380Q803 1380 843 1407T907 1479L967 1448Q950 1397 926 1361T873 1300T815 1265T758 1253Q710
1253 673 1270T605 1308T546 1346T490 1364Z" />
<glyph unicode="&#xf2;" glyph-name="ograve" horiz-adv-x="1198" d="M598 979Q517 979 460 943T365 847T311 709T293 547Q293 452 312 362T372 203T472 91T614 49Q695 49 750 85T840 182T890 319T905 477Q905 569 888 659T834 820T739 935T598 979ZM598 1057Q706
1057 800 1018T963 909T1073 744T1114 537Q1114 418 1075 314T966 133T802 12T598 -33Q490 -33 397 5T234 113T124 277T84 487Q84 608 123 712T232 893T395 1013T598 1057ZM409 1405Q383 1432 374 1455Q371 1462 368 1472T365 1493Q365 1506 368 1517T382 1541T407
1560T439 1567T478 1556T524 1511L696 1235L639 1188L409 1405Z" />
<glyph unicode="&#xf3;" glyph-name="oacute" horiz-adv-x="1198" d="M598 979Q517 979 460 943T365 847T311 709T293 547Q293 452 312 362T372 203T472 91T614 49Q695 49 750 85T840 182T890 319T905 477Q905 569 888 659T834 820T739 935T598 979ZM598 1057Q706
1057 800 1018T963 909T1073 744T1114 537Q1114 418 1075 314T966 133T802 12T598 -33Q490 -33 397 5T234 113T124 277T84 487Q84 608 123 712T232 893T395 1013T598 1057ZM540 1188L483 1235L655 1511Q678 1544 700 1555T739 1567T771 1561T797 1541T810 1517T814
1493Q814 1482 811 1472T805 1455Q796 1432 770 1405L540 1188Z" />
<glyph unicode="&#xf4;" glyph-name="ocircumflex" horiz-adv-x="1198" d="M598 979Q517 979 460 943T365 847T311 709T293 547Q293 452 312 362T372 203T472 91T614 49Q695 49 750 85T840 182T890 319T905 477Q905 569 888 659T834 820T739 935T598 979ZM598
1057Q706 1057 800 1018T963 909T1073 744T1114 537Q1114 418 1075 314T966 133T802 12T598 -33Q490 -33 397 5T234 113T124 277T84 487Q84 608 123 712T232 893T395 1013T598 1057ZM606 1593H610L915 1260L860 1194L600 1417H596L331 1208L280 1268L606 1593Z"
/>
<glyph unicode="&#xf5;" glyph-name="otilde" horiz-adv-x="1198" d="M598 979Q517 979 460 943T365 847T311 709T293 547Q293 452 312 362T372 203T472 91T614 49Q695 49 750 85T840 182T890 319T905 477Q905 569 888 659T834 820T739 935T598 979ZM598 1057Q706
1057 800 1018T963 909T1073 744T1114 537Q1114 418 1075 314T966 133T802 12T598 -33Q490 -33 397 5T234 113T124 277T84 487Q84 608 123 712T232 893T395 1013T598 1057ZM465 1364Q427 1364 386 1344T315 1278L254 1313Q267 1349 290 1380T343 1436T403 1474T463
1489Q511 1489 547 1472T613 1435T671 1397T733 1380Q778 1380 818 1407T882 1479L942 1448Q925 1397 901 1361T848 1300T790 1265T733 1253Q685 1253 648 1270T580 1308T521 1346T465 1364Z" />
<glyph unicode="&#xf6;" glyph-name="odieresis" horiz-adv-x="1198" d="M598 979Q517 979 460 943T365 847T311 709T293 547Q293 452 312 362T372 203T472 91T614 49Q695 49 750 85T840 182T890 319T905 477Q905 569 888 659T834 820T739 935T598 979ZM598 1057Q706
1057 800 1018T963 909T1073 744T1114 537Q1114 418 1075 314T966 133T802 12T598 -33Q490 -33 397 5T234 113T124 277T84 487Q84 608 123 712T232 893T395 1013T598 1057ZM523 1369Q523 1344 515 1322T492 1284T460 1258T421 1248Q400 1248 382 1257T349 1283T327
1322T319 1369Q319 1394 327 1417T350 1456T383 1483T422 1493Q444 1493 462 1483T494 1457T515 1417T523 1369ZM865 1369Q865 1344 857 1322T834 1284T802 1258T763 1248Q742 1248 724 1257T691 1283T669 1322T661 1369Q661 1394 669 1417T692 1456T725 1483T764
1493Q786 1493 804 1483T836 1457T857 1417T865 1369Z" />
<glyph unicode="&#xf7;" glyph-name="divide" horiz-adv-x="541" d="M391 221Q391 194 381 170T355 128T317 100T271 90Q247 90 226 100T188 128T162 170T152 221Q152 249 162 273T188 316T227 344T273 355Q298 355 319 345T357 316T382 274T391 221ZM391 923Q391
896 381 872T355 830T317 802T271 792Q247 792 226 802T188 830T162 872T152 923Q152 951 162 975T188 1018T227 1046T273 1057Q298 1057 319 1047T357 1018T382 976T391 923Z" />
<glyph unicode="&#xf8;" glyph-name="oslash" horiz-adv-x="1198" d="M598 1057Q735 1057 850 993L954 1157L1051 1094L943 927L963 908Q1033 839 1073 744T1114 537Q1114 418 1075 314T966 133T802 12T598 -33Q532 -33 471 -19T356 24L240 -154L164 -98L274 77Q186
146 135 251T84 487Q84 608 123 712T232 893T395 1013T598 1057ZM598 979Q517 979 460 943T365 847T311 709T293 547Q293 458 310 373T363 218L786 890Q748 933 703 956T598 979ZM614 49Q695 49 750 85T840 182T890 319T905 477Q905 523 901 568T888 659Q881 693
872 724T850 785L425 130Q465 90 511 70T614 49Z" />
<glyph unicode="&#xf9;" glyph-name="ugrave" horiz-adv-x="1223" d="M850 755Q850 805 852 840T860 911L713 905V989H776Q820 989 851 993T904 1006T940 1023T967 1044H1026L1024 270Q1024 254 1024 230T1022 179T1020 126T1016 78L1163 86V0H870Q865 35 862
64T856 123Q824 91 785 63T703 13T613 -20T522 -33Q438 -33 375 -11T270 64T207 201T186 414V778Q186 810 187 843T194 911L53 905V989H117Q160 989 191 993T244 1006T280 1023T307 1044H366V420Q366 331 378 266T416 157T485 93T588 72Q627 72 664 85T736 120T799
170T850 230V315V755ZM417 1405Q391 1432 382 1455Q379 1462 376 1472T373 1493Q373 1506 376 1517T390 1541T415 1560T447 1567T486 1556T532 1511L704 1235L647 1188L417 1405Z" />
<glyph unicode="&#xfa;" glyph-name="uacute" horiz-adv-x="1223" d="M850 755Q850 805 852 840T860 911L713 905V989H776Q820 989 851 993T904 1006T940 1023T967 1044H1026L1024 270Q1024 254 1024 230T1022 179T1020 126T1016 78L1163 86V0H870Q865 35 862
64T856 123Q824 91 785 63T703 13T613 -20T522 -33Q438 -33 375 -11T270 64T207 201T186 414V778Q186 810 187 843T194 911L53 905V989H117Q160 989 191 993T244 1006T280 1023T307 1044H366V420Q366 331 378 266T416 157T485 93T588 72Q627 72 664 85T736 120T799
170T850 230V315V755ZM582 1188L525 1235L697 1511Q720 1544 742 1555T781 1567T813 1561T839 1541T852 1517T856 1493Q856 1482 853 1472T847 1455Q838 1432 812 1405L582 1188Z" />
<glyph unicode="&#xfb;" glyph-name="ucircumflex" horiz-adv-x="1223" d="M850 755Q850 805 852 840T860 911L713 905V989H776Q820 989 851 993T904 1006T940 1023T967 1044H1026L1024 270Q1024 254 1024 230T1022 179T1020 126T1016 78L1163 86V0H870Q865 35
862 64T856 123Q824 91 785 63T703 13T613 -20T522 -33Q438 -33 375 -11T270 64T207 201T186 414V778Q186 810 187 843T194 911L53 905V989H117Q160 989 191 993T244 1006T280 1023T307 1044H366V420Q366 331 378 266T416 157T485 93T588 72Q627 72 664 85T736
120T799 170T850 230V315V755ZM622 1593H626L931 1260L876 1194L616 1417H612L347 1208L296 1268L622 1593Z" />
<glyph unicode="&#xfc;" glyph-name="udieresis" horiz-adv-x="1223" d="M850 755Q850 805 852 840T860 911L713 905V989H776Q820 989 851 993T904 1006T940 1023T967 1044H1026L1024 270Q1024 254 1024 230T1022 179T1020 126T1016 78L1163 86V0H870Q865 35 862
64T856 123Q824 91 785 63T703 13T613 -20T522 -33Q438 -33 375 -11T270 64T207 201T186 414V778Q186 810 187 843T194 911L53 905V989H117Q160 989 191 993T244 1006T280 1023T307 1044H366V420Q366 331 378 266T416 157T485 93T588 72Q627 72 664 85T736 120T799
170T850 230V315V755ZM556 1369Q556 1344 548 1322T525 1284T493 1258T454 1248Q433 1248 415 1257T382 1283T360 1322T352 1369Q352 1394 360 1417T383 1456T416 1483T455 1493Q477 1493 495 1483T527 1457T548 1417T556 1369ZM898 1369Q898 1344 890 1322T867
1284T835 1258T796 1248Q775 1248 757 1257T724 1283T702 1322T694 1369Q694 1394 702 1417T725 1456T758 1483T797 1493Q819 1493 837 1483T869 1457T890 1417T898 1369Z" />
<glyph unicode="&#xfd;" glyph-name="yacute" horiz-adv-x="1081" d="M264 -448Q275 -453 287 -453Q305 -453 333 -438T391 -372Q417 -327 453 -238T535 -23Q188 720 169 765T138 844T118 903T107 945L8 940V1024H432V963L423 962Q380 959 358 943T330 898T336
821T617 207Q830 828 843 860T869 916T893 948L752 940V1024H1073V963Q1035 948 1008 925T959 868T920 791T627 -18Q580 -147 541 -247T460 -416T367 -519T248 -555Q216 -555 188 -548T139 -525T106 -486T94 -431Q94 -412 100 -394T117 -362T145 -340T182 -331Q206
-331 222 -340T249 -363T263 -392T267 -420Q267 -426 267 -433T264 -448ZM585 1188L528 1235L700 1511Q723 1544 745 1555T784 1567T816 1561T842 1541T855 1517T859 1493Q859 1482 856 1472T850 1455Q841 1432 815 1405L585 1188Z" />
<glyph unicode="&#xfe;" glyph-name="thorn" horiz-adv-x="1182" d="M155 1280Q155 1312 156 1345T163 1413L18 1405V1491Q85 1491 128 1495T199 1508T242 1525T270 1546H329L328 947Q391 998 471 1027T636 1057Q729 1057 812 1021T957 918T1056 756T1093 541Q1093
410 1052 304T939 123T773 8T571 -33Q499 -33 439 -18T327 31V-305Q327 -346 326 -377T319 -444L448 -438V-522H30V-461Q77 -461 101 -443T136 -391T148 -312T151 -211L155 1280ZM567 957Q495 957 434 929T328 852L327 127Q430 49 567 49Q640 49 698 83T797 178T860
323T882 510Q882 592 864 672T808 816T711 918T567 957Z" />
<glyph unicode="&#xff;" glyph-name="ydieresis" horiz-adv-x="1081" d="M264 -448Q275 -453 287 -453Q305 -453 333 -438T391 -372Q417 -327 453 -238T535 -23Q188 720 169 765T138 844T118 903T107 945L8 940V1024H432V963L423 962Q380 959 358 943T330 898T336
821T617 207Q830 828 843 860T869 916T893 948L752 940V1024H1073V963Q1035 948 1008 925T959 868T920 791T627 -18Q580 -147 541 -247T460 -416T367 -519T248 -555Q216 -555 188 -548T139 -525T106 -486T94 -431Q94 -412 100 -394T117 -362T145 -340T182 -331Q206
-331 222 -340T249 -363T263 -392T267 -420Q267 -426 267 -433T264 -448ZM524 1369Q524 1344 516 1322T493 1284T461 1258T422 1248Q401 1248 383 1257T350 1283T328 1322T320 1369Q320 1394 328 1417T351 1456T384 1483T423 1493Q445 1493 463 1483T495 1457T516
1417T524 1369ZM866 1369Q866 1344 858 1322T835 1284T803 1258T764 1248Q743 1248 725 1257T692 1283T670 1322T662 1369Q662 1394 670 1417T693 1456T726 1483T765 1493Q787 1493 805 1483T837 1457T858 1417T866 1369Z" />
<glyph unicode="&#x2013;" glyph-name="endash" horiz-adv-x="1208" d="M135 727H1067V592L135 584V727Z" />
<glyph unicode="&#x2014;" glyph-name="emdash" horiz-adv-x="1434" d="M135 727H1292V592L135 584V727Z" />
<glyph unicode="&#x2018;" glyph-name="quoteleft" horiz-adv-x="459" d="M301 1514Q284 1493 265 1457T232 1377T209 1285T207 1189Q236 1202 262 1200T309 1185T340 1150T352 1101Q352 1044 319 1013T239 982Q204 982 177 996T132 1036T104 1095T94 1168Q94
1207 105 1259T136 1366T184 1470T246 1555L301 1514Z" />
<glyph unicode="&#x2019;" glyph-name="quoteright" horiz-adv-x="356" d="M102 1025Q119 1046 138 1082T171 1162T194 1254T196 1350Q167 1337 141 1339T94 1354T63 1389T51 1438Q51 1495 84 1526T164 1557Q199 1557 226 1543T271 1503T299 1444T309 1371Q309
1332 298 1280T267 1173T219 1069T157 984L102 1025Z" />
<glyph unicode="&#x201a;" glyph-name="quotesinglbase" horiz-adv-x="518" d="M186 -325Q203 -304 222 -268T255 -188T278 -96T280 0Q251 -13 225 -11T178 4T147 39T135 88Q135 145 168 176T248 207Q283 207 310 193T355 153T383 94T393 21Q393 -18 382 -70T351
-177T303 -281T241 -366L186 -325Z" />
<glyph unicode="&#x201c;" glyph-name="quotedblleft" horiz-adv-x="819" d="M301 1514Q284 1493 265 1457T232 1377T209 1285T207 1189Q236 1202 262 1200T309 1185T340 1150T352 1101Q352 1044 319 1013T239 982Q204 982 177 996T132 1036T104 1095T94 1168Q94
1207 105 1259T136 1366T184 1470T246 1555L301 1514ZM662 1514Q645 1493 626 1457T593 1377T570 1285T568 1189Q597 1202 623 1200T670 1185T701 1150T713 1101Q713 1044 680 1013T600 982Q565 982 538 996T493 1036T465 1095T455 1168Q455 1207 466 1259T497
1366T545 1470T607 1555L662 1514Z" />
<glyph unicode="&#x201d;" glyph-name="quotedblright" horiz-adv-x="715" d="M102 1025Q119 1046 138 1082T171 1162T194 1254T196 1350Q167 1337 141 1339T94 1354T63 1389T51 1438Q51 1495 84 1526T164 1557Q199 1557 226 1543T271 1503T299 1444T309 1371Q309
1332 298 1280T267 1173T219 1069T157 984L102 1025ZM462 1025Q479 1046 498 1082T531 1162T554 1254T556 1350Q527 1337 501 1339T454 1354T423 1389T411 1438Q411 1495 444 1526T524 1557Q559 1557 586 1543T631 1503T659 1444T669 1371Q669 1332 658 1280T627
1173T579 1069T517 984L462 1025Z" />
<glyph unicode="&#x201e;" glyph-name="quotedblbase" horiz-adv-x="879" d="M186 -325Q203 -304 222 -268T255 -188T278 -96T280 0Q251 -13 225 -11T178 4T147 39T135 88Q135 145 168 176T248 207Q283 207 310 193T355 153T383 94T393 21Q393 -18 382 -70T351
-177T303 -281T241 -366L186 -325ZM546 -325Q563 -304 582 -268T615 -188T638 -96T640 0Q611 -13 585 -11T538 4T507 39T495 88Q495 145 528 176T608 207Q643 207 670 193T715 153T743 94T753 21Q753 -18 742 -70T711 -177T663 -281T601 -366L546 -325Z" />
<glyph unicode="&#x2022;" glyph-name="bullet" horiz-adv-x="821" d="M102 766Q102 830 126 885T191 981T289 1045T409 1069Q474 1069 530 1046T627 981T694 885T719 766Q719 702 695 647T628 551T530 487T409 463Q345 463 289 486T192 551T126 647T102 766Z" />
<glyph unicode="&#x2039;" glyph-name="guilsinglleft" horiz-adv-x="784" d="M64 569V561L625 -14L689 51L285 569V573L685 1059L619 1124L64 569Z" />
<glyph unicode="&#x203a;" glyph-name="guilsinglright" horiz-adv-x="784" d="M719 569V561L158 -14L94 51L498 569V573L98 1059L164 1124L719 569Z" />
</font>
</defs>
</svg>
