<svg width="35" height="35" viewBox="0 0 35 35" fill="none" xmlns="http://www.w3.org/2000/svg">
<path d="M17.5 0C7.83232 0 0 7.83232 0 17.5C0 27.1677 7.83232 35 17.5 35C27.1677 35 35 27.1677 35 17.5C35 7.83232 27.1677 0 17.5 0ZM20.8293 27.2317C20.5945 27.061 20.3384 26.8262 20.3384 26.5061C20.3384 26.1433 20.3598 25.9299 20.3598 24.3293C20.3598 22.7287 20.1463 22.1524 19.3994 21.6829C21.7043 21.4482 23.1555 20.872 23.8384 19.3567L23.9024 19.2073C23.9665 19.0793 24.0091 18.9299 24.0091 18.9299L24.0945 18.6311C24.2439 18.0549 24.3293 17.372 24.3506 16.561C24.3506 14.3841 23.2835 13.5945 23.0915 13.2317C23.3902 11.5671 23.0488 10.8201 22.878 10.564C22.2805 10.3506 20.8079 11.0976 19.997 11.6311C18.6738 11.247 15.8994 11.2896 14.8537 11.7378C12.9329 10.372 11.9085 10.5854 11.9085 10.5854C11.9085 10.5854 11.247 11.7591 11.7378 13.4665C11.0976 14.2774 10.628 14.8323 10.628 16.3476C10.628 17.2012 10.7348 17.9482 10.9482 18.6098L11.0122 18.7591L11.2043 19.1646L11.2896 19.314C12.0152 20.6159 13.4024 21.4268 15.7713 21.6616C15.4299 21.9177 15.0244 22.3872 14.9817 22.9634C14.5549 23.2409 13.7012 23.3262 13.0396 23.1128C12.122 22.814 11.7591 21 10.372 21.2561C10.0732 21.3201 10.1372 21.5122 10.3933 21.6829C10.8201 21.9604 11.2043 22.3018 11.5244 23.0274C11.7591 23.5823 12.25 24.5854 13.8293 24.5854C14.4482 24.5854 14.8963 24.5213 14.8963 24.5213C14.8963 24.5213 14.9177 25.9299 14.9177 26.4848C14.9177 26.8476 14.6402 27.061 14.4055 27.2317C10.4787 25.8872 7.64024 22.1524 7.64024 17.7561C7.64024 12.2073 12.122 7.72561 17.6707 7.72561C23.2195 7.72561 27.7012 12.2073 27.7012 17.7561C27.6372 22.1311 24.7774 25.8872 20.8293 27.2317Z" fill="#1C58D9"/>
</svg>
