<svg width="35" height="35" viewBox="0 0 35 35" fill="none" xmlns="http://www.w3.org/2000/svg">
<g clip-path="url(#clip0_5:29)">
<path d="M17.5 0C14.0388 0 10.6554 1.02635 7.77754 2.94927C4.89968 4.8722 2.65665 7.60532 1.33211 10.803C0.00758061 14.0007 -0.338975 17.5194 0.336266 20.9141C1.01151 24.3087 2.67822 27.4269 5.12564 29.8744C7.57306 32.3218 10.6913 33.9885 14.0859 34.6637C17.4806 35.339 20.9993 34.9924 24.197 33.6679C27.3947 32.3433 30.1278 30.1003 32.0507 27.2225C33.9737 24.3446 35 20.9612 35 17.5C35 12.8587 33.1563 8.40751 29.8744 5.12562C26.5925 1.84374 22.1413 0 17.5 0ZM13.6287 24.9033C13.6281 24.9734 13.6001 25.0403 13.5505 25.0898C13.501 25.1394 13.4341 25.1674 13.364 25.168H10.2887C10.2185 25.168 10.1512 25.1401 10.1016 25.0905C10.052 25.0408 10.0241 24.9735 10.0241 24.9033V15.0073C10.0247 14.9373 10.0527 14.8703 10.1022 14.8208C10.1517 14.7713 10.2187 14.7432 10.2887 14.7427H13.364C13.4341 14.7432 13.501 14.7713 13.5505 14.8208C13.6001 14.8703 13.6281 14.9373 13.6287 15.0073V24.9033ZM11.8317 13.9104C11.4263 13.9108 11.0299 13.7909 10.6927 13.566C10.3554 13.341 10.0925 13.021 9.93716 12.6466C9.78183 12.2721 9.74108 11.86 9.82006 11.4624C9.89904 11.0648 10.0942 10.6995 10.3809 10.4129C10.6675 10.1262 11.0328 9.93105 11.4304 9.85207C11.828 9.77308 12.2402 9.81383 12.6146 9.96916C12.9891 10.1245 13.309 10.3874 13.534 10.7247C13.7589 11.0619 13.8788 11.4583 13.8784 11.8637C13.8772 12.4062 13.6613 12.9261 13.2777 13.3097C12.8941 13.6932 12.3742 13.9092 11.8317 13.9104ZM25.1488 24.8948C25.1482 24.9648 25.1202 25.0318 25.0707 25.0813C25.0212 25.1308 24.9542 25.1589 24.8842 25.1594H21.811C21.7408 25.1594 21.6735 25.1316 21.6239 25.0819C21.5742 25.0323 21.5464 24.965 21.5464 24.8948V20.0994C21.5464 18.6759 21.4503 17.7412 20.1805 17.7412C18.9107 17.7412 18.6332 18.6119 18.6332 20.0161V24.9119C18.6327 24.9819 18.6046 25.0489 18.5551 25.0984C18.5056 25.1479 18.4386 25.176 18.3686 25.1765H15.2976C15.2626 25.1768 15.228 25.1702 15.1957 25.157C15.1633 25.1438 15.1339 25.1244 15.1091 25.0998C15.0843 25.0752 15.0646 25.0459 15.0511 25.0136C15.0377 24.9814 15.0308 24.9468 15.0308 24.9119V15.0073C15.0314 14.9369 15.0597 14.8696 15.1097 14.8201C15.1596 14.7705 15.2272 14.7427 15.2976 14.7427H18.2448C18.3152 14.7427 18.3827 14.7705 18.4327 14.8201C18.4827 14.8696 18.511 14.9369 18.5116 15.0073V15.528C19.1134 14.9689 20.1015 14.6253 21.2284 14.6253C24.7028 14.6253 25.1488 17.2183 25.1488 19.4741V24.8948Z" fill="#1C58D9"/>
</g>
<defs>
<clipPath id="clip0_5:29">
<rect width="35" height="35" fill="#1C58D9"/>
</clipPath>
</defs>
</svg>
