<?xml version="1.0" encoding="UTF-8"?>
<svg width="56px" height="52px" viewBox="0 0 56 52" version="1.1" xmlns="http://www.w3.org/2000/svg" xmlns:xlink="http://www.w3.org/1999/xlink">
    <!-- Generator: Sketch 47 (45396) - http://www.bohemiancoding.com/sketch -->
    <title>020-console-terminal-code-window-app-application</title>
    <desc>Created with Sketch.</desc>
    <defs></defs>
    <g id="Page-1" stroke="none" stroke-width="1" fill="none" fill-rule="evenodd">
        <g id="Home" transform="translate(-394.000000, -704.000000)" fill-rule="nonzero" fill="#505070">
            <g id="020-console-terminal-code-window-app-application" transform="translate(394.000000, 704.000000)">
                <path d="M53.003,52.002 C53.003,52.002 3.002,52.002 3.002,52.002 C1.348,52.002 0.003,50.656 0.003,49.002 C0.003,49.002 0.003,3.002 0.003,3.002 C0.003,1.348 1.348,0.002 3.002,0.002 C3.002,0.002 53.003,0.002 53.003,0.002 C54.657,0.002 56.003,1.348 56.003,3.002 C56.003,3.002 56.003,49.002 56.003,49.002 C56.003,50.656 54.657,52.002 53.003,52.002 Z M54.003,3.002 C54.003,2.451 53.554,2.002 53.003,2.002 C53.003,2.002 3.002,2.002 3.002,2.002 C2.451,2.002 2.003,2.451 2.003,3.002 C2.003,3.002 2.003,49.002 2.003,49.002 C2.003,49.553 2.451,50.002 3.002,50.002 C3.002,50.002 53.003,50.002 53.003,50.002 C53.554,50.002 54.003,49.553 54.003,49.002 C54.003,49.002 54.003,3.002 54.003,3.002 Z M51.003,48.002 C51.003,48.002 5.002,48.002 5.002,48.002 C4.45,48.002 4.002,47.554 4.002,47.002 C4.002,47.002 4.002,5.002 4.002,5.002 C4.002,4.45 4.45,4.002 5.002,4.002 C5.002,4.002 51.003,4.002 51.003,4.002 C51.555,4.002 52.003,4.45 52.003,5.002 C52.003,5.002 52.003,47.002 52.003,47.002 C52.003,47.554 51.555,48.002 51.003,48.002 Z M50.003,6.002 C50.003,6.002 6.002,6.002 6.002,6.002 C6.002,6.002 6.002,46.002 6.002,46.002 C6.002,46.002 50.003,46.002 50.003,46.002 C50.003,46.002 50.003,6.002 50.003,6.002 Z M12.296,12.295 C12.686,11.904 13.319,11.904 13.71,12.295 C13.71,12.295 19.71,18.295 19.71,18.295 C20.1,18.686 20.1,19.319 19.71,19.709 C19.71,19.709 13.71,25.709 13.71,25.709 C13.514,25.905 13.259,26.002 13.002,26.002 C12.747,26.002 12.491,25.905 12.296,25.709 C11.905,25.319 11.905,24.686 12.296,24.295 C12.296,24.295 17.589,19.002 17.589,19.002 C17.589,19.002 12.296,13.709 12.296,13.709 C11.905,13.319 11.905,12.686 12.296,12.295 Z M23.003,24.002 C23.003,24.002 31.003,24.002 31.003,24.002 C31.555,24.002 32.003,24.45 32.003,25.002 C32.003,25.554 31.555,26.002 31.003,26.002 C31.003,26.002 23.003,26.002 23.003,26.002 C22.45,26.002 22.003,25.554 22.003,25.002 C22.003,24.45 22.45,24.002 23.003,24.002 Z" id="Shape"></path>
            </g>
        </g>
    </g>
</svg>