<?xml version="1.0" encoding="UTF-8"?>
<svg width="36px" height="59px" viewBox="0 0 36 59" version="1.1" xmlns="http://www.w3.org/2000/svg" xmlns:xlink="http://www.w3.org/1999/xlink">
    <!-- Generator: Sketch 47 (45396) - http://www.bohemiancoding.com/sketch -->
    <title>001-rocket-missile-game-space</title>
    <desc>Created with Sketch.</desc>
    <defs></defs>
    <g id="Page-1" stroke="none" stroke-width="1" fill="none" fill-rule="evenodd">
        <g id="Home" transform="translate(-1164.000000, -701.000000)" fill-rule="nonzero" fill="#505070">
            <g id="001-rocket-missile-game-space" transform="translate(1164.000000, 701.000000)">
                <path d="M35.213,37.031 C34.737,37.486 34.089,37.747 33.435,37.747 C32.959,37.747 32.49,37.611 32.08,37.354 C32.08,37.354 28,34.804 28,34.804 C28,34.804 28,39 28,39 C28,39 28,48.03 28,48.03 C28,50.219 26.219,52 24.029,52 C23.282,52 22.596,51.789 22,51.446 C22,51.446 22,55 22,55 C22,57.188 20.218,58.97 18.03,58.97 C15.781,58.97 14,57.188 14,55 C14,55 14,51.456 14,51.456 C13.417,51.792 12.75,52 12.03,52 C9.781,52 8,50.219 8,48.03 C8,48.03 8,39 8,39 C8,39 8,34.804 8,34.804 C8,34.804 3.919,37.354 3.919,37.354 C3.509,37.611 3.041,37.747 2.565,37.747 C1.15,37.747 0,36.597 0,35.183 C0,35.183 0,30.56 0,30.56 C0,27.735 1.384,25.085 3.702,23.472 C3.702,23.472 8,20.478 8,20.478 C8,20.478 8,15.904 8,15.904 C8,11.772 9.609,7.887 12.532,4.964 C12.532,4.964 17.203,0.293 17.203,0.293 C17.39,0.105 17.645,0 17.91,0 C17.91,0 18.09,0 18.09,0 C18.355,0 18.609,0.105 18.797,0.293 C18.797,0.293 23.468,4.964 23.468,4.964 C26.39,7.887 28,11.772 28,15.904 C28,15.904 28,20.478 28,20.478 C28,20.478 32.298,23.472 32.298,23.472 C34.616,25.085 36,27.735 36,30.56 C36,30.56 36,35.183 36,35.183 C36,35.89 35.721,36.547 35.213,37.031 Z M8,22.915 C8,22.915 4.845,25.112 4.845,25.112 C3.063,26.352 2,28.389 2,30.56 C2,30.56 2,35.183 2,35.183 C1.999,35.662 2.516,35.87 2.859,35.659 C2.859,35.659 8,32.445 8,32.445 C8,32.445 8,22.915 8,22.915 Z M16,55 C16,56.086 16.884,56.97 17.97,56.97 C19.116,56.97 20,56.086 20,55 C20,55 20,48.03 20,48.03 C20,48.03 20,40 20,40 C20,40 16,40 16,40 C16,40 16,48.03 16,48.03 C16,48.03 16,55 16,55 Z M10,48.03 C10,49.116 10.883,50 11.97,50 C13.116,50 14,49.116 14,48.03 C14,48.03 14,40 14,40 C14,40 10,40 10,40 C10,40 10,48.03 10,48.03 Z M26,21 C26,21 26,15.904 26,15.904 C26,12.306 24.598,8.924 22.054,6.378 C22.054,6.378 18,2.324 18,2.324 C18,2.324 13.945,6.378 13.945,6.378 C11.401,8.924 10,12.306 10,15.904 C10,15.904 10,21 10,21 C10,21 10,32 10,32 C10,32 26,32 26,32 C26,32 26,21 26,21 Z M26,34 C26,34 10,34 10,34 C10,34 10,38 10,38 C10,38 26,38 26,38 C26,38 26,34 26,34 Z M26,40 C26,40 22,40 22,40 C22,40 22,48.03 22,48.03 C22,49.116 22.884,50 23.97,50 C25.116,50 26,49.116 26,48.03 C26,48.03 26,40 26,40 Z M34,30.56 C34,28.389 32.936,26.352 31.155,25.112 C31.155,25.112 28,22.915 28,22.915 C28,22.915 28,32.445 28,32.445 C28,32.445 33.14,35.659 33.14,35.659 C33.234,35.717 33.333,35.747 33.435,35.747 C33.579,35.747 33.724,35.687 33.832,35.585 C33.908,35.512 34,35.383 34,35.183 C34,35.183 34,30.56 34,30.56 Z M18,13 C21.308,13 24,15.691 24,19 C24,22.309 21.308,25 18,25 C14.691,25 12,22.309 12,19 C12,15.691 14.691,13 18,13 Z M18,23 C20.205,23 22,21.206 22,19 C22,16.794 20.205,15 18,15 C15.794,15 14,16.794 14,19 C14,21.206 15.794,23 18,23 Z" id="Shape"></path>
            </g>
        </g>
    </g>
</svg>