<?xml version="1.0" encoding="UTF-8"?>
<svg width="60px" height="60px" viewBox="0 0 60 60" version="1.1" xmlns="http://www.w3.org/2000/svg" xmlns:xlink="http://www.w3.org/1999/xlink">
    <!-- Generator: Sketch 47 (45396) - http://www.bohemiancoding.com/sketch -->
    <title>003-neuron-neuronal-connections-neural-network-science-biology-medicine</title>
    <desc>Created with Sketch.</desc>
    <defs></defs>
    <g id="Page-1" stroke="none" stroke-width="1" fill="none" fill-rule="evenodd">
        <g id="Home" transform="translate(-771.000000, -700.000000)" fill-rule="nonzero" fill="#505070">
            <g id="003-neuron-neuronal-connections-neural-network-science-biology-medicine" transform="translate(771.000000, 700.000000)">
                <path d="M53.075,26.402 C49.612,26.402 46.795,23.584 46.795,20.122 C46.795,19.465 46.924,18.844 47.112,18.249 C46.794,18.215 46.474,18.194 46.153,18.194 C41.953,18.194 38.367,21.011 37.287,25.072 C37.932,26.056 38.335,27.142 38.551,28.258 C41.478,26.848 44.978,27.233 47.524,29.394 C47.951,29.756 48.324,30.171 48.668,30.609 C48.749,30.598 48.825,30.572 48.907,30.565 C51.737,30.328 54.2,32.475 54.428,35.251 C54.657,38.065 52.556,40.541 49.742,40.771 C49.6,40.783 49.46,40.789 49.32,40.789 C46.676,40.789 44.437,38.723 44.222,36.085 C44.06,34.104 45.067,32.308 46.651,31.328 C46.515,31.188 46.38,31.045 46.23,30.918 C44.091,29.103 41.065,28.95 38.72,30.463 C38.613,32.402 37.889,34.315 36.54,35.876 C40.84,37.557 43.722,41.656 43.722,46.374 C43.722,47.361 43.564,48.328 43.311,49.271 C44.417,50.412 45.104,51.96 45.104,53.669 C45.104,57.16 42.264,60 38.774,60 C35.283,60 32.443,57.16 32.443,53.669 C32.443,50.178 35.283,47.338 38.774,47.338 C39.779,47.338 40.717,47.595 41.562,48.014 C41.659,47.474 41.722,46.928 41.722,46.374 C41.722,42.153 38.905,38.55 34.84,37.437 C33.756,38.182 32.527,38.671 31.227,38.886 C32.613,41.887 32.185,45.472 30,48.045 C29.486,48.652 28.875,49.15 28.22,49.588 C28.262,49.793 28.316,49.992 28.334,50.205 C28.449,51.608 28.01,52.973 27.098,54.046 C26.187,55.12 24.912,55.775 23.508,55.889 C23.363,55.901 23.218,55.907 23.074,55.907 C20.352,55.907 18.046,53.78 17.824,51.064 C17.71,49.66 18.148,48.296 19.059,47.222 C19.971,46.148 21.246,45.494 22.649,45.379 C24.616,45.215 26.401,46.19 27.432,47.716 C27.809,47.43 28.165,47.116 28.475,46.751 C30.346,44.548 30.525,41.38 28.971,38.942 C26.993,38.77 25.144,37.991 23.673,36.641 C22.047,40.95 17.906,43.918 13.206,43.918 C12.616,43.918 12.031,43.856 11.452,43.764 C10.319,45.412 8.424,46.497 6.278,46.497 C2.816,46.497 0,43.681 0,40.219 C0,36.757 2.816,33.941 6.278,33.941 C9.739,33.941 12.556,36.757 12.556,40.219 C12.556,40.794 12.454,41.341 12.308,41.87 C12.606,41.899 12.906,41.918 13.206,41.918 C17.472,41.918 21.158,38.928 22.134,34.772 C21.542,33.825 21.12,32.802 20.913,31.738 C19.727,32.336 18.438,32.652 17.145,32.652 C15.227,32.652 13.315,31.996 11.776,30.689 C11.11,30.125 10.575,29.448 10.122,28.714 C10.089,28.717 10.058,28.729 10.025,28.731 C9.883,28.743 9.742,28.749 9.603,28.749 C6.958,28.749 4.717,26.682 4.501,24.042 C4.272,21.227 6.375,18.749 9.19,18.519 C12.011,18.286 14.485,20.43 14.713,23.208 C14.825,24.572 14.398,25.897 13.513,26.941 C13.108,27.417 12.623,27.797 12.093,28.092 C12.379,28.481 12.696,28.847 13.07,29.165 C15.256,31.02 18.423,31.123 20.77,29.496 C20.881,27.533 21.651,25.617 23.035,24.054 C18.675,22.482 15.75,18.42 15.75,13.662 C15.75,12.816 15.871,11.983 16.059,11.165 C14.608,10.016 13.657,8.26 13.657,6.269 C13.657,2.812 16.469,0 19.926,0 C23.382,0 26.195,2.812 26.195,6.269 C26.195,9.726 23.382,12.537 19.926,12.537 C19.208,12.537 18.529,12.391 17.885,12.168 C17.804,12.66 17.75,13.158 17.75,13.662 C17.75,17.937 20.639,21.516 24.797,22.481 C25.852,21.783 27.041,21.327 28.295,21.124 C26.768,18.03 27.164,14.313 29.459,11.611 C29.717,11.306 30.026,11.048 30.324,10.781 C30.267,10.533 30.21,10.285 30.188,10.026 C29.948,7.078 32.15,4.483 35.098,4.242 C38.064,3.994 40.644,6.242 40.881,9.151 C41.122,12.099 38.92,14.694 35.972,14.935 C35.824,14.947 35.676,14.953 35.53,14.953 C33.761,14.953 32.172,14.064 31.19,12.707 C31.125,12.777 31.045,12.832 30.984,12.905 C29.003,15.238 28.867,18.549 30.587,21.075 C32.509,21.254 34.306,22.006 35.75,23.3 C37.421,19.045 41.482,16.194 46.153,16.194 C46.796,16.194 47.434,16.267 48.063,16.377 C49.21,14.847 51.021,13.841 53.075,13.841 C56.538,13.841 59.355,16.659 59.355,20.122 C59.355,23.584 56.538,26.402 53.075,26.402 Z M46.215,35.922 C46.354,37.615 47.859,38.92 49.579,38.778 C51.294,38.638 52.574,37.129 52.435,35.414 C52.303,33.807 50.939,32.548 49.329,32.548 C49.243,32.548 49.157,32.551 49.071,32.558 C47.356,32.699 46.075,34.207 46.215,35.922 Z M38.774,49.338 C36.385,49.338 34.443,51.281 34.443,53.669 C34.443,56.057 36.385,58 38.774,58 C41.161,58 43.104,56.057 43.104,53.669 C43.104,51.281 41.161,49.338 38.774,49.338 Z M23.083,47.362 C22.994,47.362 22.903,47.365 22.812,47.372 C21.941,47.444 21.15,47.85 20.584,48.517 C20.019,49.183 19.746,50.03 19.818,50.901 C19.963,52.676 21.548,54.036 23.346,53.896 C24.217,53.825 25.008,53.418 25.573,52.752 C26.139,52.086 26.411,51.239 26.34,50.368 C26.203,48.682 24.772,47.362 23.083,47.362 Z M6.278,35.941 C3.919,35.941 2,37.86 2,40.219 C2,42.578 3.919,44.497 6.278,44.497 C8.637,44.497 10.556,42.578 10.556,40.219 C10.556,37.86 8.637,35.941 6.278,35.941 Z M12.72,23.371 C12.588,21.762 11.223,20.502 9.612,20.502 C9.527,20.502 9.44,20.506 9.353,20.513 C7.637,20.653 6.355,22.164 6.494,23.88 C6.633,25.574 8.137,26.878 9.861,26.738 C11.578,26.598 12.86,25.087 12.72,23.371 Z M19.926,10.538 C22.28,10.538 24.195,8.623 24.195,6.269 C24.195,3.915 22.28,2 19.926,2 C17.573,2 15.657,3.915 15.657,6.269 C15.657,8.623 17.573,10.538 19.926,10.538 Z M35.809,12.941 C37.658,12.79 39.039,11.163 38.888,9.314 C38.747,7.581 37.276,6.224 35.54,6.224 C35.448,6.224 35.354,6.227 35.261,6.235 C33.412,6.386 32.03,8.014 32.181,9.863 C32.331,11.688 33.961,13.09 35.809,12.941 Z M34.707,25.05 C33.383,23.727 31.623,22.998 29.751,22.998 C27.878,22.998 26.118,23.727 24.795,25.05 C22.062,27.783 22.062,32.229 24.795,34.962 C26.118,36.286 27.878,37.014 29.751,37.014 C31.623,37.014 33.384,36.286 34.707,34.962 C37.439,32.229 37.439,27.783 34.707,25.05 Z M53.075,15.841 C50.715,15.841 48.795,17.761 48.795,20.122 C48.795,22.482 50.715,24.402 53.075,24.402 C55.435,24.402 57.355,22.482 57.355,20.122 C57.355,17.761 55.435,15.841 53.075,15.841 Z" id="Shape"></path>
            </g>
        </g>
    </g>
</svg>