<?xml version="1.0" encoding="UTF-8"?>
<svg width="212px" height="35px" viewBox="0 0 212 35" version="1.1" xmlns="http://www.w3.org/2000/svg" xmlns:xlink="http://www.w3.org/1999/xlink">
    <!-- Generator: Sketch 47 (45396) - http://www.bohemiancoding.com/sketch -->
    <title>white-logo</title>
    <desc>Created with Sketch.</desc>
    <defs></defs>
    <g id="Page-1" stroke="none" stroke-width="1" fill="none" fill-rule="evenodd">
        <g id="Home" transform="translate(-62.000000, -40.000000)" fill="#FFFFFF">
            <g id="white-logo" transform="translate(62.000000, 40.000000)">
                <g id="Shape">
                    <path d="M81.1320435,17.3861404 C81.1320435,16.8560103 81.0433395,16.424657 80.8661438,16.0927164 C80.6893724,15.7616236 80.4457548,15.5013278 80.1359275,15.3139488 C79.8261002,15.1257219 79.4441213,14.9983296 78.9906276,14.9324078 C78.5367093,14.866062 78.0331339,14.8329951 77.479689,14.8329951 C76.2845195,14.8329951 75.0121055,15.0648873 73.6618102,15.5290955 C73.3517707,14.9542404 73.1196125,14.4124522 72.964911,13.9041548 C72.8099974,13.3958574 72.7321161,12.7879354 72.7321161,12.0801768 C73.7061622,11.7486601 74.6797839,11.5055337 75.65383,11.3507976 C76.6274517,11.1960615 77.5355003,11.1184815 78.376066,11.1184815 C80.6781253,11.1184815 82.4763969,11.6710801 83.7713052,12.7769131 C85.0660013,13.8823221 85.7134555,15.6505527 85.7134555,18.0824527 L85.7134555,28.0309224 C84.938675,28.2740488 83.997946,28.5063649 82.8912684,28.7274467 C81.7850151,28.9485285 80.5342466,29.0591754 79.1398115,29.0591754 C78.011064,29.0591754 76.9761135,28.9595508 76.0353844,28.7605136 C75.0948676,28.5616883 74.2867701,28.2297476 73.6123652,27.7655394 C72.9368993,27.3017551 72.4169836,26.7046434 72.0513449,25.9750523 C71.6865551,25.2452491 71.5038419,24.3501115 71.5038419,23.2887916 C71.5038419,22.2278957 71.7306949,21.3380573 72.1844009,20.6194884 C72.6381069,19.9011315 73.2248689,19.3260644 73.943838,18.895135 C74.6634437,18.4639937 75.4655993,18.1545215 76.3511536,17.9665066 C77.2364957,17.7784917 78.1216257,17.6845902 79.0069678,17.6845902 C79.6489045,17.6845902 80.3570508,17.718081 81.1320435,17.7840028 L81.1320435,17.3861404 Z M81.1320435,20.8019922 C80.8661438,20.757691 80.5785986,20.718689 80.2683468,20.6858341 C79.9585195,20.6527672 79.6824337,20.6362338 79.4386039,20.6362338 C78.3539961,20.6362338 77.4962414,20.8293359 76.8653396,21.2163881 C76.2346501,21.6032283 75.9193053,22.2278957 75.9193053,23.0899664 C75.9193053,23.6650335 76.0411141,24.1067732 76.2845195,24.4166692 C76.527925,24.7259294 76.8214121,24.9525224 77.1643442,25.0960242 C77.5074885,25.2399499 77.8722783,25.3283403 78.2597747,25.3616191 C78.6474832,25.394474 78.9848979,25.4116434 79.2722309,25.4116434 C79.6045525,25.4116434 79.9366619,25.3836637 80.2683468,25.3283403 C80.6006685,25.2730168 80.8882137,25.2236285 81.1320435,25.1791153 L81.1320435,20.8019922 Z M88.8565049,15.0979542 L86.6983243,15.0979542 L86.5319513,14.4347087 L92.7408055,6.50904226 L93.5043388,6.50904226 L93.5043388,11.516344 L97.5214831,11.516344 C97.5874806,11.8482847 97.6320448,12.1465225 97.6545391,12.4116935 C97.6761846,12.6772885 97.6872195,12.9534818 97.6872195,13.2411213 C97.6872195,13.5503815 97.6761846,13.8488313 97.6545391,14.1362589 C97.6320448,14.4238984 97.5874806,14.7443928 97.5214831,15.0979542 L93.5043388,15.0979542 L93.5043388,21.8300332 C93.5043388,22.5151113 93.5599379,23.0677098 93.6707118,23.4880408 C93.780849,23.907524 93.9414924,24.2394646 94.1515807,24.482803 C94.3623057,24.7259294 94.6220514,24.8916878 94.9318787,24.9800781 C95.241706,25.0688924 95.6073446,25.1129816 96.0273091,25.1129816 C96.3596307,25.1129816 96.6857983,25.0852139 97.0070849,25.0298904 C97.3277349,24.9747789 97.6099749,24.9249666 97.8533803,24.8808775 C98.0087184,25.3003606 98.1188556,25.737225 98.1854897,26.1906229 C98.2521238,26.6438089 98.2850164,27.0476064 98.2850164,27.4011677 C98.2850164,27.6442942 98.2797112,27.8486306 98.268464,28.0146009 C98.2574291,28.1801473 98.2410888,28.3410304 98.2185945,28.4953426 C97.2006209,28.7388929 96.1495424,28.8599262 95.0649346,28.8599262 C93.0506328,28.8599262 91.5121068,28.3904188 90.4499934,27.451192 C89.3876677,26.5113293 88.8565049,24.9800781 88.8565049,22.8578623 L88.8565049,15.0979542 Z M101.312411,15.0979542 L99.154655,15.0979542 L98.9882819,14.4347087 L105.196924,6.50904226 L105.960457,6.50904226 L105.960457,11.516344 L109.977602,11.516344 C110.043811,11.8482847 110.088375,12.1465225 110.110658,12.4116935 C110.132303,12.6772885 110.14355,12.9534818 110.14355,13.2411213 C110.14355,13.5503815 110.132303,13.8488313 110.110658,14.1362589 C110.088375,14.4238984 110.043811,14.7443928 109.977602,15.0979542 L105.960457,15.0979542 L105.960457,21.8300332 C105.960457,22.5151113 106.016269,23.0677098 106.126618,23.4880408 C106.237392,23.907524 106.397823,24.2394646 106.607911,24.482803 C106.818424,24.7259294 107.077958,24.8916878 107.388209,24.9800781 C107.697824,25.0688924 108.063463,25.1129816 108.483428,25.1129816 C108.815537,25.1129816 109.141917,25.0852139 109.463203,25.0298904 C109.784066,24.9747789 110.066306,24.9249666 110.309711,24.8808775 C110.464625,25.3003606 110.575186,25.737225 110.641396,26.1906229 C110.708242,26.6438089 110.741347,27.0476064 110.741347,27.4011677 C110.741347,27.6442942 110.73583,27.8486306 110.724582,28.0146009 C110.71376,28.1801473 110.697207,28.3410304 110.674925,28.4953426 C109.656739,28.7388929 108.605873,28.8599262 107.520841,28.8599262 C105.506963,28.8599262 103.968437,28.3904188 102.906112,27.451192 C101.843786,26.5113293 101.312411,24.9800781 101.312411,22.8578623 L101.312411,15.0979542 Z M123.120645,18.248847 C123.076505,17.1871031 122.783018,16.3307555 122.240821,15.6785324 C121.698623,15.0263093 120.940607,14.6998797 119.966561,14.6998797 C118.859883,14.6998797 118.018893,15.0095638 117.443378,15.6285081 C116.868076,16.2476644 116.525144,17.1209694 116.414582,18.248847 L123.120645,18.248847 Z M116.381053,21.5313714 C116.469757,22.8578623 116.934498,23.8195576 117.775488,24.4166692 C118.616478,25.0135689 119.723156,25.3120188 121.095733,25.3120188 C121.848231,25.3120188 122.616858,25.2399499 123.402885,25.0960242 C124.188701,24.9525224 124.935469,24.747974 125.64404,24.482803 C125.887445,24.9249666 126.097534,25.4555206 126.27473,26.0746769 C126.451713,26.6931972 126.55124,27.3568666 126.573522,28.0642012 C124.846978,28.7274467 122.899098,29.0591754 120.729882,29.0591754 C119.136606,29.0591754 117.770182,28.8380936 116.629763,28.395718 C115.490193,27.9537663 114.560499,27.3399092 113.841318,26.5556305 C113.121924,25.7707159 112.590549,24.8365763 112.247617,23.7529999 C111.904685,22.6698473 111.733431,21.4872822 111.733431,20.2053044 C111.733431,18.9449473 111.910202,17.7621702 112.264382,16.6567611 C112.618137,15.5509281 113.143994,14.5896568 113.841318,13.7718872 C114.538429,12.9534818 115.401489,12.3069817 116.430922,11.8315393 C117.460143,11.3563087 118.66083,11.1184815 120.032983,11.1184815 C121.228152,11.1184815 122.29069,11.328541 123.220172,11.7486601 C124.149866,12.1685671 124.940987,12.7436342 125.593958,13.4734374 C126.24693,14.2023927 126.739683,15.0706104 127.07158,16.0763949 C127.403689,17.0821794 127.569638,18.1602447 127.569638,19.3095309 C127.569638,19.72965 127.553086,20.1444698 127.519768,20.5531426 C127.486664,20.9618155 127.447405,21.288245 127.403689,21.5313714 L116.381053,21.5313714 Z M129.370032,11.516344 C129.701929,11.4504222 130.017274,11.4003979 130.316066,11.367543 C130.615283,11.3338402 130.941238,11.3175187 131.29563,11.3175187 C131.627739,11.3175187 131.954331,11.3399873 132.274769,11.3836525 C132.596055,11.4279537 132.9114,11.4834891 133.220803,11.5498348 C133.287649,11.6604817 133.348554,11.820517 133.403728,12.0305765 C133.459115,12.240636 133.508773,12.4617178 133.553125,12.6940339 C133.597477,12.926138 133.635887,13.1578182 133.669204,13.3903462 C133.702521,13.6226623 133.729896,13.8153405 133.75239,13.9709244 C134.239201,13.2852105 134.83721,12.6715654 135.545144,12.1302011 C136.253503,11.5884128 137.138845,11.3175187 138.200958,11.3175187 C138.422718,11.3175187 138.677159,11.328541 138.964704,11.3507976 C139.252249,11.3728422 139.46255,11.4059091 139.595394,11.4504222 C139.639745,11.6710801 139.673063,11.9254407 139.69492,12.2128683 C139.717627,12.5002958 139.728449,12.7987457 139.728449,13.1084298 C139.728449,13.4842477 139.711473,13.8931325 139.67858,14.3352961 C139.645263,14.7774597 139.584359,15.1973668 139.495655,15.5954412 C139.252249,15.5509281 138.981256,15.5290955 138.682676,15.5290955 C138.383884,15.5290955 138.200958,15.5290955 138.134961,15.5290955 C137.758287,15.5290955 137.338111,15.5678855 136.872945,15.6450416 C136.408417,15.7226216 135.965745,15.926958 135.545144,16.2588987 C135.124331,16.5904154 134.776094,17.0879025 134.499159,17.7513599 C134.222649,18.4141814 134.083863,19.3428098 134.083863,20.5368212 L134.083863,28.6945917 C133.685968,28.7605136 133.287649,28.8048147 132.888906,28.8268593 C132.490799,28.8491159 132.103515,28.8599262 131.727053,28.8599262 C131.350592,28.8599262 130.969038,28.8491159 130.581541,28.8268593 C130.194257,28.8048147 129.790421,28.7605136 129.370032,28.6945917 L129.370032,11.516344 Z M141.938409,11.516344 C142.248024,11.4504222 142.558064,11.4003979 142.867679,11.367543 C143.177719,11.3338402 143.520651,11.3175187 143.897112,11.3175187 C144.273361,11.3175187 144.605258,11.3338402 144.893016,11.367543 C145.180773,11.4003979 145.479566,11.4504222 145.789393,11.516344 C145.855603,11.6269909 145.916931,11.7874501 145.972106,11.9975096 C146.027281,12.2073571 146.077363,12.4288629 146.121502,12.6605431 C146.165854,12.8928591 146.204264,13.1192401 146.237581,13.340322 C146.271323,13.5614038 146.298698,13.7494187 146.320768,13.9041548 C146.497327,13.57285 146.730122,13.2411213 147.018092,12.9091806 C147.305637,12.5780878 147.648569,12.2798499 148.046888,12.014043 C148.445207,11.7486601 148.893396,11.5330894 149.391666,11.367543 C149.889512,11.2013607 150.448686,11.1184815 151.068341,11.1184815 C153.746225,11.1184815 155.461522,12.1357122 156.214233,14.1697497 C156.656692,13.3515562 157.282076,12.6389224 158.089749,12.0305765 C158.897846,11.4224425 159.92155,11.1184815 161.161283,11.1184815 C163.108739,11.1184815 164.541796,11.6551825 165.460243,12.7273127 C166.379115,13.799231 166.838338,15.473984 166.838338,17.7513599 L166.838338,28.6613129 C166.0417,28.7940044 165.25546,28.8599262 164.481104,28.8599262 C163.706324,28.8599262 162.920508,28.7940044 162.12387,28.6613129 L162.12387,18.9778022 C162.12387,17.7840028 161.974262,16.8668207 161.675257,16.2258318 C161.376889,15.5846309 160.773787,15.2639245 159.866375,15.2639245 C159.489701,15.2639245 159.119394,15.3194599 158.754392,15.4296829 C158.388753,15.5399058 158.056856,15.7444542 157.758276,16.043116 C157.459484,16.3415659 157.216078,16.7618969 157.027635,17.3034731 C156.839405,17.8446255 156.745395,18.5470848 156.745395,19.4091555 L156.745395,28.6613129 C155.948545,28.7940044 155.16273,28.8599262 154.388161,28.8599262 C153.613593,28.8599262 152.827566,28.7940044 152.030715,28.6613129 L152.030715,18.9778022 C152.030715,17.7840028 151.881531,16.8668207 151.582527,16.2258318 C151.283734,15.5846309 150.680844,15.2639245 149.773432,15.2639245 C149.397608,15.2639245 149.020934,15.3194599 148.644473,15.4296829 C148.268648,15.5399058 147.930809,15.7556885 147.632017,16.0763949 C147.333012,16.3966774 147.095124,16.8443521 146.918353,17.4194192 C146.741157,17.9940624 146.652453,18.7459101 146.652453,19.6743265 L146.652453,28.6613129 C145.855603,28.7940044 145.070424,28.8599262 144.295431,28.8599262 C143.520651,28.8599262 142.73526,28.7940044 141.938409,28.6613129 L141.938409,11.516344 Z M176.439589,25.4775652 C177.67911,25.4775652 178.56997,25.0190801 179.111955,24.101262 C179.654365,23.1840798 179.92557,21.8628881 179.92557,20.1387467 C179.92557,18.4141814 179.654365,17.0934136 179.111955,16.1758075 C178.56997,15.2579894 177.67911,14.7995043 176.439589,14.7995043 C175.22235,14.7995043 174.342525,15.2579894 173.800327,16.1758075 C173.257705,17.0934136 172.9865,18.4141814 172.9865,20.1387467 C172.9865,21.8628881 173.257705,23.1840798 173.800327,24.101262 C174.342525,25.0190801 175.22235,25.4775652 176.439589,25.4775652 Z M176.439589,29.0591754 C175.045154,29.0591754 173.83322,28.8323704 172.804211,28.3791845 C171.77499,27.9262106 170.922753,27.296032 170.247712,26.4888608 C169.57267,25.6819016 169.063577,24.7369517 168.720857,23.6535872 C168.377501,22.5702227 168.206035,21.3988919 168.206035,20.1387467 C168.206035,18.8786016 168.377501,17.6956125 168.720857,16.5904154 C169.063577,15.4850063 169.57267,14.5288222 170.247712,13.721863 C170.922753,12.9146918 171.77499,12.2798499 172.804211,11.8150058 C173.83322,11.3507976 175.045154,11.1184815 176.439589,11.1184815 C177.834024,11.1184815 179.051051,11.3507976 180.091519,11.8150058 C181.131563,12.2798499 181.994623,12.9146918 182.681336,13.721863 C183.367412,14.5288222 183.876293,15.4850063 184.208614,16.5904154 C184.540512,17.6956125 184.706248,18.8786016 184.706248,20.1387467 C184.706248,21.3988919 184.540512,22.5702227 184.208614,23.6535872 C183.876293,24.7369517 183.367412,25.6819016 182.681336,26.4888608 C181.994623,27.296032 181.131563,27.9262106 180.091519,28.3791845 C179.051051,28.8323704 177.834024,29.0591754 176.439589,29.0591754 Z M190.758915,21.1998546 C189.519182,20.8458694 188.550865,20.3210385 187.853966,19.6245142 C187.156642,18.9284139 186.807981,17.8836274 186.807981,16.4905788 C186.807981,14.8103146 187.411295,13.495482 188.617712,12.544809 C189.823704,11.593924 191.467486,11.1184815 193.547785,11.1184815 C194.411058,11.1184815 195.26287,11.1960615 196.104073,11.3507976 C196.945275,11.5055337 197.7973,11.7374258 198.66036,12.0473219 C198.616008,12.6217531 198.505447,13.2186528 198.328039,13.838021 C198.15148,14.4567533 197.941179,14.9983296 197.697774,15.4631737 C197.166398,15.2418799 196.580061,15.0483538 195.937912,14.8823835 C195.2964,14.7168371 194.621146,14.6339579 193.913,14.6339579 C193.160289,14.6339579 192.574164,14.749904 192.153138,14.9820081 C191.732749,15.2143242 191.522449,15.5846309 191.522449,16.0927164 C191.522449,16.5791811 191.671845,16.9219321 191.970637,17.1209694 C192.269429,17.3197946 192.69576,17.5082335 193.248781,17.6845902 L195.141274,18.248847 C195.761141,18.4254157 196.319891,18.6407744 196.817949,18.895135 C197.315795,19.1494957 197.742125,19.464479 198.096093,19.8400849 C198.450272,20.2159028 198.726782,20.680323 198.925836,21.2329215 C199.125313,21.7857321 199.225052,22.4597878 199.225052,23.2555128 C199.225052,24.0739182 199.053374,24.8365763 198.71023,25.5439109 C198.367298,26.2514575 197.869027,26.8648907 197.216268,27.3842104 C196.563296,27.904166 195.771963,28.3130507 194.842269,28.6112886 C193.913,28.9099504 192.861497,29.0591754 191.688397,29.0591754 C191.157022,29.0591754 190.670636,29.04243 190.227965,29.0093631 C189.785081,28.9758723 189.359175,28.9207608 188.949609,28.8436047 C188.540255,28.7660247 188.136206,28.6723352 187.737887,28.5616883 C187.339356,28.4512534 186.90772,28.3075396 186.442979,28.130547 C186.487543,27.5334353 186.592587,26.9310244 186.758323,26.3233144 C186.924272,25.7156044 187.140302,25.1237919 187.405778,24.5489368 C188.136206,24.8365763 188.828012,25.051935 189.480984,25.1956488 C190.133955,25.3395745 190.814514,25.4116434 191.522449,25.4116434 C191.8327,25.4116434 192.170115,25.3836637 192.534905,25.3283403 C192.900331,25.2730168 193.237958,25.1736042 193.547785,25.0298904 C193.857825,24.8861766 194.117995,24.6981617 194.328083,24.4662696 C194.538384,24.2341655 194.643004,23.9302045 194.643004,23.5539626 C194.643004,23.0238326 194.482785,22.6422916 194.161923,22.4101875 C193.840848,22.1782954 193.39266,21.9731111 192.817569,21.7965424 L190.758915,21.1998546 Z M202.242049,15.0979542 L200.084505,15.0979542 L199.91792,14.4347087 L206.126349,6.50904226 L206.889883,6.50904226 L206.889883,11.516344 L210.907239,11.516344 C210.973661,11.8482847 211.017801,12.1465225 211.040295,12.4116935 C211.062153,12.6772885 211.0734,12.9534818 211.0734,13.2411213 C211.0734,13.5503815 211.062153,13.8488313 211.040295,14.1362589 C211.017801,14.4238984 210.973661,14.7443928 210.907239,15.0979542 L206.889883,15.0979542 L206.889883,21.8300332 C206.889883,22.5151113 206.945694,23.0677098 207.056043,23.4880408 C207.167029,23.907524 207.327248,24.2394646 207.537337,24.482803 C207.748062,24.7259294 208.00802,24.8916878 208.317635,24.9800781 C208.62725,25.0688924 208.993101,25.1129816 209.413277,25.1129816 C209.745387,25.1129816 210.071554,25.0852139 210.392841,25.0298904 C210.713491,24.9747789 210.995731,24.9249666 211.239136,24.8808775 C211.394262,25.3003606 211.505036,25.737225 211.571033,26.1906229 C211.63788,26.6438089 211.670772,27.0476064 211.670772,27.4011677 C211.670772,27.6442942 211.665255,27.8486306 211.65422,28.0146009 C211.643185,28.1801473 211.626845,28.3410304 211.604351,28.4953426 C210.586589,28.7388929 209.535298,28.8599262 208.450691,28.8599262 C206.436389,28.8599262 204.898075,28.3904188 203.835537,27.451192 C202.773424,26.5113293 202.242049,24.9800781 202.242049,22.8578623 L202.242049,15.0979542 Z M45.736609,6.26697569 C46.6960126,6.13364831 47.618916,6.06666667 48.5059558,6.06666667 C49.4411674,6.06666667 50.3644951,6.13364831 51.2755147,6.26697569 L57.2099807,18.5701893 L63.324189,6.26697569 C64.0675623,6.13364831 64.8943344,6.06666667 65.8057784,6.06666667 C66.7170102,6.06666667 67.5917417,6.13364831 68.4312464,6.26697569 L69.6540032,28.8590783 C68.7431958,28.9926177 67.8799236,29.0591754 67.0648231,29.0591754 C66.249086,29.0591754 65.4462938,28.9926177 64.6551731,28.8590783 L64.0075068,12.5246721 L58.7563585,23.8142584 C58.4204293,23.8587715 58.0730408,23.8981974 57.7131318,23.9310523 C57.353435,23.9645431 56.9941627,23.9810766 56.6342537,23.9810766 C56.3223043,23.9810766 56.0109915,23.9700543 55.6994666,23.9477977 C55.3877294,23.9255412 55.0641084,23.8808161 54.7281792,23.8142584 L49.8369399,12.2906603 L49.3333644,28.8590783 C48.5662236,28.9926177 47.8228503,29.0591754 47.1032445,29.0591754 C46.3358914,29.0591754 45.5443464,28.9926177 44.7296703,28.8590783 L45.736609,6.26697569 Z"></path>
                    <path d="M23.4565938,14.3003957 C23.4565938,14.3003957 23.5108357,16.6884838 21.8574126,18.3108668 C20.2037768,19.9332498 18.172787,19.7849664 16.8516226,19.3369202 C15.5302455,18.8888741 13.8270474,17.7709957 13.4973412,15.476437 C13.1678478,13.1816652 14.6591831,11.3174694 14.6591831,11.3174694 L17.9090221,7.26971435 L19.801748,4.95789848 L21.4264548,2.94328869 C21.4264548,2.94328869 22.1720161,1.94301448 22.384517,1.73656811 C22.4266343,1.69566232 22.4698152,1.6688179 22.5121452,1.64815196 L22.5429887,1.63238619 L22.5485193,1.63025568 C22.637859,1.59169346 22.7408124,1.58338447 22.8401496,1.61704652 C22.9373598,1.65006942 23.0126604,1.71696742 23.0603083,1.79941814 L23.0703058,1.81539696 L23.0790271,1.83371934 C23.1022129,1.87760784 23.1215698,1.92767481 23.1307165,1.98945959 C23.1741101,2.28283075 23.1598582,3.53109627 23.1598582,3.53109627 L23.2285648,6.11966532 L23.3300292,9.10770491 L23.4565938,14.3003957 Z M27.6633886,3.3401757 C33.6739761,7.7215685 36.4305522,15.672843 33.9240725,23.1095995 C30.8391255,32.2618423 20.9510886,37.169684 11.8385841,34.0714971 C2.72607949,30.9730971 -2.16024071,21.0421531 0.924494186,11.8899104 C3.43521638,4.44100996 10.4523413,-0.195830931 17.8901119,0.00635442121 L15.5060288,2.835458 C11.0935979,3.63674262 7.28381666,6.66313138 5.7864199,11.1058829 C3.55846153,17.7157886 7.29272595,24.9580296 14.1272104,27.2815633 C20.9614828,29.60531 28.3080392,26.130662 30.5359976,19.5207563 C32.0285155,15.0927053 30.8450651,10.3812966 27.8468775,7.05450598 L27.6633886,3.3401757 Z"></path>
                </g>
            </g>
        </g>
    </g>
</svg>