<?xml version="1.0" standalone="no"?>
<!DOCTYPE svg PUBLIC "-//W3C//DTD SVG 1.1//EN" "http://www.w3.org/Graphics/SVG/1.1/DTD/svg11.dtd" >
<svg xmlns="http://www.w3.org/2000/svg">
<metadata></metadata>
<defs>
<font id="exo_2bold_italic" horiz-adv-x="1392" >
<font-face units-per-em="2048" ascent="1638" descent="-410" />
<missing-glyph horiz-adv-x="444" />
<glyph horiz-adv-x="0" />
<glyph unicode="&#xd;" horiz-adv-x="681" />
<glyph unicode=" "  horiz-adv-x="444" />
<glyph unicode="&#x09;" horiz-adv-x="444" />
<glyph unicode="&#xa0;" horiz-adv-x="444" />
<glyph unicode="!" horiz-adv-x="610" d="M94 113l15 98q12 98 114 98h66q119 0 100 -110l-12 -99q-12 -100 -117 -100h-65q-115 0 -101 113zM166 449l27 421l77 553h299l-77 -553l-89 -421h-237z" />
<glyph unicode="&#x22;" horiz-adv-x="765" d="M174 961l45 452h223l-82 -452h-186zM504 961l47 452h221l-80 -452h-188z" />
<glyph unicode="#" horiz-adv-x="1456" d="M37 403l59 183h236l90 286h-234l62 181h229l113 360h231l-112 -360h282l113 360h231l-112 -360h229l-61 -181h-226l-90 -286h226l-62 -183h-221l-127 -403h-231l129 403h-285l-127 -403h-232l129 403h-239zM563 586h283l90 286h-283z" />
<glyph unicode="$" horiz-adv-x="1171" d="M31 29l32 223q426 -10 437 -10q139 0 189 27.5t63 117.5q10 70 -10.5 97.5t-88.5 52.5l-264 108q-152 63 -204 163.5t-33 252.5q29 221 149.5 298t372.5 81l47 186h227l-49 -196q129 -13 252 -48l-31 -211q-182 6 -434 7q-121 2 -166 -20.5t-57 -115.5q-10 -70 11.5 -97 t98.5 -58l250 -99q160 -66 210 -161t30 -258q-29 -227 -141.5 -309.5t-378.5 -86.5l-49 -217h-228l53 228q-143 10 -288 45z" />
<glyph unicode="%" horiz-adv-x="1857" d="M127 1032q33 231 117 319.5t270 88.5q201 0 271.5 -97.5t37.5 -334.5q-33 -231 -117.5 -319.5t-273.5 -88.5q-197 0 -267.5 97.5t-37.5 334.5zM315 0l1047 1413h205l-1045 -1413h-207zM343 816.5q17 -48.5 89 -48.5q86 0 118 51t54 213q18 143 1 191.5t-89 48.5 q-86 0 -116.5 -51.5t-53.5 -212.5q-20 -143 -3 -191.5zM1063 408q35 231 119 320t270 89q199 0 270.5 -98t38.5 -334q-35 -231 -118.5 -320.5t-274.5 -89.5q-197 0 -267.5 98.5t-37.5 334.5zM1280 192.5q16 -47.5 88 -47.5q88 0 120 50.5t52 212.5q18 145 2 192t-90 47 q-84 0 -114.5 -50t-53.5 -212q-20 -145 -4 -192.5z" />
<glyph unicode="&#x26;" horiz-adv-x="1531" d="M63 371q37 338 326 358l2 10q-113 8 -162 100.5t-24 237.5q16 92 51 157.5t81 104.5t116.5 61.5t142.5 30t172 7.5q195 0 354 -45l-49 -215q-129 27 -293 26q-143 0 -198.5 -35.5t-71.5 -152.5q-14 -106 20.5 -144t143.5 -38h389q4 68 4 217h260q2 -100 -4 -217h184 l-30 -211h-177q-29 -176 -100 -301q-190 -346 -692 -347q-258 0 -363.5 94.5t-81.5 301.5zM395 410q-14 -102 24 -143.5t150 -41.5q270 0 387 195q53 76 80 203h-393q-119 0 -175 -46.5t-73 -166.5z" />
<glyph unicode="'" horiz-adv-x="436" d="M174 961l45 452h223l-82 -452h-186z" />
<glyph unicode="(" horiz-adv-x="745" d="M86 651q57 406 229.5 639.5t489.5 329.5l35 -137q-367 -154 -463 -854q-51 -315 -2 -532.5t213 -303.5l-39 -125q-293 96 -406.5 339t-56.5 644z" />
<glyph unicode=")" horiz-adv-x="745" d="M-82 -203q367 164 463 856q53 322 4 538t-215 296l39 127q293 -96 406.5 -338t56.5 -649q-57 -401 -229.5 -635t-489.5 -332z" />
<glyph unicode="*" horiz-adv-x="925" d="M145 1096l68 157l231 -100l-8 -72l-43 -45zM215 809l256 262l23 344h170l-76 -342l182 -264l-139 -100l-111 249l-178 -247zM629 1079l10 74l246 100l33 -163l-256 -56z" />
<glyph unicode="+" horiz-adv-x="1097" d="M70 506l32 221h353l49 344h225l-49 -344h352l-31 -221h-354l-47 -342h-223l47 342h-354z" />
<glyph unicode="," horiz-adv-x="499" d="M33 98l16 109q10 59 38 80.5t89 21.5h68q59 0 81.5 -25.5t14.5 -84.5l-18 -131q-27 -197 -150 -373l-133 47q55 160 78 264q-94 -6 -84 92z" />
<glyph unicode="-" horiz-adv-x="847" d="M94 422l29 199h608l-26 -199h-611z" />
<glyph unicode="." horiz-adv-x="493" d="M33 113l14 98q15 98 117 98h76q117 0 100 -110l-14 -99q-12 -100 -115 -100h-76q-115 0 -102 113z" />
<glyph unicode="/" horiz-adv-x="1144" d="M-59 -147l1024 1560h247l-1024 -1560h-247z" />
<glyph unicode="0" horiz-adv-x="1284" d="M117 719q55 399 194 560t430 161q303 0 407.5 -172t47.5 -574q-55 -399 -194.5 -560t-432.5 -161q-295 0 -402.5 172t-49.5 574zM410.5 317q31.5 -96 169.5 -96q145 0 209.5 100.5t103.5 389t6 385t-168 96.5q-143 0 -207.5 -100.5t-103.5 -389.5q-41 -289 -9.5 -385z " />
<glyph unicode="1" horiz-adv-x="878" d="M111 1270l385 143h307l-199 -1413h-311l143 1001q10 88 31 152l-340 -90z" />
<glyph unicode="2" horiz-adv-x="1171" d="M4 0l27 180q14 88 51 127l399 371q168 154 237.5 240t80.5 159q8 59 -29 76.5t-133 17.5q-227 0 -436 -18l2 238q240 47 465 47q117 0 197.5 -14.5t144 -51.5t88 -104.5t14.5 -169.5q-14 -121 -74.5 -221.5t-206.5 -235.5l-411 -379q86 18 207 19h415l-36 -281h-1002z " />
<glyph unicode="3" horiz-adv-x="1144" d="M8 10l29 230q289 -14 377 -11q270 12 305 215q16 92 -23 137.5t-151 47.5l-277 4l29 209h268q117 0 162 50t55 150q8 86 -26.5 115t-167.5 29q-166 0 -375 -8v225q227 37 432 37q242 0 345.5 -81t86.5 -259q-10 -133 -74.5 -236.5t-185.5 -115.5l-2 -9q252 -39 209 -342 q-27 -203 -164 -311.5t-414 -112.5q-168 -6 -438 37z" />
<glyph unicode="4" horiz-adv-x="1292" d="M53 390q-47 79 4 167l484 856h303l-453 -819q-37 -61 23 -62h348l53 381l84 226h238l-84 -607h168l-27 -192l-168 -29h-4l-45 -311h-287l41 311h-520q-111 0 -158 79z" />
<glyph unicode="5" horiz-adv-x="1116" d="M6 20l47 242q195 -35 342 -24q147 8 221 64t91 167q12 96 -41.5 135t-210.5 53l-195 23q-53 6 -80.5 44t-19.5 89l119 600h825l-47 -242h-563l-54 -262l162 -18q455 -51 408 -442q-57 -446 -551 -474q-201 -10 -453 45z" />
<glyph unicode="6" horiz-adv-x="1196" d="M117 702q27 190 68.5 322.5t93 213.5t129 125t159.5 59.5t205 15.5q163 0 356 -39l-28 -203q-106 4 -307 4q-172 0 -241 -72.5t-114 -306.5q141 111 312 111q211 0 297 -105.5t51 -355.5q-39 -262 -161 -379t-398 -117q-301 0 -391.5 161t-30.5 566zM391 286.5 q29 -71.5 162 -71.5q131 0 181 61t73 213q18 129 -8.5 172.5t-132.5 43.5q-127 0 -267 -111q-37 -236 -8 -307.5z" />
<glyph unicode="7" horiz-adv-x="1079" d="M141 1159l23 254h844q86 0 116.5 -48t-4.5 -124l-608 -1241h-309l506 1030q33 70 82 129h-650z" />
<glyph unicode="8" horiz-adv-x="1261" d="M68 365q23 164 90.5 260t206.5 108l2 8q-205 29 -164 332q27 199 138.5 283t383.5 82q287 0 385 -91.5t70 -297.5q-43 -287 -256 -314l-2 -8q244 -25 192 -387q-27 -199 -141.5 -282t-407.5 -85q-295 0 -408.5 95.5t-88.5 296.5zM369 403q-16 -113 24.5 -150.5 t186.5 -37.5q133 0 184 43t67 168q18 123 -20.5 161t-183.5 38q-137 0 -188.5 -41t-69.5 -181zM477 1012q-14 -102 22 -136t169 -34q125 0 169 39t60 155q16 109 -18.5 143.5t-165.5 34.5t-175 -39.5t-61 -162.5z" />
<glyph unicode="9" horiz-adv-x="1196" d="M68 14l30 205q104 -4 336 -4q170 4 243 84t114 295q-129 -115 -308 -115q-117 0 -195.5 41t-111.5 106.5t-45 150.5t4 171q33 272 157 380t402 108q203 0 302.5 -62.5t130 -224.5t-16.5 -440q-33 -225 -82 -365.5t-130 -224.5t-185.5 -115t-263.5 -31q-197 0 -381 41z M422 946q-16 -135 12.5 -188t130.5 -53q74 0 131.5 23.5t128.5 84.5q37 238 9.5 311.5t-166.5 73.5q-129 0 -179.5 -54.5t-66.5 -197.5z" />
<glyph unicode=":" horiz-adv-x="526" d="M20 113l15 98q15 100 117 100h75q115 0 101 -112l-15 -99q-12 -100 -114 -100h-76q-115 0 -103 113zM106 725l15 100q15 99 117 99h75q115 0 101 -113l-15 -96q-12 -100 -114 -101h-76q-115 0 -103 111z" />
<glyph unicode=";" horiz-adv-x="532" d="M51 98l17 109q10 59 38 80.5t89 21.5h67q59 0 82 -25.5t14 -84.5l-18 -131q-27 -197 -150 -373l-133 47q55 160 78 264q-94 -6 -84 92zM135 725l15 100q14 99 116 99h76q115 0 100 -113l-14 -96q-12 -100 -115 -101h-75q-119 0 -103 111z" />
<glyph unicode="&#x3c;" horiz-adv-x="1054" d="M63 500l33 233l908 336l-33 -244l-635 -211l573 -223l-32 -231z" />
<glyph unicode="=" horiz-adv-x="1185" d="M78 281l33 221h940l-33 -221h-940zM139 713l31 221h940l-33 -221h-938z" />
<glyph unicode="&#x3e;" horiz-adv-x="1052" d="M55 162l33 244l633 221l-569 221l30 223l811 -338l-32 -233z" />
<glyph unicode="?" horiz-adv-x="1056" d="M164 1202v207q16 4 62 12.5t61.5 10.5t54.5 8t64.5 8t66.5 5t86 4t98 1q219 0 324.5 -82t83.5 -248q-12 -82 -56 -150.5t-103.5 -120.5t-120 -106.5t-114 -132t-73.5 -172.5h-242q12 119 68.5 223.5t119 165t120 129t69.5 119.5q16 78 -16.5 103.5t-130.5 25.5 q-191 0 -422 -10zM291 113l14 96q13 100 115 100h65q117 0 103 -110l-15 -99q-12 -100 -114 -100h-66q-115 0 -102 113z" />
<glyph unicode="@" horiz-adv-x="1636" d="M88 473q25 147 67 241.5t108.5 140.5t136 61.5t175.5 15.5q190 0 506 -58l-94 -591q-8 -82 53 -82q100 0 138.5 90t81.5 381q14 88 21 145t3 108.5t-8 79t-31.5 52t-48 34t-79 15.5t-102.5 7t-136 1h-686l18 205q305 16 674 20q160 2 263 -6t189 -35.5t129 -72.5 t66.5 -124t21.5 -184.5t-24 -261.5q-53 -406 -153.5 -540.5t-368.5 -134.5q-250 0 -293 190q-147 -195 -350 -195q-358 0 -277 498zM359.5 250q17.5 -41 91 -41t134 45t138.5 152l53 313l-137 2q-143 0 -193.5 -44t-78.5 -218q-25 -168 -7.5 -209z" />
<glyph unicode="A" horiz-adv-x="1325" d="M-80 0l594 1337q29 76 113 76h295q39 0 68.5 -25.5t31.5 -62.5l221 -1325h-311l-47 369h-488l-151 -369h-326zM500 616h352l-55 428q-6 45 -11 138h-59q-37 -104 -49 -135z" />
<glyph unicode="B" horiz-adv-x="1300" d="M57 0l199 1413q182 16 514 17q272 0 378 -82q84 -65 85 -215q0 -39 -6 -84q-23 -152 -88.5 -225.5t-198.5 -86.5l-2 -12q250 -19 250 -283q0 -47 -8 -102q-31 -211 -143.5 -283.5t-370.5 -72.5q-402 0 -609 16zM393 221h219q137 0 189.5 40t70.5 163q5 36 5 65 q-1 68 -27 96q-38 40 -162 42h-237zM481 838h215q117 0 166 40t64 152q4 28 4 51q0 57 -25 79q-35 32 -147 32h-228z" />
<glyph unicode="C" horiz-adv-x="1193" d="M111 719q57 410 204.5 564.5t475.5 154.5q236 0 421 -49l-41 -232q-166 10 -393 10q-109 0 -170 -34.5t-103 -136t-69 -302.5q-18 -129 -18 -216q0 -93 20 -140q39 -92 191 -92h44q217 0 384 18l12 -233q-184 -55 -451 -56q-328 -1 -446 173q-80 118 -79 338 q0 105 18 233z" />
<glyph unicode="D" horiz-adv-x="1388" d="M57 0l199 1413q266 18 506 19q233 0 362 -66q130 -66 176 -228q25 -88 25 -211q0 -104 -18 -233q-33 -229 -83 -368.5t-139.5 -216t-200 -102t-292.5 -25.5q-232 0 -535 18zM401 229q35 0 98.5 -1t88.5 -1q98 0 156.5 17.5t107.5 70t76.5 148.5t50.5 256q23 154 24 242v6 q0 84 -27 135q-28 53 -79 69.5t-145 16.5l-215 -2z" />
<glyph unicode="E" horiz-adv-x="1171" d="M92 334l113 807q18 131 105 204.5t233 73.5q446 0 651 -22l-39 -230h-528q-59 0 -85 -23.5t-34 -86.5l-31 -213h557l-28 -221h-560l-36 -273q-2 -16 -2 -29q0 -35 15 -51q21 -24 79 -24h522l-8 -232q-180 -20 -613 -20q-171 0 -251 91q-64 73 -64 188q0 29 4 61z" />
<glyph unicode="F" horiz-adv-x="1128" d="M53 0l158 1133q20 137 108.5 211.5t229.5 74.5q436 0 633 -24l-39 -228h-494q-70 0 -98.5 -22.5t-36.5 -87.5l-33 -240h539l-31 -221h-538l-84 -596h-314z" />
<glyph unicode="G" horiz-adv-x="1316" d="M113 719q29 221 85 364.5t149 221t206 106.5t281 29q254 0 432 -51l-39 -228q-231 10 -389 10q-199 0 -280 -93t-120 -384q-16 -130 -16 -219t16 -136q33 -95 156 -95q86 0 147.5 33.5t141.5 107.5l59 432h299l-115 -817h-227l-8 174q-184 -201 -426 -201 q-217 0 -308 179q-60 117 -60 326q0 109 16 241z" />
<glyph unicode="H" horiz-adv-x="1400" d="M57 0l199 1413h313l-75 -541h491l76 541h311l-198 -1413h-312l88 629h-489l-90 -629h-314z" />
<glyph unicode="I" horiz-adv-x="598" d="M57 0l199 1413h313l-198 -1413h-314z" />
<glyph unicode="J" horiz-adv-x="747" d="M-33 18l53 207h84q139 0 156 115l152 1073h313l-158 -1122q-20 -154 -109 -235t-231 -81q-166 0 -260 43z" />
<glyph unicode="K" horiz-adv-x="1290" d="M57 0l199 1413h313l-59 -416q-10 -78 -33 -151h115l422 567h360l-440 -582q-49 -67 -123 -108l-2 -8q49 -41 92 -129l293 -586h-344l-291 623h-117q2 -26 2 -52q0 -44 -6 -90l-67 -481h-314z" />
<glyph unicode="L" horiz-adv-x="1081" d="M100 319l150 1094h313l-149 -1055q-1 -13 -2 -24q0 -34 15 -54q19 -26 79 -26h483l-6 -240q-201 -20 -594 -20q-151 0 -231 87q-62 68 -63 176q0 29 5 62z" />
<glyph unicode="M" horiz-adv-x="1861" d="M33 0l235 1303q10 57 39 83.5t84 26.5h293q100 0 111 -106l79 -705q10 -84 11 -201h28q29 94 66 195l266 721q31 94 133 96h301q57 -1 86 -33q24 -27 24 -69q0 -9 -1 -19l-127 -1292h-295l123 1169h-35l-334 -880q-31 -94 -133 -94h-205q-106 0 -116 104l-101 870h-35 l-202 -1169h-295z" />
<glyph unicode="N" horiz-adv-x="1468" d="M57 0l185 1307q14 106 118 106h172q45 0 70 -23.5t45 -74.5l273 -729q47 -125 73 -230h25q0 121 14 228l113 829h297l-185 -1307q-14 -106 -116 -106h-174q-47 0 -71 22.5t-46 75.5l-281 754q-39 102 -61 213h-21q-4 -125 -16 -221l-117 -844h-297z" />
<glyph unicode="O" d="M111 719q57 408 207.5 564.5t476 156.5t450.5 -167q86 -115 86 -345q0 -105 -18 -234q-55 -414 -206 -567.5t-474 -153.5q-332 0 -455 164q-85 113 -85 345q0 106 18 237zM438 694q-19 -135 -19 -226q0 -96 21 -146q41 -96 199 -97q162 0 233.5 101.5t114.5 392.5 q20 139 20 232q0 95 -21 143q-42 94 -202 94q-164 0 -233.5 -99.5t-112.5 -394.5z" />
<glyph unicode="P" horiz-adv-x="1247" d="M57 0l199 1413q188 18 520 19q286 0 392 -106q79 -78 78 -243q0 -57 -9 -125q-37 -270 -149.5 -360t-380.5 -90q-141 0 -265 18l-73 -526h-312zM473 748h213q127 0 175 45t69 188q6 42 6 75q0 63 -22 92q-34 44 -146 44l-231 -2z" />
<glyph unicode="Q" d="M111 719q57 408 207.5 564.5t476 156.5t450.5 -167q86 -115 86 -345q0 -105 -18 -234q-55 -414 -206 -567.5t-474 -153.5q-332 0 -455 164q-85 113 -85 345q0 106 18 237zM391 -238l101 164q240 -96 598 -151l-119 -279q-330 92 -580 266zM438 694q-19 -135 -19 -226 q0 -97 21 -146q41 -97 199 -97q162 0 233.5 101.5t114.5 392.5q20 139 20 232q0 95 -21 143q-42 94 -202 94q-164 0 -233.5 -99.5t-112.5 -394.5z" />
<glyph unicode="R" horiz-adv-x="1312" d="M57 0l199 1413q188 18 522 19q264 0 386 -98q96 -77 96 -239q0 -44 -7 -94q-20 -150 -93 -234.5t-224 -102.5l-2 -13q141 -33 170 -217l74 -434h-320l-65 438q-8 66 -35 89.5t-84 23.5l-234 2l-78 -553h-305zM475 793h221q123 0 175.5 45t70.5 168q5 32 5 58q1 60 -25 88 q-36 40 -150 40l-242 -2z" />
<glyph unicode="S" horiz-adv-x="1183" d="M31 29l32 223q434 -10 441 -10q143 0 194.5 27.5t65.5 117.5q2 20 2 36q0 41 -14 61q-20 26 -90 53l-269 108q-154 63 -207 163q-39 74 -39 176q0 37 5 77q31 225 156.5 302t391.5 77q264 0 461 -58l-31 -211q-184 6 -438 7h-21q-108 0 -149 -20q-45 -22 -59 -116 q-3 -22 -3 -40q0 -38 14 -57q22 -27 101 -58l254 -99q161 -63 213 -158q37 -67 37 -171q0 -42 -6 -90q-31 -233 -150.5 -314.5t-406.5 -81.5q-238 0 -485 56z" />
<glyph unicode="T" horiz-adv-x="1216" d="M111 1159l34 254h1153l-34 -254h-422l-162 -1159h-313l163 1159h-419z" />
<glyph unicode="U" horiz-adv-x="1386" d="M125 569l119 844h313l-121 -856q-12 -80 -12 -139q0 -84 24 -124q41 -70 185 -69q147 0 212.5 74t94.5 270l119 844h313l-123 -856q-47 -324 -184 -454t-432 -130q-301 -1 -426 139q-93 104 -93 306q0 70 11 151z" />
<glyph unicode="V" horiz-adv-x="1296" d="M125 1413h315l111 -1016q8 -82 12 -166h51q18 74 56 168l397 1014h330l-576 -1333q-33 -80 -112 -80h-283q-39 0 -67.5 26.5t-32.5 63.5z" />
<glyph unicode="W" horiz-adv-x="1980" d="M162 1413h311v-987q0 -35 -3 -109.5t-3 -95.5h41q10 43 59 217l273 885q27 90 118 90h265q43 0 70.5 -29.5t27.5 -72.5l39 -887q3 -89 3 -149q0 -30 -1 -54h43q31 139 51 213l270 979h318l-414 -1333q-25 -80 -114 -80h-295q-41 0 -72 27.5t-33 66.5l-26 914v180h-39 q-27 -113 -47 -182l-281 -924q-25 -82 -117 -82h-297q-41 0 -72.5 26.5t-31.5 65.5z" />
<glyph unicode="X" horiz-adv-x="1306" d="M-66 0l472 725l-240 688h309l184 -584h27l363 584h327l-438 -688l264 -725h-313l-205 629h-22l-383 -629h-345z" />
<glyph unicode="Y" horiz-adv-x="1239" d="M113 1413h313l160 -524q23 -90 26 -182h23q20 94 74 186l307 520h336l-600 -952l-64 -461h-315l67 477z" />
<glyph unicode="Z" horiz-adv-x="1183" d="M-2 0l31 240l788 934h-639l33 239h993l-35 -239l-786 -934h672l-33 -240h-1024z" />
<glyph unicode="[" horiz-adv-x="704" d="M45 -174l223 1595q10 72 56.5 112t115.5 40h336l-26 -189h-156q-47 0 -53 -45l-205 -1452q-4 -37 29 -37h170l-27 -188h-320q-166 0 -143 164z" />
<glyph unicode="\" horiz-adv-x="1112" d="M152 1413h227l592 -1560h-228z" />
<glyph unicode="]" horiz-adv-x="704" d="M-66 -338l25 188h156q47 0 53 46l205 1452q6 37 -29 36h-168l27 189h317q70 0 113 -47t33 -117l-226 -1595q-10 -70 -56 -111t-116 -41h-334z" />
<glyph unicode="^" horiz-adv-x="944" d="M104 823l363 461h219l242 -461l-123 -65l-232 340h-16l-338 -340z" />
<glyph unicode="_" horiz-adv-x="1142" d="M4 -199l29 199h909l-29 -199h-909z" />
<glyph unicode="`" horiz-adv-x="722" d="M152 1307l135 198l418 -303l-101 -129z" />
<glyph unicode="a" horiz-adv-x="1208" d="M76 524q20 139 57 234.5t82 151t116.5 84t138.5 36.5t169 8q109 0 260.5 -18.5t241.5 -42.5l-137 -977h-236l2 182q-156 -201 -414 -207h-17q-175 0 -239 124q-40 79 -41 219q0 90 17 206zM368 271q14 -50 79 -50h10q135 2 303 191l57 403h-155q-147 0 -200.5 -51 t-80.5 -244q-18 -127 -18 -194q0 -36 5 -55z" />
<glyph unicode="b" horiz-adv-x="1212" d="M43 53l195 1381h301l-45 -351q-16 -131 -58 -239q200 192 398 192h2q184 0 252 -122q41 -75 41 -215q0 -89 -17 -203q-39 -287 -160 -405t-366 -118q-123 0 -286 22.5t-257 57.5zM369 201q131 -4 157 -4q150 2 201 59t80 260q14 105 14 165q-1 41 -7 61q-16 50 -87 49 q-119 0 -297 -150z" />
<glyph unicode="c" horiz-adv-x="1038" d="M68 518q41 285 163.5 402.5t393.5 117.5q240 0 387 -65l-41 -185q-238 4 -305 5q-141 0 -202 -58.5t-81 -230.5q-9 -67 -8 -116q0 -80 23 -114q38 -52 173 -53q191 1 320 19l20 -199q-156 -66 -393 -66q-274 0 -382 127q-79 92 -79 270q0 67 11 146z" />
<glyph unicode="d" horiz-adv-x="1212" d="M74 524q23 162 63.5 266.5t103 156.5t129 71.5t158.5 19.5q162 0 326 -26q4 127 14 198l37 224h303l-202 -1434h-238v184q-205 -209 -420 -209q-170 0 -242 129q-46 83 -46 235q0 82 14 185zM370 290q14 -59 84 -59h4q74 2 141 38t157 116l61 440h-162q-150 0 -198.5 -52 t-75.5 -253q-16 -108 -16 -171q0 -37 5 -59z" />
<glyph unicode="e" horiz-adv-x="1146" d="M70 526q37 295 168 403.5t417 108.5q265 0 361 -88q76 -70 76 -192q0 -32 -5 -68q-20 -143 -116.5 -204.5t-296.5 -75.5l-299 -23q2 -100 50 -135t153 -35q199 0 389 23l20 -193q-170 -72 -444 -72q-289 -1 -397 135q-83 104 -84 293q0 58 8 123zM393 565l236 23 q82 6 119.5 32.5t46.5 98.5q1 11 1 20q0 50 -27 64q-28 14 -112 14h-22q-119 0 -167 -50t-75 -202z" />
<glyph unicode="f" horiz-adv-x="821" d="M-221 -377l47 201h131q82 0 118 27.5t48 107.5l121 848h-174l24 192l178 11l23 157q43 307 354 308q203 0 332 -21l-49 -201h-180q-80 0 -116 -27.5t-48 -107.5l-15 -108h277l-27 -203h-280l-129 -899q-43 -307 -355 -307q-88 0 -280 22z" />
<glyph unicode="g" horiz-adv-x="1214" d="M18 -367l23 179q70 -2 289 -2q328 0 389 186q8 23 21.5 71t27.5 88t37 72q-76 -111 -191.5 -176t-257.5 -67h-11q-175 0 -241 122q-43 78 -43 218q0 88 17 200q20 139 56 235.5t77 151t104.5 84t121 36.5t145.5 7q315 0 565 -61l-125 -887q-33 -272 -189.5 -392 t-437.5 -120q-240 0 -377 55zM372 272q14 -51 79 -51h10q137 6 303 191l59 403h-164q-150 0 -197.5 -52t-76.5 -243q-19 -126 -19 -193q0 -36 6 -55z" />
<glyph unicode="h" horiz-adv-x="1220" d="M39 0l201 1434h303l-49 -357q-18 -127 -54 -248q233 209 430 209q139 0 208 -74q53 -57 53 -151q0 -29 -5 -61l-106 -752h-301l94 670q3 26 3 45q0 31 -8 45q-13 22 -58 22q-68 0 -140.5 -37.5t-183.5 -123.5l-84 -621h-303z" />
<glyph unicode="i" horiz-adv-x="563" d="M47 0l141 1010h301l-141 -1010h-301zM221 1264l15 108q8 84 96 84h127q87 0 87 -77q0 -8 -1 -17l-15 -111q-12 -82 -98 -82h-129q-83 0 -83 75q0 9 1 20z" />
<glyph unicode="j" horiz-adv-x="565" d="M-117 -266q147 143 170 319l137 957h302l-138 -969q-18 -141 -99 -262t-206 -185zM219 1264l17 108q8 84 96 84h127q85 0 85 -74q0 -10 -1 -20l-15 -111q-12 -82 -98 -82h-127q-85 0 -85 75q0 9 1 20z" />
<glyph unicode="k" horiz-adv-x="1153" d="M39 0l201 1434h303l-84 -617q-16 -121 -74 -250q158 82 275.5 198t150.5 245h309q-76 -287 -332 -465q47 -49 84 -127l187 -418h-316l-178 418q-76 -35 -174 -74l-49 -344h-303z" />
<glyph unicode="l" horiz-adv-x="665" d="M76 260l166 1174h301l-158 -1110q-2 -16 -2 -29q-1 -32 13 -47q20 -21 83 -21h88l15 -215q-72 -37 -236 -37q-141 0 -214 76q-59 62 -59 161q0 23 3 48z" />
<glyph unicode="m" horiz-adv-x="1794" d="M39 0l141 1010h236v-183q111 111 206 161t199 50q111 0 174.5 -49t73.5 -139q190 188 381 188q140 0 204 -76q50 -60 50 -155q0 -26 -4 -55l-105 -752h-301l95 670q2 19 2 35q-1 37 -13 53q-18 24 -63 24q-51 0 -108.5 -32.5t-155.5 -120.5l-88 -629h-291l92 670 q4 23 4 41q0 29 -10 45q-16 26 -66 26q-53 0 -111.5 -31.5t-152.5 -113.5l-88 -637h-301z" />
<glyph unicode="n" horiz-adv-x="1220" d="M39 0l141 1010h238v-201q236 229 461 229q129 0 199 -74q53 -57 53 -152q0 -28 -5 -60l-106 -752h-301l92 662q4 30 4 52q0 31 -8 45q-13 23 -57 23h-7q-115 -2 -315 -159l-86 -623h-303z" />
<glyph unicode="o" horiz-adv-x="1200" d="M68 516q41 287 169.5 404.5t407.5 117.5q281 0 391 -127q81 -93 81 -273q0 -67 -11 -146q-39 -285 -169 -402t-405 -117q-279 0 -392 127q-83 93 -83 274q0 65 11 142zM383 492q-11 -79 -11 -134q0 -68 17 -100q31 -58 150 -57q123 0 176 64.5t80 250.5q12 81 12 137 q0 67 -17 99q-32 60 -147 59q-125 0 -179 -63.5t-81 -255.5z" />
<glyph unicode="p" horiz-adv-x="1214" d="M-16 -389l196 1399h240l-4 -195q90 92 202.5 155.5t221.5 63.5q178 0 246 -125q41 -78 41 -223q0 -88 -15 -201q-18 -131 -50 -224t-73 -148.5t-99.5 -87t-116.5 -42t-138 -10.5q-150 0 -301 27q0 -96 -15 -190l-32 -199h-303zM371 184h155q156 0 204 52.5t75 252.5 q15 119 15 185q0 42 -6 62q-15 55 -85 55q-53 0 -135 -45.5t-164 -120.5z" />
<glyph unicode="q" horiz-adv-x="1206" d="M72 516q43 297 157.5 409.5t360.5 112.5q131 0 292.5 -22.5t256.5 -57.5l-193 -1347h-301l45 311q16 137 55 238q-193 -184 -391 -185q-176 0 -250 125q-47 80 -47 229q0 83 15 187zM370 288q17 -57 91 -57q72 0 136.5 36t158.5 116l59 428q-68 4 -162 4 q-145 -4 -195 -56t-79 -247q-15 -101 -15 -162q0 -40 6 -62z" />
<glyph unicode="r" horiz-adv-x="866" d="M39 0l141 1010h236v-191q231 219 430 219h61l-67 -280h-74q-63 0 -134 -28t-204 -97l-86 -633h-303z" />
<glyph unicode="s" horiz-adv-x="1073" d="M18 14l29 195q74 -4 322 -4q176 0 233 12t66 53q4 31 -15.5 45.5t-77.5 36.5q-16 6 -26 10l-244 101q-123 49 -172 125q-38 59 -38 141q0 23 3 49q16 138 122 200q103 60 317 60h14q279 -4 467 -41l-29 -192q-393 6 -399 6q-119 0 -158 -9t-45 -44q-4 -35 19.5 -52.5 t91.5 -43.5l247 -99q125 -49 177 -119q40 -54 39 -136q0 -24 -3 -50q-12 -90 -48 -147.5t-103.5 -86t-145 -38t-198.5 -9.5q-184 0 -445 37z" />
<glyph unicode="t" horiz-adv-x="839" d="M66 807l24 192l186 11l41 282h297l-39 -282h279l-29 -203h-280l-68 -483q-3 -18 -2 -32q-1 -31 11 -45q18 -20 79 -20h135l15 -213q-109 -39 -283 -39q-142 0 -212 79q-54 61 -54 159q0 28 4 59l78 535h-182z" />
<glyph unicode="u" horiz-adv-x="1202" d="M70 258l104 752h303l-96 -670q-3 -19 -2 -35q-1 -34 11 -52q18 -26 67 -26q66 0 128 35t167 123l86 625h299l-140 -1010h-233v190q-225 -217 -436 -217q-145 0 -212 76q-51 58 -51 149q0 28 5 60z" />
<glyph unicode="v" horiz-adv-x="1161" d="M76 1010h323l82 -805h25q41 0 64.5 17.5t54.5 72.5q53 100 108 278q53 165 94 437h324q-43 -254 -141 -516q-74 -201 -158 -334q-57 -90 -120.5 -125t-176.5 -35h-231q-35 0 -60.5 21.5t-30.5 56.5z" />
<glyph unicode="w" horiz-adv-x="1818" d="M82 1012h311l70 -803h22q59 0 99 102q35 82 67 236q27 117 64 389q12 74 86 74h284q33 0 54.5 -20.5t23.5 -51.5l56 -729h20q29 0 46.5 26.5t35.5 77.5q47 100 94 262q55 201 80 435h307q-51 -285 -129 -510q-70 -209 -139 -326q-51 -96 -114.5 -135t-184.5 -39h-150 q-37 0 -61.5 22.5t-26.5 57.5l-47 745h-24q-12 -141 -54 -338q-41 -172 -88 -274q-49 -129 -125.5 -171t-197.5 -42h-164q-37 0 -61.5 22.5t-28.5 57.5z" />
<glyph unicode="x" horiz-adv-x="1150" d="M-66 0l385 520l-215 490h289l160 -389h25l278 389h313l-358 -492l236 -518h-293l-181 424h-16l-301 -424h-322z" />
<glyph unicode="y" horiz-adv-x="1183" d="M72 1010h325l97 -772q4 -33 34 -33h82l8 18q162 336 236 787h320q-43 -233 -128 -476t-180 -417q-154 -279 -329 -398.5t-416 -138.5l-37 187q141 37 230 83t171 150h-120q-49 0 -83 28.5t-44 73.5z" />
<glyph unicode="z" horiz-adv-x="1069" d="M-2 0l29 217h-2l628 578h-534l28 215h887l-26 -215l-627 -578h553l-29 -217h-907z" />
<glyph unicode="{" horiz-adv-x="698" d="M66 575l24 197q43 12 58.5 18.5t35 22.5t27.5 41t14 68l51 370q48 334 476 281l-17 -187q-88 0 -128 -27.5t-48 -103.5l-45 -311q-16 -135 -65.5 -194.5t-180.5 -79.5q115 -37 155 -99.5t23 -173.5l-59 -424q-10 -70 17.5 -97.5t115.5 -27.5l-10 -186q-227 -29 -331.5 52 t-80.5 239l68 489q2 14 2 26.5t1 22t-3 17.5t-5 13t-9.5 11.5t-10.5 9.5t-15 9t-16.5 7t-21.5 8t-22 9z" />
<glyph unicode="|" horiz-adv-x="532" d="M27 -346l272 1945h215l-274 -1945h-213z" />
<glyph unicode="}" horiz-adv-x="700" d="M-57 -338l16 186q90 0 128 27t48 102l60 431q18 115 70 173t186 93q-115 20 -153 84.5t-17 195.5l45 312q10 70 -18 95t-118 25l11 187q231 31 332.5 -52t80.5 -239l-51 -373q-2 -18 -3 -31.5t-2 -25.5t1 -20.5t3 -14.5t8.5 -12t9.5 -9t13 -7.5t16 -6.5t21.5 -7t24.5 -7 l-26 -197q-55 -20 -76 -29.5t-40 -37t-26 -74.5l-69 -487q-23 -162 -134.5 -236t-340.5 -45z" />
<glyph unicode="~" horiz-adv-x="1046" d="M104 451q-2 147 52.5 220.5t136.5 71.5q72 -2 227.5 -51t179.5 -53q51 -8 74 15.5t31 82.5l135 -10q2 -145 -50 -220t-138 -71q-78 2 -231.5 51.5t-178.5 53.5q-51 8 -72.5 -17t-29.5 -86z" />
<glyph unicode="&#xa1;" horiz-adv-x="579" d="M4 -379l76 547l90 422h238l-29 -422l-76 -547h-299zM182 838l13 98q14 102 116 102h66q115 0 100 -112l-14 -99q-12 -100 -115 -100h-65q-117 0 -101 111z" />
<glyph unicode="&#xa2;" horiz-adv-x="1060" d="M98 723q39 279 156 396.5t369 123.5l43 170h227l-47 -184q114 -18 188 -51l-43 -185q-233 4 -301 4q-139 0 -197.5 -58t-80.5 -230q-23 -178 15 -230.5t171 -52.5q188 0 317 18l19 -198q-137 -55 -340 -64l-45 -182h-225l49 197q-174 35 -242 161.5t-33 364.5z" />
<glyph unicode="&#xa3;" horiz-adv-x="1189" d="M18 0l31 256q193 82 211 330l6 80h-157l20 159h147l17 236q18 225 122.5 301t329.5 76q195 -1 426 -21l-30 -233q-88 2 -363 2q-96 0 -136 -31t-48 -117l-12 -213h364l-31 -159h-344l-6 -93q-8 -127 -54 -199.5t-140 -140.5q51 18 149 19h541l-35 -252h-1008z" />
<glyph unicode="&#xa4;" horiz-adv-x="1198" d="M74 373l155 139q-47 102 -28 221q14 127 90 228l-133 147l135 125l135 -154q102 57 225 58q133 0 228 -64l155 139l121 -137l-160 -141q47 -100 29 -225q-14 -125 -88 -224l137 -147l-135 -123l-137 152q-100 -59 -231.5 -59.5t-225.5 65.5l-151 -135zM373 719 q-14 -113 44 -178.5t163 -65.5q113 0 187.5 67.5t86.5 184.5q14 111 -44 176.5t-165 65.5q-113 0 -185.5 -67.5t-86.5 -182.5z" />
<glyph unicode="&#xa5;" horiz-adv-x="1337" d="M137 272l25 193h966l-26 -193h-330l-37 -272h-315l41 272h-324zM162 1413h313l158 -514q23 -80 26 -182h25q14 80 72 186l307 510h334l-443 -696h207l-26 -193h-963l25 193h211z" />
<glyph unicode="&#xa6;" horiz-adv-x="534" d="M29 -346l114 819h213l-114 -819h-213zM186 780l117 819h213l-117 -819h-213z" />
<glyph unicode="&#xa7;" horiz-adv-x="1112" d="M-6 -342l35 217q213 -8 329 -8q123 0 176.5 16.5t63.5 75.5q8 45 -10.5 72.5t-65.5 54.5l-250 150q-150 82 -174 202.5t58 296.5l213 -6q-23 -121 -5.5 -177t105.5 -112l289 -178q57 -37 90 -66.5t59.5 -101t12.5 -170.5q-12 -92 -48 -150.5t-99.5 -89t-136.5 -41 t-183 -10.5q-248 0 -459 25zM174 1149q23 172 137.5 231.5t329.5 59.5q256 0 461 -25l-35 -217q-92 6 -346 6q-121 2 -169 -14t-56 -72q-6 -43 14 -73.5t72 -61.5l243 -145q147 -86 171 -208t-58 -296l-211 6q23 119 3.5 179.5t-105.5 115.5l-287 184q-59 39 -95 74 t-58.5 101.5t-10.5 154.5z" />
<glyph unicode="&#xa8;" horiz-adv-x="866" d="M244 1257l20 127q8 66 74 66h102q66 0 58 -64l-21 -129q-6 -61 -67 -61h-109q-63 0 -57 61zM602 1257l21 129q8 64 71 64h105q66 0 57 -64l-20 -129q-6 -61 -68 -61h-109q-66 0 -57 61z" />
<glyph unicode="&#xa9;" horiz-adv-x="1660" d="M106 719q39 322 258 521.5t549 199.5q336 0 523.5 -206t148.5 -540q-37 -322 -257 -521.5t-554 -199.5q-338 0 -523 207t-145 539zM256 694q-29 -264 111.5 -422.5t402.5 -158.5q268 0 451.5 165.5t214.5 440.5q29 260 -109.5 420.5t-404.5 160.5q-272 0 -454.5 -166.5 t-211.5 -439.5zM459 721q31 236 132 325t331 89q137 0 260 -31l-25 -162q-180 4 -237 4q-123 0 -169 -43t-65 -196q-18 -139 8.5 -185.5t122.5 -46.5q166 -4 279 8l12 -164q-125 -37 -277 -36q-242 0 -323.5 97t-48.5 341z" />
<glyph unicode="&#xaa;" horiz-adv-x="917" d="M133 915q12 94 40 159t58.5 100.5t82 54t94.5 22.5t112 4q201 4 359 -41l-93 -651h-176v111q-104 -123 -270 -125q-135 -4 -184.5 84t-22.5 282zM354.5 757.5q10.5 -32.5 55.5 -30.5q84 0 196 119l37 252h-104q-94 0 -127 -31t-52 -156q-16 -121 -5.5 -153.5z" />
<glyph unicode="&#xab;" horiz-adv-x="1050" d="M57 487l4 66l361 399l143 -106l-250 -332l181 -346l-154 -102zM481 487l4 66l361 399l145 -106l-250 -332l179 -346l-154 -102z" />
<glyph unicode="&#xac;" horiz-adv-x="1185" d="M102 508l33 223h940l-65 -455h-234l33 232h-707z" />
<glyph unicode="&#xad;" horiz-adv-x="847" d="M92 422l29 199h610l-29 -199h-610z" />
<glyph unicode="&#xae;" horiz-adv-x="1075" d="M137 995q25 203 159 324t343 121q193 0 311.5 -126t93.5 -341q-25 -205 -157.5 -325t-339.5 -120q-205 0 -320.5 131.5t-89.5 335.5zM223 979q-18 -174 74 -272.5t254 -98.5q174 0 281.5 103.5t125.5 283.5q16 170 -74.5 266.5t-250.5 96.5q-176 0 -282.5 -103.5 t-127.5 -275.5zM354 752l68 477q70 6 213 6q104 0 155.5 -32t38.5 -118q-10 -90 -108 -110l-2 -4q43 -12 55 -76l29 -143h-133l-23 145q-8 37 -47 37h-92l-25 -182h-129zM520 1018h84q51 2 70.5 13t25.5 52q4 37 -8 48.5t-55 11.5h-100z" />
<glyph unicode="&#xaf;" horiz-adv-x="819" d="M205 1225l26 194h613l-27 -194h-612z" />
<glyph unicode="&#xb0;" horiz-adv-x="710" d="M156 1178q10 115 90 186.5t203 71.5q127 0 202.5 -81t61.5 -200q-12 -117 -93 -188.5t-204 -71.5q-127 0 -200 81t-60 202zM315 1171q-6 -57 25 -92t86 -35q53 0 88 32t39 87q4 53 -25 88t-86 35q-55 0 -89 -30.5t-38 -84.5z" />
<glyph unicode="&#xb1;" horiz-adv-x="1169" d="M47 92l33 221h932l-33 -221h-932zM127 651l33 223h352l35 246h225l-35 -246h355l-33 -223h-354l-35 -243h-224l35 243h-354z" />
<glyph unicode="&#xb2;" horiz-adv-x="845" d="M121 737l18 133q8 70 35 93l223 190q174 139 193 207q8 29 -11.5 40t-66.5 11q-116 0 -274 -8v170q139 27 294.5 26.5t236.5 -46.5t65 -175q-8 -66 -44 -120t-124 -128l-242 -198q63 14 123 8h248l-29 -203h-645z" />
<glyph unicode="&#xb3;" horiz-adv-x="806" d="M119 743l18 170q246 -4 252 -4q145 8 160 105q8 45 -12.5 65.5t-77.5 20.5h-183l21 153h176q59 0 84 23.5t29 73.5q4 39 -15.5 52t-89.5 13q-57 0 -241 -4v168q143 23 282 23q164 0 229.5 -50.5t55.5 -156.5q-8 -78 -47 -141.5t-119 -69.5l-2 -4q166 -25 137 -217 q-16 -113 -97 -176.5t-267 -65.5q-106 -2 -293 22z" />
<glyph unicode="&#xb4;" horiz-adv-x="722" d="M197 1204l446 307l117 -219l-488 -219z" />
<glyph unicode="&#xb6;" horiz-adv-x="1210" d="M100 934q39 279 197 391.5t496 112.5q209 0 356 -35l-197 -1403h-198l174 1251q-45 2 -121 2l-238 -1683h-198l116 842q-236 27 -328.5 154.5t-58.5 367.5z" />
<glyph unicode="&#xb7;" horiz-adv-x="514" d="M94 485l15 99q12 100 116 100h74q119 0 100 -113l-12 -96q-12 -102 -115 -102h-75q-119 0 -103 112z" />
<glyph unicode="&#xb8;" horiz-adv-x="507" d="M-82 -485l41 131q76 -2 132 28.5t69 89.5q4 25 -15.5 32t-101.5 7l31 119q160 18 230.5 -10.5t51.5 -132.5q-25 -147 -146.5 -218t-291.5 -46z" />
<glyph unicode="&#xb9;" horiz-adv-x="614" d="M166 1503l233 82h230l-119 -848h-229l79 559q12 74 23 101l-211 -49z" />
<glyph unicode="&#xba;" horiz-adv-x="894" d="M127 911q27 193 115 271t278 78q203 0 280 -85t48 -286q-27 -190 -114 -266t-279 -76q-199 0 -277 84t-51 280zM354 889q-14 -102 6.5 -141t98.5 -39t111.5 42t50.5 160q14 113 -6.5 149t-96.5 36q-82 0 -114.5 -41t-49.5 -166z" />
<glyph unicode="&#xbb;" horiz-adv-x="1054" d="M35 168l252 332l-181 346l154 102l285 -422l-4 -65l-361 -398zM461 168l250 332l-181 346l154 102l285 -422l-4 -65l-361 -398z" />
<glyph unicode="&#xbc;" horiz-adv-x="1849" d="M156 1329l233 84h232l-119 -848h-232l78 561q14 80 23 103l-209 -49zM221 0l1051 1413h203l-1051 -1413h-203zM964 221q-26 45 9 109l301 518h215l-268 -479q-14 -33 18 -33h197l28 209l58 137h174l-49 -346h104l-20 -141l-107 -19l-25 -176h-208l22 176h-360 q-63 0 -89 45z" />
<glyph unicode="&#xbd;" horiz-adv-x="1859" d="M156 1329l233 84h232l-119 -848h-234l80 561q6 55 23 103l-209 -49zM211 0l1049 1413h202l-1050 -1413h-201zM1020 0l18 127q6 63 37 94l234 189q170 133 198 206q12 33 -8 45.5t-74 12.5q-98 0 -286 -6v168q147 27 299 26q182 0 263 -47t60 -182q-16 -115 -172 -242 l-262 -201q47 10 125 11l277 -4l-27 -197h-682z" />
<glyph unicode="&#xbe;" horiz-adv-x="2007" d="M92 569l14 168q121 -6 263 -6q90 0 128 25.5t46 85.5q6 41 -13.5 61.5t-87.5 22.5h-188l20 151h183q113 0 121 99q6 41 -13.5 54t-87.5 13q-39 0 -128 -1t-136 -1l-2 164q145 23 293 22q184 0 251.5 -46t51.5 -162q-22 -185 -182 -203l-11 -6q98 -12 134 -68.5t24 -155.5 q-16 -125 -95 -183t-261 -58q-123 0 -324 24zM406 0l1048 1413h203l-1049 -1413h-202zM1125.5 222q-25.5 46 9.5 110l299 518h217l-271 -479q-14 -33 19 -33h196l29 207l57 139h174l-49 -346h105l-21 -141l-106 -19l-25 -176h-209l25 174h-361q-63 0 -88.5 46z" />
<glyph unicode="&#xbf;" horiz-adv-x="1042" d="M-41 -88q10 82 55 150.5t105.5 121t122 106.5t113 131t71.5 169h242q-10 -102 -49 -189.5t-89.5 -145.5t-99.5 -107.5t-89 -98.5t-52 -92q-16 -66 17.5 -96.5t131.5 -30.5q264 0 420 10v-207q-16 -2 -62 -11t-60.5 -11t-53.5 -8t-64.5 -8.5t-66.5 -5.5t-86 -4t-98 -1 q-221 0 -324.5 87t-83.5 241zM442 842l13 100q12 100 114 100h66q119 0 100 -112l-14 -99q-12 -100 -115 -100h-65q-115 0 -99 111z" />
<glyph unicode="&#xc0;" horiz-adv-x="1325" d="M-80 0l594 1337q29 76 113 76h295q39 0 68.5 -25.5t31.5 -62.5l221 -1325h-311l-47 369h-488l-151 -369h-326zM399 1714l136 199l417 -303l-100 -129zM500 616h352l-55 428q-6 45 -11 138h-59q-37 -104 -49 -135z" />
<glyph unicode="&#xc1;" horiz-adv-x="1325" d="M-80 0l594 1337q29 76 113 76h295q39 0 68.5 -25.5t31.5 -62.5l221 -1325h-311l-47 369h-488l-151 -369h-326zM500 616h352l-55 428q-6 45 -11 138h-59q-37 -104 -49 -135zM635 1610l446 309l117 -221l-487 -217z" />
<glyph unicode="&#xc2;" horiz-adv-x="1325" d="M-80 0l594 1337q29 76 113 76h295q39 0 68.5 -25.5t31.5 -62.5l221 -1325h-311l-47 369h-488l-151 -369h-326zM418 1595l305 273h207l260 -285l-92 -106l-269 200h-16l-319 -196zM500 616h352l-55 428q-6 45 -11 138h-59q-37 -104 -49 -135z" />
<glyph unicode="&#xc3;" horiz-adv-x="1325" d="M-80 0l594 1337q29 76 113 76h295q39 0 68.5 -25.5t31.5 -62.5l221 -1325h-311l-47 369h-488l-151 -369h-326zM442 1556q0 143 54.5 216t138.5 69q68 -4 171 -49t138 -51q97 -17 109 94l129 -10q2 -141 -50.5 -214t-138.5 -69q-74 4 -180 51t-135 52q-53 8 -75.5 -17.5 t-31.5 -83.5zM500 616h352l-55 428q-6 45 -11 138h-59q-37 -104 -49 -135z" />
<glyph unicode="&#xc4;" horiz-adv-x="1325" d="M-80 0l594 1337q29 76 113 76h295q39 0 68.5 -25.5t31.5 -62.5l221 -1325h-311l-47 369h-488l-151 -369h-326zM500 616h352l-55 428q-6 45 -11 138h-59q-37 -104 -49 -135zM510 1622l20 129q8 63 74 64h101q68 0 59 -62l-21 -129q-8 -61 -67 -61h-109q-66 0 -57 59z M868 1622l21 129q8 63 72 64h102q68 0 59 -62l-20 -129q-9 -61 -68 -61h-108q-66 0 -58 59z" />
<glyph unicode="&#xc5;" horiz-adv-x="1325" d="M-80 0l594 1337q29 76 113 76h295q39 0 68.5 -25.5t31.5 -62.5l221 -1325h-311l-47 369h-488l-151 -369h-326zM500 616h352l-55 428q-6 45 -11 138h-59q-37 -104 -49 -135zM580 1706q10 94 77.5 157.5t171.5 63.5q106 0 175 -69.5t55 -174.5q-12 -94 -79 -156.5 t-171 -62.5q-109 0 -175.5 70t-53.5 172zM717 1698q-4 -51 22.5 -80t71.5 -29q47 0 77 31t34 80q4 47 -23 74.5t-72 27.5t-75.5 -29.5t-34.5 -74.5z" />
<glyph unicode="&#xc6;" horiz-adv-x="1906" d="M-104 0l753 1149q98 154 225 210t392 56q453 0 665 -16l-39 -230h-497q-57 0 -88 -24.5t-39 -85.5l-31 -217h532l-26 -215h-537l-39 -277q-6 -59 13.5 -82.5t79.5 -23.5h501l-8 -230q-195 -20 -604 -20q-147 0 -222 86t-55 231l11 70h-416l-246 -381h-325zM627 629h291 l63 458q10 80 61 136h-14q-47 -45 -96 -119z" />
<glyph unicode="&#xc7;" horiz-adv-x="1193" d="M111 719q57 410 204.5 564.5t475.5 154.5q236 0 421 -49l-41 -232q-166 10 -393 10q-109 0 -170 -34.5t-103 -136t-69 -302.5q-37 -264 2 -356t191 -92q244 -2 428 18l12 -233q-184 -55 -451 -56q-328 0 -445.5 173.5t-61.5 570.5zM279 -526l43 131q76 -2 131 28.5 t67 90.5q4 25 -15.5 31.5t-101.5 6.5l31 119q162 18 231.5 -10.5t53.5 -132.5q-25 -147 -147.5 -218t-292.5 -46z" />
<glyph unicode="&#xc8;" horiz-adv-x="1171" d="M92 334l113 807q18 131 105 204.5t233 73.5q446 0 651 -22l-39 -230h-528q-59 0 -85 -23.5t-34 -86.5l-31 -213h557l-28 -221h-560l-36 -273q-8 -57 13 -80.5t79 -23.5h522l-8 -232q-180 -20 -613 -20q-172 0 -251.5 91t-59.5 249zM379 1739l135 198l416 -305l-99 -127z " />
<glyph unicode="&#xc9;" horiz-adv-x="1171" d="M92 334l113 807q18 131 105 204.5t233 73.5q446 0 651 -22l-39 -230h-528q-59 0 -85 -23.5t-34 -86.5l-31 -213h557l-28 -221h-560l-36 -273q-8 -57 13 -80.5t79 -23.5h522l-8 -232q-180 -20 -613 -20q-172 0 -251.5 91t-59.5 249zM614 1634l447 310l117 -222l-488 -217z " />
<glyph unicode="&#xca;" horiz-adv-x="1171" d="M92 334l113 807q18 131 105 204.5t233 73.5q446 0 651 -22l-39 -230h-528q-59 0 -85 -23.5t-34 -86.5l-31 -213h557l-28 -221h-560l-36 -273q-8 -57 13 -80.5t79 -23.5h522l-8 -232q-180 -20 -613 -20q-172 0 -251.5 91t-59.5 249zM397 1618l305 272h207l260 -282 l-92 -109l-268 203h-16l-320 -199z" />
<glyph unicode="&#xcb;" horiz-adv-x="1171" d="M92 334l113 807q18 131 105 204.5t233 73.5q446 0 651 -22l-39 -230h-528q-59 0 -85 -23.5t-34 -86.5l-31 -213h557l-28 -221h-560l-36 -273q-8 -57 13 -80.5t79 -23.5h522l-8 -232q-180 -20 -613 -20q-172 0 -251.5 91t-59.5 249zM489 1647l21 129q8 63 74 63h100 q68 0 59 -63l-20 -129q-9 -60 -68 -60h-108q-66 0 -58 60zM848 1647l20 129q8 63 72 63h102q68 0 60 -63l-21 -127q-8 -62 -67 -62h-109q-66 0 -57 60z" />
<glyph unicode="&#xcc;" horiz-adv-x="598" d="M35 1714l135 199l418 -303l-101 -129zM57 0l199 1413h313l-198 -1413h-314z" />
<glyph unicode="&#xcd;" horiz-adv-x="598" d="M57 0l199 1413h313l-198 -1413h-314zM270 1610l449 309l115 -221l-488 -217z" />
<glyph unicode="&#xce;" horiz-adv-x="598" d="M55 1595l303 273h207l260 -285l-92 -106l-268 200h-16l-318 -196zM57 0l199 1413h313l-198 -1413h-314z" />
<glyph unicode="&#xcf;" horiz-adv-x="598" d="M57 0l199 1413h313l-198 -1413h-314zM145 1622l21 129q8 64 74 64h102q37 0 49 -14.5t8 -47.5l-20 -129q-6 -61 -68 -61h-108q-63 0 -58 59zM504 1622l20 129q9 64 72 64h104q66 0 58 -62l-21 -129q-6 -61 -67 -61h-109q-63 0 -57 59z" />
<glyph unicode="&#xd0;" horiz-adv-x="1388" d="M39 668l20 155h115l82 590q266 18 506 19q233 0 362 -66t175.5 -227.5t7.5 -444.5q-33 -229 -83 -368.5t-139.5 -216t-200 -102t-292.5 -25.5q-231 0 -535 18l95 668h-113zM401 229q35 0 98.5 -1t88.5 -1q98 0 156.5 17.5t107.5 70t76.5 148.5t50.5 256q23 154 24 242 t-27 141t-79 69.5t-145 16.5l-215 -2l-52 -363h250l-20 -155h-252z" />
<glyph unicode="&#xd1;" horiz-adv-x="1468" d="M57 0l185 1307q14 106 118 106h172q45 0 70 -23.5t45 -74.5l273 -729q47 -125 73 -230h25q0 121 14 228l113 829h297l-185 -1307q-14 -106 -116 -106h-174q-47 0 -71 22.5t-46 75.5l-281 754q-39 102 -61 213h-21q-4 -125 -16 -221l-117 -844h-297zM518 1556 q0 143 53.5 216t137.5 69q70 -4 172 -49t137 -51q55 -8 78.5 15.5t31.5 78.5l127 -10q2 -141 -50 -214t-138 -69q-74 4 -179.5 51t-133.5 52q-53 8 -77 -18t-32 -83z" />
<glyph unicode="&#xd2;" d="M111 719q57 408 207.5 564.5t476 156.5t450.5 -167t68 -579q-55 -414 -206 -567.5t-474 -153.5q-332 0 -455 164t-67 582zM432 1714l135 199l418 -303l-100 -129zM438 694q-39 -276 2 -372.5t199 -96.5q162 0 233.5 101.5t114.5 392.5q41 281 -1 375t-202 94 q-164 0 -233.5 -99.5t-112.5 -394.5z" />
<glyph unicode="&#xd3;" d="M111 719q57 408 207.5 564.5t476 156.5t450.5 -167t68 -579q-55 -414 -206 -567.5t-474 -153.5q-332 0 -455 164t-67 582zM438 694q-39 -276 2 -372.5t199 -96.5q162 0 233.5 101.5t114.5 392.5q41 281 -1 375t-202 94q-164 0 -233.5 -99.5t-112.5 -394.5zM668 1610 l448 309l115 -221l-486 -217z" />
<glyph unicode="&#xd4;" d="M111 719q57 408 207.5 564.5t476 156.5t450.5 -167t68 -579q-55 -414 -206 -567.5t-474 -153.5q-332 0 -455 164t-67 582zM438 694q-39 -276 2 -372.5t199 -96.5q162 0 233.5 101.5t114.5 392.5q41 281 -1 375t-202 94q-164 0 -233.5 -99.5t-112.5 -394.5zM453 1595 l303 273h207l262 -285l-95 -106l-268 200h-16l-318 -196z" />
<glyph unicode="&#xd5;" d="M111 719q57 408 207.5 564.5t476 156.5t450.5 -167t68 -579q-55 -414 -206 -567.5t-474 -153.5q-332 0 -455 164t-67 582zM438 694q-39 -276 2 -372.5t199 -96.5q162 0 233.5 101.5t114.5 392.5q41 281 -1 375t-202 94q-164 0 -233.5 -99.5t-112.5 -394.5zM475 1556 q2 143 55.5 216t137.5 69q68 -4 171 -49t138 -51q55 -8 78.5 15.5t31.5 78.5l127 -10q2 -141 -50 -214t-138 -69q-74 4 -179.5 51t-133.5 52q-53 8 -77 -18t-32 -83z" />
<glyph unicode="&#xd6;" d="M111 719q57 408 207.5 564.5t476 156.5t450.5 -167t68 -579q-55 -414 -206 -567.5t-474 -153.5q-332 0 -455 164t-67 582zM438 694q-39 -276 2 -372.5t199 -96.5q162 0 233.5 101.5t114.5 392.5q41 281 -1 375t-202 94q-164 0 -233.5 -99.5t-112.5 -394.5zM545 1622 l18 129q8 64 74 64h102q37 0 49.5 -14.5t8.5 -47.5l-21 -129q-6 -61 -65 -61h-111q-63 0 -55 59zM903 1622l19 129q12 64 71 64h105q66 0 57 -62l-20 -129q-6 -61 -66 -61h-111q-63 0 -55 59z" />
<glyph unicode="&#xd7;" horiz-adv-x="1075" d="M53 356l312 244l-236 244l162 164l258 -263l352 279l121 -184l-317 -252l239 -244l-162 -172l-262 270l-344 -272z" />
<glyph unicode="&#xd8;" d="M94 -96l119 194q-164 164 -102 621q57 408 207.5 564.5t476.5 156.5q115 0 204 -19l134 219l217 -112l-131 -221q158 -170 94 -613q-55 -414 -206 -567.5t-474 -153.5q-119 0 -199 17l-123 -201zM438 694q-39 -276 2 -372.5t199 -96.5q162 0 233.5 101.5t114.5 392.5 q41 281 -1 375t-202 94q-164 0 -233.5 -99.5t-112.5 -394.5z" />
<glyph unicode="&#xd9;" horiz-adv-x="1386" d="M125 569l119 844h313l-121 -856q-29 -193 12 -262.5t185 -69.5q147 0 212.5 74t94.5 270l119 844h313l-123 -856q-47 -324 -184 -454t-432 -130q-301 0 -426 139.5t-82 456.5zM428 1714l135 199l418 -303l-100 -129z" />
<glyph unicode="&#xda;" horiz-adv-x="1386" d="M125 569l119 844h313l-121 -856q-29 -193 12 -262.5t185 -69.5q147 0 212.5 74t94.5 270l119 844h313l-123 -856q-47 -324 -184 -454t-432 -130q-301 0 -426 139.5t-82 456.5zM664 1610l448 309l115 -221l-486 -217z" />
<glyph unicode="&#xdb;" horiz-adv-x="1386" d="M125 569l119 844h313l-121 -856q-29 -193 12 -262.5t185 -69.5q147 0 212.5 74t94.5 270l119 844h313l-123 -856q-47 -324 -184 -454t-432 -130q-301 0 -426 139.5t-82 456.5zM449 1595l303 273h206l263 -285l-95 -106l-268 200h-16l-318 -196z" />
<glyph unicode="&#xdc;" horiz-adv-x="1386" d="M125 569l119 844h313l-121 -856q-29 -193 12 -262.5t185 -69.5q147 0 212.5 74t94.5 270l119 844h313l-123 -856q-47 -324 -184 -454t-432 -130q-301 0 -426 139.5t-82 456.5zM539 1622l20 129q8 64 74 64h102q37 0 49.5 -14.5t8.5 -47.5l-21 -129q-6 -61 -65 -61h-111 q-63 0 -57 59zM897 1622l21 129q12 64 71 64h105q66 0 57 -62l-21 -129q-6 -61 -65 -61h-111q-63 0 -57 59z" />
<glyph unicode="&#xdd;" horiz-adv-x="1239" d="M113 1413h313l160 -524q23 -90 26 -182h23q20 94 74 186l307 520h336l-600 -952l-64 -461h-315l67 477zM582 1610l446 309l115 -221l-486 -217z" />
<glyph unicode="&#xde;" horiz-adv-x="1247" d="M57 0l199 1413h313l-32 -237h202q279 0 388.5 -104.5t72.5 -375.5q-37 -264 -150.5 -358t-367.5 -94q-123 0 -274 18l-37 -262h-314zM438 485h211q121 0 170 46.5t70 189.5q18 129 -13.5 172t-144.5 43l-229 -2z" />
<glyph unicode="&#xdf;" horiz-adv-x="1435" d="M-217 -377l47 201h131q80 0 115 27.5t49 107.5l119 848h-176l24 192l180 11l19 131q29 211 150.5 284.5t387.5 73.5q297 0 401.5 -72.5t76.5 -246.5q-23 -141 -166 -254q-14 -12 -55.5 -42t-57.5 -43.5t-34.5 -36t-22.5 -42.5q-8 -43 82 -111q8 -8 14 -12l145 -109 q86 -70 117 -133t19 -155q-23 -150 -118 -207.5t-304 -57.5q-152 0 -340 23l30 205q172 -4 242 -4q98 0 140 16t46 68q4 37 -16 62.5t-88 82.5l-135 92q-141 109 -123 244q6 47 38 91t63.5 71.5t107.5 87.5q74 57 100.5 92t32.5 76q6 49 -27.5 70.5t-150.5 21.5 q-139 0 -193.5 -37t-68.5 -143l-166 -1188q-25 -152 -111 -229.5t-254 -77.5q-80 0 -270 22z" />
<glyph unicode="&#xe0;" horiz-adv-x="1208" d="M76 524q20 139 57 234.5t82 151t116.5 84t138.5 36.5t169 8q109 0 260.5 -18.5t241.5 -42.5l-137 -977h-236l2 182q-156 -201 -414 -207q-190 -6 -256.5 124t-23.5 425zM293 1339l135 201l418 -305l-101 -127zM368.5 271q14.5 -54 88.5 -50q135 2 303 191l57 403h-155 q-147 0 -200.5 -51t-80.5 -244q-27 -195 -12.5 -249z" />
<glyph unicode="&#xe1;" horiz-adv-x="1208" d="M76 524q20 139 57 234.5t82 151t116.5 84t138.5 36.5t169 8q109 0 260.5 -18.5t241.5 -42.5l-137 -977h-236l2 182q-156 -201 -414 -207q-190 -6 -256.5 124t-23.5 425zM368.5 271q14.5 -54 88.5 -50q135 2 303 191l57 403h-155q-147 0 -200.5 -51t-80.5 -244 q-27 -195 -12.5 -249zM530 1237l447 307l115 -219l-486 -217z" />
<glyph unicode="&#xe2;" horiz-adv-x="1208" d="M76 524q20 139 57 234.5t82 151t116.5 84t138.5 36.5t169 8q109 0 260.5 -18.5t241.5 -42.5l-137 -977h-236l2 182q-156 -201 -414 -207q-190 -6 -256.5 124t-23.5 425zM313 1221l303 272h207l262 -285l-92 -106l-270 203h-16l-318 -199zM368.5 271q14.5 -54 88.5 -50 q135 2 303 191l57 403h-155q-147 0 -200.5 -51t-80.5 -244q-27 -195 -12.5 -249z" />
<glyph unicode="&#xe3;" horiz-adv-x="1208" d="M76 524q20 139 57 234.5t82 151t116.5 84t138.5 36.5t169 8q109 0 260.5 -18.5t241.5 -42.5l-137 -977h-236l2 182q-156 -201 -414 -207q-190 -6 -256.5 124t-23.5 425zM338 1182q0 145 53 216.5t137 67.5q68 -4 170.5 -48t139.5 -50q55 -8 78.5 14.5t31.5 79.5l127 -12 q2 -141 -50 -213t-138 -68q-74 4 -179.5 50.5t-134.5 50.5q-53 8 -76.5 -16.5t-31.5 -82.5zM368.5 271q14.5 -54 88.5 -50q135 2 303 191l57 403h-155q-147 0 -200.5 -51t-80.5 -244q-27 -195 -12.5 -249z" />
<glyph unicode="&#xe4;" horiz-adv-x="1208" d="M76 524q20 139 57 234.5t82 151t116.5 84t138.5 36.5t169 8q109 0 260.5 -18.5t241.5 -42.5l-137 -977h-236l2 182q-156 -201 -414 -207q-190 -6 -256.5 124t-23.5 425zM368.5 271q14.5 -54 88.5 -50q135 2 303 191l57 403h-155q-147 0 -200.5 -51t-80.5 -244 q-27 -195 -12.5 -249zM406 1249l18 127q8 66 74 66h102q70 0 57 -64l-20 -129q-7 -61 -66 -61h-110q-63 0 -55 61zM764 1249l18 129q12 63 72 64h104q70 0 58 -64l-21 -129q-6 -61 -65 -61h-111q-66 0 -55 61z" />
<glyph unicode="&#xe5;" horiz-adv-x="1208" d="M76 524q20 139 57 234.5t82 151t116.5 84t138.5 36.5t169 8q109 0 260.5 -18.5t241.5 -42.5l-137 -977h-236l2 182q-156 -201 -414 -207q-190 -6 -256.5 124t-23.5 425zM368.5 271q14.5 -54 88.5 -50q135 2 303 191l57 403h-155q-147 0 -200.5 -51t-80.5 -244 q-27 -195 -12.5 -249zM475 1333q10 92 76.5 156.5t171.5 64.5q109 0 176.5 -69.5t54.5 -173.5q-12 -94 -80 -157.5t-172 -63.5q-109 0 -175 69.5t-52 173.5zM612 1325q-6 -51 22 -79.5t73 -28.5q47 0 76.5 30.5t33.5 79.5q4 45 -23.5 72.5t-72.5 27.5t-75 -28.5t-34 -73.5z " />
<glyph unicode="&#xe6;" horiz-adv-x="1824" d="M76 524q18 139 54 234.5t77 150t107.5 84t128 37.5t157.5 8q233 0 442 -41q111 41 293 41q264 0 359.5 -88t72.5 -260q-23 -143 -118 -204.5t-293 -75.5l-301 -25q2 -100 50 -134t155 -34q194 0 378 23l19 -193q-162 -72 -432 -72q-356 0 -447 222q-158 -215 -422 -222 q-190 -6 -255.5 124t-24.5 425zM371.5 271.5q13.5 -54.5 87.5 -50.5q129 0 286 178q0 37 9 127q25 184 77 287l-172 2q-147 0 -197 -50t-77 -244.5t-13.5 -249zM1071 565l238 23q82 6 118.5 32.5t45.5 98.5q8 68 -25 84t-133 14q-119 0 -168 -50t-76 -202z" />
<glyph unicode="&#xe7;" horiz-adv-x="1038" d="M68 518q41 285 163.5 402.5t393.5 117.5q240 0 387 -65l-41 -185q-238 4 -305 5q-141 0 -202 -58.5t-81 -230.5q-23 -178 15 -230.5t173 -52.5q191 1 320 19l20 -199q-156 -66 -393 -66q-274 0 -382.5 127t-67.5 416zM186 -510l43 131q76 -2 131.5 29t67.5 90 q4 25 -15.5 32t-101.5 7l31 119q162 18 231.5 -10.5t53.5 -133.5q-25 -147 -148 -218t-293 -46z" />
<glyph unicode="&#xe8;" horiz-adv-x="1146" d="M70 526q37 295 168 403.5t417 108.5q266 0 361.5 -88t70.5 -260q-20 -143 -116.5 -204.5t-296.5 -75.5l-299 -23q2 -100 50 -135t153 -35q199 0 389 23l20 -193q-170 -72 -444 -72q-289 0 -397.5 135.5t-75.5 415.5zM279 1339l135 201l417 -305l-100 -127zM393 565 l236 23q82 6 119.5 32.5t46.5 98.5q6 68 -26 84t-134 14q-119 0 -167 -50t-75 -202z" />
<glyph unicode="&#xe9;" horiz-adv-x="1146" d="M70 526q37 295 168 403.5t417 108.5q266 0 361.5 -88t70.5 -260q-20 -143 -116.5 -204.5t-296.5 -75.5l-299 -23q2 -100 50 -135t153 -35q199 0 389 23l20 -193q-170 -72 -444 -72q-289 0 -397.5 135.5t-75.5 415.5zM393 565l236 23q82 6 119.5 32.5t46.5 98.5 q6 68 -26 84t-134 14q-119 0 -167 -50t-75 -202zM514 1237l449 307l114 -219l-487 -217z" />
<glyph unicode="&#xea;" horiz-adv-x="1146" d="M70 526q37 295 168 403.5t417 108.5q266 0 361.5 -88t70.5 -260q-20 -143 -116.5 -204.5t-296.5 -75.5l-299 -23q2 -100 50 -135t153 -35q199 0 389 23l20 -193q-170 -72 -444 -72q-289 0 -397.5 135.5t-75.5 415.5zM299 1221l303 272h207l260 -285l-92 -106l-268 203 h-17l-317 -199zM393 565l236 23q82 6 119.5 32.5t46.5 98.5q6 68 -26 84t-134 14q-119 0 -167 -50t-75 -202z" />
<glyph unicode="&#xeb;" horiz-adv-x="1146" d="M70 526q37 295 168 403.5t417 108.5q266 0 361.5 -88t70.5 -260q-20 -143 -116.5 -204.5t-296.5 -75.5l-299 -23q2 -100 50 -135t153 -35q199 0 389 23l20 -193q-170 -72 -444 -72q-289 0 -397.5 135.5t-75.5 415.5zM389 1249l21 127q8 66 73 66h103q66 0 57 -64 l-20 -129q-7 -61 -68 -61h-109q-63 0 -57 61zM393 565l236 23q82 6 119.5 32.5t46.5 98.5q6 68 -26 84t-134 14q-119 0 -167 -50t-75 -202zM748 1249l20 129q8 63 72 64h104q66 0 57 -64l-20 -129q-7 -61 -68 -61h-108q-63 0 -57 61z" />
<glyph unicode="&#xec;" horiz-adv-x="565" d="M-39 1339l135 201l418 -305l-100 -127zM47 0l141 1010h304l-142 -1010h-303z" />
<glyph unicode="&#xed;" horiz-adv-x="565" d="M47 0l141 1010h304l-142 -1010h-303zM197 1237l448 307l115 -219l-486 -217z" />
<glyph unicode="&#xee;" horiz-adv-x="565" d="M-18 1221l303 272h207l262 -285l-95 -106l-268 203h-16l-318 -199zM47 0l141 1010h304l-142 -1010h-303z" />
<glyph unicode="&#xef;" horiz-adv-x="565" d="M47 0l141 1010h304l-142 -1010h-303zM72 1249l20 127q8 66 74 66h102q66 0 58 -64l-21 -129q-6 -61 -65 -61h-111q-63 0 -57 61zM430 1249l21 129q12 64 71 64h105q66 0 57 -64l-20 -129q-6 -61 -66 -61h-111q-63 0 -57 61z" />
<glyph unicode="&#xf0;" horiz-adv-x="1179" d="M61 455q31 236 146 352.5t328 116.5q160 0 256 -76q-2 227 -105.5 309t-337.5 72l39 201q268 12 432 -72l191 166l145 -172l-166 -142q147 -209 96 -635q-41 -317 -176 -459.5t-411 -142.5q-500 0 -437 482zM376.5 444.5q-20.5 -137.5 10.5 -190.5t129 -53q119 0 173 87 t85 314l6 60q-76 43 -166 43q-113 0 -165 -61.5t-72.5 -199z" />
<glyph unicode="&#xf1;" horiz-adv-x="1220" d="M39 0l141 1010h238v-201q236 229 461 229q129 0 198.5 -74.5t48.5 -211.5l-106 -752h-301l92 662q10 72 -4 97t-64 23q-115 -2 -315 -159l-86 -623h-303zM346 1182q0 145 53.5 216.5t137.5 67.5q68 -4 170 -48t139 -50q55 -8 78.5 14.5t31.5 79.5l127 -12 q2 -141 -49 -213t-137 -68q-76 4 -181.5 50.5t-133.5 50.5q-53 8 -77 -16.5t-32 -82.5z" />
<glyph unicode="&#xf2;" horiz-adv-x="1200" d="M68 516q41 287 169.5 404.5t407.5 117.5q281 0 391.5 -127t69.5 -419q-39 -285 -169 -402t-405 -117q-279 0 -392 127t-72 416zM283 1339l135 201l418 -305l-101 -127zM383 492q-25 -176 6 -233.5t150 -57.5q123 0 176 64.5t80 250.5q27 176 -5 235.5t-147 59.5 q-125 0 -179 -63.5t-81 -255.5z" />
<glyph unicode="&#xf3;" horiz-adv-x="1200" d="M68 516q41 287 169.5 404.5t407.5 117.5q281 0 391.5 -127t69.5 -419q-39 -285 -169 -402t-405 -117q-279 0 -392 127t-72 416zM383 492q-25 -176 6 -233.5t150 -57.5q123 0 176 64.5t80 250.5q27 176 -5 235.5t-147 59.5q-125 0 -179 -63.5t-81 -255.5zM518 1237 l449 307l114 -219l-487 -217z" />
<glyph unicode="&#xf4;" horiz-adv-x="1200" d="M68 516q41 287 169.5 404.5t407.5 117.5q281 0 391.5 -127t69.5 -419q-39 -285 -169 -402t-405 -117q-279 0 -392 127t-72 416zM303 1221l303 272h207l260 -285l-92 -106l-268 203h-17l-317 -199zM383 492q-25 -176 6 -233.5t150 -57.5q123 0 176 64.5t80 250.5 q27 176 -5 235.5t-147 59.5q-125 0 -179 -63.5t-81 -255.5z" />
<glyph unicode="&#xf5;" horiz-adv-x="1200" d="M68 516q41 287 169.5 404.5t407.5 117.5q281 0 391.5 -127t69.5 -419q-39 -285 -169 -402t-405 -117q-279 0 -392 127t-72 416zM326 1182q0 143 54 215.5t138 68.5q68 -4 170.5 -48t138.5 -50q53 -8 78 15.5t33 78.5l127 -12q2 -141 -50 -213t-138 -68q-76 4 -181.5 50.5 t-134.5 50.5q-53 8 -75.5 -17t-30.5 -82zM383 492q-25 -176 6 -233.5t150 -57.5q123 0 176 64.5t80 250.5q27 176 -5 235.5t-147 59.5q-125 0 -179 -63.5t-81 -255.5z" />
<glyph unicode="&#xf6;" horiz-adv-x="1200" d="M68 516q41 287 169.5 404.5t407.5 117.5q281 0 391.5 -127t69.5 -419q-39 -285 -169 -402t-405 -117q-279 0 -392 127t-72 416zM383 492q-25 -176 6 -233.5t150 -57.5q123 0 176 64.5t80 250.5q27 176 -5 235.5t-147 59.5q-125 0 -179 -63.5t-81 -255.5zM393 1249l21 127 q7 66 73 66h103q66 0 57 -64l-20 -129q-6 -61 -68 -61h-108q-63 0 -58 61zM752 1249l20 129q9 64 72 64h104q66 0 58 -64l-21 -129q-6 -61 -67 -61h-109q-63 0 -57 61z" />
<glyph unicode="&#xf7;" horiz-adv-x="1120" d="M76 489l33 224h938l-33 -224h-938zM348 186l8 64q8 61 38 85.5t91 24.5h66q66 0 90.5 -26.5t15.5 -89.5l-10 -68q-8 -61 -35.5 -84.5t-89.5 -23.5h-69q-66 0 -90.5 27.5t-14.5 90.5zM457 954l10 66q8 61 37 85.5t92 24.5h66q66 0 90 -26.5t16 -89.5l-8 -66 q-10 -61 -38 -85.5t-89 -24.5h-70q-66 0 -90 26.5t-16 89.5z" />
<glyph unicode="&#xf8;" horiz-adv-x="1200" d="M68 516q41 287 170 404.5t407 117.5q72 0 148 -10l116 191l195 -107l-105 -166q154 -125 107 -454q-39 -285 -169 -402t-405 -117q-74 0 -122 9l-119 -191l-193 105l97 155q-174 119 -127 465zM383 492q-25 -176 6 -233.5t150 -57.5q123 0 176 64.5t80 250.5 q27 176 -5 235.5t-147 59.5q-125 0 -179 -63.5t-81 -255.5z" />
<glyph unicode="&#xf9;" horiz-adv-x="1202" d="M70 258l104 752h303l-96 -670q-8 -61 9.5 -87t66.5 -26q66 0 128 35t167 123l86 625h299l-140 -1010h-233v190q-225 -217 -436 -217q-145 0 -212 76t-46 209zM289 1356l135 198l418 -303l-101 -129z" />
<glyph unicode="&#xfa;" horiz-adv-x="1202" d="M70 258l104 752h303l-96 -670q-8 -61 9.5 -87t66.5 -26q66 0 128 35t167 123l86 625h299l-140 -1010h-233v190q-225 -217 -436 -217q-145 0 -212 76t-46 209zM524 1251l449 310l114 -222l-485 -217z" />
<glyph unicode="&#xfb;" horiz-adv-x="1202" d="M70 258l104 752h303l-96 -670q-8 -61 9.5 -87t66.5 -26q66 0 128 35t167 123l86 625h299l-140 -1010h-233v190q-225 -217 -436 -217q-145 0 -212 76t-46 209zM309 1237l303 272h207l262 -284l-94 -107l-268 201h-17l-317 -199z" />
<glyph unicode="&#xfc;" horiz-adv-x="1202" d="M70 258l104 752h303l-96 -670q-8 -61 9.5 -87t66.5 -26q66 0 128 35t167 123l86 625h299l-140 -1010h-233v190q-225 -217 -436 -217q-145 0 -212 76t-46 209zM399 1264l21 129q8 63 74 63h102q66 0 57 -61l-20 -131q-7 -60 -66 -60h-110q-63 0 -58 60zM758 1264l20 129 q12 63 72 63h104q66 0 58 -61l-21 -129q-6 -62 -65 -62h-111q-63 0 -57 60z" />
<glyph unicode="&#xfd;" horiz-adv-x="1183" d="M72 1010h325l97 -772q4 -33 34 -33h82l8 18q162 336 236 787h320q-43 -233 -128 -476t-180 -417q-154 -279 -329 -398.5t-416 -138.5l-37 187q141 37 230 83t171 150h-120q-49 0 -83 28.5t-44 73.5zM481 1237l447 307l114 -219l-485 -217z" />
<glyph unicode="&#xfe;" horiz-adv-x="1212" d="M-14 -389l254 1823h303l-39 -283q-22 -162 -49 -258l4 -14q160 156 370 155q180 0 251 -125t32 -424q-20 -156 -61 -260t-104.5 -157.5t-132.5 -74t-163 -20.5q-164 0 -313 25q-8 -98 -19 -148l-32 -239h-301zM369 188l157 -2q152 0 201 52.5t76 250.5q25 182 10.5 242 t-88.5 60q-82 0 -150.5 -48.5t-150.5 -144.5z" />
<glyph unicode="&#xff;" horiz-adv-x="1183" d="M72 1010h325l97 -772q4 -33 34 -33h82l8 18q162 336 236 787h320q-43 -233 -128 -476t-180 -417q-154 -279 -329 -398.5t-416 -138.5l-37 187q141 37 230 83t171 150h-120q-49 0 -83 28.5t-44 73.5zM356 1249l21 127q8 66 74 66h100q70 0 57 -64l-18 -129q-9 -61 -68 -61 h-108q-66 0 -58 61zM715 1249l20 129q8 63 70 64h104q70 0 58 -64l-19 -129q-8 -61 -67 -61h-111q-66 0 -55 61z" />
<glyph unicode="&#x152;" horiz-adv-x="1943" d="M94 360.5q-8 143.5 17 358.5q59 416 207.5 568.5t476.5 152.5q205 0 348 -58q70 37 168 37q449 0 653 -22l-39 -230h-522q-106 0 -119 -110l-31 -215h551l-26 -215h-553l-39 -283q-8 -53 11.5 -75.5t72.5 -22.5h524l-6 -232q-184 -20 -619 -20q-117 0 -198 49 q-154 -70 -348 -70q-174 0 -282 36t-173.5 122t-73.5 229.5zM437 322.5q38 -97.5 188 -97.5q141 0 237 29q0 16 4 57l115 830l6 30q-82 16 -192 17q-164 0 -241 -104.5t-116 -389.5q-39 -274 -1 -371.5z" />
<glyph unicode="&#x153;" horiz-adv-x="1851" d="M68 516q41 287 169 404.5t402 117.5q221 0 340 -98q131 98 385 98q264 0 359.5 -88t70.5 -260q-20 -143 -115.5 -204.5t-294.5 -75.5l-297 -23q2 -102 49.5 -136t151.5 -34q195 0 379 23l19 -193q-166 -72 -435 -72q-229 0 -350 109q-137 -111 -375 -111 q-276 0 -387.5 127t-70.5 416zM383 492q-25 -176 4.5 -233.5t144.5 -57.5q119 0 170.5 64.5t77.5 250.5q27 176 -2.5 235.5t-142.5 59.5q-121 0 -173 -63.5t-79 -255.5zM1106 565l231 23q82 6 119 32.5t45 98.5q6 68 -25.5 84t-132.5 14q-117 0 -163.5 -50t-73.5 -202z" />
<glyph unicode="&#x178;" horiz-adv-x="1239" d="M113 1413h313l160 -524q23 -90 26 -182h23q20 94 74 186l307 520h336l-600 -952l-64 -461h-315l67 477zM457 1622l20 129q8 63 74 64h100q70 0 58 -62l-19 -129q-8 -61 -67 -61h-111q-63 0 -55 59zM815 1622l21 129q8 63 69 64h105q70 0 57 -62l-18 -129q-9 -61 -68 -61 h-111q-63 0 -55 59z" />
<glyph unicode="&#x2c6;" horiz-adv-x="917" d="M176 1214l303 273h209l260 -285l-92 -106l-268 200h-17l-319 -196z" />
<glyph unicode="&#x2dc;" horiz-adv-x="899" d="M193 1174q2 143 55 215.5t137 68.5q68 -4 170 -48t139 -50q55 -10 79 13.5t32 80.5l127 -12q2 -141 -50.5 -214t-138.5 -69q-74 4 -178 51t-135 52q-53 8 -76.5 -17t-31.5 -84z" />
<glyph unicode="&#x2000;" horiz-adv-x="972" />
<glyph unicode="&#x2001;" horiz-adv-x="1944" />
<glyph unicode="&#x2002;" horiz-adv-x="972" />
<glyph unicode="&#x2003;" horiz-adv-x="1944" />
<glyph unicode="&#x2004;" horiz-adv-x="648" />
<glyph unicode="&#x2005;" horiz-adv-x="486" />
<glyph unicode="&#x2006;" horiz-adv-x="324" />
<glyph unicode="&#x2007;" horiz-adv-x="324" />
<glyph unicode="&#x2008;" horiz-adv-x="243" />
<glyph unicode="&#x2009;" horiz-adv-x="388" />
<glyph unicode="&#x200a;" horiz-adv-x="108" />
<glyph unicode="&#x2010;" horiz-adv-x="847" d="M94 422l29 199h608l-26 -199h-611z" />
<glyph unicode="&#x2011;" horiz-adv-x="847" d="M94 422l29 199h608l-26 -199h-611z" />
<glyph unicode="&#x2012;" horiz-adv-x="847" d="M94 422l29 199h608l-26 -199h-611z" />
<glyph unicode="&#x2013;" horiz-adv-x="1148" d="M94 422l29 199h909l-26 -199h-912z" />
<glyph unicode="&#x2014;" horiz-adv-x="1759" d="M94 422l29 199h1517l-28 -199h-1518z" />
<glyph unicode="&#x2018;" horiz-adv-x="458" d="M154 1014l14 119q25 174 143 340l127 -46q-43 -111 -73 -237q45 2 63 -20.5t14 -65.5l-14 -98q-8 -53 -35 -74t-86 -21h-63q-109 0 -90 103z" />
<glyph unicode="&#x2019;" horiz-adv-x="454" d="M176 1257l14 99q10 55 36 74.5t85 19.5h64q57 0 78.5 -23.5t13.5 -78.5l-16 -119q-25 -174 -144 -338l-127 43q51 131 76 240q-90 -6 -80 83z" />
<glyph unicode="&#x201a;" horiz-adv-x="479" d="M29 78l14 98q10 53 36 72.5t85 19.5h63q57 0 79 -23.5t13 -76.5l-16 -121q-25 -174 -143 -338l-127 43q51 131 76 240q-47 -2 -65.5 19.5t-14.5 66.5z" />
<glyph unicode="&#x201c;" horiz-adv-x="825" d="M154 1014l14 119q25 174 143 340l127 -46q-43 -111 -73 -237q45 2 63 -20.5t14 -65.5l-14 -98q-8 -53 -35 -74t-86 -21h-63q-109 0 -90 103zM520 1014l17 119q25 174 143 340l127 -46q-49 -123 -76 -237q47 2 65.5 -20.5t14.5 -65.5l-14 -98q-10 -53 -37 -74t-84 -21h-64 q-57 0 -78.5 25t-13.5 78z" />
<glyph unicode="&#x201d;" horiz-adv-x="823" d="M176 1257l14 99q10 55 36 74.5t85 19.5h64q57 0 78.5 -23.5t13.5 -78.5l-16 -119q-25 -174 -144 -338l-127 43q51 131 76 240q-90 -6 -80 83zM545 1257l14 99q8 55 35 74.5t84 19.5h65q55 0 77 -23.5t14 -78.5l-17 -119q-23 -174 -143 -338l-125 43q45 119 74 240 q-88 -6 -78 83z" />
<glyph unicode="&#x201e;" horiz-adv-x="847" d="M29 76l14 98q10 55 36 74.5t85 19.5h63q57 0 79 -23.5t13 -78.5l-16 -119q-25 -174 -143 -340l-127 45q49 123 76 238q-47 -2 -65.5 20.5t-14.5 65.5zM397 76l15 98q8 55 34.5 74.5t85.5 19.5h64q55 0 76.5 -23.5t13.5 -78.5l-16 -119q-23 -174 -142 -340l-127 45 q43 111 74 238q-45 -2 -63.5 20.5t-14.5 65.5z" />
<glyph unicode="&#x2022;" horiz-adv-x="757" d="M141 545l4 28q16 119 66.5 162t173.5 43h35q115 0 158 -49t26 -166l-4 -31q-18 -125 -66.5 -170t-164.5 -45h-39q-121 0 -163 51.5t-26 176.5z" />
<glyph unicode="&#x2026;" horiz-adv-x="1820" d="M6 113l14 98q15 98 117 98h76q115 0 100 -110l-14 -99q-12 -100 -115 -100h-75q-117 0 -103 113zM670 113l14 98q13 98 117 98h73q119 0 101 -110l-12 -99q-12 -100 -115 -100h-76q-117 0 -102 113zM1333 113l15 98q12 98 114 98h76q117 0 100 -110l-12 -99 q-14 -100 -117 -100h-75q-115 0 -101 113z" />
<glyph unicode="&#x202f;" horiz-adv-x="388" />
<glyph unicode="&#x2039;" horiz-adv-x="626" d="M57 487l4 66l361 399l143 -106l-250 -332l181 -346l-154 -102z" />
<glyph unicode="&#x203a;" horiz-adv-x="626" d="M35 170l250 334l-179 346l154 102l285 -422l-6 -65l-361 -399z" />
<glyph unicode="&#x205f;" horiz-adv-x="486" />
<glyph unicode="&#x20ac;" horiz-adv-x="1300" d="M61 483l29 193h889l-45 -193h-389q4 -119 52 -178t155 -67q184 -16 387 22l12 -229q-162 -55 -387 -56q-272 0 -404.5 125t-138.5 383h-160zM100 756l29 192h154q70 252 223 371t430 119q195 0 356 -49l-41 -226q-168 23 -340 11q-119 -8 -187.5 -60.5t-109.5 -165.5h459 l-47 -192h-926z" />
<glyph unicode="&#x2122;" horiz-adv-x="1998" d="M203 1262l22 163h697l-21 -163h-246l-86 -615h-209l86 615h-243zM889 647l129 711q6 37 22.5 52t51.5 15h194q70 0 74 -71l47 -344q4 -39 4 -121h19q14 61 32 119l142 358q21 59 82 59h200q35 0 54.5 -22.5t15.5 -59.5l-70 -696h-190l59 621h-20l-179 -447 q-20 -59 -81 -59h-125q-33 0 -54.5 19.5t-23.5 49.5l-58 437h-22l-111 -621h-192z" />
<glyph unicode="&#x25fc;" horiz-adv-x="1013" d="M0 0v1014h1014v-1014h-1014z" />
<glyph unicode="&#xfb01;" horiz-adv-x="1355" d="M-221 -377l47 201h133q80 0 115 27.5t47 107.5l123 848h-174l24 192l178 11l21 141q25 160 107.5 242t250.5 82q170 0 281 -21l-35 -201h-145q-78 0 -116 -34.5t-50 -118.5l-13 -90h713l-143 -1010h-301l112 807h-409l-131 -899q-43 -307 -355 -307q-88 0 -280 22z M1016 1272l16 108q8 84 90 84h133q45 0 68 -25.5t14 -68.5l-14 -110q-6 -45 -25.5 -63.5t-64.5 -18.5h-135q-94 0 -82 94z" />
<glyph unicode="&#xfb02;" horiz-adv-x="1460" d="M-217 -377l47 201h131q80 0 115 27.5t47 107.5l119 848h-174l24 192l178 11l21 141q23 160 106.5 243t251.5 81q502 0 707 -37l-152 -1131q-8 -53 11.5 -75.5t72.5 -22.5h84l14 -197q-72 -37 -229 -37q-139 0 -209.5 72t-54.5 195l143 1015h-286q-78 0 -116 -35.5 t-50 -121.5l-13 -90h258l-26 -203h-260l-125 -899q-43 -307 -357 -307q-88 0 -278 22z" />
</font>
</defs>
</svg>
