<svg xmlns="http://www.w3.org/2000/svg" version="1.1" width="470" height="92">
<path d="M 2.878906 13.319336 L 2.878906 6.412109 L 6.729980 6.412109 L 6.729980 7.335938 L 3.738281 7.335938 L 3.738281 13.319336 Z " fill="rgb(0, 0, 0)" fill-opacity="1.000000" />
<path d="M 2.878906 26.319336 L 2.878906 12.300781 L 3.738281 12.300781 L 3.738281 26.319336 Z " fill="rgb(0, 0, 0)" fill-opacity="1.000000" />
<path d="M 2.878906 33.335938 L 2.878906 25.300781 L 3.738281 25.300781 L 3.738281 32.412109 L 6.729980 32.412109 L 6.729980 33.335938 Z " fill="rgb(0, 0, 0)" fill-opacity="1.000000" />
<path d="M 261.878906 52.319336 L 261.878906 38.300781 L 262.738281 38.300781 L 262.738281 52.319336 Z " fill="rgb(0, 0, 0)" fill-opacity="1.000000" />
<path d="M 261.878906 65.319336 L 261.878906 51.300781 L 262.738281 51.300781 L 262.738281 65.319336 Z " fill="rgb(0, 0, 0)" fill-opacity="1.000000" />
<path d="M 261.878906 72.335938 L 261.878906 64.300781 L 262.738281 64.300781 L 262.738281 71.412109 L 265.729980 71.412109 L 265.729980 72.335938 Z " fill="rgb(0, 0, 0)" fill-opacity="1.000000" />
<path d="M 289.878906 85.335938 L 289.878906 77.300781 L 290.738281 77.300781 L 290.738281 84.412109 L 293.729980 84.412109 L 293.729980 85.335938 Z " fill="rgb(0, 0, 0)" fill-opacity="1.000000" />
<path d="M 293.892578 85.335938 L 293.892578 84.412109 L 300.729980 84.412109 L 300.729980 85.335938 Z " fill="rgb(0, 0, 0)" fill-opacity="1.000000" />
<path d="M 300.892578 85.335938 L 300.892578 84.412109 L 307.729980 84.412109 L 307.729980 85.335938 Z " fill="rgb(0, 0, 0)" fill-opacity="1.000000" />
<path d="M 307.892578 85.335938 L 307.892578 84.412109 L 314.729980 84.412109 L 314.729980 85.335938 Z " fill="rgb(0, 0, 0)" fill-opacity="1.000000" />
<path d="M 314.892578 85.335938 L 314.892578 84.412109 L 321.729980 84.412109 L 321.729980 85.335938 Z " fill="rgb(0, 0, 0)" fill-opacity="1.000000" />
<path d="M 321.892578 85.335938 L 321.892578 84.412109 L 328.729980 84.412109 L 328.729980 85.335938 Z " fill="rgb(0, 0, 0)" fill-opacity="1.000000" />
<path d="M 328.892578 85.335938 L 328.892578 84.412109 L 335.729980 84.412109 L 335.729980 85.335938 Z " fill="rgb(0, 0, 0)" fill-opacity="1.000000" />
<path d="M 335.892578 85.335938 L 335.892578 84.412109 L 342.729980 84.412109 L 342.729980 85.335938 Z " fill="rgb(0, 0, 0)" fill-opacity="1.000000" />
<path d="M 342.892578 85.335938 L 342.892578 84.412109 L 349.729980 84.412109 L 349.729980 85.335938 Z " fill="rgb(0, 0, 0)" fill-opacity="1.000000" />
<path d="M 349.892578 85.335938 L 349.892578 84.412109 L 356.729980 84.412109 L 356.729980 85.335938 Z " fill="rgb(0, 0, 0)" fill-opacity="1.000000" />
<path d="M 356.892578 85.335938 L 356.892578 84.412109 L 359.878906 84.412109 L 359.878906 77.300781 L 360.738281 77.300781 L 360.738281 85.335938 Z " fill="rgb(0, 0, 0)" fill-opacity="1.000000" />
<path d="M 394.878906 85.335938 L 394.878906 77.300781 L 395.738281 77.300781 L 395.738281 84.412109 L 398.729980 84.412109 L 398.729980 85.335938 Z " fill="rgb(0, 0, 0)" fill-opacity="1.000000" />
<path d="M 398.892578 85.335938 L 398.892578 84.412109 L 405.729980 84.412109 L 405.729980 85.335938 Z " fill="rgb(0, 0, 0)" fill-opacity="1.000000" />
<path d="M 405.892578 85.335938 L 405.892578 84.412109 L 412.729980 84.412109 L 412.729980 85.335938 Z " fill="rgb(0, 0, 0)" fill-opacity="1.000000" />
<path d="M 412.892578 85.335938 L 412.892578 84.412109 L 419.729980 84.412109 L 419.729980 85.335938 Z " fill="rgb(0, 0, 0)" fill-opacity="1.000000" />
<path d="M 419.892578 85.335938 L 419.892578 84.412109 L 426.729980 84.412109 L 426.729980 85.335938 Z " fill="rgb(0, 0, 0)" fill-opacity="1.000000" />
<path d="M 426.892578 85.335938 L 426.892578 84.412109 L 433.729980 84.412109 L 433.729980 85.335938 Z " fill="rgb(0, 0, 0)" fill-opacity="1.000000" />
<path d="M 433.892578 85.335938 L 433.892578 84.412109 L 440.729980 84.412109 L 440.729980 85.335938 Z " fill="rgb(0, 0, 0)" fill-opacity="1.000000" />
<path d="M 440.892578 85.335938 L 440.892578 84.412109 L 447.729980 84.412109 L 447.729980 85.335938 Z " fill="rgb(0, 0, 0)" fill-opacity="1.000000" />
<path d="M 447.892578 85.335938 L 447.892578 84.412109 L 454.729980 84.412109 L 454.729980 85.335938 Z " fill="rgb(0, 0, 0)" fill-opacity="1.000000" />
<path d="M 454.892578 85.335938 L 454.892578 84.412109 L 461.729980 84.412109 L 461.729980 85.335938 Z " fill="rgb(0, 0, 0)" fill-opacity="1.000000" />
<path d="M 461.892578 85.335938 L 461.892578 84.412109 L 464.878906 84.412109 L 464.878906 77.300781 L 465.738281 77.300781 L 465.738281 85.335938 Z " fill="rgb(0, 0, 0)" fill-opacity="1.000000" />
<path d="M 265.892578 72.335938 L 265.892578 71.412109 L 272.729980 71.412109 L 272.729980 72.335938 Z " fill="rgb(0, 0, 0)" fill-opacity="1.000000" />
<path d="M 272.892578 72.335938 L 272.892578 71.412109 L 279.729980 71.412109 L 279.729980 72.335938 Z " fill="rgb(0, 0, 0)" fill-opacity="1.000000" />
<path d="M 280.032227 75.418945 L 280.032227 68.866211 L 286.590332 72.142578 Z " fill="rgb(0, 0, 0)" fill-opacity="1.000000" />
<path d="M 289.878906 78.319336 L 289.878906 64.300781 L 290.738281 64.300781 L 290.738281 78.319336 Z " fill="rgb(0, 0, 0)" fill-opacity="1.000000" />
<path d="M 305.082031 71.213379 Q 305.500977 71.320801 305.796387 71.618896 Q 306.091797 71.916992 306.532227 72.808594 L 307.622559 75.000000 L 306.457031 75.000000 L 305.500977 72.975098 Q 305.087402 72.110352 304.757080 71.860596 Q 304.426758 71.610840 303.895020 71.610840 L 302.858398 71.610840 L 302.858398 75.000000 L 301.768066 75.000000 L 301.768066 66.980957 L 304.002441 66.980957 Q 305.323730 66.980957 306.027344 67.577148 Q 306.730957 68.173340 306.730957 69.301270 Q 306.730957 70.096191 306.298584 70.598389 Q 305.866211 71.100586 305.082031 71.213379 Z M 302.858398 67.872559 L 302.858398 70.719238 L 304.045410 70.719238 Q 304.824219 70.719238 305.205566 70.370117 Q 305.586914 70.020996 305.586914 69.301270 Q 305.586914 68.608398 305.181396 68.240479 Q 304.775879 67.872559 304.002441 67.872559 Z " fill="rgb(0, 0, 0)" fill-opacity="1.000000" />
<path d="M 314.015625 71.498047 L 314.015625 71.981445 L 309.734863 71.981445 L 309.734863 72.013672 Q 309.691895 73.243652 310.204834 73.780762 Q 310.717773 74.317871 311.652344 74.317871 Q 312.125000 74.317871 312.640625 74.167480 Q 313.156250 74.017090 313.741699 73.710938 L 313.741699 74.693848 Q 313.177734 74.924805 312.654053 75.040283 Q 312.130371 75.155762 311.641602 75.155762 Q 310.239746 75.155762 309.450195 74.315186 Q 308.660645 73.474609 308.660645 71.997559 Q 308.660645 70.558105 309.434082 69.698730 Q 310.207520 68.839355 311.496582 68.839355 Q 312.645996 68.839355 313.309326 69.618164 Q 313.972656 70.396973 314.015625 71.498047 Z M 313.027344 71.208008 Q 312.962891 70.584961 312.573486 70.131104 Q 312.184082 69.677246 311.453613 69.677246 Q 310.739258 69.677246 310.277344 70.149902 Q 309.815430 70.622559 309.772461 71.213379 Z " fill="rgb(0, 0, 0)" fill-opacity="1.000000" />
<path d="M 317.014160 74.242676 L 317.014160 77.288086 L 316.020508 77.288086 L 316.020508 68.984375 L 317.014160 68.984375 L 317.014160 69.752441 Q 317.261230 69.306641 317.672119 69.072998 Q 318.083008 68.839355 318.620117 68.839355 Q 319.710449 68.839355 320.330811 69.682617 Q 320.951172 70.525879 320.951172 72.019043 Q 320.951172 73.485352 320.328125 74.320557 Q 319.705078 75.155762 318.620117 75.155762 Q 318.072266 75.155762 317.661377 74.922119 Q 317.250488 74.688477 317.014160 74.242676 Z M 319.914551 71.997559 Q 319.914551 70.848145 319.552002 70.262695 Q 319.189453 69.677246 318.475098 69.677246 Q 317.755371 69.677246 317.384766 70.265381 Q 317.014160 70.853516 317.014160 71.997559 Q 317.014160 73.136230 317.384766 73.727051 Q 317.755371 74.317871 318.475098 74.317871 Q 319.189453 74.317871 319.552002 73.732422 Q 319.914551 73.146973 319.914551 71.997559 Z " fill="rgb(0, 0, 0)" fill-opacity="1.000000" />
<path d="M 325.861816 72.824707 Q 325.861816 73.490723 326.106201 73.829102 Q 326.350586 74.167480 326.828613 74.167480 L 327.983398 74.167480 L 327.983398 75.000000 L 326.731934 75.000000 Q 325.845703 75.000000 325.359619 74.433350 Q 324.873535 73.866699 324.873535 72.824707 L 324.873535 67.383789 L 323.289062 67.383789 L 323.289062 66.610352 L 325.861816 66.610352 Z " fill="rgb(0, 0, 0)" fill-opacity="1.000000" />
<path d="M 330.697266 69.005859 L 333.227051 69.005859 L 333.227051 74.231934 L 335.187500 74.231934 L 335.187500 75.000000 L 330.278320 75.000000 L 330.278320 74.231934 L 332.238770 74.231934 L 332.238770 69.773926 L 330.697266 69.773926 Z M 332.238770 66.669434 L 333.227051 66.669434 L 333.227051 67.915527 L 332.238770 67.915527 Z " fill="rgb(0, 0, 0)" fill-opacity="1.000000" />
<path d="M 341.698730 74.693848 Q 341.301270 74.924805 340.879639 75.040283 Q 340.458008 75.155762 340.017578 75.155762 Q 338.621094 75.155762 337.834229 74.317871 Q 337.047363 73.479980 337.047363 71.997559 Q 337.047363 70.515137 337.834229 69.677246 Q 338.621094 68.839355 340.017578 68.839355 Q 340.452637 68.839355 340.866211 68.952148 Q 341.279785 69.064941 341.698730 69.301270 L 341.698730 70.337891 Q 341.306641 69.988770 340.911865 69.833008 Q 340.517090 69.677246 340.017578 69.677246 Q 339.088379 69.677246 338.588867 70.278809 Q 338.089355 70.880371 338.089355 71.997559 Q 338.089355 73.109375 338.591553 73.713623 Q 339.093750 74.317871 340.017578 74.317871 Q 340.533203 74.317871 340.941406 74.159424 Q 341.349609 74.000977 341.698730 73.667969 Z " fill="rgb(0, 0, 0)" fill-opacity="1.000000" />
<path d="M 346.770508 71.976074 L 346.442871 71.976074 Q 345.578125 71.976074 345.140381 72.279541 Q 344.702637 72.583008 344.702637 73.184570 Q 344.702637 73.727051 345.030273 74.027832 Q 345.357910 74.328613 345.937988 74.328613 Q 346.754395 74.328613 347.221680 73.761963 Q 347.688965 73.195312 347.694336 72.196289 L 347.694336 71.976074 Z M 348.687988 71.567871 L 348.687988 75.000000 L 347.694336 75.000000 L 347.694336 74.108398 Q 347.377441 74.645508 346.896729 74.900635 Q 346.416016 75.155762 345.728516 75.155762 Q 344.810059 75.155762 344.262207 74.637451 Q 343.714355 74.119141 343.714355 73.249023 Q 343.714355 72.244629 344.388428 71.723633 Q 345.062500 71.202637 346.367676 71.202637 L 347.694336 71.202637 L 347.694336 71.046875 Q 347.688965 70.327148 347.329102 70.002197 Q 346.969238 69.677246 346.179688 69.677246 Q 345.674805 69.677246 345.159180 69.822266 Q 344.643555 69.967285 344.154785 70.246582 L 344.154785 69.258301 Q 344.702637 69.048828 345.204834 68.944092 Q 345.707031 68.839355 346.179688 68.839355 Q 346.926270 68.839355 347.455322 69.059570 Q 347.984375 69.279785 348.312012 69.720215 Q 348.516113 69.988770 348.602051 70.383545 Q 348.687988 70.778320 348.687988 71.567871 Z " fill="rgb(0, 0, 0)" fill-opacity="1.000000" />
<path d="M 359.878906 78.319336 L 359.878906 64.300781 L 360.738281 64.300781 L 360.738281 78.319336 Z " fill="rgb(0, 0, 0)" fill-opacity="1.000000" />
<path d="M 363.892578 72.335938 L 363.892578 71.412109 L 370.729980 71.412109 L 370.729980 72.335938 Z " fill="rgb(0, 0, 0)" fill-opacity="1.000000" />
<path d="M 370.892578 72.335938 L 370.892578 71.412109 L 377.729980 71.412109 L 377.729980 72.335938 Z " fill="rgb(0, 0, 0)" fill-opacity="1.000000" />
<path d="M 377.892578 72.335938 L 377.892578 71.412109 L 384.729980 71.412109 L 384.729980 72.335938 Z " fill="rgb(0, 0, 0)" fill-opacity="1.000000" />
<path d="M 385.032227 75.418945 L 385.032227 68.866211 L 391.590332 72.142578 Z " fill="rgb(0, 0, 0)" fill-opacity="1.000000" />
<path d="M 394.878906 78.319336 L 394.878906 64.300781 L 395.738281 64.300781 L 395.738281 78.319336 Z " fill="rgb(0, 0, 0)" fill-opacity="1.000000" />
<path d="M 411.709473 66.642578 L 411.709473 67.464355 L 410.586914 67.464355 Q 410.055176 67.464355 409.848389 67.681885 Q 409.641602 67.899414 409.641602 68.452637 L 409.641602 68.984375 L 411.709473 68.984375 L 411.709473 69.752441 L 409.641602 69.752441 L 409.641602 75.000000 L 408.653320 75.000000 L 408.653320 69.752441 L 407.047363 69.752441 L 407.047363 68.984375 L 408.653320 68.984375 L 408.653320 68.565430 Q 408.653320 67.577148 409.107178 67.109863 Q 409.561035 66.642578 410.522461 66.642578 Z " fill="rgb(0, 0, 0)" fill-opacity="1.000000" />
<path d="M 418.226074 69.193848 L 418.226074 70.160645 Q 417.801758 69.913574 417.372070 69.790039 Q 416.942383 69.666504 416.496582 69.666504 Q 415.825195 69.666504 415.494873 69.884033 Q 415.164551 70.101562 415.164551 70.547363 Q 415.164551 70.950195 415.411621 71.148926 Q 415.658691 71.347656 416.641602 71.535645 L 417.039062 71.610840 Q 417.774902 71.750488 418.153564 72.169434 Q 418.532227 72.588379 418.532227 73.259766 Q 418.532227 74.151367 417.898438 74.653564 Q 417.264648 75.155762 416.136719 75.155762 Q 415.690918 75.155762 415.202148 75.061768 Q 414.713379 74.967773 414.144043 74.779785 L 414.144043 73.759277 Q 414.697266 74.043945 415.202148 74.186279 Q 415.707031 74.328613 416.158203 74.328613 Q 416.813477 74.328613 417.173340 74.062744 Q 417.533203 73.796875 417.533203 73.318848 Q 417.533203 72.631348 416.217285 72.368164 L 416.174316 72.357422 L 415.803711 72.282227 Q 414.949707 72.115723 414.557617 71.720947 Q 414.165527 71.326172 414.165527 70.644043 Q 414.165527 69.779297 414.750977 69.309326 Q 415.336426 68.839355 416.421387 68.839355 Q 416.904785 68.839355 417.350586 68.927979 Q 417.796387 69.016602 418.226074 69.193848 Z " fill="rgb(0, 0, 0)" fill-opacity="1.000000" />
<path d="M 424.608398 73.066406 Q 424.361328 73.694824 423.979980 74.720703 Q 423.448242 76.138672 423.265625 76.450195 Q 423.018555 76.869141 422.647949 77.078613 Q 422.277344 77.288086 421.783203 77.288086 L 420.988281 77.288086 L 420.988281 76.460938 L 421.573730 76.460938 Q 422.008789 76.460938 422.255859 76.208496 Q 422.502930 75.956055 422.884277 74.903320 L 420.558594 68.984375 L 421.605957 68.984375 L 423.389160 73.689453 L 425.145508 68.984375 L 426.192871 68.984375 Z " fill="rgb(0, 0, 0)" fill-opacity="1.000000" />
<path d="M 432.645020 71.272461 L 432.645020 75.000000 L 431.651367 75.000000 L 431.651367 71.272461 Q 431.651367 70.461426 431.366699 70.080078 Q 431.082031 69.698730 430.475098 69.698730 Q 429.782227 69.698730 429.408936 70.190186 Q 429.035645 70.681641 429.035645 71.600098 L 429.035645 75.000000 L 428.047363 75.000000 L 428.047363 68.984375 L 429.035645 68.984375 L 429.035645 69.886719 Q 429.298828 69.371094 429.750000 69.105225 Q 430.201172 68.839355 430.818848 68.839355 Q 431.737305 68.839355 432.191162 69.443604 Q 432.645020 70.047852 432.645020 71.272461 Z " fill="rgb(0, 0, 0)" fill-opacity="1.000000" />
<path d="M 439.698730 74.693848 Q 439.301270 74.924805 438.879639 75.040283 Q 438.458008 75.155762 438.017578 75.155762 Q 436.621094 75.155762 435.834229 74.317871 Q 435.047363 73.479980 435.047363 71.997559 Q 435.047363 70.515137 435.834229 69.677246 Q 436.621094 68.839355 438.017578 68.839355 Q 438.452637 68.839355 438.866211 68.952148 Q 439.279785 69.064941 439.698730 69.301270 L 439.698730 70.337891 Q 439.306641 69.988770 438.911865 69.833008 Q 438.517090 69.677246 438.017578 69.677246 Q 437.088379 69.677246 436.588867 70.278809 Q 436.089355 70.880371 436.089355 71.997559 Q 436.089355 73.109375 436.591553 73.713623 Q 437.093750 74.317871 438.017578 74.317871 Q 438.533203 74.317871 438.941406 74.159424 Q 439.349609 74.000977 439.698730 73.667969 Z " fill="rgb(0, 0, 0)" fill-opacity="1.000000" />
<path d="M 445.592285 66.116211 Q 444.877930 67.340820 444.526123 68.557373 Q 444.174316 69.773926 444.174316 71.009277 Q 444.174316 72.239258 444.526123 73.458496 Q 444.877930 74.677734 445.592285 75.913086 L 444.732910 75.913086 Q 443.921875 74.634766 443.524414 73.423584 Q 443.126953 72.212402 443.126953 71.009277 Q 443.126953 69.811523 443.524414 68.597656 Q 443.921875 67.383789 444.732910 66.116211 Z " fill="rgb(0, 0, 0)" fill-opacity="1.000000" />
<path d="M 449.869141 66.116211 L 450.728516 66.116211 Q 451.539551 67.383789 451.937012 68.597656 Q 452.334473 69.811523 452.334473 71.009277 Q 452.334473 72.217773 451.937012 73.431641 Q 451.539551 74.645508 450.728516 75.913086 L 449.869141 75.913086 Q 450.583496 74.666992 450.935303 73.447754 Q 451.287109 72.228516 451.287109 71.009277 Q 451.287109 69.784668 450.935303 68.565430 Q 450.583496 67.346191 449.869141 66.116211 Z " fill="rgb(0, 0, 0)" fill-opacity="1.000000" />
<path d="M 464.878906 78.319336 L 464.878906 64.300781 L 465.738281 64.300781 L 465.738281 78.319336 Z " fill="rgb(0, 0, 0)" fill-opacity="1.000000" />
<path d="M 289.878906 65.319336 L 289.878906 58.412109 L 293.729980 58.412109 L 293.729980 59.335938 L 290.738281 59.335938 L 290.738281 65.319336 Z " fill="rgb(0, 0, 0)" fill-opacity="1.000000" />
<path d="M 293.892578 59.335938 L 293.892578 58.412109 L 300.729980 58.412109 L 300.729980 59.335938 Z " fill="rgb(0, 0, 0)" fill-opacity="1.000000" />
<path d="M 300.892578 59.335938 L 300.892578 58.412109 L 307.729980 58.412109 L 307.729980 59.335938 Z " fill="rgb(0, 0, 0)" fill-opacity="1.000000" />
<path d="M 307.892578 59.335938 L 307.892578 58.412109 L 314.729980 58.412109 L 314.729980 59.335938 Z " fill="rgb(0, 0, 0)" fill-opacity="1.000000" />
<path d="M 314.892578 59.335938 L 314.892578 58.412109 L 321.729980 58.412109 L 321.729980 59.335938 Z " fill="rgb(0, 0, 0)" fill-opacity="1.000000" />
<path d="M 321.892578 59.335938 L 321.892578 58.412109 L 328.729980 58.412109 L 328.729980 59.335938 Z " fill="rgb(0, 0, 0)" fill-opacity="1.000000" />
<path d="M 328.892578 59.335938 L 328.892578 58.412109 L 335.729980 58.412109 L 335.729980 59.335938 Z " fill="rgb(0, 0, 0)" fill-opacity="1.000000" />
<path d="M 335.892578 59.335938 L 335.892578 58.412109 L 342.729980 58.412109 L 342.729980 59.335938 Z " fill="rgb(0, 0, 0)" fill-opacity="1.000000" />
<path d="M 342.892578 59.335938 L 342.892578 58.412109 L 349.729980 58.412109 L 349.729980 59.335938 Z " fill="rgb(0, 0, 0)" fill-opacity="1.000000" />
<path d="M 349.892578 59.335938 L 349.892578 58.412109 L 356.729980 58.412109 L 356.729980 59.335938 Z " fill="rgb(0, 0, 0)" fill-opacity="1.000000" />
<path d="M 359.878906 65.319336 L 359.878906 59.335938 L 356.892578 59.335938 L 356.892578 58.412109 L 360.738281 58.412109 L 360.738281 65.319336 Z " fill="rgb(0, 0, 0)" fill-opacity="1.000000" />
<path d="M 394.878906 65.319336 L 394.878906 58.412109 L 398.729980 58.412109 L 398.729980 59.335938 L 395.738281 59.335938 L 395.738281 65.319336 Z " fill="rgb(0, 0, 0)" fill-opacity="1.000000" />
<path d="M 398.892578 59.335938 L 398.892578 58.412109 L 405.729980 58.412109 L 405.729980 59.335938 Z " fill="rgb(0, 0, 0)" fill-opacity="1.000000" />
<path d="M 405.892578 59.335938 L 405.892578 58.412109 L 412.729980 58.412109 L 412.729980 59.335938 Z " fill="rgb(0, 0, 0)" fill-opacity="1.000000" />
<path d="M 412.892578 59.335938 L 412.892578 58.412109 L 419.729980 58.412109 L 419.729980 59.335938 Z " fill="rgb(0, 0, 0)" fill-opacity="1.000000" />
<path d="M 419.892578 59.335938 L 419.892578 58.412109 L 426.729980 58.412109 L 426.729980 59.335938 Z " fill="rgb(0, 0, 0)" fill-opacity="1.000000" />
<path d="M 426.892578 59.335938 L 426.892578 58.412109 L 433.729980 58.412109 L 433.729980 59.335938 Z " fill="rgb(0, 0, 0)" fill-opacity="1.000000" />
<path d="M 433.892578 59.335938 L 433.892578 58.412109 L 440.729980 58.412109 L 440.729980 59.335938 Z " fill="rgb(0, 0, 0)" fill-opacity="1.000000" />
<path d="M 440.892578 59.335938 L 440.892578 58.412109 L 447.729980 58.412109 L 447.729980 59.335938 Z " fill="rgb(0, 0, 0)" fill-opacity="1.000000" />
<path d="M 447.892578 59.335938 L 447.892578 58.412109 L 454.729980 58.412109 L 454.729980 59.335938 Z " fill="rgb(0, 0, 0)" fill-opacity="1.000000" />
<path d="M 454.892578 59.335938 L 454.892578 58.412109 L 461.729980 58.412109 L 461.729980 59.335938 Z " fill="rgb(0, 0, 0)" fill-opacity="1.000000" />
<path d="M 464.878906 65.319336 L 464.878906 59.335938 L 461.892578 59.335938 L 461.892578 58.412109 L 465.738281 58.412109 L 465.738281 65.319336 Z " fill="rgb(0, 0, 0)" fill-opacity="1.000000" />
<path d="M 6.892578 33.335938 L 6.892578 32.412109 L 13.729980 32.412109 L 13.729980 33.335938 Z " fill="rgb(0, 0, 0)" fill-opacity="1.000000" />
<path d="M 13.892578 33.335938 L 13.892578 32.412109 L 20.729980 32.412109 L 20.729980 33.335938 Z " fill="rgb(0, 0, 0)" fill-opacity="1.000000" />
<path d="M 20.892578 33.335938 L 20.892578 32.412109 L 27.729980 32.412109 L 27.729980 33.335938 Z " fill="rgb(0, 0, 0)" fill-opacity="1.000000" />
<path d="M 27.892578 33.335938 L 27.892578 32.412109 L 34.729980 32.412109 L 34.729980 33.335938 Z " fill="rgb(0, 0, 0)" fill-opacity="1.000000" />
<path d="M 34.892578 33.335938 L 34.892578 32.412109 L 41.729980 32.412109 L 41.729980 33.335938 Z " fill="rgb(0, 0, 0)" fill-opacity="1.000000" />
<path d="M 41.892578 33.335938 L 41.892578 32.412109 L 48.729980 32.412109 L 48.729980 33.335938 Z " fill="rgb(0, 0, 0)" fill-opacity="1.000000" />
<path d="M 48.892578 33.335938 L 48.892578 32.412109 L 55.729980 32.412109 L 55.729980 33.335938 Z " fill="rgb(0, 0, 0)" fill-opacity="1.000000" />
<path d="M 55.892578 33.335938 L 55.892578 32.412109 L 58.878906 32.412109 L 58.878906 25.300781 L 59.738281 25.300781 L 59.738281 33.335938 Z " fill="rgb(0, 0, 0)" fill-opacity="1.000000" />
<path d="M 93.878906 33.335938 L 93.878906 25.300781 L 94.738281 25.300781 L 94.738281 32.412109 L 97.729980 32.412109 L 97.729980 33.335938 Z " fill="rgb(0, 0, 0)" fill-opacity="1.000000" />
<path d="M 97.892578 33.335938 L 97.892578 32.412109 L 104.729980 32.412109 L 104.729980 33.335938 Z " fill="rgb(0, 0, 0)" fill-opacity="1.000000" />
<path d="M 104.892578 33.335938 L 104.892578 32.412109 L 111.729980 32.412109 L 111.729980 33.335938 Z " fill="rgb(0, 0, 0)" fill-opacity="1.000000" />
<path d="M 111.892578 33.335938 L 111.892578 32.412109 L 118.729980 32.412109 L 118.729980 33.335938 Z " fill="rgb(0, 0, 0)" fill-opacity="1.000000" />
<path d="M 118.892578 33.335938 L 118.892578 32.412109 L 125.729980 32.412109 L 125.729980 33.335938 Z " fill="rgb(0, 0, 0)" fill-opacity="1.000000" />
<path d="M 125.892578 33.335938 L 125.892578 32.412109 L 132.729980 32.412109 L 132.729980 33.335938 Z " fill="rgb(0, 0, 0)" fill-opacity="1.000000" />
<path d="M 132.892578 33.335938 L 132.892578 32.412109 L 139.729980 32.412109 L 139.729980 33.335938 Z " fill="rgb(0, 0, 0)" fill-opacity="1.000000" />
<path d="M 139.892578 33.335938 L 139.892578 32.412109 L 146.729980 32.412109 L 146.729980 33.335938 Z " fill="rgb(0, 0, 0)" fill-opacity="1.000000" />
<path d="M 146.892578 33.335938 L 146.892578 32.412109 L 153.729980 32.412109 L 153.729980 33.335938 Z " fill="rgb(0, 0, 0)" fill-opacity="1.000000" />
<path d="M 153.892578 33.335938 L 153.892578 32.412109 L 160.729980 32.412109 L 160.729980 33.335938 Z " fill="rgb(0, 0, 0)" fill-opacity="1.000000" />
<path d="M 160.892578 33.335938 L 160.892578 32.412109 L 167.729980 32.412109 L 167.729980 33.335938 Z " fill="rgb(0, 0, 0)" fill-opacity="1.000000" />
<path d="M 167.892578 33.335938 L 167.892578 32.412109 L 174.729980 32.412109 L 174.729980 33.335938 Z " fill="rgb(0, 0, 0)" fill-opacity="1.000000" />
<path d="M 174.892578 33.335938 L 174.892578 32.412109 L 181.729980 32.412109 L 181.729980 33.335938 Z " fill="rgb(0, 0, 0)" fill-opacity="1.000000" />
<path d="M 181.892578 33.335938 L 181.892578 32.412109 L 188.729980 32.412109 L 188.729980 33.335938 Z " fill="rgb(0, 0, 0)" fill-opacity="1.000000" />
<path d="M 188.892578 33.335938 L 188.892578 32.412109 L 191.878906 32.412109 L 191.878906 25.300781 L 192.738281 25.300781 L 192.738281 33.335938 Z " fill="rgb(0, 0, 0)" fill-opacity="1.000000" />
<path d="M 226.878906 33.335938 L 226.878906 25.300781 L 227.738281 25.300781 L 227.738281 32.412109 L 230.729980 32.412109 L 230.729980 33.335938 Z " fill="rgb(0, 0, 0)" fill-opacity="1.000000" />
<path d="M 230.892578 33.335938 L 230.892578 32.412109 L 237.729980 32.412109 L 237.729980 33.335938 Z " fill="rgb(0, 0, 0)" fill-opacity="1.000000" />
<path d="M 237.892578 33.335938 L 237.892578 32.412109 L 244.729980 32.412109 L 244.729980 33.335938 Z " fill="rgb(0, 0, 0)" fill-opacity="1.000000" />
<path d="M 244.892578 33.335938 L 244.892578 32.412109 L 251.729980 32.412109 L 251.729980 33.335938 Z " fill="rgb(0, 0, 0)" fill-opacity="1.000000" />
<path d="M 251.892578 33.335938 L 251.892578 32.412109 L 258.729980 32.412109 L 258.729980 33.335938 Z " fill="rgb(0, 0, 0)" fill-opacity="1.000000" />
<path d="M 258.892578 33.335938 L 258.892578 32.412109 L 265.729980 32.412109 L 265.729980 33.335938 Z " fill="rgb(0, 0, 0)" fill-opacity="1.000000" />
<path d="M 265.892578 33.335938 L 265.892578 32.412109 L 272.729980 32.412109 L 272.729980 33.335938 Z " fill="rgb(0, 0, 0)" fill-opacity="1.000000" />
<path d="M 272.892578 33.335938 L 272.892578 32.412109 L 279.729980 32.412109 L 279.729980 33.335938 Z " fill="rgb(0, 0, 0)" fill-opacity="1.000000" />
<path d="M 279.892578 33.335938 L 279.892578 32.412109 L 286.729980 32.412109 L 286.729980 33.335938 Z " fill="rgb(0, 0, 0)" fill-opacity="1.000000" />
<path d="M 286.892578 33.335938 L 286.892578 32.412109 L 289.878906 32.412109 L 289.878906 25.300781 L 290.738281 25.300781 L 290.738281 33.335938 Z " fill="rgb(0, 0, 0)" fill-opacity="1.000000" />
<path d="M 394.878906 33.335938 L 394.878906 25.300781 L 395.738281 25.300781 L 395.738281 32.412109 L 398.729980 32.412109 L 398.729980 33.335938 Z " fill="rgb(0, 0, 0)" fill-opacity="1.000000" />
<path d="M 398.892578 33.335938 L 398.892578 32.412109 L 405.729980 32.412109 L 405.729980 33.335938 Z " fill="rgb(0, 0, 0)" fill-opacity="1.000000" />
<path d="M 405.892578 33.335938 L 405.892578 32.412109 L 412.729980 32.412109 L 412.729980 33.335938 Z " fill="rgb(0, 0, 0)" fill-opacity="1.000000" />
<path d="M 412.892578 33.335938 L 412.892578 32.412109 L 419.729980 32.412109 L 419.729980 33.335938 Z " fill="rgb(0, 0, 0)" fill-opacity="1.000000" />
<path d="M 419.892578 33.335938 L 419.892578 32.412109 L 426.729980 32.412109 L 426.729980 33.335938 Z " fill="rgb(0, 0, 0)" fill-opacity="1.000000" />
<path d="M 426.892578 33.335938 L 426.892578 32.412109 L 433.729980 32.412109 L 433.729980 33.335938 Z " fill="rgb(0, 0, 0)" fill-opacity="1.000000" />
<path d="M 433.892578 33.335938 L 433.892578 32.412109 L 440.729980 32.412109 L 440.729980 33.335938 Z " fill="rgb(0, 0, 0)" fill-opacity="1.000000" />
<path d="M 440.892578 33.335938 L 440.892578 32.412109 L 447.729980 32.412109 L 447.729980 33.335938 Z " fill="rgb(0, 0, 0)" fill-opacity="1.000000" />
<path d="M 447.892578 33.335938 L 447.892578 32.412109 L 454.729980 32.412109 L 454.729980 33.335938 Z " fill="rgb(0, 0, 0)" fill-opacity="1.000000" />
<path d="M 454.892578 33.335938 L 454.892578 32.412109 L 461.729980 32.412109 L 461.729980 33.335938 Z " fill="rgb(0, 0, 0)" fill-opacity="1.000000" />
<path d="M 461.892578 33.335938 L 461.892578 32.412109 L 464.878906 32.412109 L 464.878906 25.300781 L 465.738281 25.300781 L 465.738281 33.335938 Z " fill="rgb(0, 0, 0)" fill-opacity="1.000000" />
<path d="M 15.981934 18.955566 L 15.981934 22.108398 L 17.265625 22.108398 Q 18.210938 22.108398 18.613770 21.778076 Q 19.016602 21.447754 19.016602 20.690430 Q 19.016602 19.691406 18.592285 19.323486 Q 18.167969 18.955566 17.265625 18.955566 Z M 15.981934 15.872559 L 15.981934 18.074707 L 17.244141 18.074707 Q 18.028320 18.074707 18.380127 17.773926 Q 18.731934 17.473145 18.731934 17.016602 Q 18.731934 16.409668 18.385498 16.141113 Q 18.039062 15.872559 17.244141 15.872559 Z M 14.891602 14.980957 L 17.265625 14.980957 Q 18.495605 14.980957 19.161621 15.512695 Q 19.827637 16.044434 19.827637 17.016602 Q 19.827637 17.537598 19.475830 17.961914 Q 19.124023 18.386230 18.420410 18.493652 Q 19.209961 18.611816 19.658447 19.167725 Q 20.106934 19.723633 20.106934 20.797852 Q 20.106934 21.888184 19.392578 22.444092 Q 18.678223 23.000000 17.265625 23.000000 L 14.891602 23.000000 Z " fill="rgb(0, 0, 0)" fill-opacity="1.000000" />
<path d="M 22.058105 14.980957 L 26.816895 14.980957 L 26.816895 15.894043 L 23.143066 15.894043 L 23.143066 18.053223 L 26.655762 18.053223 L 26.655762 18.966309 L 23.143066 18.966309 L 23.143066 22.086914 L 26.918945 22.086914 L 26.918945 23.000000 L 22.058105 23.000000 Z " fill="rgb(0, 0, 0)" fill-opacity="1.000000" />
<path d="M 33.929688 22.339355 Q 33.494629 22.742188 32.949463 22.948975 Q 32.404297 23.155762 31.770508 23.155762 Q 30.245117 23.155762 29.396484 22.062744 Q 28.547852 20.969727 28.547852 18.998535 Q 28.547852 17.032715 29.407227 15.934326 Q 30.266602 14.835938 31.797363 14.835938 Q 32.302246 14.835938 32.764160 14.978271 Q 33.226074 15.120605 33.655762 15.410645 L 33.655762 16.522461 Q 33.220703 16.108887 32.764160 15.912842 Q 32.307617 15.716797 31.797363 15.716797 Q 30.739258 15.716797 30.210205 16.535889 Q 29.681152 17.354980 29.681152 18.998535 Q 29.681152 20.668945 30.194092 21.471924 Q 30.707031 22.274902 31.770508 22.274902 Q 32.130371 22.274902 32.401611 22.191650 Q 32.672852 22.108398 32.893066 21.931152 L 32.893066 19.777344 L 31.727539 19.777344 L 31.727539 18.885742 L 33.929688 18.885742 Z " fill="rgb(0, 0, 0)" fill-opacity="1.000000" />
<path d="M 36.079590 14.980957 L 40.532227 14.980957 L 40.532227 15.894043 L 38.851074 15.894043 L 38.851074 22.086914 L 40.532227 22.086914 L 40.532227 23.000000 L 36.079590 23.000000 L 36.079590 22.086914 L 37.760742 22.086914 L 37.760742 15.894043 L 36.079590 15.894043 Z " fill="rgb(0, 0, 0)" fill-opacity="1.000000" />
<path d="M 42.102051 15.007812 L 43.584473 15.007812 L 46.721191 21.587402 L 46.721191 15.007812 L 47.875977 15.007812 L 47.875977 23.000000 L 46.393555 23.000000 L 43.256836 16.420410 L 43.256836 23.000000 L 42.102051 23.000000 Z " fill="rgb(0, 0, 0)" fill-opacity="1.000000" />
<path d="M 58.878906 26.319336 L 58.878906 12.300781 L 59.738281 12.300781 L 59.738281 26.319336 Z " fill="rgb(0, 0, 0)" fill-opacity="1.000000" />
<path d="M 62.892578 20.335938 L 62.892578 19.412109 L 69.729980 19.412109 L 69.729980 20.335938 Z " fill="rgb(0, 0, 0)" fill-opacity="1.000000" />
<path d="M 69.892578 20.335938 L 69.892578 19.412109 L 76.729980 19.412109 L 76.729980 20.335938 Z " fill="rgb(0, 0, 0)" fill-opacity="1.000000" />
<path d="M 76.892578 20.335938 L 76.892578 19.412109 L 83.729980 19.412109 L 83.729980 20.335938 Z " fill="rgb(0, 0, 0)" fill-opacity="1.000000" />
<path d="M 84.032227 23.418945 L 84.032227 16.866211 L 90.590332 20.142578 Z " fill="rgb(0, 0, 0)" fill-opacity="1.000000" />
<path d="M 93.878906 26.319336 L 93.878906 12.300781 L 94.738281 12.300781 L 94.738281 26.319336 Z " fill="rgb(0, 0, 0)" fill-opacity="1.000000" />
<path d="M 106.079590 14.980957 L 110.532227 14.980957 L 110.532227 15.894043 L 108.851074 15.894043 L 108.851074 22.086914 L 110.532227 22.086914 L 110.532227 23.000000 L 106.079590 23.000000 L 106.079590 22.086914 L 107.760742 22.086914 L 107.760742 15.894043 L 106.079590 15.894043 Z " fill="rgb(0, 0, 0)" fill-opacity="1.000000" />
<path d="M 112.102051 15.007812 L 113.584473 15.007812 L 116.721191 21.587402 L 116.721191 15.007812 L 117.875977 15.007812 L 117.875977 23.000000 L 116.393555 23.000000 L 113.256836 16.420410 L 113.256836 23.000000 L 112.102051 23.000000 Z " fill="rgb(0, 0, 0)" fill-opacity="1.000000" />
<path d="M 124.435547 15.254883 L 124.435547 16.355957 Q 123.941406 16.039062 123.444580 15.877930 Q 122.947754 15.716797 122.442871 15.716797 Q 121.674805 15.716797 121.229004 16.073975 Q 120.783203 16.431152 120.783203 17.038086 Q 120.783203 17.569824 121.075928 17.849121 Q 121.368652 18.128418 122.168945 18.316406 L 122.738281 18.445312 Q 123.866211 18.708496 124.381836 19.272461 Q 124.897461 19.836426 124.897461 20.808594 Q 124.897461 21.952637 124.188477 22.554199 Q 123.479492 23.155762 122.125977 23.155762 Q 121.562012 23.155762 120.992676 23.034912 Q 120.423340 22.914062 119.848633 22.672363 L 119.848633 21.517578 Q 120.466309 21.909668 121.016846 22.092285 Q 121.567383 22.274902 122.125977 22.274902 Q 122.947754 22.274902 123.404297 21.906982 Q 123.860840 21.539062 123.860840 20.878418 Q 123.860840 20.276855 123.546631 19.959961 Q 123.232422 19.643066 122.453613 19.471191 L 121.873535 19.336914 Q 120.756348 19.084473 120.251465 18.574219 Q 119.746582 18.063965 119.746582 17.204590 Q 119.746582 16.130371 120.468994 15.483154 Q 121.191406 14.835938 122.389160 14.835938 Q 122.851074 14.835938 123.361328 14.940674 Q 123.871582 15.045410 124.435547 15.254883 Z " fill="rgb(0, 0, 0)" fill-opacity="1.000000" />
<path d="M 127.058105 14.980957 L 131.816895 14.980957 L 131.816895 15.894043 L 128.143066 15.894043 L 128.143066 18.053223 L 131.655762 18.053223 L 131.655762 18.966309 L 128.143066 18.966309 L 128.143066 22.086914 L 131.918945 22.086914 L 131.918945 23.000000 L 127.058105 23.000000 Z " fill="rgb(0, 0, 0)" fill-opacity="1.000000" />
<path d="M 137.082031 19.213379 Q 137.500977 19.320801 137.796387 19.618896 Q 138.091797 19.916992 138.532227 20.808594 L 139.622559 23.000000 L 138.457031 23.000000 L 137.500977 20.975098 Q 137.087402 20.110352 136.757080 19.860596 Q 136.426758 19.610840 135.895020 19.610840 L 134.858398 19.610840 L 134.858398 23.000000 L 133.768066 23.000000 L 133.768066 14.980957 L 136.002441 14.980957 Q 137.323730 14.980957 138.027344 15.577148 Q 138.730957 16.173340 138.730957 17.301270 Q 138.730957 18.096191 138.298584 18.598389 Q 137.866211 19.100586 137.082031 19.213379 Z M 134.858398 15.872559 L 134.858398 18.719238 L 136.045410 18.719238 Q 136.824219 18.719238 137.205566 18.370117 Q 137.586914 18.020996 137.586914 17.301270 Q 137.586914 16.608398 137.181396 16.240479 Q 136.775879 15.872559 136.002441 15.872559 Z " fill="rgb(0, 0, 0)" fill-opacity="1.000000" />
<path d="M 140.252441 14.980957 L 146.370117 14.980957 L 146.370117 15.894043 L 143.861816 15.894043 L 143.861816 23.000000 L 142.771484 23.000000 L 142.771484 15.894043 L 140.252441 15.894043 Z " fill="rgb(0, 0, 0)" fill-opacity="1.000000" />
<path d="M 156.089355 20.830078 L 157.979980 20.830078 L 157.979980 23.000000 L 156.089355 23.000000 Z " fill="rgb(0, 0, 0)" fill-opacity="1.000000" />
<path d="M 163.089355 20.830078 L 164.979980 20.830078 L 164.979980 23.000000 L 163.089355 23.000000 Z " fill="rgb(0, 0, 0)" fill-opacity="1.000000" />
<path d="M 170.089355 20.830078 L 171.979980 20.830078 L 171.979980 23.000000 L 170.089355 23.000000 Z " fill="rgb(0, 0, 0)" fill-opacity="1.000000" />
<path d="M 191.878906 26.319336 L 191.878906 12.300781 L 192.738281 12.300781 L 192.738281 26.319336 Z " fill="rgb(0, 0, 0)" fill-opacity="1.000000" />
<path d="M 195.892578 20.335938 L 195.892578 19.412109 L 202.729980 19.412109 L 202.729980 20.335938 Z " fill="rgb(0, 0, 0)" fill-opacity="1.000000" />
<path d="M 202.892578 20.335938 L 202.892578 19.412109 L 209.729980 19.412109 L 209.729980 20.335938 Z " fill="rgb(0, 0, 0)" fill-opacity="1.000000" />
<path d="M 209.892578 20.335938 L 209.892578 19.412109 L 216.729980 19.412109 L 216.729980 20.335938 Z " fill="rgb(0, 0, 0)" fill-opacity="1.000000" />
<path d="M 217.032227 23.418945 L 217.032227 16.866211 L 223.590332 20.142578 Z " fill="rgb(0, 0, 0)" fill-opacity="1.000000" />
<path d="M 226.878906 26.319336 L 226.878906 12.300781 L 227.738281 12.300781 L 227.738281 26.319336 Z " fill="rgb(0, 0, 0)" fill-opacity="1.000000" />
<path d="M 243.763184 22.715332 Q 243.349609 22.935547 242.914551 23.045654 Q 242.479492 23.155762 241.990723 23.155762 Q 240.449219 23.155762 239.597900 22.065430 Q 238.746582 20.975098 238.746582 18.998535 Q 238.746582 17.032715 239.603271 15.934326 Q 240.459961 14.835938 241.990723 14.835938 Q 242.479492 14.835938 242.914551 14.946045 Q 243.349609 15.056152 243.763184 15.276367 L 243.763184 16.388184 Q 243.365723 16.060547 242.909180 15.888672 Q 242.452637 15.716797 241.990723 15.716797 Q 240.932617 15.716797 240.406250 16.533203 Q 239.879883 17.349609 239.879883 18.998535 Q 239.879883 20.642090 240.406250 21.458496 Q 240.932617 22.274902 241.990723 22.274902 Q 242.463379 22.274902 242.917236 22.103027 Q 243.371094 21.931152 243.763184 21.603516 Z " fill="rgb(0, 0, 0)" fill-opacity="1.000000" />
<path d="M 249.860840 18.998535 Q 249.860840 17.231445 249.498291 16.474121 Q 249.135742 15.716797 248.308594 15.716797 Q 247.486816 15.716797 247.124268 16.474121 Q 246.761719 17.231445 246.761719 18.998535 Q 246.761719 20.760254 247.124268 21.517578 Q 247.486816 22.274902 248.308594 22.274902 Q 249.135742 22.274902 249.498291 21.520264 Q 249.860840 20.765625 249.860840 18.998535 Z M 250.994141 18.998535 Q 250.994141 21.093262 250.330811 22.124512 Q 249.667480 23.155762 248.308594 23.155762 Q 246.949707 23.155762 246.289062 22.129883 Q 245.628418 21.104004 245.628418 18.998535 Q 245.628418 16.898438 246.291748 15.867188 Q 246.955078 14.835938 248.308594 14.835938 Q 249.667480 14.835938 250.330811 15.867188 Q 250.994141 16.898438 250.994141 18.998535 Z " fill="rgb(0, 0, 0)" fill-opacity="1.000000" />
<path d="M 252.193359 15.007812 L 253.643555 15.007812 L 255.029297 19.079102 L 256.425781 15.007812 L 257.881348 15.007812 L 257.881348 23.000000 L 256.876953 23.000000 L 256.876953 15.937012 L 255.448242 20.147949 L 254.626465 20.147949 L 253.192383 15.937012 L 253.192383 23.000000 L 252.193359 23.000000 Z " fill="rgb(0, 0, 0)" fill-opacity="1.000000" />
<path d="M 259.193359 15.007812 L 260.643555 15.007812 L 262.029297 19.079102 L 263.425781 15.007812 L 264.881348 15.007812 L 264.881348 23.000000 L 263.876953 23.000000 L 263.876953 15.937012 L 262.448242 20.147949 L 261.626465 20.147949 L 260.192383 15.937012 L 260.192383 23.000000 L 259.193359 23.000000 Z " fill="rgb(0, 0, 0)" fill-opacity="1.000000" />
<path d="M 267.079590 14.980957 L 271.532227 14.980957 L 271.532227 15.894043 L 269.851074 15.894043 L 269.851074 22.086914 L 271.532227 22.086914 L 271.532227 23.000000 L 267.079590 23.000000 L 267.079590 22.086914 L 268.760742 22.086914 L 268.760742 15.894043 L 267.079590 15.894043 Z " fill="rgb(0, 0, 0)" fill-opacity="1.000000" />
<path d="M 273.252441 14.980957 L 279.370117 14.980957 L 279.370117 15.894043 L 276.861816 15.894043 L 276.861816 23.000000 L 275.771484 23.000000 L 275.771484 15.894043 L 273.252441 15.894043 Z " fill="rgb(0, 0, 0)" fill-opacity="1.000000" />
<path d="M 289.878906 26.319336 L 289.878906 12.300781 L 290.738281 12.300781 L 290.738281 26.319336 Z " fill="rgb(0, 0, 0)" fill-opacity="1.000000" />
<path d="M 293.892578 20.335938 L 293.892578 19.412109 L 300.729980 19.412109 L 300.729980 20.335938 Z " fill="rgb(0, 0, 0)" fill-opacity="1.000000" />
<path d="M 300.892578 20.335938 L 300.892578 19.412109 L 307.729980 19.412109 L 307.729980 20.335938 Z " fill="rgb(0, 0, 0)" fill-opacity="1.000000" />
<path d="M 307.892578 20.335938 L 307.892578 19.412109 L 314.729980 19.412109 L 314.729980 20.335938 Z " fill="rgb(0, 0, 0)" fill-opacity="1.000000" />
<path d="M 314.892578 20.335938 L 314.892578 19.412109 L 321.729980 19.412109 L 321.729980 20.335938 Z " fill="rgb(0, 0, 0)" fill-opacity="1.000000" />
<path d="M 321.892578 20.335938 L 321.892578 19.412109 L 328.729980 19.412109 L 328.729980 20.335938 Z " fill="rgb(0, 0, 0)" fill-opacity="1.000000" />
<path d="M 328.892578 20.335938 L 328.892578 19.412109 L 335.729980 19.412109 L 335.729980 20.335938 Z " fill="rgb(0, 0, 0)" fill-opacity="1.000000" />
<path d="M 335.892578 20.335938 L 335.892578 19.412109 L 342.729980 19.412109 L 342.729980 20.335938 Z " fill="rgb(0, 0, 0)" fill-opacity="1.000000" />
<path d="M 342.892578 20.335938 L 342.892578 19.412109 L 349.729980 19.412109 L 349.729980 20.335938 Z " fill="rgb(0, 0, 0)" fill-opacity="1.000000" />
<path d="M 349.892578 20.335938 L 349.892578 19.412109 L 356.729980 19.412109 L 356.729980 20.335938 Z " fill="rgb(0, 0, 0)" fill-opacity="1.000000" />
<path d="M 356.892578 20.335938 L 356.892578 19.412109 L 363.729980 19.412109 L 363.729980 20.335938 Z " fill="rgb(0, 0, 0)" fill-opacity="1.000000" />
<path d="M 363.892578 20.335938 L 363.892578 19.412109 L 370.729980 19.412109 L 370.729980 20.335938 Z " fill="rgb(0, 0, 0)" fill-opacity="1.000000" />
<path d="M 370.892578 20.335938 L 370.892578 19.412109 L 377.729980 19.412109 L 377.729980 20.335938 Z " fill="rgb(0, 0, 0)" fill-opacity="1.000000" />
<path d="M 377.892578 20.335938 L 377.892578 19.412109 L 384.729980 19.412109 L 384.729980 20.335938 Z " fill="rgb(0, 0, 0)" fill-opacity="1.000000" />
<path d="M 385.032227 23.418945 L 385.032227 16.866211 L 391.590332 20.142578 Z " fill="rgb(0, 0, 0)" fill-opacity="1.000000" />
<path d="M 394.878906 26.319336 L 394.878906 12.300781 L 395.738281 12.300781 L 395.738281 26.319336 Z " fill="rgb(0, 0, 0)" fill-opacity="1.000000" />
<path d="M 411.709473 14.642578 L 411.709473 15.464355 L 410.586914 15.464355 Q 410.055176 15.464355 409.848389 15.681885 Q 409.641602 15.899414 409.641602 16.452637 L 409.641602 16.984375 L 411.709473 16.984375 L 411.709473 17.752441 L 409.641602 17.752441 L 409.641602 23.000000 L 408.653320 23.000000 L 408.653320 17.752441 L 407.047363 17.752441 L 407.047363 16.984375 L 408.653320 16.984375 L 408.653320 16.565430 Q 408.653320 15.577148 409.107178 15.109863 Q 409.561035 14.642578 410.522461 14.642578 Z " fill="rgb(0, 0, 0)" fill-opacity="1.000000" />
<path d="M 418.226074 17.193848 L 418.226074 18.160645 Q 417.801758 17.913574 417.372070 17.790039 Q 416.942383 17.666504 416.496582 17.666504 Q 415.825195 17.666504 415.494873 17.884033 Q 415.164551 18.101562 415.164551 18.547363 Q 415.164551 18.950195 415.411621 19.148926 Q 415.658691 19.347656 416.641602 19.535645 L 417.039062 19.610840 Q 417.774902 19.750488 418.153564 20.169434 Q 418.532227 20.588379 418.532227 21.259766 Q 418.532227 22.151367 417.898438 22.653564 Q 417.264648 23.155762 416.136719 23.155762 Q 415.690918 23.155762 415.202148 23.061768 Q 414.713379 22.967773 414.144043 22.779785 L 414.144043 21.759277 Q 414.697266 22.043945 415.202148 22.186279 Q 415.707031 22.328613 416.158203 22.328613 Q 416.813477 22.328613 417.173340 22.062744 Q 417.533203 21.796875 417.533203 21.318848 Q 417.533203 20.631348 416.217285 20.368164 L 416.174316 20.357422 L 415.803711 20.282227 Q 414.949707 20.115723 414.557617 19.720947 Q 414.165527 19.326172 414.165527 18.644043 Q 414.165527 17.779297 414.750977 17.309326 Q 415.336426 16.839355 416.421387 16.839355 Q 416.904785 16.839355 417.350586 16.927979 Q 417.796387 17.016602 418.226074 17.193848 Z " fill="rgb(0, 0, 0)" fill-opacity="1.000000" />
<path d="M 424.608398 21.066406 Q 424.361328 21.694824 423.979980 22.720703 Q 423.448242 24.138672 423.265625 24.450195 Q 423.018555 24.869141 422.647949 25.078613 Q 422.277344 25.288086 421.783203 25.288086 L 420.988281 25.288086 L 420.988281 24.460938 L 421.573730 24.460938 Q 422.008789 24.460938 422.255859 24.208496 Q 422.502930 23.956055 422.884277 22.903320 L 420.558594 16.984375 L 421.605957 16.984375 L 423.389160 21.689453 L 425.145508 16.984375 L 426.192871 16.984375 Z " fill="rgb(0, 0, 0)" fill-opacity="1.000000" />
<path d="M 432.645020 19.272461 L 432.645020 23.000000 L 431.651367 23.000000 L 431.651367 19.272461 Q 431.651367 18.461426 431.366699 18.080078 Q 431.082031 17.698730 430.475098 17.698730 Q 429.782227 17.698730 429.408936 18.190186 Q 429.035645 18.681641 429.035645 19.600098 L 429.035645 23.000000 L 428.047363 23.000000 L 428.047363 16.984375 L 429.035645 16.984375 L 429.035645 17.886719 Q 429.298828 17.371094 429.750000 17.105225 Q 430.201172 16.839355 430.818848 16.839355 Q 431.737305 16.839355 432.191162 17.443604 Q 432.645020 18.047852 432.645020 19.272461 Z " fill="rgb(0, 0, 0)" fill-opacity="1.000000" />
<path d="M 439.698730 22.693848 Q 439.301270 22.924805 438.879639 23.040283 Q 438.458008 23.155762 438.017578 23.155762 Q 436.621094 23.155762 435.834229 22.317871 Q 435.047363 21.479980 435.047363 19.997559 Q 435.047363 18.515137 435.834229 17.677246 Q 436.621094 16.839355 438.017578 16.839355 Q 438.452637 16.839355 438.866211 16.952148 Q 439.279785 17.064941 439.698730 17.301270 L 439.698730 18.337891 Q 439.306641 17.988770 438.911865 17.833008 Q 438.517090 17.677246 438.017578 17.677246 Q 437.088379 17.677246 436.588867 18.278809 Q 436.089355 18.880371 436.089355 19.997559 Q 436.089355 21.109375 436.591553 21.713623 Q 437.093750 22.317871 438.017578 22.317871 Q 438.533203 22.317871 438.941406 22.159424 Q 439.349609 22.000977 439.698730 21.667969 Z " fill="rgb(0, 0, 0)" fill-opacity="1.000000" />
<path d="M 445.592285 14.116211 Q 444.877930 15.340820 444.526123 16.557373 Q 444.174316 17.773926 444.174316 19.009277 Q 444.174316 20.239258 444.526123 21.458496 Q 444.877930 22.677734 445.592285 23.913086 L 444.732910 23.913086 Q 443.921875 22.634766 443.524414 21.423584 Q 443.126953 20.212402 443.126953 19.009277 Q 443.126953 17.811523 443.524414 16.597656 Q 443.921875 15.383789 444.732910 14.116211 Z " fill="rgb(0, 0, 0)" fill-opacity="1.000000" />
<path d="M 449.869141 14.116211 L 450.728516 14.116211 Q 451.539551 15.383789 451.937012 16.597656 Q 452.334473 17.811523 452.334473 19.009277 Q 452.334473 20.217773 451.937012 21.431641 Q 451.539551 22.645508 450.728516 23.913086 L 449.869141 23.913086 Q 450.583496 22.666992 450.935303 21.447754 Q 451.287109 20.228516 451.287109 19.009277 Q 451.287109 17.784668 450.935303 16.565430 Q 450.583496 15.346191 449.869141 14.116211 Z " fill="rgb(0, 0, 0)" fill-opacity="1.000000" />
<path d="M 464.878906 26.319336 L 464.878906 12.300781 L 465.738281 12.300781 L 465.738281 26.319336 Z " fill="rgb(0, 0, 0)" fill-opacity="1.000000" />
<path d="M 6.892578 7.335938 L 6.892578 6.412109 L 13.729980 6.412109 L 13.729980 7.335938 Z " fill="rgb(0, 0, 0)" fill-opacity="1.000000" />
<path d="M 13.892578 7.335938 L 13.892578 6.412109 L 20.729980 6.412109 L 20.729980 7.335938 Z " fill="rgb(0, 0, 0)" fill-opacity="1.000000" />
<path d="M 20.892578 7.335938 L 20.892578 6.412109 L 27.729980 6.412109 L 27.729980 7.335938 Z " fill="rgb(0, 0, 0)" fill-opacity="1.000000" />
<path d="M 27.892578 7.335938 L 27.892578 6.412109 L 34.729980 6.412109 L 34.729980 7.335938 Z " fill="rgb(0, 0, 0)" fill-opacity="1.000000" />
<path d="M 34.892578 7.335938 L 34.892578 6.412109 L 41.729980 6.412109 L 41.729980 7.335938 Z " fill="rgb(0, 0, 0)" fill-opacity="1.000000" />
<path d="M 41.892578 7.335938 L 41.892578 6.412109 L 48.729980 6.412109 L 48.729980 7.335938 Z " fill="rgb(0, 0, 0)" fill-opacity="1.000000" />
<path d="M 48.892578 7.335938 L 48.892578 6.412109 L 55.729980 6.412109 L 55.729980 7.335938 Z " fill="rgb(0, 0, 0)" fill-opacity="1.000000" />
<path d="M 58.878906 13.319336 L 58.878906 7.335938 L 55.892578 7.335938 L 55.892578 6.412109 L 59.738281 6.412109 L 59.738281 13.319336 Z " fill="rgb(0, 0, 0)" fill-opacity="1.000000" />
<path d="M 93.878906 13.319336 L 93.878906 6.412109 L 97.729980 6.412109 L 97.729980 7.335938 L 94.738281 7.335938 L 94.738281 13.319336 Z " fill="rgb(0, 0, 0)" fill-opacity="1.000000" />
<path d="M 97.892578 7.335938 L 97.892578 6.412109 L 104.729980 6.412109 L 104.729980 7.335938 Z " fill="rgb(0, 0, 0)" fill-opacity="1.000000" />
<path d="M 104.892578 7.335938 L 104.892578 6.412109 L 111.729980 6.412109 L 111.729980 7.335938 Z " fill="rgb(0, 0, 0)" fill-opacity="1.000000" />
<path d="M 111.892578 7.335938 L 111.892578 6.412109 L 118.729980 6.412109 L 118.729980 7.335938 Z " fill="rgb(0, 0, 0)" fill-opacity="1.000000" />
<path d="M 118.892578 7.335938 L 118.892578 6.412109 L 125.729980 6.412109 L 125.729980 7.335938 Z " fill="rgb(0, 0, 0)" fill-opacity="1.000000" />
<path d="M 125.892578 7.335938 L 125.892578 6.412109 L 132.729980 6.412109 L 132.729980 7.335938 Z " fill="rgb(0, 0, 0)" fill-opacity="1.000000" />
<path d="M 132.892578 7.335938 L 132.892578 6.412109 L 139.729980 6.412109 L 139.729980 7.335938 Z " fill="rgb(0, 0, 0)" fill-opacity="1.000000" />
<path d="M 139.892578 7.335938 L 139.892578 6.412109 L 146.729980 6.412109 L 146.729980 7.335938 Z " fill="rgb(0, 0, 0)" fill-opacity="1.000000" />
<path d="M 146.892578 7.335938 L 146.892578 6.412109 L 153.729980 6.412109 L 153.729980 7.335938 Z " fill="rgb(0, 0, 0)" fill-opacity="1.000000" />
<path d="M 153.892578 7.335938 L 153.892578 6.412109 L 160.729980 6.412109 L 160.729980 7.335938 Z " fill="rgb(0, 0, 0)" fill-opacity="1.000000" />
<path d="M 160.892578 7.335938 L 160.892578 6.412109 L 167.729980 6.412109 L 167.729980 7.335938 Z " fill="rgb(0, 0, 0)" fill-opacity="1.000000" />
<path d="M 167.892578 7.335938 L 167.892578 6.412109 L 174.729980 6.412109 L 174.729980 7.335938 Z " fill="rgb(0, 0, 0)" fill-opacity="1.000000" />
<path d="M 174.892578 7.335938 L 174.892578 6.412109 L 181.729980 6.412109 L 181.729980 7.335938 Z " fill="rgb(0, 0, 0)" fill-opacity="1.000000" />
<path d="M 181.892578 7.335938 L 181.892578 6.412109 L 188.729980 6.412109 L 188.729980 7.335938 Z " fill="rgb(0, 0, 0)" fill-opacity="1.000000" />
<path d="M 191.878906 13.319336 L 191.878906 7.335938 L 188.892578 7.335938 L 188.892578 6.412109 L 192.738281 6.412109 L 192.738281 13.319336 Z " fill="rgb(0, 0, 0)" fill-opacity="1.000000" />
<path d="M 226.878906 13.319336 L 226.878906 6.412109 L 230.729980 6.412109 L 230.729980 7.335938 L 227.738281 7.335938 L 227.738281 13.319336 Z " fill="rgb(0, 0, 0)" fill-opacity="1.000000" />
<path d="M 230.892578 7.335938 L 230.892578 6.412109 L 237.729980 6.412109 L 237.729980 7.335938 Z " fill="rgb(0, 0, 0)" fill-opacity="1.000000" />
<path d="M 237.892578 7.335938 L 237.892578 6.412109 L 244.729980 6.412109 L 244.729980 7.335938 Z " fill="rgb(0, 0, 0)" fill-opacity="1.000000" />
<path d="M 244.892578 7.335938 L 244.892578 6.412109 L 251.729980 6.412109 L 251.729980 7.335938 Z " fill="rgb(0, 0, 0)" fill-opacity="1.000000" />
<path d="M 251.892578 7.335938 L 251.892578 6.412109 L 258.729980 6.412109 L 258.729980 7.335938 Z " fill="rgb(0, 0, 0)" fill-opacity="1.000000" />
<path d="M 258.892578 7.335938 L 258.892578 6.412109 L 265.729980 6.412109 L 265.729980 7.335938 Z " fill="rgb(0, 0, 0)" fill-opacity="1.000000" />
<path d="M 265.892578 7.335938 L 265.892578 6.412109 L 272.729980 6.412109 L 272.729980 7.335938 Z " fill="rgb(0, 0, 0)" fill-opacity="1.000000" />
<path d="M 272.892578 7.335938 L 272.892578 6.412109 L 279.729980 6.412109 L 279.729980 7.335938 Z " fill="rgb(0, 0, 0)" fill-opacity="1.000000" />
<path d="M 279.892578 7.335938 L 279.892578 6.412109 L 286.729980 6.412109 L 286.729980 7.335938 Z " fill="rgb(0, 0, 0)" fill-opacity="1.000000" />
<path d="M 289.878906 13.319336 L 289.878906 7.335938 L 286.892578 7.335938 L 286.892578 6.412109 L 290.738281 6.412109 L 290.738281 13.319336 Z " fill="rgb(0, 0, 0)" fill-opacity="1.000000" />
<path d="M 394.878906 13.319336 L 394.878906 6.412109 L 398.729980 6.412109 L 398.729980 7.335938 L 395.738281 7.335938 L 395.738281 13.319336 Z " fill="rgb(0, 0, 0)" fill-opacity="1.000000" />
<path d="M 398.892578 7.335938 L 398.892578 6.412109 L 405.729980 6.412109 L 405.729980 7.335938 Z " fill="rgb(0, 0, 0)" fill-opacity="1.000000" />
<path d="M 405.892578 7.335938 L 405.892578 6.412109 L 412.729980 6.412109 L 412.729980 7.335938 Z " fill="rgb(0, 0, 0)" fill-opacity="1.000000" />
<path d="M 412.892578 7.335938 L 412.892578 6.412109 L 419.729980 6.412109 L 419.729980 7.335938 Z " fill="rgb(0, 0, 0)" fill-opacity="1.000000" />
<path d="M 419.892578 7.335938 L 419.892578 6.412109 L 426.729980 6.412109 L 426.729980 7.335938 Z " fill="rgb(0, 0, 0)" fill-opacity="1.000000" />
<path d="M 426.892578 7.335938 L 426.892578 6.412109 L 433.729980 6.412109 L 433.729980 7.335938 Z " fill="rgb(0, 0, 0)" fill-opacity="1.000000" />
<path d="M 433.892578 7.335938 L 433.892578 6.412109 L 440.729980 6.412109 L 440.729980 7.335938 Z " fill="rgb(0, 0, 0)" fill-opacity="1.000000" />
<path d="M 440.892578 7.335938 L 440.892578 6.412109 L 447.729980 6.412109 L 447.729980 7.335938 Z " fill="rgb(0, 0, 0)" fill-opacity="1.000000" />
<path d="M 447.892578 7.335938 L 447.892578 6.412109 L 454.729980 6.412109 L 454.729980 7.335938 Z " fill="rgb(0, 0, 0)" fill-opacity="1.000000" />
<path d="M 454.892578 7.335938 L 454.892578 6.412109 L 461.729980 6.412109 L 461.729980 7.335938 Z " fill="rgb(0, 0, 0)" fill-opacity="1.000000" />
<path d="M 464.878906 13.319336 L 464.878906 7.335938 L 461.892578 7.335938 L 461.892578 6.412109 L 465.738281 6.412109 L 465.738281 13.319336 Z " fill="rgb(0, 0, 0)" fill-opacity="1.000000" />
</svg>