<svg width="60" height="56" viewBox="0 0 60 56" fill="none" xmlns="http://www.w3.org/2000/svg">
<path d="M34.6743 44.8919L29.7226 44.645L25.3998 51.3435C24.1886 48.8374 24.2725 45.777 25.8935 43.2662C27.5146 40.7554 30.2676 39.4185 33.0532 39.493L44.163 22.2949C42.9519 19.7841 43.0358 16.7237 44.6568 14.2129C46.2779 11.7021 49.0309 10.3652 51.8165 10.4397L47.489 17.1429L49.7483 21.5496L54.6953 21.7965L59.0228 15.0933C60.2339 17.5994 60.1501 20.6599 58.5243 23.1706C56.9033 25.6814 54.1503 27.0183 51.3647 26.9484L40.2641 44.1419C41.4753 46.6527 41.3914 49.7132 39.7703 52.2239C38.1493 54.7347 35.3963 56.0716 32.6107 55.9971L36.9382 49.2986L34.6743 44.8919Z" fill="#808F95"/>
<path d="M34.6743 44.8919L29.7226 44.645L25.3998 51.3435C24.1886 48.8374 24.2725 45.777 25.8935 43.2662C27.5146 40.7554 30.2676 39.4185 33.0532 39.493L44.163 22.2949C42.9519 19.7841 43.0358 16.7237 44.6568 14.2129C46.2779 11.7021 49.0309 10.3652 51.8165 10.4397L47.489 17.1429L49.7482 21.5496" fill="#AABBC1"/>
<path d="M31.3437 1.54729L9.03084 3.81119L5.50923 4.16987C2.9146 4.43073 2.50002 5.8049 2.73759 8.39487L5.97971 43.4386C6.21728 46.0286 6.80421 46.5084 9.39884 46.2475L12.9205 45.8889L35.238 43.6296C37.8326 43.3688 39.7425 41.0536 39.5049 38.4637L36.4817 5.76764C36.2395 3.17301 33.9383 1.28643 31.3437 1.54729Z" fill="#3D4247"/>
<path d="M29.6576 0.745978L7.4426 3.92754L3.93962 4.43063C1.35431 4.79863 0.995631 6.19143 1.34034 8.76743L5.98458 43.6388C6.32463 46.2148 6.93486 46.6713 9.51551 46.3033L13.0231 45.8003L35.2335 42.6187C37.8142 42.2507 39.6309 39.861 39.2862 37.2804L34.954 4.74273C34.6093 2.16673 32.2383 0.377979 29.6576 0.745978Z" fill="#CFCFCF"/>
<path d="M28.1948 0.0752979L6.09619 4.03944L13.1021 45.6792L35.1961 41.7151C37.7627 41.2539 39.4956 38.8037 39.0671 36.2417L33.6263 3.88106C33.193 1.31904 30.7614 -0.385866 28.1948 0.0752979Z" fill="#1C58D9"/>
<path d="M2.61192 4.66351C0.0452456 5.12467 -0.271513 6.52214 0.161701 9.08881L5.99845 43.7692C6.43166 46.3359 7.05121 46.7691 9.61788 46.308L13.1069 45.6838L6.09627 4.03931L2.61192 4.66351Z" fill="#3D4247"/>
<path d="M28.9773 16.2254L15.2868 18.6802L14.3784 13.2627L28.0643 10.8079L28.9773 16.2254Z" fill="white"/>
</svg>
