<svg width="51" height="59" viewBox="0 0 51 59" fill="none" xmlns="http://www.w3.org/2000/svg">
<path d="M36.6653 30.7035L39.6324 28.2272L45.6403 27.9245L50.0051 32.3263C50.0051 27.0908 46.5378 23.8502 39.6324 25.8749C39.1959 26.004 37.8178 26.0784 37.8178 26.0784L36.6653 30.7035Z" fill="#FFBC1F"/>
<path d="M47.5229 32.0782C47.5229 36.9712 36.1399 38.2566 32.6725 40.718C31.2208 41.7502 28.7539 46.3604 28.7539 46.3604L48.9746 34.5148C48.9795 34.5148 47.5229 28.2719 47.5229 32.0782Z" fill="#FFBC1F"/>
<path d="M36.6649 32.4749L38.3569 32.0779C38.3569 32.0779 38.6413 30.4552 39.99 29.2344C41.7164 27.6761 47.5477 28.0185 47.5477 31.8199C47.5477 38.0876 35.8458 40.0131 32.3785 42.4745C30.9268 43.5067 29.2593 46.7026 29.2593 46.7026C29.2593 46.7026 30.5197 46.9408 30.8042 46.7026C36.1107 42.2661 50.0096 40.42 50.0096 32.1325C50.0096 29.1599 45.7379 25.433 39.6369 27.6464C39.2151 27.8002 37.8223 27.8498 37.8223 27.8498L36.6649 32.4749Z" fill="#CC8F00"/>
<path d="M37.9892 22.158H0V48.8963C0 50.3751 0.42668 51.7448 1.15743 52.906C2.67288 56.3699 10.0785 58.9951 18.9946 58.9951C27.9206 58.9951 35.3311 56.36 36.8367 52.8961C37.5625 51.7398 37.9892 50.3652 37.9892 48.8963V22.158Z" fill="#FFBC1F"/>
<path d="M18.9946 14.0986C29.485 14.0986 37.9892 17.6816 37.9892 22.1033C37.9892 26.5249 29.485 30.1079 18.9946 30.1079C8.50417 30.1079 0 26.5249 0 22.1033C0 17.6816 8.50417 14.0986 18.9946 14.0986Z" fill="#FFBC1F"/>
<path d="M18.9949 17.9793C27.7394 17.9793 35.0322 20.2423 36.7389 23.2595C36.9891 22.8228 37.1215 22.3712 37.1215 21.9047C37.1215 18.2424 29.0047 15.2698 18.9949 15.2698C8.98023 15.2698 0.868408 18.2424 0.868408 21.9047C0.868408 22.3712 1.00083 22.8228 1.24604 23.2595C2.96257 20.2423 10.2554 17.9793 18.9949 17.9793Z" fill="#CC8F00"/>
<path d="M18.995 29.1451C27.7395 29.1451 35.0323 26.6191 36.739 23.2545C35.0323 19.8948 27.7395 17.3689 18.995 17.3689C10.2554 17.3689 2.95772 19.8948 1.24609 23.2545C2.96262 26.6191 10.2554 29.1451 18.995 29.1451Z" fill="#724E41"/>
<path d="M31.1626 21.2696C28.4848 18.1382 19.7992 19.5426 18.9949 21.1058C17.8914 19.4384 9.41662 18.1977 6.82712 21.2696C5.20377 23.2 8.95561 25.0163 12.7173 26.3264C15.0861 27.2395 12.7173 28.2717 12.7173 28.2717C22.1385 28.2717 28.7545 24.9071 28.7545 24.9071C30.9076 23.8104 32.2563 22.5499 31.1626 21.2696Z" fill="#8D6A54"/>
<path d="M26.7332 22.3712C25.1589 19.8602 19.3521 20.8874 18.7293 22.1231C18.1015 20.7882 12.5939 19.7212 10.7057 22.138C9.52377 23.6516 11.8828 25.1304 14.281 26.2073C15.7866 26.9566 14.1633 27.7507 14.1633 27.7507C20.3673 27.8449 24.9333 25.2346 24.9333 25.2346C26.4095 24.386 27.3806 23.3985 26.7332 22.3712Z" fill="#B49166"/>
<path d="M24.0659 23.2794C23.0114 21.5971 19.1272 22.2869 18.7103 23.1156C18.2934 22.2223 14.6053 21.5077 13.34 23.1206C12.5455 24.1329 14.1247 25.1254 15.7333 25.845C16.7436 26.3462 15.6549 26.8772 15.6549 26.8772C19.8089 26.9368 22.8594 25.1949 22.8594 25.1949C23.8501 24.6292 24.4974 23.9692 24.0659 23.2794Z" fill="#FAF3D9"/>
<g opacity="0.6">
<path opacity="0.6" d="M20.0344 7.36942C17.1751 4.36706 19.078 0 19.078 0C19.078 0 13.0751 5.77643 16.8661 9.75641C21.2506 14.3617 19.078 17.23 19.078 17.23C19.078 17.23 24.512 12.0739 20.0344 7.36942Z" fill="#A6ADAF"/>
<path opacity="0.6" d="M11.4762 10.059C9.33301 7.87551 10.7602 4.69946 10.7602 4.69946C10.7602 4.69946 6.25797 8.8978 9.1025 11.7959C12.3933 15.1457 10.7602 17.23 10.7602 17.23C10.7602 17.23 14.8357 13.4832 11.4762 10.059Z" fill="#A6ADAF"/>
<path opacity="0.6" d="M28.5038 10.059C26.3606 7.87551 27.7878 4.69946 27.7878 4.69946C27.7878 4.69946 23.2856 8.8978 26.1301 11.7959C29.4209 15.1457 27.7878 17.23 27.7878 17.23C27.7878 17.23 31.8633 13.4783 28.5038 10.059Z" fill="#A6ADAF"/>
</g>
</svg>
