<svg width="61" height="56" viewBox="0 0 61 56" fill="none" xmlns="http://www.w3.org/2000/svg">
<path d="M6.82611 14.538C7.51031 14.5023 8.00048 15.0639 7.90857 15.7787L7.25501 20.9766C7.1631 21.6914 6.55549 22.1152 5.90193 21.911L1.04107 20.4149C0.387507 20.2158 -0.0771344 19.4652 0.0147727 18.7504L0.341553 16.1515C0.433461 15.4366 1.0666 14.8239 1.7508 14.7933L6.82611 14.538Z" fill="#546266"/>
<path d="M6.85113 25.3779C7.31067 24.8674 8.05103 24.9184 8.49525 25.4903L11.712 29.6261C12.1562 30.1929 12.0184 30.923 11.4159 31.2447L6.91751 33.6241C6.3099 33.9457 5.45721 33.7415 5.01299 33.1747L3.40462 31.1068C2.9604 30.5401 2.97572 29.6567 3.43525 29.1512L6.85113 25.3779Z" fill="#546266"/>
<path d="M14.5417 33.0215C14.5059 32.3373 15.0676 31.8522 15.7824 31.939L20.9803 32.5875C21.6951 32.6794 22.1138 33.287 21.9146 33.9405L20.4186 38.8014C20.2144 39.455 19.4689 39.9196 18.7541 39.8277L16.1551 39.5009C15.4403 39.4141 14.8276 38.781 14.797 38.0968L14.5417 33.0215Z" fill="#546266"/>
<path d="M25.3808 32.991C24.8753 32.5314 24.9212 31.7911 25.4931 31.352L29.6289 28.1352C30.2008 27.691 30.9258 27.8289 31.2475 28.4314L33.6269 32.9246C33.9486 33.5322 33.7443 34.39 33.1776 34.8291L31.1097 36.4375C30.5429 36.8817 29.6596 36.8664 29.1541 36.4068L25.3808 32.991Z" fill="#546266"/>
<path d="M33.0246 25.3064C32.3404 25.3421 31.8554 24.7804 31.9422 24.0656L32.5957 18.8678C32.6876 18.1529 33.2953 17.7342 33.9488 17.9334L38.8097 19.4294C39.4632 19.6285 39.9279 20.3791 39.836 21.0939L39.5092 23.6929C39.4173 24.4077 38.7842 25.0204 38.1 25.0511L33.0246 25.3064Z" fill="#546266"/>
<path d="M32.999 14.4666C32.5395 14.9721 31.7991 14.9261 31.36 14.3543L28.1433 10.2184C27.6991 9.65168 27.8369 8.92152 28.4394 8.59985L32.9378 6.22048C33.5454 5.8988 34.4032 6.10304 34.8423 6.6698L36.4506 8.73771C36.8949 9.30447 36.8795 10.1878 36.42 10.6933L32.999 14.4666Z" fill="#546266"/>
<path d="M25.31 6.82293C25.3458 7.50713 24.7841 7.9922 24.0693 7.9054L18.8714 7.25183C18.1566 7.15993 17.7379 6.55232 17.937 5.89876L19.4331 1.03789C19.6322 0.384333 20.3828 -0.0803082 21.0976 0.0115989L23.6965 0.33838C24.4114 0.425181 25.0241 1.06342 25.0547 1.74762L25.31 6.82293Z" fill="#546266"/>
<path d="M14.4693 6.84859C14.9748 7.30813 14.9288 8.04849 14.3569 8.4876L10.2211 11.7043C9.65436 12.1435 8.92421 12.0107 8.60254 11.4082L6.22316 6.91497C5.90149 6.30736 6.10573 5.44956 6.67249 5.01045L8.7404 3.40208C9.30716 2.95786 10.1905 2.97318 10.696 3.43782L14.4693 6.84859Z" fill="#546266"/>
<path d="M22.5976 29.6567C17.221 31.1323 11.6658 27.9718 10.1851 22.5952C8.70943 17.2186 11.87 11.6634 17.2466 10.1826C22.6231 8.70701 28.1784 11.8676 29.6591 17.2442C31.1399 22.6258 27.9742 28.1811 22.5976 29.6567ZM15.6791 4.45886C7.1368 6.80249 2.11765 15.6307 4.46128 24.1678C6.80491 32.705 15.6331 37.7292 24.1702 35.3805C32.7074 33.0369 37.7316 24.2087 35.388 15.6715C33.0444 7.13438 24.2162 2.11523 15.6791 4.45886Z" fill="#546266"/>
<path d="M21.1837 24.5049C18.6512 25.1993 16.0369 23.7135 15.3425 21.1809C14.6481 18.6484 16.134 16.0341 18.6665 15.3397C21.1991 14.6453 23.8133 16.1312 24.5077 18.6637C25.2021 21.1912 23.7163 23.8105 21.1837 24.5049ZM16.6241 7.89526C9.98128 9.71808 6.07523 16.5856 7.89806 23.2233C9.72088 29.8662 16.5884 33.7722 23.2312 31.9494C29.8741 30.1266 33.7801 23.2591 31.9522 16.6213C30.1243 9.98359 23.267 6.07244 16.6241 7.89526Z" fill="#AABBC1"/>
<path d="M21.1841 24.5047C18.6515 25.1991 16.0373 23.7133 15.3428 21.1808C14.6484 18.6482 16.1343 16.034 18.6668 15.3396C21.1994 14.6452 23.8136 16.131 24.508 18.6635C25.2024 21.191 23.7166 23.8103 21.1841 24.5047ZM17.4108 10.7595C12.3508 12.1483 9.37399 17.3768 10.7628 22.4419C12.1516 27.5019 17.3801 30.4787 22.4452 29.0899C27.5052 27.696 30.4769 22.4624 29.0881 17.4024C27.6992 12.3424 22.4707 9.37071 17.4108 10.7595Z" fill="#546266"/>
<path d="M35.2305 36.8663C35.7462 36.8408 36.1087 37.2595 36.0424 37.7956L35.5522 41.6966C35.4858 42.2327 35.0263 42.5493 34.5361 42.3961L30.8905 41.2728C30.4003 41.1196 30.0531 40.5579 30.1195 40.0218L30.3645 38.0713C30.4309 37.5352 30.9058 37.0757 31.4215 37.0502L35.2305 36.8663Z" fill="#546266"/>
<path d="M35.2512 44.9951C35.5984 44.6122 36.1498 44.653 36.4817 45.0768L38.8917 48.1812C39.2236 48.6101 39.1215 49.1565 38.6671 49.3964L35.2971 51.1835C34.8427 51.4235 34.1994 51.2703 33.8675 50.8465L32.6625 49.2943C32.3306 48.8654 32.3408 48.2068 32.688 47.8238L35.2512 44.9951Z" fill="#546266"/>
<path d="M41.0158 50.7291C40.9902 50.2134 41.4089 49.8509 41.945 49.9173L45.846 50.4074C46.3821 50.4738 46.6987 50.9333 46.5455 51.4235L45.4222 55.0692C45.269 55.5593 44.7074 55.9065 44.1712 55.8402L42.2208 55.5951C41.6846 55.5287 41.2251 55.0538 41.1996 54.5381L41.0158 50.7291Z" fill="#546266"/>
<path d="M49.1499 50.7085C48.767 50.3613 48.8078 49.8099 49.2316 49.478L52.336 47.068C52.7649 46.7361 53.3112 46.8382 53.5512 47.2926L55.3383 50.6626C55.5783 51.117 55.4251 51.7603 55.0013 52.0922L53.4491 53.2972C53.0202 53.6291 52.3615 53.6189 51.9786 53.2717L49.1499 50.7085Z" fill="#546266"/>
<path d="M54.8838 44.9441C54.3732 44.9696 54.0056 44.5509 54.072 44.0148L54.5621 40.1139C54.6285 39.5777 55.088 39.2612 55.5782 39.4144L59.2239 40.5377C59.714 40.6857 60.0612 41.2525 59.9949 41.7886L59.7498 43.7391C59.6834 44.2752 59.2085 44.7348 58.6928 44.7603L54.8838 44.9441Z" fill="#546266"/>
<path d="M54.8582 36.8101C54.511 37.193 53.9595 37.1522 53.6276 36.7284L51.2176 33.624C50.8858 33.1951 50.9879 32.6538 51.4423 32.4088L54.8122 30.6217C55.2667 30.3817 55.91 30.5349 56.2419 30.9587L57.4469 32.5109C57.7788 32.9347 57.7686 33.5984 57.4214 33.9763L54.8582 36.8101Z" fill="#546266"/>
<path d="M49.0977 31.0762C49.1232 31.5919 48.7045 31.9544 48.1684 31.8881L44.2674 31.3979C43.7313 31.3315 43.4147 30.872 43.5679 30.3818L44.6912 26.7362C44.8444 26.246 45.4061 25.8988 45.9422 25.9652L47.8927 26.2103C48.4288 26.2766 48.8883 26.7515 48.9139 27.2672L49.0977 31.0762Z" fill="#546266"/>
<path d="M40.9642 31.1018C41.3471 31.449 41.3063 32.0004 40.8825 32.3323L37.778 34.7423C37.3491 35.0742 36.8079 34.9721 36.5628 34.5177L34.7809 31.1477C34.5409 30.6933 34.6941 30.05 35.1178 29.7181L36.6701 28.5131C37.099 28.1812 37.7576 28.1914 38.1355 28.5386L40.9642 31.1018Z" fill="#546266"/>
<path d="M47.0615 48.2066C43.0278 49.3146 38.8614 46.9403 37.7534 42.9117C36.6454 38.8781 39.0145 34.7116 43.0482 33.6036C47.0819 32.4956 51.2484 34.8699 52.3564 38.8985C53.4695 42.9271 51.0952 47.0986 47.0615 48.2066ZM41.8739 29.3044C35.471 31.066 31.7028 37.6833 33.4644 44.0861C35.2259 50.489 41.8432 54.2572 48.2461 52.4956C54.649 50.7341 58.4171 44.1168 56.6556 37.7139C54.894 31.311 48.2767 27.548 41.8739 29.3044Z" fill="#546266"/>
<path d="M45.9986 44.3364C44.0992 44.8572 42.1385 43.7441 41.6177 41.8447C41.0969 39.9453 42.21 37.9846 44.1094 37.4638C46.0088 36.943 47.9695 38.0561 48.4903 39.9555C49.0162 41.8549 47.898 43.8156 45.9986 44.3364ZM42.5776 31.883C37.5942 33.2514 34.6685 38.3982 36.0369 43.3816C37.4053 48.365 42.5521 51.2907 47.5355 49.9223C52.5189 48.5539 55.4446 43.4071 54.0762 38.4237C52.7078 33.4454 47.561 30.5146 42.5776 31.883Z" fill="#AABBC1"/>
<path d="M45.999 44.3363C44.0996 44.8571 42.1389 43.744 41.6181 41.8446C41.0973 39.9452 42.2104 37.9845 44.1098 37.4637C46.0092 36.9429 47.9699 38.056 48.4907 39.9554C49.0166 41.8548 47.8984 43.8155 45.999 44.3363ZM43.1703 34.0325C39.3766 35.0741 37.1453 38.9955 38.1869 42.7943C39.2285 46.588 43.1499 48.8194 46.9487 47.7777C50.7424 46.7361 52.9737 42.8148 51.9321 39.0159C50.8854 35.2171 46.964 32.9858 43.1703 34.0325Z" fill="#546266"/>
</svg>
