<svg width="272" height="32" viewBox="0 0 272 32" fill="none" xmlns="http://www.w3.org/2000/svg">
<path fill-rule="evenodd" clip-rule="evenodd" d="M65.0075 13.9091C65.0075 13.485 64.9365 13.1399 64.7945 12.8744C64.6528 12.6095 64.4576 12.4012 64.2094 12.2513C63.9611 12.1008 63.6551 11.9988 63.2917 11.9461C62.928 11.893 62.5245 11.8666 62.0811 11.8666C61.1234 11.8666 60.1039 12.0521 59.0219 12.4235C58.7735 11.9636 58.5875 11.5301 58.4636 11.1235C58.3394 10.7169 58.277 10.2305 58.277 9.66432C59.0575 9.39911 59.8376 9.20461 60.6181 9.08082C61.3982 8.95703 62.1258 8.89497 62.7993 8.89497C64.6438 8.89497 66.0847 9.33705 67.1223 10.2217C68.1596 11.106 68.6784 12.5206 68.6784 14.4661V22.4249C68.0576 22.6194 67.3039 22.8053 66.4171 22.9821C65.5307 23.159 64.5285 23.2475 63.4112 23.2475C62.5068 23.2475 61.6776 23.1678 60.9238 23.0086C60.1702 22.8495 59.5227 22.584 58.9823 22.2126C58.4411 21.8416 58.0245 21.3639 57.7316 20.7802C57.4393 20.1964 57.2929 19.4803 57.2929 18.6312C57.2929 17.7825 57.4746 17.0706 57.8382 16.4958C58.2017 15.9211 58.6718 15.461 59.2479 15.1163C59.8245 14.7714 60.4673 14.5238 61.1768 14.3734C61.8862 14.223 62.5954 14.1479 63.3048 14.1479C63.8192 14.1479 64.3866 14.1746 65.0075 14.2274V13.9091ZM65.0075 16.6418C64.7945 16.6063 64.5641 16.5751 64.3155 16.5488C64.0672 16.5224 63.846 16.5092 63.6506 16.5092C62.7816 16.5092 62.0943 16.6636 61.5888 16.9733C61.0835 17.2828 60.8308 17.7825 60.8308 18.4722C60.8308 18.9322 60.9284 19.2856 61.1234 19.5335C61.3184 19.7809 61.5536 19.9622 61.8284 20.077C62.1033 20.1921 62.3956 20.2629 62.7061 20.2895C63.0168 20.3158 63.2871 20.3295 63.5173 20.3295C63.7836 20.3295 64.0497 20.3071 64.3155 20.2629C64.5818 20.2186 64.8122 20.1791 65.0075 20.1435V16.6418ZM71.1968 12.0785H69.4676L69.3343 11.5479L74.3091 5.20742H74.9209V9.21326H78.1397C78.1926 9.47881 78.2283 9.7174 78.2463 9.92954C78.2637 10.142 78.2725 10.363 78.2725 10.5931C78.2725 10.8405 78.2637 11.0792 78.2463 11.3092C78.2283 11.5393 78.1926 11.7957 78.1397 12.0785H74.9209V17.4642C74.9209 18.0123 74.9655 18.4543 75.0542 18.7906C75.1425 19.1262 75.2712 19.3918 75.4395 19.5864C75.6084 19.7809 75.8165 19.9135 76.0648 19.9842C76.313 20.0553 76.606 20.0906 76.9425 20.0906C77.2088 20.0906 77.4701 20.0684 77.7275 20.0241C77.9845 19.98 78.2106 19.9402 78.4056 19.9049C78.5301 20.2405 78.6183 20.59 78.6717 20.9527C78.7251 21.3152 78.7515 21.6383 78.7515 21.9211C78.7515 22.1156 78.7472 22.2791 78.7382 22.4119C78.7294 22.5443 78.7163 22.673 78.6983 22.7965C77.8826 22.9913 77.0404 23.0881 76.1714 23.0881C74.5574 23.0881 73.3246 22.7125 72.4736 21.9611C71.6224 21.2092 71.1968 19.9842 71.1968 18.2865V12.0785ZM81.1772 12.0785H79.4483L79.315 11.5479L84.2897 5.20742H84.9015V9.21326H88.1203C88.1733 9.47881 88.209 9.7174 88.2269 9.92954C88.2442 10.142 88.2532 10.363 88.2532 10.5931C88.2532 10.8405 88.2442 11.0792 88.2269 11.3092C88.209 11.5393 88.1733 11.7957 88.1203 12.0785H84.9015V17.4642C84.9015 18.0123 84.9462 18.4543 85.0346 18.7906C85.1234 19.1262 85.2519 19.3918 85.4203 19.5864C85.5889 19.7809 85.7969 19.9135 86.0455 19.9842C86.2936 20.0553 86.5865 20.0906 86.923 20.0906C87.1892 20.0906 87.4507 20.0684 87.7081 20.0241C87.9652 19.98 88.1913 19.9402 88.3864 19.9049C88.5105 20.2405 88.5991 20.59 88.6521 20.9527C88.7057 21.3152 88.7322 21.6383 88.7322 21.9211C88.7322 22.1156 88.7278 22.2791 88.7188 22.4119C88.7101 22.5443 88.6968 22.673 88.679 22.7965C87.8632 22.9913 87.0212 23.0881 86.1518 23.0881C84.5381 23.0881 83.3054 22.7125 82.4542 21.9611C81.603 21.2092 81.1772 19.9842 81.1772 18.2865V12.0785ZM98.6512 14.5993C98.6159 13.7499 98.3807 13.0648 97.9463 12.543C97.5118 12.0212 96.9045 11.7601 96.124 11.7601C95.2373 11.7601 94.5634 12.0078 94.1023 12.503C93.6413 12.9983 93.3665 13.697 93.2779 14.5993H98.6512ZM93.2511 17.2253C93.3222 18.2865 93.6945 19.0558 94.3684 19.5335C95.0422 20.011 95.929 20.2498 97.0288 20.2498C97.6317 20.2498 98.2476 20.1921 98.8774 20.077C99.507 19.9622 100.105 19.7986 100.673 19.5864C100.868 19.9402 101.036 20.3646 101.178 20.8599C101.32 21.3547 101.4 21.8857 101.418 22.4515C100.034 22.9821 98.4737 23.2475 96.7356 23.2475C95.459 23.2475 94.3641 23.0707 93.4504 22.7168C92.5373 22.3632 91.7923 21.8721 91.2161 21.2447C90.6397 20.6168 90.2139 19.8694 89.9391 19.0026C89.6644 18.1361 89.5271 17.19 89.5271 16.1644C89.5271 15.1561 89.6688 14.2099 89.9526 13.3256C90.236 12.4409 90.6574 11.6719 91.2161 11.0177C91.7747 10.363 92.4662 9.84577 93.291 9.46541C94.1157 9.08523 95.0778 8.89497 96.1772 8.89497C97.1348 8.89497 97.9862 9.06301 98.731 9.39911C99.4759 9.73504 100.11 10.1951 100.633 10.7789C101.156 11.3621 101.551 12.0567 101.817 12.8613C102.083 13.6659 102.216 14.5284 102.216 15.4478C102.216 15.7839 102.203 16.1158 102.176 16.4427C102.15 16.7696 102.118 17.0308 102.083 17.2253H93.2511ZM103.659 9.21326C103.925 9.16052 104.177 9.1205 104.417 9.09422C104.656 9.06725 104.918 9.0542 105.202 9.0542C105.468 9.0542 105.729 9.07217 105.986 9.1071C106.243 9.14254 106.496 9.18697 106.744 9.24005C106.798 9.32857 106.846 9.4566 106.891 9.62464C106.935 9.79269 106.975 9.96956 107.01 10.1554C107.046 10.3411 107.077 10.5264 107.103 10.7125C107.13 10.8983 107.152 11.0525 107.17 11.1769C107.56 10.6283 108.039 10.1374 108.606 9.70434C109.174 9.27091 109.883 9.0542 110.734 9.0542C110.912 9.0542 111.116 9.06301 111.346 9.08082C111.577 9.09846 111.745 9.12491 111.852 9.16052C111.887 9.33705 111.914 9.54053 111.931 9.77048C111.95 10.0004 111.958 10.2392 111.958 10.4869C111.958 10.7876 111.945 11.1147 111.918 11.4684C111.892 11.8221 111.843 12.1581 111.772 12.4765C111.577 12.4409 111.36 12.4235 111.12 12.4235C110.881 12.4235 110.734 12.4235 110.682 12.4235C110.38 12.4235 110.043 12.4545 109.67 12.5162C109.298 12.5783 108.943 12.7417 108.606 13.0073C108.269 13.2725 107.99 13.6705 107.768 14.2013C107.547 14.7315 107.436 15.4744 107.436 16.4296V22.9559C107.117 23.0086 106.798 23.044 106.478 23.0617C106.159 23.0795 105.849 23.0881 105.547 23.0881C105.246 23.0881 104.94 23.0795 104.629 23.0617C104.319 23.044 103.995 23.0086 103.659 22.9559V9.21326ZM113.729 9.21326C113.977 9.16052 114.226 9.1205 114.474 9.09422C114.722 9.06725 114.997 9.0542 115.299 9.0542C115.6 9.0542 115.866 9.06725 116.097 9.09422C116.327 9.1205 116.566 9.16052 116.815 9.21326C116.868 9.30177 116.917 9.43014 116.961 9.59819C117.005 9.76607 117.045 9.94327 117.081 10.1286C117.116 10.3145 117.147 10.4956 117.174 10.6724C117.201 10.8493 117.223 10.9997 117.241 11.1235C117.382 10.8585 117.569 10.5931 117.799 10.3275C118.03 10.0627 118.304 9.82406 118.624 9.61142C118.943 9.39911 119.302 9.22665 119.701 9.09422C120.1 8.96127 120.548 8.89497 121.045 8.89497C123.19 8.89497 124.565 9.70875 125.168 11.336C125.522 10.6814 126.023 10.1113 126.67 9.62464C127.318 9.13814 128.138 8.89497 129.132 8.89497C130.692 8.89497 131.84 9.32433 132.576 10.182C133.312 11.0396 133.68 12.3794 133.68 14.2013V22.9292C133.042 23.0354 132.412 23.0881 131.792 23.0881C131.171 23.0881 130.541 23.0354 129.903 22.9292V15.1824C129.903 14.2274 129.783 13.4936 129.543 12.9808C129.304 12.4679 128.821 12.2113 128.094 12.2113C127.792 12.2113 127.496 12.2557 127.203 12.3439C126.91 12.4321 126.644 12.5957 126.405 12.8347C126.165 13.0734 125.97 13.4097 125.819 13.843C125.669 14.2759 125.593 14.8378 125.593 15.5275V22.9292C124.955 23.0354 124.325 23.0881 123.705 23.0881C123.084 23.0881 122.454 23.0354 121.816 22.9292V15.1824C121.816 14.2274 121.696 13.4936 121.457 12.9808C121.217 12.4679 120.734 12.2113 120.007 12.2113C119.706 12.2113 119.404 12.2557 119.102 12.3439C118.801 12.4321 118.531 12.6047 118.291 12.8613C118.052 13.1175 117.861 13.4757 117.719 13.9357C117.577 14.3954 117.506 14.9969 117.506 15.7396V22.9292C116.868 23.0354 116.239 23.0881 115.618 23.0881C114.997 23.0881 114.368 23.0354 113.729 22.9292V9.21326ZM141.373 20.3822C142.367 20.3822 143.08 20.0154 143.515 19.2812C143.949 18.5474 144.167 17.4905 144.167 16.1112C144.167 14.7315 143.949 13.6749 143.515 12.9408C143.08 12.2066 142.367 11.8398 141.373 11.8398C140.398 11.8398 139.693 12.2066 139.259 12.9408C138.824 13.6749 138.607 14.7315 138.607 16.1112C138.607 17.4905 138.824 18.5474 139.259 19.2812C139.693 20.0154 140.398 20.3822 141.373 20.3822ZM141.373 23.2475C140.256 23.2475 139.285 23.0661 138.461 22.7035C137.636 22.3412 136.953 21.837 136.412 21.1913C135.871 20.5457 135.463 19.7897 135.189 18.923C134.914 18.0564 134.776 17.1193 134.776 16.1112C134.776 15.1031 134.914 14.1567 135.189 13.2725C135.463 12.3882 135.871 11.6232 136.412 10.9777C136.953 10.3319 137.636 9.82406 138.461 9.45219C139.285 9.08082 140.256 8.89497 141.373 8.89497C142.491 8.89497 143.466 9.08082 144.3 9.45219C145.133 9.82406 145.824 10.3319 146.375 10.9777C146.924 11.6232 147.332 12.3882 147.598 13.2725C147.864 14.1567 147.997 15.1031 147.997 16.1112C147.997 17.1193 147.864 18.0564 147.598 18.923C147.332 19.7897 146.924 20.5457 146.375 21.1913C145.824 21.837 145.133 22.3412 144.3 22.7035C143.466 23.0661 142.491 23.2475 141.373 23.2475ZM152.1 16.9601C151.107 16.6769 150.331 16.257 149.773 15.6998C149.214 15.1429 148.935 14.3071 148.935 13.1926C148.935 11.8484 149.418 10.7966 150.385 10.036C151.351 9.27532 152.668 8.89497 154.335 8.89497C155.027 8.89497 155.709 8.95703 156.383 9.08082C157.057 9.20461 157.74 9.39012 158.431 9.63804C158.396 10.0976 158.307 10.5751 158.165 11.0706C158.024 11.5656 157.855 11.9988 157.66 12.3707C157.234 12.1937 156.765 12.0389 156.25 11.9061C155.736 11.7737 155.195 11.7073 154.627 11.7073C154.024 11.7073 153.555 11.8001 153.217 11.9858C152.881 12.1716 152.712 12.4679 152.712 12.8744C152.712 13.2635 152.832 13.5377 153.071 13.697C153.311 13.856 153.652 14.0068 154.095 14.1479L155.612 14.5993C156.108 14.7405 156.556 14.9128 156.955 15.1163C157.354 15.3198 157.696 15.5718 157.979 15.8722C158.263 16.1729 158.485 16.5444 158.644 16.9865C158.804 17.4288 158.884 17.968 158.884 18.6046C158.884 19.2593 158.746 19.8694 158.471 20.4353C158.197 21.0013 157.797 21.4921 157.274 21.9075C156.751 22.3235 156.117 22.6506 155.372 22.8892C154.627 23.1281 153.785 23.2475 152.845 23.2475C152.419 23.2475 152.03 23.2341 151.675 23.2077C151.32 23.1809 150.979 23.1368 150.651 23.0751C150.323 23.013 149.999 22.938 149.68 22.8495C149.36 22.7612 149.014 22.6462 148.642 22.5046C148.678 22.0269 148.762 21.545 148.895 21.0588C149.028 20.5727 149.201 20.0992 149.414 19.6393C149.999 19.8694 150.553 20.0417 151.076 20.1567C151.6 20.2718 152.145 20.3295 152.712 20.3295C152.961 20.3295 153.231 20.3071 153.523 20.2629C153.816 20.2186 154.087 20.1391 154.335 20.0241C154.583 19.9091 154.792 19.7587 154.96 19.5732C155.129 19.3875 155.212 19.1443 155.212 18.8434C155.212 18.4192 155.084 18.114 154.827 17.9283C154.57 17.7428 154.211 17.5787 153.75 17.4374L152.1 16.9601ZM161.301 12.0785H159.572L159.439 11.5479L164.414 5.20742H165.025V9.21326H168.244C168.297 9.47881 168.333 9.7174 168.351 9.92954C168.368 10.142 168.377 10.363 168.377 10.5931C168.377 10.8405 168.368 11.0792 168.351 11.3092C168.333 11.5393 168.297 11.7957 168.244 12.0785H165.025V17.4642C165.025 18.0123 165.07 18.4543 165.158 18.7906C165.247 19.1262 165.376 19.3918 165.544 19.5864C165.713 19.7809 165.921 19.9135 166.169 19.9842C166.417 20.0553 166.711 20.0906 167.047 20.0906C167.313 20.0906 167.575 20.0684 167.832 20.0241C168.089 19.98 168.315 19.9402 168.51 19.9049C168.634 20.2405 168.723 20.59 168.776 20.9527C168.83 21.3152 168.856 21.6383 168.856 21.9211C168.856 22.1156 168.852 22.2791 168.843 22.4119C168.834 22.5443 168.821 22.673 168.803 22.7965C167.987 22.9913 167.145 23.0881 166.276 23.0881C164.662 23.0881 163.429 22.7125 162.578 21.9611C161.727 21.2092 161.301 19.9842 161.301 18.2865V12.0785ZM36.6467 5.01376C37.4154 4.9071 38.1549 4.85352 38.8656 4.85352C39.615 4.85352 40.3548 4.9071 41.0848 5.01376L45.8398 14.8563L50.7388 5.01376C51.3345 4.9071 51.9969 4.85352 52.7272 4.85352C53.4574 4.85352 54.1583 4.9071 54.8309 5.01376L55.8107 23.0874C55.0809 23.1943 54.3892 23.2475 53.7361 23.2475C53.0824 23.2475 52.4392 23.1943 51.8053 23.0874L51.2864 10.0199L47.0788 19.0516C46.8097 19.0872 46.5313 19.1187 46.2429 19.145C45.9547 19.1718 45.6669 19.185 45.3785 19.185C45.1285 19.185 44.8791 19.1762 44.6295 19.1584C44.3797 19.1406 44.1204 19.1048 43.8512 19.0516L39.9321 9.83271L39.5286 23.0874C38.9139 23.1943 38.3183 23.2475 37.7417 23.2475C37.1268 23.2475 36.4926 23.1943 35.8398 23.0874L36.6467 5.01376Z" fill="#145DBF"/>
<path fill-rule="evenodd" clip-rule="evenodd" d="M18.7948 11.4403C18.7948 11.4403 18.8382 13.3508 17.5134 14.6487C16.1884 15.9466 14.5611 15.828 13.5025 15.4695C12.4437 15.1111 11.079 14.2168 10.8149 12.3811C10.5508 10.5453 11.7458 9.05398 11.7458 9.05398L14.3497 5.81577L15.8663 3.96632L17.1681 2.35463C17.1681 2.35463 17.7655 1.55441 17.9358 1.38925C17.9695 1.35653 18.0041 1.33505 18.038 1.31852L18.0627 1.30591L18.0672 1.3042C18.1388 1.27335 18.2213 1.26671 18.3009 1.29364C18.3787 1.32006 18.4391 1.37357 18.4773 1.43953L18.4853 1.45232L18.4923 1.46698C18.5108 1.50209 18.5263 1.54214 18.5337 1.59157C18.5684 1.82626 18.557 2.82488 18.557 2.82488L18.6121 4.89573L18.6934 7.28616L18.7948 11.4403ZM22.1655 2.67214C26.9815 6.17725 29.1903 12.5383 27.1819 18.4877C24.7101 25.8095 16.7872 29.7357 9.48576 27.2572C2.18429 24.7785 -1.73091 16.8337 0.740758 9.51193C2.75249 3.55281 8.37502 -0.156665 14.3346 0.00508354L12.4243 2.26837C8.88883 2.90939 5.83622 5.33051 4.63642 8.88471C2.85125 14.1726 5.84335 19.9664 11.3195 21.8253C16.7956 23.6842 22.682 20.9045 24.4672 15.6166C25.6631 12.0742 24.7149 8.30504 22.3125 5.6436L22.1655 2.67214Z" fill="#145DBF"/>
<path d="M197.367 5.01562C196.294 5.01562 195.451 5.39583 194.836 6.15625C194.221 6.91667 193.914 7.96615 193.914 9.30469C193.914 10.7057 194.208 11.7656 194.797 12.4844C195.391 13.2031 196.247 13.5625 197.367 13.5625C197.852 13.5625 198.32 13.5156 198.773 13.4219C199.227 13.3229 199.698 13.1979 200.188 13.0469V14.6484C199.292 14.987 198.276 15.1562 197.141 15.1562C195.469 15.1562 194.185 14.651 193.289 13.6406C192.393 12.625 191.945 11.1745 191.945 9.28906C191.945 8.10156 192.161 7.0625 192.594 6.17188C193.031 5.28125 193.661 4.59896 194.484 4.125C195.307 3.65104 196.273 3.41406 197.383 3.41406C198.549 3.41406 199.628 3.65885 200.617 4.14844L199.945 5.70312C199.56 5.52083 199.151 5.36198 198.719 5.22656C198.292 5.08594 197.841 5.01562 197.367 5.01562Z" fill="#3D3C40" fill-opacity="0.48"/>
<path d="M204.289 15H202.453V2.84375H204.289V15Z" fill="#3D3C40" fill-opacity="0.48"/>
<path d="M214.586 10.6641C214.586 12.0755 214.224 13.1771 213.5 13.9688C212.776 14.7604 211.768 15.1562 210.477 15.1562C209.669 15.1562 208.956 14.974 208.336 14.6094C207.716 14.2448 207.24 13.7214 206.906 13.0391C206.573 12.3568 206.406 11.5651 206.406 10.6641C206.406 9.26302 206.766 8.16927 207.484 7.38281C208.203 6.59635 209.216 6.20312 210.523 6.20312C211.773 6.20312 212.763 6.60677 213.492 7.41406C214.221 8.21615 214.586 9.29948 214.586 10.6641ZM208.297 10.6641C208.297 12.6589 209.034 13.6562 210.508 13.6562C211.966 13.6562 212.695 12.6589 212.695 10.6641C212.695 8.6901 211.961 7.70312 210.492 7.70312C209.721 7.70312 209.161 7.95833 208.812 8.46875C208.469 8.97917 208.297 9.71094 208.297 10.6641Z" fill="#3D3C40" fill-opacity="0.48"/>
<path d="M222.797 15L222.539 13.8672H222.445C222.19 14.2682 221.826 14.5833 221.352 14.8125C220.883 15.0417 220.346 15.1562 219.742 15.1562C218.695 15.1562 217.914 14.8958 217.398 14.375C216.883 13.8542 216.625 13.0651 216.625 12.0078V6.35938H218.477V11.6875C218.477 12.349 218.612 12.8464 218.883 13.1797C219.154 13.5078 219.578 13.6719 220.156 13.6719C220.927 13.6719 221.492 13.4427 221.852 12.9844C222.216 12.5208 222.398 11.7474 222.398 10.6641V6.35938H224.242V15H222.797Z" fill="#3D3C40" fill-opacity="0.48"/>
<path d="M229.773 15.1562C228.695 15.1562 227.854 14.7656 227.25 13.9844C226.646 13.2031 226.344 12.1068 226.344 10.6953C226.344 9.27865 226.648 8.17708 227.258 7.39062C227.872 6.59896 228.721 6.20312 229.805 6.20312C230.94 6.20312 231.805 6.6224 232.398 7.46094H232.492C232.404 6.84115 232.359 6.35156 232.359 5.99219V2.84375H234.203V15H232.766L232.445 13.8672H232.359C231.771 14.7266 230.909 15.1562 229.773 15.1562ZM230.266 13.6719C231.021 13.6719 231.57 13.4609 231.914 13.0391C232.258 12.612 232.435 11.9219 232.445 10.9688V10.7109C232.445 9.6224 232.268 8.84896 231.914 8.39062C231.56 7.93229 231.005 7.70312 230.25 7.70312C229.604 7.70312 229.107 7.96615 228.758 8.49219C228.409 9.01302 228.234 9.75781 228.234 10.7266C228.234 11.6849 228.404 12.4167 228.742 12.9219C229.081 13.4219 229.589 13.6719 230.266 13.6719Z" fill="#3D3C40" fill-opacity="0.48"/>
<path d="M196.508 21.9414C196.508 22.6641 196.26 23.2207 195.766 23.6113C195.274 23.9987 194.569 24.1924 193.651 24.1924H192.812V27H191.981V19.8613H193.832C195.616 19.8613 196.508 20.5547 196.508 21.9414ZM192.812 23.4795H193.559C194.294 23.4795 194.826 23.3607 195.155 23.123C195.484 22.8854 195.648 22.5046 195.648 21.9805C195.648 21.5085 195.494 21.1569 195.185 20.9258C194.875 20.6947 194.394 20.5791 193.739 20.5791H192.812V23.4795Z" fill="#3D3C40" fill-opacity="0.48"/>
<path d="M199.637 24.0312V27H198.807V19.8613H200.765C201.64 19.8613 202.287 20.029 202.703 20.3643C203.123 20.6995 203.333 21.2041 203.333 21.8779C203.333 22.8219 202.855 23.46 201.898 23.792L203.836 27H202.855L201.126 24.0312H199.637ZM199.637 23.3184H200.775C201.361 23.3184 201.79 23.2028 202.064 22.9717C202.337 22.7373 202.474 22.3874 202.474 21.9219C202.474 21.4499 202.334 21.1097 202.054 20.9014C201.777 20.693 201.331 20.5889 200.716 20.5889H199.637V23.3184Z" fill="#3D3C40" fill-opacity="0.48"/>
<path d="M211.985 23.4209C211.985 24.5635 211.695 25.4619 211.116 26.1162C210.539 26.7705 209.737 27.0977 208.708 27.0977C207.657 27.0977 206.845 26.777 206.272 26.1357C205.702 25.4912 205.417 24.583 205.417 23.4111C205.417 22.249 205.704 21.349 206.277 20.7109C206.85 20.0697 207.663 19.749 208.718 19.749C209.744 19.749 210.544 20.0745 211.121 20.7256C211.697 21.3766 211.985 22.2751 211.985 23.4209ZM206.296 23.4209C206.296 24.3877 206.501 25.1217 206.912 25.623C207.325 26.1211 207.924 26.3701 208.708 26.3701C209.499 26.3701 210.097 26.1211 210.5 25.623C210.904 25.125 211.106 24.391 211.106 23.4209C211.106 22.4606 210.904 21.7331 210.5 21.2383C210.1 20.7402 209.506 20.4912 208.718 20.4912C207.927 20.4912 207.325 20.7419 206.912 21.2432C206.501 21.7412 206.296 22.4671 206.296 23.4209Z" fill="#3D3C40" fill-opacity="0.48"/>
<path d="M215.212 27H214.381V19.8613H218.361V20.5986H215.212V23.2109H218.171V23.9482H215.212V27Z" fill="#3D3C40" fill-opacity="0.48"/>
<path d="M224.327 27H220.347V19.8613H224.327V20.5986H221.178V22.8984H224.137V23.6309H221.178V26.2578H224.327V27Z" fill="#3D3C40" fill-opacity="0.48"/>
<path d="M230.742 25.1006C230.742 25.7288 230.514 26.2188 230.059 26.5703C229.603 26.9219 228.984 27.0977 228.203 27.0977C227.357 27.0977 226.706 26.9886 226.25 26.7705V25.9697C226.543 26.0934 226.862 26.1911 227.207 26.2627C227.552 26.3343 227.894 26.3701 228.232 26.3701C228.786 26.3701 229.202 26.266 229.482 26.0576C229.762 25.846 229.902 25.5531 229.902 25.1787C229.902 24.9313 229.852 24.7295 229.751 24.5732C229.653 24.4137 229.487 24.2673 229.253 24.1338C229.022 24.0003 228.669 23.849 228.193 23.6797C227.529 23.4421 227.054 23.1605 226.768 22.835C226.484 22.5094 226.343 22.0846 226.343 21.5605C226.343 21.0104 226.549 20.5726 226.963 20.2471C227.376 19.9215 227.923 19.7588 228.604 19.7588C229.313 19.7588 229.966 19.889 230.562 20.1494L230.303 20.8721C229.714 20.6247 229.141 20.501 228.584 20.501C228.145 20.501 227.801 20.5954 227.554 20.7842C227.306 20.973 227.183 21.235 227.183 21.5703C227.183 21.8177 227.228 22.0212 227.319 22.1807C227.41 22.3369 227.563 22.4818 227.778 22.6152C227.996 22.7454 228.328 22.8903 228.774 23.0498C229.523 23.3167 230.037 23.6032 230.317 23.9092C230.601 24.2152 230.742 24.6123 230.742 25.1006Z" fill="#3D3C40" fill-opacity="0.48"/>
<path d="M237.03 25.1006C237.03 25.7288 236.803 26.2188 236.347 26.5703C235.891 26.9219 235.273 27.0977 234.491 27.0977C233.645 27.0977 232.994 26.9886 232.538 26.7705V25.9697C232.831 26.0934 233.15 26.1911 233.495 26.2627C233.84 26.3343 234.182 26.3701 234.521 26.3701C235.074 26.3701 235.491 26.266 235.771 26.0576C236.051 25.846 236.191 25.5531 236.191 25.1787C236.191 24.9313 236.14 24.7295 236.039 24.5732C235.942 24.4137 235.776 24.2673 235.541 24.1338C235.31 24.0003 234.957 23.849 234.482 23.6797C233.818 23.4421 233.342 23.1605 233.056 22.835C232.773 22.5094 232.631 22.0846 232.631 21.5605C232.631 21.0104 232.838 20.5726 233.251 20.2471C233.665 19.9215 234.211 19.7588 234.892 19.7588C235.601 19.7588 236.254 19.889 236.85 20.1494L236.591 20.8721C236.002 20.6247 235.429 20.501 234.872 20.501C234.433 20.501 234.089 20.5954 233.842 20.7842C233.595 20.973 233.471 21.235 233.471 21.5703C233.471 21.8177 233.516 22.0212 233.608 22.1807C233.699 22.3369 233.852 22.4818 234.067 22.6152C234.285 22.7454 234.617 22.8903 235.063 23.0498C235.811 23.3167 236.326 23.6032 236.606 23.9092C236.889 24.2152 237.03 24.6123 237.03 25.1006Z" fill="#3D3C40" fill-opacity="0.48"/>
<path d="M239.29 27V19.8613H240.121V27H239.29Z" fill="#3D3C40" fill-opacity="0.48"/>
<path d="M249.08 23.4209C249.08 24.5635 248.79 25.4619 248.211 26.1162C247.634 26.7705 246.832 27.0977 245.803 27.0977C244.752 27.0977 243.94 26.777 243.367 26.1357C242.797 25.4912 242.512 24.583 242.512 23.4111C242.512 22.249 242.799 21.349 243.372 20.7109C243.945 20.0697 244.758 19.749 245.813 19.749C246.838 19.749 247.639 20.0745 248.215 20.7256C248.792 21.3766 249.08 22.2751 249.08 23.4209ZM243.391 23.4209C243.391 24.3877 243.596 25.1217 244.006 25.623C244.42 26.1211 245.019 26.3701 245.803 26.3701C246.594 26.3701 247.192 26.1211 247.595 25.623C247.999 25.125 248.201 24.391 248.201 23.4209C248.201 22.4606 247.999 21.7331 247.595 21.2383C247.195 20.7402 246.601 20.4912 245.813 20.4912C245.022 20.4912 244.42 20.7419 244.006 21.2432C243.596 21.7412 243.391 22.4671 243.391 23.4209Z" fill="#3D3C40" fill-opacity="0.48"/>
<path d="M257.053 27H256.105L252.204 21.0088H252.165C252.217 21.7119 252.243 22.3564 252.243 22.9424V27H251.476V19.8613H252.414L256.305 25.8281H256.345C256.338 25.7402 256.323 25.4587 256.301 24.9834C256.278 24.5049 256.27 24.1631 256.276 23.958V19.8613H257.053V27Z" fill="#3D3C40" fill-opacity="0.48"/>
<path d="M264.303 27L263.414 24.7295H260.553L259.674 27H258.834L261.656 19.832H262.354L265.162 27H264.303ZM263.155 23.9824L262.325 21.7705C262.218 21.4906 262.107 21.1471 261.993 20.7402C261.922 21.0527 261.819 21.3962 261.686 21.7705L260.846 23.9824H263.155Z" fill="#3D3C40" fill-opacity="0.48"/>
<path d="M266.944 27V19.8613H267.774V26.248H270.923V27H266.944Z" fill="#3D3C40" fill-opacity="0.48"/>
<line x1="181.5" y1="2.18557e-08" x2="181.5" y2="32" stroke="#3D3C40" stroke-opacity="0.32"/>
</svg>
