<?xml version="1.0" encoding="UTF-8" standalone="no"?>
<svg width="12px" height="12px" viewBox="0 0 12 12" version="1.1" xmlns="http://www.w3.org/2000/svg" xmlns:xlink="http://www.w3.org/1999/xlink">
    <!-- Generator: Sketch 41.2 (35397) - http://www.bohemiancoding.com/sketch -->
    <title>globe</title>
    <desc>Created with Sketch.</desc>
    <defs></defs>
    <g id="Page-1" stroke="none" stroke-width="1" fill="none" fill-rule="evenodd" opacity="0.400000006">
        <g id="Notification-Sidebar" transform="translate(-361.000000, -409.000000)" fill="#FFFFFF">
            <g id="Left_Sidebar" transform="translate(345.000000, 138.000000)">
                <g id="List" transform="translate(0.000000, 76.000000)">
                    <g id="Profile_Default" transform="translate(0.000000, 186.000000)">
                        <path d="M25.2432143,16.6343571 C25.3190714,16.116 25.3625714,15.5697857 25.3625714,15 C25.3625714,14.5512857 25.3355714,14.1169286 25.288,13.6986429 C26.4432143,13.56 26.9542857,13.3864286 26.9881429,13.3744286 L26.8675,13.0335 C27.1143571,13.6418571 27.2532143,14.3044286 27.2532143,15 C27.2532143,15.6820714 27.1184286,16.3324286 26.8805714,16.9307143 C26.6742143,16.8705 26.1552143,16.7415 25.2432143,16.6343571 L25.2432143,16.6343571 Z M24.0817857,19.821 C24.5311429,19.1961429 24.8892143,18.3576429 25.1101429,17.3721429 C25.8492143,17.4574286 26.3144286,17.5562143 26.5490714,17.6155714 C25.9863571,18.5905714 25.1223571,19.3699286 24.0817857,19.821 L24.0817857,19.821 Z M22.4277143,20.1953571 L22.4277143,17.2185 C23.0705714,17.226 23.8533571,17.2564286 24.4038571,17.2988571 C24.0224286,18.8217857 23.0705714,19.9465714 22.4277143,20.1953571 L22.4277143,20.1953571 Z M22.4277143,13.8670714 C23.0705714,13.8589286 23.9716429,13.8233571 24.5699286,13.7736429 C24.6192143,14.1694286 24.6316429,14.5789286 24.6316429,15 C24.6316429,15.5406429 24.6125714,16.0652143 24.5326429,16.5608571 C23.9437857,16.5135 23.0705714,16.4792143 22.4277143,16.4712857 L22.4277143,13.8670714 Z M22.4277143,9.80464286 C23.0705714,10.0716429 24.13,11.3432143 24.4822857,13.0345714 C23.9167857,13.0795714 23.0705714,13.1123571 22.4277143,13.1202857 L22.4277143,9.80464286 Z M26.7063571,12.6805714 C26.5891429,12.7167857 26.1140714,12.849 25.1750714,12.9604286 C24.9629286,11.8332857 24.5804286,10.8728571 24.0817857,10.1794286 C25.2254286,10.6750714 26.1552143,11.5673571 26.7063571,12.6805714 L26.7063571,12.6805714 Z M21.5705714,13.1200714 C20.9277143,13.1121429 20.0872857,13.0795714 19.5127857,13.0356429 C19.8715,11.3652857 20.9277143,10.1048571 21.5705714,9.81578571 L21.5705714,13.1200714 Z M21.5705714,16.4712857 C20.9277143,16.4796429 20.0527857,16.5126429 19.4562143,16.5589286 C19.3741429,16.0639286 19.3507857,15.5402143 19.3507857,15 C19.3507857,14.58 19.3591429,14.1711429 19.4097143,13.7762143 C20.0155,13.824 20.9277143,13.8585 21.5705714,13.8670714 L21.5705714,16.4712857 Z M21.5705714,20.1842143 C20.9277143,19.9150714 19.981,18.8001429 19.5931429,17.2971429 C20.1509286,17.2557857 20.9277143,17.226 21.5705714,17.2185 L21.5705714,20.1842143 Z M17.4307857,17.5817143 C17.7027143,17.5238571 18.1895714,17.4364286 18.9089286,17.3612143 C19.1922143,18.4086429 19.6527143,19.2936429 20.2040714,19.9298571 C19.0250714,19.4991429 18.0427857,18.6606429 17.4307857,17.5817143 L17.4307857,17.5817143 Z M16.7472143,15 C16.7472143,14.4497143 16.8331429,13.9191429 16.9906429,13.4205 C17.1335714,13.4595 17.6808571,13.5945 18.6937857,13.7067857 C18.6357143,14.1225 18.6025,14.5542857 18.6025,15 C18.6025,15.5663571 18.6567143,16.1093571 18.7486429,16.6255714 C17.8797143,16.7198571 17.3446429,16.8310714 17.1044286,16.8893571 C16.8768571,16.3022143 16.7472143,15.6666429 16.7472143,15 L16.7472143,15 Z M20.2040714,10.0701429 C19.5961429,10.7719286 19.1026429,11.7792857 18.8313571,12.969 C17.9883571,12.8772857 17.4796429,12.7707857 17.2745714,12.7215 C17.8666429,11.4979286 18.9172857,10.5407143 20.2040714,10.0701429 L20.2040714,10.0701429 Z M22.3638571,9.01864286 C22.2974286,9.01092857 22.2312143,9 22.1637143,9 C22.1442143,9 22.1247143,9.00492857 22.1052143,9.00557143 C22.0700714,9.00492857 22.0355714,9 22,9 C18.6918571,9 16,11.6918571 16,15 C16,18.3085714 18.6918571,21 22,21 C22.0355714,21 22.0700714,20.9952857 22.1052143,20.9944286 C22.1247143,20.9952857 22.1442143,21 22.1637143,21 C22.2312143,21 22.2974286,20.9890714 22.3638571,20.9813571 C25.5027143,20.7919286 28,18.1855714 28,15 C28,11.8144286 25.5027143,9.20807143 22.3638571,9.01864286 L22.3638571,9.01864286 Z" id="globe"></path>
                    </g>
                </g>
            </g>
        </g>
    </g>
</svg>