<?xml version="1.0" encoding="UTF-8" standalone="no"?>
<svg width="10px" height="12px" viewBox="0 0 10 12" version="1.1" xmlns="http://www.w3.org/2000/svg" xmlns:xlink="http://www.w3.org/1999/xlink">
    <!-- Generator: Sketch 41.2 (35397) - http://www.bohemiancoding.com/sketch -->
    <title>lock</title>
    <desc>Created with Sketch.</desc>
    <defs></defs>
    <g id="Page-1" stroke="none" stroke-width="1" fill="none" fill-rule="evenodd" opacity="0.400000006">
        <g id="Notification-Sidebar" transform="translate(-362.000000, -475.000000)" fill="#FFFFFF">
            <g id="Left_Sidebar" transform="translate(345.000000, 138.000000)">
                <g id="List" transform="translate(0.000000, 76.000000)">
                    <g id="Profile_Default" transform="translate(0.000000, 252.000000)">
                        <g id="lock" transform="translate(17.000000, 9.000000)">
                            <path d="M8.18181818,12.0000534 L0.909090909,12.0000534 C0.407272727,12.0000534 0,11.6160534 0,11.1429106 L0,6.85719629 C0,6.38405343 0.407272727,6.00005343 0.909090909,6.00005343 L8.18181818,6.00005343 C8.68363636,6.00005343 9.09090909,6.38405343 9.09090909,6.85719629 L9.09090909,11.1429106 C9.09090909,11.6160534 8.68363636,12.0000534 8.18181818,12.0000534 L8.18181818,12.0000534 Z M7.27272727,4.80005343 L7.27272727,2.64005343 C7.27272727,1.12462486 5.94636364,-0.0968037116 4.35909091,0.00605343129 C2.91090909,0.0994820027 1.81818182,1.32862486 1.81818182,2.733482 L1.81818182,4.80005343 C1.81818182,4.989482 1.97636364,5.14291057 2.17181818,5.14291057 L3.28181818,5.14291057 C3.47727273,5.14291057 3.63636364,4.989482 3.63636364,4.80005343 L3.63636364,2.571482 C3.63636364,1.869482 3.86363636,1.71433915 4.54545455,1.71433915 C5.28454545,1.71433915 5.45454545,1.91491057 5.45454545,2.571482 L5.45454545,4.80005343 C5.45454545,4.989482 5.61272727,5.14291057 5.80909091,5.14291057 L6.91818182,5.14291057 C7.11363636,5.14291057 7.27272727,4.989482 7.27272727,4.80005343 L7.27272727,4.80005343 Z"></path>
                        </g>
                    </g>
                </g>
            </g>
        </g>
    </g>
</svg>