<?xml version="1.0" encoding="UTF-8"?>
<svg width="338px" height="338px" viewBox="0 0 338 338" version="1.1" xmlns="http://www.w3.org/2000/svg" xmlns:xlink="http://www.w3.org/1999/xlink">
    <!-- Generator: Sketch 45.2 (43514) - http://www.bohemiancoding.com/sketch -->
    <title>ic_canvas_border</title>
    <desc>Created with Sketch.</desc>
    <defs></defs>
    <g id="Page-1" stroke="none" stroke-width="1" fill="none" fill-rule="evenodd">
        <g id="ic_canvas_border" fill-rule="nonzero" fill="#CACACA">
            <path d="M211.926,0 C214.968,0 214.968,3.38 211.926,3.38 L129.116,3.38 C126.412,3.38 126.412,0 129.116,0 L211.926,0 Z M334.62,35.152 C334.62,17.576 320.086,3.38 302.51,3.38 L259.922,3.38 C257.218,3.38 257.218,-1.77635684e-15 259.922,-1.77635684e-15 L302.51,-1.77635684e-15 C322.114,7.67561597e-17 338,15.886 338,35.152 L338,79.092 C338,82.134 334.62,82.134 334.62,79.092 L334.62,35.152 Z M338,210.236 C338,212.94 334.62,212.94 334.62,210.236 L334.62,127.426 C334.62,124.722 338,124.722 338,127.426 L338,210.236 Z M129.116,334.62 L211.926,334.62 C212.762543,334.701215 213.402239,335.433539 213.402239,336.31 C213.402239,337.186461 212.762543,337.918785 211.926,338 L129.116,338 C126.412,338 126.412,334.62 129.116,334.62 L129.116,334.62 Z M0,127.426 C0,124.722 3.38,124.722 3.38,127.426 L3.38,210.236 C3.38,212.602 0,212.94 0,210.236 L0,127.426 Z M35.49,-1.77635684e-15 L81.12,-1.77635684e-15 C83.824,-1.77635684e-15 83.824,3.38 81.12,3.38 L35.49,3.38 C17.914,3.38 3.38,17.576 3.38,35.152 L3.38,79.092 C3.38,82.134 0,82.134 0,79.092 L0,35.152 C-2.66453526e-15,15.886 15.886,-1.77635684e-15 35.49,-1.77635684e-15 Z M35.49,334.62 L81.12,334.62 C81.9565428,334.701215 82.5962386,335.433539 82.5962386,336.31 C82.5962386,337.186461 81.9565428,337.918785 81.12,338 L35.49,338 C15.886,338 0,322.114 0,302.848 L0,258.232 C0,255.528 3.38,255.528 3.38,258.232 L3.38,302.848 C3.38,320.424 17.914,334.62 35.49,334.62 Z M334.62,258.232 C334.62,255.528 338,255.528 338,258.232 L338,302.848 C338,322.114 322.114,338 302.51,338 L259.922,338 C257.218,338 257.218,334.62 259.922,334.62 L302.51,334.62 C320.086,334.62 334.62,320.424 334.62,302.848 L334.62,258.232 L334.62,258.232 Z" id="Shape"></path>
        </g>
    </g>
</svg>