<svg xmlns="http://www.w3.org/2000/svg" width="100" height="100" viewBox="0 0 20 20" enable-background="new 0 0 20 20" version="1.1" xml:space="preserve" stroke-linejoin="round">
  <g transform="matrix(0.952381,0,0,1,0,0)">
    <path  fill="#626f84" d="M10.5 11.7L2.2 19.8C2 19.9 1.9 20 1.7 20 1.6 20 1.4 19.9 1.3 19.8L0.2 18.8C0.1 18.7 0 18.5 0 18.3 0 18.2 0.1 18 0.2 17.9L8.3 10 0.2 2.1C0.1 2 0 1.8 0 1.7 0 1.5 0.1 1.3 0.2 1.2L1.3 0.2C1.4 0.1 1.6 0 1.7 0 1.9 0 2 0.1 2.2 0.2L10.5 8.3 18.8 0.2C19 0.1 19.1 0 19.3 0 19.4 0 19.6 0.1 19.7 0.2L20.8 1.2C20.9 1.3 21 1.5 21 1.7 21 1.8 20.9 2 20.8 2.1L12.7 10 20.8 17.9C20.9 18 21 18.2 21 18.3 21 18.5 20.9 18.7 20.8 18.8L19.7 19.8C19.6 19.9 19.4 20 19.3 20 19.1 20 19 19.9 18.8 19.8L10.5 11.7Z"/>
  </g>
</svg>
