<svg xmlns="http://www.w3.org/2000/svg" width="56" height="64" viewBox="0 0 56 64">
    <path fill="#CACACA" fill-rule="nonzero" d="M54.415 62h-46.3l10.2-2.9c.3-.1.5-.3.6-.5l35.5-42.4c1-1.2 1.5-2.8 1.4-4.4-.1-1.6-.9-3-2.1-4l-7.7-6.5c-1.1-.8-2.4-1.3-3.8-1.3-1.8 0-3.4.8-4.6 2.1l-35.5 42.4c-.2.2-.4.4-.4.7L.015 63c-.1.1.3 1 1 1h53.4c.5 0 1-.4 1-1s-.4-1-1-1zm-18.2-55.1l13.8 11.6-8 9.5-2.6-10c-.1-.4-.5-.7-.9-.7l-10.3-.9 8-9.5zm-9.5 11.4l11 1 2.9 10.6-22.7 26.9-13.8-11.6 22.6-26.9zm-23.2 29l12.5 10.5-7.3 2.1-5.9-5 .7-7.6z"/>
</svg>
