<?xml version="1.0" encoding="UTF-8" standalone="no"?>
<!DOCTYPE svg PUBLIC "-//W3C//DTD SVG 1.1//EN" "http://www.w3.org/Graphics/SVG/1.1/DTD/svg11.dtd">
<svg width="100%" height="100%" viewBox="0 0 22 22" version="1.1" xmlns="http://www.w3.org/2000/svg" xmlns:xlink="http://www.w3.org/1999/xlink" xml:space="preserve" style="fill:#ffffff;fill-rule:evenodd;clip-rule:evenodd;stroke-linejoin:round;stroke-miterlimit:1.41421;">
    <path d="M11.142,0.001L11.284,0.004L11.425,0.008L11.566,0.014L11.706,0.022L11.846,0.032L11.986,0.044L12.125,0.057L12.263,0.072L12.401,0.088L12.538,0.107L12.675,0.127L12.811,0.148L12.947,0.172L13.082,0.197L13.217,0.223L13.351,0.252L13.484,0.282L13.617,0.313L13.749,0.346L13.881,0.381L14.011,0.417L14.142,0.455L14.271,0.495L14.4,0.535L14.528,0.578L14.655,0.622L14.782,0.667L14.908,0.714L15.033,0.763L15.158,0.813L15.282,0.864L15.405,0.917L15.527,0.972L15.648,1.027L15.769,1.085L15.889,1.143L16.008,1.203L16.126,1.265L16.243,1.328L16.36,1.392L16.475,1.457L16.59,1.524L16.704,1.593L16.817,1.662L16.929,1.733L17.04,1.805L17.15,1.879L17.259,1.953L17.368,2.029L17.475,2.107L17.581,2.185L17.687,2.265L17.791,2.346L17.895,2.428L17.997,2.512L18.098,2.597L18.199,2.682L18.298,2.769L18.396,2.858L18.493,2.947L18.589,3.037L18.684,3.129L18.778,3.222L18.871,3.316L18.963,3.411L19.053,3.507L19.142,3.604L19.231,3.702L19.318,3.801L19.403,3.902L19.488,4.003L19.572,4.105L19.654,4.209L19.735,4.313L19.815,4.419L19.893,4.525L19.971,4.632L20.047,4.741L20.121,4.85L20.195,4.96L20.267,5.071L20.338,5.183L20.407,5.296L20.476,5.41L20.543,5.525L20.608,5.64L20.672,5.757L20.735,5.874L20.797,5.992L20.857,6.111L20.915,6.231L20.973,6.352L21.028,6.473L21.083,6.595L21.136,6.718L21.187,6.842L21.237,6.967L21.286,7.092L21.333,7.218L21.378,7.345L21.422,7.472L21.465,7.6L21.505,7.729L21.545,7.858L21.583,7.989L21.619,8.119L21.654,8.251L21.687,8.383L21.718,8.516L21.748,8.649L21.777,8.783L21.803,8.918L21.828,9.053L21.852,9.189L21.873,9.325L21.893,9.462L21.912,9.599L21.928,9.737L21.943,9.875L21.956,10.014L21.968,10.154L21.978,10.294L21.986,10.434L21.992,10.575L21.996,10.716L21.999,10.858L22,11L21.999,11.142L21.996,11.284L21.992,11.425L21.986,11.566L21.978,11.706L21.968,11.846L21.956,11.986L21.943,12.125L21.928,12.263L21.912,12.401L21.893,12.538L21.873,12.675L21.852,12.811L21.828,12.947L21.803,13.082L21.777,13.217L21.748,13.351L21.718,13.484L21.687,13.617L21.654,13.749L21.619,13.881L21.583,14.011L21.545,14.142L21.505,14.271L21.465,14.4L21.422,14.528L21.378,14.655L21.333,14.782L21.286,14.908L21.237,15.033L21.187,15.158L21.136,15.282L21.083,15.405L21.028,15.527L20.973,15.648L20.915,15.769L20.857,15.889L20.797,16.008L20.735,16.126L20.672,16.243L20.608,16.36L20.543,16.475L20.476,16.59L20.407,16.704L20.338,16.817L20.267,16.929L20.195,17.04L20.121,17.15L20.047,17.259L19.971,17.368L19.893,17.475L19.815,17.581L19.735,17.687L19.654,17.791L19.572,17.895L19.488,17.997L19.403,18.098L19.318,18.199L19.231,18.298L19.142,18.396L19.053,18.493L18.963,18.589L18.871,18.684L18.778,18.778L18.684,18.871L18.589,18.963L18.493,19.053L18.396,19.142L18.298,19.231L18.199,19.318L18.098,19.403L17.997,19.488L17.895,19.572L17.791,19.654L17.687,19.735L17.581,19.815L17.475,19.893L17.368,19.971L17.259,20.047L17.15,20.121L17.04,20.195L16.929,20.267L16.817,20.338L16.704,20.407L16.59,20.476L16.475,20.543L16.36,20.608L16.243,20.672L16.126,20.735L16.008,20.797L15.889,20.857L15.769,20.915L15.648,20.973L15.527,21.028L15.405,21.083L15.282,21.136L15.158,21.187L15.033,21.237L14.908,21.286L14.782,21.333L14.655,21.378L14.528,21.422L14.4,21.465L14.271,21.505L14.142,21.545L14.011,21.583L13.881,21.619L13.749,21.654L13.617,21.687L13.484,21.718L13.351,21.748L13.217,21.777L13.082,21.803L12.947,21.828L12.811,21.852L12.675,21.873L12.538,21.893L12.401,21.912L12.263,21.928L12.125,21.943L11.986,21.956L11.846,21.968L11.706,21.978L11.566,21.986L11.425,21.992L11.284,21.996L11.142,21.999L11,22L10.858,21.999L10.716,21.996L10.575,21.992L10.434,21.986L10.294,21.978L10.154,21.968L10.014,21.956L9.875,21.943L9.737,21.928L9.599,21.912L9.462,21.893L9.325,21.873L9.189,21.852L9.053,21.828L8.918,21.803L8.783,21.777L8.649,21.748L8.516,21.718L8.383,21.687L8.251,21.654L8.119,21.619L7.989,21.583L7.858,21.545L7.729,21.505L7.6,21.465L7.472,21.422L7.345,21.378L7.218,21.333L7.092,21.286L6.967,21.237L6.842,21.187L6.718,21.136L6.595,21.083L6.473,21.028L6.352,20.973L6.231,20.915L6.111,20.857L5.992,20.797L5.874,20.735L5.757,20.672L5.64,20.608L5.525,20.543L5.41,20.476L5.296,20.407L5.183,20.338L5.071,20.267L4.96,20.195L4.85,20.121L4.741,20.047L4.632,19.971L4.525,19.893L4.419,19.815L4.313,19.735L4.209,19.654L4.105,19.572L4.003,19.488L3.902,19.403L3.801,19.318L3.702,19.231L3.604,19.142L3.507,19.053L3.411,18.963L3.316,18.871L3.222,18.778L3.129,18.684L3.037,18.589L2.947,18.493L2.858,18.396L2.769,18.298L2.682,18.199L2.597,18.098L2.512,17.997L2.428,17.895L2.346,17.791L2.265,17.687L2.185,17.581L2.107,17.475L2.029,17.368L1.953,17.259L1.879,17.15L1.805,17.04L1.733,16.929L1.662,16.817L1.593,16.704L1.524,16.59L1.457,16.475L1.392,16.36L1.328,16.243L1.265,16.126L1.203,16.008L1.143,15.889L1.085,15.769L1.027,15.648L0.972,15.527L0.917,15.405L0.864,15.282L0.813,15.158L0.763,15.033L0.714,14.908L0.667,14.782L0.622,14.655L0.578,14.528L0.535,14.4L0.495,14.271L0.455,14.142L0.417,14.011L0.381,13.881L0.346,13.749L0.313,13.617L0.282,13.484L0.252,13.351L0.223,13.217L0.197,13.082L0.172,12.947L0.148,12.811L0.127,12.675L0.107,12.538L0.088,12.401L0.072,12.263L0.057,12.125L0.044,11.986L0.032,11.846L0.022,11.706L0.014,11.566L0.008,11.425L0.004,11.284L0.001,11.142L0,11L0.001,10.858L0.004,10.716L0.008,10.575L0.014,10.434L0.022,10.294L0.032,10.154L0.044,10.014L0.057,9.875L0.072,9.737L0.088,9.599L0.107,9.462L0.127,9.325L0.148,9.189L0.172,9.053L0.197,8.918L0.223,8.783L0.252,8.649L0.282,8.516L0.313,8.383L0.346,8.251L0.381,8.119L0.417,7.989L0.455,7.858L0.495,7.729L0.535,7.6L0.578,7.472L0.622,7.345L0.667,7.218L0.714,7.092L0.763,6.967L0.813,6.842L0.864,6.718L0.917,6.595L0.972,6.473L1.027,6.352L1.085,6.231L1.143,6.111L1.203,5.992L1.265,5.874L1.328,5.757L1.392,5.64L1.457,5.525L1.524,5.41L1.593,5.296L1.662,5.183L1.733,5.071L1.805,4.96L1.879,4.85L1.953,4.741L2.029,4.632L2.107,4.525L2.185,4.419L2.265,4.313L2.346,4.209L2.428,4.105L2.512,4.003L2.597,3.902L2.682,3.801L2.769,3.702L2.858,3.604L2.947,3.507L3.037,3.411L3.129,3.316L3.222,3.222L3.316,3.129L3.411,3.037L3.507,2.947L3.604,2.858L3.702,2.769L3.801,2.682L3.902,2.597L4.003,2.512L4.105,2.428L4.209,2.346L4.313,2.265L4.419,2.185L4.525,2.107L4.632,2.029L4.741,1.953L4.85,1.879L4.96,1.805L5.071,1.733L5.183,1.662L5.296,1.593L5.41,1.524L5.525,1.457L5.64,1.392L5.757,1.328L5.874,1.265L5.992,1.203L6.111,1.143L6.231,1.085L6.352,1.027L6.473,0.972L6.595,0.917L6.718,0.864L6.842,0.813L6.967,0.763L7.092,0.714L7.218,0.667L7.345,0.622L7.472,0.578L7.6,0.535L7.729,0.495L7.858,0.455L7.989,0.417L8.119,0.381L8.251,0.346L8.383,0.313L8.516,0.282L8.649,0.252L8.783,0.223L8.918,0.197L9.053,0.172L9.189,0.148L9.325,0.127L9.462,0.107L9.599,0.088L9.737,0.072L9.875,0.057L10.014,0.044L10.154,0.032L10.294,0.022L10.434,0.014L10.575,0.008L10.716,0.004L10.858,0.001L11,0L11.142,0.001ZM10.875,1.334L10.75,1.337L10.625,1.34L10.501,1.346L10.378,1.353L10.255,1.362L10.132,1.372L10.01,1.383L9.888,1.396L9.767,1.411L9.646,1.427L9.526,1.445L9.406,1.464L9.287,1.484L9.169,1.506L9.05,1.53L8.933,1.555L8.816,1.581L8.699,1.609L8.583,1.638L8.468,1.668L8.353,1.7L8.239,1.733L8.125,1.768L8.012,1.804L7.899,1.841L7.788,1.88L7.676,1.92L7.566,1.961L7.456,2.003L7.346,2.047L7.238,2.092L7.13,2.139L7.022,2.187L6.916,2.236L6.81,2.286L6.705,2.337L6.6,2.39L6.496,2.444L6.393,2.499L6.291,2.556L6.189,2.613L6.089,2.672L5.988,2.732L5.889,2.793L5.791,2.855L5.693,2.919L5.596,2.983L5.5,3.049L5.405,3.116L5.311,3.184L5.217,3.253L5.124,3.323L5.033,3.395L4.942,3.467L4.852,3.54L4.763,3.615L4.674,3.69L4.587,3.767L4.501,3.844L4.415,3.923L4.331,4.002L4.247,4.083L4.165,4.165L4.083,4.247L4.002,4.331L3.923,4.415L3.844,4.501L3.767,4.587L3.69,4.674L3.615,4.763L3.54,4.852L3.467,4.942L3.395,5.033L3.323,5.124L3.253,5.217L3.184,5.311L3.116,5.405L3.049,5.5L2.983,5.596L2.919,5.693L2.855,5.791L2.793,5.889L2.732,5.988L2.672,6.089L2.613,6.189L2.556,6.291L2.499,6.393L2.444,6.496L2.39,6.6L2.337,6.705L2.286,6.81L2.236,6.916L2.187,7.022L2.139,7.13L2.092,7.238L2.047,7.346L2.003,7.456L1.961,7.566L1.92,7.676L1.88,7.788L1.841,7.899L1.804,8.012L1.768,8.125L1.733,8.239L1.7,8.353L1.668,8.468L1.638,8.583L1.609,8.699L1.581,8.816L1.555,8.933L1.53,9.05L1.506,9.169L1.484,9.287L1.464,9.406L1.445,9.526L1.427,9.646L1.411,9.767L1.396,9.888L1.383,10.01L1.372,10.132L1.362,10.255L1.353,10.378L1.346,10.501L1.34,10.625L1.337,10.75L1.334,10.875L1.333,11L1.334,11.125L1.337,11.25L1.34,11.375L1.346,11.499L1.353,11.622L1.362,11.745L1.372,11.868L1.383,11.99L1.396,12.112L1.411,12.233L1.427,12.354L1.445,12.474L1.464,12.594L1.484,12.713L1.506,12.831L1.53,12.95L1.555,13.067L1.581,13.184L1.609,13.301L1.638,13.417L1.668,13.532L1.7,13.647L1.733,13.761L1.768,13.875L1.804,13.988L1.841,14.101L1.88,14.212L1.92,14.324L1.961,14.434L2.003,14.544L2.047,14.654L2.092,14.762L2.139,14.87L2.187,14.978L2.236,15.084L2.286,15.19L2.337,15.295L2.39,15.4L2.444,15.504L2.499,15.607L2.556,15.709L2.613,15.811L2.672,15.911L2.732,16.012L2.793,16.111L2.855,16.209L2.919,16.307L2.983,16.404L3.049,16.5L3.116,16.595L3.184,16.689L3.253,16.783L3.323,16.876L3.395,16.967L3.467,17.058L3.54,17.148L3.615,17.237L3.69,17.326L3.767,17.413L3.844,17.499L3.923,17.585L4.002,17.669L4.083,17.753L4.165,17.835L4.247,17.917L4.331,17.998L4.415,18.077L4.501,18.156L4.587,18.233L4.674,18.31L4.763,18.385L4.852,18.46L4.942,18.533L5.033,18.605L5.124,18.677L5.217,18.747L5.311,18.816L5.405,18.884L5.5,18.951L5.596,19.017L5.693,19.081L5.791,19.145L5.889,19.207L5.988,19.268L6.089,19.328L6.189,19.387L6.291,19.444L6.393,19.501L6.496,19.556L6.6,19.61L6.705,19.663L6.81,19.714L6.916,19.764L7.022,19.813L7.13,19.861L7.238,19.908L7.346,19.953L7.456,19.997L7.566,20.039L7.676,20.08L7.788,20.12L7.899,20.159L8.012,20.196L8.125,20.232L8.239,20.267L8.353,20.3L8.468,20.332L8.583,20.362L8.699,20.391L8.816,20.419L8.933,20.445L9.05,20.47L9.169,20.494L9.287,20.516L9.406,20.536L9.526,20.555L9.646,20.573L9.767,20.589L9.888,20.604L10.01,20.617L10.132,20.628L10.255,20.638L10.378,20.647L10.501,20.654L10.625,20.66L10.75,20.663L10.875,20.666L11,20.667L11.125,20.666L11.25,20.663L11.375,20.66L11.499,20.654L11.622,20.647L11.745,20.638L11.868,20.628L11.99,20.617L12.112,20.604L12.233,20.589L12.354,20.573L12.474,20.555L12.594,20.536L12.713,20.516L12.831,20.494L12.95,20.47L13.067,20.445L13.184,20.419L13.301,20.391L13.417,20.362L13.532,20.332L13.647,20.3L13.761,20.267L13.875,20.232L13.988,20.196L14.101,20.159L14.212,20.12L14.324,20.08L14.434,20.039L14.544,19.997L14.654,19.953L14.762,19.908L14.87,19.861L14.978,19.813L15.084,19.764L15.19,19.714L15.295,19.663L15.4,19.61L15.504,19.556L15.607,19.501L15.709,19.444L15.811,19.387L15.911,19.328L16.012,19.268L16.111,19.207L16.209,19.145L16.307,19.081L16.404,19.017L16.5,18.951L16.595,18.884L16.689,18.816L16.783,18.747L16.876,18.677L16.967,18.605L17.058,18.533L17.148,18.46L17.237,18.385L17.326,18.31L17.413,18.233L17.499,18.156L17.585,18.077L17.669,17.998L17.753,17.917L17.835,17.835L17.917,17.753L17.998,17.669L18.077,17.585L18.156,17.499L18.233,17.413L18.31,17.326L18.385,17.237L18.46,17.148L18.533,17.058L18.605,16.967L18.677,16.876L18.747,16.783L18.816,16.689L18.884,16.595L18.951,16.5L19.017,16.404L19.081,16.307L19.145,16.209L19.207,16.111L19.268,16.012L19.328,15.911L19.387,15.811L19.444,15.709L19.501,15.607L19.556,15.504L19.61,15.4L19.663,15.295L19.714,15.19L19.764,15.084L19.813,14.978L19.861,14.87L19.908,14.762L19.953,14.654L19.997,14.544L20.039,14.434L20.08,14.324L20.12,14.212L20.159,14.101L20.196,13.988L20.232,13.875L20.267,13.761L20.3,13.647L20.332,13.532L20.362,13.417L20.391,13.301L20.419,13.184L20.445,13.067L20.47,12.95L20.494,12.831L20.516,12.713L20.536,12.594L20.555,12.474L20.573,12.354L20.589,12.233L20.604,12.112L20.617,11.99L20.628,11.868L20.638,11.745L20.647,11.622L20.654,11.499L20.66,11.375L20.663,11.25L20.666,11.125L20.667,11L20.666,10.875L20.663,10.75L20.66,10.625L20.654,10.501L20.647,10.378L20.638,10.255L20.628,10.132L20.617,10.01L20.604,9.888L20.589,9.767L20.573,9.646L20.555,9.526L20.536,9.406L20.516,9.287L20.494,9.169L20.47,9.05L20.445,8.933L20.419,8.816L20.391,8.699L20.362,8.583L20.332,8.468L20.3,8.353L20.267,8.239L20.232,8.125L20.196,8.012L20.159,7.899L20.12,7.788L20.08,7.676L20.039,7.566L19.997,7.456L19.953,7.346L19.908,7.238L19.861,7.13L19.813,7.022L19.764,6.916L19.714,6.81L19.663,6.705L19.61,6.6L19.556,6.496L19.501,6.393L19.444,6.291L19.387,6.189L19.328,6.089L19.268,5.988L19.207,5.889L19.145,5.791L19.081,5.693L19.017,5.596L18.951,5.5L18.884,5.405L18.816,5.311L18.747,5.217L18.677,5.124L18.605,5.033L18.533,4.942L18.46,4.852L18.385,4.763L18.31,4.674L18.233,4.587L18.156,4.501L18.077,4.415L17.998,4.331L17.917,4.247L17.835,4.165L17.753,4.083L17.669,4.002L17.585,3.923L17.499,3.844L17.413,3.767L17.326,3.69L17.237,3.615L17.148,3.54L17.058,3.467L16.967,3.395L16.876,3.323L16.783,3.253L16.689,3.184L16.595,3.116L16.5,3.049L16.404,2.983L16.307,2.919L16.209,2.855L16.111,2.793L16.012,2.732L15.911,2.672L15.811,2.613L15.709,2.556L15.607,2.499L15.504,2.444L15.4,2.39L15.295,2.337L15.19,2.286L15.084,2.236L14.978,2.187L14.87,2.139L14.762,2.092L14.654,2.047L14.544,2.003L14.434,1.961L14.324,1.92L14.212,1.88L14.101,1.841L13.988,1.804L13.875,1.768L13.761,1.733L13.647,1.7L13.532,1.668L13.417,1.638L13.301,1.609L13.184,1.581L13.067,1.555L12.95,1.53L12.831,1.506L12.713,1.484L12.594,1.464L12.474,1.445L12.354,1.427L12.233,1.411L12.112,1.396L11.99,1.383L11.868,1.372L11.745,1.362L11.622,1.353L11.499,1.346L11.375,1.34L11.25,1.337L11.125,1.334L11,1.333L10.875,1.334Z"/>
    <g>
        <path d="M17,13C16.989,15.194 14.305,16.973 11,16.973C7.695,16.973 5.011,15.194 5,13L17,13ZM6.504,7C7.334,7 8.008,7.674 8.008,8.504C8.008,9.334 7.334,10.008 6.504,10.008C5.674,10.008 5,9.334 5,8.504C5,7.674 5.674,7 6.504,7ZM15.504,7C16.334,7 17.008,7.674 17.008,8.504C17.008,9.334 16.334,10.008 15.504,10.008C14.674,10.008 14,9.334 14,8.504C14,7.674 14.674,7 15.504,7Z"/>
        <path d="M16.999,13.051L16.997,13.103L16.995,13.154L16.991,13.204L16.987,13.255L16.981,13.306L16.974,13.356L16.967,13.406L16.959,13.456L16.949,13.506L16.939,13.556L16.928,13.605L16.916,13.654L16.903,13.703L16.889,13.752L16.875,13.801L16.859,13.849L16.842,13.897L16.825,13.945L16.807,13.993L16.788,14.04L16.768,14.088L16.747,14.135L16.725,14.181L16.703,14.228L16.68,14.274L16.655,14.32L16.63,14.366L16.605,14.411L16.578,14.457L16.551,14.502L16.523,14.546L16.494,14.591L16.464,14.635L16.433,14.679L16.402,14.722L16.37,14.766L16.337,14.809L16.303,14.851L16.269,14.894L16.234,14.936L16.198,14.977L16.162,15.019L16.124,15.06L16.048,15.141L15.968,15.221L15.886,15.3L15.801,15.377L15.713,15.453L15.622,15.527L15.529,15.6L15.434,15.671L15.336,15.741L15.235,15.809L15.132,15.876L15.027,15.941L14.919,16.004L14.809,16.066L14.697,16.125L14.583,16.183L14.466,16.24L14.348,16.294L14.227,16.347L14.105,16.398L13.98,16.446L13.854,16.493L13.725,16.538L13.595,16.581L13.464,16.622L13.33,16.661L13.195,16.697L13.058,16.732L12.92,16.764L12.78,16.794L12.639,16.822L12.496,16.848L12.352,16.871L12.206,16.892L12.059,16.911L11.911,16.927L11.762,16.941L11.612,16.952L11.46,16.961L11.308,16.968L11.154,16.972L11,16.973L10.846,16.972L10.692,16.968L10.54,16.961L10.388,16.952L10.238,16.941L10.089,16.927L9.941,16.911L9.794,16.892L9.648,16.871L9.504,16.848L9.361,16.822L9.22,16.794L9.08,16.764L8.942,16.732L8.805,16.697L8.67,16.661L8.536,16.622L8.405,16.581L8.275,16.538L8.146,16.493L8.02,16.446L7.895,16.398L7.773,16.347L7.652,16.294L7.534,16.24L7.417,16.183L7.303,16.125L7.191,16.066L7.081,16.004L6.973,15.941L6.868,15.876L6.765,15.809L6.664,15.741L6.566,15.671L6.471,15.6L6.378,15.527L6.287,15.453L6.199,15.377L6.114,15.3L6.032,15.221L5.952,15.141L5.876,15.06L5.838,15.019L5.802,14.977L5.766,14.936L5.731,14.894L5.697,14.851L5.663,14.809L5.63,14.766L5.598,14.722L5.567,14.679L5.536,14.635L5.506,14.591L5.477,14.546L5.449,14.502L5.422,14.457L5.395,14.411L5.37,14.366L5.345,14.32L5.32,14.274L5.297,14.228L5.275,14.181L5.253,14.135L5.232,14.088L5.212,14.04L5.193,13.993L5.175,13.945L5.158,13.897L5.141,13.849L5.125,13.801L5.111,13.752L5.097,13.703L5.084,13.654L5.072,13.605L5.061,13.556L5.051,13.506L5.041,13.456L5.033,13.406L5.026,13.356L5.019,13.306L5.013,13.255L5.009,13.204L5.005,13.154L5.003,13.103L5.001,13.051L5,13L17,13L16.999,13.051ZM7.034,14.333L7.083,14.378L7.146,14.433L7.212,14.487L7.28,14.54L7.351,14.593L7.425,14.646L7.501,14.697L7.58,14.748L7.661,14.798L7.745,14.848L7.831,14.896L7.919,14.943L8.009,14.989L8.102,15.034L8.197,15.077L8.294,15.12L8.394,15.161L8.495,15.201L8.598,15.239L8.703,15.276L8.811,15.311L8.919,15.345L9.03,15.377L9.143,15.407L9.257,15.436L9.372,15.463L9.49,15.488L9.608,15.512L9.729,15.533L9.85,15.553L9.973,15.571L10.098,15.587L10.223,15.6L10.35,15.612L10.478,15.622L10.607,15.63L10.737,15.635L10.868,15.638L11,15.639L11.132,15.638L11.263,15.635L11.393,15.63L11.522,15.622L11.65,15.612L11.777,15.6L11.902,15.587L12.027,15.571L12.15,15.553L12.271,15.533L12.392,15.512L12.51,15.488L12.628,15.463L12.743,15.436L12.857,15.407L12.97,15.377L13.081,15.345L13.189,15.311L13.297,15.276L13.402,15.239L13.505,15.201L13.606,15.161L13.706,15.12L13.803,15.077L13.898,15.034L13.991,14.989L14.081,14.943L14.169,14.896L14.255,14.848L14.339,14.798L14.42,14.748L14.499,14.697L14.575,14.646L14.649,14.593L14.72,14.54L14.788,14.487L14.854,14.433L14.917,14.378L14.966,14.333L7.034,14.333ZM6.543,7L6.581,7.002L6.62,7.004L6.658,7.008L6.696,7.012L6.733,7.017L6.77,7.024L6.807,7.031L6.844,7.039L6.88,7.047L6.916,7.057L6.951,7.068L6.986,7.079L7.021,7.091L7.055,7.104L7.089,7.118L7.123,7.133L7.156,7.148L7.189,7.165L7.221,7.182L7.253,7.199L7.284,7.218L7.315,7.237L7.345,7.257L7.375,7.278L7.404,7.299L7.433,7.321L7.461,7.344L7.488,7.367L7.515,7.391L7.542,7.416L7.567,7.441L7.593,7.467L7.617,7.493L7.641,7.52L7.665,7.548L7.687,7.576L7.709,7.604L7.731,7.634L7.751,7.663L7.771,7.694L7.79,7.724L7.809,7.756L7.827,7.787L7.844,7.82L7.86,7.852L7.875,7.885L7.89,7.919L7.904,7.953L7.917,7.987L7.929,8.022L7.941,8.057L7.951,8.093L7.961,8.128L7.97,8.165L7.978,8.201L7.985,8.238L7.991,8.275L7.996,8.313L8,8.35L8.004,8.388L8.006,8.427L8.008,8.465L8.008,8.504L8.008,8.543L8.006,8.581L8.004,8.62L8,8.658L7.996,8.696L7.991,8.733L7.985,8.77L7.978,8.807L7.97,8.844L7.961,8.88L7.951,8.916L7.941,8.951L7.929,8.986L7.917,9.021L7.904,9.055L7.89,9.089L7.875,9.123L7.86,9.156L7.844,9.189L7.827,9.221L7.809,9.253L7.79,9.284L7.771,9.315L7.751,9.345L7.731,9.375L7.709,9.404L7.687,9.433L7.665,9.461L7.641,9.488L7.617,9.515L7.593,9.542L7.567,9.567L7.542,9.593L7.515,9.617L7.488,9.641L7.461,9.665L7.433,9.687L7.404,9.709L7.375,9.731L7.345,9.751L7.315,9.771L7.284,9.79L7.253,9.809L7.221,9.827L7.189,9.844L7.156,9.86L7.123,9.875L7.089,9.89L7.055,9.904L7.021,9.917L6.986,9.929L6.951,9.941L6.916,9.951L6.88,9.961L6.844,9.97L6.807,9.978L6.77,9.985L6.733,9.991L6.696,9.996L6.658,10L6.62,10.004L6.581,10.006L6.543,10.008L6.504,10.008L6.465,10.008L6.427,10.006L6.388,10.004L6.35,10L6.313,9.996L6.275,9.991L6.238,9.985L6.201,9.978L6.165,9.97L6.128,9.961L6.093,9.951L6.057,9.941L6.022,9.929L5.987,9.917L5.953,9.904L5.919,9.89L5.885,9.875L5.852,9.86L5.82,9.844L5.787,9.827L5.756,9.809L5.724,9.79L5.694,9.771L5.663,9.751L5.634,9.731L5.604,9.709L5.576,9.687L5.548,9.665L5.52,9.641L5.493,9.617L5.467,9.593L5.441,9.567L5.416,9.542L5.391,9.515L5.367,9.488L5.344,9.461L5.321,9.433L5.299,9.404L5.278,9.375L5.257,9.345L5.237,9.315L5.218,9.284L5.199,9.253L5.182,9.221L5.165,9.189L5.148,9.156L5.133,9.123L5.118,9.089L5.104,9.055L5.091,9.021L5.079,8.986L5.068,8.951L5.057,8.916L5.047,8.88L5.039,8.844L5.031,8.807L5.024,8.77L5.017,8.733L5.012,8.696L5.008,8.658L5.004,8.62L5.002,8.581L5,8.543L5,8.504L5,8.465L5.002,8.427L5.004,8.388L5.008,8.35L5.012,8.313L5.017,8.275L5.024,8.238L5.031,8.201L5.039,8.165L5.047,8.128L5.057,8.093L5.068,8.057L5.079,8.022L5.091,7.987L5.104,7.953L5.118,7.919L5.133,7.885L5.148,7.852L5.165,7.82L5.182,7.787L5.199,7.756L5.218,7.724L5.237,7.694L5.257,7.663L5.278,7.634L5.299,7.604L5.321,7.576L5.344,7.548L5.367,7.52L5.391,7.493L5.416,7.467L5.441,7.441L5.467,7.416L5.493,7.391L5.52,7.367L5.548,7.344L5.576,7.321L5.604,7.299L5.634,7.278L5.663,7.257L5.694,7.237L5.724,7.218L5.756,7.199L5.787,7.182L5.82,7.165L5.852,7.148L5.885,7.133L5.919,7.118L5.953,7.104L5.987,7.091L6.022,7.079L6.057,7.068L6.093,7.057L6.128,7.047L6.165,7.039L6.201,7.031L6.238,7.024L6.275,7.017L6.313,7.012L6.35,7.008L6.388,7.004L6.427,7.002L6.465,7L6.504,7L6.543,7ZM15.543,7L15.581,7.002L15.62,7.004L15.658,7.008L15.696,7.012L15.733,7.017L15.77,7.024L15.807,7.031L15.844,7.039L15.88,7.047L15.916,7.057L15.951,7.068L15.986,7.079L16.021,7.091L16.055,7.104L16.089,7.118L16.123,7.133L16.156,7.148L16.189,7.165L16.221,7.182L16.253,7.199L16.284,7.218L16.315,7.237L16.345,7.257L16.375,7.278L16.404,7.299L16.433,7.321L16.461,7.344L16.488,7.367L16.515,7.391L16.542,7.416L16.567,7.441L16.593,7.467L16.617,7.493L16.641,7.52L16.665,7.548L16.687,7.576L16.709,7.604L16.731,7.634L16.751,7.663L16.771,7.694L16.79,7.724L16.809,7.756L16.827,7.787L16.844,7.82L16.86,7.852L16.875,7.885L16.89,7.919L16.904,7.953L16.917,7.987L16.929,8.022L16.941,8.057L16.951,8.093L16.961,8.128L16.97,8.165L16.978,8.201L16.985,8.238L16.991,8.275L16.996,8.313L17,8.35L17.004,8.388L17.006,8.427L17.008,8.465L17.008,8.504L17.008,8.543L17.006,8.581L17.004,8.62L17,8.658L16.996,8.696L16.991,8.733L16.985,8.77L16.978,8.807L16.97,8.844L16.961,8.88L16.951,8.916L16.941,8.951L16.929,8.986L16.917,9.021L16.904,9.055L16.89,9.089L16.875,9.123L16.86,9.156L16.844,9.189L16.827,9.221L16.809,9.253L16.79,9.284L16.771,9.315L16.751,9.345L16.731,9.375L16.709,9.404L16.687,9.433L16.665,9.461L16.641,9.488L16.617,9.515L16.593,9.542L16.567,9.567L16.542,9.593L16.515,9.617L16.488,9.641L16.461,9.665L16.433,9.687L16.404,9.709L16.375,9.731L16.345,9.751L16.315,9.771L16.284,9.79L16.253,9.809L16.221,9.827L16.189,9.844L16.156,9.86L16.123,9.875L16.089,9.89L16.055,9.904L16.021,9.917L15.986,9.929L15.951,9.941L15.916,9.951L15.88,9.961L15.844,9.97L15.807,9.978L15.77,9.985L15.733,9.991L15.696,9.996L15.658,10L15.62,10.004L15.581,10.006L15.543,10.008L15.504,10.008L15.465,10.008L15.427,10.006L15.388,10.004L15.35,10L15.313,9.996L15.275,9.991L15.238,9.985L15.201,9.978L15.165,9.97L15.128,9.961L15.093,9.951L15.057,9.941L15.022,9.929L14.987,9.917L14.953,9.904L14.919,9.89L14.885,9.875L14.852,9.86L14.82,9.844L14.787,9.827L14.756,9.809L14.724,9.79L14.694,9.771L14.663,9.751L14.634,9.731L14.604,9.709L14.576,9.687L14.548,9.665L14.52,9.641L14.493,9.617L14.467,9.593L14.441,9.567L14.416,9.542L14.391,9.515L14.367,9.488L14.344,9.461L14.321,9.433L14.299,9.404L14.278,9.375L14.257,9.345L14.237,9.315L14.218,9.284L14.199,9.253L14.182,9.221L14.165,9.189L14.148,9.156L14.133,9.123L14.118,9.089L14.104,9.055L14.091,9.021L14.079,8.986L14.068,8.951L14.057,8.916L14.047,8.88L14.039,8.844L14.031,8.807L14.024,8.77L14.017,8.733L14.012,8.696L14.008,8.658L14.004,8.62L14.002,8.581L14,8.543L14,8.504L14,8.465L14.002,8.427L14.004,8.388L14.008,8.35L14.012,8.313L14.017,8.275L14.024,8.238L14.031,8.201L14.039,8.165L14.047,8.128L14.057,8.093L14.068,8.057L14.079,8.022L14.091,7.987L14.104,7.953L14.118,7.919L14.133,7.885L14.148,7.852L14.165,7.82L14.182,7.787L14.199,7.756L14.218,7.724L14.237,7.694L14.257,7.663L14.278,7.634L14.299,7.604L14.321,7.576L14.344,7.548L14.367,7.52L14.391,7.493L14.416,7.467L14.441,7.441L14.467,7.416L14.493,7.391L14.52,7.367L14.548,7.344L14.576,7.321L14.604,7.299L14.634,7.278L14.663,7.257L14.694,7.237L14.724,7.218L14.756,7.199L14.787,7.182L14.82,7.165L14.852,7.148L14.885,7.133L14.919,7.118L14.953,7.104L14.987,7.091L15.022,7.079L15.057,7.068L15.093,7.057L15.128,7.047L15.165,7.039L15.201,7.031L15.238,7.024L15.275,7.017L15.313,7.012L15.35,7.008L15.388,7.004L15.427,7.002L15.465,7L15.504,7L15.543,7ZM6.499,8.334L6.494,8.334L6.49,8.334L6.485,8.334L6.481,8.335L6.477,8.335L6.473,8.336L6.469,8.337L6.465,8.338L6.461,8.339L6.457,8.34L6.453,8.341L6.45,8.342L6.446,8.343L6.442,8.345L6.439,8.346L6.435,8.348L6.431,8.35L6.428,8.351L6.424,8.353L6.421,8.355L6.417,8.357L6.414,8.36L6.41,8.362L6.407,8.364L6.403,8.367L6.4,8.369L6.396,8.372L6.393,8.375L6.39,8.378L6.387,8.381L6.384,8.384L6.381,8.387L6.378,8.39L6.375,8.393L6.372,8.396L6.369,8.4L6.367,8.403L6.364,8.407L6.362,8.41L6.36,8.414L6.357,8.417L6.355,8.421L6.353,8.424L6.351,8.428L6.35,8.431L6.348,8.435L6.346,8.439L6.345,8.442L6.343,8.446L6.342,8.45L6.341,8.453L6.34,8.457L6.339,8.461L6.338,8.465L6.337,8.469L6.336,8.473L6.335,8.477L6.335,8.481L6.334,8.485L6.334,8.49L6.334,8.494L6.334,8.499L6.333,8.504L6.334,8.518L6.335,8.531L6.338,8.543L6.341,8.555L6.345,8.566L6.35,8.577L6.355,8.588L6.362,8.598L6.369,8.608L6.378,8.618L6.387,8.628L6.396,8.636L6.407,8.644L6.417,8.651L6.428,8.657L6.439,8.662L6.45,8.666L6.461,8.67L6.473,8.672L6.485,8.674L6.499,8.675L6.504,8.675L6.509,8.675L6.514,8.675L6.518,8.674L6.523,8.674L6.527,8.673L6.531,8.673L6.536,8.672L6.54,8.671L6.543,8.67L6.547,8.67L6.551,8.669L6.555,8.667L6.559,8.666L6.562,8.665L6.566,8.663L6.57,8.662L6.573,8.66L6.577,8.659L6.58,8.657L6.584,8.655L6.588,8.653L6.591,8.651L6.595,8.649L6.598,8.646L6.602,8.644L6.605,8.642L6.608,8.639L6.612,8.636L6.615,8.633L6.618,8.631L6.622,8.628L6.625,8.625L6.628,8.622L6.631,8.618L6.633,8.615L6.636,8.612L6.639,8.608L6.642,8.605L6.644,8.602L6.646,8.598L6.649,8.595L6.651,8.591L6.653,8.588L6.655,8.584L6.657,8.58L6.659,8.577L6.66,8.573L6.662,8.57L6.663,8.566L6.665,8.562L6.666,8.559L6.667,8.555L6.669,8.551L6.67,8.547L6.67,8.543L6.671,8.54L6.672,8.536L6.673,8.531L6.673,8.527L6.674,8.523L6.674,8.518L6.675,8.514L6.675,8.509L6.675,8.504L6.675,8.499L6.675,8.494L6.674,8.49L6.674,8.485L6.673,8.481L6.673,8.477L6.672,8.473L6.671,8.469L6.67,8.465L6.67,8.461L6.669,8.457L6.667,8.453L6.666,8.45L6.665,8.446L6.663,8.442L6.662,8.439L6.66,8.435L6.659,8.431L6.657,8.428L6.655,8.424L6.653,8.421L6.651,8.417L6.649,8.414L6.646,8.41L6.644,8.407L6.642,8.403L6.639,8.4L6.636,8.396L6.633,8.393L6.631,8.39L6.628,8.387L6.625,8.384L6.622,8.381L6.618,8.378L6.615,8.375L6.612,8.372L6.608,8.369L6.605,8.367L6.602,8.364L6.598,8.362L6.595,8.36L6.591,8.357L6.588,8.355L6.584,8.353L6.58,8.351L6.577,8.35L6.573,8.348L6.57,8.346L6.566,8.345L6.562,8.343L6.559,8.342L6.555,8.341L6.551,8.34L6.547,8.339L6.543,8.338L6.54,8.337L6.536,8.336L6.531,8.335L6.527,8.335L6.523,8.334L6.518,8.334L6.514,8.334L6.509,8.334L6.504,8.333L6.499,8.334ZM15.499,8.334L15.494,8.334L15.49,8.334L15.485,8.334L15.481,8.335L15.477,8.335L15.473,8.336L15.469,8.337L15.465,8.338L15.461,8.339L15.457,8.34L15.453,8.341L15.45,8.342L15.446,8.343L15.442,8.345L15.439,8.346L15.435,8.348L15.431,8.35L15.428,8.351L15.424,8.353L15.421,8.355L15.417,8.357L15.414,8.36L15.41,8.362L15.407,8.364L15.403,8.367L15.4,8.369L15.396,8.372L15.393,8.375L15.39,8.378L15.387,8.381L15.384,8.384L15.381,8.387L15.378,8.39L15.375,8.393L15.372,8.396L15.369,8.4L15.367,8.403L15.364,8.407L15.362,8.41L15.36,8.414L15.357,8.417L15.355,8.421L15.353,8.424L15.351,8.428L15.35,8.431L15.348,8.435L15.346,8.439L15.345,8.442L15.343,8.446L15.342,8.45L15.341,8.453L15.34,8.457L15.339,8.461L15.338,8.465L15.337,8.469L15.336,8.473L15.335,8.477L15.335,8.481L15.334,8.485L15.334,8.49L15.334,8.494L15.334,8.499L15.333,8.504L15.334,8.518L15.335,8.531L15.338,8.543L15.341,8.555L15.345,8.566L15.35,8.577L15.355,8.588L15.362,8.598L15.369,8.608L15.378,8.618L15.387,8.628L15.396,8.636L15.407,8.644L15.417,8.651L15.428,8.657L15.439,8.662L15.45,8.666L15.461,8.67L15.473,8.672L15.485,8.674L15.499,8.675L15.504,8.675L15.509,8.675L15.514,8.675L15.518,8.674L15.523,8.674L15.527,8.673L15.531,8.673L15.536,8.672L15.54,8.671L15.543,8.67L15.547,8.67L15.551,8.669L15.555,8.667L15.559,8.666L15.562,8.665L15.566,8.663L15.57,8.662L15.573,8.66L15.577,8.659L15.58,8.657L15.584,8.655L15.588,8.653L15.591,8.651L15.595,8.649L15.598,8.646L15.602,8.644L15.605,8.642L15.608,8.639L15.612,8.636L15.615,8.633L15.618,8.631L15.622,8.628L15.625,8.625L15.628,8.622L15.631,8.618L15.633,8.615L15.636,8.612L15.639,8.608L15.642,8.605L15.644,8.602L15.646,8.598L15.649,8.595L15.651,8.591L15.653,8.588L15.655,8.584L15.657,8.58L15.659,8.577L15.66,8.573L15.662,8.57L15.663,8.566L15.665,8.562L15.666,8.559L15.667,8.555L15.669,8.551L15.67,8.547L15.67,8.543L15.671,8.54L15.672,8.536L15.673,8.531L15.673,8.527L15.674,8.523L15.674,8.518L15.675,8.514L15.675,8.509L15.675,8.504L15.675,8.499L15.675,8.494L15.674,8.49L15.674,8.485L15.673,8.481L15.673,8.477L15.672,8.473L15.671,8.469L15.67,8.465L15.67,8.461L15.669,8.457L15.667,8.453L15.666,8.45L15.665,8.446L15.663,8.442L15.662,8.439L15.66,8.435L15.659,8.431L15.657,8.428L15.655,8.424L15.653,8.421L15.651,8.417L15.649,8.414L15.646,8.41L15.644,8.407L15.642,8.403L15.639,8.4L15.636,8.396L15.633,8.393L15.631,8.39L15.628,8.387L15.625,8.384L15.622,8.381L15.618,8.378L15.615,8.375L15.612,8.372L15.608,8.369L15.605,8.367L15.602,8.364L15.598,8.362L15.595,8.36L15.591,8.357L15.588,8.355L15.584,8.353L15.58,8.351L15.577,8.35L15.573,8.348L15.57,8.346L15.566,8.345L15.562,8.343L15.559,8.342L15.555,8.341L15.551,8.34L15.547,8.339L15.543,8.338L15.54,8.337L15.536,8.336L15.531,8.335L15.527,8.335L15.523,8.334L15.518,8.334L15.514,8.334L15.509,8.334L15.504,8.333L15.499,8.334Z"/>
    </g>
</svg>
