<?xml version="1.0" encoding="UTF-8"?>
<svg width="22px" height="22px" viewBox="0 0 22 22" version="1.1" xmlns="http://www.w3.org/2000/svg" xmlns:xlink="http://www.w3.org/1999/xlink">
    <!-- Generator: Sketch 45.2 (43514) - http://www.bohemiancoding.com/sketch -->
    <title>reactions</title>
    <desc>Created with Sketch.</desc>
    <defs></defs>
    <g id="Page-1" stroke="none" stroke-width="1" fill="none" fill-rule="evenodd">
        <g id="reactions">
            <circle id="Oval" stroke="#2475FF" stroke-width="1.45" cx="11" cy="11" r="10.275"></circle>
            <path d="M6.919,7 C6.092,7 5.419,7.673 5.419,8.5 C5.419,9.327 6.091,10 6.919,10 C7.746,10 8.419,9.327 8.419,8.5 C8.419,7.673 7.745,7 6.919,7 Z" id="Shape" fill="#2475FF" fill-rule="nonzero"></path>
            <path d="M5.5,13 C5.5,15.21 7.962,17 11,17 C14.038,17 16.5,15.21 16.5,13 L5.5,13 Z" id="Shape" fill="#2475FF" fill-rule="nonzero"></path>
            <path d="M15.39,7 C14.564,7 13.89,7.63 13.89,8.405 C13.89,9.179 14.564,9.809 15.39,9.809 C16.218,9.809 16.89,9.179 16.89,8.405 C16.89,7.63 16.218,7 15.39,7 L15.39,7 Z" id="Shape" fill="#2475FF" fill-rule="nonzero"></path>
        </g>
    </g>
</svg>