<svg xmlns="http://www.w3.org/2000/svg" width="25" height="27" viewBox="0 0 25 27">
    <g fill="#D8D8D8" fill-rule="nonzero">
        <path d="M19.563 26.9c1.26 0 2.288-.993 2.32-2.252l.63-18.616h2.156V4.044h-6.665V2.951A2.376 2.376 0 0 0 15.617.566H9.383a2.376 2.376 0 0 0-2.387 2.385v1.093H.33v1.988h2.155l.63 18.616a2.313 2.313 0 0 0 2.321 2.253h14.126zM8.985 2.985c0-.232.166-.397.398-.397h6.234c.232 0 .398.165.398.397v1.094h-7.03V2.984zm-3.88 21.598l-.63-18.55h15.983l-.63 18.55a.356.356 0 0 1-.332.331H5.437c-.165 0-.298-.132-.331-.331z"/>
        <path d="M11.505 10.438h1.99v9.904h-1.99zM7.526 10.438h1.99v9.904h-1.99zM15.484 10.438h1.99v9.904h-1.99z"/>
    </g>
</svg>
