<?xml version="1.0" encoding="UTF-8"?>
<svg width="19px" height="24px" viewBox="0 0 19 24" version="1.1" xmlns="http://www.w3.org/2000/svg" xmlns:xlink="http://www.w3.org/1999/xlink">
    <!-- Generator: Sketch 44.1 (41455) - http://www.bohemiancoding.com/sketch -->
    <title>ic_trending</title>
    <desc>Created with Sketch.</desc>
    <defs></defs>
    <g id="Page-1" stroke="none" stroke-width="1" fill="none" fill-rule="evenodd">
        <g id="ic_trending" fill="#2475FF">
            <path d="M11.167,1.711 L11.136,1.814 L11.105,1.912 L11.045,2.096 L10.997,2.243 L10.975,2.312 L10.955,2.377 L10.937,2.44 L10.92,2.5 L10.906,2.558 L10.894,2.615 L10.885,2.664 L10.876,2.713 L10.869,2.761 L10.862,2.81 L10.856,2.858 L10.851,2.906 L10.847,2.955 L10.843,3.003 L10.841,3.05 L10.839,3.098 L10.838,3.146 L10.838,3.194 L10.838,3.241 L10.84,3.289 L10.842,3.336 L10.846,3.383 L10.85,3.43 L10.854,3.478 L10.86,3.525 L10.867,3.572 L10.874,3.618 L10.882,3.665 L10.892,3.712 L10.902,3.759 L10.912,3.805 L10.924,3.852 L10.937,3.898 L10.95,3.945 L10.964,3.991 L10.979,4.038 L10.995,4.084 L11.012,4.13 L11.03,4.176 L11.048,4.223 L11.068,4.269 L11.088,4.315 L11.109,4.361 L11.131,4.407 L11.154,4.454 L11.178,4.5 L11.202,4.546 L11.228,4.592 L11.254,4.638 L11.281,4.684 L11.338,4.776 L11.399,4.869 L11.463,4.961 L11.531,5.054 L11.602,5.146 L11.676,5.239 L11.755,5.332 L11.837,5.425 L11.922,5.519 L12.011,5.612 L12.068,5.67 L12.126,5.728 L12.185,5.784 L12.244,5.84 L12.304,5.895 L12.365,5.95 L12.427,6.004 L12.49,6.057 L12.553,6.11 L12.617,6.162 L12.682,6.214 L12.747,6.265 L12.88,6.366 L13.015,6.466 L13.152,6.564 L13.291,6.661 L13.433,6.757 L13.576,6.853 L13.721,6.949 L13.867,7.044 L14.164,7.236 L14.475,7.436 L14.567,7.496 L14.657,7.557 L14.747,7.618 L14.836,7.68 L14.924,7.742 L15.011,7.805 L15.097,7.868 L15.183,7.932 L15.267,7.996 L15.35,8.061 L15.433,8.127 L15.515,8.193 L15.596,8.259 L15.676,8.326 L15.755,8.393 L15.833,8.461 L15.91,8.53 L15.986,8.598 L16.062,8.668 L16.136,8.738 L16.21,8.808 L16.282,8.879 L16.354,8.95 L16.425,9.021 L16.495,9.094 L16.564,9.166 L16.632,9.239 L16.699,9.313 L16.765,9.386 L16.83,9.461 L16.895,9.535 L16.958,9.61 L17.02,9.686 L17.082,9.762 L17.143,9.838 L17.202,9.915 L17.261,9.992 L17.319,10.069 L17.376,10.147 L17.431,10.226 L17.486,10.304 L17.54,10.383 L17.593,10.463 L17.645,10.542 L17.697,10.622 L17.747,10.703 L17.796,10.784 L17.844,10.865 L17.892,10.946 L17.938,11.028 L17.983,11.11 L18.028,11.193 L18.071,11.276 L18.114,11.359 L18.155,11.442 L18.196,11.526 L18.235,11.61 L18.274,11.694 L18.311,11.779 L18.348,11.864 L18.384,11.949 L18.418,12.034 L18.452,12.12 L18.485,12.206 L18.516,12.292 L18.547,12.379 L18.577,12.466 L18.606,12.553 L18.633,12.64 L18.66,12.728 L18.686,12.815 L18.711,12.903 L18.734,12.992 L18.757,13.08 L18.779,13.169 L18.799,13.258 L18.819,13.347 L18.838,13.436 L18.856,13.526 L18.872,13.615 L18.888,13.705 L18.903,13.795 L18.916,13.886 L18.929,13.976 L18.94,14.067 L18.951,14.158 L18.961,14.249 L18.969,14.34 L18.977,14.431 L18.983,14.522 L18.988,14.614 L18.993,14.706 L18.996,14.798 L18.998,14.89 L19,14.982 L19,15.074 L18.999,15.167 L18.997,15.259 L18.994,15.352 L18.99,15.444 L18.985,15.537 L18.979,15.63 L18.972,15.723 L18.964,15.816 L18.955,15.909 L18.945,16.003 L18.933,16.096 L18.921,16.189 L18.908,16.283 L18.893,16.376 L18.877,16.47 L18.861,16.564 L18.843,16.657 L18.824,16.751 L18.804,16.845 L18.784,16.939 L18.762,17.033 L18.738,17.127 L18.714,17.22 L18.689,17.314 L18.663,17.408 L18.635,17.502 L18.607,17.596 L18.577,17.69 L18.546,17.784 L18.515,17.878 L18.482,17.972 L18.448,18.066 L18.418,18.146 L18.387,18.226 L18.355,18.306 L18.322,18.385 L18.289,18.464 L18.254,18.543 L18.219,18.621 L18.183,18.699 L18.146,18.776 L18.108,18.853 L18.069,18.93 L18.03,19.006 L17.99,19.082 L17.948,19.158 L17.907,19.233 L17.864,19.308 L17.82,19.382 L17.776,19.456 L17.731,19.529 L17.685,19.602 L17.639,19.675 L17.591,19.747 L17.543,19.819 L17.494,19.89 L17.445,19.961 L17.394,20.031 L17.343,20.101 L17.292,20.17 L17.239,20.239 L17.186,20.308 L17.132,20.376 L17.077,20.443 L17.022,20.51 L16.966,20.577 L16.91,20.643 L16.852,20.708 L16.794,20.773 L16.736,20.838 L16.677,20.902 L16.617,20.965 L16.556,21.028 L16.495,21.091 L16.433,21.153 L16.371,21.214 L16.308,21.275 L16.244,21.335 L16.18,21.395 L16.116,21.454 L16.05,21.513 L15.984,21.571 L15.918,21.628 L15.851,21.685 L15.783,21.741 L15.715,21.797 L15.647,21.852 L15.577,21.907 L15.508,21.961 L15.437,22.014 L15.367,22.067 L15.295,22.119 L15.224,22.171 L15.151,22.222 L15.079,22.272 L15.005,22.322 L14.932,22.371 L14.858,22.42 L14.783,22.467 L14.708,22.514 L14.632,22.561 L14.556,22.607 L14.48,22.652 L14.403,22.697 L14.326,22.741 L14.248,22.784 L14.17,22.826 L14.092,22.868 L14.013,22.909 L13.934,22.95 L13.854,22.99 L13.774,23.029 L13.694,23.067 L13.613,23.105 L13.532,23.142 L13.451,23.178 L13.369,23.214 L13.287,23.249 L13.204,23.283 L13.121,23.316 L13.038,23.349 L12.955,23.381 L12.871,23.412 L12.787,23.442 L12.703,23.472 L12.619,23.501 L12.534,23.529 L12.449,23.556 L12.363,23.583 L12.278,23.609 L12.192,23.634 L12.106,23.658 L12.019,23.681 L11.933,23.704 L11.846,23.726 L11.759,23.747 L11.672,23.767 L11.584,23.787 L11.497,23.805 L11.409,23.823 L11.321,23.84 L11.233,23.856 L11.145,23.872 L11.056,23.886 L10.967,23.9 L10.879,23.912 L10.79,23.924 L10.701,23.935 L10.611,23.946 L10.522,23.955 L10.433,23.964 L10.343,23.971 L10.253,23.978 L10.164,23.984 L10.074,23.989 L9.984,23.993 L9.894,23.996 L9.804,23.998 L9.714,24 L9.623,24 L9.477,23.999 L9.332,23.995 L9.186,23.989 L9.041,23.98 L8.896,23.969 L8.752,23.956 L8.609,23.94 L8.466,23.922 L8.353,23.906 L8.241,23.889 L8.13,23.871 L8.019,23.852 L7.909,23.832 L7.799,23.812 L7.689,23.79 L7.58,23.767 L7.472,23.743 L7.364,23.718 L7.257,23.692 L7.15,23.666 L7.044,23.638 L6.938,23.609 L6.833,23.58 L6.729,23.549 L6.625,23.518 L6.521,23.486 L6.419,23.452 L6.317,23.418 L6.215,23.383 L6.114,23.347 L6.014,23.31 L5.914,23.273 L5.815,23.234 L5.717,23.195 L5.619,23.154 L5.522,23.113 L5.425,23.071 L5.329,23.028 L5.234,22.984 L5.14,22.94 L5.046,22.894 L4.953,22.848 L4.86,22.801 L4.768,22.753 L4.677,22.704 L4.587,22.655 L4.497,22.604 L4.408,22.553 L4.32,22.501 L4.232,22.449 L4.145,22.395 L4.059,22.341 L3.974,22.286 L3.889,22.23 L3.805,22.173 L3.722,22.116 L3.639,22.058 L3.558,21.999 L3.477,21.94 L3.397,21.879 L3.318,21.818 L3.239,21.757 L3.161,21.694 L3.084,21.631 L3.008,21.567 L2.933,21.503 L2.859,21.437 L2.785,21.371 L2.712,21.305 L2.64,21.238 L2.569,21.17 L2.499,21.101 L2.429,21.032 L2.361,20.962 L2.293,20.891 L2.226,20.82 L2.16,20.748 L2.095,20.676 L2.03,20.603 L1.967,20.529 L1.905,20.455 L1.843,20.38 L1.782,20.304 L1.723,20.228 L1.664,20.151 L1.606,20.074 L1.549,19.996 L1.493,19.918 L1.438,19.839 L1.384,19.759 L1.33,19.679 L1.278,19.598 L1.227,19.517 L1.177,19.435 L1.127,19.353 L1.079,19.27 L1.032,19.186 L0.985,19.103 L0.94,19.018 L0.895,18.933 L0.852,18.848 L0.81,18.762 L0.768,18.675 L0.728,18.589 L0.689,18.501 L0.65,18.413 L0.613,18.325 L0.577,18.236 L0.542,18.147 L0.508,18.057 L0.475,17.967 L0.443,17.877 L0.412,17.786 L0.382,17.694 L0.354,17.602 L0.326,17.51 L0.3,17.417 L0.274,17.324 L0.25,17.231 L0.227,17.137 L0.205,17.042 L0.184,16.948 L0.164,16.853 L0.146,16.757 L0.128,16.662 L0.112,16.565 L0.097,16.469 L0.083,16.372 L0.07,16.275 L0.058,16.177 L0.048,16.079 L0.038,15.981 L0.03,15.883 L0.023,15.784 L0.017,15.685 L0.013,15.585 L0.008,15.445 L0.004,15.306 L0.001,15.168 L0,15.031 L0,14.894 L0.001,14.759 L0.004,14.625 L0.008,14.492 L0.013,14.36 L0.019,14.229 L0.027,14.099 L0.036,13.97 L0.046,13.842 L0.058,13.715 L0.071,13.589 L0.085,13.464 L0.1,13.34 L0.117,13.216 L0.135,13.094 L0.155,12.972 L0.176,12.852 L0.198,12.732 L0.221,12.613 L0.246,12.496 L0.272,12.379 L0.299,12.262 L0.328,12.147 L0.358,12.033 L0.389,11.919 L0.422,11.806 L0.456,11.694 L0.491,11.583 L0.528,11.473 L0.566,11.364 L0.605,11.255 L0.646,11.147 L0.688,11.04 L0.732,10.934 L0.776,10.828 L0.823,10.724 L0.87,10.62 L0.919,10.516 L0.969,10.414 L1.021,10.312 L1.074,10.211 L1.129,10.111 L1.184,10.011 L1.242,9.912 L1.3,9.814 L1.36,9.716 L1.421,9.62 L1.484,9.523 L1.548,9.428 L1.614,9.333 L1.681,9.239 L1.749,9.145 L1.819,9.052 L1.89,8.96 L1.963,8.868 L2.037,8.777 L2.112,8.687 L2.189,8.597 L2.267,8.508 L2.347,8.419 L2.38,8.382 L2.415,8.345 L2.489,8.268 L2.573,8.184 L2.667,8.091 L4.188,6.566 L4.155,8.39 L4.154,8.515 L4.156,8.64 L4.161,8.766 L4.168,8.892 L4.178,9.018 L4.191,9.144 L4.207,9.271 L4.225,9.397 L4.246,9.523 L4.269,9.648 L4.295,9.773 L4.324,9.897 L4.355,10.02 L4.389,10.142 L4.426,10.262 L4.465,10.382 L4.506,10.5 L4.55,10.616 L4.596,10.731 L4.62,10.788 L4.645,10.844 L4.67,10.899 L4.696,10.955 L4.723,11.009 L4.75,11.063 L4.778,11.117 L4.806,11.169 L4.835,11.222 L4.864,11.273 L4.894,11.324 L4.925,11.374 L4.956,11.424 L4.988,11.473 L5.021,11.521 L5.054,11.568 L5.087,11.615 L5.121,11.661 L5.156,11.706 L5.192,11.75 L5.227,11.794 L5.264,11.837 L5.301,11.878 L5.338,11.919 L5.376,11.959 L5.415,11.998 L5.398,11.851 L5.381,11.7 L5.365,11.547 L5.349,11.391 L5.335,11.232 L5.322,11.07 L5.31,10.906 L5.299,10.739 L5.29,10.57 L5.282,10.399 L5.276,10.226 L5.272,10.051 L5.269,9.873 L5.268,9.695 L5.27,9.514 L5.273,9.332 L5.279,9.148 L5.287,8.963 L5.298,8.777 L5.311,8.59 L5.328,8.401 L5.346,8.212 L5.368,8.022 L5.393,7.831 L5.407,7.735 L5.421,7.64 L5.436,7.544 L5.452,7.448 L5.469,7.351 L5.487,7.255 L5.505,7.159 L5.525,7.063 L5.545,6.966 L5.566,6.87 L5.589,6.774 L5.612,6.677 L5.636,6.581 L5.661,6.484 L5.687,6.388 L5.714,6.292 L5.742,6.195 L5.771,6.099 L5.801,6.003 L5.832,5.907 L5.864,5.811 L5.897,5.716 L5.931,5.62 L5.967,5.525 L6.003,5.43 L6.041,5.334 L6.08,5.24 L6.12,5.145 L6.161,5.051 L6.203,4.956 L6.246,4.862 L6.291,4.769 L6.337,4.675 L6.384,4.582 L6.432,4.49 L6.482,4.397 L6.533,4.305 L6.585,4.213 L6.639,4.122 L6.693,4.031 L6.75,3.94 L6.807,3.85 L6.866,3.76 L6.926,3.671 L6.988,3.582 L7.051,3.493 L7.115,3.405 L7.181,3.317 L7.248,3.23 L7.317,3.144 L7.387,3.058 L7.458,2.972 L7.532,2.887 L7.606,2.803 L7.682,2.719 L7.76,2.636 L7.839,2.553 L7.92,2.471 L8.002,2.389 L8.086,2.309 L8.172,2.229 L8.259,2.149 L8.348,2.07 L8.438,1.992 L8.53,1.915 L8.624,1.838 L8.719,1.762 L8.816,1.687 L8.915,1.613 L9.016,1.539 L9.118,1.466 L9.222,1.394 L9.328,1.323 L9.435,1.253 L9.545,1.183 L9.656,1.114 L9.769,1.047 L9.884,0.98 L10,0.914 L10.119,0.849 L11.686,0 L11.167,1.711 Z M9.461,2.876 L9.381,2.941 L9.303,3.007 L9.226,3.074 L9.151,3.14 L9.077,3.208 L9.004,3.276 L8.933,3.344 L8.864,3.413 L8.796,3.482 L8.729,3.552 L8.663,3.622 L8.599,3.692 L8.536,3.764 L8.475,3.835 L8.415,3.907 L8.356,3.979 L8.298,4.052 L8.241,4.125 L8.186,4.199 L8.132,4.273 L8.079,4.347 L8.027,4.422 L7.977,4.497 L7.927,4.573 L7.879,4.649 L7.832,4.725 L7.785,4.802 L7.74,4.879 L7.696,4.957 L7.653,5.035 L7.611,5.113 L7.57,5.192 L7.53,5.27 L7.491,5.35 L7.453,5.429 L7.416,5.509 L7.38,5.59 L7.345,5.67 L7.311,5.751 L7.278,5.832 L7.246,5.913 L7.214,5.995 L7.184,6.077 L7.155,6.159 L7.126,6.242 L7.098,6.325 L7.071,6.408 L7.045,6.491 L7.02,6.574 L6.996,6.658 L6.972,6.742 L6.95,6.826 L6.928,6.91 L6.907,6.994 L6.887,7.078 L6.867,7.163 L6.848,7.248 L6.831,7.332 L6.813,7.417 L6.797,7.502 L6.781,7.587 L6.766,7.672 L6.752,7.758 L6.739,7.843 L6.726,7.928 L6.714,8.011 L6.692,8.184 L6.672,8.354 L6.655,8.524 L6.641,8.693 L6.629,8.863 L6.619,9.031 L6.612,9.199 L6.606,9.366 L6.603,9.532 L6.602,9.697 L6.602,9.861 L6.605,10.024 L6.609,10.185 L6.614,10.345 L6.622,10.503 L6.63,10.66 L6.64,10.815 L6.651,10.967 L6.664,11.118 L6.677,11.266 L6.691,11.413 L6.706,11.557 L6.722,11.698 L6.739,11.841 L6.748,11.951 L6.747,12.061 L6.737,12.171 L6.719,12.279 L6.691,12.386 L6.654,12.49 L6.61,12.591 L6.557,12.687 L6.496,12.779 L6.428,12.866 L6.353,12.946 L6.271,13.021 L6.184,13.088 L6.091,13.147 L5.994,13.199 L5.893,13.243 L5.789,13.278 L5.682,13.305 L5.573,13.322 L5.463,13.331 L5.353,13.33 L5.243,13.32 L5.134,13.302 L5.028,13.274 L4.924,13.238 L4.823,13.193 L4.727,13.14 L4.635,13.079 L4.548,13.011 L4.467,12.936 L4.42,12.888 L4.365,12.83 L4.311,12.771 L4.258,12.712 L4.206,12.651 L4.156,12.59 L4.107,12.528 L4.058,12.466 L4.011,12.403 L3.965,12.339 L3.921,12.274 L3.877,12.209 L3.834,12.144 L3.792,12.077 L3.751,12.011 L3.712,11.943 L3.673,11.876 L3.635,11.807 L3.598,11.739 L3.562,11.669 L3.527,11.6 L3.493,11.53 L3.46,11.459 L3.428,11.388 L3.397,11.317 L3.365,11.242 L3.308,11.101 L3.253,10.956 L3.201,10.809 L3.153,10.661 L3.108,10.512 L3.067,10.362 L3.028,10.211 L2.993,10.06 L2.961,9.907 L2.938,9.784 L2.88,9.859 L2.821,9.939 L2.763,10.018 L2.706,10.098 L2.65,10.178 L2.596,10.259 L2.543,10.341 L2.491,10.422 L2.441,10.505 L2.391,10.587 L2.343,10.671 L2.296,10.754 L2.25,10.839 L2.206,10.924 L2.162,11.009 L2.12,11.095 L2.079,11.182 L2.039,11.27 L2,11.358 L1.962,11.447 L1.926,11.537 L1.89,11.627 L1.856,11.718 L1.822,11.81 L1.79,11.903 L1.759,11.996 L1.729,12.091 L1.7,12.186 L1.672,12.282 L1.645,12.379 L1.62,12.477 L1.595,12.576 L1.571,12.676 L1.549,12.777 L1.528,12.879 L1.507,12.982 L1.488,13.086 L1.47,13.191 L1.453,13.297 L1.437,13.404 L1.423,13.512 L1.409,13.621 L1.396,13.732 L1.385,13.843 L1.375,13.956 L1.366,14.07 L1.358,14.185 L1.351,14.301 L1.345,14.419 L1.34,14.538 L1.337,14.657 L1.335,14.778 L1.333,14.901 L1.333,15.024 L1.335,15.149 L1.337,15.275 L1.34,15.402 L1.345,15.531 L1.349,15.616 L1.354,15.699 L1.36,15.781 L1.366,15.863 L1.374,15.945 L1.383,16.027 L1.393,16.108 L1.403,16.189 L1.415,16.27 L1.428,16.35 L1.441,16.43 L1.456,16.51 L1.471,16.589 L1.488,16.668 L1.505,16.747 L1.523,16.826 L1.543,16.904 L1.563,16.981 L1.584,17.059 L1.606,17.136 L1.629,17.213 L1.653,17.289 L1.678,17.365 L1.703,17.441 L1.73,17.516 L1.757,17.592 L1.786,17.666 L1.815,17.741 L1.845,17.815 L1.876,17.888 L1.908,17.962 L1.941,18.035 L1.975,18.107 L2.009,18.179 L2.044,18.251 L2.081,18.323 L2.118,18.394 L2.156,18.464 L2.195,18.535 L2.234,18.604 L2.275,18.674 L2.316,18.743 L2.359,18.812 L2.402,18.88 L2.446,18.948 L2.49,19.015 L2.536,19.082 L2.582,19.149 L2.63,19.215 L2.678,19.281 L2.727,19.346 L2.776,19.411 L2.827,19.475 L2.878,19.539 L2.93,19.602 L2.983,19.665 L3.037,19.728 L3.091,19.79 L3.147,19.852 L3.203,19.913 L3.26,19.973 L3.317,20.033 L3.376,20.093 L3.435,20.152 L3.495,20.21 L3.556,20.268 L3.617,20.326 L3.679,20.383 L3.742,20.439 L3.806,20.495 L3.871,20.55 L3.936,20.605 L4.002,20.659 L4.069,20.713 L4.136,20.766 L4.204,20.818 L4.273,20.87 L4.343,20.921 L4.413,20.972 L4.484,21.022 L4.556,21.072 L4.629,21.121 L4.702,21.169 L4.776,21.216 L4.85,21.263 L4.925,21.31 L5.001,21.355 L5.078,21.4 L5.155,21.445 L5.233,21.489 L5.312,21.532 L5.391,21.574 L5.471,21.616 L5.552,21.657 L5.633,21.697 L5.715,21.737 L5.797,21.776 L5.88,21.814 L5.964,21.851 L6.048,21.888 L6.133,21.924 L6.219,21.96 L6.305,21.994 L6.392,22.028 L6.48,22.061 L6.568,22.093 L6.656,22.125 L6.745,22.156 L6.835,22.186 L6.926,22.215 L7.017,22.244 L7.108,22.271 L7.2,22.298 L7.293,22.324 L7.386,22.349 L7.48,22.374 L7.574,22.397 L7.669,22.42 L7.764,22.442 L7.86,22.463 L7.957,22.483 L8.054,22.503 L8.151,22.521 L8.249,22.539 L8.348,22.556 L8.447,22.572 L8.547,22.587 L8.643,22.601 L8.766,22.616 L8.887,22.629 L9.009,22.641 L9.131,22.65 L9.254,22.657 L9.377,22.662 L9.5,22.666 L9.626,22.667 L9.7,22.666 L9.777,22.665 L9.854,22.663 L9.93,22.66 L10.007,22.657 L10.083,22.653 L10.16,22.648 L10.237,22.642 L10.313,22.636 L10.39,22.628 L10.466,22.62 L10.542,22.612 L10.619,22.602 L10.695,22.592 L10.771,22.581 L10.847,22.569 L10.923,22.557 L10.999,22.544 L11.074,22.53 L11.15,22.515 L11.226,22.5 L11.301,22.484 L11.376,22.467 L11.451,22.45 L11.526,22.431 L11.601,22.413 L11.676,22.393 L11.75,22.373 L11.824,22.352 L11.899,22.33 L11.972,22.308 L12.046,22.285 L12.12,22.261 L12.193,22.237 L12.266,22.212 L12.339,22.186 L12.412,22.16 L12.484,22.133 L12.556,22.106 L12.628,22.077 L12.7,22.048 L12.771,22.019 L12.843,21.989 L12.913,21.958 L12.984,21.926 L13.054,21.894 L13.124,21.862 L13.194,21.828 L13.263,21.794 L13.332,21.76 L13.401,21.725 L13.469,21.689 L13.537,21.653 L13.605,21.616 L13.672,21.578 L13.739,21.54 L13.806,21.502 L13.872,21.462 L13.938,21.423 L14.004,21.382 L14.069,21.342 L14.133,21.3 L14.198,21.258 L14.261,21.216 L14.325,21.173 L14.388,21.129 L14.45,21.085 L14.512,21.04 L14.574,20.995 L14.635,20.949 L14.696,20.903 L14.756,20.857 L14.816,20.809 L14.875,20.762 L14.934,20.714 L14.992,20.665 L15.05,20.616 L15.107,20.566 L15.164,20.516 L15.22,20.466 L15.276,20.415 L15.331,20.363 L15.386,20.312 L15.44,20.259 L15.494,20.207 L15.547,20.154 L15.599,20.1 L15.651,20.046 L15.702,19.992 L15.753,19.937 L15.803,19.882 L15.853,19.826 L15.901,19.77 L15.95,19.714 L15.997,19.657 L16.045,19.6 L16.091,19.542 L16.137,19.485 L16.182,19.426 L16.227,19.368 L16.271,19.309 L16.314,19.25 L16.356,19.19 L16.398,19.13 L16.44,19.07 L16.48,19.01 L16.52,18.949 L16.56,18.887 L16.598,18.826 L16.636,18.764 L16.673,18.702 L16.71,18.64 L16.746,18.577 L16.781,18.514 L16.815,18.451 L16.849,18.387 L16.882,18.324 L16.914,18.26 L16.946,18.195 L16.977,18.131 L17.007,18.066 L17.036,18.001 L17.065,17.936 L17.092,17.87 L17.12,17.804 L17.146,17.738 L17.172,17.672 L17.196,17.605 L17.226,17.525 L17.254,17.444 L17.281,17.363 L17.308,17.283 L17.333,17.202 L17.357,17.122 L17.381,17.041 L17.403,16.961 L17.425,16.881 L17.445,16.801 L17.465,16.721 L17.484,16.641 L17.502,16.562 L17.518,16.482 L17.534,16.403 L17.549,16.323 L17.563,16.244 L17.577,16.165 L17.589,16.086 L17.6,16.007 L17.611,15.928 L17.62,15.85 L17.629,15.771 L17.637,15.693 L17.643,15.614 L17.649,15.536 L17.654,15.458 L17.659,15.38 L17.662,15.302 L17.664,15.225 L17.666,15.147 L17.667,15.07 L17.666,14.993 L17.665,14.916 L17.663,14.839 L17.661,14.762 L17.657,14.685 L17.652,14.609 L17.647,14.532 L17.641,14.456 L17.634,14.38 L17.626,14.304 L17.617,14.228 L17.607,14.153 L17.597,14.077 L17.585,14.002 L17.573,13.927 L17.56,13.852 L17.546,13.777 L17.531,13.702 L17.516,13.627 L17.499,13.553 L17.482,13.479 L17.464,13.405 L17.445,13.331 L17.425,13.257 L17.404,13.183 L17.383,13.11 L17.36,13.037 L17.337,12.964 L17.313,12.891 L17.288,12.818 L17.262,12.745 L17.236,12.673 L17.208,12.601 L17.18,12.529 L17.151,12.457 L17.121,12.385 L17.09,12.314 L17.058,12.242 L17.026,12.171 L16.992,12.1 L16.958,12.03 L16.923,11.959 L16.887,11.889 L16.85,11.819 L16.813,11.749 L16.774,11.679 L16.735,11.61 L16.695,11.54 L16.654,11.471 L16.612,11.403 L16.569,11.334 L16.525,11.266 L16.481,11.198 L16.436,11.13 L16.389,11.062 L16.342,10.995 L16.294,10.928 L16.246,10.861 L16.196,10.794 L16.146,10.728 L16.094,10.662 L16.042,10.596 L15.989,10.531 L15.935,10.465 L15.88,10.4 L15.824,10.336 L15.768,10.271 L15.71,10.207 L15.652,10.144 L15.593,10.08 L15.533,10.017 L15.472,9.954 L15.41,9.892 L15.347,9.829 L15.284,9.768 L15.22,9.706 L15.154,9.645 L15.088,9.584 L15.021,9.524 L14.953,9.463 L14.884,9.404 L14.815,9.344 L14.744,9.285 L14.673,9.227 L14.601,9.168 L14.528,9.11 L14.454,9.053 L14.379,8.996 L14.303,8.939 L14.226,8.883 L14.149,8.827 L14.07,8.771 L13.991,8.716 L13.911,8.662 L13.83,8.607 L13.749,8.554 L13.441,8.356 L13.141,8.162 L12.99,8.064 L12.838,7.964 L12.687,7.862 L12.535,7.759 L12.383,7.653 L12.231,7.545 L12.08,7.433 L11.932,7.32 L11.854,7.259 L11.78,7.2 L11.705,7.139 L11.631,7.077 L11.557,7.014 L11.483,6.95 L11.41,6.884 L11.337,6.818 L11.265,6.75 L11.193,6.681 L11.122,6.61 L11.052,6.538 L10.947,6.428 L10.844,6.315 L10.744,6.202 L10.647,6.087 L10.554,5.971 L10.464,5.853 L10.377,5.735 L10.294,5.615 L10.214,5.493 L10.14,5.374 L10.101,5.308 L10.065,5.245 L10.03,5.182 L9.996,5.118 L9.964,5.054 L9.932,4.99 L9.901,4.925 L9.871,4.86 L9.842,4.795 L9.815,4.729 L9.788,4.662 L9.763,4.596 L9.738,4.528 L9.715,4.461 L9.693,4.393 L9.672,4.325 L9.652,4.256 L9.634,4.187 L9.616,4.118 L9.6,4.049 L9.585,3.979 L9.572,3.909 L9.559,3.839 L9.548,3.768 L9.538,3.698 L9.53,3.627 L9.522,3.556 L9.516,3.486 L9.511,3.415 L9.508,3.344 L9.505,3.273 L9.504,3.202 L9.505,3.131 L9.506,3.06 L9.509,2.989 L9.513,2.918 L9.518,2.847 L9.519,2.83 L9.461,2.876 Z" id="Shape"></path>
        </g>
    </g>
</svg>