<?xml version="1.0" encoding="UTF-8" standalone="no"?>
<!DOCTYPE svg PUBLIC "-//W3C//DTD SVG 1.1//EN" "http://www.w3.org/Graphics/SVG/1.1/DTD/svg11.dtd">
<svg width="100%" height="100%" viewBox="0 0 19 24" version="1.1" xmlns="http://www.w3.org/2000/svg" xmlns:xlink="http://www.w3.org/1999/xlink" xml:space="preserve" style="fill:#ffffff;fill-rule:evenodd;clip-rule:evenodd;stroke-linejoin:round;stroke-miterlimit:1.41421;">
    <path d="M11.167,1.711L11.136,1.814L11.105,1.912L11.045,2.096L10.997,2.243L10.975,2.312L10.955,2.377L10.937,2.44L10.92,2.5L10.906,2.558L10.894,2.615L10.885,2.664L10.876,2.713L10.869,2.761L10.862,2.81L10.856,2.858L10.851,2.906L10.847,2.955L10.843,3.003L10.841,3.05L10.839,3.098L10.838,3.146L10.838,3.194L10.838,3.241L10.84,3.289L10.842,3.336L10.846,3.383L10.85,3.43L10.854,3.478L10.86,3.525L10.867,3.572L10.874,3.618L10.882,3.665L10.892,3.712L10.902,3.759L10.912,3.805L10.924,3.852L10.937,3.898L10.95,3.945L10.964,3.991L10.979,4.038L10.995,4.084L11.012,4.13L11.03,4.176L11.048,4.223L11.068,4.269L11.088,4.315L11.109,4.361L11.131,4.407L11.154,4.454L11.178,4.5L11.202,4.546L11.228,4.592L11.254,4.638L11.281,4.684L11.338,4.776L11.399,4.869L11.463,4.961L11.531,5.054L11.602,5.146L11.676,5.239L11.755,5.332L11.837,5.425L11.922,5.519L12.011,5.612L12.068,5.67L12.126,5.728L12.185,5.784L12.244,5.84L12.304,5.895L12.365,5.95L12.427,6.004L12.49,6.057L12.553,6.11L12.617,6.162L12.682,6.214L12.747,6.265L12.88,6.366L13.015,6.466L13.152,6.564L13.291,6.661L13.433,6.757L13.576,6.853L13.721,6.949L13.867,7.044L14.164,7.236L14.475,7.436L14.567,7.496L14.657,7.557L14.747,7.618L14.836,7.68L14.924,7.742L15.011,7.805L15.097,7.868L15.183,7.932L15.267,7.996L15.35,8.061L15.433,8.127L15.515,8.193L15.596,8.259L15.676,8.326L15.755,8.393L15.833,8.461L15.91,8.53L15.986,8.598L16.062,8.668L16.136,8.738L16.21,8.808L16.282,8.879L16.354,8.95L16.425,9.021L16.495,9.094L16.564,9.166L16.632,9.239L16.699,9.313L16.765,9.386L16.83,9.461L16.895,9.535L16.958,9.61L17.02,9.686L17.082,9.762L17.143,9.838L17.202,9.915L17.261,9.992L17.319,10.069L17.376,10.147L17.431,10.226L17.486,10.304L17.54,10.383L17.593,10.463L17.645,10.542L17.697,10.622L17.747,10.703L17.796,10.784L17.844,10.865L17.892,10.946L17.938,11.028L17.983,11.11L18.028,11.193L18.071,11.276L18.114,11.359L18.155,11.442L18.196,11.526L18.235,11.61L18.274,11.694L18.311,11.779L18.348,11.864L18.384,11.949L18.418,12.034L18.452,12.12L18.485,12.206L18.516,12.292L18.547,12.379L18.577,12.466L18.606,12.553L18.633,12.64L18.66,12.728L18.686,12.815L18.711,12.903L18.734,12.992L18.757,13.08L18.779,13.169L18.799,13.258L18.819,13.347L18.838,13.436L18.856,13.526L18.872,13.615L18.888,13.705L18.903,13.795L18.916,13.886L18.929,13.976L18.94,14.067L18.951,14.158L18.961,14.249L18.969,14.34L18.977,14.431L18.983,14.522L18.988,14.614L18.993,14.706L18.996,14.798L18.998,14.89L19,14.982L19,15.074L18.999,15.167L18.997,15.259L18.994,15.352L18.99,15.444L18.985,15.537L18.979,15.63L18.972,15.723L18.964,15.816L18.955,15.909L18.945,16.003L18.933,16.096L18.921,16.189L18.908,16.283L18.893,16.376L18.877,16.47L18.861,16.564L18.843,16.657L18.824,16.751L18.804,16.845L18.784,16.939L18.762,17.033L18.738,17.127L18.714,17.22L18.689,17.314L18.663,17.408L18.635,17.502L18.607,17.596L18.577,17.69L18.546,17.784L18.515,17.878L18.482,17.972L18.448,18.066L18.418,18.146L18.387,18.226L18.355,18.306L18.322,18.385L18.289,18.464L18.254,18.543L18.219,18.621L18.183,18.699L18.146,18.776L18.108,18.853L18.069,18.93L18.03,19.006L17.99,19.082L17.948,19.158L17.907,19.233L17.864,19.308L17.82,19.382L17.776,19.456L17.731,19.529L17.685,19.602L17.639,19.675L17.591,19.747L17.543,19.819L17.494,19.89L17.445,19.961L17.394,20.031L17.343,20.101L17.292,20.17L17.239,20.239L17.186,20.308L17.132,20.376L17.077,20.443L17.022,20.51L16.966,20.577L16.91,20.643L16.852,20.708L16.794,20.773L16.736,20.838L16.677,20.902L16.617,20.965L16.556,21.028L16.495,21.091L16.433,21.153L16.371,21.214L16.308,21.275L16.244,21.335L16.18,21.395L16.116,21.454L16.05,21.513L15.984,21.571L15.918,21.628L15.851,21.685L15.783,21.741L15.715,21.797L15.647,21.852L15.577,21.907L15.508,21.961L15.437,22.014L15.367,22.067L15.295,22.119L15.224,22.171L15.151,22.222L15.079,22.272L15.005,22.322L14.932,22.371L14.858,22.42L14.783,22.467L14.708,22.514L14.632,22.561L14.556,22.607L14.48,22.652L14.403,22.697L14.326,22.741L14.248,22.784L14.17,22.826L14.092,22.868L14.013,22.909L13.934,22.95L13.854,22.99L13.774,23.029L13.694,23.067L13.613,23.105L13.532,23.142L13.451,23.178L13.369,23.214L13.287,23.249L13.204,23.283L13.121,23.316L13.038,23.349L12.955,23.381L12.871,23.412L12.787,23.442L12.703,23.472L12.619,23.501L12.534,23.529L12.449,23.556L12.363,23.583L12.278,23.609L12.192,23.634L12.106,23.658L12.019,23.681L11.933,23.704L11.846,23.726L11.759,23.747L11.672,23.767L11.584,23.787L11.497,23.805L11.409,23.823L11.321,23.84L11.233,23.856L11.145,23.872L11.056,23.886L10.967,23.9L10.879,23.912L10.79,23.924L10.701,23.935L10.611,23.946L10.522,23.955L10.433,23.964L10.343,23.971L10.253,23.978L10.164,23.984L10.074,23.989L9.984,23.993L9.894,23.996L9.804,23.998L9.714,24L9.623,24L9.477,23.999L9.332,23.995L9.186,23.989L9.041,23.98L8.896,23.969L8.752,23.956L8.609,23.94L8.466,23.922L8.353,23.906L8.241,23.889L8.13,23.871L8.019,23.852L7.909,23.832L7.799,23.812L7.689,23.79L7.58,23.767L7.472,23.743L7.364,23.718L7.257,23.692L7.15,23.666L7.044,23.638L6.938,23.609L6.833,23.58L6.729,23.549L6.625,23.518L6.521,23.486L6.419,23.452L6.317,23.418L6.215,23.383L6.114,23.347L6.014,23.31L5.914,23.273L5.815,23.234L5.717,23.195L5.619,23.154L5.522,23.113L5.425,23.071L5.329,23.028L5.234,22.984L5.14,22.94L5.046,22.894L4.953,22.848L4.86,22.801L4.768,22.753L4.677,22.704L4.587,22.655L4.497,22.604L4.408,22.553L4.32,22.501L4.232,22.449L4.145,22.395L4.059,22.341L3.974,22.286L3.889,22.23L3.805,22.173L3.722,22.116L3.639,22.058L3.558,21.999L3.477,21.94L3.397,21.879L3.318,21.818L3.239,21.757L3.161,21.694L3.084,21.631L3.008,21.567L2.933,21.503L2.859,21.437L2.785,21.371L2.712,21.305L2.64,21.238L2.569,21.17L2.499,21.101L2.429,21.032L2.361,20.962L2.293,20.891L2.226,20.82L2.16,20.748L2.095,20.676L2.03,20.603L1.967,20.529L1.905,20.455L1.843,20.38L1.782,20.304L1.723,20.228L1.664,20.151L1.606,20.074L1.549,19.996L1.493,19.918L1.438,19.839L1.384,19.759L1.33,19.679L1.278,19.598L1.227,19.517L1.177,19.435L1.127,19.353L1.079,19.27L1.032,19.186L0.985,19.103L0.94,19.018L0.895,18.933L0.852,18.848L0.81,18.762L0.768,18.675L0.728,18.589L0.689,18.501L0.65,18.413L0.613,18.325L0.577,18.236L0.542,18.147L0.508,18.057L0.475,17.967L0.443,17.877L0.412,17.786L0.382,17.694L0.354,17.602L0.326,17.51L0.3,17.417L0.274,17.324L0.25,17.231L0.227,17.137L0.205,17.042L0.184,16.948L0.164,16.853L0.146,16.757L0.128,16.662L0.112,16.565L0.097,16.469L0.083,16.372L0.07,16.275L0.058,16.177L0.048,16.079L0.038,15.981L0.03,15.883L0.023,15.784L0.017,15.685L0.013,15.585L0.008,15.445L0.004,15.306L0.001,15.168L0,15.031L0,14.894L0.001,14.759L0.004,14.625L0.008,14.492L0.013,14.36L0.019,14.229L0.027,14.099L0.036,13.97L0.046,13.842L0.058,13.715L0.071,13.589L0.085,13.464L0.1,13.34L0.117,13.216L0.135,13.094L0.155,12.972L0.176,12.852L0.198,12.732L0.221,12.613L0.246,12.496L0.272,12.379L0.299,12.262L0.328,12.147L0.358,12.033L0.389,11.919L0.422,11.806L0.456,11.694L0.491,11.583L0.528,11.473L0.566,11.364L0.605,11.255L0.646,11.147L0.688,11.04L0.732,10.934L0.776,10.828L0.823,10.724L0.87,10.62L0.919,10.516L0.969,10.414L1.021,10.312L1.074,10.211L1.129,10.111L1.184,10.011L1.242,9.912L1.3,9.814L1.36,9.716L1.421,9.62L1.484,9.523L1.548,9.428L1.614,9.333L1.681,9.239L1.749,9.145L1.819,9.052L1.89,8.96L1.963,8.868L2.037,8.777L2.112,8.687L2.189,8.597L2.267,8.508L2.347,8.419L2.38,8.382L2.415,8.345L2.489,8.268L2.573,8.184L2.667,8.091L4.188,6.566L4.155,8.39L4.154,8.515L4.156,8.64L4.161,8.766L4.168,8.892L4.178,9.018L4.191,9.144L4.207,9.271L4.225,9.397L4.246,9.523L4.269,9.648L4.295,9.773L4.324,9.897L4.355,10.02L4.389,10.142L4.426,10.262L4.465,10.382L4.506,10.5L4.55,10.616L4.596,10.731L4.62,10.788L4.645,10.844L4.67,10.899L4.696,10.955L4.723,11.009L4.75,11.063L4.778,11.117L4.806,11.169L4.835,11.222L4.864,11.273L4.894,11.324L4.925,11.374L4.956,11.424L4.988,11.473L5.021,11.521L5.054,11.568L5.087,11.615L5.121,11.661L5.156,11.706L5.192,11.75L5.227,11.794L5.264,11.837L5.301,11.878L5.338,11.919L5.376,11.959L5.415,11.998L5.398,11.851L5.381,11.7L5.365,11.547L5.349,11.391L5.335,11.232L5.322,11.07L5.31,10.906L5.299,10.739L5.29,10.57L5.282,10.399L5.276,10.226L5.272,10.051L5.269,9.873L5.268,9.695L5.27,9.514L5.273,9.332L5.279,9.148L5.287,8.963L5.298,8.777L5.311,8.59L5.328,8.401L5.346,8.212L5.368,8.022L5.393,7.831L5.407,7.735L5.421,7.64L5.436,7.544L5.452,7.448L5.469,7.351L5.487,7.255L5.505,7.159L5.525,7.063L5.545,6.966L5.566,6.87L5.589,6.774L5.612,6.677L5.636,6.581L5.661,6.484L5.687,6.388L5.714,6.292L5.742,6.195L5.771,6.099L5.801,6.003L5.832,5.907L5.864,5.811L5.897,5.716L5.931,5.62L5.967,5.525L6.003,5.43L6.041,5.334L6.08,5.24L6.12,5.145L6.161,5.051L6.203,4.956L6.246,4.862L6.291,4.769L6.337,4.675L6.384,4.582L6.432,4.49L6.482,4.397L6.533,4.305L6.585,4.213L6.639,4.122L6.693,4.031L6.75,3.94L6.807,3.85L6.866,3.76L6.926,3.671L6.988,3.582L7.051,3.493L7.115,3.405L7.181,3.317L7.248,3.23L7.317,3.144L7.387,3.058L7.458,2.972L7.532,2.887L7.606,2.803L7.682,2.719L7.76,2.636L7.839,2.553L7.92,2.471L8.002,2.389L8.086,2.309L8.172,2.229L8.259,2.149L8.348,2.07L8.438,1.992L8.53,1.915L8.624,1.838L8.719,1.762L8.816,1.687L8.915,1.613L9.016,1.539L9.118,1.466L9.222,1.394L9.328,1.323L9.435,1.253L9.545,1.183L9.656,1.114L9.769,1.047L9.884,0.98L10,0.914L10.119,0.849L11.686,0L11.167,1.711ZM9.461,2.876L9.381,2.941L9.303,3.007L9.226,3.074L9.151,3.14L9.077,3.208L9.004,3.276L8.933,3.344L8.864,3.413L8.796,3.482L8.729,3.552L8.663,3.622L8.599,3.692L8.536,3.764L8.475,3.835L8.415,3.907L8.356,3.979L8.298,4.052L8.241,4.125L8.186,4.199L8.132,4.273L8.079,4.347L8.027,4.422L7.977,4.497L7.927,4.573L7.879,4.649L7.832,4.725L7.785,4.802L7.74,4.879L7.696,4.957L7.653,5.035L7.611,5.113L7.57,5.192L7.53,5.27L7.491,5.35L7.453,5.429L7.416,5.509L7.38,5.59L7.345,5.67L7.311,5.751L7.278,5.832L7.246,5.913L7.214,5.995L7.184,6.077L7.155,6.159L7.126,6.242L7.098,6.325L7.071,6.408L7.045,6.491L7.02,6.574L6.996,6.658L6.972,6.742L6.95,6.826L6.928,6.91L6.907,6.994L6.887,7.078L6.867,7.163L6.848,7.248L6.831,7.332L6.813,7.417L6.797,7.502L6.781,7.587L6.766,7.672L6.752,7.758L6.739,7.843L6.726,7.928L6.714,8.011L6.692,8.184L6.672,8.354L6.655,8.524L6.641,8.693L6.629,8.863L6.619,9.031L6.612,9.199L6.606,9.366L6.603,9.532L6.602,9.697L6.602,9.861L6.605,10.024L6.609,10.185L6.614,10.345L6.622,10.503L6.63,10.66L6.64,10.815L6.651,10.967L6.664,11.118L6.677,11.266L6.691,11.413L6.706,11.557L6.722,11.698L6.739,11.841L6.748,11.951L6.747,12.061L6.737,12.171L6.719,12.279L6.691,12.386L6.654,12.49L6.61,12.591L6.557,12.687L6.496,12.779L6.428,12.866L6.353,12.946L6.271,13.021L6.184,13.088L6.091,13.147L5.994,13.199L5.893,13.243L5.789,13.278L5.682,13.305L5.573,13.322L5.463,13.331L5.353,13.33L5.243,13.32L5.134,13.302L5.028,13.274L4.924,13.238L4.823,13.193L4.727,13.14L4.635,13.079L4.548,13.011L4.467,12.936L4.42,12.888L4.365,12.83L4.311,12.771L4.258,12.712L4.206,12.651L4.156,12.59L4.107,12.528L4.058,12.466L4.011,12.403L3.965,12.339L3.921,12.274L3.877,12.209L3.834,12.144L3.792,12.077L3.751,12.011L3.712,11.943L3.673,11.876L3.635,11.807L3.598,11.739L3.562,11.669L3.527,11.6L3.493,11.53L3.46,11.459L3.428,11.388L3.397,11.317L3.365,11.242L3.308,11.101L3.253,10.956L3.201,10.809L3.153,10.661L3.108,10.512L3.067,10.362L3.028,10.211L2.993,10.06L2.961,9.907L2.938,9.784L2.88,9.859L2.821,9.939L2.763,10.018L2.706,10.098L2.65,10.178L2.596,10.259L2.543,10.341L2.491,10.422L2.441,10.505L2.391,10.587L2.343,10.671L2.296,10.754L2.25,10.839L2.206,10.924L2.162,11.009L2.12,11.095L2.079,11.182L2.039,11.27L2,11.358L1.962,11.447L1.926,11.537L1.89,11.627L1.856,11.718L1.822,11.81L1.79,11.903L1.759,11.996L1.729,12.091L1.7,12.186L1.672,12.282L1.645,12.379L1.62,12.477L1.595,12.576L1.571,12.676L1.549,12.777L1.528,12.879L1.507,12.982L1.488,13.086L1.47,13.191L1.453,13.297L1.437,13.404L1.423,13.512L1.409,13.621L1.396,13.732L1.385,13.843L1.375,13.956L1.366,14.07L1.358,14.185L1.351,14.301L1.345,14.419L1.34,14.538L1.337,14.657L1.335,14.778L1.333,14.901L1.333,15.024L1.335,15.149L1.337,15.275L1.34,15.402L1.345,15.531L1.349,15.616L1.354,15.699L1.36,15.781L1.366,15.863L1.374,15.945L1.383,16.027L1.393,16.108L1.403,16.189L1.415,16.27L1.428,16.35L1.441,16.43L1.456,16.51L1.471,16.589L1.488,16.668L1.505,16.747L1.523,16.826L1.543,16.904L1.563,16.981L1.584,17.059L1.606,17.136L1.629,17.213L1.653,17.289L1.678,17.365L1.703,17.441L1.73,17.516L1.757,17.592L1.786,17.666L1.815,17.741L1.845,17.815L1.876,17.888L1.908,17.962L1.941,18.035L1.975,18.107L2.009,18.179L2.044,18.251L2.081,18.323L2.118,18.394L2.156,18.464L2.195,18.535L2.234,18.604L2.275,18.674L2.316,18.743L2.359,18.812L2.402,18.88L2.446,18.948L2.49,19.015L2.536,19.082L2.582,19.149L2.63,19.215L2.678,19.281L2.727,19.346L2.776,19.411L2.827,19.475L2.878,19.539L2.93,19.602L2.983,19.665L3.037,19.728L3.091,19.79L3.147,19.852L3.203,19.913L3.26,19.973L3.317,20.033L3.376,20.093L3.435,20.152L3.495,20.21L3.556,20.268L3.617,20.326L3.679,20.383L3.742,20.439L3.806,20.495L3.871,20.55L3.936,20.605L4.002,20.659L4.069,20.713L4.136,20.766L4.204,20.818L4.273,20.87L4.343,20.921L4.413,20.972L4.484,21.022L4.556,21.072L4.629,21.121L4.702,21.169L4.776,21.216L4.85,21.263L4.925,21.31L5.001,21.355L5.078,21.4L5.155,21.445L5.233,21.489L5.312,21.532L5.391,21.574L5.471,21.616L5.552,21.657L5.633,21.697L5.715,21.737L5.797,21.776L5.88,21.814L5.964,21.851L6.048,21.888L6.133,21.924L6.219,21.96L6.305,21.994L6.392,22.028L6.48,22.061L6.568,22.093L6.656,22.125L6.745,22.156L6.835,22.186L6.926,22.215L7.017,22.244L7.108,22.271L7.2,22.298L7.293,22.324L7.386,22.349L7.48,22.374L7.574,22.397L7.669,22.42L7.764,22.442L7.86,22.463L7.957,22.483L8.054,22.503L8.151,22.521L8.249,22.539L8.348,22.556L8.447,22.572L8.547,22.587L8.643,22.601L8.766,22.616L8.887,22.629L9.009,22.641L9.131,22.65L9.254,22.657L9.377,22.662L9.5,22.666L9.626,22.667L9.7,22.666L9.777,22.665L9.854,22.663L9.93,22.66L10.007,22.657L10.083,22.653L10.16,22.648L10.237,22.642L10.313,22.636L10.39,22.628L10.466,22.62L10.542,22.612L10.619,22.602L10.695,22.592L10.771,22.581L10.847,22.569L10.923,22.557L10.999,22.544L11.074,22.53L11.15,22.515L11.226,22.5L11.301,22.484L11.376,22.467L11.451,22.45L11.526,22.431L11.601,22.413L11.676,22.393L11.75,22.373L11.824,22.352L11.899,22.33L11.972,22.308L12.046,22.285L12.12,22.261L12.193,22.237L12.266,22.212L12.339,22.186L12.412,22.16L12.484,22.133L12.556,22.106L12.628,22.077L12.7,22.048L12.771,22.019L12.843,21.989L12.913,21.958L12.984,21.926L13.054,21.894L13.124,21.862L13.194,21.828L13.263,21.794L13.332,21.76L13.401,21.725L13.469,21.689L13.537,21.653L13.605,21.616L13.672,21.578L13.739,21.54L13.806,21.502L13.872,21.462L13.938,21.423L14.004,21.382L14.069,21.342L14.133,21.3L14.198,21.258L14.261,21.216L14.325,21.173L14.388,21.129L14.45,21.085L14.512,21.04L14.574,20.995L14.635,20.949L14.696,20.903L14.756,20.857L14.816,20.809L14.875,20.762L14.934,20.714L14.992,20.665L15.05,20.616L15.107,20.566L15.164,20.516L15.22,20.466L15.276,20.415L15.331,20.363L15.386,20.312L15.44,20.259L15.494,20.207L15.547,20.154L15.599,20.1L15.651,20.046L15.702,19.992L15.753,19.937L15.803,19.882L15.853,19.826L15.901,19.77L15.95,19.714L15.997,19.657L16.045,19.6L16.091,19.542L16.137,19.485L16.182,19.426L16.227,19.368L16.271,19.309L16.314,19.25L16.356,19.19L16.398,19.13L16.44,19.07L16.48,19.01L16.52,18.949L16.56,18.887L16.598,18.826L16.636,18.764L16.673,18.702L16.71,18.64L16.746,18.577L16.781,18.514L16.815,18.451L16.849,18.387L16.882,18.324L16.914,18.26L16.946,18.195L16.977,18.131L17.007,18.066L17.036,18.001L17.065,17.936L17.092,17.87L17.12,17.804L17.146,17.738L17.172,17.672L17.196,17.605L17.226,17.525L17.254,17.444L17.281,17.363L17.308,17.283L17.333,17.202L17.357,17.122L17.381,17.041L17.403,16.961L17.425,16.881L17.445,16.801L17.465,16.721L17.484,16.641L17.502,16.562L17.518,16.482L17.534,16.403L17.549,16.323L17.563,16.244L17.577,16.165L17.589,16.086L17.6,16.007L17.611,15.928L17.62,15.85L17.629,15.771L17.637,15.693L17.643,15.614L17.649,15.536L17.654,15.458L17.659,15.38L17.662,15.302L17.664,15.225L17.666,15.147L17.667,15.07L17.666,14.993L17.665,14.916L17.663,14.839L17.661,14.762L17.657,14.685L17.652,14.609L17.647,14.532L17.641,14.456L17.634,14.38L17.626,14.304L17.617,14.228L17.607,14.153L17.597,14.077L17.585,14.002L17.573,13.927L17.56,13.852L17.546,13.777L17.531,13.702L17.516,13.627L17.499,13.553L17.482,13.479L17.464,13.405L17.445,13.331L17.425,13.257L17.404,13.183L17.383,13.11L17.36,13.037L17.337,12.964L17.313,12.891L17.288,12.818L17.262,12.745L17.236,12.673L17.208,12.601L17.18,12.529L17.151,12.457L17.121,12.385L17.09,12.314L17.058,12.242L17.026,12.171L16.992,12.1L16.958,12.03L16.923,11.959L16.887,11.889L16.85,11.819L16.813,11.749L16.774,11.679L16.735,11.61L16.695,11.54L16.654,11.471L16.612,11.403L16.569,11.334L16.525,11.266L16.481,11.198L16.436,11.13L16.389,11.062L16.342,10.995L16.294,10.928L16.246,10.861L16.196,10.794L16.146,10.728L16.094,10.662L16.042,10.596L15.989,10.531L15.935,10.465L15.88,10.4L15.824,10.336L15.768,10.271L15.71,10.207L15.652,10.144L15.593,10.08L15.533,10.017L15.472,9.954L15.41,9.892L15.347,9.829L15.284,9.768L15.22,9.706L15.154,9.645L15.088,9.584L15.021,9.524L14.953,9.463L14.884,9.404L14.815,9.344L14.744,9.285L14.673,9.227L14.601,9.168L14.528,9.11L14.454,9.053L14.379,8.996L14.303,8.939L14.226,8.883L14.149,8.827L14.07,8.771L13.991,8.716L13.911,8.662L13.83,8.607L13.749,8.554L13.441,8.356L13.141,8.162L12.99,8.064L12.838,7.964L12.687,7.862L12.535,7.759L12.383,7.653L12.231,7.545L12.08,7.433L11.932,7.32L11.854,7.259L11.78,7.2L11.705,7.139L11.631,7.077L11.557,7.014L11.483,6.95L11.41,6.884L11.337,6.818L11.265,6.75L11.193,6.681L11.122,6.61L11.052,6.538L10.947,6.428L10.844,6.315L10.744,6.202L10.647,6.087L10.554,5.971L10.464,5.853L10.377,5.735L10.294,5.615L10.214,5.493L10.14,5.374L10.101,5.308L10.065,5.245L10.03,5.182L9.996,5.118L9.964,5.054L9.932,4.99L9.901,4.925L9.871,4.86L9.842,4.795L9.815,4.729L9.788,4.662L9.763,4.596L9.738,4.528L9.715,4.461L9.693,4.393L9.672,4.325L9.652,4.256L9.634,4.187L9.616,4.118L9.6,4.049L9.585,3.979L9.572,3.909L9.559,3.839L9.548,3.768L9.538,3.698L9.53,3.627L9.522,3.556L9.516,3.486L9.511,3.415L9.508,3.344L9.505,3.273L9.504,3.202L9.505,3.131L9.506,3.06L9.509,2.989L9.513,2.918L9.518,2.847L9.519,2.83L9.461,2.876Z"/>
</svg>
