<svg width="152" height="207" viewBox="0 0 152 207" fill="none" xmlns="http://www.w3.org/2000/svg">
<g opacity="0.08">
<ellipse rx="2.95145" ry="2.95144" transform="matrix(-0.742946 0.669351 -0.742946 -0.669351 136.904 24.4922)" fill="#166DE0"/>
<ellipse rx="2.95145" ry="2.95145" transform="matrix(-0.742946 0.669351 -0.742946 -0.669351 114.976 4.73633)" fill="#166DE0"/>
<ellipse rx="2.95145" ry="2.95145" transform="matrix(-0.742946 0.669351 -0.742946 -0.669351 136.904 64.0039)" fill="#166DE0"/>
<ellipse rx="2.95145" ry="2.95145" transform="matrix(-0.742946 0.669351 -0.742946 -0.669351 114.976 44.2481)" fill="#166DE0"/>
<ellipse rx="2.95145" ry="2.95146" transform="matrix(-0.742946 0.669351 -0.742946 -0.669351 93.0483 24.4922)" fill="#166DE0"/>
<circle r="2.95145" transform="matrix(-0.742946 0.669351 -0.742946 -0.669351 136.904 103.515)" fill="#166DE0"/>
<ellipse rx="2.95145" ry="2.95145" transform="matrix(-0.742946 0.669351 -0.742946 -0.669351 114.976 83.7588)" fill="#166DE0"/>
<ellipse rx="2.95145" ry="2.95145" transform="matrix(-0.742946 0.669351 -0.742946 -0.669351 93.0483 64.0039)" fill="#166DE0"/>
<circle r="2.95145" transform="matrix(-0.742946 0.669351 -0.742946 -0.669351 71.1206 44.248)" fill="#166DE0"/>
<ellipse rx="2.95145" ry="2.95145" transform="matrix(-0.742946 0.669351 -0.742946 -0.669351 136.904 143.025)" fill="#166DE0"/>
<ellipse rx="2.95145" ry="2.95145" transform="matrix(-0.742946 0.669351 -0.742946 -0.669351 114.976 123.271)" fill="#166DE0"/>
<circle r="2.95145" transform="matrix(-0.742946 0.669351 -0.742946 -0.669351 93.0483 103.515)" fill="#166DE0"/>
<ellipse rx="2.95145" ry="2.95144" transform="matrix(-0.742946 0.669351 -0.742946 -0.669351 71.1206 83.7588)" fill="#166DE0"/>
<ellipse rx="2.95145" ry="2.95146" transform="matrix(-0.742946 0.669351 -0.742946 -0.669351 49.1928 64.0039)" fill="#166DE0"/>
<ellipse rx="2.95144" ry="2.95145" transform="matrix(-0.742946 0.669351 -0.742946 -0.669351 136.904 182.537)" fill="#166DE0"/>
<ellipse rx="2.95145" ry="2.95145" transform="matrix(-0.742946 0.669351 -0.742946 -0.669351 114.976 162.781)" fill="#166DE0"/>
<ellipse rx="2.95145" ry="2.95145" transform="matrix(-0.742946 0.669351 -0.742946 -0.669351 93.0483 143.025)" fill="#166DE0"/>
<ellipse rx="2.95144" ry="2.95145" transform="matrix(-0.742946 0.669351 -0.742946 -0.669351 71.1206 123.271)" fill="#166DE0"/>
<circle r="2.95144" transform="matrix(-0.742946 0.669351 -0.742946 -0.669351 49.1928 103.515)" fill="#166DE0"/>
<ellipse rx="2.95144" ry="2.95145" transform="matrix(-0.742946 0.669351 -0.742946 -0.669351 27.2653 83.7588)" fill="#166DE0"/>
<ellipse rx="2.95145" ry="2.95145" transform="matrix(-0.742946 0.669351 -0.742946 -0.669351 114.976 202.293)" fill="#166DE0"/>
<ellipse rx="2.95146" ry="2.95145" transform="matrix(-0.742946 0.669351 -0.742946 -0.669351 93.0483 182.537)" fill="#166DE0"/>
<ellipse rx="2.95146" ry="2.95145" transform="matrix(-0.742946 0.669351 -0.742946 -0.669351 71.1206 162.781)" fill="#166DE0"/>
<ellipse rx="2.95145" ry="2.95145" transform="matrix(-0.742946 0.669351 -0.742946 -0.669351 49.1928 143.025)" fill="#166DE0"/>
<ellipse rx="2.95145" ry="2.95144" transform="matrix(-0.742946 0.669351 -0.742946 -0.669351 27.2653 123.271)" fill="#166DE0"/>
<circle r="2.95145" transform="matrix(-0.742946 0.669351 -0.742946 -0.669351 5.3376 103.515)" fill="#166DE0"/>
</g>
</svg>
