<svg width="255" height="409" viewBox="0 0 255 409" fill="none" xmlns="http://www.w3.org/2000/svg">
<g opacity="0.16">
<rect width="3.34975" height="3.35472" transform="matrix(-0.743439 -0.668804 0.743439 -0.668804 5.59727 408.423)" fill="#166DE0"/>
<rect width="3.34975" height="3.35474" transform="matrix(-0.743439 -0.668804 0.743439 -0.668804 140.275 287.266)" fill="#166DE0"/>
<rect width="3.34975" height="3.35474" transform="matrix(-0.743439 -0.668804 0.743439 -0.668804 5.79646 166.288)" fill="#166DE0"/>
<rect width="3.34975" height="3.35472" transform="matrix(-0.743439 -0.668804 0.743439 -0.668804 28.0435 388.23)" fill="#166DE0"/>
<rect width="3.34975" height="3.35474" transform="matrix(-0.743439 -0.668804 0.743439 -0.668804 162.721 267.073)" fill="#166DE0"/>
<rect width="3.34976" height="3.35472" transform="matrix(-0.743439 -0.668804 0.743439 -0.668804 28.2427 146.096)" fill="#166DE0"/>
<rect width="3.34975" height="3.35471" transform="matrix(-0.743439 -0.668804 0.743439 -0.668804 50.4897 368.037)" fill="#166DE0"/>
<rect width="3.34975" height="3.35472" transform="matrix(-0.743439 -0.668804 0.743439 -0.668804 185.167 246.88)" fill="#166DE0"/>
<rect width="3.34975" height="3.35471" transform="matrix(-0.743439 -0.668804 0.743439 -0.668804 50.6889 125.902)" fill="#166DE0"/>
<rect width="3.34975" height="3.35472" transform="matrix(-0.743439 -0.668804 0.743439 -0.668804 72.936 347.845)" fill="#166DE0"/>
<rect width="3.34975" height="3.35474" transform="matrix(-0.743439 -0.668804 0.743439 -0.668804 207.613 226.688)" fill="#166DE0"/>
<rect width="3.34976" height="3.35474" transform="matrix(-0.743439 -0.668804 0.743439 -0.668804 73.1352 105.71)" fill="#166DE0"/>
<rect width="3.34975" height="3.35473" transform="matrix(-0.743439 -0.668804 0.743439 -0.668804 95.3822 327.651)" fill="#166DE0"/>
<rect width="3.34975" height="3.35471" transform="matrix(-0.743439 -0.668804 0.743439 -0.668804 230.06 206.494)" fill="#166DE0"/>
<rect width="3.34975" height="3.35474" transform="matrix(-0.743439 -0.668804 0.743439 -0.668804 95.5814 85.5166)" fill="#166DE0"/>
<rect width="3.34975" height="3.35472" transform="matrix(-0.743439 -0.668804 0.743439 -0.668804 117.828 307.459)" fill="#166DE0"/>
<rect width="3.34975" height="3.35471" transform="matrix(-0.743439 -0.668804 0.743439 -0.668804 252.506 186.302)" fill="#166DE0"/>
<rect width="3.34975" height="3.35471" transform="matrix(-0.743439 -0.668804 0.743439 -0.668804 118.028 65.3242)" fill="#166DE0"/>
<rect width="3.34975" height="3.35474" transform="matrix(-0.743439 -0.668804 0.743439 -0.668804 117.862 267.103)" fill="#166DE0"/>
<rect width="3.34975" height="3.35472" transform="matrix(-0.743439 -0.668804 0.743439 -0.668804 5.63047 368.067)" fill="#166DE0"/>
<rect width="3.34975" height="3.35471" transform="matrix(-0.743439 -0.668804 0.743439 -0.668804 140.308 246.91)" fill="#166DE0"/>
<rect width="3.34975" height="3.35471" transform="matrix(-0.743439 -0.668804 0.743439 -0.668804 5.82968 125.933)" fill="#166DE0"/>
<rect width="3.34975" height="3.35471" transform="matrix(-0.743439 -0.668804 0.743439 -0.668804 28.0767 347.874)" fill="#166DE0"/>
<rect width="3.34975" height="3.35472" transform="matrix(-0.743439 -0.668804 0.743439 -0.668804 162.754 226.717)" fill="#166DE0"/>
<rect width="3.34976" height="3.35472" transform="matrix(-0.743439 -0.668804 0.743439 -0.668804 28.2759 105.739)" fill="#166DE0"/>
<rect width="3.34975" height="3.35473" transform="matrix(-0.743439 -0.668804 0.743439 -0.668804 50.5229 327.682)" fill="#166DE0"/>
<rect width="3.34975" height="3.35474" transform="matrix(-0.743439 -0.668804 0.743439 -0.668804 185.2 206.524)" fill="#166DE0"/>
<rect width="3.34975" height="3.35471" transform="matrix(-0.743439 -0.668804 0.743439 -0.668804 50.7221 85.5469)" fill="#166DE0"/>
<rect width="3.34975" height="3.35472" transform="matrix(-0.743439 -0.668804 0.743439 -0.668804 72.9692 307.488)" fill="#166DE0"/>
<rect width="3.34975" height="3.35474" transform="matrix(-0.743439 -0.668804 0.743439 -0.668804 207.647 186.331)" fill="#166DE0"/>
<rect width="3.34975" height="3.35471" transform="matrix(-0.743439 -0.668804 0.743439 -0.668804 73.1684 65.3535)" fill="#166DE0"/>
<rect width="3.34975" height="3.35474" transform="matrix(-0.743439 -0.668804 0.743439 -0.668804 95.4154 287.296)" fill="#166DE0"/>
<rect width="3.34975" height="3.35471" transform="matrix(-0.743439 -0.668804 0.743439 -0.668804 230.093 166.139)" fill="#166DE0"/>
<rect width="3.34975" height="3.35471" transform="matrix(-0.743439 -0.668804 0.743439 -0.668804 95.6146 45.1611)" fill="#166DE0"/>
<rect width="3.34975" height="3.35472" transform="matrix(-0.743439 -0.668804 0.743439 -0.668804 95.4486 246.939)" fill="#166DE0"/>
<rect width="3.34976" height="3.35472" transform="matrix(-0.743439 -0.668804 0.743439 -0.668804 117.895 226.747)" fill="#166DE0"/>
<rect width="3.34975" height="3.35471" transform="matrix(-0.743439 -0.668804 0.743439 -0.668804 5.66367 327.711)" fill="#166DE0"/>
<rect width="3.34975" height="3.35471" transform="matrix(-0.743439 -0.668804 0.743439 -0.668804 140.341 206.555)" fill="#166DE0"/>
<rect width="3.34973" height="3.35472" transform="matrix(-0.743439 -0.668804 0.743439 -0.668804 5.86287 85.5762)" fill="#166DE0"/>
<rect width="3.34975" height="3.35472" transform="matrix(-0.743439 -0.668804 0.743439 -0.668804 28.1099 307.519)" fill="#166DE0"/>
<rect width="3.34975" height="3.35474" transform="matrix(-0.743439 -0.668804 0.743439 -0.668804 162.787 186.361)" fill="#166DE0"/>
<rect width="3.34975" height="3.35474" transform="matrix(-0.743439 -0.668804 0.743439 -0.668804 28.3091 65.3838)" fill="#166DE0"/>
<rect width="3.34975" height="3.35472" transform="matrix(-0.743439 -0.668804 0.743439 -0.668804 50.5561 287.325)" fill="#166DE0"/>
<rect width="3.34975" height="3.35474" transform="matrix(-0.743439 -0.668804 0.743439 -0.668804 185.234 166.169)" fill="#166DE0"/>
<rect width="3.34973" height="3.35474" transform="matrix(-0.743439 -0.668804 0.743439 -0.668804 50.7553 45.1904)" fill="#166DE0"/>
<rect width="3.34976" height="3.35472" transform="matrix(-0.743439 -0.668804 0.743439 -0.668804 73.0024 267.133)" fill="#166DE0"/>
<rect width="3.34975" height="3.35471" transform="matrix(-0.743439 -0.668804 0.743439 -0.668804 207.68 145.976)" fill="#166DE0"/>
<rect width="3.34975" height="3.35468" transform="matrix(-0.743439 -0.668804 0.743439 -0.668804 73.2016 24.998)" fill="#166DE0"/>
<rect width="3.34975" height="3.35472" transform="matrix(-0.743439 -0.668804 0.743439 -0.668804 73.0356 226.777)" fill="#166DE0"/>
<rect width="3.34975" height="3.35471" transform="matrix(-0.743439 -0.668804 0.743439 -0.668804 95.4818 206.584)" fill="#166DE0"/>
<rect width="3.34975" height="3.35471" transform="matrix(-0.743439 -0.668804 0.743439 -0.668804 117.928 186.392)" fill="#166DE0"/>
<rect width="3.34975" height="3.35473" transform="matrix(-0.743439 -0.668804 0.743439 -0.668804 5.69686 287.355)" fill="#166DE0"/>
<rect width="3.34975" height="3.35474" transform="matrix(-0.743439 -0.668804 0.743439 -0.668804 140.374 166.198)" fill="#166DE0"/>
<rect width="3.34973" height="3.35474" transform="matrix(-0.743439 -0.668804 0.743439 -0.668804 5.89603 45.2207)" fill="#166DE0"/>
<rect width="3.34975" height="3.35472" transform="matrix(-0.743439 -0.668804 0.743439 -0.668804 28.1431 267.163)" fill="#166DE0"/>
<rect width="3.34975" height="3.35474" transform="matrix(-0.743439 -0.668804 0.743439 -0.668804 162.821 146.006)" fill="#166DE0"/>
<rect width="3.34973" height="3.35474" transform="matrix(-0.743439 -0.668804 0.743439 -0.668804 28.3423 25.0273)" fill="#166DE0"/>
<rect width="3.34975" height="3.35472" transform="matrix(-0.743439 -0.668804 0.743439 -0.668804 50.5893 246.97)" fill="#166DE0"/>
<rect width="3.34975" height="3.35471" transform="matrix(-0.743439 -0.668804 0.743439 -0.668804 185.267 125.812)" fill="#166DE0"/>
<rect width="3.34973" height="3.35471" transform="matrix(-0.743439 -0.668804 0.743439 -0.668804 50.7885 4.83496)" fill="#166DE0"/>
<rect width="3.34975" height="3.35474" transform="matrix(-0.743439 -0.668804 0.743439 -0.668804 50.6225 206.614)" fill="#166DE0"/>
<rect width="3.34975" height="3.35472" transform="matrix(-0.743439 -0.668804 0.743439 -0.668804 73.0688 186.421)" fill="#166DE0"/>
<rect width="3.34975" height="3.35474" transform="matrix(-0.743439 -0.668804 0.743439 -0.668804 95.515 166.229)" fill="#166DE0"/>
<rect width="3.34976" height="3.35471" transform="matrix(-0.743439 -0.668804 0.743439 -0.668804 117.961 146.035)" fill="#166DE0"/>
<rect width="3.34975" height="3.35471" transform="matrix(-0.743439 -0.668804 0.743439 -0.668804 5.73006 247)" fill="#166DE0"/>
<rect width="3.34975" height="3.35474" transform="matrix(-0.743439 -0.668804 0.743439 -0.668804 140.407 125.843)" fill="#166DE0"/>
<rect width="3.34979" height="3.35474" transform="matrix(-0.743439 -0.668804 0.743439 -0.668804 5.92927 4.86523)" fill="#166DE0"/>
<rect width="3.34975" height="3.35474" transform="matrix(-0.743439 -0.668804 0.743439 -0.668804 28.1763 226.807)" fill="#166DE0"/>
<rect width="3.34975" height="3.35471" transform="matrix(-0.743439 -0.668804 0.743439 -0.668804 162.854 105.649)" fill="#166DE0"/>
<rect width="3.34975" height="3.35474" transform="matrix(-0.743439 -0.668804 0.743439 -0.668804 28.2095 186.451)" fill="#166DE0"/>
<rect width="3.34975" height="3.35472" transform="matrix(-0.743439 -0.668804 0.743439 -0.668804 50.6557 166.258)" fill="#166DE0"/>
<rect width="3.34975" height="3.35472" transform="matrix(-0.743439 -0.668804 0.743439 -0.668804 73.102 146.065)" fill="#166DE0"/>
<rect width="3.34976" height="3.35474" transform="matrix(-0.743439 -0.668804 0.743439 -0.668804 95.5482 125.872)" fill="#166DE0"/>
<rect width="3.34976" height="3.35474" transform="matrix(-0.743439 -0.668804 0.743439 -0.668804 117.994 105.68)" fill="#166DE0"/>
<rect width="3.34975" height="3.35474" transform="matrix(-0.743439 -0.668804 0.743439 -0.668804 5.76327 206.644)" fill="#166DE0"/>
<rect width="3.34975" height="3.35471" transform="matrix(-0.743439 -0.668804 0.743439 -0.668804 140.441 85.4873)" fill="#166DE0"/>
</g>
</svg>
