<svg width="100%" height="100%" viewBox="0 0 329 273" fill="none" xmlns="http://www.w3.org/2000/svg">
<g filter="url(#filter0_f)">
<path fill-rule="evenodd" clip-rule="evenodd" d="M324.682 11.9045C324.687 11.0023 324.514 10.1079 324.173 9.27253C323.832 8.43715 323.329 7.67714 322.695 7.03593C322.06 6.39473 321.305 5.88489 320.473 5.53555C319.641 5.18622 318.748 5.00423 317.846 5H12.8364C11.0143 5.00977 9.27061 5.74255 7.98869 7.03727C6.70676 8.33199 5.99148 10.0827 6.00008 11.9045V195H6V216.651C6 218.464 6.72025 220.203 8.0023 221.484C9.28436 222.766 11.0232 223.486 12.8363 223.486H126.93L123.5 253H206L201.492 223.486H315C321.432 223.491 324.686 220.871 324.682 214C324.681 213.275 324.682 201.333 324.682 196.761C324.682 195.671 324.682 195 324.682 195L324.682 11.9045Z" fill="#3D3C40" fill-opacity="0.08"/>
</g>
<path d="M160.507 260.921C242.251 260.921 308.518 258.651 308.518 255.849C308.518 253.048 242.251 250.777 160.507 250.777C78.7621 250.777 12.4951 253.048 12.4951 255.849C12.4951 258.651 78.7621 260.921 160.507 260.921Z" fill="#3D3C40" fill-opacity="0.08"/>
<path opacity="0.1" d="M202.208 253.482H161.135L119.979 252.955L120.224 250.845H201.802L202.208 253.482Z" fill="#3D3C40"/>
<path d="M202.287 254.008L119.979 252.955L120.224 250.845L124.201 216.026H196.485L201.802 250.845L202.208 253.482L202.287 254.008Z" fill="white"/>
<path d="M319.682 6.90452C319.687 6.00227 319.514 5.1079 319.173 4.27253C318.832 3.43715 318.329 2.67714 317.695 2.03593C317.06 1.39473 316.305 0.88489 315.473 0.535554C314.641 0.186219 313.748 0.00423428 312.846 0H7.83636C6.01426 0.00977462 4.27061 0.74255 2.98869 2.03727C1.70676 3.33199 0.991479 5.08269 1.00008 6.90452V191.761H319.682V6.90452Z" fill="white"/>
<path d="M202.287 254.008L119.979 252.955L120.224 250.845L124.201 216.026H196.485L201.802 250.845L202.208 253.482L202.287 254.008Z" fill="#3D3C40" fill-opacity="0.24"/>
<path d="M215.479 251.371H106.26V254.008H215.479V251.371Z" fill="white"/>
<path d="M215.479 251.371H106.26V254.008H215.479V251.371Z" fill="#3D3C40" fill-opacity="0.24"/>
<path opacity="0.1" d="M169.048 218.4L201.885 251.371L196.846 218.4H169.048Z" fill="#3D3C40"/>
<path d="M319.682 6.90452C319.687 6.00227 319.514 5.1079 319.173 4.27253C318.832 3.43715 318.329 2.67714 317.695 2.03593C317.06 1.39473 316.305 0.88489 315.473 0.535554C314.641 0.186219 313.748 0.00423428 312.846 0H7.83636C6.01426 0.00977462 4.27061 0.74255 2.98869 2.03727C1.70676 3.33199 0.991479 5.08269 1.00008 6.90452V191.761H319.682V6.90452Z" fill="#3D3C40" fill-opacity="0.72"/>
<path d="M1 189.914V211.565C1 213.378 1.72025 215.116 3.0023 216.398C4.28436 217.68 6.02319 218.4 7.83629 218.4H312.846C313.743 218.401 314.633 218.224 315.462 217.881C316.292 217.538 317.046 217.034 317.681 216.399C318.316 215.764 318.819 215.011 319.163 214.181C319.506 213.352 319.682 212.462 319.682 211.565V189.914H1Z" fill="white"/>
<path d="M1 190V211.651C1 213.464 1.72025 215.203 3.0023 216.484C4.28436 217.766 6.02319 218.486 7.83629 218.486H312.846C313.743 218.487 314.633 218.311 315.462 217.967C316.292 217.624 317.046 217.121 317.681 216.486C318.316 215.851 318.819 215.097 319.163 214.268C319.506 213.438 319.682 212.549 319.682 211.651V190H1Z" fill="#3D3C40" fill-opacity="0.24"/>
<path d="M308.074 11.606H14.1924V177.781H308.074V11.606Z" fill="white"/>
<circle cx="160.5" cy="204.5" r="7.5" fill="#3D3C40" fill-opacity="0.16"/>
<ellipse cx="161" cy="95.5" rx="44" ry="43.5" fill="white"/>
<path fill-rule="evenodd" clip-rule="evenodd" d="M199.247 121.557C204.302 113.993 207 105.099 207 96.0015C207 89.9607 205.811 83.979 203.499 78.3979C201.187 72.8169 197.799 67.7458 193.528 63.4741C189.257 59.2025 184.186 55.814 178.605 53.5021C173.024 51.1902 167.042 50.0002 161.001 50C151.904 49.9997 143.01 52.6973 135.445 57.7516C127.88 62.8059 121.984 69.9899 118.502 78.3952C115.02 86.8005 114.109 96.0495 115.884 104.973C117.658 113.896 122.039 122.092 128.472 128.526C134.905 134.959 143.101 139.341 152.024 141.116C160.947 142.891 170.197 141.98 178.602 138.499C187.008 135.018 194.192 129.122 199.247 121.557ZM155 70.5C155 68.567 156.567 67 158.5 67H163.5C165.433 67 167 68.567 167 70.5V103.5C167 105.433 165.433 107 163.5 107H158.5C156.567 107 155 105.433 155 103.5V70.5ZM161 126C164.866 126 168 122.866 168 119C168 115.134 164.866 112 161 112C157.134 112 154 115.134 154 119C154 122.866 157.134 126 161 126Z" fill="#FFBC42"/>
<defs>
<filter id="filter0_f" x="2" y="1" width="326.682" height="256" filterUnits="userSpaceOnUse" color-interpolation-filters="sRGB">
<feFlood flood-opacity="0" result="BackgroundImageFix"/>
<feBlend mode="normal" in="SourceGraphic" in2="BackgroundImageFix" result="shape"/>
<feGaussianBlur stdDeviation="2" result="effect1_foregroundBlur"/>
</filter>
</defs>
</svg>
