<svg width="19" height="25" viewBox="0 0 19 25" fill="none" xmlns="http://www.w3.org/2000/svg">
<path d="M17.9555 24.0337H1.0445C0.760103 24.0027 0.522248 23.8916 0.330929 23.7002C0.142196 23.5115 0.0310246 23.2736 0 22.9893V1.0445C0.0310246 0.760103 0.142196 0.522248 0.333515 0.330929C0.522248 0.142196 0.760103 0.0310246 1.0445 0H13.5836L18.9974 5.36726V22.9893C18.9974 23.2736 18.9018 23.5115 18.713 23.7028C18.5243 23.8916 18.2709 24.0027 17.9555 24.0337Z" fill="#DBE0E0"/>
<path d="M11.2568 3.65832H2.376C2.15365 3.62729 2.04248 3.49027 2.04248 3.25241C2.04248 3.01456 2.15365 2.89563 2.376 2.89563H11.2594C11.4817 2.89563 11.5929 3.01456 11.5929 3.25241C11.5903 3.49027 11.4791 3.62729 11.2568 3.65832ZM9.87878 6.22302C10.1011 6.192 10.2278 6.06531 10.2588 5.84297C10.2278 5.62063 10.1011 5.49394 9.87878 5.46292H2.376C2.15365 5.49394 2.04248 5.62063 2.04248 5.84297C2.04248 6.06531 2.15365 6.192 2.376 6.22302H9.87878ZM15.7683 8.83426C15.9906 8.80324 16.1173 8.67655 16.1483 8.45421C16.1173 8.23187 15.9906 8.10518 15.7683 8.07416H2.376C2.15365 8.10777 2.04248 8.23445 2.04248 8.45421C2.04248 8.67655 2.15365 8.80324 2.376 8.83426H15.7683ZM14.9151 11.399C15.1375 11.399 15.2641 11.2723 15.2952 11.0189C15.2641 10.7966 15.1375 10.6699 14.9151 10.6389H2.376C2.15365 10.6725 2.04248 10.8069 2.04248 11.0422C2.04248 11.28 2.15365 11.399 2.376 11.399H14.9151ZM9.87878 14.0128C10.1011 13.9818 10.2278 13.8551 10.2588 13.6327C10.2278 13.4104 10.1011 13.2837 9.87878 13.2527H2.376C2.15365 13.2837 2.04248 13.4104 2.04248 13.6327C2.04248 13.8551 2.15365 13.9818 2.376 14.0128H9.87878ZM15.7683 16.5775C15.9906 16.5775 16.1173 16.4508 16.1483 16.1974C16.1173 15.9751 15.9906 15.8484 15.7683 15.8174H2.376C2.15365 15.8484 2.04248 15.9829 2.04248 16.2207C2.04248 16.4586 2.15365 16.5775 2.376 16.5775H15.7683ZM15.7683 19.1887C15.9906 19.1577 16.1173 19.031 16.1483 18.8087C16.1173 18.5863 15.9906 18.4597 15.7683 18.4286H2.376C2.15365 18.4622 2.04248 18.5889 2.04248 18.8087C2.04248 19.031 2.15365 19.1577 2.376 19.1887H15.7683ZM15.7683 21.7534C15.9906 21.7534 16.1173 21.6268 16.1483 21.3734C16.1173 21.151 15.9906 21.0399 15.7683 21.0399H2.376C2.15365 21.0399 2.04248 21.1588 2.04248 21.3967C2.04248 21.6345 2.15365 21.7534 2.376 21.7534H15.7683Z" fill="#95A9B2"/>
<path d="M13.5835 0L18.9508 5.36726H14.7237C14.4056 5.36726 14.1368 5.26385 13.917 5.0596C13.6947 4.85277 13.5835 4.57613 13.5835 4.22711V0Z" fill="#B9C5C6"/>
</svg>
