<svg width="47" height="47" viewBox="0 0 47 47" fill="none" xmlns="http://www.w3.org/2000/svg">
<g clip-path="url(#clip0)">
<path d="M8.09798 8.65202C12.1221 4.60741 17.1903 2.52241 23.3026 2.39702C29.3564 2.52533 34.3953 4.61033 38.4194 8.65202C42.4436 12.6937 44.5492 17.7327 44.7364 23.769C44.5463 29.7995 42.4406 34.8385 38.4194 38.886C34.3982 42.9335 29.3593 45.0229 23.3026 45.1541C17.1874 45.0287 12.1192 42.9452 8.09798 38.9035C4.07677 34.8618 1.9711 29.8228 1.78101 23.7865C1.96525 17.7385 4.07092 12.6937 8.09798 8.65202Z" fill="white"/>
<path d="M35.4715 23.769C35.4295 26.9874 34.1368 30.064 31.8656 32.3511C30.751 33.4862 29.4181 34.3855 27.9467 34.995C26.4754 35.6046 24.8958 35.9118 23.3026 35.8985C19.8107 35.8372 16.9418 34.6548 14.6957 32.3511C12.4459 30.0459 11.1437 26.9841 11.0459 23.769C11.1073 20.3484 12.245 17.5169 14.4588 15.2745C16.6727 13.032 19.6206 11.8189 23.3026 11.6352C24.8954 11.593 26.4796 11.8824 27.954 12.4849C29.4284 13.0874 30.7606 13.9898 31.8656 15.1345C34.1324 17.4459 35.4231 20.5365 35.4715 23.769Z" fill="white"/>
<path d="M23.3026 47.0044C16.6902 46.8178 11.1848 44.5461 6.78634 40.1895C2.38786 35.8329 0.125754 30.3594 0 23.769C0.125754 17.2341 2.38786 11.7752 6.78634 7.39228C11.1848 3.00941 16.6902 0.724647 23.3026 0.538017C29.8564 0.721731 35.3311 3.00794 39.7267 7.39665C44.1222 11.7854 46.3844 17.2443 46.5131 23.7734C46.3873 30.3666 44.1252 35.8401 39.7267 40.1939C35.3282 44.5476 29.8535 46.8178 23.3026 47.0044ZM23.3026 4.91652C17.9361 5.10315 13.4762 6.95486 9.9229 10.4717C6.36961 13.9885 4.52864 18.4209 4.39996 23.769C4.52279 29.1171 6.36376 33.5641 9.9229 37.1101C13.482 40.6561 17.9419 42.4917 23.3026 42.6171C28.6048 42.4917 33.0354 40.6561 36.5946 37.1101C40.1537 33.5641 41.9932 29.1171 42.1131 23.769C41.9903 18.418 40.1508 13.9855 36.5946 10.4717C33.0383 6.95777 28.6077 5.10461 23.3026 4.91215V4.91652Z" fill="#FFBC1F"/>
<path d="M23.3026 37.7662C19.3106 37.6379 16.0045 36.2848 13.3841 33.707C10.7637 31.1292 9.39065 27.8165 9.26489 23.769C9.26489 19.8498 10.5604 16.5838 13.1516 13.971C15.7427 11.3581 19.0957 9.95842 23.2105 9.77179C27.2025 9.83303 30.5247 11.1861 33.1773 13.831C35.8298 16.4759 37.1868 19.7885 37.2482 23.769C37.1868 27.7495 35.8298 31.0461 33.1773 33.6589C30.5492 36.2602 27.0055 37.7342 23.3026 37.7662ZM23.4913 14.5308H23.3026C20.5565 14.6533 18.3104 15.5704 16.5645 17.2822C15.7011 18.1284 15.0289 19.1488 14.5931 20.2751C14.1574 21.4014 13.968 22.6075 14.0377 23.8127C14.0291 25.0277 14.265 26.2321 14.7314 27.3546C15.1978 28.477 15.8852 29.4948 16.7531 30.3477C17.8282 31.4251 19.1524 32.2225 20.6091 32.6698C22.0659 33.117 23.6105 33.2004 25.1072 32.9126C26.6038 32.6247 28.0066 31.9745 29.192 31.0191C30.3775 30.0637 31.3092 28.8324 31.9052 27.4336C32.5013 26.0348 32.7435 24.5113 32.6103 22.9973C32.4772 21.4833 31.9729 20.0251 31.1418 18.751C30.3107 17.477 29.1783 16.4262 27.8442 15.691C26.5101 14.9559 25.0153 14.559 23.4913 14.5352V14.5308Z" fill="#FFBC1F"/>
<path d="M20.5433 21.0964C21.2765 20.4049 22.2474 20.0195 23.2566 20.0195C24.2658 20.0195 25.2366 20.4049 25.9698 21.0964C26.6623 21.8095 27.0496 22.7632 27.0496 23.7559C27.0496 24.7485 26.6623 25.7023 25.9698 26.4154C25.2366 27.1069 24.2658 27.4923 23.2566 27.4923C22.2474 27.4923 21.2765 27.1069 20.5433 26.4154C19.8538 25.7007 19.4688 24.7475 19.4688 23.7559C19.4688 22.7642 19.8538 21.8111 20.5433 21.0964Z" fill="#FFBC1F"/>
<path d="M23.7939 24.1583C23.6572 24.2946 23.4718 24.3712 23.2785 24.3712C23.0851 24.3712 22.8998 24.2946 22.7631 24.1583C22.6264 24.022 22.5496 23.8371 22.5496 23.6444C22.5496 23.4516 22.6264 23.2667 22.7631 23.1304L25.6671 20.2391L26.6015 21.267L23.7939 24.1583Z" fill="#818698"/>
<path d="M46.9825 6.97236C47.2954 8.72201 44.3314 10.0342 38.0905 10.9091L29.0142 21.0789C28.8153 21.2872 28.5756 21.4526 28.31 21.5647C28.0444 21.6768 27.7585 21.7333 27.4701 21.7307C26.8738 21.7315 26.3014 21.4972 25.8777 21.0789C25.6567 20.8875 25.4797 20.6509 25.3586 20.3853C25.2375 20.1196 25.1752 19.8311 25.1758 19.5392C25.1826 18.9333 25.4156 18.3515 25.8294 17.9077L36.0331 8.94947C36.9104 2.72946 38.2265 -0.242029 39.9812 0.0349989C41.7359 0.312027 41.8909 2.49909 40.4462 6.59619C44.4937 5.10607 46.6725 5.23146 46.9825 6.97236Z" fill="#1E325C"/>
</g>
<defs>
<clipPath id="clip0">
<rect width="47" height="47" fill="white"/>
</clipPath>
</defs>
</svg>
