<svg width="26" height="22" viewBox="0 0 26 22" fill="none" xmlns="http://www.w3.org/2000/svg">
<path d="M25.7472 7.59715C25.8821 7.73209 25.9507 7.9013 25.9507 8.10477V20.5468C25.9507 20.7503 25.8821 20.9195 25.7472 21.0544C25.6122 21.1893 25.443 21.2579 25.2396 21.2579H0.762499C0.559023 21.2579 0.381249 21.1893 0.229178 21.0544C0.0771066 20.9195 0 20.7503 0 20.5468V8.10477C0 7.9013 0.0771066 7.73209 0.229178 7.59715C0.381249 7.46222 0.559023 7.39368 0.762499 7.39368H25.2396C25.443 7.39368 25.6122 7.46222 25.7472 7.59715Z" fill="#CC8F00"/>
<path d="M2.2855 12.8789H1.42233C1.18459 12.8447 1.04965 12.7269 1.01538 12.5234V10.1374C1.04965 9.90177 1.18459 9.78183 1.42233 9.78183H2.2855C2.5211 9.78183 2.65818 9.90177 2.69245 10.1374V12.5234C2.65818 12.7269 2.52324 12.8447 2.2855 12.8789ZM2.2855 15.7233H1.42233C1.18459 15.6891 1.04965 15.5713 1.01538 15.3678V14.556C1.04965 14.3204 1.18459 14.2005 1.42233 14.2005H2.2855C2.5211 14.2005 2.65818 14.3204 2.69245 14.556V15.3678C2.65818 15.5713 2.52324 15.6891 2.2855 15.7233ZM2.2855 18.4649H1.42233C1.18459 18.4306 1.04965 18.3128 1.01538 18.1093V17.2976C1.04965 17.0941 1.18459 16.9763 1.42233 16.942H2.2855C2.5211 16.9763 2.65818 17.0941 2.69245 17.2976V18.1093C2.65818 18.3128 2.52324 18.4306 2.2855 18.4649ZM4.67152 12.8789H3.75695C3.5192 12.8447 3.4014 12.7269 3.4014 12.5234V10.1374C3.4014 9.90177 3.5192 9.78183 3.75695 9.78183H4.67152C4.87499 9.78183 4.9928 9.90177 5.02707 10.1374V12.5234C4.9928 12.7269 4.87499 12.8447 4.67152 12.8789ZM4.67152 15.7233H3.75695C3.5192 15.6891 3.4014 15.5713 3.4014 15.3678V14.556C3.4014 14.3204 3.5192 14.2005 3.75695 14.2005H4.67152C4.87499 14.2005 4.9928 14.3204 5.02707 14.556V15.3678C4.9928 15.5713 4.87499 15.6891 4.67152 15.7233ZM4.67152 18.4649H3.75695C3.5192 18.4306 3.4014 18.3128 3.4014 18.1093V17.2976C3.4014 17.0941 3.5192 16.9763 3.75695 16.942H4.67152C4.87499 16.9763 4.9928 17.0941 5.02707 17.2976V18.1093C4.9928 18.3128 4.87499 18.4306 4.67152 18.4649ZM22.7487 12.5234V10.1374C22.7145 9.90177 22.5795 9.78183 22.3418 9.78183H21.4786C21.2409 9.78183 21.1059 9.90177 21.0717 10.1374V12.5234C21.1059 12.7269 21.2409 12.8447 21.4786 12.8789H22.3418C22.5774 12.8447 22.7145 12.7269 22.7487 12.5234ZM22.3418 15.7233H21.4786C21.2409 15.6891 21.1059 15.5713 21.0717 15.3678V14.556C21.1059 14.3204 21.2409 14.2005 21.4786 14.2005H22.3418C22.5774 14.2005 22.7145 14.3204 22.7487 14.556V15.3678C22.7145 15.5713 22.5795 15.6891 22.3418 15.7233ZM22.3418 18.4649H21.4786C21.2409 18.4306 21.1059 18.3128 21.0717 18.1093V17.2976C21.1059 17.0941 21.2409 16.9763 21.4786 16.942H22.3418C22.5774 16.9763 22.7145 17.0941 22.7487 17.2976V18.1093C22.7145 18.3128 22.5795 18.4306 22.3418 18.4649ZM24.7278 12.8789H23.8132C23.5755 12.8447 23.4577 12.7269 23.4577 12.5234V10.1374C23.4577 9.90177 23.5755 9.78183 23.8132 9.78183H24.7278C24.9313 9.78183 25.0491 9.90177 25.0833 10.1374V12.5234C25.0491 12.7269 24.9313 12.8447 24.7278 12.8789ZM24.7278 15.7233H23.8132C23.5755 15.6891 23.4577 15.5713 23.4577 15.3678V14.556C23.4577 14.3204 23.5755 14.2005 23.8132 14.2005H24.7278C24.9313 14.2005 25.0491 14.3204 25.0833 14.556V15.3678C25.0491 15.5713 24.9313 15.6891 24.7278 15.7233ZM24.7278 18.4649H23.8132C23.5755 18.4306 23.4577 18.3128 23.4577 18.1093V17.2976C23.4577 17.0941 23.5755 16.9763 23.8132 16.942H24.7278C24.9313 16.9763 25.0491 17.0941 25.0833 17.2976V18.1093C25.0491 18.3128 24.9313 18.4306 24.7278 18.4649Z" fill="#66320A"/>
<path d="M20.0584 0.914553V20.6988C20.0241 21.0372 19.9063 21.2236 19.7028 21.2578H6.65256C6.41481 21.2236 6.27988 21.0372 6.24561 20.6988V0.914553C6.27988 0.57614 6.41481 0.389799 6.65256 0.35553H19.7028C19.9063 0.389799 20.0241 0.57614 20.0584 0.914553Z" fill="#FFBC1F"/>
<path d="M9.19071 10.9491C9.15644 11.1869 9.03864 11.3047 8.83517 11.3047H7.71712C7.47937 11.3047 7.36157 11.1869 7.36157 10.9491V8.15616C7.36157 7.92056 7.47937 7.80061 7.71712 7.80061H8.83517C9.03864 7.80061 9.15644 7.92056 9.19071 8.15616V10.9491ZM8.83517 14.3011C9.03864 14.3011 9.15644 14.1833 9.19071 13.9456V13.1338C9.15644 12.9303 9.03864 12.8125 8.83517 12.7783H7.71712C7.47937 12.8125 7.36157 12.9303 7.36157 13.1338V13.9456C7.36157 14.1833 7.47937 14.3011 7.71712 14.3011H8.83517ZM8.83517 17.2462C9.03864 17.2462 9.15644 17.1284 9.19071 16.8906V16.0789C9.15644 15.8754 9.03864 15.7576 8.83517 15.7233H7.71712C7.47937 15.7576 7.36157 15.8754 7.36157 16.0789V16.8906C7.36157 17.1284 7.47937 17.2462 7.71712 17.2462H8.83517ZM8.83517 19.9385C9.03864 19.9042 9.15644 19.7864 9.19071 19.5829V18.7712C9.15644 18.5677 9.03864 18.4499 8.83517 18.4156H7.71712C7.47937 18.4499 7.36157 18.5677 7.36157 18.7712V19.5829C7.36157 19.7864 7.47937 19.9042 7.71712 19.9385H8.83517ZM11.4761 11.3047C11.7117 11.3047 11.8487 11.1869 11.883 10.9491V8.15616C11.8487 7.92056 11.7138 7.80061 11.4761 7.80061H10.358C10.1545 7.80061 10.0367 7.92056 10.0025 8.15616V10.9491C10.0367 11.1869 10.1545 11.3047 10.358 11.3047H11.4761ZM11.4761 14.3011C11.7117 14.3011 11.8487 14.1833 11.883 13.9456V13.1338C11.8487 12.9303 11.7138 12.8125 11.4761 12.7783H10.358C10.1545 12.8125 10.0367 12.9303 10.0025 13.1338V13.9456C10.0367 14.1833 10.1545 14.3011 10.358 14.3011H11.4761ZM15.8947 11.3047C16.0982 11.3047 16.216 11.1869 16.2503 10.9491V8.15616C16.216 7.92056 16.0982 7.80061 15.8947 7.80061H14.7767C14.5389 7.80061 14.404 7.92056 14.3697 8.15616V10.9491C14.404 11.1869 14.5389 11.3047 14.7767 11.3047H15.8947ZM15.8947 14.3011C16.0982 14.3011 16.216 14.1833 16.2503 13.9456V13.1338C16.216 12.9303 16.0982 12.8125 15.8947 12.7783H14.7767C14.5389 12.8125 14.404 12.9303 14.3697 13.1338V13.9456C14.404 14.1833 14.5389 14.3011 14.7767 14.3011H15.8947ZM18.5356 11.3047C18.7712 11.3047 18.8912 11.1869 18.8912 10.9491V8.15616C18.8912 7.92056 18.7712 7.80061 18.5356 7.80061H17.4176C17.2141 7.80061 17.0963 7.92056 17.062 8.15616V10.9491C17.0963 11.1869 17.2141 11.3047 17.4176 11.3047H18.5356ZM9.19285 5.88366C9.15858 6.1214 9.04078 6.2392 8.83731 6.2392H7.71926C7.48152 6.2392 7.36371 6.1214 7.36371 5.88366V3.09068C7.36371 2.85508 7.48152 2.73514 7.71926 2.73514H8.83731C9.04078 2.73514 9.15858 2.85508 9.19285 3.09068V5.88366ZM11.4782 6.2392C11.7138 6.2392 11.8509 6.1214 11.8852 5.88366V3.09068C11.8509 2.85508 11.716 2.73514 11.4782 2.73514H10.3602C10.1567 2.73514 10.0389 2.85508 10.0046 3.09068V5.88366C10.0389 6.1214 10.1567 6.2392 10.3602 6.2392H11.4782ZM15.8968 6.2392C16.1003 6.2392 16.2181 6.1214 16.2524 5.88366V3.09068C16.2181 2.85508 16.1003 2.73514 15.8968 2.73514H14.7788C14.5411 2.73514 14.4061 2.85508 14.3718 3.09068V5.88366C14.4061 6.1214 14.5411 6.2392 14.7788 6.2392H15.8968ZM18.5377 6.2392C18.7733 6.2392 18.8933 6.1214 18.8933 5.88366V3.09068C18.8933 2.85508 18.7733 2.73514 18.5377 2.73514H17.4197C17.2162 2.73514 17.0984 2.85508 17.0642 3.09068V5.88366C17.0984 6.1214 17.2162 6.2392 17.4197 6.2392H18.5377ZM18.5377 14.3011C18.7733 14.3011 18.8933 14.1833 18.8933 13.9456V13.1338C18.8933 12.9303 18.7733 12.8125 18.5377 12.7783H17.4197C17.2162 12.8125 17.0984 12.9303 17.0642 13.1338V13.9456C17.0984 14.1833 17.2162 14.3011 17.4197 14.3011H18.5377ZM18.5377 17.2462C18.7733 17.2462 18.8933 17.1284 18.8933 16.8906V16.0789C18.8933 15.8754 18.7733 15.7576 18.5377 15.7233H17.4197C17.2162 15.7576 17.0984 15.8754 17.0642 16.0789V16.8906C17.0984 17.1284 17.2162 17.2462 17.4197 17.2462H18.5377ZM18.5377 19.9385C18.7733 19.9042 18.8933 19.7864 18.8933 19.5829V18.7712C18.8933 18.5677 18.7733 18.4499 18.5377 18.4156H17.4197C17.2162 18.4499 17.0984 18.5677 17.0642 18.7712V19.5829C17.0984 19.7864 17.2162 19.9042 17.4197 19.9385H18.5377Z" fill="#CC8F00"/>
<path d="M15.794 15.824H10.5122V21.2579H15.794V15.824Z" fill="#E0E9EF"/>
<path d="M20.0582 1.37078H6.29684C6.0591 1.33651 5.92416 1.21871 5.88989 1.01524V0.355547C5.92416 0.119944 6.0591 0 6.29684 0H20.0582C20.2617 0 20.3795 0.119944 20.4138 0.355547V1.01524C20.3795 1.21871 20.2617 1.33651 20.0582 1.37078ZM15.8431 15.1643H10.4606C10.2229 15.1986 10.1051 15.3164 10.1051 15.5198V16.1303C10.1051 16.368 10.2229 16.4858 10.4606 16.4858H12.9987V21.26H13.3028V16.4858H15.8409C16.0765 16.4858 16.2136 16.368 16.2479 16.1303V15.5198C16.2136 15.3164 16.0787 15.1986 15.8409 15.1643H15.8431Z" fill="#1E325C"/>
</svg>
