<svg width="52" height="46" viewBox="0 0 52 46" fill="none" xmlns="http://www.w3.org/2000/svg">
<g clip-path="url(#clip0)">
<path d="M26.1973 6.54942H47.2062C47.8354 6.54499 48.4594 6.66483 49.0422 6.90209C49.625 7.13934 50.1552 7.48933 50.6024 7.93197C51.0496 8.37461 51.4049 8.90119 51.6481 9.48149C51.8912 10.0618 52.0173 10.6844 52.0192 11.3135V33.0984C52.0167 33.7272 51.8901 34.3493 51.6467 34.929C51.4033 35.5087 51.0478 36.0347 50.6007 36.4769C50.1536 36.919 49.6236 37.2686 49.0411 37.5055C48.4586 37.7425 47.835 37.8622 47.2062 37.8577H42.1525V46.0385L34.5624 37.8577H26.1973C25.5685 37.8622 24.9449 37.7425 24.3624 37.5055C23.7799 37.2686 23.2499 36.919 22.8028 36.4769C22.3557 36.0347 22.0002 35.5087 21.7568 34.929C21.5134 34.3493 21.3868 33.7272 21.3843 33.0984V11.3135C21.3862 10.6844 21.5123 10.0618 21.7554 9.48149C21.9986 8.90119 22.3539 8.37461 22.8011 7.93197C23.2483 7.48933 23.7785 7.13934 24.3613 6.90209C24.9441 6.66483 25.5681 6.54499 26.1973 6.54942Z" fill="#1E325C"/>
<path d="M39.0434 6.36297e-07H4.77458C4.14533 -0.00443734 3.52141 0.11541 2.9386 0.352664C2.35579 0.589917 1.82557 0.939904 1.37839 1.38254C0.9312 1.82518 0.575843 2.35177 0.332704 2.93207C0.0895656 3.51236 -0.0365667 4.13494 -0.0384521 4.76409V26.5298C-0.0359346 27.1585 0.0906638 27.7806 0.334085 28.3603C0.577506 28.9401 0.932967 29.4661 1.38009 29.9082C1.82721 30.3503 2.35721 30.6999 2.9397 30.9369C3.52219 31.1738 4.14574 31.2935 4.77458 31.289H9.83308V39.4698L17.4232 31.289H39.0434C39.6722 31.2935 40.2957 31.1738 40.8782 30.9369C41.4607 30.6999 41.9907 30.3503 42.4379 29.9082C42.885 29.4661 43.2404 28.9401 43.4839 28.3603C43.7273 27.7806 43.8539 27.1585 43.8564 26.5298V4.76409C43.8545 4.13494 43.7284 3.51236 43.4852 2.93207C43.2421 2.35177 42.8868 1.82518 42.4396 1.38254C41.9924 0.939904 41.4622 0.589917 40.8794 0.352664C40.2965 0.11541 39.6726 -0.00443734 39.0434 6.36297e-07Z" fill="#FFBC1F"/>
<path d="M10.218 12.5358C10.8286 12.5349 11.4258 12.7151 11.9339 13.0537C12.442 13.3923 12.8381 13.874 13.0722 14.4378C13.3063 15.0016 13.3678 15.6223 13.2489 16.2211C13.1301 16.8199 12.8361 17.3699 12.4044 17.8016C11.9726 18.2333 11.4225 18.5272 10.8236 18.6461C10.2246 18.7649 9.60392 18.7034 9.03998 18.4694C8.47605 18.2353 7.99427 17.8392 7.65563 17.3312C7.317 16.8232 7.13675 16.2262 7.1377 15.6157C7.13897 14.7992 7.46392 14.0166 8.04132 13.4393C8.61872 12.862 9.40147 12.5371 10.218 12.5358Z" fill="white"/>
<path d="M21.9187 12.5358C22.5293 12.5349 23.1265 12.7151 23.6346 13.0537C24.1426 13.3923 24.5388 13.874 24.7729 14.4378C25.007 15.0016 25.0685 15.6223 24.9496 16.2211C24.8308 16.8199 24.5368 17.3699 24.1051 17.8016C23.6733 18.2333 23.1232 18.5272 22.5242 18.6461C21.9253 18.7649 21.3046 18.7034 20.7407 18.4694C20.1767 18.2353 19.695 17.8392 19.3563 17.3312C19.0177 16.8232 18.8374 16.2262 18.8384 15.6157C18.8397 14.7992 19.1646 14.0166 19.742 13.4393C20.3194 12.862 21.1022 12.5371 21.9187 12.5358Z" fill="white"/>
<path d="M33.6192 12.5358C34.2298 12.5349 34.8269 12.7151 35.335 13.0537C35.8431 13.3923 36.2393 13.874 36.4734 14.4378C36.7075 15.0016 36.769 15.6223 36.6501 16.2211C36.5312 16.8199 36.2373 17.3699 35.8055 17.8016C35.3737 18.2333 34.8236 18.5272 34.2247 18.6461C33.6258 18.7649 33.0051 18.7034 32.4411 18.4694C31.8772 18.2353 31.3954 17.8392 31.0568 17.3312C30.7181 16.8232 30.5379 16.2262 30.5388 15.6157C30.5401 14.7992 30.865 14.0166 31.4424 13.4393C32.0198 12.862 32.8026 12.5371 33.6192 12.5358Z" fill="white"/>
</g>
<defs>
<clipPath id="clip0">
<rect width="52" height="46" fill="white"/>
</clipPath>
</defs>
</svg>
