<svg width="44" height="44" viewBox="0 0 44 44" fill="none" xmlns="http://www.w3.org/2000/svg">
<path d="M44 22.0007C44 34.152 34.1513 44.0007 22 44.0007C9.8487 44.0007 0 34.152 0 22.0007C0 11.4432 7.44037 2.62051 17.3596 0.490211L17.9822 0.501959L18.4286 0.290496C18.7889 0.231756 19.1492 0.180848 19.5134 0.141688L20.2848 0.165184L20.8213 0.0320408C20.927 0.0281248 21.0288 0.0202929 21.1346 0.0163769L22 0.137772L22.5717 0.00854492C22.6814 0.0124609 22.791 0.0163769 22.9007 0.0202929L24.1068 0.32574L25.5322 0.28658C25.7006 0.313992 25.869 0.341404 26.0374 0.372731L31.2574 3.6974L36.9512 5.86294C41.2862 9.87682 44 15.6216 44 22.0007Z" fill="#1C58D9"/>
<path d="M23.0692 6.94309C24.5025 7.40126 24.4437 6.49667 25.3483 7.55007C25.8691 8.15313 26.809 9.26135 27.925 9.53547C28.0817 9.57463 28.4302 9.24177 28.4302 8.97157C28.4302 8.70528 27.6588 8.14138 27.2162 8.0239C26.7698 7.9025 27.3925 7.07623 26.8011 6.82561C26.2098 6.57107 25.5559 5.62732 25.3209 4.8872C25.082 4.14708 24.0443 4.76972 23.6919 4.62091C23.3355 4.4721 22.893 4.56217 22.5092 5.12607C22.1215 5.68606 22.7011 6.82561 23.0692 6.94309Z" fill="#FFBC1F"/>
<path d="M30.8306 27.6665C30.8149 27.3571 27.9954 25.8142 27.6508 25.7946C27.0869 25.7633 26.3194 25.4774 25.8025 25.779C25.5793 25.9043 25.3991 26.0766 25.2581 26.288C25.1602 26.4721 24.612 26.1275 24.3966 26.2411C23.8876 26.5113 23.5978 25.6302 23.7427 25.2934C24.0951 24.4671 22.842 24.9919 22.7128 24.7647C22.8655 25.031 22.6697 22.4112 22.2311 23.8915C21.8982 25.0114 20.5942 23.727 20.7508 22.9125C20.9936 21.6554 22.889 21.4714 23.3041 21.6946C23.5155 21.8042 24.2831 22.9242 24.381 22.8929C24.5924 22.8263 24.2557 21.5771 24.2126 21.4087C24.0599 20.8017 25.2307 20.5942 25.313 19.9598C25.3835 19.4194 25.7476 19.6074 26.1118 19.3176C26.6405 18.8986 26.2293 18.1193 26.9068 17.716C27.1378 17.5789 27.9993 17.481 28.1129 17.2382C28.2186 17.0189 27.3845 16.4119 28.1012 16.2396C28.7434 16.083 29.4013 16.361 29.5736 15.4329C29.7302 14.591 28.8021 14.3991 28.5202 13.7451C28.434 13.5493 28.3283 12.4215 27.9288 12.6291C27.4354 12.8875 27.13 13.5102 26.7306 12.7701C26.0061 11.4347 24.2126 10.8591 25.0545 12.958C25.4892 14.0428 23.868 17.34 23.633 14.2895C23.5508 13.2322 20.3827 12.911 21.4479 11.7402C22.5287 10.5497 24.005 10.5066 24.4045 8.68178C24.9605 6.14813 23.2062 8.30193 22.3094 7.81243C20.9701 7.08014 22.1058 7.47565 21.4126 8.42724C21.1503 8.78751 20.2888 8.20011 19.905 8.25493C19.5486 8.30976 18.6362 9.09295 18.3934 8.60346C17.9431 7.7067 14.8025 7.15454 13.9488 7.47174C12.1788 8.13745 11.56 7.23678 9.79001 6.88826C9.1752 6.76686 6.15989 6.68071 6.35569 7.72628C6.43401 8.13745 6.72379 8.45857 6.8491 8.84625C7.03707 9.4219 6.17164 8.97939 5.97584 9.12037C5.92493 9.15953 6.99399 9.9114 7.08015 10.0015C7.36993 10.2952 5.96801 10.6554 5.83095 11.1488C5.549 12.1553 7.74978 11.8655 7.34643 13.0716C7.22504 13.4397 5.96409 14.0388 5.84269 15.2685C5.8192 15.5034 7.40909 13.7412 8.43508 14.1132C9.34358 14.4422 9.26135 11.979 10.3892 11.979C12.4881 11.979 12.8915 14.0232 13.9997 15.3938C14.5166 16.0321 14.9317 16.2984 15.0218 17.1325C15.1079 17.9118 14.9395 18.8555 15.2215 19.5956C15.4917 20.3044 16.0399 20.3514 16.4002 20.9231C16.8309 21.5967 17.0737 22.2507 17.6572 22.8302C18.5031 23.68 19.9481 24.9801 21.2756 24.7804C21.538 24.7412 22.5287 25.3051 22.7519 25.4735C23.1004 25.7359 23.2767 26.1314 23.5273 26.4682C23.7622 26.7815 24.5024 26.5857 24.8313 26.7345C25.1211 26.8676 24.0755 29.0684 24.4671 29.648C24.894 30.2863 24.894 30.999 25.5362 31.5002C26.1432 31.9741 26.3233 32.0132 26.4016 32.8356C26.523 34.1748 26.1314 35.5298 25.8103 36.779C25.6419 37.4212 25.9787 38.13 25.732 38.7409C25.4187 39.5084 25.2072 40.1624 25.4814 41.0121C25.9552 42.4885 28.6141 42.7313 27.036 41.4429C26.3664 40.8947 27.7605 39.5711 27.3258 39.4418C26.5778 39.1286 27.4628 38.8466 27.5607 38.5216C27.7565 37.8754 30.7249 35.2008 30.9442 34.7583C31.1282 34.3863 31.0107 34.0025 31.3123 33.6814C31.6451 33.3251 32.1072 33.4504 32.4831 33.1998C33.2663 32.675 32.9844 31.7861 33.3055 31.0616C33.9477 29.6245 34.2179 30.1923 33.3407 29.0723C33.0196 28.6768 30.8893 28.8256 30.8306 27.6665Z" fill="#FFBC1F"/>
<path d="M14.9708 5.921C15.5112 6.48491 16.0438 5.62339 16.1338 5.921C16.2239 6.21862 16.2357 6.7786 16.8818 6.82168C17.5279 6.86867 16.2827 7.27985 16.6977 7.45999C17.1128 7.63621 18.0018 8.20011 18.3268 7.96515C18.6518 7.72627 19.0395 7.55005 19.1844 7.72627C19.3332 7.90641 20.2221 7.69886 19.9676 7.40125C19.717 7.10363 19.0356 6.40267 19.063 5.99932C19.0943 5.59598 19.8658 4.55824 19.0043 4.64831C18.4443 4.70705 18.3229 5.21221 18.3229 5.50983C18.3229 5.80744 17.524 5.06732 17.3752 5.07907C17.2264 5.09473 16.6625 4.17839 16.4589 4.17839C16.2513 4.17839 14.8572 3.73197 14.9786 4.17839C15.1 4.6209 14.4304 5.36102 14.9708 5.921Z" fill="#FFBC1F"/>
<path d="M27.3922 10.158C26.9732 9.91914 26.1783 8.82658 25.8219 9.17902C25.4656 9.53537 25.912 10.3342 26.2057 10.6906C26.5033 11.0469 27.7486 11.8184 27.5684 11.462C27.3922 11.1096 28.2224 10.6318 27.3922 10.158Z" fill="#FFBC1F"/>
<path d="M15.7894 2.62371C16.0087 2.60413 16.3416 3.35208 16.6588 3.43432C16.976 3.51264 17.1326 3.88857 17.2501 3.97864C17.3715 4.06871 18.6912 3.55572 19.0084 3.43432C19.3765 3.29726 18.6128 2.58455 18.3583 2.07156C18.0999 1.55856 18.2996 2.92133 17.9236 2.69811C17.5477 2.4749 17.6064 2.16946 17.1522 2.16946C16.6979 2.16946 17.0151 1.24137 16.4395 1.43717C15.8638 1.63688 15.574 2.64329 15.7894 2.62371Z" fill="#FFBC1F"/>
<path d="M20.5472 4.40156C20.1595 4.47988 20.23 4.73834 20.0146 4.95371C19.7993 5.17301 19.8188 5.46671 20.0146 5.72516C20.2143 5.98362 20.5276 6.43396 20.7665 5.99928C21.0054 5.56461 20.7665 5.21217 20.7665 4.93413C20.7665 4.66002 20.7391 4.3624 20.5472 4.40156Z" fill="#FFBC1F"/>
<path d="M21.3381 5.78399C21.436 6.02286 21.6162 5.36889 21.9999 5.03212C22.3837 4.69534 21.812 3.84949 21.4556 4.28025C21.2167 4.57786 21.2402 5.54511 21.3381 5.78399Z" fill="#FFBC1F"/>
<path d="M21.2675 6.08154C21.06 6.37132 20.8994 7.14669 21.2675 7.20543C21.6356 7.26808 21.8588 6.84907 21.6983 6.55146C21.5338 6.25776 21.3537 5.96015 21.2675 6.08154Z" fill="#FFBC1F"/>
<path d="M22.7597 1.08467C22.4033 1.24522 23.2727 1.53892 22.6813 1.69948C22.0861 1.85612 22.0665 2.35345 21.5535 1.93444C21.0405 1.51934 20.4806 2.0715 20.8682 2.32995C21.2559 2.58841 21.9099 3.1993 21.8903 3.53608C21.8707 3.87285 22.5012 4.02949 23.0964 3.99033C23.6877 3.95117 24.4005 4.12739 24.42 3.87285C24.4396 3.6144 24.5101 3.50866 24.4396 3.3207C24.3378 3.04266 24.0833 2.76854 23.4724 3.0035C22.8576 3.24238 22.462 3.12098 22.3759 2.82728C22.2858 2.52575 23.5742 1.9501 24.142 2.34953C24.7137 2.74505 25.2502 2.13024 24.8351 1.85612C24.42 1.57808 24.6981 1.28438 24.9839 1.24522C25.1915 1.21781 25.3795 0.693071 25.5322 0.285808C24.6707 0.148749 23.7935 0.0586814 22.9006 0.0234375C22.9046 0.575591 23.1121 0.92803 22.7597 1.08467Z" fill="#FFBC1F"/>
<path d="M17.5084 0.591326C17.9039 0.759713 18.5501 0.58741 18.4287 0.289795C18.0723 0.348535 17.716 0.415106 17.3635 0.48951C17.3949 0.52867 17.4418 0.563914 17.5084 0.591326Z" fill="#FFBC1F"/>
<path d="M17.7513 0.904642C17.1952 0.618775 17.2265 1.31974 17.481 1.59777C17.7395 1.87189 18.4718 1.27666 17.7513 0.904642Z" fill="#FFBC1F"/>
<path d="M21.1345 0.0156639C21.5496 0.0939836 21.8237 0.415094 21.8903 0.653969C21.9647 0.904592 22.5639 0.360271 22.5717 0.00391598C22.3837 0.00391598 22.1918 0 22 0C21.7102 0 21.4243 0.00391598 21.1345 0.0156639Z" fill="#FFBC1F"/>
<path d="M19.9716 0.838065C19.721 1.18267 19.9363 1.60168 20.234 1.25316C20.5316 0.904637 20.2927 0.0352881 20.5316 0.411222C20.7665 0.787157 21.2051 1.38239 21.4988 1.4098C21.7925 1.43721 21.538 1.06128 21.4988 0.747997C21.4675 0.485626 20.7587 0.137104 20.8214 0.0313721C20.3828 0.054868 19.9481 0.0901118 19.5173 0.137104C19.8267 0.340735 20.1517 0.591358 19.9716 0.838065Z" fill="#FFBC1F"/>
<path d="M21.2678 3.80633C21.6163 3.94339 21.2678 3.09753 21.2678 3.09753C20.9036 3.31683 20.9232 3.66927 21.2678 3.80633Z" fill="#FFBC1F"/>
<path d="M20.0145 3.25418C20.0733 3.49306 20.4492 3.57138 20.6489 3.25418C20.8447 2.93699 20.6372 1.78569 20.367 2.14596C20.085 2.52189 19.76 2.34567 19.1883 2.14596C18.6126 1.95016 19.9558 3.01922 20.0145 3.25418Z" fill="#FFBC1F"/>
<path d="M23.8836 23.445C24.3731 23.3862 24.655 23.9776 25.215 23.9501C25.7789 23.9227 26.5934 24.7529 27.0673 24.2634C27.451 23.864 25.3795 23.539 24.6981 23.1826C24.0167 22.8263 23.3941 23.5037 23.8836 23.445Z" fill="#FFBC1F"/>
<path d="M26.2958 1.18269C26.9772 1.50772 26.8597 1.49988 26.4446 1.81316C26.0295 2.13036 26.1783 2.82349 27.0986 2.77258C28.0149 2.72559 28.5788 1.81316 28.9939 3.0976C29.409 4.38205 29.1114 5.78789 29.6479 6.17948C30.1804 6.575 29.7379 6.84129 29.6479 7.2133C29.5578 7.58141 29.7967 7.84769 30.2118 7.73021C30.6269 7.61273 30.5094 8.38418 30.2118 8.70921C29.9142 9.03424 29.5617 9.65688 30.4781 10.7808C31.3944 11.9047 31.5119 11.7598 31.8095 12.1435C32.1071 12.5273 32.3421 12.0026 32.4321 11.5522C32.5222 11.1058 32.2246 9.5394 33.2623 9.5394C34.3001 9.53548 34.5938 8.70529 34.7152 8.43901C34.8326 8.17272 35.6628 8.20405 36.1053 7.81637C36.5008 7.47567 36.9394 7.18589 36.9512 5.85837C33.9633 3.08977 30.2039 1.13961 26.0373 0.368164C25.9551 0.677527 25.959 1.02213 26.2958 1.18269Z" fill="#FFBC1F"/>
</svg>
