<svg width="43" height="49" viewBox="0 0 43 49" fill="none" xmlns="http://www.w3.org/2000/svg">
<path d="M30.7986 25.4885L33.291 23.4327L38.3376 23.1814L42.0041 26.8356C42.0041 22.4893 39.0915 19.7992 33.291 21.48C32.9243 21.5871 31.7667 21.6489 31.7667 21.6489L30.7986 25.4885Z" fill="#FFBC1F"/>
<path d="M39.9195 26.6296C39.9195 30.6916 30.3578 31.7586 27.4452 33.8019C26.2258 34.6588 24.1536 38.486 24.1536 38.486L41.139 28.6524C41.1431 28.6524 39.9195 23.4698 39.9195 26.6296Z" fill="#FFBC1F"/>
<path d="M30.7986 26.9591L32.2199 26.6295C32.2199 26.6295 32.4588 25.2824 33.5917 24.269C35.0418 22.9754 39.9401 23.2597 39.9401 26.4153C39.9401 31.6185 30.1106 33.2169 27.198 35.2602C25.9786 36.1171 24.5779 38.7702 24.5779 38.7702C24.5779 38.7702 25.6366 38.9679 25.8756 38.7702C30.3331 35.0872 42.0082 33.5547 42.0082 26.6749C42.0082 24.2072 38.42 21.1133 33.2951 22.9507C32.9408 23.0784 31.7708 23.1196 31.7708 23.1196L30.7986 26.9591Z" fill="#CC8F00"/>
<path d="M31.9109 18.3943H0V40.591C0 41.8187 0.358411 42.9557 0.972241 43.9197C2.24522 46.7953 8.46591 48.9746 15.9555 48.9746C23.4533 48.9746 29.6781 46.787 30.9428 43.9115C31.5525 42.9516 31.9109 41.8105 31.9109 40.591V18.3943Z" fill="#FFBC1F"/>
<path d="M15.9555 11.704C24.7674 11.704 31.9109 14.6784 31.9109 18.349C31.9109 22.0196 24.7674 24.994 15.9555 24.994C7.1435 24.994 0 22.0196 0 18.349C0 14.6784 7.1435 11.704 15.9555 11.704Z" fill="#FFBC1F"/>
<path d="M15.9555 14.9255C23.3009 14.9255 29.4268 16.8041 30.8605 19.3088C31.0706 18.9463 31.1818 18.5714 31.1818 18.1841C31.1818 15.1438 24.3638 12.6761 15.9555 12.6761C7.54318 12.6761 0.729248 15.1438 0.729248 18.1841C0.729248 18.5714 0.840479 18.9463 1.04646 19.3088C2.48835 16.8041 8.61429 14.9255 15.9555 14.9255Z" fill="#CC8F00"/>
<path d="M15.9555 24.1948C23.3008 24.1948 29.4268 22.0979 30.8604 19.3047C29.4268 16.5157 23.3008 14.4188 15.9555 14.4188C8.61421 14.4188 2.48415 16.5157 1.04639 19.3047C2.48827 22.0979 8.61421 24.1948 15.9555 24.1948Z" fill="#724E41"/>
<path d="M26.1764 17.6569C23.9271 15.0574 16.6312 16.2233 15.9556 17.521C15.0286 16.1368 7.90985 15.1068 5.73466 17.6569C4.37105 19.2595 7.5226 20.7673 10.6824 21.8549C12.6722 22.6129 10.6824 23.4698 10.6824 23.4698C18.5963 23.4698 24.1537 20.6766 24.1537 20.6766C25.9622 19.7662 27.0951 18.7198 26.1764 17.6569Z" fill="#8D6A54"/>
<path d="M22.4563 18.5715C21.1339 16.4869 16.2562 17.3397 15.733 18.3655C15.2057 17.2573 10.5793 16.3716 8.99327 18.3779C8.00043 19.6344 9.98199 20.862 11.9965 21.756C13.2612 22.3781 11.8976 23.0372 11.8976 23.0372C17.109 23.1155 20.9444 20.9485 20.9444 20.9485C22.1844 20.2441 23.0001 19.4243 22.4563 18.5715Z" fill="#B49166"/>
<path d="M20.2152 19.3253C19.3295 17.9288 16.0667 18.5014 15.7165 19.1894C15.3664 18.4479 12.2684 17.8546 11.2055 19.1935C10.5381 20.0339 11.8646 20.8579 13.2159 21.4552C14.0645 21.8713 13.15 22.3121 13.15 22.3121C16.6393 22.3615 19.2018 20.9155 19.2018 20.9155C20.0339 20.4459 20.5777 19.898 20.2152 19.3253Z" fill="#FAF3D9"/>
<g opacity="0.6">
<path opacity="0.6" d="M16.8288 6.1177C14.427 3.62531 16.0254 0 16.0254 0C16.0254 0 10.9829 4.79529 14.1675 8.09926C17.8504 11.9223 16.0254 14.3035 16.0254 14.3035C16.0254 14.3035 20.59 10.0231 16.8288 6.1177Z" fill="#A6ADAF"/>
<path opacity="0.6" d="M9.63998 8.35061C7.83969 6.53795 9.03851 3.90137 9.03851 3.90137C9.03851 3.90137 5.25666 7.38661 7.64606 9.79249C10.4104 12.5733 9.03851 14.3035 9.03851 14.3035C9.03851 14.3035 12.462 11.1932 9.63998 8.35061Z" fill="#A6ADAF"/>
<path opacity="0.6" d="M23.9434 8.35061C22.1432 6.53795 23.342 3.90137 23.342 3.90137C23.342 3.90137 19.5601 7.38661 21.9495 9.79249C24.7138 12.5733 23.342 14.3035 23.342 14.3035C23.342 14.3035 26.7654 11.1891 23.9434 8.35061Z" fill="#A6ADAF"/>
</g>
</svg>
