<svg width="24" height="24" viewBox="0 0 24 24" fill="none" xmlns="http://www.w3.org/2000/svg">
<g clip-path="url(#clip0_1638_4482)">
<path d="M12.001 0C18.6286 0 24.002 5.37343 24.002 12.001C24.002 15.227 22.7299 18.152 20.6503 20.3134C18.9177 17.6077 15.4763 16.8919 12.0369 16.8919C8.59749 16.8919 5.11622 17.6157 3.39752 20.3592C1.29002 18.1959 0 15.249 0 12.001C0 5.37343 5.37343 0 12.001 0Z" fill="#C5D2EC"/>
<path d="M20.6503 20.3114C18.473 22.5864 15.4025 24 12.001 24C8.59946 24 5.56881 22.6043 3.39551 20.3552C5.1162 17.6137 8.57753 16.8879 12.0349 16.8879C15.4922 16.8879 18.9157 17.6037 20.6483 20.3094L20.6503 20.3114Z" fill="#1E325C"/>
<path d="M12.0368 4.44427C15.7354 4.44427 16.0364 6.70131 16.0364 9.34716C16.0364 13.2192 13.925 15.1114 12.0368 15.1114C10.1486 15.1114 8.03711 13.2172 8.03711 9.34716C8.03711 6.70331 8.34416 4.44427 12.0368 4.44427Z" fill="#1E325C"/>
</g>
<defs>
<clipPath id="clip0_1638_4482">
<rect width="24" height="24" fill="white"/>
</clipPath>
</defs>
</svg>
