<svg width="18" height="27" viewBox="0 0 18 27" fill="none" xmlns="http://www.w3.org/2000/svg">
<path d="M7.20068 25.1979C7.20068 26.1914 8.00794 26.9987 9.00149 26.9987C9.99504 26.9987 10.8023 26.1914 10.8023 25.1979H7.20068Z" fill="#616466"/>
<path d="M5.82091 20.6999H12.1764C12.5544 18.7587 13.7558 16.8742 15.0194 14.8952C16.4827 12.6003 18 10.2217 18 7.9133C18 3.55032 13.961 0 8.99865 0C4.039 0 0 3.55032 0 7.9133C0 10.2217 1.51462 12.6003 2.98065 14.8952C4.24149 16.8715 5.44563 18.7587 5.82091 20.6999Z" fill="#FFBC1F"/>
<path d="M5.6858 12.9783C5.7047 12.8784 5.7506 12.8271 5.8019 12.8163C5.8289 12.8028 5.87479 12.8082 5.87479 12.8082C5.89099 12.819 5.92879 12.8352 5.96389 12.873C6.11238 13.0296 6.22038 13.2861 6.30677 13.521C6.33917 13.6101 6.36617 13.7046 6.39047 13.7964C6.20148 13.7613 6.02329 13.6857 5.90719 13.5723C5.7398 13.4211 5.65071 13.17 5.6858 12.9783ZM8.72855 11.407C8.80145 11.2963 8.89864 11.2315 8.99854 11.2315C9.09843 11.2315 9.19563 11.2936 9.27123 11.407C9.35762 11.5474 9.32792 11.7364 9.24153 11.9226C9.17943 12.0549 9.09034 12.1791 8.99854 12.2979C8.90404 12.1764 8.81765 12.0522 8.75555 11.9199C8.67186 11.7337 8.63946 11.5447 8.72855 11.407ZM11.6957 13.5237C11.7821 13.2861 11.8901 13.0296 12.0359 12.8757C12.071 12.8379 12.1061 12.8217 12.125 12.8109C12.125 12.8109 12.1682 12.8055 12.1979 12.819C12.2492 12.8298 12.2951 12.8838 12.314 12.981C12.3491 13.1727 12.26 13.4211 12.0926 13.5777C11.9765 13.6884 11.7983 13.7667 11.6093 13.8018C11.6363 13.7046 11.6633 13.6128 11.6957 13.5237ZM6.50116 14.2175C6.56596 14.4848 6.62266 14.7548 6.69285 15.014C6.81165 15.5054 6.92774 15.9805 7.04114 16.4395C7.45422 18.1296 7.8187 19.5822 8.10758 20.6972H8.37487C8.13728 19.566 7.816 18.0864 7.42722 16.3639C7.32192 15.9049 7.21393 15.4244 7.10323 14.933C7.04384 14.6927 6.99254 14.4497 6.93854 14.1986C7.31382 14.1149 8.13188 13.8369 9.00124 12.8973C9.8706 13.8369 10.6887 14.1149 11.0639 14.1986C11.0072 14.4497 10.9586 14.6927 10.8992 14.933C10.7885 15.4244 10.6806 15.9049 10.5753 16.3639C10.1865 18.0864 9.8652 19.566 9.62761 20.6972H9.8949C10.1838 19.5822 10.5483 18.1296 10.9613 16.4395C11.072 15.9805 11.1881 15.5054 11.3069 15.014C11.3744 14.7548 11.4338 14.4848 11.4986 14.2175C11.8388 14.1932 12.1628 14.0879 12.4193 13.8558C12.6785 13.5993 12.8161 13.2645 12.7541 12.9081C12.7271 12.738 12.5975 12.5166 12.3518 12.441C12.2384 12.4032 12.1223 12.3951 11.9765 12.4329C11.855 12.4788 11.7686 12.5463 11.7065 12.6111C11.4662 12.8784 11.3798 13.143 11.2826 13.4076C11.2367 13.5399 11.1989 13.6722 11.1638 13.8045C11.1638 13.8045 10.7805 13.8342 9.96239 13.2834C9.50881 12.9783 9.37652 12.7569 9.24423 12.6111C9.38732 12.4518 9.52231 12.279 9.62761 12.0711C9.68431 11.955 9.7302 11.8282 9.7464 11.6851C9.7626 11.542 9.7356 11.38 9.65461 11.2396C9.57361 11.1019 9.45482 10.975 9.26583 10.8994C9.18483 10.8697 9.09303 10.8562 9.00124 10.8562C8.90944 10.8562 8.81765 10.8697 8.73665 10.8994C8.54766 10.9777 8.42887 11.1046 8.34787 11.2396C8.26688 11.38 8.23988 11.542 8.25608 11.6851C8.27228 11.8282 8.32087 11.955 8.37757 12.0711C8.48287 12.2817 8.62056 12.4545 8.76095 12.6111C8.62866 12.7569 8.49636 12.9783 8.04279 13.2834C7.22473 13.8342 6.84135 13.8045 6.84135 13.8045C6.80625 13.6722 6.76845 13.5426 6.72255 13.4076C6.62266 13.143 6.53896 12.8784 6.29597 12.6111C6.23658 12.5463 6.14748 12.4788 6.02599 12.4329C5.88019 12.3951 5.7668 12.4032 5.65071 12.441C5.40232 12.5166 5.27542 12.738 5.24843 12.9081C5.18633 13.2645 5.32402 13.5993 5.58321 13.8558C5.837 14.0879 6.16098 14.1932 6.50116 14.2175Z" fill="#A37200"/>
<path d="M12.2359 21.58H5.7832V22.4088H12.2359V21.58Z" fill="#93979A"/>
<path d="M11.7848 23.235H6.23389V24.0638H11.7848V23.235Z" fill="#93979A"/>
<path d="M11.7848 22.4089H6.23389V23.2378H11.7848V22.4089Z" fill="#616466"/>
<path d="M12.2357 21.58L6.23389 23.235V24.0638L12.2357 22.4088V21.58Z" fill="#93979A"/>
<path d="M11.334 24.8928H6.68213V25.7217H11.334V24.8928Z" fill="#93979A"/>
<path d="M11.334 24.0638H6.68213V24.8927H11.334V24.0638Z" fill="#616466"/>
<path d="M11.7849 23.235L6.68213 24.8927V25.7189L11.7849 24.0638V23.235Z" fill="#93979A"/>
<path d="M2.72143 7.72166C3.09401 6.73621 3.93097 5.08119 5.66158 3.84195C5.83168 3.72046 5.81818 3.45587 5.63999 3.46937C4.50874 3.55037 2.16526 4.14974 2.37585 7.74866C2.38935 7.95385 2.64044 7.93495 2.72143 7.72166Z" fill="#FFD791"/>
</svg>
