<svg width="28" height="21" viewBox="0 0 28 21" fill="none" xmlns="http://www.w3.org/2000/svg">
<path d="M28 16.626H0V20.5628H28V16.626Z" fill="#227551"/>
<path d="M28 0H0V16.626H28V0Z" fill="#339970"/>
<path d="M17.5017 16.626H10.501V20.5628H17.5017V16.626Z" fill="#93979A"/>
<path d="M26.2484 1.75159H1.74878V14.8772H26.2484V1.75159Z" fill="#227551"/>
<path d="M24.9388 3.06384H3.06372V13.5649H24.9388V3.06384Z" fill="#339970"/>
<path d="M19.6871 4.81262C21.6206 4.81262 23.1875 6.37952 23.1875 8.31297C23.1875 10.2464 21.6206 11.8133 19.6871 11.8133C17.7537 11.8133 16.1868 10.2464 16.1868 8.31297C16.1868 6.37952 17.7537 4.81262 19.6871 4.81262Z" fill="#227551"/>
<path d="M17.5017 0H10.501V16.626H17.5017V0Z" fill="#CFCFCF"/>
<path d="M7.00073 7.87648C6.51947 7.87648 6.12494 7.48475 6.12494 7.00069C6.12494 6.51663 6.51667 6.1249 7.00073 6.1249C7.48199 6.1249 7.87652 6.51663 7.87652 7.00069H8.7523C8.7523 6.18646 8.19269 5.50933 7.44002 5.31347V4.81262H6.56423V5.31347C5.81156 5.50933 5.25195 6.18926 5.25195 7.00069C5.25195 7.96601 6.0382 8.75226 7.00353 8.75226C7.48479 8.75226 7.87931 9.14399 7.87931 9.62805C7.87931 10.1121 7.48759 10.5038 7.00353 10.5038C6.52226 10.5038 6.12774 10.1121 6.12774 9.62805H5.25195C5.25195 10.4423 5.81156 11.1194 6.56423 11.3153V11.8161H7.44002V11.3153C8.19269 11.1194 8.7523 10.4395 8.7523 9.62805C8.74951 8.65993 7.96605 7.87648 7.00073 7.87648Z" fill="white"/>
</svg>
