<?xml version="1.0" encoding="UTF-8"?><svg id="Layer_2" xmlns="http://www.w3.org/2000/svg" viewBox="0 0 94.81 124.78"><defs><style>.cls-1{fill:#f2821f;}.cls-2{fill:#ec1c24;}.cls-3{fill:#ffbc1f;}</style></defs><g id="Layer_1-2"><g><path class="cls-2" d="M89.88,40.1s-5.01,6.03-13.72,13.61c-4.76-14.89-14.64-32.72-32.24-53.71,0,0-1.24,25.33-13.63,50.88-8.31-9.62-12.4-17.5-12.4-17.5-42.35,56.13,.42,91.18,26.3,91.41,34.27,.3,62.33-34.12,45.68-84.68Z"/><path class="cls-1" d="M76.69,95c1.97-6.67,2.82-14.97,1.85-25.28,0,0-3.53,4.05-9.66,9.15-3.26-9.92-10.09-21.77-22.3-35.71,0,0-.99,16.92-9.76,34.02-5.77-6.38-8.59-11.62-8.59-11.62-6.38,14.03-8.15,24.69-7.21,32.7-4.76-1.02-7.73-2.06-7.73-2.06,10.96,22.01,23.56,24.63,34.84,23.78,12.9-.97,25.32-7.41,35.68-27.53,0,0-2.73,1.18-7.12,2.55Z"/><path class="cls-3" d="M28.4,91.02s6.29,6.49,10.06,4.18c0,0,5.96-12.97,15.99-21.11,0,0,.29,18.45,3.32,21.3,4.03,3.78,12.06-6.51,12.06-6.51,1.5,10.72-8.34,25.86-18.83,27.33-10.41,1.46-26.81-8.1-22.6-25.19Z"/></g></g></svg>