<svg width="28" height="28" viewBox="0 0 28 28" fill="none" xmlns="http://www.w3.org/2000/svg">
<path d="M28 27.1226H0V27.997H28V27.1226Z" fill="#ABB8BF"/>
<path d="M26.3646 25.3737H1.63257V26.2481H26.3646V25.3737Z" fill="#ABB8BF"/>
<path d="M27.1851 26.2481H0.817627V27.1225H27.1851V26.2481Z" fill="#DAE3EA"/>
<path d="M25.5497 24.4993H2.4502V25.3737H25.5497V24.4993Z" fill="#DAE3EA"/>
<path d="M26.6869 12.0243H1.31323V12.8987H26.6869V12.0243Z" fill="#93979A"/>
<path d="M28 12.9017H0V13.7762H28V12.9017Z" fill="#DAE3EA"/>
<path d="M13.994 1.32507L0 8.97717L1.17288 10.729L13.994 2.18758L26.8271 10.729L28 8.97717L13.994 1.32507Z" fill="#93979A"/>
<path d="M13.994 0L0 8.97719V10.2903L13.994 1.31315L28 10.2903V8.97719L13.994 0Z" fill="#DAE3EA"/>
<path d="M13.994 2.18756L0 11.1648V12.0422H28V11.1648L13.994 2.18756Z" fill="#DAE3EA"/>
<path d="M13.994 3.49176L2.37256 11.1648H25.6273L13.994 3.49176Z" fill="#ABB8BF"/>
<path d="M5.83163 14.558H3.03223V23.6845H5.83163V14.558Z" fill="#DAE3EA"/>
<path d="M6.18385 23.6815H2.68311V24.4993H6.18385V23.6815Z" fill="#93979A"/>
<path d="M6.18385 13.7642H2.68311V14.5551H6.18385V13.7642Z" fill="#93979A"/>
<path d="M3.64402 14.9222H3.31274V23.3413H3.64402V14.9222Z" fill="#C8CFD6"/>
<path d="M5.55393 14.9222H5.22266V23.3413H5.55393V14.9222Z" fill="#C8CFD6"/>
<path d="M4.91819 14.9222H4.58691V23.3413H4.91819V14.9222Z" fill="#C8CFD6"/>
<path d="M4.27976 14.9222H3.94849V23.3413H4.27976V14.9222Z" fill="#C8CFD6"/>
<path d="M12.2093 14.558H9.40991V23.7113H12.2093V14.558Z" fill="#DAE3EA"/>
<path d="M12.5615 23.7114H9.06079V24.4993H12.5615V23.7114Z" fill="#93979A"/>
<path d="M12.5615 13.7642H9.06079V14.5551H12.5615V13.7642Z" fill="#93979A"/>
<path d="M10.0217 14.9222H9.69043V23.3413H10.0217V14.9222Z" fill="#C8CFD6"/>
<path d="M11.9316 14.9222H11.6003V23.3413H11.9316V14.9222Z" fill="#C8CFD6"/>
<path d="M11.2961 14.9222H10.9648V23.3413H11.2961V14.9222Z" fill="#C8CFD6"/>
<path d="M10.6574 14.9222H10.3262V23.3413H10.6574V14.9222Z" fill="#C8CFD6"/>
<path d="M18.5872 14.558H15.7878V23.7113H18.5872V14.558Z" fill="#DAE3EA"/>
<path d="M18.9392 23.7114H15.4385V24.4993H18.9392V23.7114Z" fill="#93979A"/>
<path d="M18.9392 13.7642H15.4385V14.5551H18.9392V13.7642Z" fill="#93979A"/>
<path d="M16.3994 14.9222H16.0681V23.3413H16.3994V14.9222Z" fill="#C8CFD6"/>
<path d="M18.3095 14.9222H17.9783V23.3413H18.3095V14.9222Z" fill="#C8CFD6"/>
<path d="M17.6738 14.9222H17.3425V23.3413H17.6738V14.9222Z" fill="#C8CFD6"/>
<path d="M17.0351 14.9222H16.7039V23.3413H17.0351V14.9222Z" fill="#C8CFD6"/>
<path d="M24.9649 14.558H22.1655V23.6845H24.9649V14.558Z" fill="#DAE3EA"/>
<path d="M25.3169 23.6815H21.8162V24.4993H25.3169V23.6815Z" fill="#93979A"/>
<path d="M25.3169 13.7642H21.8162V14.5551H25.3169V13.7642Z" fill="#93979A"/>
<path d="M22.7773 14.9222H22.446V23.3413H22.7773V14.9222Z" fill="#C8CFD6"/>
<path d="M24.6872 14.9222H24.356V23.3413H24.6872V14.9222Z" fill="#C8CFD6"/>
<path d="M24.0515 14.9222H23.7202V23.3413H24.0515V14.9222Z" fill="#C8CFD6"/>
<path d="M23.4128 14.9222H23.0815V23.3413H23.4128V14.9222Z" fill="#C8CFD6"/>
</svg>
