<svg width="26" height="25" viewBox="0 0 26 25" fill="none" xmlns="http://www.w3.org/2000/svg">
<path d="M1.72968 23.2721C-0.430497 21.1119 -0.58848 17.7685 1.37502 15.805L8.48426 8.69574L16.306 16.5175L9.19679 23.6267C7.23329 25.5902 3.88985 25.429 1.72968 23.2721Z" fill="#FFBC1F"/>
<path d="M23.4605 10.3207C25.6626 8.11538 25.4853 4.36571 23.0607 1.94115C20.6362 -0.483404 16.8865 -0.660732 14.6812 1.54458L9.34845 6.87409L7.82021 8.40233L7.79764 8.4249L7.80086 8.42812C7.52036 8.73119 7.52681 9.20514 7.82021 9.49854L15.5033 17.1817C15.7967 17.4751 16.2707 17.4815 16.5738 17.201L16.577 17.2042L16.5995 17.1817L18.1278 15.6534L23.4605 10.3207Z" fill="#C43133"/>
</svg>
