<svg width="28" height="26" viewBox="0 0 28 26" fill="none" xmlns="http://www.w3.org/2000/svg">
<path d="M24.9282 6.54378C24.6203 6.5277 24.3997 6.78044 24.4411 7.10212L24.7352 9.44115C24.7766 9.76283 25.05 9.95353 25.3441 9.86163L27.5315 9.18841C27.8256 9.0988 28.0347 8.76104 27.9933 8.43937L27.8463 7.26985C27.8049 6.94817 27.52 6.67245 27.2121 6.65867L24.9282 6.54378Z" fill="#546266"/>
<path d="M24.9166 11.4218C24.7098 11.192 24.3767 11.215 24.1768 11.4723L22.7292 13.3334C22.5293 13.5885 22.5914 13.917 22.8625 14.0618L24.8868 15.1325C25.1602 15.2773 25.5439 15.1854 25.7438 14.9303L26.4676 13.9997C26.6675 13.7447 26.6606 13.3472 26.4538 13.1197L24.9166 11.4218Z" fill="#546266"/>
<path d="M21.4563 14.8614C21.4724 14.5535 21.2196 14.3352 20.898 14.3743L18.5589 14.6661C18.2373 14.7074 18.0489 14.9809 18.1385 15.275L18.8117 17.4623C18.9036 17.7565 19.239 17.9655 19.5607 17.9242L20.7302 17.7771C21.0519 17.7381 21.3276 17.4532 21.3414 17.1453L21.4563 14.8614Z" fill="#546266"/>
<path d="M16.5783 14.8476C16.8058 14.6408 16.7851 14.3076 16.5278 14.11L14.6667 12.6625C14.4093 12.4626 14.0831 12.5246 13.9383 12.7958L12.8676 14.8177C12.7228 15.0912 12.8147 15.4772 13.0698 15.6748L14.0003 16.3985C14.2554 16.5984 14.6529 16.5915 14.8803 16.3847L16.5783 14.8476Z" fill="#546266"/>
<path d="M13.1387 11.3896C13.4466 11.4057 13.6649 11.1529 13.6258 10.8313L13.3317 8.49222C13.2904 8.17055 13.017 7.98214 12.7229 8.07175L10.5355 8.74497C10.2414 8.83458 10.0323 9.17233 10.0736 9.49401L10.2207 10.6635C10.2621 10.9852 10.547 11.2609 10.8548 11.2747L13.1387 11.3896Z" fill="#546266"/>
<path d="M13.15 6.51162C13.3568 6.73909 13.69 6.71842 13.8876 6.46108L15.3351 4.59996C15.535 4.34491 15.473 4.01635 15.2018 3.87159L13.1776 2.80087C12.9042 2.65612 12.5181 2.74803 12.3205 3.00307L11.5968 3.93363C11.3969 4.18867 11.4038 4.58617 11.6106 4.81364L13.15 6.51162Z" fill="#546266"/>
<path d="M16.6105 3.072C16.5944 3.37989 16.8472 3.59817 17.1689 3.55911L19.5079 3.265C19.8296 3.22364 20.018 2.95022 19.9284 2.65612L19.2552 0.468731C19.1655 0.174628 18.8278 -0.0344602 18.5061 0.00689797L17.3366 0.153949C17.0149 0.19301 16.7392 0.480219 16.7254 0.788108L16.6105 3.072Z" fill="#546266"/>
<path d="M21.4886 3.08348C21.2612 3.29027 21.2819 3.62344 21.5392 3.82104L23.4003 5.26857C23.6554 5.46617 23.9839 5.40644 24.1287 5.13531L25.1994 3.11335C25.3441 2.83993 25.2522 2.45392 24.9972 2.25632L24.0666 1.53255C23.8116 1.33265 23.4141 1.33955 23.1866 1.54864L21.4886 3.08348Z" fill="#546266"/>
<path d="M17.8304 13.3472C20.2499 14.0112 22.7497 12.589 23.4161 10.1695C24.0801 7.75006 22.6578 5.25019 20.2384 4.58387C17.8189 3.91984 15.3191 5.3421 14.6527 7.76155C13.9864 10.1833 15.411 12.6832 17.8304 13.3472ZM20.9438 2.00817C24.7878 3.0628 27.0464 7.03549 25.9918 10.8772C24.9371 14.7189 20.9644 16.9798 17.1227 15.9229C13.281 14.8683 11.0201 10.8956 12.0747 7.05387C13.1294 3.21215 17.1021 0.953537 20.9438 2.00817Z" fill="#546266"/>
<path d="M18.4674 11.0289C19.607 11.3413 20.7834 10.6727 21.0959 9.53307C21.4084 8.39342 20.7398 7.21701 19.6001 6.90453C18.4605 6.59204 17.2841 7.26067 16.9716 8.40031C16.6591 9.53766 17.3277 10.7164 18.4674 11.0289ZM20.5192 3.55451C23.5085 4.37478 25.2662 7.46516 24.4459 10.4521C23.6257 13.4414 20.5353 15.1991 17.546 14.3789C14.5567 13.5586 12.799 10.4682 13.6216 7.48124C14.4441 4.49426 17.5299 2.73424 20.5192 3.55451Z" fill="#AABBC1"/>
<path d="M18.467 11.0289C19.6066 11.3413 20.783 10.6727 21.0955 9.53307C21.408 8.39342 20.7394 7.21701 19.5997 6.90453C18.4601 6.59204 17.2837 7.26067 16.9712 8.40031C16.6587 9.53766 17.3273 10.7164 18.467 11.0289ZM20.165 4.84351C22.442 5.46848 23.7815 7.8213 23.1565 10.1006C22.5316 12.3776 20.1787 13.7171 17.8994 13.0922C15.6224 12.4649 14.2852 10.1098 14.9102 7.83279C15.5351 5.55579 17.888 4.21854 20.165 4.84351Z" fill="#546266"/>
<path d="M12.1461 16.5915C11.914 16.5801 11.7509 16.7685 11.7807 17.0097L12.0013 18.7651C12.0312 19.0064 12.238 19.1488 12.4586 19.0799L14.0991 18.5744C14.3197 18.5055 14.4759 18.2528 14.446 18.0115L14.3358 17.1338C14.3059 16.8925 14.0922 16.6857 13.8601 16.6743L12.1461 16.5915Z" fill="#546266"/>
<path d="M12.1368 20.2494C11.9805 20.0771 11.7324 20.0955 11.583 20.2862L10.4985 21.6832C10.3492 21.8762 10.3951 22.122 10.5996 22.23L12.1161 23.0342C12.3206 23.1422 12.6101 23.0733 12.7595 22.8826L13.3017 22.1841C13.4511 21.9911 13.4465 21.6947 13.2902 21.5223L12.1368 20.2494Z" fill="#546266"/>
<path d="M9.54296 22.8297C9.55445 22.5977 9.36604 22.4345 9.12478 22.4644L7.36936 22.685C7.12811 22.7148 6.98565 22.9216 7.05458 23.1422L7.56007 24.7827C7.629 25.0033 7.88174 25.1596 8.123 25.1297L9.00071 25.0194C9.24196 24.9895 9.44875 24.7759 9.46024 24.5438L9.54296 22.8297Z" fill="#546266"/>
<path d="M5.88244 22.8205C6.05476 22.6643 6.03638 22.4162 5.84567 22.2668L4.44869 21.1823C4.25568 21.0329 4.00983 21.0789 3.90184 21.2834L3.09765 22.7999C2.98966 23.0044 3.05859 23.2939 3.2493 23.4432L3.94779 23.9855C4.1408 24.1348 4.4372 24.1302 4.60952 23.974L5.88244 22.8205Z" fill="#546266"/>
<path d="M3.30208 20.2265C3.53185 20.2379 3.69728 20.0495 3.66741 19.8083L3.44683 18.0529C3.41696 17.8116 3.21017 17.6691 2.9896 17.7381L1.34905 18.2436C1.12847 18.3102 0.972231 18.5652 1.0021 18.8065L1.11239 19.6842C1.14226 19.9255 1.35594 20.1323 1.58801 20.1437L3.30208 20.2265Z" fill="#546266"/>
<path d="M3.31396 16.5663C3.47021 16.7386 3.71836 16.7202 3.86771 16.5295L4.95221 15.1325C5.10156 14.9395 5.0556 14.696 4.85111 14.5857L3.33464 13.7815C3.13015 13.6735 2.84064 13.7424 2.69129 13.9331L2.14904 14.6316C1.99969 14.8223 2.00429 15.121 2.16053 15.2911L3.31396 16.5663Z" fill="#546266"/>
<path d="M5.90536 13.986C5.89388 14.218 6.08229 14.3812 6.32354 14.3513L8.07897 14.1307C8.32023 14.1009 8.46268 13.8941 8.39375 13.6735L7.88826 12.0329C7.81933 11.8124 7.56659 11.6561 7.32533 11.686L6.44762 11.7963C6.20636 11.8262 5.99957 12.0398 5.98808 12.2719L5.90536 13.986Z" fill="#546266"/>
<path d="M9.5658 13.9975C9.39347 14.1537 9.41185 14.4019 9.60256 14.5512L10.9995 15.6357C11.1926 15.7851 11.4361 15.7391 11.5464 15.5346L12.3483 14.0181C12.4563 13.8137 12.3873 13.5241 12.1966 13.3748L11.4981 12.8325C11.3051 12.6832 11.0087 12.6878 10.8387 12.844L9.5658 13.9975Z" fill="#546266"/>
<path d="M6.8225 21.6947C8.63767 22.1933 10.5126 21.1249 11.0112 19.312C11.5098 17.4968 10.4436 15.6219 8.62848 15.1233C6.81331 14.6247 4.93841 15.6931 4.43981 17.506C3.93892 19.3189 5.00734 21.1961 6.8225 21.6947ZM9.15694 13.1887C12.0382 13.9814 13.7339 16.9592 12.9412 19.8404C12.1485 22.7217 9.17073 24.4174 6.28944 23.6247C3.40815 22.832 1.71247 19.8542 2.50517 16.9729C3.29787 14.0917 6.27565 12.3983 9.15694 13.1887Z" fill="#546266"/>
<path d="M7.30029 19.953C8.15502 20.1874 9.03733 19.6865 9.27169 18.8318C9.50605 17.977 9.00516 17.0947 8.15043 16.8604C7.29569 16.626 6.41338 17.1269 6.17902 17.9816C5.94236 18.8364 6.44555 19.7187 7.30029 19.953ZM8.83973 14.349C11.0823 14.9648 12.3988 17.2808 11.7831 19.5234C11.1673 21.7659 8.85122 23.0825 6.60869 22.4667C4.36615 21.8509 3.04958 19.5349 3.66536 17.2923C4.28114 15.0521 6.5972 13.7332 8.83973 14.349Z" fill="#AABBC1"/>
<path d="M7.30052 19.953C8.15525 20.1874 9.03756 19.6865 9.27192 18.8318C9.50628 17.977 9.00539 17.0947 8.15066 16.8604C7.29592 16.626 6.41361 17.1269 6.17925 17.9816C5.94259 18.8364 6.44578 19.7187 7.30052 19.953ZM8.57343 15.3163C10.2806 15.7851 11.2847 17.5497 10.816 19.2591C10.3472 20.9663 8.58262 21.9704 6.87315 21.5017C5.16598 21.033 4.16189 19.2683 4.63062 17.5589C5.10164 15.8494 6.86626 14.8453 8.57343 15.3163Z" fill="#546266"/>
</svg>
