<svg width="51" height="47" viewBox="0 0 51 47" fill="none" xmlns="http://www.w3.org/2000/svg">
<g clip-path="url(#clip0_883:726)">
<path d="M5.74457 12.2377C6.32036 12.2076 6.73287 12.6803 6.65553 13.2818L6.10552 17.6561C6.02817 18.2577 5.51683 18.6144 4.96683 18.4425L0.876133 17.1835C0.326124 17.0159 -0.0648984 16.3842 0.0124467 15.7827L0.287451 13.5955C0.364796 12.994 0.897618 12.4783 1.47341 12.4525L5.74457 12.2377Z" fill="#546266"/>
<path d="M5.76547 21.3601C6.1522 20.9304 6.77525 20.9734 7.14909 21.4547L9.85616 24.9352C10.23 25.4121 10.114 26.0266 9.60694 26.2973L5.82133 28.2997C5.30999 28.5704 4.5924 28.3985 4.21857 27.9216L2.86503 26.1813C2.4912 25.7043 2.50409 24.961 2.89081 24.5356L5.76547 21.3601Z" fill="#546266"/>
<path d="M12.2374 27.7926C12.2074 27.2168 12.68 26.8086 13.2816 26.8816L17.6559 27.4273C18.2575 27.5047 18.6098 28.016 18.4422 28.566L17.1832 32.6567C17.0114 33.2067 16.384 33.5978 15.7824 33.5204L13.5953 33.2454C12.9937 33.1724 12.4781 32.6395 12.4523 32.0637L12.2374 27.7926Z" fill="#546266"/>
<path d="M21.3593 27.7668C20.9339 27.38 20.9725 26.757 21.4538 26.3875L24.9343 23.6804C25.4156 23.3065 26.0257 23.4226 26.2964 23.9296L28.2988 27.7109C28.5695 28.2222 28.3977 28.9441 27.9207 29.3137L26.1804 30.6672C25.7035 31.041 24.9601 31.0282 24.5347 30.6414L21.3593 27.7668Z" fill="#546266"/>
<path d="M27.792 21.3C27.2162 21.3301 26.808 20.8574 26.881 20.2558L27.431 15.8815C27.5084 15.28 28.0197 14.9276 28.5697 15.0952L32.6604 16.3542C33.2104 16.5218 33.6014 17.1534 33.5241 17.755L33.2491 19.9421C33.1717 20.5437 32.6389 21.0593 32.0631 21.0851L27.792 21.3Z" fill="#546266"/>
<path d="M27.7705 12.1775C27.3838 12.6029 26.7608 12.5642 26.3912 12.083L23.6842 8.60244C23.3103 8.12547 23.4263 7.51101 23.9334 7.2403L27.719 5.23792C28.2303 4.96722 28.9522 5.13909 29.3217 5.61606L30.6753 7.35632C31.0491 7.83328 31.0362 8.57665 30.6495 9.00205L27.7705 12.1775Z" fill="#546266"/>
<path d="M21.2997 5.74494C21.3298 6.32073 20.8571 6.72894 20.2556 6.65589L15.8813 6.10588C15.2797 6.02854 14.9274 5.5172 15.0949 4.96719L16.3539 0.876499C16.5215 0.32649 17.1532 -0.0645321 17.7548 0.0128129L19.9419 0.287817C20.5435 0.360866 21.0591 0.897984 21.0849 1.47377L21.2997 5.74494Z" fill="#546266"/>
<path d="M12.1766 5.76644C12.602 6.15316 12.5634 6.77622 12.0821 7.14576L8.60158 9.85283C8.12462 10.2224 7.51015 10.1106 7.23945 9.60361L5.23707 5.8223C4.96636 5.31096 5.13824 4.58908 5.6152 4.21954L7.35546 2.866C7.83243 2.49217 8.5758 2.50506 9.00119 2.89608L12.1766 5.76644Z" fill="#546266"/>
<path d="M19.0172 24.961C14.4925 26.2028 9.81741 23.543 8.57129 19.0183C7.32947 14.4936 9.98928 9.81852 14.514 8.57241C19.0386 7.33059 23.7137 9.9904 24.9598 14.5151C26.206 19.0441 23.5418 23.7191 19.0172 24.961ZM13.1948 3.75553C6.00601 5.72783 1.78212 13.1573 3.75441 20.3417C5.72671 27.5262 13.1561 31.7544 20.3406 29.7778C27.5251 27.8055 31.7533 20.3761 29.781 13.1916C27.8087 6.00713 20.3793 1.78323 13.1948 3.75553Z" fill="#546266"/>
<path d="M17.8271 20.6253C15.6958 21.2097 13.4958 19.9593 12.9114 17.828C12.327 15.6967 13.5774 13.4967 15.7087 12.9123C17.84 12.3279 20.04 13.5783 20.6244 15.7096C21.2088 17.8366 19.9584 20.0409 17.8271 20.6253ZM13.9899 6.64735C8.39958 8.18137 5.11242 13.9608 6.64643 19.5468C8.18044 25.1371 13.9598 28.4243 19.5502 26.8903C25.1405 25.3563 28.4276 19.5769 26.8893 13.9908C25.351 8.40481 19.5802 5.11334 13.9899 6.64735Z" fill="#AABBC1"/>
<path d="M17.8275 20.6253C15.6962 21.2097 13.4961 19.9593 12.9117 17.828C12.3274 15.6967 13.5778 13.4967 15.7091 12.9123C17.8403 12.3279 20.0404 13.5783 20.6248 15.7096C21.2091 17.8366 19.9587 20.0409 17.8275 20.6253ZM14.652 9.05795C10.3937 10.2267 7.88862 14.6268 9.05738 18.8894C10.2262 23.1476 14.6262 25.6528 18.8888 24.484C23.1471 23.3109 25.6479 18.9066 24.4791 14.6483C23.3104 10.39 18.9103 7.88918 14.652 9.05795Z" fill="#546266"/>
<path d="M29.6484 31.0283C30.0824 31.0068 30.3875 31.3591 30.3316 31.8103L29.9191 35.0932C29.8633 35.5444 29.4766 35.8108 29.064 35.6819L25.996 34.7365C25.5835 34.6076 25.2913 34.135 25.3472 33.6838L25.5534 32.0424C25.6093 31.5912 26.0089 31.2045 26.4429 31.183L29.6484 31.0283Z" fill="#546266"/>
<path d="M29.6657 37.869C29.9579 37.5468 30.422 37.5811 30.7013 37.9378L32.7294 40.5503C33.0087 40.9113 32.9228 41.371 32.5404 41.573L29.7044 43.0769C29.322 43.2789 28.7805 43.15 28.5012 42.7933L27.4872 41.4871C27.2079 41.1261 27.2165 40.5718 27.5086 40.2495L29.6657 37.869Z" fill="#546266"/>
<path d="M34.517 42.6944C34.4956 42.2605 34.8479 41.9554 35.2991 42.0112L38.582 42.4237C39.0331 42.4796 39.2995 42.8663 39.1706 43.2788L38.2253 46.3469C38.0964 46.7594 37.6237 47.0516 37.1726 46.9957L35.5311 46.7894C35.0799 46.7336 34.6932 46.334 34.6717 45.9L34.517 42.6944Z" fill="#546266"/>
<path d="M41.3623 42.6773C41.04 42.3851 41.0744 41.9211 41.4311 41.6418L44.0436 39.6136C44.4045 39.3343 44.8643 39.4202 45.0663 39.8027L46.5702 42.6387C46.7722 43.0211 46.6433 43.5625 46.2866 43.8418L44.9803 44.8559C44.6194 45.1352 44.0651 45.1266 43.7428 44.8344L41.3623 42.6773Z" fill="#546266"/>
<path d="M46.1878 37.826C45.7581 37.8475 45.4487 37.4951 45.5046 37.0439L45.9171 33.7611C45.9729 33.3099 46.3597 33.0435 46.7722 33.1724L49.8402 34.1177C50.2527 34.2423 50.5449 34.7193 50.489 35.1705L50.2828 36.8119C50.2269 37.2631 49.8273 37.6498 49.3933 37.6713L46.1878 37.826Z" fill="#546266"/>
<path d="M46.1662 30.981C45.874 31.3033 45.4099 31.2689 45.1306 30.9123L43.1025 28.2997C42.8232 27.9388 42.9091 27.4833 43.2916 27.277L46.1275 25.7731C46.51 25.5712 47.0514 25.7001 47.3307 26.0567L48.3448 27.363C48.6241 27.7196 48.6155 28.2782 48.3233 28.5962L46.1662 30.981Z" fill="#546266"/>
<path d="M41.3184 26.1555C41.3399 26.5895 40.9876 26.8946 40.5364 26.8387L37.2535 26.4262C36.8023 26.3704 36.5359 25.9836 36.6648 25.5711L37.6102 22.5031C37.7391 22.0906 38.2117 21.7984 38.6629 21.8543L40.3043 22.0605C40.7555 22.1164 41.1422 22.516 41.1637 22.95L41.3184 26.1555Z" fill="#546266"/>
<path d="M34.4738 26.1769C34.796 26.4691 34.7617 26.9332 34.405 27.2125L31.7925 29.2407C31.4315 29.52 30.9761 29.434 30.7698 29.0516L29.2702 26.2156C29.0682 25.8332 29.1971 25.2918 29.5538 25.0125L30.86 23.9984C31.221 23.7191 31.7753 23.7277 32.0933 24.0199L34.4738 26.1769Z" fill="#546266"/>
<path d="M39.6048 40.5718C36.2102 41.5042 32.7039 39.5061 31.7715 36.1158C30.8391 32.7213 32.8328 29.2149 36.2274 28.2825C39.622 27.3501 43.1283 29.3482 44.0608 32.7384C44.9975 36.1287 42.9994 39.6393 39.6048 40.5718ZM35.2391 24.6645C29.8508 26.1469 26.6796 31.7158 28.1621 37.1041C29.6445 42.4925 35.2134 45.6637 40.6017 44.1812C45.9901 42.6988 49.1612 37.1299 47.6788 31.7416C46.1963 26.3532 40.6275 23.1863 35.2391 24.6645Z" fill="#546266"/>
<path d="M38.7104 37.3147C37.1119 37.753 35.4619 36.8163 35.0236 35.2178C34.5853 33.6193 35.5221 31.9693 37.1205 31.531C38.719 31.0927 40.369 32.0295 40.8073 33.6279C41.2499 35.2264 40.3089 36.8764 38.7104 37.3147ZM35.8314 26.8345C31.6376 27.986 29.1755 32.3174 30.3271 36.5112C31.4786 40.705 35.81 43.1672 40.0038 42.0156C44.1976 40.864 46.6598 36.5327 45.5082 32.3388C44.3566 28.1493 40.0253 25.6829 35.8314 26.8345Z" fill="#AABBC1"/>
<path d="M38.7106 37.3147C37.1122 37.753 35.4622 36.8163 35.0239 35.2178C34.5856 33.6193 35.5223 31.9693 37.1208 31.531C38.7192 31.0927 40.3693 32.0295 40.8076 33.6279C41.2501 35.2264 40.3091 36.8764 38.7106 37.3147ZM36.3301 28.6435C33.1375 29.5201 31.2597 32.8201 32.1363 36.017C33.0129 39.2097 36.313 41.0874 39.5099 40.2109C42.7025 39.3343 44.5803 36.0342 43.7037 32.8373C42.8228 29.6404 39.5228 27.7626 36.3301 28.6435Z" fill="#546266"/>
</g>
<defs>
<clipPath id="clip0_883:726">
<rect width="50.4934" height="47" fill="white"/>
</clipPath>
</defs>
</svg>
