<?xml version="1.0" encoding="utf-8"?>
<!-- Generator: Adobe Illustrator 25.4.1, SVG Export Plug-In . SVG Version: 6.00 Build 0)  -->
<svg version="1.1" id="Layer_1" xmlns="http://www.w3.org/2000/svg" xmlns:xlink="http://www.w3.org/1999/xlink" x="0px" y="0px"
	 viewBox="0 0 1164 265" style="enable-background:new 0 0 1164 265;" xml:space="preserve">
<style type="text/css">
	.st0{fill-rule:evenodd;clip-rule:evenodd;fill:#1B1D21;}
</style>
<g id="XMLID_6_">
	<path id="XMLID_11_" class="st0" d="M280.1,79.4c4.5-0.6,8.9-0.9,13-0.9c4.4,0,8.8,0.3,13.1,0.9l28,58l28.8-58
		c3.5-0.6,7.4-0.9,11.7-0.9c4.3,0,8.4,0.3,12.4,0.9l5.8,106.6c-4.3,0.6-8.4,0.9-12.2,0.9c-3.8,0-7.6-0.3-11.4-0.9l-3.1-77.1
		l-24.7,53.3c-1.6,0.2-3.2,0.4-4.9,0.6c-1.7,0.2-3.4,0.2-5.1,0.2c-1.5,0-2.9-0.1-4.4-0.2c-1.5-0.1-3-0.3-4.6-0.6l-23-54.4L297,186
		c-3.6,0.6-7.1,0.9-10.5,0.9c-3.6,0-7.3-0.3-11.2-0.9L280.1,79.4L280.1,79.4z M1017.6,121.1h-10.2l-0.8-3.1l29.3-37.4h3.6v23.6h18.9
		c0.3,1.6,0.5,3,0.6,4.2c0.1,1.3,0.2,2.6,0.2,3.9c0,1.5-0.1,2.9-0.2,4.2c-0.1,1.4-0.3,2.9-0.6,4.5h-18.9v31.8c0,3.2,0.3,5.8,0.8,7.8
		c0.5,2,1.3,3.5,2.3,4.7c1,1.1,2.2,1.9,3.7,2.3c1.5,0.4,3.2,0.6,5.2,0.6c1.6,0,3.1-0.1,4.6-0.4c1.5-0.3,2.8-0.5,4-0.7
		c0.7,2,1.3,4,1.6,6.2c0.3,2.1,0.5,4,0.5,5.7c0,1.1,0,2.1-0.1,2.9c-0.1,0.8-0.1,1.5-0.2,2.3c-4.8,1.1-9.8,1.7-14.9,1.7
		c-9.5,0-16.7-2.2-21.7-6.6c-5-4.4-7.5-11.7-7.5-21.7V121.1L1017.6,121.1z M963.5,149.9c-5.8-1.7-10.4-4.1-13.7-7.4
		c-3.3-3.3-4.9-8.2-4.9-14.8c0-7.9,2.8-14.1,8.5-18.6c5.7-4.5,13.4-6.7,23.2-6.7c4.1,0,8.1,0.4,12,1.1c4,0.7,8,1.8,12,3.3
		c-0.2,2.7-0.7,5.5-1.6,8.4c-0.8,2.9-1.8,5.5-3,7.7c-2.5-1-5.3-2-8.3-2.7c-3-0.8-6.2-1.2-9.5-1.2c-3.5,0-6.3,0.5-8.3,1.6
		c-2,1.1-3,2.8-3,5.2c0,2.3,0.7,3.9,2.1,4.9c1.4,0.9,3.4,1.8,6,2.7l8.9,2.7c2.9,0.8,5.6,1.8,7.9,3c2.3,1.2,4.4,2.7,6,4.5
		c1.7,1.8,3,4,3.9,6.6c0.9,2.6,1.4,5.8,1.4,9.5c0,3.9-0.8,7.5-2.4,10.8c-1.6,3.3-4,6.2-7,8.7c-3.1,2.5-6.8,4.4-11.2,5.8
		c-4.4,1.4-9.3,2.1-14.9,2.1c-2.5,0-4.8-0.1-6.9-0.2c-2.1-0.2-4.1-0.4-6-0.8c-1.9-0.4-3.8-0.8-5.7-1.3c-1.9-0.5-3.9-1.2-6.1-2
		c0.2-2.8,0.7-5.7,1.5-8.5c0.8-2.9,1.8-5.7,3.1-8.4c3.4,1.4,6.7,2.4,9.8,3.1c3.1,0.7,6.3,1,9.6,1c1.5,0,3.1-0.1,4.8-0.4
		c1.7-0.3,3.3-0.7,4.8-1.4c1.5-0.7,2.7-1.6,3.7-2.7c1-1.1,1.5-2.5,1.5-4.3c0-2.5-0.8-4.3-2.3-5.4c-1.5-1.1-3.6-2.1-6.3-2.9
		L963.5,149.9L963.5,149.9z M896,186.9c-6.6,0-12.3-1.1-17.1-3.2c-4.9-2.1-8.9-5.1-12-8.9c-3.2-3.8-5.6-8.3-7.2-13.4
		c-1.6-5.1-2.4-10.6-2.4-16.6c0-5.9,0.8-11.5,2.4-16.7c1.6-5.2,4-9.7,7.2-13.5c3.2-3.8,7.2-6.8,12-9c4.8-2.2,10.6-3.3,17.1-3.3
		c6.6,0,12.3,1.1,17.2,3.3c4.9,2.2,9,5.2,12.2,9c3.2,3.8,5.6,8.3,7.2,13.5c1.6,5.2,2.3,10.8,2.3,16.7c0,5.9-0.8,11.5-2.3,16.6
		c-1.6,5.1-4,9.6-7.2,13.4c-3.2,3.8-7.3,6.8-12.2,8.9C908.3,185.9,902.6,186.9,896,186.9L896,186.9z M896,170c5.8,0,10-2.2,12.6-6.5
		c2.6-4.3,3.8-10.6,3.8-18.7c0-8.1-1.3-14.4-3.8-18.7c-2.6-4.3-6.8-6.5-12.6-6.5c-5.7,0-9.9,2.2-12.4,6.5
		c-2.6,4.3-3.8,10.6-3.8,18.7c0,8.1,1.3,14.4,3.8,18.7C886.1,167.9,890.2,170,896,170L896,170z M733.4,104.2
		c1.5-0.3,2.9-0.5,4.4-0.7c1.5-0.2,3.1-0.2,4.9-0.2c1.8,0,3.3,0.1,4.7,0.2c1.4,0.2,2.8,0.4,4.2,0.7c0.3,0.5,0.6,1.3,0.9,2.3
		c0.3,1,0.5,2,0.7,3.1c0.2,1.1,0.4,2.2,0.5,3.2c0.2,1,0.3,1.9,0.4,2.7c0.8-1.6,1.9-3.1,3.3-4.7c1.4-1.6,3-3,4.8-4.2
		c1.9-1.3,4-2.3,6.3-3.1c2.3-0.8,5-1.2,7.9-1.2c12.6,0,20.7,4.8,24.2,14.4c2.1-3.9,5-7.2,8.8-10.1c3.8-2.9,8.6-4.3,14.5-4.3
		c9.2,0,15.9,2.5,20.3,7.6c4.3,5.1,6.5,13,6.5,23.7v51.5c-3.8,0.6-7.5,0.9-11.1,0.9c-3.7,0-7.4-0.3-11.1-0.9v-45.7
		c0-5.6-0.7-10-2.1-13c-1.4-3-4.2-4.5-8.5-4.5c-1.8,0-3.5,0.3-5.2,0.8c-1.7,0.5-3.3,1.5-4.7,2.9c-1.4,1.4-2.6,3.4-3.4,5.9
		c-0.9,2.6-1.3,5.9-1.3,9.9v43.6c-3.8,0.6-7.5,0.9-11.1,0.9c-3.7,0-7.4-0.3-11.1-0.9v-45.7c0-5.6-0.7-10-2.1-13
		c-1.4-3-4.2-4.5-8.5-4.5c-1.8,0-3.5,0.3-5.3,0.8c-1.8,0.5-3.4,1.5-4.8,3.1c-1.4,1.5-2.5,3.6-3.4,6.3c-0.8,2.7-1.3,6.3-1.3,10.6
		v42.4c-3.8,0.6-7.5,0.9-11.1,0.9c-3.7,0-7.4-0.3-11.1-0.9V104.2L733.4,104.2z M674.2,104.2c1.6-0.3,3-0.5,4.5-0.7
		c1.4-0.2,2.9-0.2,4.6-0.2c1.6,0,3.1,0.1,4.6,0.3c1.5,0.2,3,0.5,4.5,0.8c0.3,0.5,0.6,1.3,0.9,2.3c0.3,1,0.5,2,0.7,3.1
		c0.2,1.1,0.4,2.2,0.5,3.3c0.2,1.1,0.3,2,0.4,2.7c2.3-3.2,5.1-6.1,8.4-8.7c3.3-2.6,7.5-3.8,12.5-3.8c1,0,2.2,0.1,3.6,0.2
		c1.4,0.1,2.3,0.3,3,0.5c0.2,1,0.4,2.2,0.5,3.6c0.1,1.4,0.2,2.8,0.2,4.2c0,1.8-0.1,3.7-0.2,5.8c-0.2,2.1-0.4,4.1-0.9,5.9
		c-1.1-0.2-2.4-0.3-3.8-0.3c-1.4,0-2.3,0-2.6,0c-1.8,0-3.8,0.2-5.9,0.5c-2.2,0.4-4.3,1.3-6.3,2.9c-2,1.6-3.6,3.9-4.9,7
		c-1.3,3.1-2,7.5-2,13.1v38.5c-1.9,0.3-3.8,0.5-5.6,0.6c-1.9,0.1-3.7,0.2-5.5,0.2c-1.8,0-3.6-0.1-5.4-0.2c-1.8-0.1-3.7-0.3-5.7-0.6
		V104.2L674.2,104.2z M613,151.4c0.4,6.3,2.6,10.8,6.6,13.6c4,2.8,9.2,4.2,15.6,4.2c3.5,0,7.2-0.3,10.9-1c3.7-0.7,7.2-1.6,10.6-2.9
		c1.1,2.1,2.1,4.6,3,7.5c0.8,2.9,1.3,6,1.4,9.4c-8.1,3.1-17.3,4.7-27.5,4.7c-7.5,0-13.9-1-19.3-3.1c-5.4-2.1-9.8-5-13.1-8.7
		c-3.4-3.7-5.9-8.1-7.5-13.2c-1.6-5.1-2.4-10.7-2.4-16.7c0-5.9,0.8-11.5,2.5-16.7c1.7-5.2,4.1-9.8,7.4-13.6
		c3.3-3.9,7.4-6.9,12.2-9.2c4.8-2.2,10.5-3.4,17-3.4c5.6,0,10.6,1,15,3c4.4,2,8.1,4.7,11.2,8.1c3.1,3.4,5.4,7.5,7,12.3
		c1.6,4.7,2.3,9.8,2.3,15.3c0,2-0.1,3.9-0.2,5.9c-0.2,1.9-0.3,3.5-0.5,4.6H613L613,151.4z M644.7,135.9c-0.2-5-1.6-9-4.1-12.1
		c-2.6-3.1-6.1-4.6-10.7-4.6c-5.2,0-9.2,1.5-11.9,4.4c-2.7,2.9-4.3,7-4.8,12.4H644.7L644.7,135.9z M542,121.1h-10.2l-0.8-3.1
		l29.3-37.4h3.6v23.6h18.9c0.3,1.6,0.5,3,0.6,4.2c0.1,1.3,0.2,2.6,0.2,3.9c0,1.5-0.1,2.9-0.2,4.2c-0.1,1.4-0.3,2.9-0.6,4.5h-18.9
		v31.8c0,3.2,0.3,5.8,0.8,7.8c0.5,2,1.3,3.5,2.3,4.7c1,1.1,2.2,1.9,3.7,2.3c1.5,0.4,3.2,0.6,5.2,0.6c1.6,0,3.1-0.1,4.6-0.4
		c1.5-0.3,2.8-0.5,4-0.7c0.7,2,1.3,4,1.6,6.2c0.3,2.1,0.5,4,0.5,5.7c0,1.1,0,2.1-0.1,2.9c-0.1,0.8-0.1,1.5-0.2,2.3
		c-4.8,1.1-9.8,1.7-14.9,1.7c-9.5,0-16.7-2.2-21.7-6.6c-5-4.4-7.5-11.7-7.5-21.7V121.1L542,121.1z M483.3,121.1h-10.2l-0.8-3.1
		l29.3-37.4h3.6v23.6h18.9c0.3,1.6,0.5,3,0.6,4.2c0.1,1.3,0.2,2.6,0.2,3.9c0,1.5-0.1,2.9-0.2,4.2c-0.1,1.4-0.3,2.9-0.6,4.5h-18.9
		v31.8c0,3.2,0.3,5.8,0.8,7.8c0.5,2,1.3,3.5,2.3,4.7c1,1.1,2.2,1.9,3.7,2.3c1.5,0.4,3.2,0.6,5.2,0.6c1.6,0,3.1-0.1,4.6-0.4
		c1.5-0.3,2.8-0.5,4-0.7c0.7,2,1.3,4,1.6,6.2c0.3,2.1,0.5,4,0.5,5.7c0,1.1,0,2.1-0.1,2.9c-0.1,0.8-0.1,1.5-0.2,2.3
		c-4.8,1.1-9.8,1.7-14.9,1.7c-9.5,0-16.7-2.2-21.7-6.6c-5-4.4-7.5-11.7-7.5-21.7V121.1L483.3,121.1z M446.9,148
		c-1.3-0.2-2.6-0.4-4.1-0.5c-1.5-0.2-2.8-0.2-3.9-0.2c-5.1,0-9.2,0.9-12.1,2.7c-3,1.8-4.5,4.8-4.5,8.8c0,2.7,0.6,4.8,1.7,6.3
		c1.1,1.5,2.5,2.5,4.1,3.2c1.6,0.7,3.3,1.1,5.2,1.3c1.8,0.2,3.4,0.2,4.8,0.2c1.6,0,3.1-0.1,4.7-0.4c1.6-0.3,2.9-0.5,4.1-0.7V148
		L446.9,148z M446.9,131.9c0-2.5-0.4-4.5-1.3-6.1c-0.8-1.6-2-2.8-3.4-3.7c-1.5-0.9-3.3-1.5-5.4-1.8c-2.1-0.3-4.5-0.5-7.1-0.5
		c-5.6,0-11.6,1.1-18,3.3c-1.5-2.7-2.6-5.3-3.3-7.7c-0.7-2.4-1.1-5.3-1.1-8.6c4.6-1.6,9.2-2.7,13.8-3.4c4.6-0.7,8.9-1.1,12.8-1.1
		c10.8,0,19.3,2.6,25.4,7.8c6.1,5.2,9.2,13.6,9.2,25v46.9c-3.7,1.1-8.1,2.2-13.3,3.3c-5.2,1-11.1,1.6-17.7,1.6
		c-5.3,0-10.2-0.5-14.6-1.4c-4.4-0.9-8.2-2.5-11.4-4.7c-3.2-2.2-5.6-5-7.4-8.4c-1.7-3.4-2.6-7.7-2.6-12.7c0-5,1.1-9.2,3.2-12.6
		c2.1-3.4,4.9-6.1,8.3-8.1c3.4-2,7.2-3.5,11.3-4.4c4.2-0.9,8.3-1.3,12.5-1.3c3,0,6.4,0.2,10,0.5V131.9z"/>
	<g id="XMLID_2_">
		<g id="XMLID_3_">
			<path id="XMLID_4_" class="st0" d="M192.4,62.7l0.9,17.4c14.1,15.6,19.7,37.7,12.7,58.5c-10.5,31-45.1,47.3-77.4,36.4
				s-49.8-44.9-39.3-75.9c7.1-20.9,25-35.1,45.8-38.8L146.3,47c-35.1-0.9-68.1,20.8-80,55.8c-14.5,43,8.5,89.6,51.5,104.1
				s89.6-8.5,104.1-51.5C233.7,120.6,220.7,83.2,192.4,62.7z"/>
		</g>
		<path id="XMLID_5_" class="st0" d="M172.3,114.1l-0.6-24.4l-0.5-14l-0.3-12.2c0,0,0.1-5.9-0.1-7.2c0-0.3-0.1-0.5-0.2-0.7
			c0,0,0-0.1,0-0.1c0,0,0-0.1,0-0.1c-0.2-0.4-0.6-0.7-1-0.9c-0.5-0.2-1-0.1-1.4,0.1c0,0,0,0,0,0c0,0-0.1,0-0.1,0.1
			c-0.2,0.1-0.4,0.2-0.6,0.4c-1,1-4.5,5.7-4.5,5.7l-7.6,9.5l-8.9,10.9l-15.3,19c0,0-7,8.7-5.5,19.5c1.5,10.8,9.6,16,15.8,18.1
			c6.2,2.1,15.8,2.8,23.5-4.8C172.5,125.3,172.3,114.1,172.3,114.1z"/>
	</g>
</g>
</svg>
