<svg width="28" height="25" viewBox="0 0 28 25" fill="none" xmlns="http://www.w3.org/2000/svg">
<path d="M14.5929 6.99808C14.5571 7.3256 14.3754 7.50983 14.0454 7.54565C13.7179 7.50983 13.5336 7.32816 13.4978 6.99808C13.4978 6.01298 13.7153 5.23001 14.1528 4.64662C14.5904 4.06324 15.0816 3.55405 15.6292 3.11651C16.0668 2.75318 16.4403 2.36937 16.7499 1.96765C17.0595 1.56593 17.2156 1.07466 17.2156 0.491273C17.2514 0.163758 17.4433 0 17.7913 0C18.1367 0 18.3287 0.163758 18.3645 0.491273C18.3287 1.33053 18.1086 2.02138 17.7094 2.56895C17.3077 3.11651 16.8625 3.57964 16.3712 3.96345C15.88 4.34725 15.4603 4.76433 15.1149 5.21978C14.7644 5.67779 14.5929 6.26885 14.5929 6.99808Z" fill="#5A7B90"/>
<path d="M27.9033 15.9101C27.9928 17.7319 28.021 19.7558 27.9852 21.9793C27.8393 23.3636 27.1843 24.2029 26.0175 24.4945C24.8507 24.7862 23.8477 24.3845 23.011 23.292L21.7547 21.4881C21.1355 20.613 20.46 19.6125 19.7307 18.4816C19.3649 18.5916 19.0015 18.6632 18.6382 18.6991C17.4356 18.589 16.6066 18.2334 16.1511 17.6321C15.6957 17.0308 15.102 16.693 14.3754 16.6214H14.099C13.3698 16.6956 12.7787 17.0308 12.3233 17.6321C11.8678 18.2334 11.0388 18.589 9.8362 18.6991C9.28864 18.6632 8.79737 18.5353 8.35983 18.3153C7.59477 19.482 6.90136 20.503 6.28215 21.378L4.96953 23.292C4.13027 24.3845 3.12982 24.7965 1.96304 24.5227C0.79627 24.2489 0.15915 23.402 0.0491256 21.9793C-0.0250771 19.7558 -0.0148423 17.7319 0.0772714 15.9101C0.166826 14.0883 0.578779 12.2665 1.30801 10.4421L1.58179 9.73077C1.94513 8.74567 2.53875 7.95502 3.35754 7.35373C4.17633 6.75243 5.13329 6.4505 6.22842 6.4505H21.7547C22.9215 6.4505 23.9219 6.78825 24.7612 7.46119C25.5979 8.13669 26.1634 8.98363 26.455 10.0046C26.5267 10.1504 26.583 10.2962 26.6188 10.4421C27.3839 12.2639 27.8137 14.0857 27.9033 15.9101Z" fill="#2B3B47"/>
<path d="M9.37052 8.61006C10.1177 9.3572 10.4912 10.3065 10.4912 11.4528C10.4912 12.6016 10.1177 13.5586 9.37052 14.3237C8.62338 15.0887 7.67666 15.4725 6.52779 15.4725C5.37893 15.4725 4.42197 15.0887 3.65692 14.3237C2.89186 13.5586 2.50806 12.6016 2.50806 11.4528C2.50806 10.3039 2.89186 9.3572 3.65692 8.61006C4.42197 7.86291 5.3687 7.47143 6.49965 7.43561C7.66642 7.47143 8.62338 7.86291 9.37052 8.61006ZM24.5411 8.61006C23.7761 7.86291 22.8191 7.48934 21.6703 7.48934C20.5214 7.48934 19.5644 7.86291 18.7994 8.61006C18.0343 9.3572 17.6505 10.3039 17.6505 11.4528C17.6505 12.6016 18.0343 13.5586 18.7994 14.3237C19.5644 15.0887 20.5214 15.4725 21.6703 15.4725C22.8191 15.4725 23.7761 15.0887 24.5411 14.3237C25.3062 13.5586 25.7079 12.6119 25.7437 11.4809C25.7079 10.3142 25.3062 9.3572 24.5411 8.61006Z" fill="#142129"/>
<path d="M21.0153 12.7654C21.2149 12.5658 21.4605 12.4635 21.7522 12.4635C22.0439 12.4635 22.2998 12.5633 22.5173 12.7654C22.7348 12.965 22.8448 13.2209 22.8448 13.5305C22.8448 13.8401 22.7348 14.096 22.5173 14.2955C22.2998 14.4951 22.0439 14.5949 21.7522 14.5949C21.4605 14.5949 21.2149 14.4951 21.0153 14.2955C20.8157 14.096 20.6955 13.8503 20.6597 13.5586C20.6955 13.2311 20.8157 12.965 21.0153 12.7654Z" fill="#32A4EC"/>
<path d="M21.0153 8.72015C21.2149 8.52057 21.4605 8.42078 21.7522 8.42078C22.0439 8.42078 22.2998 8.52057 22.5173 8.72015C22.7348 8.91973 22.8448 9.1756 22.8448 9.4852C22.8448 9.79481 22.7348 10.0507 22.5173 10.2503C22.2998 10.4498 22.0439 10.5496 21.7522 10.5496C21.4605 10.5496 21.2149 10.4498 21.0153 10.2503C20.8157 10.0507 20.6955 9.80504 20.6597 9.51335C20.6955 9.18583 20.8157 8.91973 21.0153 8.72015Z" fill="#FFBC1F"/>
<path d="M18.9938 10.7415C19.1934 10.5419 19.4493 10.4396 19.7589 10.4396C20.0685 10.4396 20.3244 10.5394 20.524 10.7415C20.7235 10.9411 20.8259 11.197 20.8259 11.5066C20.8259 11.8162 20.7261 12.072 20.524 12.2716C20.3244 12.4712 20.0685 12.571 19.7589 12.571C19.4493 12.571 19.1934 12.4712 18.9938 12.2716C18.7943 12.072 18.674 11.8264 18.6382 11.5347C18.674 11.2072 18.7917 10.9436 18.9938 10.7415Z" fill="#C43133"/>
<path d="M23.039 10.7415C23.2386 10.5419 23.4842 10.4396 23.7759 10.4396C24.0676 10.4396 24.3235 10.5394 24.541 10.7415C24.7585 10.9411 24.8685 11.197 24.8685 11.5066C24.8685 11.8162 24.7585 12.072 24.541 12.2716C24.3235 12.4712 24.0676 12.571 23.7759 12.571C23.4842 12.571 23.2386 12.4712 23.039 12.2716C22.8394 12.072 22.7192 11.8264 22.6833 11.5347C22.7192 11.2072 22.8369 10.9436 23.039 10.7415Z" fill="#339970"/>
<path d="M5.18957 10.6059L5.62711 11.0971C5.77296 11.3146 5.77296 11.5347 5.62711 11.7522L5.18957 12.2434C5.11537 12.3176 5.04373 12.3535 4.97208 12.3535H3.54944C3.33195 12.3535 3.22192 12.2255 3.22192 11.9696V10.9308C3.22192 10.6775 3.33195 10.5291 3.54944 10.4933H4.97208C5.04117 10.4958 5.11537 10.5342 5.18957 10.6059ZM7.32098 10.222L6.82971 10.6596C6.61222 10.8054 6.39217 10.8054 6.17468 10.6596L5.68341 10.222C5.6092 10.1504 5.57338 10.0762 5.57338 10.0046V8.58447C5.6092 8.36698 5.75505 8.25696 6.01092 8.25696H6.99603C7.24934 8.25696 7.39774 8.36698 7.43357 8.58447V10.0046C7.43101 10.0788 7.39263 10.1504 7.32098 10.222ZM5.68085 12.7373L6.17212 12.2997C6.38961 12.1539 6.60966 12.1539 6.82715 12.2997L7.31842 12.7373C7.39007 12.7731 7.42845 12.8473 7.42845 12.9548V14.3774C7.39263 14.5591 7.24678 14.6691 6.99091 14.7049H6.0058C5.74993 14.6691 5.60409 14.5591 5.56826 14.3774V12.9548C5.57082 12.8473 5.60664 12.7756 5.68085 12.7373ZM7.81226 12.356L7.37472 11.8085C7.22887 11.6268 7.22887 11.4246 7.37472 11.2072L7.81226 10.7159C7.8839 10.6442 7.9581 10.6059 8.02975 10.6059H9.50612C9.68779 10.6059 9.77991 10.7338 9.77991 10.9897V12.0285C9.77991 12.2844 9.68779 12.4302 9.50612 12.466H8.02975C7.9581 12.4635 7.88646 12.4277 7.81226 12.356ZM11.1744 14.2136C11.5198 14.5795 11.6938 15.0248 11.6938 15.5518C11.6938 16.0815 11.5198 16.519 11.1744 16.8645C10.8264 17.2125 10.3914 17.3839 9.86178 17.3839C9.33213 17.3839 8.88692 17.2125 8.52358 16.8645C8.15768 16.519 7.97601 16.0815 7.97601 15.5518C7.97601 15.0248 8.15768 14.577 8.52358 14.2136C8.88692 13.8503 9.32445 13.6661 9.8362 13.6661C10.3812 13.6686 10.829 13.8503 11.1744 14.2136ZM13.4977 12.9573C13.4977 12.704 13.3698 12.5556 13.1139 12.5198H11.7476C11.4917 12.5556 11.3637 12.7014 11.3637 12.9573C11.3637 13.2132 11.4917 13.359 11.7476 13.3949H13.1139C13.3698 13.359 13.4977 13.2132 13.4977 12.9573ZM16.6142 13.3949H15.2479C14.992 13.359 14.8641 13.2132 14.8641 12.9573C14.8641 12.704 14.992 12.5556 15.2479 12.5198H16.6142C16.8675 12.5556 16.998 12.7014 16.998 12.9573C16.998 13.2132 16.8701 13.359 16.6142 13.3949ZM19.5388 14.2136C19.8843 14.5795 20.0583 15.0248 20.0583 15.5518C20.0583 16.0815 19.8843 16.519 19.5388 16.8645C19.1909 17.2125 18.7559 17.3839 18.2262 17.3839C17.6966 17.3839 17.2513 17.2125 16.888 16.8645C16.5221 16.519 16.3404 16.0815 16.3404 15.5518C16.3404 15.0248 16.5221 14.577 16.888 14.2136C17.2513 13.8503 17.6889 13.6661 18.2006 13.6661C18.7456 13.6686 19.1934 13.8503 19.5388 14.2136Z" fill="#5A7B90"/>
</svg>
