<svg width="57" height="57" viewBox="0 0 57 57" fill="none" xmlns="http://www.w3.org/2000/svg">
<g clip-path="url(#clip0)">
<path d="M55.636 19.8945C57.1407 21.3992 57.4531 23.6764 56.3183 24.9952L30.0121 55.5778C28.4154 57.4352 25.6207 57.4946 23.7978 55.6621L1.34057 33.2029C-0.482312 31.3801 -0.432477 28.5853 1.42299 26.9886L32.0075 0.684345C33.3244 -0.450403 35.6015 -0.13987 37.1062 1.36674L55.636 19.8945Z" fill="#AABBC1"/>
<path d="M45.2806 9.53993L11.2458 43.1108L3.31982 35.1848L38.7385 3.00171L45.2806 9.53993Z" fill="#202427"/>
<path d="M44.0251 16.3293L20.0842 40.7628L26.4998 47.1784L49.6126 21.9149L44.0251 16.3293Z" fill="white"/>
<path d="M30.3603 38.5796C29.0185 37.3375 29.814 35.0066 30.3028 33.7358C31.0695 31.7691 31.865 35.5452 31.9052 36.1299C32.0339 38.049 31.8645 39.9766 31.403 41.8439C31.1442 42.8876 30.7673 43.8986 30.2798 44.8571C29.9847 45.453 29.5619 45.9765 29.0415 46.3905C27.7496 47.1707 26.9331 46.4116 26.5957 44.121C26.7265 43.4209 27.0597 42.7744 27.5541 42.2617C29.2409 40.1686 31.9091 39.1086 33.8623 37.4812C34.054 37.3202 33.7454 37.0173 33.5556 37.1745C31.221 39.1162 26.4213 40.7187 26.1242 44.5561C25.9325 47.094 28.501 47.6383 29.8811 46.2257C31.6752 44.3894 32.1333 41.0503 32.2886 38.5412C32.3787 37.0825 32.7486 33.0457 30.6057 32.555C30.5643 32.5422 30.5198 32.5437 30.4794 32.5594C30.4391 32.575 30.4052 32.6039 30.3833 32.6413C29.5342 34.1325 28.3208 37.2608 30.0766 38.8805C30.0964 38.8991 30.1196 38.9137 30.145 38.9233C30.1704 38.9329 30.1974 38.9375 30.2246 38.9367C30.2517 38.9359 30.2784 38.9298 30.3032 38.9186C30.328 38.9075 30.3503 38.8916 30.3689 38.8718C30.3876 38.8521 30.4021 38.8289 30.4118 38.8035C30.4214 38.7781 30.426 38.7511 30.4252 38.7239C30.4244 38.6968 30.4182 38.6701 30.4071 38.6453C30.396 38.6205 30.3801 38.5982 30.3603 38.5796Z" fill="#4F5B60"/>
<path d="M33.2681 37.1342C35.1849 38.1961 35.666 33.9753 35.4149 32.8213C35.4059 32.7872 35.3885 32.7559 35.3642 32.7303C35.34 32.7047 35.3096 32.6856 35.2761 32.6747C35.2425 32.6638 35.2067 32.6615 35.1721 32.6681C35.1374 32.6746 35.1049 32.6897 35.0776 32.7121C34.0694 33.519 33.8911 35.6391 34.7479 36.8735C34.7642 36.9053 34.7887 36.9322 34.8188 36.9514C34.8489 36.9706 34.8836 36.9815 34.9194 36.9829C34.9551 36.9842 34.9905 36.9761 35.022 36.9592C35.0536 36.9423 35.08 36.9174 35.0987 36.8869C35.651 35.7426 36.1187 34.5593 36.4979 33.3465C36.6685 32.8348 37.1094 32.9632 37.4563 32.599C38.1675 31.8802 38.8575 31.148 39.5514 30.433C40.4293 29.5283 40.7322 28.3245 41.5411 27.4236C42.5742 26.262 43.569 25.6985 44.0847 24.1056C44.2035 23.7414 44.2131 22.8942 43.5844 22.8463C42.3729 22.7524 41.311 25.3132 42.9269 25.0679C44.9031 24.7669 46.6743 22.4687 47.9547 21.2343C48.108 21.0886 47.8263 20.8087 47.6768 20.9544C47.0365 21.562 46.3829 22.1658 45.7024 22.7504C45.1632 23.2186 44.5989 23.6569 44.0118 24.0635C43.7128 24.2686 41.4529 25.2672 42.8886 23.59L43.6553 24.1842C43.5726 24.3962 43.4773 24.6029 43.3697 24.8034C43.1759 25.1743 42.9501 25.5277 42.695 25.8595C42.2215 26.5016 41.4721 26.8793 40.9354 27.4792C40.253 28.2459 39.9885 29.3328 39.2582 30.1301C38.9361 30.4828 37.1784 32.7293 36.5535 32.4648C36.5137 32.4495 36.4695 32.4496 36.4298 32.4652C36.39 32.4808 36.3576 32.5108 36.3388 32.5492C36.1472 33.1242 35.9402 33.7165 35.7408 34.303C35.668 34.5177 34.8322 36.1911 34.8572 36.2486C34.4911 35.3745 34.6157 34.2609 34.9223 33.4941C35.04 33.7094 35.1105 33.9472 35.129 34.1918C35.1475 34.4364 35.1137 34.6821 35.0297 34.9126C34.8898 35.9534 34.3607 36.5764 33.4445 36.77C33.203 36.653 33.0266 37.0019 33.2681 37.1342Z" fill="#4F5B60"/>
</g>
<defs>
<clipPath id="clip0">
<rect width="57" height="57" fill="white"/>
</clipPath>
</defs>
</svg>
