<svg width="53" height="53" viewBox="0 0 53 53" fill="none" xmlns="http://www.w3.org/2000/svg">
<g clip-path="url(#clip0)">
<path d="M29.5599 51.5211C28.4319 53.2487 25.8783 53.4974 23.8975 52.0985L1.51442 36.337C0.784571 35.8444 0.273194 35.089 0.087004 34.2284C-0.0991861 33.3678 0.0542004 32.4685 0.515175 31.7183L20.2025 1.63876C21.1751 0.159878 23.3468 -0.430788 25.0877 0.33308L50.4819 11.5157C52.7291 12.5061 53.6706 14.7222 52.5381 16.4498L29.5599 51.5211Z" fill="#FFBC1F"/>
<path d="M25.998 49.4826L2.92651 33.7123L23.2223 2.7135L48.9318 14.4513L25.998 49.4826Z" fill="white"/>
<path d="M40.605 12.2352C40.4084 12.4846 40.1314 12.6581 39.8213 12.7261C39.5111 12.7941 39.1869 12.7525 38.904 12.6083L29.1958 8.05169C29.0679 8.00682 28.9519 7.93329 28.8568 7.83669C28.7617 7.7401 28.69 7.62301 28.6471 7.49441C28.6043 7.36581 28.5914 7.22909 28.6095 7.09475C28.6277 6.96041 28.6763 6.832 28.7517 6.71936L30.275 4.39223C30.4533 4.15764 30.7063 3.991 30.9922 3.91992C31.2782 3.84884 31.5798 3.87759 31.8471 4.00141L41.6797 8.36257C41.8177 8.40515 41.9442 8.47831 42.0499 8.5766C42.1557 8.67489 42.2379 8.79578 42.2904 8.93026C42.3429 9.06473 42.3644 9.20932 42.3532 9.35325C42.3421 9.49718 42.2986 9.63673 42.226 9.76151L40.605 12.2352Z" fill="#818698"/>
<path d="M38.7487 9.22859L32.4956 6.39073L34.0367 4.03251C34.2204 3.79319 34.4799 3.62332 34.7728 3.55071C35.0657 3.4781 35.3745 3.50705 35.6488 3.63281L39.8101 5.4359C39.9444 5.47746 40.0677 5.54887 40.1705 5.64479C40.2734 5.74071 40.3532 5.85866 40.4041 5.9898C40.4549 6.12094 40.4754 6.26187 40.4641 6.40206C40.4527 6.54225 40.4098 6.67805 40.3386 6.79932L38.7487 9.22859Z" fill="#1E325C"/>
<path d="M39.2059 22.0101L26.2246 15.3529L26.9041 14.3092L39.9298 20.8998L39.2059 22.0101Z" fill="#F4BC49"/>
<path d="M22.1301 14.6689C22.1002 14.6884 22.0662 14.7009 22.0307 14.7053C21.9953 14.7097 21.9593 14.706 21.9255 14.6945C21.8917 14.6829 21.8609 14.6638 21.8356 14.6386C21.8103 14.6134 21.791 14.5828 21.7793 14.549L20.9799 12.1952C20.97 12.1598 20.9679 12.1227 20.9736 12.0864C20.9792 12.0501 20.9926 12.0154 21.0128 11.9847C21.033 11.954 21.0595 11.928 21.0906 11.9084C21.1217 11.8888 21.1566 11.876 21.193 11.871L21.495 11.8089C21.5739 11.7899 21.657 11.7995 21.7294 11.8362C21.8018 11.8728 21.8588 11.9339 21.8903 12.0087L22.3344 13.2389C22.3461 13.2727 22.3654 13.3033 22.3907 13.3285C22.4161 13.3537 22.4468 13.3728 22.4806 13.3843C22.5144 13.3959 22.5504 13.3996 22.5859 13.3952C22.6213 13.3908 22.6553 13.3783 22.6852 13.3588L25.0923 11.9998C25.1657 11.9648 25.2483 11.9541 25.3282 11.9693C25.4081 11.9844 25.481 12.0247 25.5364 12.0842L25.7318 12.3151C25.7571 12.343 25.7755 12.3764 25.7857 12.4125C25.796 12.4487 25.7977 12.4867 25.7909 12.5237C25.784 12.5607 25.7687 12.5955 25.7461 12.6256C25.7235 12.6557 25.6943 12.6801 25.6608 12.6971L22.1301 14.6689Z" fill="#F4BC49"/>
<path d="M34.9603 28.4941L22.2366 21.4416L22.9161 20.4024L35.6886 27.3882L34.9603 28.4941Z" fill="#818698"/>
<path d="M19.7984 21.6903L16.0413 19.5763L18.2085 16.2677L22.0101 18.3106L19.7984 21.6903Z" fill="#818698"/>
<path d="M30.7144 34.9825L18.2483 27.5348L18.9278 26.4911L31.4383 33.8722L30.7144 34.9825Z" fill="#818698"/>
<path d="M15.8415 27.7302L12.1643 25.5008L14.3316 22.1877L18.0576 24.3505L15.8415 27.7302Z" fill="#818698"/>
<path d="M26.4691 41.4665L14.2605 33.6279L14.94 32.5843L27.193 40.3562L26.4691 41.4665Z" fill="#818698"/>
<path d="M11.8888 33.7701L8.28711 31.4207L10.4544 28.1121L14.1005 30.3904L11.8888 33.7701Z" fill="#818698"/>
</g>
<defs>
<clipPath id="clip0">
<rect width="53" height="53" fill="white"/>
</clipPath>
</defs>
</svg>
