<svg width="25" height="25" viewBox="0 0 25 25" fill="none" xmlns="http://www.w3.org/2000/svg">
<path d="M22.455 2.545C20.6875 0.8475 18.6475 0 16.3325 0C14.0175 0 11.9775 0.8475 10.21 2.545C8.655 4.135 7.8075 5.9825 7.665 8.085C7.525 10.1875 8.1075 12.1225 9.415 13.89L8.09 15.215L9.7875 16.9125L11.1125 15.5875C12.88 16.86 14.805 17.435 16.89 17.31C18.975 17.1875 20.83 16.3475 22.455 14.7925C24.1525 13.0225 25 10.9825 25 8.6675C25 6.3525 24.1525 4.3125 22.455 2.545Z" fill="#B3B3B3"/>
<path d="M21.3152 3.6575C19.9902 2.315 18.3202 1.625 16.3052 1.59C14.3252 1.625 12.6652 2.315 11.3227 3.6575C9.98015 5 9.29015 6.6625 9.25515 8.64C9.29015 10.655 9.98015 12.325 11.3227 13.65C12.6652 14.975 14.3277 15.6725 16.3052 15.745C18.3202 15.675 19.9902 14.9775 21.3152 13.65C22.6402 12.325 23.3377 10.655 23.4102 8.64C23.3402 6.6625 22.6402 5.0025 21.3152 3.6575Z" fill="#F2F2F2"/>
<path d="M21.0774 12.8825C19.6299 14.26 17.9674 14.95 16.0949 14.95C14.2224 14.95 12.5624 14.26 11.1124 12.8825C10.3349 12.105 9.76987 11.2225 9.41487 10.2325C9.69737 11.54 10.3349 12.7075 11.3224 13.7325C12.7724 15.11 14.4424 15.8 16.3324 15.8C18.2224 15.8 19.8924 15.11 21.3424 13.7325C22.3324 12.7075 22.9674 11.5425 23.2499 10.2325C23.5349 8.925 23.4449 7.6325 22.9849 6.3625C23.2324 7.495 23.1974 8.6325 22.8799 9.7825C22.5624 10.93 21.9599 11.9625 21.0774 12.8825Z" fill="#999999"/>
<path d="M2.17751 24.89C2.62001 25.0125 2.94501 24.97 3.15751 24.7575L10.1025 17.2275C10.315 17.015 10.4025 16.7425 10.3675 16.405C10.3325 16.07 10.12 15.69 9.73251 15.265C9.30751 14.8775 8.93001 14.655 8.59251 14.6025C8.25751 14.55 7.98251 14.6475 7.77001 14.895L0.190013 21.84C-0.0224876 22.0525 -0.0574884 22.37 0.0850115 22.795C0.227511 23.22 0.492511 23.6425 0.880011 24.0675C1.30501 24.4925 1.73751 24.765 2.17751 24.89Z" fill="#FFBC1F"/>
<path d="M1.72742 20.41L4.53742 23.2725L7.98242 19.56L5.43992 17.0175L1.72742 20.41Z" fill="#954D0E"/>
</svg>
