<svg width="25" height="25" viewBox="0 0 25 25" fill="none" xmlns="http://www.w3.org/2000/svg">
<path d="M8.5474 17.9925L8.49491 18.045L8.28786 18.3016C8.08082 18.5408 7.7892 18.8324 7.41302 19.1765L6.84729 19.6897L3.96907 22.2092L0.580525 24.9329C0.408473 25.035 0.253918 25.0087 0.11686 24.8571C-0.0201981 24.7025 -0.0376949 24.5392 0.0643697 24.3701L1.09376 23.0841L4.69227 18.8178L5.82373 17.5318C6.16492 17.1906 6.44195 16.9136 6.64608 16.7094L7.00476 16.4003C7.24389 16.2283 7.50925 16.1524 7.80087 16.1699C8.09248 16.1874 8.3316 16.307 8.52115 16.5286C8.70778 16.7532 8.80402 16.9923 8.80402 17.2489C8.80402 17.5055 8.71945 17.7534 8.5474 17.9925Z" fill="#95A9B2"/>
<path d="M25.0003 9.17707C25.0003 9.46868 24.8983 9.71655 24.6912 9.9236L24.3325 10.2823C23.7493 10.8305 23.0815 11.1046 22.3262 11.1046C21.571 11.1046 20.9032 10.8305 20.3199 10.2823C20.25 10.2152 20.1829 10.2152 20.1129 10.2823L15.8495 14.4961C15.5754 14.8402 15.5579 15.1814 15.797 15.5255C16.3103 16.3128 16.5261 17.1527 16.4386 18.045C16.354 18.9374 15.9837 19.7247 15.3334 20.41L13.6887 22.0547C13.2075 22.5009 12.668 22.7225 12.0702 22.7225C11.4695 22.7225 10.93 22.498 10.4518 22.0547L2.89314 14.5486C2.44697 14.0703 2.22534 13.5279 2.22534 12.9301C2.22534 12.3323 2.44697 11.7899 2.89314 11.3117L4.59032 9.66698C5.27562 8.98169 6.06297 8.6055 6.95531 8.53552C7.84473 8.46845 8.68457 8.69007 9.47485 9.20331C9.81603 9.41036 10.1426 9.37536 10.4518 9.10125L14.7181 4.88452C14.753 4.81745 14.753 4.74746 14.7181 4.67748C14.1698 4.09425 13.8957 3.42646 13.8957 2.67118C13.8957 1.91881 14.1698 1.2481 14.7181 0.664878L15.0272 0.306194C15.2663 0.102065 15.5317 0 15.8233 0C16.1149 0 16.3628 0.102065 16.5698 0.30911L24.6912 8.43054C24.8983 8.63758 25.0003 8.88545 25.0003 9.17707Z" fill="#FFBC1F"/>
<path d="M12.8168 11.2592C12.6447 11.4312 12.4406 11.5158 12.1986 11.5158C11.9594 11.5158 11.7524 11.4312 11.5803 11.2592C11.4083 11.0871 11.3237 10.8917 11.3237 10.6672C11.3237 10.4456 11.4083 10.2298 11.5803 10.0256L14.9747 6.68374C15.1468 6.51169 15.3422 6.42712 15.5667 6.42712C15.7883 6.42712 15.9866 6.51169 16.1587 6.68374C16.3307 6.8558 16.4153 7.05118 16.4153 7.27572C16.4153 7.50026 16.3307 7.69564 16.1587 7.86769L12.8168 11.2592Z" fill="#FFD791"/>
</svg>
