<svg width="26" height="23" viewBox="0 0 26 23" fill="none" xmlns="http://www.w3.org/2000/svg">
<path d="M9.90176 13.7636V22.13L5.84143 22.0804C4.71869 21.9812 3.79435 21.5529 3.06841 20.7931C2.34246 20.0333 1.97949 19.0842 1.97949 17.9457C1.97949 16.8072 2.34246 15.849 3.06841 15.0735C3.79435 14.2979 4.71869 13.8605 5.84143 13.7614H9.90176V13.7636Z" fill="#1788C1"/>
<path d="M5.49418 7.27747V13.7636H2.67382C1.91406 13.6644 1.27829 13.3172 0.76878 12.7243C0.254757 12.1291 0 11.3942 0 10.5194C0 9.64468 0.254757 8.90295 0.766525 8.29198C1.27829 7.68102 1.9118 7.34285 2.67157 7.27747H5.49418Z" fill="#142129"/>
<path d="M10.7426 0V7.27748L7.07906 7.22788C6.18854 7.1625 5.46259 6.79051 4.90123 6.11417C4.33986 5.43782 4.0603 4.60366 4.0603 3.61394C4.0603 2.62422 4.33986 1.79006 4.90123 1.11372C5.46259 0.43737 6.18854 0.0653801 7.07906 0H10.7426V0Z" fill="#CC8F00"/>
<path d="M23.0206 6.08937H23.8615C24.0915 6.12319 24.2245 6.25395 24.2583 6.48616V6.88295C24.2245 7.11516 24.0937 7.24592 23.8615 7.27974H11.1395C10.9073 7.24817 10.7765 7.11516 10.7427 6.88295V0.39679C10.7765 0.133015 10.9073 0 11.1395 0H23.8615C24.0915 0 24.2245 0.133015 24.2583 0.39679V0.743981C24.2245 0.976193 24.0937 1.10695 23.8615 1.14077H23.0206C22.7884 1.17459 22.6576 1.30535 22.6238 1.53756V5.69709C22.6576 5.92479 22.7884 6.05781 23.0206 6.08937Z" fill="#FFBC1F"/>
<path d="M20.049 8.86238V12.0795C20.0806 12.3433 20.2632 12.4921 20.5946 12.5259H23.1196C23.4172 12.5259 23.5818 12.6589 23.6156 12.9227V13.3195C23.5818 13.5833 23.4172 13.7321 23.1196 13.7659H5.39711C4.63735 13.6667 4.0106 13.3195 3.51687 12.7266C3.02089 12.1336 2.77515 11.3987 2.77515 10.5239C2.77515 9.64919 3.02314 8.90747 3.51687 8.2965C4.01286 7.68554 4.63735 7.34736 5.39711 7.28198H23.1196C23.4172 7.28198 23.5818 7.415 23.6156 7.67877V8.07556C23.5818 8.30777 23.4172 8.43853 23.1196 8.47235H20.5946C20.2655 8.49941 20.0828 8.63017 20.049 8.86238Z" fill="#455157"/>
<path d="M22.2291 12.526H5.64284V12.4764C5.14685 12.4764 4.7433 12.278 4.42993 11.8812C4.11655 11.4844 3.95874 10.9997 3.95874 10.4203C3.95874 9.84316 4.1143 9.36521 4.42993 8.9842C4.7433 8.60545 5.14685 8.41382 5.64284 8.41382C5.80742 8.41382 5.95622 8.43185 6.08923 8.46342H22.4275C22.4591 8.49723 22.4591 8.54683 22.4275 8.61221L22.2787 8.71141C22.2449 8.77904 22.2449 8.82639 22.2787 8.86021L22.4275 9.009C22.4591 9.07664 22.4591 9.12398 22.4275 9.1578L22.2787 9.30659C22.2449 9.37423 22.2449 9.42157 22.2787 9.45539L22.4275 9.60419C22.4591 9.638 22.4591 9.6876 22.4275 9.75298L22.2787 9.90178C22.2449 9.93559 22.2449 9.98519 22.2787 10.0506L22.4275 10.1994C22.4591 10.2332 22.4591 10.2828 22.4275 10.3482L22.2787 10.4474C22.2449 10.5127 22.2449 10.5804 22.2787 10.6458L22.4275 10.745C22.4591 10.8126 22.4591 10.878 22.4275 10.9434L22.2787 11.0425C22.2449 11.1079 22.2449 11.1756 22.2787 11.2409L22.4275 11.3401C22.4591 11.4078 22.4591 11.4732 22.4275 11.5385L22.2787 11.6377C22.2449 11.7054 22.2449 11.7707 22.2787 11.8361L22.4275 11.9353C22.4591 12.003 22.4591 12.0683 22.4275 12.1337L22.2787 12.2329C22.2449 12.3005 22.2449 12.3659 22.2787 12.4313L22.4275 12.5305H22.2291V12.526Z" fill="#DBE0E0"/>
<path d="M12.5757 0V7.27748H10.745C9.72151 7.24592 8.8648 6.88069 8.17042 6.18857C7.4783 5.49644 7.1311 4.63748 7.1311 3.61394C7.1311 2.59041 7.4783 1.7337 8.17042 1.03932C8.86255 0.347191 9.71926 0 10.7428 0H12.5757Z" fill="#FFBC1F"/>
<path d="M23.5165 2.07862C23.4489 2.14626 23.4489 2.21164 23.5165 2.27702L23.6157 2.37621C23.6811 2.44159 23.6811 2.50923 23.6157 2.57461L23.5165 2.67381C23.4489 2.74144 23.4489 2.80682 23.5165 2.8722L23.6157 2.9714C23.6811 3.03903 23.6811 3.10441 23.6157 3.16979L23.5165 3.26899C23.4489 3.33662 23.4489 3.38397 23.5165 3.41779L23.6157 3.56658C23.6811 3.63422 23.6811 3.68156 23.6157 3.71538L23.5165 3.86417C23.4489 3.93181 23.4489 3.97915 23.5165 4.01297L23.6157 4.16177C23.6811 4.19558 23.6811 4.24518 23.6157 4.31056L23.5165 4.45936C23.4489 4.49318 23.4489 4.54277 23.5165 4.60815L23.6157 4.75695C23.6811 4.79077 23.6811 4.84037 23.6157 4.90575L23.5165 5.00494C23.4489 5.07258 23.4489 5.13796 23.5165 5.20334L23.6157 5.30254C23.6811 5.37017 23.6811 5.43555 23.6157 5.50093L23.5165 5.60013C23.4489 5.66551 23.4489 5.73314 23.5165 5.79852L23.6157 5.89772C23.6811 5.96536 23.6811 6.03074 23.6157 6.09612H10.941C10.2151 6.09612 9.61987 5.85714 9.1577 5.37919C8.69553 4.90124 8.46558 4.31507 8.46558 3.62069C8.46558 2.92856 8.69553 2.35141 9.1577 1.88699C9.61987 1.42482 10.2128 1.17683 10.941 1.14526H23.6157C23.6811 1.21064 23.6811 1.29406 23.6157 1.39326L23.5165 1.49245C23.4489 1.56009 23.4489 1.62547 23.5165 1.69085L23.6157 1.79005C23.6811 1.85768 23.6811 1.92306 23.6157 1.98844L23.5165 2.07862Z" fill="#DBE0E0"/>
<path d="M23.1693 15.5446V20.2971C23.2008 20.5946 23.3496 20.7592 23.6157 20.793H24.5558C24.8534 20.793 25.0022 20.9418 25.0022 21.2394V21.6362C25.0022 21.9338 24.8534 22.0984 24.5558 22.1322L9.30868 22.0826L8.96149 22.1322C7.77338 22.0984 6.79042 21.6858 6.01488 20.8945C5.23933 20.1032 4.85156 19.1112 4.85156 17.9231C4.85156 16.735 5.23933 15.7543 6.01488 14.9765C6.79042 14.2009 7.77338 13.7974 8.96149 13.7635H9.30868H24.5558C24.8534 13.7974 25.0022 13.9462 25.0022 14.2099V14.6541C25.0022 14.9178 24.8534 15.0666 24.5558 15.1005H23.6157C23.3496 15.132 23.2008 15.2808 23.1693 15.5446Z" fill="#32A4EC"/>
<path d="M24.2085 16.1895C24.1408 16.2571 24.1408 16.3225 24.2085 16.3879L24.3573 16.5367C24.3888 16.6043 24.3888 16.6697 24.3573 16.735L24.2085 16.8342C24.1408 16.9019 24.1408 16.9673 24.2085 17.0326L24.3573 17.1814C24.3888 17.2491 24.3888 17.3144 24.3573 17.3798L24.2085 17.479C24.1408 17.5467 24.1408 17.612 24.2085 17.6774L24.3573 17.8262C24.3888 17.8939 24.3888 17.9592 24.3573 18.0246L24.2085 18.1238C24.1408 18.1914 24.1408 18.2568 24.2085 18.3222L24.3573 18.471C24.3888 18.5386 24.3888 18.604 24.3573 18.6694L24.2085 18.7686C24.1408 18.8362 24.1408 18.9016 24.2085 18.967L24.3573 19.1158C24.3888 19.1834 24.3888 19.2488 24.3573 19.3142L24.2085 19.4134C24.1408 19.481 24.1408 19.5464 24.2085 19.6118L24.3573 19.7606C24.3888 19.8282 24.3888 19.8936 24.3573 19.959L24.2085 20.0582C24.1408 20.1258 24.1408 20.207 24.2085 20.3062L24.3573 20.4054C24.3888 20.4707 24.3888 20.5361 24.3573 20.6037L24.1589 20.8021H9.15752C8.3662 20.7683 7.69661 20.4888 7.15328 19.9612C6.6077 19.4337 6.33716 18.7663 6.33716 17.957C6.33716 17.1476 6.60995 16.4713 7.15328 15.9279C7.69887 15.3824 8.3662 15.1118 9.15752 15.1118H24.2085L24.3573 15.211C24.3888 15.2786 24.3888 15.344 24.3573 15.4094L24.2085 15.5582C24.1408 15.6258 24.1408 15.6912 24.2085 15.7566L24.3573 15.8558C24.3888 15.9234 24.3888 15.9888 24.3573 16.0542L24.2085 16.1895Z" fill="#DBE0E0"/>
</svg>
