<svg width="27" height="30" viewBox="0 0 27 30" fill="none" xmlns="http://www.w3.org/2000/svg">
<path d="M7.97454 15.6437L7.05701 15.9016C7.05701 15.9016 4.36149 15.0845 2.52871 17.1752L1.15698 15.961C1.15698 15.961 4.17433 8.84898 9.65439 8.8079C9.98763 8.80561 10.5651 8.91289 10.8367 8.96767C10.9303 8.98593 10.9873 8.99962 10.9873 8.99962C9.55625 11.1017 8.63188 13.3727 8.03845 15.4269C8.01791 15.4999 7.99508 15.573 7.97682 15.6483L7.97454 15.6437Z" fill="#EC1C24"/>
<path d="M13.8653 27.1127L12.4822 25.9099C14.315 23.8215 13.1555 21.2538 13.1555 21.2538V21.2469L13.2924 20.3111C13.3632 20.2814 13.4317 20.2518 13.5024 20.2198C15.4607 19.3639 17.5948 18.152 19.4915 16.4607C19.4915 16.4607 19.5097 16.5155 19.5417 16.6045C19.6307 16.867 19.811 17.4262 19.8521 17.7571C20.5231 23.1938 13.863 27.1104 13.863 27.1104L13.8653 27.1127Z" fill="#EC1C24"/>
<g style="mix-blend-mode:multiply">
<path d="M7.97515 15.6437L7.05762 15.9016C7.81994 13.61 9.00223 11.1336 10.8373 8.96533C10.9309 8.98359 10.9879 8.99729 10.9879 8.99729C9.55686 11.0994 8.63248 13.3704 8.03905 15.4246C8.01851 15.4976 7.99569 15.5706 7.97743 15.6459L7.97515 15.6437Z" fill="#D1D3D4"/>
<path d="M19.5442 16.6045C17.6384 18.6997 15.3286 20.1947 13.1603 21.2469L13.2949 20.3111C13.3588 20.2837 13.4387 20.2472 13.5049 20.2198C15.4632 19.3639 17.5973 18.152 19.494 16.4607C19.494 16.4607 19.5122 16.5155 19.5442 16.6045Z" fill="#D1D3D4"/>
</g>
<path d="M21.0394 14.9064C20.5487 15.4656 20.0306 15.9837 19.4919 16.4607C17.5953 18.1543 15.4612 19.364 13.5029 20.2199C13.439 20.2495 13.3728 20.2769 13.3089 20.3043C13.0396 20.4207 12.7748 20.528 12.5123 20.6307L7.75806 16.4585C7.82425 16.1914 7.895 15.9198 7.9726 15.6436C7.99314 15.5706 8.01369 15.4976 8.03423 15.4245C8.62994 13.3704 9.55203 11.0994 10.9831 8.99726C11.3871 8.40155 11.8344 7.82182 12.3252 7.26263C14.8472 4.38907 18.1042 2.61336 20.85 1.53834C23.9586 0.32182 26.4099 0 26.4099 0C26.4099 0 26.4099 2.47185 25.6088 5.70831C24.899 8.57045 23.5615 12.0306 21.0394 14.9041V14.9064Z" fill="url(#paint0_linear_2302_5266)"/>
<path d="M25.608 5.70831L20.8538 1.53606C23.9578 0.32182 26.4091 0 26.4091 0C26.4091 0 26.4091 2.47185 25.608 5.70831Z" fill="#EC1C24"/>
<path d="M12.1173 21.0826H12.115L7.36534 16.915C7.36534 16.915 7.36534 16.9127 7.36534 16.915C7.36534 16.915 7.36534 16.915 7.36306 16.915C1.97657 19.0627 0 24.7687 0 24.7687C0 24.7687 1.34434 24.1456 2.51978 24.0475C1.20055 26.9576 0.0844492 30 0.0844492 30C0.0844492 30 2.958 28.4936 5.66951 26.8069C5.72429 27.9869 5.2815 29.4043 5.2815 29.4043C5.2815 29.4043 10.6862 26.7019 12.1173 21.0826Z" fill="#C43133"/>
<path d="M11.0807 20.9822L7.60004 17.9261C3.65375 19.5009 1.86206 23.3833 1.86206 23.3833C1.86206 23.3833 3.19271 23.2281 4.05317 23.1574C3.08543 25.2891 2.26833 27.5191 2.26833 27.5191C2.26833 27.5191 4.37499 26.4144 6.36069 25.1796C6.40178 26.0446 6.42232 27.3844 6.42232 27.3844C6.42232 27.3844 10.0399 25.102 11.0876 20.9822H11.0807Z" fill="#E08F00"/>
<path d="M10.0453 20.9204L7.79483 18.9438C5.24309 19.9617 4.07678 22.4655 4.07678 22.4655C4.07678 22.4655 4.77063 22.2213 5.32754 22.1734C4.70216 23.552 4.34611 25.1451 4.34611 25.1451C4.34611 25.1451 5.87989 24.5813 7.16488 23.7825C7.19227 24.3417 7.03935 25.0629 7.03935 25.0629C7.03935 25.0629 9.37197 23.5816 10.0498 20.9181L10.0453 20.9204Z" fill="#FFBC1F"/>
<path d="M7.75927 16.4579L7.36182 16.9108L12.1154 21.0825L12.5129 20.6296L7.75927 16.4579Z" fill="url(#paint1_linear_2302_5266)"/>
<path d="M13.5029 20.2197C13.1674 20.3658 12.8364 20.5027 12.5123 20.6306L7.75806 16.4583C7.84251 16.1205 7.9338 15.7759 8.03651 15.4244L13.5029 20.222V20.2197Z" fill="url(#paint2_linear_2302_5266)"/>
<path d="M19.517 10.5837C21.0246 10.5837 22.2468 9.36151 22.2468 7.85391C22.2468 6.3463 21.0246 5.12415 19.517 5.12415C18.0094 5.12415 16.7872 6.3463 16.7872 7.85391C16.7872 9.36151 18.0094 10.5837 19.517 10.5837Z" fill="#EC1C24"/>
<path d="M21.2354 9.36267C20.7151 9.9561 19.955 10.214 19.2269 10.1227C18.9142 10.0839 18.6084 9.97892 18.3277 9.81003C18.2158 9.74155 18.1085 9.66395 18.0058 9.57494C17.0563 8.74186 16.9628 7.29709 17.7959 6.34761C18.3391 5.72908 19.1402 5.47345 19.8957 5.60126C20.2061 5.65376 20.5074 5.77016 20.7812 5.95047C20.8657 6.00525 20.9456 6.06916 21.0232 6.13763C21.9727 6.97071 22.0662 8.41547 21.2332 9.36496L21.2354 9.36267Z" fill="#32A4EC"/>
<path opacity="0.5" d="M19.2293 10.1223C18.9167 10.0835 18.6108 9.9785 18.3301 9.8096L19.8981 5.60083C20.2085 5.65333 20.5098 5.76973 20.7837 5.95004L19.2293 10.1246V10.1223Z" fill="white"/>
<path d="M14.9718 12.4965L7.23804 21.309L7.76984 21.7757L15.5036 12.9632L14.9718 12.4965Z" fill="#EC1C24"/>
<g style="mix-blend-mode:multiply">
<path d="M15.5067 12.9616L13.5028 20.2197L12.5145 20.6305L12.1151 21.0824L10.0061 19.2291L15.5067 12.9616Z" fill="#E6E7E8"/>
</g>
<defs>
<linearGradient id="paint0_linear_2302_5266" x1="13.9144" y1="5.44854" x2="22.6256" y2="13.0935" gradientUnits="userSpaceOnUse">
<stop offset="0.5" stop-color="#D1D3D4"/>
</linearGradient>
<linearGradient id="paint1_linear_2302_5266" x1="7.56054" y1="16.6843" x2="12.3141" y2="20.8561" gradientUnits="userSpaceOnUse">
<stop offset="0.5" stop-color="#808285"/>
</linearGradient>
<linearGradient id="paint2_linear_2302_5266" x1="7.71444" y1="15.783" x2="13.1817" y2="20.581" gradientUnits="userSpaceOnUse">
<stop offset="0.5" stop-color="#A7A9AC"/>
</linearGradient>
</defs>
</svg>
