<svg width="23" height="25" viewBox="0 0 23 25" fill="none" xmlns="http://www.w3.org/2000/svg">
<path d="M0 10.8339V22.8833C0 23.7933 0.736431 24.5328 1.6435 24.5328H21.3565C22.2636 24.5328 23 23.7933 23 22.8803V10.8339H0Z" fill="#FFBC1F"/>
<path d="M23 9.18144C23 8.27138 22.2636 7.53195 21.3565 7.53195H1.6435C0.736431 7.53195 0 8.27138 0 9.18144V10.8309H23V9.18144Z" fill="#CC8F00"/>
<path d="M3.97327 8.05891C5.22759 8.05891 6.24243 8.48699 6.24243 9.01686C6.24243 9.54672 5.22759 9.9778 3.97327 9.9778C2.71894 9.9778 1.7041 9.54971 1.7041 9.01686C1.7041 8.48998 2.72193 8.05891 3.97327 8.05891Z" fill="#1B1D22"/>
<path d="M19.025 8.05891C20.2794 8.05891 21.2942 8.48699 21.2942 9.01686C21.2942 9.54672 20.2794 9.9778 19.025 9.9778C17.7707 9.9778 16.7559 9.54971 16.7559 9.01686C16.7559 8.48998 17.7737 8.05891 19.025 8.05891Z" fill="#1B1D22"/>
<path d="M11.4988 0C6.55035 0 2.52393 4.04438 2.52393 9.01978C2.52393 9.31915 3.12864 9.56462 3.97583 9.56462V9.01978C4.26322 4.81374 7.52627 1.48484 11.4988 1.48484C15.4713 1.48484 18.7344 4.81375 19.0248 9.01679V9.56163C19.869 9.56163 20.4767 9.31915 20.4767 9.01679C20.4767 4.04438 16.4503 0 11.4988 0Z" fill="#E0E9EF"/>
<path d="M19.0246 9.01965C18.7372 4.81361 15.4742 1.48471 11.4986 1.48471C7.52609 1.48471 4.26304 4.81361 3.97266 9.01666V9.5615C4.81686 9.5615 5.57424 9.31902 5.57424 9.01666C5.57424 6.29546 7.84042 3.06534 11.4986 3.06534C15.1568 3.06534 17.423 6.29546 17.423 9.01666C17.423 9.31602 18.1804 9.5615 19.0246 9.5615V9.01965Z" fill="#AFBDC6"/>
<path d="M13.2664 21.62L12.5329 16.92C12.967 16.5997 13.2484 16.0848 13.2484 15.504C13.2484 14.5341 12.4641 13.7468 11.5001 13.7468C10.5362 13.7468 9.75185 14.5341 9.75185 15.504C9.75185 16.0848 10.0332 16.5997 10.4673 16.92L9.73389 21.62H13.2664Z" fill="#1B1D22"/>
</svg>
