<svg width="22" height="24" viewBox="0 0 22 24" fill="none" xmlns="http://www.w3.org/2000/svg">
<path d="M0 10.3629V21.8883C0 22.7588 0.704412 23.4661 1.57204 23.4661H20.428C21.2956 23.4661 22 22.7588 22 21.8854V10.3629H0Z" fill="#FFBC1F"/>
<path d="M22 8.78224C22 7.91174 21.2956 7.20447 20.428 7.20447H1.57204C0.704412 7.20447 0 7.91174 0 8.78224V10.36H22V8.78224Z" fill="#CC8F00"/>
<path d="M3.7999 7.70844C4.99969 7.70844 5.97041 8.11791 5.97041 8.62474C5.97041 9.13158 4.99969 9.54392 3.7999 9.54392C2.60011 9.54392 1.62939 9.13444 1.62939 8.62474C1.62939 8.12077 2.60297 7.70844 3.7999 7.70844Z" fill="#1B1D22"/>
<path d="M18.1974 7.70844C19.3972 7.70844 20.3679 8.11791 20.3679 8.62474C20.3679 9.13158 19.3972 9.54392 18.1974 9.54392C16.9976 9.54392 16.0269 9.13444 16.0269 8.62474C16.0269 8.12077 17.0004 7.70844 18.1974 7.70844Z" fill="#1B1D22"/>
<path d="M10.9986 0C6.2653 0 2.41394 3.86854 2.41394 8.62762C2.41394 8.91397 2.99236 9.14877 3.80272 9.14877V8.62762C4.07761 4.60445 7.19879 1.42028 10.9986 1.42028C14.7984 1.42028 17.9196 4.60445 18.1974 8.62476V9.14591C19.0049 9.14591 19.5861 8.91397 19.5861 8.62476C19.5861 3.86854 15.7348 0 10.9986 0Z" fill="#E0E9EF"/>
<path d="M18.1973 8.62763C17.9224 4.60446 14.8012 1.42029 10.9986 1.42029C7.19874 1.42029 4.07756 4.60446 3.7998 8.62477V9.14592C4.6073 9.14592 5.33176 8.91398 5.33176 8.62477C5.33176 6.02188 7.4994 2.9322 10.9986 2.9322C14.4977 2.9322 16.6653 6.02188 16.6653 8.62477C16.6653 8.91111 17.3898 9.14592 18.1973 9.14592V8.62763Z" fill="#AFBDC6"/>
<path d="M12.6909 20.68L11.9894 16.1843C12.4046 15.8779 12.6737 15.3854 12.6737 14.8299C12.6737 13.9021 11.9235 13.149 11.0015 13.149C10.0794 13.149 9.32919 13.9021 9.32919 14.8299C9.32919 15.3854 9.59836 15.8779 10.0136 16.1843L9.31201 20.68H12.6909Z" fill="#1B1D22"/>
</svg>
