<svg width="41" height="40" viewBox="0 0 41 40" fill="none" xmlns="http://www.w3.org/2000/svg">
<path d="M37.6427 0H3.35733C1.54621 0 0.0780029 1.4682 0.0780029 3.27932V8.70661C0.0780029 10.5177 1.54621 11.9859 3.35733 11.9859H37.6427C39.4538 11.9859 40.922 10.5177 40.922 8.70661V3.27932C40.922 1.4682 39.4538 0 37.6427 0Z" fill="#FFBC1F"/>
<path d="M40.922 8.8501C40.9198 9.67676 40.5905 10.469 40.0059 11.0535C39.4214 11.638 38.6292 11.9674 37.8025 11.9695H3.19745C2.37079 11.9674 1.5786 11.638 0.994058 11.0535C0.409515 10.469 0.080167 9.67676 0.0780029 8.8501C0.0780029 8.8501 1.30776 10.416 3.87793 10.4119C6.4481 10.4078 35.4865 10.4119 37.0811 10.4119C38.5147 10.4053 39.8906 9.84587 40.922 8.8501Z" fill="#CC8F00"/>
<path d="M6.75963 7.99753C8.08175 7.99753 9.15354 6.92574 9.15354 5.60362C9.15354 4.28151 8.08175 3.20972 6.75963 3.20972C5.43751 3.20972 4.36572 4.28151 4.36572 5.60362C4.36572 6.92574 5.43751 7.99753 6.75963 7.99753Z" fill="#1E325C"/>
<path d="M26.8209 6.88246C27.5273 6.88246 28.0999 6.30986 28.0999 5.60352C28.0999 4.89718 27.5273 4.32458 26.8209 4.32458C26.1146 4.32458 25.542 4.89718 25.542 5.60352C25.542 6.30986 26.1146 6.88246 26.8209 6.88246Z" fill="white"/>
<path d="M31.1086 6.88246C31.815 6.88246 32.3876 6.30986 32.3876 5.60352C32.3876 4.89718 31.815 4.32458 31.1086 4.32458C30.4023 4.32458 29.8297 4.89718 29.8297 5.60352C29.8297 6.30986 30.4023 6.88246 31.1086 6.88246Z" fill="white"/>
<path d="M35.4005 6.88246C36.1069 6.88246 36.6795 6.30986 36.6795 5.60352C36.6795 4.89718 36.1069 4.32458 35.4005 4.32458C34.6942 4.32458 34.1216 4.89718 34.1216 5.60352C34.1216 6.30986 34.6942 6.88246 35.4005 6.88246Z" fill="white"/>
<path d="M37.6427 13.6625H3.35733C1.54621 13.6625 0.0780029 15.1307 0.0780029 16.9418V22.3691C0.0780029 24.1802 1.54621 25.6484 3.35733 25.6484H37.6427C39.4538 25.6484 40.922 24.1802 40.922 22.3691V16.9418C40.922 15.1307 39.4538 13.6625 37.6427 13.6625Z" fill="#FFBC1F"/>
<path d="M40.922 22.5289C40.9198 23.3556 40.5905 24.1478 40.0059 24.7323C39.4214 25.3169 38.6292 25.6462 37.8025 25.6484H3.19745C2.37079 25.6462 1.5786 25.3169 0.994058 24.7323C0.409515 24.1478 0.080167 23.3556 0.0780029 22.5289C0.0780029 22.5289 1.30776 24.0948 3.87793 24.0907H37.0811C38.5147 24.0841 39.8906 23.5247 40.922 22.5289Z" fill="#CC8F00"/>
<path d="M6.75963 21.6599C8.08175 21.6599 9.15354 20.5881 9.15354 19.266C9.15354 17.9439 8.08175 16.8721 6.75963 16.8721C5.43751 16.8721 4.36572 17.9439 4.36572 19.266C4.36572 20.5881 5.43751 21.6599 6.75963 21.6599Z" fill="#1E325C"/>
<path d="M26.8209 20.5451C27.5273 20.5451 28.0999 19.9725 28.0999 19.2661C28.0999 18.5598 27.5273 17.9872 26.8209 17.9872C26.1146 17.9872 25.542 18.5598 25.542 19.2661C25.542 19.9725 26.1146 20.5451 26.8209 20.5451Z" fill="white"/>
<path d="M31.1086 20.5451C31.815 20.5451 32.3876 19.9725 32.3876 19.2661C32.3876 18.5598 31.815 17.9872 31.1086 17.9872C30.4023 17.9872 29.8297 18.5598 29.8297 19.2661C29.8297 19.9725 30.4023 20.5451 31.1086 20.5451Z" fill="white"/>
<path d="M35.4005 20.5451C36.1069 20.5451 36.6795 19.9725 36.6795 19.2661C36.6795 18.5598 36.1069 17.9872 35.4005 17.9872C34.6942 17.9872 34.1216 18.5598 34.1216 19.2661C34.1216 19.9725 34.6942 20.5451 35.4005 20.5451Z" fill="white"/>
<path d="M37.6427 27.325H3.35733C1.54621 27.325 0.0780029 28.7932 0.0780029 30.6043V36.0316C0.0780029 37.8427 1.54621 39.3109 3.35733 39.3109H37.6427C39.4538 39.3109 40.922 37.8427 40.922 36.0316V30.6043C40.922 28.7932 39.4538 27.325 37.6427 27.325Z" fill="#FFBC1F"/>
<path d="M40.922 36.1914C40.9198 37.0181 40.5905 37.8103 40.0059 38.3948C39.4214 38.9793 38.6292 39.3087 37.8025 39.3109H3.19745C2.37079 39.3087 1.5786 38.9793 0.994058 38.3948C0.409515 37.8103 0.080167 37.0181 0.0780029 36.1914C0.0780029 36.1914 1.30776 37.7573 3.87793 37.7532H37.0811C38.5147 37.7466 39.8906 37.1872 40.922 36.1914Z" fill="#CC8F00"/>
<path d="M6.75963 35.3225C8.08175 35.3225 9.15354 34.2507 9.15354 32.9286C9.15354 31.6065 8.08175 30.5347 6.75963 30.5347C5.43751 30.5347 4.36572 31.6065 4.36572 32.9286C4.36572 34.2507 5.43751 35.3225 6.75963 35.3225Z" fill="#1E325C"/>
<path d="M26.8209 34.2074C27.5273 34.2074 28.0999 33.6348 28.0999 32.9285C28.0999 32.2221 27.5273 31.6495 26.8209 31.6495C26.1146 31.6495 25.542 32.2221 25.542 32.9285C25.542 33.6348 26.1146 34.2074 26.8209 34.2074Z" fill="white"/>
<path d="M31.1086 34.2074C31.815 34.2074 32.3876 33.6348 32.3876 32.9285C32.3876 32.2221 31.815 31.6495 31.1086 31.6495C30.4023 31.6495 29.8297 32.2221 29.8297 32.9285C29.8297 33.6348 30.4023 34.2074 31.1086 34.2074Z" fill="white"/>
<path d="M35.4005 34.2074C36.1069 34.2074 36.6795 33.6348 36.6795 32.9285C36.6795 32.2221 36.1069 31.6495 35.4005 31.6495C34.6942 31.6495 34.1216 32.2221 34.1216 32.9285C34.1216 33.6348 34.6942 34.2074 35.4005 34.2074Z" fill="white"/>
<path d="M34.4125 11.986H6.59155V13.6625H34.4125V11.986Z" fill="#66320A"/>
<path d="M34.4125 25.6484H6.59155V27.325H34.4125V25.6484Z" fill="#66320A"/>
</svg>
