<svg width="44" height="44" viewBox="0 0 44 44" fill="none" xmlns="http://www.w3.org/2000/svg">
<path d="M39.5209 4.47906C36.4102 1.49155 32.82 0 28.7457 0C24.6714 0 21.0811 1.49155 17.9704 4.47906C15.2337 7.27737 13.7422 10.5289 13.4914 14.2291C13.245 17.9294 14.2702 21.3349 16.5713 24.4456L14.2394 26.7775L17.2269 29.765L19.5588 27.4331C22.6695 29.6726 26.0574 30.6846 29.7269 30.4646C33.3963 30.249 36.661 28.7707 39.5209 26.034C42.5084 22.9189 44 19.3286 44 15.2543C44 11.18 42.5084 7.58976 39.5209 4.47906Z" fill="#B3B3B3"/>
<path d="M37.5148 6.43699C35.1828 4.07427 32.2437 2.85991 28.6974 2.79831C25.2128 2.85991 22.2912 4.07427 19.9285 6.43699C17.5658 8.79972 16.3514 11.7256 16.2898 15.2059C16.3514 18.7522 17.5658 21.6913 19.9285 24.0232C22.2912 26.3551 25.2172 27.5827 28.6974 27.7103C32.2437 27.5871 35.1828 26.3595 37.5148 24.0232C39.8467 21.6913 41.0742 18.7522 41.2018 15.2059C41.0786 11.7256 39.8467 8.80412 37.5148 6.43699Z" fill="#F2F2F2"/>
<path d="M37.0966 22.6725C34.5491 25.0968 31.6232 26.3112 28.3277 26.3112C25.0322 26.3112 22.1107 25.0968 19.5588 22.6725C18.1904 21.3041 17.196 19.751 16.5713 18.0086C17.0685 20.3098 18.1904 22.3645 19.9284 24.1684C22.4803 26.5928 25.4194 27.8071 28.7457 27.8071C32.072 27.8071 35.0111 26.5928 37.563 24.1684C39.3053 22.3645 40.4229 20.3142 40.9201 18.0086C41.4217 15.7075 41.2633 13.4328 40.4537 11.1976C40.8893 13.1908 40.8277 15.1927 40.2689 17.2167C39.7101 19.2362 38.6498 21.0533 37.0966 22.6725Z" fill="#999999"/>
<path d="M3.83368 43.805C4.61246 44.0206 5.18444 43.9458 5.55843 43.5718L17.7812 30.3194C18.1552 29.9454 18.3092 29.4659 18.2476 28.8719C18.186 28.2823 17.812 27.6135 17.1301 26.8655C16.3821 26.1836 15.7177 25.792 15.1237 25.6996C14.5341 25.6072 14.0502 25.7788 13.6762 26.2144L0.3358 38.4372C-0.038187 38.8112 -0.0997887 39.3699 0.151003 40.1179C0.401794 40.8659 0.868179 41.6095 1.55016 42.3574C2.29813 43.1054 3.05931 43.585 3.83368 43.805Z" fill="#FFBC1F"/>
<path d="M3.04179 35.9204L7.98723 40.9583L14.0502 34.4245L9.57558 29.9498L3.04179 35.9204Z" fill="#954D0E"/>
</svg>
