<svg width="46" height="47" viewBox="0 0 46 47" fill="none" xmlns="http://www.w3.org/2000/svg">
<path d="M12.8113 35.2862C10.3077 34.4671 7.74976 35.5265 7.10755 37.6342C6.45445 39.7529 7.96746 42.1228 10.471 42.9419C12.9745 43.761 15.5325 42.7017 16.1747 40.5939C16.8169 38.4861 15.3148 36.1053 12.8113 35.2862Z" fill="#1E325C"/>
<path d="M3.58105 42.1775C2.73202 42.8437 2.63406 44.1979 3.37424 45.2027C4.11441 46.1965 5.39884 46.4695 6.24787 45.7924C7.09689 45.1262 7.19485 43.772 6.45467 42.7673C5.72538 41.7735 4.43007 41.5113 3.58105 42.1775Z" fill="#1E325C"/>
<path d="M45.9999 15.8903C45.9999 13.8262 45.0312 11.9914 43.5399 10.8447C43.5508 10.7027 43.5617 10.5498 43.5617 10.3969C43.5617 7.14244 41.0037 4.51044 37.858 4.51044C37.662 4.51044 37.4661 4.52136 37.2702 4.5432C36.0728 2.44634 33.8632 1.03751 31.327 1.03751C29.8357 1.03751 28.4533 1.52896 27.3213 2.35897C25.8845 0.906456 23.9252 0 21.7591 0C18.2323 0 15.239 2.39173 14.2267 5.68992C13.0402 4.84899 11.6034 4.34662 10.0577 4.34662C6.00851 4.34662 2.72125 7.73218 2.72125 11.915C2.72125 13.1491 3.00425 14.3176 3.51584 15.3442C1.38239 16.9059 0 19.4615 0 22.3556C0 27.0954 3.72266 30.9506 8.327 30.9506C10.0142 30.9506 11.5925 30.4263 12.9096 29.5308C13.6171 33.1675 16.7302 35.9088 20.4638 35.9088C23.2394 35.9088 25.6777 34.3907 27.0383 32.1191C27.9744 33.0802 29.2588 33.6699 30.6848 33.6699C33.3842 33.6699 35.6048 31.5294 35.8334 28.7991C36.4647 29.0393 37.1504 29.1595 37.858 29.1595C41.1561 29.1595 43.8338 26.3964 43.8338 22.989C43.8338 22.2792 43.7141 21.5911 43.4964 20.9577C45.0094 19.8328 45.9999 17.9762 45.9999 15.8903Z" fill="#1E325C"/>
</svg>
