<svg width="25" height="25" viewBox="0 0 25 25" fill="none" xmlns="http://www.w3.org/2000/svg">
<path d="M2.545 2.545C4.3125 0.8475 6.3525 0 8.6675 0C10.9825 0 13.0225 0.8475 14.79 2.545C16.345 4.135 17.1925 5.9825 17.335 8.085C17.475 10.1875 16.8925 12.1225 15.585 13.89L16.91 15.215L15.2125 16.9125L13.8875 15.5875C12.12 16.86 10.195 17.435 8.11 17.31C6.025 17.1875 4.17 16.3475 2.545 14.7925C0.8475 13.0225 0 10.9825 0 8.6675C0 6.3525 0.8475 4.3125 2.545 2.545Z" fill="#B3B3B3"/>
<path d="M3.68497 3.65753C5.00997 2.31503 6.67997 1.62503 8.69497 1.59003C10.675 1.62503 12.335 2.31503 13.6775 3.65753C15.02 5.00003 15.71 6.66253 15.745 8.64003C15.71 10.655 15.02 12.325 13.6775 13.65C12.335 14.975 10.6725 15.6725 8.69497 15.745C6.67997 15.675 5.00997 14.9775 3.68497 13.65C2.35997 12.325 1.66247 10.655 1.58997 8.64003C1.65997 6.66253 2.35997 5.00253 3.68497 3.65753Z" fill="#F2F2F2"/>
<path d="M3.92251 12.8825C5.37001 14.26 7.03251 14.95 8.90501 14.95C10.7775 14.95 12.4375 14.26 13.8875 12.8825C14.665 12.105 15.23 11.2225 15.585 10.2325C15.3025 11.54 14.665 12.7075 13.6775 13.7325C12.2275 15.11 10.5575 15.8 8.66751 15.8C6.77751 15.8 5.10751 15.11 3.65751 13.7325C2.66751 12.7075 2.03251 11.5425 1.75001 10.2325C1.46501 8.92499 1.55501 7.63249 2.01501 6.36249C1.76751 7.49499 1.80251 8.63249 2.12001 9.78249C2.43751 10.93 3.04001 11.9625 3.92251 12.8825Z" fill="#999999"/>
<path d="M22.8225 24.89C22.38 25.0125 22.055 24.97 21.8425 24.7575L14.8975 17.2275C14.685 17.015 14.5975 16.7425 14.6325 16.405C14.6675 16.07 14.88 15.69 15.2675 15.265C15.6925 14.8775 16.07 14.655 16.4075 14.6025C16.7425 14.55 17.0175 14.6475 17.23 14.895L24.81 21.84C25.0225 22.0525 25.0575 22.37 24.915 22.795C24.7725 23.22 24.5075 23.6425 24.12 24.0675C23.695 24.4925 23.2625 24.765 22.8225 24.89Z" fill="#FFBC1F"/>
<path d="M23.2723 20.41L20.4623 23.2725L17.0173 19.56L19.5598 17.0175L23.2723 20.41Z" fill="#954D0E"/>
<path d="M11.7326 12.1275C11.7101 12.1675 11.6751 12.175 11.6301 12.1525L11.5276 12.085L11.4251 12.0175C11.3576 11.96 11.3001 11.8975 11.2551 11.83C11.1526 11.705 11.0676 11.5675 10.9976 11.42C10.9301 11.2725 10.8676 11.125 10.8101 10.975L10.6901 10.6L10.3301 10.4625L9.81759 10.275C9.81759 10.73 9.73009 11.14 9.55259 11.505C9.37509 11.87 9.13509 12.16 8.82759 12.3775C8.65759 12.49 8.48509 12.49 8.31509 12.3775C8.01759 12.16 7.78259 11.87 7.60509 11.505C7.42759 11.14 7.34009 10.73 7.34009 10.275L6.84509 10.4625L6.48759 10.6L6.36759 10.975C6.31009 11.1225 6.24509 11.2725 6.17009 11.42C6.09509 11.5675 6.00759 11.705 5.90509 11.83C5.86009 11.8975 5.80259 11.96 5.73509 12.0175L5.58009 12.12L5.52759 12.155C5.48259 12.1775 5.45009 12.17 5.43259 12.13C5.41509 12.09 5.42509 12.0525 5.45759 12.02L5.54259 11.97L5.62759 11.885C5.67259 11.84 5.71759 11.7875 5.76509 11.7325C5.84509 11.6075 5.91259 11.4725 5.97009 11.33C6.02759 11.1875 6.07759 11.0425 6.12509 10.895L6.22759 10.4675C6.23759 10.41 6.26759 10.37 6.31259 10.3475L6.74009 10.21L7.35509 9.95502C7.41259 9.45502 7.57009 9.02752 7.83259 8.67252L7.78009 8.65502C7.65509 8.64502 7.53509 8.61502 7.42009 8.57002C7.30509 8.52502 7.19759 8.48002 7.09509 8.43252L6.83759 8.28002L6.41009 8.40002L6.17009 8.48502L5.93009 8.58752C5.88509 8.60002 5.85259 8.58502 5.83509 8.54502C5.81759 8.50502 5.82759 8.47502 5.86009 8.45002L6.20259 8.24502L6.57759 8.07502L6.83509 7.99002C6.87009 7.99002 6.89759 7.99502 6.92009 8.00752L7.22759 8.16002C7.31759 8.21752 7.41509 8.26252 7.51759 8.29752C7.62009 8.33252 7.71759 8.35502 7.80759 8.36502H7.82509C7.75759 8.20502 7.72259 8.04002 7.72259 7.87002C7.72259 7.73252 7.74509 7.60252 7.79009 7.47752L7.67009 7.42752C7.55509 7.39252 7.44759 7.34752 7.34509 7.29002L7.02009 7.10252L7.00259 7.06752L6.86509 6.84502C6.83009 6.76502 6.80009 6.68502 6.77009 6.60502C6.74259 6.52502 6.71509 6.44502 6.69259 6.36502L6.64009 6.10752C6.64009 6.06252 6.66009 6.03252 6.70009 6.02252C6.74009 6.01252 6.76509 6.02752 6.77759 6.07502L6.86259 6.29752C6.89759 6.36502 6.93009 6.44002 6.96509 6.52002L7.08509 6.72502L7.20509 6.87752L7.46259 7.03002C7.56509 7.07502 7.66759 7.11502 7.77009 7.15002L7.89009 7.18502C7.94759 7.09502 8.01009 7.00752 8.07759 6.92752C7.90759 6.75752 7.81509 6.51252 7.80509 6.19252C7.82759 5.95252 7.91759 5.74252 8.07759 5.56002L8.02509 5.51002C7.98009 5.47502 7.94259 5.42752 7.91509 5.36502C7.88759 5.30252 7.86759 5.24002 7.85509 5.17752C7.84259 5.11502 7.83259 5.05502 7.82009 4.99752V4.79252C7.82009 4.73502 7.81759 4.68002 7.81259 4.62252C7.80759 4.56502 7.79509 4.51502 7.77759 4.47001C7.76009 4.42501 7.74009 4.38252 7.71759 4.34252C7.69509 4.30252 7.67259 4.26502 7.65009 4.23252C7.59259 4.17502 7.53509 4.13502 7.48009 4.11252L7.41259 4.04502C7.37759 4.01002 7.37759 3.97502 7.41259 3.93502C7.44759 3.89502 7.48009 3.89252 7.51509 3.92752L7.58259 3.96252C7.62759 3.98502 7.69009 4.03751 7.77009 4.11501C7.80509 4.15001 7.83759 4.19252 7.87259 4.24252C7.90759 4.29502 7.93509 4.35002 7.95759 4.41252C7.98009 4.47502 7.99759 4.53752 8.01009 4.60002C8.02009 4.66252 8.02759 4.72752 8.02759 4.79752L8.04509 4.96752C8.04509 5.02502 8.05259 5.07752 8.07009 5.13002C8.08759 5.18002 8.10509 5.22752 8.12259 5.26752C8.14009 5.30752 8.16009 5.33752 8.18259 5.36252L8.25009 5.39752L8.33509 5.33002C8.31259 5.24002 8.30259 5.17002 8.31009 5.12502C8.31509 5.08002 8.32759 5.04502 8.34509 5.02252C8.36259 5.00002 8.39009 4.98752 8.43009 4.98752C8.47009 4.98752 8.49009 5.00752 8.49009 5.04752C8.49009 5.08752 8.47259 5.10752 8.43759 5.10752C8.42509 5.14252 8.42509 5.20002 8.43759 5.27752C8.51759 5.25502 8.59759 5.25502 8.67759 5.27752C8.68759 5.19752 8.68759 5.14002 8.67759 5.10752C8.65509 5.10752 8.64259 5.08752 8.64259 5.04752C8.64259 5.00752 8.66009 4.98752 8.69509 4.98752C8.73009 4.98752 8.75509 5.00002 8.77259 5.02252C8.79009 5.04502 8.80009 5.08002 8.80759 5.12502C8.81259 5.17002 8.81009 5.24002 8.80009 5.33002L8.86759 5.38002L8.88509 5.36252C8.90759 5.34002 8.93009 5.30752 8.95259 5.26752C8.97509 5.22752 8.99259 5.18252 9.00259 5.13002C9.01259 5.07752 9.02509 5.02502 9.03759 4.96752L9.05509 4.79752C9.05509 4.73002 9.06009 4.66502 9.07259 4.60002C9.08259 4.53752 9.10009 4.47502 9.12509 4.41252C9.14759 4.35002 9.17259 4.29252 9.20259 4.24252C9.23009 4.19252 9.26759 4.14751 9.31259 4.11501C9.39259 4.03501 9.45509 3.98502 9.50009 3.96252L9.56759 3.92752C9.60259 3.89252 9.63509 3.89752 9.67009 3.93502C9.70509 3.97502 9.70509 4.01252 9.67009 4.04502L9.58509 4.11252C9.54009 4.13502 9.48759 4.17502 9.43009 4.23252C9.40759 4.26752 9.38509 4.30252 9.36259 4.34252C9.34009 4.38252 9.32009 4.42501 9.30259 4.47001C9.28509 4.51502 9.27509 4.56752 9.26759 4.62252C9.26259 4.68002 9.26009 4.73752 9.26009 4.79252V4.99752C9.24759 5.05502 9.23509 5.11502 9.21759 5.17752C9.20009 5.24002 9.18009 5.30252 9.15759 5.36502C9.13509 5.42752 9.10009 5.47502 9.05509 5.51002L9.02009 5.54502C9.10009 5.63752 9.16759 5.73502 9.22509 5.84502C9.28259 5.95252 9.31009 6.07002 9.31009 6.19502C9.31009 6.51502 9.22509 6.76002 9.05259 6.93002C9.11009 6.99752 9.16009 7.07252 9.20759 7.15252C9.31009 7.11752 9.40759 7.07752 9.49759 7.03252L9.77009 6.88002L9.89009 6.72752L10.0101 6.52252C10.0451 6.44252 10.0776 6.37002 10.1126 6.30002L10.1801 6.07752C10.2026 6.03252 10.2351 6.01502 10.2751 6.02502C10.3151 6.03752 10.3351 6.06502 10.3351 6.11002L10.2826 6.36752C10.2601 6.44752 10.2351 6.52752 10.2051 6.60752C10.1776 6.68752 10.1401 6.76752 10.0951 6.84752L9.97509 7.07002L9.94009 7.12002L9.63259 7.29002C9.53009 7.33502 9.42759 7.38252 9.32509 7.42752C9.37009 7.56502 9.39259 7.71252 9.39259 7.87252C9.39259 8.03252 9.37009 8.18502 9.32509 8.33502L9.46259 8.30002C9.56509 8.26502 9.66259 8.22002 9.75259 8.16252L10.0601 8.01002C10.0826 8.00002 10.1051 7.99252 10.1276 7.99252L10.4001 8.07752L10.7751 8.24752L11.1176 8.45252C11.1526 8.48752 11.1576 8.52002 11.1351 8.55502C11.1126 8.59002 11.0851 8.60002 11.0501 8.59002L10.4526 8.35002L10.1451 8.28252L9.88759 8.43502C9.78509 8.48002 9.67759 8.52752 9.56259 8.57252C9.47009 8.60752 9.38009 8.63502 9.29009 8.65752C9.56259 9.02252 9.72759 9.45502 9.78509 9.95502L9.99009 10.04L10.4001 10.21L10.8276 10.3475C10.8851 10.37 10.9176 10.41 10.9301 10.4675L10.9651 10.6725L11.0326 10.895C11.0676 11.0425 11.1151 11.1875 11.1776 11.33C11.2401 11.4725 11.3101 11.605 11.3901 11.7325C11.4251 11.79 11.4701 11.84 11.5276 11.885L11.6801 12L11.7151 12.0175C11.7476 12.05 11.7551 12.0875 11.7326 12.1275Z" fill="#1B1D22"/>
</svg>
