<svg width="28" height="28" viewBox="0 0 28 28" fill="none" xmlns="http://www.w3.org/2000/svg">
<path d="M15.6137 27.2188C15.0173 28.1316 13.6677 28.2604 12.6205 27.524L0.79888 19.1968C-0.01032 18.6284 -0.23992 17.5392 0.27248 16.758L10.6717 0.865246C11.1841 0.0840456 12.3293 -0.226754 13.2477 0.176446L26.6569 6.08165C27.8441 6.60525 28.3397 7.77565 27.7433 8.68845L15.6137 27.2188Z" fill="#954D0E"/>
<path d="M13.7321 26.1409L1.5437 17.8081L12.2649 1.43365L25.8477 7.63566L13.7321 26.1409Z" fill="white"/>
<path d="M21.449 6.47086C21.2782 6.73126 20.875 6.81806 20.5502 6.66686L15.4234 4.25886C15.1294 4.12166 15.023 3.81086 15.1854 3.56166L15.989 2.33246C16.1514 2.08606 16.521 1.99366 16.8206 2.12526L22.0146 4.42966C22.3422 4.57526 22.4738 4.90566 22.303 5.16886L21.449 6.47086Z" fill="#93979A"/>
<path d="M20.4688 4.87487L17.1648 3.37687L17.9796 2.13087C18.142 1.88167 18.5228 1.78647 18.8308 1.91807L21.0288 2.87287C21.3508 3.01287 21.474 3.33487 21.306 3.59247L20.4688 4.87487Z" fill="#1B1D22"/>
<path d="M20.7096 11.6285L13.8524 8.10886L14.2108 7.56006L21.0932 11.0405L20.7096 11.6285Z" fill="#FFBC1F"/>
<path d="M11.6881 7.75042C11.6125 7.79242 11.5285 7.76442 11.5033 7.68602L11.0805 6.44282C11.0553 6.36722 11.1057 6.28882 11.1925 6.27202L11.3521 6.23842C11.4417 6.21882 11.5341 6.26642 11.5593 6.34482L11.7833 6.99442C11.8113 7.07282 11.8925 7.10082 11.9681 7.05602L13.2393 6.33922C13.3149 6.29722 13.4241 6.31682 13.4801 6.38402L13.5809 6.50722C13.6369 6.57442 13.6201 6.66402 13.5445 6.70882L11.6881 7.75042Z" fill="#FFBC1F"/>
<path d="M18.4669 15.0528L11.7441 11.3288L12.1053 10.7772L18.8505 14.4676L18.4669 15.0528Z" fill="#AFBDC6"/>
<path d="M10.456 11.4577L8.47363 10.3433L9.61883 8.59326L11.6236 9.67406L10.456 11.4577Z" fill="#AFBDC6"/>
<path d="M16.2242 18.48L9.63855 14.546L9.99695 13.9944L16.6077 17.8948L16.2242 18.48Z" fill="#AFBDC6"/>
<path d="M8.36727 14.6496L6.42407 13.4708L7.56927 11.7208L9.53767 12.866L8.36727 14.6496Z" fill="#AFBDC6"/>
<path d="M13.9814 21.9045L7.53296 17.7633L7.89136 17.2145L14.365 21.3193L13.9814 21.9045Z" fill="#AFBDC6"/>
<path d="M6.27851 17.8389L4.37451 16.5985L5.52251 14.8513L7.44891 16.0553L6.27851 17.8389Z" fill="#AFBDC6"/>
</svg>
