<?xml version="1.0" encoding="utf-8"?>
<!-- Generator: Adobe Illustrator 16.0.0, SVG Export Plug-In . SVG Version: 6.00 Build 0)  -->
<!DOCTYPE svg PUBLIC "-//W3C//DTD SVG 1.1//EN" "http://www.w3.org/Graphics/SVG/1.1/DTD/svg11.dtd">
<svg version="1.1" xmlns="http://www.w3.org/2000/svg" xmlns:xlink="http://www.w3.org/1999/xlink" x="0px" y="0px" width="300px"
	 height="300px" viewBox="0 0 300 300" enable-background="new 0 0 300 300" xml:space="preserve">
<g id="Layer_2" display="none">
	<rect display="inline" fill-rule="evenodd" clip-rule="evenodd" fill="#FFFFFF" width="300" height="300"/>
</g>
<g id="Layer_1">
	<g>
		<path fill-rule="evenodd" clip-rule="evenodd" fill="#0058CC" d="M181.891,56.859c-59.592-16.315-127.316,15.476-149.072,79.74
			c-21.906,64.712,12.795,134.93,77.505,156.836c64.713,21.906,134.93-12.794,156.837-77.505
			c17.9-52.878-2.176-106.835-42.243-137.652l-2.166,22.925l-0.004,0.003c21.796,23.037,31.577,56.194,20.354,89.348
			c-15.822,46.736-67.991,71.304-116.525,54.874c-48.534-16.43-75.052-67.636-59.231-114.372c14-41.358,56.464-64.549,97.62-59.418
			l-0.001-0.005L181.891,56.859L181.891,56.859z M152.829,134.455c16.264-3.131,32.879,12.96,27.118,29.976
			c-4.02,11.874-17.274,18.117-29.606,13.942c-12.332-4.175-19.069-17.186-15.049-29.06
			C137.993,141.332,144.867,135.895,152.829,134.455L152.829,134.455z M146.784,111.186c-8.405,1.52-16.237,5.195-22.647,10.626
			c-6.114,5.18-10.912,11.978-13.642,20.042c-4.136,12.217-2.723,25.049,2.905,35.917c5.677,10.961,15.647,19.928,28.566,24.302
			c12.912,4.371,26.282,3.302,37.457-1.961c11.067-5.212,19.981-14.546,24.118-26.766c2.611-7.712,2.982-15.316,1.617-22.411
			c-0.989-5.141-2.895-10.041-5.526-14.547l4.796-24.034c0.889,0.879,1.756,1.78,2.598,2.703
			c8.235,9.03,14.158,20.155,16.508,32.364c1.952,10.14,1.432,20.978-2.275,31.929c-5.834,17.233-18.345,30.368-33.855,37.673
			c-15.403,7.254-33.768,8.748-51.44,2.767c-17.668-5.981-31.348-18.328-39.181-33.453c-7.882-15.219-9.839-33.251-4.005-50.486
			c3.854-11.386,10.635-20.991,19.28-28.314c8.848-7.496,19.678-12.581,31.326-14.706l-0.004-0.02
			c8.279-1.593,16.575-1.473,24.534,0.073l-16.866,17.704c-1.385,0.134-2.77,0.333-4.154,0.599H146.784z"/>
		<polygon fill-rule="evenodd" clip-rule="evenodd" fill="#0058CC" points="202.712,53.891 199.395,38.745 219.518,0 
			231.834,20.728 255.93,19.894 234.196,57.759 218.748,63.488 165.283,161.347 148.884,152.416 		"/>
	</g>
</g>
</svg>
