<svg width="16" height="16" viewBox="0 0 16 16" fill="none" xmlns="http://www.w3.org/2000/svg">
<path d="M8 0.494048C6.644 0.494048 5.384 0.836048 4.22 1.52005C3.092 2.19205 2.192 3.09205 1.52 4.22005C0.836 5.38405 0.494 6.64405 0.494 8.00005C0.494 9.35605 0.836 10.616 1.52 11.78C2.192 12.908 3.092 13.808 4.22 14.48C5.384 15.164 6.644 15.506 8 15.506C9.356 15.506 10.616 15.164 11.78 14.48C12.908 13.808 13.808 12.908 14.48 11.78C15.164 10.616 15.506 9.35605 15.506 8.00005C15.506 6.64405 15.164 5.38405 14.48 4.22005C13.808 3.09205 12.908 2.19205 11.78 1.52005C10.616 0.836048 9.356 0.494048 8 0.494048ZM8 13.994C6.92 13.994 5.912 13.718 4.976 13.166C4.076 12.638 3.362 11.924 2.834 11.024C2.282 10.088 2.006 9.08005 2.006 8.00005C2.006 6.92005 2.282 5.91205 2.834 4.97605C3.362 4.07605 4.076 3.36205 4.976 2.83405C5.912 2.28205 6.92 2.00605 8 2.00605C9.08 2.00605 10.088 2.28205 11.024 2.83405C11.924 3.36205 12.638 4.07605 13.166 4.97605C13.718 5.91205 13.994 6.92005 13.994 8.00005C13.994 9.08005 13.718 10.088 13.166 11.024C12.638 11.924 11.924 12.638 11.024 13.166C10.088 13.718 9.08 13.994 8 13.994ZM8.378 8.75605H7.622L7.244 4.25605H8.756L8.378 8.75605ZM8.756 11.006C8.756 11.21 8.678 11.384 8.522 11.528C8.378 11.672 8.204 11.744 8 11.744C7.796 11.744 7.616 11.672 7.46 11.528C7.316 11.384 7.244 11.21 7.244 11.006C7.244 10.802 7.316 10.628 7.46 10.484C7.616 10.328 7.796 10.25 8 10.25C8.204 10.25 8.378 10.328 8.522 10.484C8.678 10.628 8.756 10.802 8.756 11.006Z" fill="#579EFF"/>
</svg>
