<svg width="100" height="100" viewBox="0 0 100 100" fill="none" xmlns="http://www.w3.org/2000/svg">
<mask id="mask0_15_126" style="mask-type:alpha" maskUnits="userSpaceOnUse" x="3" y="5" width="87" height="81">
<path fill-rule="evenodd" clip-rule="evenodd" d="M89.786 5H3V85.512H57.23C55.9387 82.364 55.2762 78.9936 55.28 75.591C55.28 61.154 66.984 49.451 81.421 49.451C84.346 49.451 87.16 49.931 89.786 50.818V5Z" fill="#D9D9D9"/>
</mask>
<g mask="url(#mask0_15_126)">
<path d="M61.5361 37.4767H80.9221C81.8017 37.4767 82.6453 37.8261 83.2672 38.448C83.8892 39.07 84.2386 39.9135 84.2386 40.7931V58.4513C84.2386 65.1828 78.7818 70.6388 72.0503 70.6388H71.9932C65.2617 70.6405 59.804 65.1845 59.8031 58.453V39.2097C59.8031 38.2524 60.5788 37.4767 61.5361 37.4767ZM74.6386 33.9864C76.7217 33.9864 78.7195 33.1588 80.1925 31.6858C81.6655 30.2128 82.493 28.215 82.493 26.1319C82.493 24.0488 81.6655 22.051 80.1925 20.578C78.7195 19.105 76.7217 18.2774 74.6386 18.2774C72.5554 18.2774 70.5576 19.105 69.0846 20.578C67.6116 22.051 66.7841 24.0488 66.7841 26.1319C66.7841 28.215 67.6116 30.2128 69.0846 31.6858C70.5576 33.1588 72.5554 33.9864 74.6386 33.9864Z" fill="#5059C9"/>
<path d="M50.2039 33.9864C56.4693 33.9864 61.5482 28.9066 61.5482 22.6403C61.5482 16.3758 56.4693 11.296 50.2039 11.296C43.9385 11.296 38.8596 16.3749 38.8596 22.6412C38.8596 28.9066 43.9385 33.9864 50.2039 33.9864ZM65.3308 37.4767H33.331C32.4618 37.498 31.6366 37.8634 31.0367 38.4927C30.4367 39.122 30.1111 39.9637 30.1313 40.8329V60.9739C29.8788 71.833 38.4705 80.8459 49.3305 81.1114C60.1905 80.8459 68.7831 71.833 68.5297 60.973V40.8329C68.5497 39.9638 68.2239 39.1224 67.624 38.4932C67.0241 37.8641 66.199 37.4988 65.33 37.4775L65.3308 37.4767Z" fill="#7B83EB"/>
<path opacity="0.1" d="M51.0765 37.4767V65.6999C51.0722 66.3328 50.881 66.9503 50.527 67.475C50.173 67.9996 49.6719 68.408 49.0866 68.6489C48.7061 68.8106 48.2962 68.8936 47.882 68.8936H31.6672C31.4377 68.3213 31.234 67.739 31.0566 67.1485C30.4455 65.1456 30.1337 63.0635 30.1313 60.9695V40.8286C30.1109 39.9606 30.4358 39.12 31.0348 38.4915C31.6338 37.863 32.4579 37.498 33.3258 37.4767H51.0765Z" fill="black"/>
<path opacity="0.2" d="M49.3305 37.4767V67.4451C49.3305 67.8585 49.2475 68.2684 49.0866 68.6489C48.8456 69.2342 48.4371 69.7353 47.9123 70.0893C47.3875 70.4433 46.7698 70.6345 46.1368 70.6388H32.4878C32.1896 70.069 31.9158 69.4867 31.6672 68.8936C31.4327 68.3232 31.2289 67.7406 31.0566 67.1485C30.4455 65.1456 30.1337 63.0635 30.1313 60.9695V40.8286C30.1109 39.9606 30.4358 39.12 31.0348 38.4915C31.6338 37.863 32.4579 37.498 33.3258 37.4767H49.3305Z" fill="black"/>
<path opacity="0.2" d="M49.3305 37.4767V63.9539C49.3242 64.7991 48.9857 65.6078 48.3881 66.2055C47.7906 66.8032 46.982 67.1419 46.1368 67.1485H31.0566C30.4455 65.1456 30.1337 63.0635 30.1313 60.9695V40.8286C30.1109 39.9606 30.4358 39.12 31.0348 38.4915C31.6338 37.863 32.4579 37.498 33.3258 37.4767H49.3305Z" fill="black"/>
<path opacity="0.2" d="M47.5854 37.4767V63.9539C47.579 64.7991 47.2405 65.6078 46.643 66.2055C46.0455 66.8032 45.2368 67.1419 44.3917 67.1485H31.0566C30.4455 65.1456 30.1337 63.0635 30.1313 60.9695V40.8286C30.1109 39.9606 30.4358 39.12 31.0348 38.4915C31.6338 37.863 32.4579 37.498 33.3258 37.4767H47.5854Z" fill="black"/>
<path opacity="0.1" d="M51.0765 28.4534V33.9509C50.779 33.9682 50.5006 33.9855 50.2031 33.9855C49.9065 33.9855 49.6271 33.9682 49.3305 33.9509C48.7414 33.9118 48.1572 33.8183 47.5854 33.6716C45.8429 33.2589 44.2229 32.4396 42.8579 31.2807C41.4928 30.1219 40.4214 28.6564 39.7313 27.004C39.4905 26.4413 39.3034 25.8569 39.1727 25.2589H47.882C48.7282 25.2621 49.5389 25.5997 50.1373 26.1981C50.7357 26.7965 51.0733 27.6072 51.0765 28.4534Z" fill="black"/>
<path opacity="0.2" d="M49.3305 30.1986V33.9518C48.7414 33.9124 48.1572 33.8186 47.5854 33.6716C45.8429 33.2589 44.2229 32.4396 42.8579 31.2807C41.4928 30.1219 40.4214 28.6564 39.7313 27.004H46.1368C46.983 27.0072 47.7936 27.3449 48.3919 27.9433C48.9901 28.5417 49.3275 29.3524 49.3305 30.1986Z" fill="black"/>
<path opacity="0.2" d="M49.3305 30.1986V33.9518C48.7414 33.9124 48.1572 33.8186 47.5854 33.6716C45.8429 33.2589 44.2229 32.4396 42.8579 31.2807C41.4928 30.1219 40.4214 28.6564 39.7313 27.004H46.1368C46.983 27.0072 47.7936 27.3449 48.3919 27.9433C48.9901 28.5417 49.3275 29.3524 49.3305 30.1986Z" fill="black"/>
<path opacity="0.2" d="M47.5854 30.1986V33.6716C45.843 33.2588 44.223 32.4395 42.8579 31.2807C41.4929 30.1218 40.4215 28.6563 39.7313 27.004H44.3917C45.2378 27.0075 46.0483 27.3452 46.6465 27.9435C47.2447 28.5419 47.5822 29.3525 47.5854 30.1986Z" fill="black"/>
<path d="M12.3867 27.0049H44.3856C45.2341 27.0049 46.0478 27.3419 46.6479 27.9418C47.2479 28.5417 47.5851 29.3553 47.5854 30.2038V62.2036C47.5854 63.0522 47.2482 63.8661 46.6482 64.4661C46.0481 65.0662 45.2343 65.4033 44.3856 65.4033H12.3867C11.5381 65.4033 10.7242 65.0662 10.1241 64.4661C9.52406 63.8661 9.18695 63.0522 9.18695 62.2036V30.2038C9.18695 29.3551 9.52406 28.5413 10.1241 27.9412C10.7242 27.3412 11.5381 27.004 12.3867 27.004V27.0049Z" fill="url(#paint0_linear_15_126)"/>
<path d="M36.8057 39.1837H30.4089V56.6023H26.334V39.1837H19.9666V35.805H36.8057V39.1837Z" fill="white"/>
</g>
<path d="M74.984 86.31V91.295L75.368 90.92L81.724 84.713L81.889 84.551L81.724 84.39L75.369 78.145L74.984 77.767V82.752C73.4216 82.7276 71.8898 82.3145 70.527 81.55C69.1388 80.7452 67.9762 79.6029 67.147 78.229C66.3343 76.834 65.9113 75.2464 65.922 73.632C65.922 72.073 66.282 70.653 66.997 69.368L67.081 69.217L66.958 69.097L64.637 66.815L64.436 66.618L64.286 66.857C62.971 68.961 62.311 71.221 62.311 73.632C62.311 75.916 62.893 78.05 64.055 80.029L64.057 80.032C65.201 81.9165 66.7977 83.4854 68.702 84.596L68.705 84.598C70.6189 85.6928 72.7803 86.2813 74.985 86.308L74.984 86.31ZM75.436 68.96V64.514C76.9907 64.5373 78.5127 64.9639 79.853 65.752L79.857 65.754C81.2658 66.53 82.4343 67.6781 83.235 69.073L83.237 69.077C84.0746 70.4481 84.5117 72.0263 84.499 73.633C84.499 75.193 84.139 76.613 83.423 77.898L83.339 78.05L83.464 78.17L85.785 80.414L85.985 80.608L86.134 80.372C86.7559 79.3777 87.2381 78.3027 87.567 77.177C87.929 76.033 88.109 74.852 88.109 73.633C88.1182 71.3825 87.5158 69.1717 86.366 67.237L86.364 67.234C85.22 65.3495 83.6233 63.7807 81.719 62.67L81.715 62.668C79.8014 61.5734 77.6404 60.9849 75.436 60.958V55.97L75.052 56.345L68.697 62.552L68.532 62.713L68.696 62.875L75.052 69.12L75.436 69.497V68.96Z" fill="#4850B9" stroke="#4850B9" stroke-width="0.523"/>
<defs>
<linearGradient id="paint0_linear_15_126" x1="15.8571" y1="24.5048" x2="40.9144" y2="67.9026" gradientUnits="userSpaceOnUse">
<stop stop-color="#5A62C3"/>
<stop offset="0.5" stop-color="#4D55BD"/>
<stop offset="1" stop-color="#3940AB"/>
</linearGradient>
</defs>
</svg>
