<svg xmlns="http://www.w3.org/2000/svg" width="190" height="151" viewBox="0 0 190 151" fill="none">
  <rect x="17.5217" y="13.7783" width="156.522" height="52.1739" rx="8.15217" fill="#1C58D9" fill-opacity="0.12"/>
  <rect y="72.4739" width="189.13" height="54.3478" rx="8.15217" fill="#1C58D9" fill-opacity="0.12"/>
  <path d="M87.7834 7.93257C90.1942 3.15274 97.0188 3.15274 99.4296 7.93257L160.377 128.776C162.565 133.114 159.412 138.235 154.554 138.235H32.6588C27.8007 138.235 24.6481 133.114 26.8357 128.776L87.7834 7.93257Z" fill="#FFBC1F"/>
  <path d="M84.4059 4.07446C86.4148 0.0912905 92.102 0.0913337 94.111 4.07446L155.059 124.918C156.882 128.533 154.255 132.8 150.207 132.8H28.3112C24.2628 132.8 21.6357 128.533 23.4586 124.918L84.4059 4.07446Z" stroke="#3F4350" stroke-width="2.17391"/>
  <path d="M107.828 7.77832L115.104 21.8653M163.002 114.604L149.057 87.6044L145.419 80.5609L140.569 71.1696L133.9 58.2566M129.049 48.8653L119.955 31.2566" stroke="#3F4350" stroke-opacity="0.56" stroke-width="2.34783" stroke-linecap="round"/>
  <path d="M82.7727 53.5246L87.7306 85.3656C87.7784 85.9975 88.0748 86.5886 88.56 87.02C89.0453 87.4515 89.6834 87.6914 90.3462 87.6914C91.0089 87.6914 91.647 87.4515 92.1323 87.02C92.6175 86.5886 92.9139 85.9975 92.9617 85.3656L97.9196 53.5246C98.8211 41.1093 81.8576 41.1093 82.7727 53.5246Z" fill="#3F4350"/>
  <path d="M89.2743 100.735C90.9934 100.738 92.673 101.251 94.101 102.208C95.5289 103.165 96.6411 104.524 97.2969 106.114C97.9527 107.703 98.1226 109.451 97.7853 111.137C97.448 112.822 96.6186 114.37 95.4019 115.585C94.1851 116.799 92.6357 117.626 90.9494 117.96C89.263 118.294 87.5154 118.121 85.9273 117.463C84.3393 116.804 82.9821 115.69 82.0273 114.26C81.0725 112.83 80.563 111.15 80.563 109.431C80.563 108.287 80.7882 107.155 81.2262 106.099C81.6642 105.043 82.3062 104.084 83.1153 103.276C83.9245 102.469 84.885 101.828 85.9418 101.392C86.9987 100.956 88.131 100.733 89.2743 100.735Z" fill="#3F4350"/>
  <path d="M105.48 147.474H152.437" stroke="#3F4350" stroke-opacity="0.56" stroke-width="2.34783" stroke-linecap="round"/>
  <path d="M21.8695 107.257L56.6521 39.8653" stroke="#3F4350" stroke-opacity="0.56" stroke-width="2.34783" stroke-linecap="round"/>
</svg>