<?xml version="1.0" encoding="UTF-8"?>
<svg width="36px" height="30px" viewBox="0 0 36 30" version="1.1" xmlns="http://www.w3.org/2000/svg" xmlns:xlink="http://www.w3.org/1999/xlink">
    <!-- Generator: sketchtool 53.2 (72643) - https://sketchapp.com -->
    <title>5387F3E6-3EBD-4146-8C0E-608678EFE2DD</title>
    <desc>Created with sketchtool.</desc>
    <g id="Page-1" stroke="none" stroke-width="1" fill="none" fill-rule="evenodd">
        <g id="Create-Token----Design-2" transform="translate(-282.000000, -246.000000)" fill="#000000" fill-rule="nonzero">
            <g id="Bot-row" transform="translate(266.000000, 225.000000)">
                <g id="Bot" transform="translate(16.000000, 20.000000)">
                    <path d="M0,15.7391304 L0,23.0434783 C0,24.0535326 0.786888587,24.8695652 1.76086957,24.8695652 L3.52173913,24.8695652 L3.52173913,13.9130435 L1.76086957,13.9130435 C0.786888587,13.9130435 0,14.7290761 0,15.7391304 Z M26.0496894,6.50271739 L19.7888199,6.50271739 L19.7888199,2.83423913 C19.7888199,1.81967561 18.989441,1 18,1 C17.010559,1 16.2111801,1.81967561 16.2111801,2.83423913 L16.2111801,6.50271739 L9.95031056,6.50271739 C7.47950311,6.50271739 5.47826087,8.55477242 5.47826087,11.0883152 L5.47826087,26.6793478 C5.47826087,28.7027429 7.0826087,30.3478261 9.05590062,30.3478261 L26.9440994,30.3478261 C28.9173913,30.3478261 30.5217391,28.7027429 30.5217391,26.6793478 L30.5217391,11.0883152 C30.5217391,8.55477242 28.5204969,6.50271739 26.0496894,6.50271739 Z M14.4782609,24.8695652 L10.9565217,24.8695652 L10.9565217,22.9130435 L14.4782609,22.9130435 L14.4782609,24.8695652 Z M12.5217391,17.826087 C11.2245652,17.826087 10.173913,16.7754348 10.173913,15.4782609 C10.173913,14.181087 11.2245652,13.1304348 12.5217391,13.1304348 C13.818913,13.1304348 14.8695652,14.181087 14.8695652,15.4782609 C14.8695652,16.7754348 13.818913,17.826087 12.5217391,17.826087 Z M19.9565217,24.8695652 L16.4347826,24.8695652 L16.4347826,22.9130435 L19.9565217,22.9130435 L19.9565217,24.8695652 Z M25.0434783,24.8695652 L21.5217391,24.8695652 L21.5217391,22.9130435 L25.0434783,22.9130435 L25.0434783,24.8695652 Z M23.2826087,17.826087 C22.0935326,17.826087 21.1304348,16.7754348 21.1304348,15.4782609 C21.1304348,14.181087 22.0935326,13.1304348 23.2826087,13.1304348 C24.4716848,13.1304348 25.4347826,14.181087 25.4347826,15.4782609 C25.4347826,16.7754348 24.4716848,17.826087 23.2826087,17.826087 Z M34.2391304,13.9130435 L32.4782609,13.9130435 L32.4782609,24.8695652 L34.2391304,24.8695652 C35.2131114,24.8695652 36,24.0535326 36,23.0434783 L36,15.7391304 C36,14.7290761 35.2131114,13.9130435 34.2391304,13.9130435 Z" id="Shape"></path>
                </g>
            </g>
        </g>
    </g>
</svg>
