<svg width="302" height="136" viewBox="0 0 302 136" fill="none" xmlns="http://www.w3.org/2000/svg">
<g clip-path="url(#clip0_2_40)">
<path d="M152.032 136C189.587 136 220.032 105.555 220.032 68C220.032 30.4446 189.587 0 152.032 0C114.476 0 84.0319 30.4446 84.0319 68C84.0319 105.555 114.476 136 152.032 136Z" fill="#ffffff" fill-opacity="0.08"/>
<path d="M231 127.226C250.99 127.226 267.194 111.022 267.194 91.0327C267.194 71.0435 250.99 54.8391 231 54.8391C211.011 54.8391 194.807 71.0435 194.807 91.0327C194.807 111.022 211.011 127.226 231 127.226Z" fill="#ffffff" fill-opacity="0.08"/>
<path d="M240.185 73.8691L243.529 65.9618C243.559 65.887 243.609 65.8206 243.67 65.7678C243.731 65.7149 243.805 65.6772 243.882 65.6574C243.961 65.6377 244.044 65.6364 244.123 65.6539C244.201 65.6715 244.275 65.7071 244.339 65.7582L246.465 67.0761C246.593 67.1883 246.675 67.3445 246.693 67.5138C246.712 67.6831 246.666 67.8532 246.565 67.9905L241.192 74.4761C241.082 74.5731 240.946 74.6346 240.801 74.6524C240.656 74.6704 240.51 74.6437 240.381 74.576C240.285 74.4885 240.215 74.3761 240.18 74.2513C240.144 74.1265 240.143 73.9942 240.177 73.8691H240.185ZM245.352 77.9225C245.396 77.998 245.456 78.0636 245.526 78.1152C245.597 78.1668 245.677 78.2033 245.762 78.2224C245.847 78.2416 245.936 78.2428 246.021 78.2263C246.108 78.2098 246.189 78.1756 246.262 78.1262L255.677 73.2581C256.084 72.9892 256.149 72.6165 255.881 72.1439L254.161 69.5082C254.025 69.3491 253.833 69.2494 253.625 69.2307C253.416 69.2121 253.209 69.2759 253.048 69.4083L245.452 77.0082C245.324 77.1204 245.242 77.2766 245.225 77.4459C245.205 77.6152 245.251 77.7853 245.352 77.9225ZM247.071 82.8867L254.971 79.6439C255.355 79.5094 255.611 79.6439 255.677 80.0511L256.183 82.4832C256.21 82.5639 256.216 82.6496 256.202 82.7334C256.19 82.817 256.158 82.8966 256.108 82.9655C256.059 83.0345 255.994 83.091 255.92 83.1307C255.845 83.1704 255.761 83.1921 255.677 83.194L247.275 84.0048C247.006 84.0048 246.803 83.8357 246.668 83.4976C246.667 83.3672 246.705 83.2395 246.778 83.1307C246.849 83.0219 246.952 82.937 247.071 82.8867Z" fill="#FFBC1F"/>
<path d="M227.82 114.005L226.201 114.916C225.896 115.112 225.554 115.241 225.196 115.294C224.837 115.347 224.472 115.323 224.124 115.223C223.416 115.02 222.816 114.547 222.454 113.905L218.102 106.605C217.909 106.288 217.782 105.936 217.727 105.569C217.674 105.202 217.694 104.827 217.789 104.469C217.883 104.11 218.049 103.774 218.276 103.481C218.504 103.187 218.787 102.943 219.111 102.763L220.731 101.848C221.036 101.653 221.379 101.524 221.736 101.472C222.094 101.42 222.459 101.444 222.807 101.545C223.515 101.748 224.115 102.221 224.478 102.863L228.833 110.163C229.163 110.839 229.252 111.607 229.088 112.341C229.001 112.691 228.845 113.019 228.627 113.305C228.409 113.592 228.134 113.83 227.82 114.005Z" fill="#28427B"/>
<path d="M208.893 101.672C207.099 98.4125 206.429 93.5187 208.596 91.9086L222.871 81.3694L233.619 98.1944L217.923 106.709C215.055 108.118 210.689 104.93 208.893 101.672Z" fill="#1C58D9"/>
<path d="M242.407 80.6584C244.579 83.9913 246.362 87.5621 247.722 91.3014C248.836 94.5442 248.954 96.537 248.075 97.2798C246.926 97.8202 245.136 96.9084 242.702 94.5442C240.269 92.1799 237.821 89.0716 235.359 85.2191C232.894 81.3769 231.103 77.8459 229.985 74.6263C228.866 71.4065 228.783 69.397 229.732 68.5978C230.809 68.1239 232.582 69.0691 235.047 71.4333C237.85 74.212 240.32 77.308 242.407 80.6584Z" fill="#82889C"/>
<path d="M248.286 97.0795C247.945 97.8901 247.239 98.3627 246.16 98.4972C241.289 98.7556 234.83 99.4582 231.579 99.7114C228.326 99.9644 223.776 95.5087 222.566 93.4293C221.356 91.3499 218.656 86.0286 220.542 82.5789C222.43 79.1292 225.634 74.1602 227.932 69.8075C228.474 68.9315 229.149 68.5243 229.958 68.5934C229.851 68.6058 229.748 68.6398 229.656 68.6933C228.846 69.3695 229.048 71.2906 230.262 74.4566C231.731 78.1267 233.564 81.6405 235.731 84.9457C237.806 88.3054 240.214 91.4464 242.92 94.3207C245.283 96.7541 246.97 97.7685 247.984 97.3637C248.115 97.2977 248.22 97.1913 248.286 97.0601V97.0795Z" fill="#DDDFE4"/>
<path opacity="0.5" d="M211.835 96.2654C211.606 96.4543 211.321 96.5623 211.025 96.5727C210.801 96.5779 210.581 96.5242 210.386 96.417C210.191 96.3097 210.027 96.1528 209.912 95.9619C209.787 95.7995 209.695 95.6141 209.643 95.4162C209.591 95.2182 209.58 95.0119 209.608 94.8092C209.638 94.6296 209.709 94.459 209.814 94.31C209.919 94.1612 210.056 94.0376 210.214 93.9485L216.087 90.1985C216.249 90.0738 216.436 89.9865 216.635 89.9426C216.834 89.8988 217.041 89.8996 217.239 89.9449C217.419 89.9915 217.589 90.0736 217.737 90.1864C217.885 90.2992 218.009 90.4405 218.102 90.6019C218.299 90.9194 218.37 91.299 218.302 91.6663C218.272 91.8463 218.202 92.0172 218.098 92.1663C217.993 92.3154 217.855 92.4387 217.695 92.5269L211.823 96.2769L211.835 96.2654Z" fill="white" fill-opacity="0.48"/>
<path d="M70.8712 78.9681C90.8604 78.9681 107.065 62.7637 107.065 42.7745C107.065 22.7854 90.8604 6.581 70.8712 6.581C50.8821 6.581 34.6777 22.7854 34.6777 42.7745C34.6777 62.7637 50.8821 78.9681 70.8712 78.9681Z" fill="#ffffff" fill-opacity="0.08"/>
<path d="M68.4292 46.3897C67.4417 45.059 66.6337 44.8149 65.1837 45.2986C64.6135 45.7821 63.8369 46.0127 63.388 46.6293L63.2129 46.7979C62.9076 47.3346 62.36 47.685 62.1041 48.2706C61.6552 49.2953 60.8293 49.6014 59.7249 49.7744C58.0101 50.0139 56.4119 50.6394 55.3615 52.1565C55.2628 52.263 55.2268 52.4182 55.0922 52.4937C55.1999 52.3694 55.2807 52.2231 55.3795 52.0945C56.0161 51.1633 56.8503 50.3803 57.8239 49.7996C58.7975 49.219 59.8874 48.8546 61.0177 48.732C61.6372 48.6477 62.2388 48.5191 62.2163 47.6939C61.9695 47.4855 62.0548 47.1971 62.0233 46.9354C61.5745 42.9697 61.9066 38.9906 61.8573 35.0158C61.8573 33.827 61.5745 32.7979 60.3085 32.3099C59.1548 32.27 58.625 32.9709 58.3603 33.9512C58.3011 34.171 58.259 34.3949 58.2346 34.621C58.2877 33.9427 58.2576 33.2605 58.1447 32.5894C57.8261 32.2301 57.9921 31.7821 57.9248 31.3739C57.7362 30.2427 57.1706 29.5508 55.9362 29.5551C54.5355 29.9144 54.1405 31.0013 54.0956 32.2168C54.0373 33.8092 53.9025 35.3929 53.8802 36.9809C53.8397 39.403 53.6961 41.8605 54.8632 44.1673C54.4637 43.9855 53.6422 44.9214 53.7096 43.7813C53.9205 40.4101 53.6781 37.0342 53.9339 33.6629C54.0655 32.7727 53.9084 31.8643 53.4851 31.0679C53.0945 30.9214 52.713 30.6863 52.282 30.948C50.5357 31.9151 50.3158 33.5343 50.4639 35.2554C50.5464 36.2609 50.5027 37.2725 50.3337 38.2675C50.2352 38.8738 50.1768 39.4858 50.1587 40.0995C50.1587 39.3986 50.1855 38.6977 50.1587 37.9969C50.1183 36.8746 50.3651 35.6413 49.5571 34.6344C49.1531 34.6344 48.785 34.1908 48.3495 34.5234C47.7532 35.0994 47.3398 35.8347 47.16 36.6394C46.8322 38.9817 46.1409 41.275 46.0152 43.6483C45.7668 47.7252 46.2362 51.8137 47.4024 55.7319C48.1072 58.0519 49.427 59.5957 51.6221 60.3721C54.374 61.348 57.1796 61.8625 59.8686 60.097C61.109 57.2148 62.8569 54.573 65.031 52.294C65.5917 51.701 66.047 51.0186 66.3777 50.2756C66.7773 49.1622 67.1812 48.0577 68.0432 47.1705C68.2542 46.9619 68.519 46.7535 68.4292 46.3897ZM58.0505 36.3911C58.0998 35.9475 58.1582 35.5038 58.1942 35.0292C58.1853 35.3642 58.2033 35.6995 58.248 36.0317C58.3727 36.683 58.3834 37.3508 58.2794 38.0058C57.7991 40.1838 58.0908 42.3086 58.6924 44.4601C57.9472 44.4601 57.5208 44.3403 57.7273 43.4708C57.897 42.6691 57.9439 41.8467 57.8664 41.0311C57.7864 39.4821 57.8479 37.9291 58.0505 36.3911ZM49.5841 45.4671C49.4988 45.5026 49.4405 45.538 49.3866 45.5026C49.5734 45.3357 49.7201 45.1295 49.8157 44.8992C49.9113 44.6689 49.9533 44.4203 49.9387 44.1718C50.0015 42.8809 50.1048 41.5944 50.1497 40.3035C50.1262 41.3735 50.2562 42.4414 50.5357 43.4753C50.9307 44.9036 50.9623 44.8904 49.5841 45.4671Z" fill="#FFBC1F"/>
<path d="M60.3 32.3009C58.805 32.9353 58.235 34.1108 58.5626 36.0138C58.6717 37.0491 58.6339 38.0942 58.4504 39.1191C58.2575 40.8934 58.2933 42.7344 59.1911 44.4112C59.2764 44.5753 59.3213 44.7617 59.438 45.0766L56.9332 44.4512C57.8309 43.005 57.4988 41.448 57.5122 39.9487C57.5434 37.4883 57.752 35.0335 58.1362 32.6026C58.417 32.3305 58.7784 32.1545 59.1679 32.1001C59.5572 32.0458 59.954 32.1162 60.3 32.3009Z" fill="#CC8F00"/>
<path d="M66.3874 50.2716C66.2931 48.5815 67.3256 47.4679 68.43 46.39C68.9373 46.8337 68.641 47.2374 68.3805 47.6055C67.7387 48.5104 67.0563 49.3844 66.3874 50.2716Z" fill="#FFD470"/>
<path d="M62.4226 47.3388C62.3293 47.4397 62.2562 47.557 62.207 47.6848C62.0186 48.2482 61.5786 48.3457 61.0265 48.4301C58.5395 48.8027 56.3758 49.7299 55.1907 52.1252C55.0194 52.2394 54.8855 52.4007 54.8059 52.589C54.726 52.7774 54.7038 52.9847 54.7418 53.1854L55.3971 52.3693C56.6361 50.8654 58.2927 50.2 60.1915 49.9871C60.7122 49.925 61.4485 50.027 61.6684 49.4947C61.6684 49.4947 64.1105 45.9902 66.2652 45.0587C66.2787 45.0765 64.1285 44.7748 62.4226 47.3388Z" fill="#CC8F00"/>
<path d="M59.5908 59.9685C56.8973 61.5122 54.1546 60.9932 51.4746 59.9685C50.0695 59.4273 48.7811 58.5934 48.2154 57.1028C46.1101 51.4384 45.688 45.297 46.9989 39.4033C47.3177 37.9437 47.3805 36.4133 48.1213 35.0825C48.2847 34.8708 48.5107 34.7143 48.768 34.6349C49.0253 34.5554 49.3013 34.5568 49.5578 34.6389C49.2168 34.4266 48.8065 34.3509 48.4109 34.4277C48.0154 34.5043 47.6645 34.7275 47.4299 35.0515L47.358 35.1313C47.0427 35.5658 46.8085 36.0526 46.6667 36.5686C45.8811 38.8665 45.6612 41.2752 45.522 43.6662C45.338 46.8024 45.2706 49.9654 46.2672 52.9818C46.8028 54.4362 47.1057 55.9643 47.1651 57.511C47.152 57.9994 47.2697 58.4827 47.5062 58.9118C47.7426 59.341 48.0895 59.7008 48.5117 59.9552C50.6796 61.464 53.2867 62.2319 55.9367 62.1421C57.5303 62.0845 59.079 61.6719 59.8737 60.0617C59.7973 60.0483 59.6402 59.9375 59.5908 59.9685Z" fill="#CC8F00"/>
<path d="M53.4855 31.0635C53.4855 31.0635 52.2284 30.0921 50.6438 31.5648C50.2088 31.9948 49.9335 32.5576 49.8628 33.1618C49.764 33.6497 49.6563 34.1421 49.553 34.63C50.0018 37.1319 49.8582 39.6516 49.6876 42.1713C49.5933 43.542 50.1366 45.1389 48.4082 46.0617C49.4093 45.8265 50.2892 45.5249 51.1781 45.2543C51.5417 45.1434 51.802 45.037 51.4834 44.6377C50.4419 43.3557 50.5855 41.812 50.4956 40.317C50.4104 38.9862 51.0299 37.6998 50.8639 36.4001C50.6573 34.7854 50.6663 33.2683 51.4788 31.9641C51.6628 31.6668 52.3946 30.7308 53.4855 31.0635Z" fill="#CC8F00"/>
<path d="M57.2475 29.9679C56.9398 29.6931 56.5588 29.5116 56.1497 29.4448C55.7407 29.3779 55.3207 29.4286 54.9401 29.5908C54.847 29.625 54.7569 29.6666 54.6707 29.715C54.1879 30.0702 53.7881 30.5241 53.4991 31.0459C53.6337 33.0916 53.6337 35.1439 53.4991 37.1896C53.4167 38.2315 53.3972 39.2773 53.4406 40.3215C53.5709 41.812 53.7638 43.3246 52.8122 44.8684C53.8133 44.4026 54.8099 44.8285 55.6942 44.2474C55.0049 43.5883 54.5591 42.7199 54.4282 41.781C53.9255 38.7379 54.4014 35.7169 54.3833 32.6872C54.349 32.2042 54.4141 31.7194 54.5745 31.262C54.735 30.8045 54.9876 30.3839 55.3172 30.0255C55.5819 29.7905 56.2374 29.3957 57.2475 29.9679Z" fill="#CC8F00"/>
<path d="M71.4957 47.1703C72.3576 48.0574 72.7617 49.1576 73.1611 50.2755C73.4934 51.0175 73.9485 51.6997 74.5079 52.2939C76.6861 54.5739 78.4356 57.2191 79.6749 60.1056C82.3683 61.88 85.174 61.3566 87.9258 60.3807C90.121 59.6044 91.4408 58.0607 92.1456 55.7405C93.3124 51.8225 93.7803 47.7336 93.5282 43.657C93.407 41.2838 92.7157 38.9903 92.388 36.6481C92.2063 35.8441 91.7933 35.1092 91.1983 34.5322C90.7494 34.2083 90.3948 34.6386 89.9862 34.643C89.1783 35.65 89.4252 36.8832 89.3848 38.0055C89.3578 38.7064 89.3848 39.4073 89.3848 40.1082C89.3652 39.4943 89.3052 38.8823 89.2052 38.2761C89.0386 37.281 88.9948 36.2695 89.075 35.264C89.2277 33.5429 89.0077 31.9238 87.2793 30.9568C86.8304 30.6949 86.4623 30.9301 86.0719 31.0765C85.6503 31.8736 85.4933 32.7815 85.6229 33.6716C85.8743 37.0428 85.6229 40.4187 85.8428 43.7901C85.9146 44.9301 85.0932 43.9941 84.6937 44.176C85.8609 41.8604 85.7171 39.4117 85.6768 36.9897C85.6499 35.4016 85.5196 33.818 85.4568 32.2254C85.4119 31.0055 85.0079 29.9187 83.6208 29.5639C82.3863 29.5639 81.8251 30.2514 81.6276 31.3826C81.5602 31.7907 81.7308 32.2387 81.4121 32.5981C81.2993 33.2692 81.2692 33.9514 81.3224 34.6297C81.2957 34.4039 81.2536 34.1801 81.1967 33.9598C80.9318 32.9795 80.4021 32.2786 79.2483 32.3186C77.9825 32.8021 77.7176 33.8357 77.6996 35.0246C77.6503 39.0169 77.987 42.9783 77.5336 46.944C77.5021 47.2057 77.5874 47.4941 77.3405 47.7026C77.3136 48.5277 77.9196 48.6564 78.5391 48.7406C79.6687 48.8639 80.7577 49.2286 81.7305 49.8092C82.7033 50.3898 83.5367 51.1725 84.1729 52.1031C84.2762 52.2318 84.3525 52.3782 84.4648 52.5024C84.3256 52.427 84.2941 52.2717 84.1953 52.1651C83.1449 50.648 81.5423 50.0226 79.8274 49.7831C78.7232 49.6322 77.9152 49.3039 77.4483 48.2792C77.1923 47.7115 76.6492 47.3432 76.3439 46.8065L76.1689 46.638C75.693 46.0303 74.9343 45.7996 74.3732 45.3072C72.9053 44.8237 72.1287 45.0854 71.1232 46.3984C71.0198 46.7532 71.2937 46.9618 71.4957 47.1703ZM81.677 41.0308C81.6033 41.8467 81.6517 42.6688 81.8207 43.4707C82.0272 44.3579 81.6006 44.4731 80.851 44.4599C81.457 42.3085 81.7488 40.1836 81.2685 38.0055C81.1645 37.3506 81.1751 36.6829 81.2999 36.0315C81.3431 35.6991 81.3597 35.3639 81.3492 35.0289C81.3896 35.4726 81.4435 35.9428 81.4974 36.3908C81.6962 37.9291 81.7563 39.4819 81.677 41.0308ZM89.0121 43.4662C89.2902 42.4321 89.4187 41.3642 89.3937 40.2945C89.4431 41.5854 89.5419 42.8718 89.6093 44.1626C89.5926 44.4114 89.6338 44.6606 89.7295 44.8912C89.8251 45.1219 89.9729 45.3278 90.1614 45.4935C90.1031 45.529 90.0492 45.4935 89.9639 45.4579C88.5813 44.8902 88.6171 44.9035 89.0121 43.4662Z" fill="#FFBC1F"/>
<path d="M79.2481 32.3012C80.743 32.9355 81.3086 34.111 80.9853 36.0141C80.8749 37.0491 80.9112 38.0941 81.0931 39.1192C81.2906 40.8937 81.2548 42.7346 80.357 44.4114C80.2596 44.6275 80.1771 44.8498 80.11 45.0768L82.6149 44.4513C81.7171 43.0052 82.0493 41.4481 82.0359 39.9488C82.0033 37.4828 81.7947 35.022 81.4119 32.585C81.1291 32.3158 80.7665 32.143 80.3772 32.0919C79.9878 32.0408 79.5923 32.1142 79.2481 32.3012Z" fill="#CC8F00"/>
<path d="M73.1621 50.2716C73.2565 48.5815 72.2239 47.4679 71.1152 46.39C70.6079 46.8337 70.9086 47.2374 71.1691 47.6055C71.8109 48.5104 72.4933 49.3844 73.1621 50.2716Z" fill="#FFD470"/>
<path d="M77.1249 47.3388C77.2167 47.4409 77.2895 47.5579 77.3405 47.6848C77.529 48.2482 77.9689 48.3457 78.5166 48.4301C81.0081 48.8027 83.1717 49.7299 84.3524 52.1252C84.5206 52.2415 84.6505 52.4039 84.7262 52.5922C84.8021 52.7807 84.8204 52.9869 84.7788 53.1854L84.1235 52.3693C82.8889 50.8654 81.2325 50.2 79.3336 49.9871C78.8129 49.925 78.0767 50.027 77.8522 49.4947C77.8522 49.4947 75.4147 45.9902 73.2554 45.0587C73.2643 45.0765 75.4191 44.7748 77.1249 47.3388Z" fill="#CC8F00"/>
<path d="M79.9575 59.9685C82.6509 61.5123 85.3938 60.9932 88.0737 59.9685C89.4789 59.4273 90.7672 58.5934 91.3328 57.1028C93.4348 51.4375 93.8553 45.2968 92.5448 39.4033C92.2262 37.9437 92.1677 36.4133 91.4225 35.0825C91.2591 34.8708 91.0331 34.7143 90.7758 34.6349C90.5184 34.5554 90.2425 34.5568 89.9861 34.6389C90.327 34.4266 90.7373 34.3509 91.1328 34.4277C91.5284 34.5043 91.8794 34.7275 92.1139 35.0515L92.1902 35.1313C92.5056 35.5658 92.7397 36.0526 92.8815 36.5686C93.6671 38.8665 93.887 41.2752 94.0262 43.6662C94.2103 46.8024 94.2776 49.9654 93.281 52.9818C92.7434 54.4357 92.4403 55.9641 92.3833 57.511C92.3953 57.9993 92.2773 58.4822 92.0409 58.9111C91.8045 59.3402 91.4581 59.7002 91.0365 59.9552C88.8684 61.4635 86.2615 62.2313 83.6115 62.1421C82.0135 62.0845 80.4692 61.6719 79.6701 60.0617C79.7734 60.0483 79.9036 59.9375 79.9575 59.9685Z" fill="#CC8F00"/>
<path d="M86.0575 31.0635C86.0575 31.0635 87.3145 30.0921 88.8991 31.5648C89.335 31.9938 89.609 32.5574 89.6757 33.1618C89.7745 33.6497 89.8823 34.1421 89.9855 34.63C89.5366 37.1319 89.6802 39.6516 89.8553 42.1713C89.9495 43.542 89.4064 45.1389 91.1347 46.0617C90.1291 45.8265 89.2538 45.5249 88.3605 45.2543C88.0013 45.1434 87.7364 45.037 88.0596 44.6377C89.0966 43.3557 88.9575 41.812 89.0472 40.317C89.128 38.9862 88.5131 37.6998 88.6791 36.4001C88.8812 34.7854 88.8722 33.2683 88.0642 31.9641C87.8846 31.6668 87.1529 30.7308 86.0575 31.0635Z" fill="#CC8F00"/>
<path d="M82.2965 29.9672C82.6049 29.6921 82.9867 29.5103 83.3966 29.4435C83.8064 29.3766 84.2271 29.4275 84.6084 29.5902C84.7004 29.6235 84.789 29.665 84.8733 29.7143C85.3559 30.0685 85.7543 30.5227 86.0404 31.0451C85.908 33.091 85.908 35.1432 86.0404 37.189C86.1236 38.2309 86.1415 39.2768 86.0943 40.3208C85.9642 41.8112 85.7756 43.324 86.7227 44.8677C85.7263 44.4018 84.7296 44.8278 83.8408 44.2466C84.5335 43.5902 84.9799 42.7204 85.1068 41.7802C85.6094 38.7371 85.1381 35.7163 85.1561 32.6864C85.1894 32.2035 85.1239 31.719 84.9635 31.2617C84.803 30.8044 84.5509 30.3838 84.2224 30.0249C83.9665 29.7897 83.311 29.3949 82.2965 29.9672Z" fill="#CC8F00"/>
<path d="M59.6032 23.1759L59.1004 24.2361C58.9545 24.5457 58.8961 24.8888 58.9317 25.2285C58.9673 25.5682 59.0954 25.8922 59.3025 26.1658L64.2404 32.6822C64.2638 32.7103 64.2958 32.7299 64.3317 32.738C64.3674 32.746 64.405 32.7422 64.4383 32.7269C64.4716 32.7118 64.499 32.6861 64.516 32.6538C64.533 32.6217 64.5387 32.5848 64.5323 32.5491C64.1642 30.9078 63.0105 26.707 60.2452 23.1049C60.2043 23.0562 60.1518 23.0182 60.0923 22.9944C60.0329 22.9706 59.9685 22.962 59.9048 22.969C59.841 22.976 59.7801 22.9986 59.7275 23.0347C59.6749 23.0709 59.6322 23.1194 59.6032 23.1759Z" fill="#3F4350"/>
<path d="M65.7306 25.3581C65.7306 25.3581 65.0258 24.8702 64.6846 25.5799C64.4421 26.0857 65.4029 27.9045 65.9864 28.9292C66.0098 28.9712 66.0469 29.0041 66.0917 29.0226C66.1363 29.0412 66.1861 29.0444 66.2329 29.0315C66.2795 29.0187 66.3206 28.9906 66.3492 28.952C66.3778 28.9132 66.3923 28.8662 66.3905 28.8183C66.3366 27.6382 66.1839 25.5933 65.7306 25.3581Z" fill="#3F4350"/>
<path d="M69.2773 17.8662L68.8957 17.9195C68.6393 17.9567 68.4083 18.0931 68.2535 18.2985C68.0985 18.5039 68.0326 18.7616 68.0698 19.0151L69.7531 30.633C69.7587 30.6625 69.7746 30.6891 69.798 30.7083C69.8214 30.7274 69.8508 30.7379 69.8811 30.7379C69.9115 30.7379 69.9409 30.7274 69.9643 30.7083C69.9875 30.6891 70.0034 30.6625 70.009 30.633L71.6925 19.0151C71.7297 18.7616 71.6636 18.5039 71.5088 18.2985C71.3539 18.0931 71.1229 17.9567 70.8664 17.9195L70.4893 17.8662C70.0874 17.8085 69.6792 17.8085 69.2773 17.8662Z" fill="#3F4350"/>
<path d="M80.1605 23.1759L80.6634 24.2361C80.8103 24.5456 80.8691 24.8886 80.8336 25.2286C80.7978 25.5686 80.6692 25.8926 80.4613 26.1658L75.5233 32.6822C75.4999 32.7103 75.4679 32.7299 75.4321 32.738C75.3964 32.746 75.3589 32.7422 75.3254 32.7269C75.2921 32.7118 75.2648 32.6861 75.2478 32.6538C75.2309 32.6217 75.2251 32.5848 75.2315 32.5491C75.5996 30.9078 76.7533 26.707 79.5186 23.1049C79.5595 23.0562 79.612 23.0182 79.6713 22.9944C79.7308 22.9706 79.7953 22.962 79.8589 22.969C79.9226 22.976 79.9836 22.9986 80.0362 23.0347C80.0889 23.0709 80.1316 23.1194 80.1605 23.1759Z" fill="#3F4350"/>
<path d="M74.0379 25.3581C74.0379 25.3581 74.7381 24.8702 75.0792 25.5799C75.3218 26.0857 74.361 27.9045 73.7775 28.9292C73.7557 28.9729 73.7193 29.0078 73.6741 29.0277C73.6291 29.0476 73.5784 29.0512 73.531 29.038C73.4835 29.0249 73.4422 28.9957 73.4142 28.9555C73.3862 28.9154 73.3734 28.8668 73.378 28.8183C73.4273 27.6382 73.5799 25.5933 74.0379 25.3581Z" fill="#3F4350"/>
<path d="M119.175 32.446H183.774C184.957 32.442 186.131 32.6708 187.226 33.1192C188.321 33.5676 189.317 34.2269 190.157 35.0594C190.997 35.8919 191.665 36.8813 192.121 37.9713C192.577 39.0612 192.815 40.2302 192.819 41.4116V82.3808C192.815 83.5622 192.577 84.7312 192.121 85.8211C191.665 86.911 190.997 87.9005 190.157 88.733C189.317 89.5655 188.321 90.2248 187.226 90.6732C186.131 91.1216 184.957 91.3503 183.774 91.3464H174.24V106.682L159.94 91.3464H119.198C118.014 91.3503 116.841 91.1216 115.746 90.6732C114.651 90.2248 113.654 89.5655 112.815 88.733C111.975 87.9005 111.307 86.911 110.85 85.8211C110.394 84.7312 110.157 83.5622 110.153 82.3808V41.4116C110.161 39.0297 111.115 36.7482 112.806 35.0674C114.498 33.3867 116.788 32.444 119.175 32.446Z" fill="#FFBC1F"/>
<path d="M159.941 91.3469H119.199C118.015 91.3508 116.842 91.1222 115.747 90.6737C114.652 90.2253 113.655 89.566 112.816 88.7335C111.976 87.901 111.308 86.9115 110.852 85.8216C110.395 84.7317 110.158 83.5627 110.154 82.3813V57.5091C110.154 57.5091 112.998 80.5091 113.509 82.5336C114.02 84.5581 115.035 87.5872 119.84 88.0895C124.644 88.5918 159.941 91.3469 159.941 91.3469Z" fill="#CC8F00"/>
<path d="M173.54 56.0394C172.388 56.0394 171.263 56.38 170.306 57.0181C169.349 57.6561 168.604 58.5631 168.163 59.6242C167.724 60.6854 167.608 61.8529 167.833 62.9794C168.057 64.1058 168.611 65.1406 169.425 65.9528C170.239 66.7648 171.276 67.318 172.405 67.5419C173.533 67.766 174.703 67.6511 175.767 67.2116C176.831 66.7721 177.739 66.0277 178.379 65.0727C179.018 64.1178 179.359 62.9951 179.359 61.8464C179.36 61.0836 179.21 60.3281 178.918 59.623C178.626 58.918 178.197 58.2775 177.657 57.7381C177.116 57.1985 176.475 56.7708 175.768 56.4794C175.061 56.188 174.304 56.0385 173.54 56.0394Z" fill="white"/>
<path d="M151.473 56.0394C150.322 56.0394 149.197 56.38 148.24 57.0181C147.283 57.6561 146.537 58.5631 146.097 59.6242C145.656 60.6854 145.541 61.8529 145.766 62.9794C145.99 64.1058 146.544 65.1406 147.358 65.9528C148.172 66.7648 149.209 67.318 150.338 67.5419C151.467 67.766 152.637 67.6511 153.7 67.2116C154.763 66.7721 155.672 66.0277 156.312 65.0727C156.951 64.1178 157.292 62.9951 157.292 61.8464C157.293 61.0836 157.143 60.3281 156.851 59.623C156.559 58.918 156.131 58.2775 155.59 57.7381C155.049 57.1985 154.408 56.7708 153.701 56.4794C152.995 56.188 152.238 56.0385 151.473 56.0394Z" fill="white"/>
<path d="M129.434 56.0394C128.282 56.038 127.157 56.3772 126.199 57.0144C125.241 57.6515 124.494 58.558 124.052 59.619C123.61 60.6799 123.494 61.8477 123.718 62.9747C123.941 64.1018 124.495 65.1371 125.309 65.95C126.122 66.7629 127.159 67.3167 128.288 67.5414C129.417 67.7661 130.587 67.6516 131.651 67.2122C132.715 66.7729 133.624 66.0286 134.264 65.0736C134.904 64.1184 135.245 62.9953 135.245 61.8464C135.246 61.0842 135.097 60.3293 134.805 59.6248C134.514 58.9203 134.086 58.2801 133.546 57.7408C133.006 57.2013 132.365 56.7735 131.66 56.4816C130.954 56.1897 130.198 56.0394 129.434 56.0394Z" fill="white"/>
<path d="M186.115 49.6011C185.458 47.2827 184.349 45.1167 182.85 43.2279C181.352 41.3392 179.493 39.7649 177.382 38.5959C177.258 38.5327 177.157 38.43 177.096 38.3038C177.036 38.1776 177.02 38.035 177.049 37.8984C177.08 37.7617 177.153 37.6388 177.26 37.5488C177.368 37.4587 177.502 37.4067 177.641 37.401C181.715 37.1574 189.936 38.0251 187.358 49.5402C187.332 49.6808 187.258 49.8082 187.149 49.902C187.041 49.9959 186.903 50.0507 186.761 50.0577C186.617 50.0646 186.476 50.0235 186.359 49.9407C186.241 49.858 186.156 49.7384 186.115 49.6011Z" fill="#FFD470"/>
</g>
<defs>
<clipPath id="clip0_2_40">
<rect width="233.869" height="136" fill="white" transform="translate(34)"/>
</clipPath>
</defs>
</svg>
