<svg width="73" height="61" viewBox="0 0 73 61" fill="none" xmlns="http://www.w3.org/2000/svg">
<path d="M45.9032 7.27342C41.0854 9.76467 36.3086 12.3414 31.5366 14.9193C30.2388 15.6204 28.6603 16.0047 27.6997 17.1242C27.5056 17.3504 28.0983 17.5675 28.2908 17.795C30.6169 20.5444 42.0535 33.639 41.1114 31.9108C39.0683 28.1628 36.3672 25.2318 33.6708 21.9676C32.2603 20.26 29.5048 16.5268 29.5048 16.5268" stroke="#06D6A0" stroke-width="2" stroke-linecap="round" stroke-linejoin="round"/>
<path d="M28 17C53.5 17 77.5 29 69.5 59.5" stroke="#06D6A0" stroke-width="3" stroke-linecap="round"/>
<path d="M27.8521 8.46618C21.801 2.35513 10.5 -2 3.28502 7.64905C-0.750178 13.0456 0.999809 21.4998 6.34037 25.8923C12.4936 30.9532 20.2284 30.2006 25 25C31.7058 17.6913 26.0718 5.26873 15.8992 5.26873" stroke="#06D6A0" stroke-width="2" stroke-linecap="round" stroke-linejoin="round"/>
</svg>
