<svg width="218" height="121" viewBox="0 0 218 121" fill="none" xmlns="http://www.w3.org/2000/svg">
<path d="M19.5002 51.7417C19.5002 51.7417 15.5 50.6165 14.1049 52.3839C13.6154 52.9805 13.3481 53.7271 13.3481 54.4974C13.3481 55.2678 13.6154 56.0144 14.1049 56.611C13.3502 56.8415 12.7142 57.3534 12.3298 58.0399C11.6947 59.18 11.6947 61.8487 14.6199 63.9398C14.6199 63.9398 12.9598 64.9356 13.8199 67.3503C14.6799 69.765 22.3204 76.5462 26.1507 79.17C29.9809 81.7939 32.4611 82.944 34.7013 83.4568C36.9414 83.9696 38.4265 84.826 39.7466 85.3985C41.0667 85.9711 42.7868 86.1404 44.9669 85.3985C47.1471 84.6567 50.3023 83.8003 51.7924 77.7461C53.2825 71.6918 44.6269 54.2759 44.6269 54.2759C44.6269 54.2759 43.3068 51.7865 40.2666 54.2759C37.2264 56.7653 19.5002 51.7417 19.5002 51.7417Z" fill="#A37200"/>
<path d="M41.4161 37.9809L40.571 38.8223C40.3256 39.0683 40.1517 39.3761 40.0681 39.7128C39.9844 40.0495 39.9941 40.4025 40.096 40.7341L42.5312 48.6356C42.5379 48.6736 42.5579 48.7081 42.5876 48.7329C42.6173 48.7577 42.6549 48.7714 42.6937 48.7714C42.7325 48.7714 42.77 48.7577 42.7998 48.7329C42.8295 48.7081 42.8495 48.6736 42.8562 48.6356C43.3063 45.1325 43.034 41.5748 42.0561 38.18C42.0418 38.1136 42.0101 38.0521 41.9641 38.002C41.9181 37.9518 41.8596 37.9147 41.7945 37.8944C41.7294 37.8741 41.66 37.8715 41.5936 37.8867C41.5271 37.9019 41.4658 37.9344 41.4161 37.9809Z" fill="#3F4350"/>
<path d="M46.4667 42.1481C46.4667 42.1481 45.9666 41.4411 45.3966 42.0087C44.9966 42.407 45.2766 44.4682 45.4766 45.6482C45.4853 45.6948 45.5092 45.7372 45.5446 45.7688C45.5801 45.8004 45.6251 45.8194 45.6725 45.8228C45.72 45.8262 45.7672 45.8138 45.8069 45.7876C45.8465 45.7615 45.8763 45.7229 45.8916 45.6781C46.2516 44.5329 46.8167 42.5314 46.4667 42.1481Z" fill="#3F4350"/>
<path d="M52.4166 36.2029L52.0365 36.1233C51.781 36.0759 51.517 36.1295 51.3005 36.2726C51.0839 36.4157 50.9318 36.6372 50.8765 36.89L48.4563 48.5554C48.4522 48.5849 48.4585 48.6149 48.474 48.6403C48.4896 48.6658 48.5135 48.6851 48.5417 48.695C48.5699 48.705 48.6006 48.7049 48.6288 48.6949C48.657 48.6849 48.6808 48.6655 48.6963 48.64L54.3117 38.1198C54.4295 37.8892 54.4525 37.6221 54.376 37.3749C54.2995 37.1277 54.1294 36.9199 53.9017 36.7954L53.5616 36.6112C53.2017 36.4209 52.816 36.2834 52.4166 36.2029Z" fill="#3F4350"/>
<path d="M60.8923 44.9754L61.0023 46.1604C61.0339 46.5057 60.9705 46.8531 60.819 47.1653C60.6675 47.4775 60.4336 47.7428 60.1422 47.9329L53.2068 52.4686C53.1755 52.4917 53.137 52.5031 53.0981 52.5007C53.0592 52.4983 53.0224 52.4822 52.9943 52.4554C52.9661 52.4285 52.9484 52.3926 52.9443 52.354C52.9402 52.3155 52.9499 52.2767 52.9718 52.2445C54.8716 49.2521 57.3662 46.6784 60.3023 44.6817C60.3583 44.6463 60.4226 44.6259 60.4889 44.6226C60.5552 44.6192 60.6213 44.633 60.6806 44.6625C60.74 44.6921 60.7907 44.7364 60.8278 44.7913C60.8649 44.8461 60.8871 44.9095 60.8923 44.9754Z" fill="#3F4350"/>
<path d="M54.3381 44.9704C54.3381 44.9704 55.1681 44.7464 55.2481 45.543C55.3031 46.1056 53.748 47.5345 52.853 48.2963C52.8164 48.3283 52.77 48.3469 52.7214 48.3493C52.6728 48.3516 52.6249 48.3374 52.5854 48.3091C52.5459 48.2808 52.5173 48.24 52.5041 48.1933C52.491 48.1467 52.4941 48.097 52.5129 48.0523C52.973 46.9421 53.823 45.0451 54.3381 44.9704Z" fill="#3F4350"/>
<path d="M18.8094 57.7566L17.0293 59.8676L17.3743 61.2368L21.2745 66.7135L25.9799 72.25L31.6602 77.2786L37.1256 80.4302L40.9709 82.2574L45.1012 82.8848L49.0614 81.6848C49.0614 81.6848 52.6716 79.1158 52.9017 79.061C53.1317 79.0062 54.9018 76.716 54.9018 76.716L55.4018 74.5452C55.1991 72.6048 54.8735 70.6792 54.4268 68.7797C53.7367 65.9766 52.9267 63.9801 52.5316 61.182C52.1366 58.3839 51.6166 56.6115 51.2166 55.9841C50.8165 55.3568 49.4914 52.3844 49.4914 52.3844L49.3814 50.4974C49.3314 50.2919 49.2102 50.1104 49.0393 49.9847C48.8683 49.8591 48.6584 49.7974 48.4464 49.8104C47.7513 49.8651 46.4062 50.0643 45.8812 50.7265C45.1781 51.7487 44.5816 52.8397 44.1011 53.9826L43.526 56.472C43.526 56.472 37.2156 50.6468 34.8104 48.1325C32.4053 45.6182 30.5052 43.1537 29.3101 43.4524C28.052 43.8471 26.821 44.3228 25.6248 44.8763C25.373 45.2858 25.2855 45.7747 25.3798 46.2455L26.0149 47.5699C26.0149 47.5699 24.5798 46.2754 23.8147 45.5136C23.298 45.041 22.6386 44.7522 21.9396 44.6921L18.3243 46.614L18.5744 48.4611V49.9846L16.5742 52.1554V53.9079L17.3043 55.5858L18.6394 56.9948L18.8094 57.7566Z" fill="#FFBC1F"/>
<path d="M43.0762 56.0731C43.0762 56.0731 43.6562 51.1989 46.7664 50.1533C46.7664 50.1533 41.6961 54.2509 49.0416 62.2867L43.0762 56.0731Z" fill="#CC8F00"/>
<path d="M28.705 43.3025C28.705 43.3025 27.5299 42.6154 26.5798 43.0735C26.1266 43.2653 25.7289 43.5673 25.4232 43.9517C25.1174 44.3362 24.9134 44.7909 24.8297 45.2741C24.7447 46.1852 24.6297 46.6134 25.1497 47.3005C25.6698 47.9876 28.82 51.3582 29.48 52.1549C30.1401 52.9515 32.5203 55.2865 33.3503 56.2176C34.1804 57.1486 35.3504 58.3834 35.8155 58.8364C36.2805 59.2895 36.5355 59.409 36.8155 59.3343C37.0956 59.2596 37.2156 58.9908 37.1906 58.4481C37.1656 57.9054 36.8905 57.7062 36.3055 57.1934C35.7205 56.6806 32.5152 54.3356 31.6552 53.2104C30.6026 51.869 29.481 50.5827 28.295 49.3568C27.1799 48.2116 25.8598 46.8673 25.7448 46.2998C25.6298 45.7322 25.0597 43.3622 28.705 43.3025Z" fill="#CC8F00"/>
<path d="M21.4497 44.1295C21.0519 44.1607 20.6644 44.2705 20.3098 44.4526C19.9552 44.6347 19.6406 44.8854 19.3845 45.19C18.5245 46.2157 18.4945 47.072 18.6645 47.6794C18.8345 48.2869 19.9846 49.7954 20.8446 50.6667C21.7047 51.538 24.1099 53.9528 24.7549 54.6946C25.3999 55.4365 27.7851 57.8611 28.3601 58.3789C28.9352 58.8967 30.2953 59.8029 30.9753 60.2908C31.6523 60.7978 32.2666 61.3827 32.8054 62.0334C33.3055 62.606 33.5205 63.2632 33.0355 63.3179C32.5504 63.3727 31.8454 63.069 30.9753 62.2823C30.1053 61.4957 26.15 57.1741 25.1249 56.0986C24.0999 55.0232 21.4547 52.24 20.9346 51.6177C20.4146 50.9953 19.2145 49.6262 18.8145 49.417C18.4145 49.2079 17.6644 49.5266 17.2644 50.129C16.9933 50.5477 16.8124 51.0179 16.7332 51.5099C16.654 52.0018 16.6782 52.5047 16.8044 52.9869C17.3431 54.524 18.1942 55.9341 19.3045 57.1293C20.1946 57.9856 24.9849 62.7006 25.875 63.4673C26.765 64.234 28.3751 65.6381 29.1152 66.3252C29.8552 67.0122 30.2203 67.4952 30.1853 67.9234C30.1871 68.0264 30.165 68.1285 30.1205 68.2215C30.0761 68.3146 30.0107 68.3962 29.9293 68.4599C29.8479 68.5235 29.7528 68.5676 29.6515 68.5885C29.5501 68.6094 29.4453 68.6067 29.3452 68.5806C28.8852 68.4362 28.1701 67.4952 27.4801 66.589C26.79 65.6829 22.2297 60.9878 21.4797 60.0767C20.7296 59.1656 19.2845 57.2587 18.6745 57.2537C18.3368 57.2742 18.0111 57.3855 17.732 57.5758C17.4528 57.7661 17.2308 58.0281 17.0894 58.3341C16.8894 58.9067 17.2344 60.5348 17.9244 61.5056C18.6145 62.4765 22.2047 67.2512 22.9248 68.0528C23.6448 68.8544 29.4252 74.7543 31.2203 76.1235C33.4471 77.7461 35.8307 79.1437 38.3358 80.2958C39.8359 80.8683 43.2111 82.1777 46.5964 81.3811C49.9816 80.5845 53.4768 79.0959 55.3719 74.5253C55.3719 74.5253 55.4269 81.9935 45.7913 83.6664C41.146 84.4083 39.2509 82.6955 38.0458 81.8392C36.6234 80.7854 35.1298 79.8305 33.5755 78.9813C29.9999 76.8507 26.792 74.1609 24.0748 71.0152C21.2347 67.5599 17.3744 62.6209 16.5293 60.5597C15.6843 58.4984 16.6844 57.1392 17.6044 56.6762C17.6044 56.6762 14.6042 54.0374 15.9193 51.0949C16.8394 49.1034 18.2895 48.8345 18.2895 48.8345C18.2895 48.8345 17.1844 46.3949 18.6345 44.9461C20.0846 43.4972 21.4497 44.1295 21.4497 44.1295Z" fill="#CC8F00"/>
<path d="M18.5595 45.8765C18.5055 46.0209 18.4905 46.1769 18.516 46.3289C18.5414 46.4809 18.6064 46.6236 18.7046 46.7428C18.8796 46.9668 19.1146 47.2705 19.3246 47.5842C19.775 48.2184 20.3763 48.7316 21.0747 49.0778C21.4508 49.185 21.8479 49.1955 22.2292 49.1085C22.6104 49.0214 22.9633 48.8396 23.2549 48.58C23.5377 48.3087 23.7355 47.9617 23.8242 47.5808C23.913 47.1999 23.8889 46.8016 23.7549 46.4341C23.3384 45.6084 22.7524 44.879 22.0348 44.2932C21.4898 43.8351 20.3747 44.2086 19.9696 44.4675C19.3629 44.7784 18.8696 45.2712 18.5595 45.8765Z" fill="#FFD470"/>
<path d="M28.7065 43.3028C29.3067 43.7049 29.8812 44.1439 30.4266 44.6172C30.6363 44.8262 30.7827 45.0897 30.849 45.3776C30.9153 45.6655 30.8989 45.9662 30.8016 46.2453C30.5416 46.8726 30.3016 47.8734 28.7065 47.4751C27.6065 47.2379 26.6114 46.657 25.8663 45.8171C25.3662 45.2744 25.6063 44.4479 26.0963 43.7609C26.4053 43.3875 26.838 43.1363 27.3165 43.0523C27.795 42.9684 28.2879 43.0572 28.7065 43.3028Z" fill="#FFD470"/>
<path d="M50.9575 55.5062C51.0875 55.7451 49.3824 54.595 48.6173 52.7678C47.8523 50.9406 48.1173 50.2087 48.9523 50.1539C49.7874 50.0991 49.9174 50.9406 49.9974 51.5878C50.2076 52.9182 50.5287 54.2289 50.9575 55.5062Z" fill="#FFD470"/>
<path d="M19.0197 49.3175C19.0797 49.3523 20.0197 50.5771 20.2648 50.8759C20.6526 51.3291 20.8685 51.9035 20.8748 52.499C20.8748 53.2408 20.4148 54.1768 19.7247 54.2515C19.2836 54.3304 18.8295 54.2929 18.4075 54.1426C17.9855 53.9924 17.6104 53.7347 17.3196 53.3952C16.5695 52.499 16.2845 51.9364 16.5695 51.1447C16.8545 50.3531 17.9446 48.7897 19.0197 49.3175Z" fill="#FFD470"/>
<path d="M18.9649 57.2238C18.7354 57.1462 18.4904 57.1252 18.2509 57.1625C18.0114 57.1997 17.7846 57.2943 17.5898 57.4379C16.8997 57.9358 16.5597 58.4685 16.5897 58.8668C16.7 59.3122 16.8806 59.7374 17.1248 60.1265C17.2229 60.3934 17.3792 60.6354 17.5824 60.8351C17.7855 61.0348 18.0305 61.1873 18.2998 61.2816C18.6176 61.3727 18.9544 61.3744 19.273 61.2865C19.5916 61.1986 19.8796 61.0246 20.105 60.7837C20.2842 60.6306 20.4264 60.4391 20.5208 60.2235C20.6152 60.008 20.6593 59.7739 20.65 59.539C20.625 59.0013 19.6999 57.4279 18.9649 57.2238Z" fill="#FFD470"/>
<path d="M150.266 84.2336L158.027 81.4274L152.161 78.5986L150.266 84.2336Z" fill="#CC8F00"/>
<path d="M172.908 61.1299L161.873 49.6514L160.092 54.9539L172.908 61.1299Z" fill="#FFBC1F"/>
<path d="M160.092 54.9541L158.109 60.8652L182.445 72.5917L183.545 72.1972L172.908 61.1301L160.092 54.9541Z" fill="#CC8F00"/>
<path d="M156.127 66.7707L174.308 75.5388L182.445 72.5917L158.11 60.8652L156.127 66.7707Z" fill="#FFBC1F"/>
<path d="M154.145 72.6873L166.171 78.4801L174.308 75.5386L156.127 66.7705L154.145 72.6873Z" fill="#CC8F00"/>
<path d="M154.143 72.6875L152.16 78.5986L158.026 81.4274L166.169 78.4803L154.143 72.6875Z" fill="#FFBC1F"/>
<path d="M177.395 56.2502C183.522 62.4825 186.654 69.3741 184.476 71.6394C182.297 73.9047 175.478 70.6871 169.356 64.4491C163.234 58.2112 160.097 51.3252 162.275 49.0655C164.454 46.8059 171.273 50.0122 177.395 56.2502Z" fill="#7A5600"/>
<path d="M169.782 40.5456C168.3 38.4212 169.907 37.4689 171.879 37.852C170.005 35.4684 171.16 33.8174 174.112 34.471C175.032 34.6739 173.747 36.2855 172.925 36.2235C175.403 38.1451 174.014 40.168 171.416 39.7003C173.736 43.0025 169.744 42.1854 168.001 42.3263C167.543 44.7944 170.272 47.6119 169.363 47.6119C167.331 47.6063 164.09 39.813 169.782 40.5456Z" fill="#5D89EA"/>
<path d="M188.889 45.1102C187.543 45.7357 183.709 39.5259 188.409 39.4752C185.713 36.9338 186.056 35.711 189.684 35.6321C185.528 31.3269 192.091 29.7717 192.783 32.0764C192.99 32.7639 190.773 31.4678 190.06 32.7075C189.226 34.1332 195.168 37.7396 189.036 37.5255C191.29 39.9034 191.427 41.0079 187.832 41.408C188.295 42.0785 189.738 44.7101 188.889 45.1102Z" fill="#CC8F00"/>
<path d="M190.412 59.7611L191.79 58.5496C192.435 59.526 193.18 60.4272 194.012 61.2375C194.715 57.8959 194.524 55.8617 198.293 58.1833C196.164 52.3624 199.677 54.56 202.994 56.1378C202.798 54.6614 202.994 54.8192 204.459 54.3966C205.733 59.3441 202.307 57.9129 199.513 56.29C201.109 60.7529 199.437 60.5444 195.94 59.023C195.886 60.9163 195.287 63.0576 194.187 63.2436C192.939 63.4464 190.412 59.7611 190.412 59.7611Z" fill="#C43133"/>
<path d="M180.232 45.7803C178.555 48.0344 176 49.2966 174.067 51.2688C172.051 53.3256 170.848 58.9776 170.848 58.9776C170.848 58.9776 171.567 53.0833 173.495 50.8124C175.238 48.7613 177.727 47.268 179.077 44.8787C181.49 40.613 179.339 34.8991 176.256 31.6365C176.904 31.0391 177.765 30.284 178.282 29.7656C181.18 33.6087 183.756 41.0413 180.232 45.7803Z" fill="#3C64B9"/>
<path d="M183.032 50.5985C180.636 52.3791 178.986 54.9713 177.313 57.4394C175.832 59.6201 171.219 62.2968 171.219 62.2968C171.219 62.2968 175.576 59.237 176.905 56.9435C178.539 54.126 180.173 51.2071 182.695 49.1672C187.782 45.0874 195.113 45.5439 200.87 47.6908C200.538 48.553 199.863 50.3336 199.863 50.3336C199.863 50.3336 187.869 46.9921 183.032 50.5985Z" fill="#CC8F00"/>
<path d="M193.152 50.1817C191.627 52.2779 190.843 54.808 189.672 57.1071C188.582 59.2484 187.145 61.3221 185.015 62.4604C182.7 63.7001 177.455 63.2775 177.455 63.2775C177.455 63.2775 182.673 63.2098 184.813 61.7165C186.954 60.2233 188.152 57.6143 189.007 55.1236C190.609 50.4691 192.618 45.3806 197.352 43.29L198.305 45.9498C198.305 45.9498 195.696 46.6711 193.152 50.1817Z" fill="#5D89EA"/>
<path d="M153.959 37.7022L151.391 40.3604L153.96 43.0176L156.528 40.3594L153.959 37.7022Z" fill="#5D89EA"/>
<path d="M157.541 46.0987L154.973 48.7568L157.542 51.4141L160.11 48.7559L157.541 46.0987Z" fill="#CC8F00"/>
<path d="M164.033 33.4629L161.465 36.1211L164.034 38.7783L166.603 36.1202L164.033 33.4629Z" fill="#C43133"/>
<path d="M192.036 65.2915L189.467 67.9492L192.036 70.6069L194.605 67.9492L192.036 65.2915Z" fill="#3C64B9"/>
<path d="M186.262 74.3389L183.693 76.9971L186.263 79.6543L188.831 76.9962L186.262 74.3389Z" fill="#C43133"/>
<path d="M197.573 76.5015L195.004 79.1592L197.573 81.8169L200.142 79.1592L197.573 76.5015Z" fill="#CC8F00"/>
<path d="M200.143 64.394L197.574 67.0518L200.143 69.7095L202.712 67.0517L200.143 64.394Z" fill="#5D89EA"/>
<path d="M195.903 36.3955L193.334 39.0527L195.902 41.7109L198.472 39.0536L195.903 36.3955Z" fill="#5D89EA"/>
<path d="M168.266 52.2481L165.697 54.9062L168.267 57.5635L170.835 54.9053L168.266 52.2481Z" fill="#DA6C6E"/>
<path d="M80.4447 60.2625C79.7075 60.2674 78.9797 60.0963 78.3219 59.7635C76.5373 58.867 74.406 56.3805 74.406 49.809C74.406 36.0147 67.1241 28.1407 67.048 28.0646L65.8301 26.7707L72.3086 19.6494L73.4165 21.3409C73.5518 21.5439 76.9349 26.4154 82.3477 25.0115L83.092 28.5383C77.7722 29.9592 73.924 26.9821 72.0971 25.0199L70.4056 26.8383C72.6976 29.8746 77.6284 37.8331 77.6284 49.8344C77.6284 53.4204 78.3642 55.8392 79.6413 56.4905C80.6139 56.9726 82.0601 56.4397 83.4133 55.1034C86.9486 51.5851 89.5535 42.8146 89.5789 42.73L92.649 43.8634C92.539 44.2609 89.7565 53.6487 85.5531 57.8099C84.2386 59.2668 82.4036 60.1478 80.4447 60.2625Z" fill="#CC8F00"/>
<path d="M133.245 60.2625C133.979 60.2673 134.704 60.0963 135.359 59.7635C137.152 58.867 139.283 56.3805 139.283 49.809C139.283 36.0147 146.557 28.1407 146.633 28.0646L147.851 26.7707L141.381 19.6494L140.273 21.3409C140.129 21.5439 136.746 26.4154 131.342 25.0115L130.589 28.5298C135.917 29.9592 139.765 26.9736 141.584 25.0199L143.233 26.8383C140.941 29.8746 136.01 37.8331 136.01 49.8344C136.01 53.4119 135.274 55.8392 133.997 56.482C133.025 56.9725 131.587 56.482 130.234 55.095C126.724 51.5597 124.094 42.7892 124.094 42.6793L121.023 43.8042C121.142 44.2017 123.924 53.5895 128.119 57.7591C129.433 59.2344 131.274 60.1336 133.245 60.2625Z" fill="#CC8F00"/>
<path d="M111.011 50.9932H102.672V84.4512H111.011V50.9932Z" fill="#CC8F00"/>
<path d="M109.301 50.9932H104.379V84.4512H109.301V50.9932Z" fill="#FFBC1F"/>
<path d="M79.2695 19.6494C81.6207 40.6749 93.0807 57.5392 106.85 57.5392C120.618 57.5392 132.078 40.6749 134.43 19.6494L79.2695 19.6494Z" fill="#CC8F00"/>
<path d="M84.5801 19.6494C86.483 40.9201 95.7271 57.979 106.84 57.979C117.954 57.979 127.206 40.9201 129.101 19.6494L84.5801 19.6494Z" fill="#FFBC1F"/>
<path d="M128.229 90.7347H85.4512C85.4512 90.7347 95.0251 78.3867 106.84 78.3867C118.655 78.3867 128.229 90.7347 128.229 90.7347Z" fill="#CC8F00"/>
<path d="M123.071 90.7352H90.6113C90.6113 90.7352 97.8764 78.2012 106.841 78.2012C115.806 78.2012 123.071 90.7352 123.071 90.7352Z" fill="#FFBC1F"/>
<path d="M134.437 93.4668H79.252V101.671H134.437V93.4668Z" fill="#A37200"/>
<path d="M128.238 90.7354H85.4512V93.4672H128.238V90.7354Z" fill="#6F370B"/>
<path d="M120.517 95.5225H93.1738V99.6244H120.517V95.5225Z" fill="#CC8F00"/>
<path d="M81.9837 93.4668H79.252V101.671H81.9837V93.4668Z" fill="#CC8F00"/>
<path d="M134.429 93.4668H131.697V101.671H134.429V93.4668Z" fill="#6F370B"/>
<path d="M119.138 95.5225H94.5352V99.6244H119.138V95.5225Z" fill="#FFBC1F"/>
</svg>
