<svg width="128" height="109" viewBox="0 0 128 109" fill="none" xmlns="http://www.w3.org/2000/svg">
<g clip-path="url(#clip0_2287_27883)">
<rect opacity="0.16" x="-0.106445" y="16.9929" width="63.8884" height="72.6693" rx="2.14226" transform="rotate(-15 -0.106445 16.9929)" fill="#090A0B"/>
<rect x="0.535645" y="15.8806" width="63.8884" height="72.6693" rx="2.14226" transform="rotate(-15 0.535645 15.8806)" fill="#F4F4F6"/>
<rect x="5.51318" y="19.2488" width="55.7131" height="55.7131" rx="1.60669" transform="rotate(-15 5.51318 19.2488)" fill="#32A4EC"/>
<mask id="mask0_2287_27883" style="mask-type:alpha" maskUnits="userSpaceOnUse" x="5" y="5" width="69" height="68">
<rect x="5.51318" y="19.2488" width="55.7131" height="55.7131" rx="1.07113" transform="rotate(-15 5.51318 19.2488)" fill="#32A4EC"/>
</mask>
<g mask="url(#mask0_2287_27883)">
<path d="M59.7467 36.5718C60.0253 36.8862 60.1878 37.2164 60.2343 37.5624C60.1646 37.9242 60.0949 38.286 59.7776 38.564L56.5891 41.2288C56.0551 41.6537 55.8848 42.1466 56.1944 42.6917L57.4325 46.6335C57.6104 47.079 57.6569 47.425 57.355 47.8184C57.1693 48.1959 56.8365 48.3586 56.3722 48.4218L52.2396 49.336C51.6591 49.4149 51.2412 49.824 51.0864 50.4322L50.3511 54.6424C50.1653 55.02 49.9796 55.3975 49.6468 55.5602C49.314 55.7229 48.9658 55.7702 48.486 55.718L44.5237 54.3778C43.9123 54.2261 43.4634 54.4045 43.0455 54.8137L40.3987 57.992C40.0814 58.27 39.7486 58.4327 39.2843 58.4958C38.8045 58.4436 38.4407 58.3756 38.1621 58.0612L35.4923 54.9012C35.0667 54.3719 34.5714 54.2044 34.0219 54.514L30.1679 55.7426C29.719 55.921 29.3708 55.9684 28.9761 55.6698C28.5969 55.4864 28.3183 55.172 28.2564 54.7107L27.3356 50.4908C27.1422 49.93 26.8481 49.5002 26.2367 49.3485L22.1196 48.6165C21.6398 48.5643 21.2451 48.2657 21.0826 47.9355C20.9201 47.6053 20.8737 47.2593 21.044 46.7664L22.2901 42.8391C22.561 42.2151 22.383 41.7695 21.8567 41.3713L19.0012 38.5889C18.7226 38.2745 18.5601 37.9442 18.4982 37.4829C18.4363 37.0216 18.622 36.6441 19.0554 36.3503L22.2594 33.8008C22.6773 33.3917 22.8321 32.7835 22.6387 32.2226L21.2999 28.4119C21.238 27.9505 21.1916 27.6045 21.4935 27.2112C21.6792 26.8336 21.9965 26.5556 22.4608 26.4925L26.5083 25.8247C27.0733 25.6305 27.5067 25.3367 27.6615 24.7285L28.4123 20.6336C28.4665 20.1565 28.7683 19.7632 29.1011 19.6005C29.4339 19.4378 29.8982 19.3747 30.2774 19.558L34.1236 20.914C34.7504 21.1811 35.1993 21.0026 35.6018 20.4781L38.3801 17.3994C38.6974 17.1214 39.0302 16.9587 39.3785 16.9113C39.7267 16.864 40.1059 17.0473 40.5161 17.4613L43.1859 20.6213C43.5961 21.0352 44.0913 21.2028 44.6563 21.0085L48.6109 19.6488C49.0753 19.5856 49.4235 19.5383 49.8182 19.8369C50.1974 20.0202 50.3599 20.3504 50.4218 20.8118L51.1956 24.8167C51.2884 25.5087 51.6986 25.9227 52.3099 26.0744L56.2955 26.7069C56.6747 26.8902 57.0539 27.0735 57.2164 27.4037C57.3789 27.7339 57.4408 28.1952 57.3711 28.557L55.8774 32.4006C55.7226 33.0088 55.9006 33.4543 56.3107 33.8683L59.7467 36.5718Z" fill="#FFBC1F"/>
<path d="M67.7685 31.8217L74.5367 57.5839C74.6495 58.4214 74.3538 58.9487 73.5458 59.3019L43.0935 67.3271C40.8436 66.0483 38.9377 64.6011 37.2235 62.7624C35.6455 61.027 34.4993 58.8677 33.9532 56.6271C33.0293 52.4884 34.37 47.9211 38.1273 43.148C41.8846 38.375 47.1556 34.8587 53.9724 32.8385C58.9331 31.5571 63.5264 31.1783 67.7685 31.8217Z" fill="#297A5A"/>
<path d="M73.5385 59.3006L20.299 73.355C19.4568 73.4695 18.9275 73.1764 18.5747 72.3725L12.7213 50.656C14.9029 48.6556 17.1647 47.2529 19.7633 46.5344C26.0433 44.9503 32.1067 44.4909 38.2101 45.2429C44.2974 45.8754 50.1521 47.513 55.6058 49.8136C59.1105 51.2841 62.3747 52.7872 65.5346 54.4262C68.6784 55.9458 71.5817 57.498 74.0759 58.7408C73.9877 58.9962 73.7791 59.2679 73.5385 59.3006Z" fill="#339970"/>
</g>
<rect opacity="0.16" x="65.6118" y="22.8103" width="63.8884" height="72.6693" rx="2.14226" transform="rotate(15 65.6118 22.8103)" fill="#090A0B"/>
<rect x="66.7246" y="22.168" width="63.8884" height="72.6693" rx="2.14226" transform="rotate(15 66.7246 22.168)" fill="#F4F4F6"/>
<rect x="69.3511" y="27.574" width="55.7131" height="55.7131" rx="1.60669" transform="rotate(15 69.3511 27.574)" fill="#32A4EC"/>
<mask id="mask1_2287_27883" style="mask-type:alpha" maskUnits="userSpaceOnUse" x="55" y="27" width="68" height="69">
<rect x="69.3511" y="27.574" width="55.7131" height="55.7131" rx="1.07113" transform="rotate(15 69.3511 27.574)" fill="#32A4EC"/>
</mask>
<g mask="url(#mask1_2287_27883)">
<mask id="mask2_2287_27883" style="mask-type:alpha" maskUnits="userSpaceOnUse" x="53" y="26" width="72" height="71">
<rect x="68.4932" y="26.0874" width="57.9522" height="57.9522" rx="1.07113" transform="rotate(15 68.4932 26.0874)" fill="#32A4EC"/>
</mask>
<g mask="url(#mask2_2287_27883)">
<path d="M110.113 68.486C112.233 71.1751 114.151 73.3469 115.609 75.1022L109.882 96.6468C109.555 97.4895 109.026 97.815 108.173 97.6117L53.8144 83.0056C52.9722 82.6786 52.6472 82.1499 52.8506 81.2957L58.5776 59.7512C60.7696 58.9554 63.4788 57.9578 66.705 56.7584C69.9313 55.559 73.4275 54.1351 77.3173 52.498C79.1386 51.6681 80.9599 50.8382 82.5455 49.8619C84.1196 49.0092 85.3002 48.3697 86.2109 47.9547C87.133 47.4161 88.2679 47.2712 89.3687 47.4972C90.4808 47.5996 91.5816 47.8256 92.4352 48.0289C93.2888 48.2322 94.2545 48.5705 95.3325 49.0438C96.4104 49.5172 97.2183 50.2151 97.8799 51.1489C98.3171 51.8126 99.0794 53.0051 100.055 54.5913C101.03 56.1774 102.005 57.7636 103.227 59.3725C105.526 62.8263 107.87 65.7855 110.113 68.486Z" fill="#3F4350"/>
<path d="M107.726 65.7026C106.602 64.3437 106.028 63.727 105.327 64.5425C104.49 65.4712 103.022 66.4679 100.663 67.6346C97.7962 68.8806 95.2355 69.5263 92.9691 69.6963C90.7026 69.8663 89.0829 68.4621 88.0981 65.6082C87.1134 62.7543 85.7648 61.1235 84.3002 60.7385C82.7117 60.3422 81.0419 60.818 79.1787 62.03C77.3155 63.2419 75.8937 63.7403 75.0491 63.4119C74.0804 63.0722 73.3945 62.3814 72.7666 61.0677C72.185 59.2557 71.9638 57.6022 72.2037 56.3677C72.4552 55.0087 71.8172 54.7757 70.5194 55.2855L80.8536 50.7498L84.1502 48.9149C85.076 48.3712 85.8547 48.0654 86.5094 47.7482C87.4236 47.3291 88.5626 47.1818 89.6784 47.2837C90.7942 47.3855 91.8984 47.612 92.7547 47.8158C93.611 48.0196 94.5796 48.3593 95.6491 48.9594C96.7301 49.435 97.54 50.1372 98.3383 50.9638C98.7762 51.632 99.3266 52.4361 99.9661 53.6252C100.606 54.8143 101.369 56.0147 102.245 57.3511L107.726 65.7026Z" fill="white"/>
</g>
</g>
</g>
<defs>
<clipPath id="clip0_2287_27883">
<rect width="128" height="108.987" fill="white" transform="translate(0 0.00634766)"/>
</clipPath>
</defs>
</svg>
