<svg width="329" height="273" viewBox="0 0 329 273" fill="none" xmlns="http://www.w3.org/2000/svg">
<g filter="url(#filter0_f)">
<path fill-rule="evenodd" clip-rule="evenodd" d="M324.682 11.9045C324.687 11.0023 324.514 10.1079 324.173 9.27253C323.832 8.43715 323.329 7.67714 322.695 7.03593C322.06 6.39473 321.305 5.88489 320.473 5.53555C319.641 5.18622 318.748 5.00423 317.846 5H12.8364C11.0143 5.00977 9.27061 5.74255 7.98869 7.03727C6.70676 8.33199 5.99148 10.0827 6.00008 11.9045V195H6V216.651C6 218.464 6.72025 220.203 8.0023 221.484C9.28436 222.766 11.0232 223.486 12.8363 223.486H126.93L123.5 253H206L201.492 223.486H315C321.432 223.491 324.686 220.871 324.682 214C324.681 213.275 324.682 201.333 324.682 196.761C324.682 195.671 324.682 195 324.682 195L324.682 11.9045Z" fill="#3D3C40" fill-opacity="0.08"/>
</g>
<path d="M160.507 260.921C242.251 260.921 308.518 258.651 308.518 255.849C308.518 253.048 242.251 250.777 160.507 250.777C78.7621 250.777 12.4951 253.048 12.4951 255.849C12.4951 258.651 78.7621 260.921 160.507 260.921Z" fill="#3D3C40" fill-opacity="0.08"/>
<path opacity="0.1" d="M202.208 253.482H161.135L119.979 252.955L120.224 250.845H201.802L202.208 253.482Z" fill="#3D3C40"/>
<path d="M202.287 254.008L119.979 252.955L120.224 250.844L124.201 216.026H196.485L201.802 250.844L202.208 253.482L202.287 254.008Z" fill="white"/>
<path d="M319.682 6.90452C319.687 6.00227 319.514 5.1079 319.173 4.27253C318.832 3.43715 318.329 2.67714 317.695 2.03593C317.06 1.39473 316.305 0.88489 315.473 0.535554C314.641 0.186219 313.748 0.00423428 312.846 0H7.83636C6.01426 0.00977462 4.27061 0.74255 2.98869 2.03727C1.70676 3.33199 0.991479 5.08269 1.00008 6.90452V191.761H319.682V6.90452Z" fill="white"/>
<path d="M202.287 254.008L119.979 252.955L120.224 250.844L124.201 216.026H196.485L201.802 250.844L202.208 253.482L202.287 254.008Z" fill="#3D3C40" fill-opacity="0.24"/>
<path d="M215.479 251.371H106.26V254.008H215.479V251.371Z" fill="white"/>
<path d="M215.479 251.371H106.26V254.008H215.479V251.371Z" fill="#3D3C40" fill-opacity="0.24"/>
<path opacity="0.1" d="M169.048 218.4L201.885 251.371L196.846 218.4H169.048Z" fill="#3D3C40"/>
<path d="M319.682 6.90452C319.687 6.00227 319.514 5.1079 319.173 4.27253C318.832 3.43715 318.329 2.67714 317.695 2.03593C317.06 1.39473 316.305 0.88489 315.473 0.535554C314.641 0.186219 313.748 0.00423428 312.846 0H7.83636C6.01426 0.00977462 4.27061 0.74255 2.98869 2.03727C1.70676 3.33199 0.991479 5.08269 1.00008 6.90452V191.761H319.682V6.90452Z" fill="#3D3C40" fill-opacity="0.32"/>
<path d="M1 189.914V211.565C1 213.378 1.72025 215.116 3.0023 216.398C4.28436 217.68 6.02319 218.4 7.83629 218.4H312.846C313.743 218.401 314.633 218.224 315.462 217.881C316.292 217.538 317.046 217.034 317.681 216.399C318.316 215.765 318.819 215.011 319.163 214.181C319.506 213.352 319.682 212.463 319.682 211.565V189.914H1Z" fill="white"/>
<path d="M1 190V211.651C1 213.464 1.72025 215.202 3.0023 216.484C4.28436 217.766 6.02319 218.486 7.83629 218.486H312.846C313.743 218.487 314.633 218.311 315.462 217.967C316.292 217.624 317.046 217.121 317.681 216.486C318.316 215.851 318.819 215.097 319.163 214.268C319.506 213.438 319.682 212.549 319.682 211.651V190H1Z" fill="#3D3C40" fill-opacity="0.24"/>
<path d="M308.074 11.6061H14.1924V177.781H308.074V11.6061Z" fill="white"/>
<circle cx="160.5" cy="204.5" r="7.5" fill="#3D3C40" fill-opacity="0.16"/>
<path d="M91 257.109C99.2843 257.109 106 256.438 106 255.609C106 254.781 99.2843 254.109 91 254.109C82.7157 254.109 76 254.781 76 255.609C76 256.438 82.7157 257.109 91 257.109Z" fill="#3D3C40" fill-opacity="0.24"/>
<path d="M90.6655 256.388C91.6247 256.388 92.4023 255.371 92.4023 254.116C92.4023 252.861 91.6247 251.843 90.6655 251.843C89.7063 251.843 88.9287 252.861 88.9287 254.116C88.9287 255.371 89.7063 256.388 90.6655 256.388Z" fill="#3D3C40"/>
<path d="M90.6655 253.612C91.6247 253.612 92.4023 252.595 92.4023 251.34C92.4023 250.085 91.6247 249.068 90.6655 249.068C89.7063 249.068 88.9287 250.085 88.9287 251.34C88.9287 252.595 89.7063 253.612 90.6655 253.612Z" fill="#3D3C40"/>
<path d="M90.6655 250.832C91.6247 250.832 92.4023 249.815 92.4023 248.56C92.4023 247.305 91.6247 246.288 90.6655 246.288C89.7063 246.288 88.9287 247.305 88.9287 248.56C88.9287 249.815 89.7063 250.832 90.6655 250.832Z" fill="#3D3C40"/>
<path d="M90.6655 248.056C91.6247 248.056 92.4023 247.039 92.4023 245.784C92.4023 244.529 91.6247 243.512 90.6655 243.512C89.7063 243.512 88.9287 244.529 88.9287 245.784C88.9287 247.039 89.7063 248.056 90.6655 248.056Z" fill="#3D3C40"/>
<path d="M90.6655 245.276C91.6247 245.276 92.4023 244.259 92.4023 243.004C92.4023 241.749 91.6247 240.732 90.6655 240.732C89.7063 240.732 88.9287 241.749 88.9287 243.004C88.9287 244.259 89.7063 245.276 90.6655 245.276Z" fill="#3D3C40"/>
<path d="M90.6655 242.5C91.6247 242.5 92.4023 241.483 92.4023 240.228C92.4023 238.973 91.6247 237.956 90.6655 237.956C89.7063 237.956 88.9287 238.973 88.9287 240.228C88.9287 241.483 89.7063 242.5 90.6655 242.5Z" fill="#3D3C40"/>
<path d="M90.6655 239.72C91.6247 239.72 92.4023 238.703 92.4023 237.448C92.4023 236.193 91.6247 235.176 90.6655 235.176C89.7063 235.176 88.9287 236.193 88.9287 237.448C88.9287 238.703 89.7063 239.72 90.6655 239.72Z" fill="#3D3C40"/>
<path d="M97.1646 218.438C97.4016 218.137 97.6177 217.819 97.8113 217.487L93.2476 216.739L98.1808 216.776C98.6542 215.746 98.9127 214.63 98.9405 213.497C98.9683 212.364 98.7648 211.237 98.3425 210.185L91.7187 213.621L97.8251 209.132C97.2518 208.147 96.4821 207.29 95.5636 206.615C94.6452 205.94 93.5977 205.461 92.4863 205.208C91.3749 204.955 90.2233 204.933 89.1029 205.143C87.9826 205.354 86.9176 205.792 85.9739 206.432C85.0303 207.071 84.2283 207.898 83.6177 208.86C83.0071 209.823 82.6009 210.9 82.4245 212.026C82.2481 213.152 82.3051 214.303 82.592 215.406C82.879 216.509 83.3897 217.541 84.0925 218.438C83.7225 218.91 83.4036 219.419 83.141 219.958L89.0673 223.034L82.7484 220.914C82.4585 221.774 82.3103 222.676 82.3096 223.583C82.3061 225.449 82.9345 227.261 84.0925 228.724C83.129 229.95 82.5299 231.423 82.3638 232.974C82.1977 234.524 82.4712 236.091 83.1532 237.493C83.8351 238.896 84.898 240.079 86.2203 240.906C87.5426 241.733 89.071 242.172 90.6309 242.172C92.1907 242.172 93.7192 241.733 95.0415 240.906C96.3638 240.079 97.4266 238.896 98.1086 237.493C98.7905 236.091 99.0641 234.524 98.898 232.974C98.7319 231.423 98.1328 229.95 97.1692 228.724C98.3228 227.257 98.9495 225.446 98.9487 223.58C98.9478 221.715 98.3195 219.904 97.1646 218.438Z" fill="#06D6A0"/>
<path opacity="0.1" d="M82.3096 223.579C82.3061 225.444 82.9345 227.256 84.0926 228.719C83.129 229.946 82.5299 231.418 82.3638 232.969C82.1977 234.52 82.4712 236.086 83.1532 237.489C83.8351 238.892 84.898 240.074 86.2203 240.901C87.5426 241.729 89.071 242.168 90.6309 242.168C92.1907 242.168 93.7192 241.729 95.0415 240.901C96.3638 240.074 97.4266 238.892 98.1086 237.489C98.7905 236.086 99.0641 234.52 98.898 232.969C98.7319 231.418 98.1328 229.946 97.1692 228.719C98.2824 227.306 82.3096 222.646 82.3096 223.579Z" fill="#3D3C40"/>
<rect x="83" y="49" width="154" height="8" rx="4" fill="#3D3C40" fill-opacity="0.16"/>
<path d="M83 53C83 50.7909 84.7909 49 87 49H95C97.2091 49 99 50.7909 99 53C99 55.2091 97.2091 57 95 57H87C84.7909 57 83 55.2091 83 53Z" fill="#06D6A0"/>
<rect x="83" y="70" width="154" height="8" rx="4" fill="#3D3C40" fill-opacity="0.16"/>
<path d="M83 74C83 71.7909 84.7909 70 87 70H151C153.209 70 155 71.7909 155 74C155 76.2091 153.209 78 151 78H87C84.7909 78 83 76.2091 83 74Z" fill="#06D6A0"/>
<rect x="83" y="97" width="154" height="8" rx="4" fill="#3D3C40" fill-opacity="0.16"/>
<path d="M83 101C83 98.7909 84.7909 97 87 97H119C121.209 97 123 98.7909 123 101C123 103.209 121.209 105 119 105H87C84.7909 105 83 103.209 83 101Z" fill="#06D6A0"/>
<path d="M141 124C141 121.791 142.791 120 145 120H179C181.209 120 183 121.791 183 124V129C183 131.209 181.209 133 179 133H145C142.791 133 141 131.209 141 129V124Z" fill="#166DE0"/>
<path opacity="0.1" d="M168.541 218.459L201.378 251.43L196.339 218.459H168.541Z" fill="#3D3C40"/>
<path opacity="0.1" d="M307.655 11.683H13.4543V21.3909H307.655V11.683Z" fill="#3D3C40"/>
<path d="M23.2238 13.3734H15.5007C15.3017 13.3734 15.1404 13.5347 15.1404 13.7337V18.9202C15.1404 19.1191 15.3017 19.2804 15.5007 19.2804H23.2238C23.4228 19.2804 23.5841 19.1191 23.5841 18.9202V13.7337C23.5841 13.5347 23.4228 13.3734 23.2238 13.3734Z" fill="#145DBF"/>
<path opacity="0.3" d="M203.974 13.3734H115.869C115.721 13.3734 115.601 13.4934 115.601 13.6413V19.0125C115.601 19.1605 115.721 19.2804 115.869 19.2804H203.974C204.122 19.2804 204.242 19.1605 204.242 19.0125V13.6413C204.242 13.4934 204.122 13.3734 203.974 13.3734Z" fill="#145DBF"/>
<path d="M201.609 16.9342H201.392L201.314 16.8696C201.582 16.5463 201.731 16.1399 201.734 15.7196C201.732 15.3734 201.628 15.0355 201.434 14.7487C201.24 14.4619 200.965 14.239 200.645 14.1082C200.324 13.9774 199.972 13.9446 199.633 14.0139C199.294 14.0832 198.982 14.2516 198.739 14.4977C198.495 14.7438 198.33 15.0565 198.265 15.3964C198.199 15.7363 198.235 16.088 198.369 16.4072C198.504 16.7263 198.73 16.9985 199.018 17.1893C199.307 17.3801 199.646 17.481 199.993 17.4792C200.411 17.4728 200.815 17.3247 201.138 17.0589L201.217 17.1236V17.3406L202.57 18.6938L202.972 18.2874L201.609 16.9342ZM199.993 16.9342C199.751 16.9351 199.515 16.8643 199.313 16.7307C199.112 16.597 198.955 16.4066 198.862 16.1837C198.769 15.9607 198.745 15.7152 198.792 15.4782C198.839 15.2413 198.955 15.0236 199.126 14.8528C199.296 14.682 199.514 14.5658 199.751 14.5189C199.988 14.472 200.234 14.4965 200.457 14.5894C200.68 14.6823 200.87 14.8392 201.004 15.0404C201.137 15.2417 201.208 15.478 201.207 15.7196C201.209 15.8794 201.178 16.0379 201.117 16.1858C201.057 16.3338 200.967 16.4681 200.854 16.5812C200.741 16.6942 200.607 16.7836 200.459 16.8443C200.311 16.9049 200.152 16.9354 199.993 16.9342Z" fill="#3D3C40"/>
<path d="M303.433 19.2803C305.065 19.2803 306.389 17.9569 306.389 16.3245C306.389 14.6921 305.065 13.3687 303.433 13.3687C301.8 13.3687 300.477 14.6921 300.477 16.3245C300.477 17.9569 301.8 19.2803 303.433 19.2803Z" fill="#145DBF"/>
<g opacity="0.1">
<path opacity="0.1" d="M212.363 196.392C212.483 196.192 212.677 196.047 212.903 195.99C213.134 195.958 213.203 196.253 213.116 196.452C213.938 198.761 214.778 201.14 216.178 203.176C216.645 203.776 217.061 204.414 217.421 205.084C217.684 205.718 217.894 206.373 218.049 207.042C218.788 209.439 219.787 211.748 221.028 213.928C221.184 214.209 221.272 214.521 221.288 214.841C221.303 215.162 221.244 215.481 221.116 215.775C220.525 217.069 221.005 218.343 221.264 219.609C221.619 221.378 221.55 223.211 221.633 224.998C221.633 225.557 221.633 226.116 221.665 226.675C221.726 227.878 221.712 229.085 221.624 230.286C221.527 231.122 221.324 231.944 221.162 232.767C219.555 240.484 221.301 248.617 221.887 256.482C221.928 256.964 221.821 257.447 221.582 257.868C220.88 259.064 221.222 260.408 221.582 261.659C221.794 262.712 222.224 263.71 222.843 264.587C223.023 264.788 223.178 265.01 223.305 265.248C223.532 265.747 223.305 266.338 223.13 266.86C224.381 267.061 225.642 267.195 226.908 267.262C225.266 267.275 223.626 267.141 222.007 266.86C222.164 266.338 222.405 265.747 222.178 265.248C222.047 265.007 221.884 264.785 221.693 264.587C221.077 263.708 220.648 262.711 220.432 261.659C220.09 260.408 219.749 259.064 220.432 257.868C220.673 257.448 220.78 256.965 220.742 256.482C220.155 248.631 218.404 240.484 220.016 232.767C220.187 231.944 220.391 231.122 220.478 230.286C220.565 229.085 220.581 227.879 220.525 226.675C220.525 226.116 220.501 225.557 220.488 224.998C220.404 223.211 220.488 221.378 220.118 219.609C219.864 218.343 219.384 217.069 219.975 215.775C220.102 215.481 220.16 215.162 220.145 214.842C220.13 214.521 220.042 214.209 219.887 213.928C218.643 211.749 217.642 209.44 216.903 207.042C216.748 206.373 216.538 205.718 216.275 205.084C215.915 204.415 215.501 203.777 215.037 203.176C213.697 201.232 212.871 198.997 212.085 196.771C212.187 196.655 212.27 196.521 212.363 196.392Z" fill="#3D3C40"/>
</g>
<g opacity="0.1">
<path opacity="0.1" d="M192.57 176.611C192.568 176.625 192.568 176.639 192.57 176.653C192.768 176.962 193.249 176.782 193.554 176.57L195.087 175.512C197.134 175.793 199.203 175.892 201.267 175.808C207.138 175.725 213.014 175.956 218.871 176.367C220.829 176.505 222.848 176.653 224.696 176.002C225.619 175.669 226.497 175.143 227.467 174.875C227.802 174.813 228.125 174.697 228.423 174.533C228.534 174.838 228.64 175.143 228.737 175.457C228.954 176.154 229.098 177.022 228.562 177.517C228.239 177.755 227.863 177.914 227.467 177.978C226.506 178.242 225.619 178.773 224.696 179.105C222.848 179.757 220.829 179.609 218.871 179.47C213.014 179.059 207.138 178.828 201.267 178.911C199.206 178.994 197.14 178.893 195.096 178.611L193.563 179.673C193.258 179.886 192.778 180.066 192.579 179.757C192.516 179.634 192.492 179.496 192.51 179.359C192.531 178.445 192.551 177.529 192.57 176.611Z" fill="#3D3C40"/>
<path opacity="0.1" d="M226.095 148.411C225.83 146.904 225.328 145.448 224.608 144.098L224.03 148.661C223.993 148.947 223.956 149.233 223.924 149.52C223.85 148.864 223.823 148.203 223.841 147.543C223.841 146.883 223.947 146.222 224.03 145.566L224.608 141.003C225.328 142.354 225.83 143.81 226.095 145.317C226.62 147.569 227.267 149.791 228.035 151.972C228.469 153.288 228.904 154.605 229.375 155.907C229.675 156.654 229.906 157.427 230.063 158.216C230.165 158.849 230.169 159.495 230.243 160.128C230.395 161.493 230.87 162.802 231.629 163.948C231.767 164.215 231.999 164.422 232.28 164.529C232.469 164.563 232.663 164.555 232.848 164.506C234.891 164.103 236.868 163.419 238.724 162.474C238.969 162.354 239.2 162.207 239.412 162.036C239.657 162.959 240.216 163.971 239.717 164.783C239.461 165.126 239.118 165.394 238.724 165.559C236.868 166.504 234.891 167.188 232.848 167.592C232.661 167.633 232.467 167.633 232.28 167.592C231.999 167.484 231.767 167.277 231.629 167.01C230.871 165.864 230.396 164.555 230.243 163.19C230.169 162.557 230.165 161.911 230.063 161.278C229.907 160.488 229.676 159.715 229.375 158.969C228.913 157.662 228.451 156.35 228.035 155.034C227.269 152.863 226.621 150.652 226.095 148.411Z" fill="#3D3C40"/>
<path opacity="0.1" d="M225.62 160.987C225.62 161.19 225.62 161.398 225.62 161.606C225.629 161.398 225.624 161.195 225.62 160.987Z" fill="#3D3C40"/>
<path opacity="0.1" d="M192.117 168.755C192.625 170.09 192.607 171.559 192.579 172.986C192.579 173.36 192.579 173.729 192.579 174.103C192.54 173.333 192.384 172.573 192.117 171.85C191.904 171.295 191.604 170.778 191.415 170.219C191.091 169.241 191.104 168.183 191.452 167.213C191.641 167.739 191.914 168.233 192.117 168.755Z" fill="#3D3C40"/>
<path opacity="0.1" d="M167.871 137.346L168.135 137.004L169.52 139.313C170.079 140.345 170.763 141.303 171.557 142.167C172.366 143.033 173.467 143.568 174.647 143.668C175.392 143.661 176.129 143.52 176.823 143.252C180.056 142.167 182.99 140.444 186.061 138.976C186.606 138.66 187.216 138.473 187.844 138.431C188.163 138.425 188.475 138.522 188.733 138.709C188.991 138.895 189.182 139.161 189.276 139.465C189.627 141.234 189.974 142.998 190.454 144.735C190.913 146.379 191.336 148.028 191.724 149.681C191.985 150.696 192.17 151.729 192.279 152.771C192.329 153.362 192.334 153.958 192.339 154.549L192.408 161.722C192.408 161.827 192.399 161.932 192.38 162.036L192.339 157.643C192.339 157.048 192.339 156.457 192.279 155.865C192.17 154.823 191.985 153.791 191.724 152.776C191.33 151.122 190.907 149.473 190.454 147.829C189.992 146.093 189.627 144.329 189.276 142.555C189.182 142.251 188.991 141.986 188.733 141.8C188.474 141.615 188.162 141.518 187.844 141.525C187.208 141.559 186.588 141.741 186.034 142.056C182.976 143.525 180.029 145.248 176.795 146.328C176.102 146.599 175.364 146.742 174.62 146.749C173.439 146.648 172.338 146.114 171.53 145.248C170.737 144.383 170.053 143.424 169.493 142.393C168.934 141.447 168.37 140.505 167.807 139.558C167.492 139.031 167.072 138.422 167.248 137.83C167.506 137.746 167.726 137.575 167.871 137.346Z" fill="#3D3C40"/>
</g>
<path d="M91 257C99.2843 257 106 256.328 106 255.5C106 254.672 99.2843 254 91 254C82.7157 254 76 254.672 76 255.5C76 256.328 82.7157 257 91 257Z" fill="#3D3C40" fill-opacity="0.24"/>
<path d="M90.6655 256.279C91.6247 256.279 92.4023 255.261 92.4023 254.007C92.4023 252.752 91.6247 251.734 90.6655 251.734C89.7063 251.734 88.9287 252.752 88.9287 254.007C88.9287 255.261 89.7063 256.279 90.6655 256.279Z" fill="#3D3C40"/>
<path d="M90.6655 253.503C91.6247 253.503 92.4023 252.486 92.4023 251.231C92.4023 249.976 91.6247 248.959 90.6655 248.959C89.7063 248.959 88.9287 249.976 88.9287 251.231C88.9287 252.486 89.7063 253.503 90.6655 253.503Z" fill="#3D3C40"/>
<path d="M90.6655 250.723C91.6247 250.723 92.4023 249.706 92.4023 248.451C92.4023 247.196 91.6247 246.178 90.6655 246.178C89.7063 246.178 88.9287 247.196 88.9287 248.451C88.9287 249.706 89.7063 250.723 90.6655 250.723Z" fill="#3D3C40"/>
<path d="M90.6655 247.947C91.6247 247.947 92.4023 246.93 92.4023 245.675C92.4023 244.42 91.6247 243.403 90.6655 243.403C89.7063 243.403 88.9287 244.42 88.9287 245.675C88.9287 246.93 89.7063 247.947 90.6655 247.947Z" fill="#3D3C40"/>
<path d="M90.6655 245.167C91.6247 245.167 92.4023 244.15 92.4023 242.895C92.4023 241.64 91.6247 240.622 90.6655 240.622C89.7063 240.622 88.9287 241.64 88.9287 242.895C88.9287 244.15 89.7063 245.167 90.6655 245.167Z" fill="#3D3C40"/>
<path d="M90.6655 242.391C91.6247 242.391 92.4023 241.374 92.4023 240.119C92.4023 238.864 91.6247 237.847 90.6655 237.847C89.7063 237.847 88.9287 238.864 88.9287 240.119C88.9287 241.374 89.7063 242.391 90.6655 242.391Z" fill="#3D3C40"/>
<path d="M90.6655 239.611C91.6247 239.611 92.4023 238.594 92.4023 237.339C92.4023 236.084 91.6247 235.067 90.6655 235.067C89.7063 235.067 88.9287 236.084 88.9287 237.339C88.9287 238.594 89.7063 239.611 90.6655 239.611Z" fill="#3D3C40"/>
<path d="M97.1646 218.329C97.4016 218.027 97.6177 217.71 97.8113 217.378L93.2476 216.63L98.1808 216.667C98.6542 215.637 98.9127 214.521 98.9405 213.388C98.9683 212.255 98.7648 211.128 98.3425 210.076L91.7187 213.512L97.8251 209.023C97.2518 208.038 96.4821 207.181 95.5636 206.506C94.6452 205.831 93.5977 205.352 92.4863 205.099C91.3749 204.845 90.2233 204.823 89.1029 205.034C87.9826 205.244 86.9176 205.683 85.9739 206.323C85.0303 206.962 84.2283 207.789 83.6177 208.751C83.0071 209.714 82.6009 210.791 82.4245 211.917C82.2481 213.043 82.3051 214.194 82.592 215.297C82.879 216.4 83.3897 217.432 84.0925 218.329C83.7225 218.801 83.4036 219.31 83.141 219.849L89.0673 222.925L82.7484 220.805C82.4585 221.665 82.3103 222.567 82.3096 223.474C82.3061 225.34 82.9345 227.152 84.0925 228.615C83.129 229.841 82.5299 231.314 82.3638 232.865C82.1977 234.415 82.4712 235.982 83.1532 237.384C83.8351 238.787 84.898 239.97 86.2203 240.797C87.5426 241.624 89.071 242.063 90.6309 242.063C92.1907 242.063 93.7192 241.624 95.0415 240.797C96.3638 239.97 97.4266 238.787 98.1086 237.384C98.7905 235.982 99.0641 234.415 98.898 232.865C98.7319 231.314 98.1328 229.841 97.1692 228.615C98.3228 227.148 98.9495 225.337 98.9487 223.471C98.9478 221.606 98.3195 219.795 97.1646 218.329Z" fill="#06D6A0"/>
<path opacity="0.1" d="M82.3096 223.47C82.3061 225.335 82.9345 227.147 84.0926 228.61C83.129 229.836 82.5299 231.309 82.3638 232.86C82.1977 234.411 82.4712 235.977 83.1532 237.38C83.8351 238.782 84.898 239.965 86.2203 240.792C87.5426 241.62 89.071 242.058 90.6309 242.058C92.1907 242.058 93.7192 241.62 95.0415 240.792C96.3638 239.965 97.4266 238.782 98.1086 237.38C98.7905 235.977 99.0641 234.411 98.898 232.86C98.7319 231.309 98.1328 229.836 97.1692 228.61C98.2824 227.197 82.3096 222.537 82.3096 223.47Z" fill="#3D3C40"/>
<path d="M217.88 272.454C241.49 272.454 260.63 269.584 260.63 266.044C260.63 262.503 241.49 259.633 217.88 259.633C194.27 259.633 175.13 262.503 175.13 266.044C175.13 269.584 194.27 272.454 217.88 272.454Z" fill="#3D3C40" fill-opacity="0.08"/>
<path d="M238.648 180.266C238.62 179.472 238.523 178.677 238.426 177.888C238.07 174.923 237.705 171.958 237.128 169.034C237.026 168.464 236.871 167.904 236.666 167.362C236.458 166.85 236.172 166.379 235.955 165.871C235.957 165.852 235.957 165.834 235.955 165.815C236.223 165.686 236.486 165.556 236.745 165.418C236.932 165.323 237.111 165.213 237.281 165.09C237.451 164.967 237.594 164.81 237.701 164.628C238.163 163.815 237.645 162.781 237.41 161.857C237.16 160.864 237.216 159.673 236.486 159.008C233.881 156.698 235.174 151.988 233.872 148.681C233.641 148.104 233.377 147.535 233.179 146.944C233.026 146.482 232.92 146.021 232.809 145.559C231.885 141.71 230.912 137.878 229.89 134.064C228.814 130.11 228.929 125.991 227.58 122.13C227.326 121.329 226.993 120.556 226.587 119.82C226.136 119.054 225.524 118.394 224.795 117.885C222.827 116.527 220.846 115.368 218.536 114.874C216.227 114.38 213.732 114.458 211.377 114.468C210.533 113.297 209.373 112.392 208.032 111.858L207.991 111.738C207.802 111.27 207.657 110.787 207.557 110.293C207.481 109.804 207.442 109.309 207.441 108.815C207.441 108.284 207.418 107.748 207.404 107.217L207.533 107.092C207.843 106.766 208.127 106.417 208.383 106.048C208.631 105.7 208.847 105.331 209.03 104.944C209.237 104.506 209.413 104.054 209.557 103.591C209.837 102.656 210.028 101.695 210.125 100.723C210.249 99.5824 210.286 98.414 210.319 97.2732C210.319 97.0423 210.319 96.8114 210.319 96.5759V96.405C210.319 96.2202 210.319 96.0401 210.319 95.86V95.8C210.357 94.6204 210.059 93.4543 209.46 92.4378C208.624 91.1908 207.192 90.5904 205.81 90.0916C203.039 89.131 199.995 88.4983 197.256 89.5282C195.08 90.3502 193.344 92.1422 191.196 93.052C191.245 93.1342 191.29 93.219 191.33 93.306C191.33 93.3183 191.33 93.3307 191.33 93.343C191.367 93.4261 191.399 93.5046 191.427 93.5878C191.496 93.7747 191.547 93.9681 191.579 94.1651C191.641 94.5381 191.641 94.9189 191.579 95.2919C190.931 95.5824 190.214 95.6879 189.51 95.5968C189.776 96.4665 190.219 97.2717 190.812 97.9614C191.002 98.2015 191.2 98.4232 191.39 98.6772L191.681 99.0375C192.176 99.6179 192.579 100.27 192.877 100.973C192.986 101.25 193.062 101.54 193.103 101.836C193.191 102.423 193.168 103.097 193.247 103.684C193.276 103.936 193.34 104.183 193.436 104.418C193.613 105.635 194.077 106.792 194.79 107.793C195.504 108.795 196.445 109.612 197.538 110.177C197.838 112.003 197.838 113.866 197.538 115.691C197.538 115.793 197.501 115.895 197.478 115.996C196.221 117.58 195.016 119.252 193.468 120.49C192.764 121.041 192.011 121.527 191.219 121.94C190.753 122.209 190.255 122.415 189.736 122.554C189.154 122.688 188.544 122.67 187.967 122.813C186.851 123.167 185.912 123.931 185.339 124.951C185.047 125.491 184.723 126.012 184.369 126.512C184.045 126.914 183.639 127.242 183.297 127.625C182.059 129.011 181.722 131.015 181.449 132.89C180.487 133.954 179.431 134.929 178.294 135.805C177.939 136.087 177.544 136.316 177.121 136.484C176.031 136.848 174.835 136.382 173.888 135.68C172.941 134.978 172.202 134.054 171.287 133.334L171.047 133.689C170.979 133.622 170.915 133.549 170.858 133.472C170.483 132.944 170.223 132.343 170.096 131.708C169.763 130.004 170.391 128.18 169.902 126.522C169.721 125.921 169.287 125.302 168.687 125.316C168.086 125.33 167.712 125.931 167.195 126.212C166.363 126.674 165.347 126.254 164.525 125.797C163.703 125.339 162.765 124.827 161.864 125.099C161.847 125.397 161.9 125.694 162.02 125.967C162.14 126.24 162.322 126.481 162.553 126.669C163.017 127.037 163.397 127.498 163.67 128.023C163.805 128.596 163.857 129.185 163.823 129.773C163.915 131.122 164.747 132.281 165.55 133.334C166.548 134.612 167.592 135.852 168.682 137.056C168.551 137.286 168.346 137.463 168.1 137.56C168.038 137.779 168.038 138.01 168.1 138.229C168.146 138.38 168.204 138.527 168.276 138.668C168.382 138.885 168.511 139.098 168.622 139.296L170.243 142.146L170.507 142.608C170.617 142.802 170.728 142.986 170.844 143.176C171.226 143.839 171.68 144.459 172.197 145.023C172.455 145.294 172.74 145.539 173.047 145.753C173.247 145.896 173.459 146.023 173.68 146.131C173.989 146.289 174.319 146.403 174.659 146.469C174.826 146.504 174.996 146.526 175.167 146.533C175.344 146.547 175.522 146.547 175.699 146.533C176.231 146.459 176.753 146.324 177.255 146.131C180.345 145.046 183.181 143.314 186.119 141.841C186.523 141.615 186.957 141.447 187.408 141.342C187.56 141.313 187.715 141.301 187.87 141.305C188.027 141.31 188.182 141.336 188.332 141.384C188.479 141.433 188.619 141.503 188.747 141.592C189.007 141.766 189.187 142.034 189.251 142.34C189.339 142.802 189.422 143.231 189.505 143.674C189.588 144.118 189.681 144.561 189.773 145.005C189.958 145.887 190.156 146.769 190.387 147.642C190.512 148.104 190.632 148.593 190.752 149.073C191.048 150.246 191.339 151.429 191.607 152.611C191.69 152.981 191.768 153.355 191.842 153.724C191.98 154.381 192.079 155.046 192.138 155.715C192.14 155.73 192.14 155.746 192.138 155.761C192.184 156.343 192.189 156.92 192.193 157.502V159.326L192.24 164.711C192.24 165.487 191.824 165.972 191.496 166.67C191.431 166.813 191.371 166.96 191.32 167.108C191.258 167.296 191.207 167.487 191.168 167.681C191.168 167.741 191.14 167.806 191.131 167.866C191.122 167.926 191.131 168.009 191.103 168.078C191.076 168.147 191.103 168.217 191.08 168.281C191.057 168.346 191.08 168.42 191.08 168.485C191.08 168.549 191.08 168.632 191.08 168.706C191.08 168.78 191.08 168.836 191.08 168.896C191.08 168.956 191.08 169.057 191.08 169.136C191.08 169.214 191.08 169.251 191.08 169.307C191.08 169.362 191.112 169.487 191.126 169.579L191.154 169.718C191.186 169.852 191.219 169.986 191.265 170.119C191.357 170.397 191.473 170.669 191.593 170.937C191.713 171.205 191.833 171.477 191.935 171.754C191.999 171.93 192.055 172.109 192.101 172.29C192.112 172.331 192.122 172.373 192.129 172.415C192.166 172.558 192.198 172.701 192.226 172.849V172.951C192.253 173.108 192.276 173.269 192.295 173.412C192.297 173.431 192.297 173.449 192.295 173.468C192.295 173.648 192.332 173.828 192.341 174.008C192.383 174.664 192.373 175.334 192.341 175.994L192.286 179.282V179.384C192.281 179.487 192.303 179.589 192.35 179.68C192.384 179.731 192.429 179.774 192.483 179.803C192.538 179.832 192.598 179.847 192.66 179.846C192.894 179.829 193.118 179.742 193.302 179.596L194.771 178.53H194.863C193.704 180.428 192.775 182.52 192.595 184.751C192.525 186.224 192.62 187.7 192.877 189.152C194.23 198.851 197.418 208.637 196.748 218.428C196.485 222.284 198.083 226.044 198.073 229.905C198.073 231.406 197.819 232.893 197.755 234.389C197.473 240.818 200.753 247.321 199.418 253.602C199.88 255.163 201.63 255.994 202.124 257.546C202.54 258.862 201.94 260.262 201.455 261.55C201.28 261.999 201.146 262.463 201.053 262.936C199.709 262.936 198.217 262.963 197.321 263.338C197.072 263.419 196.83 263.518 196.595 263.633C195.769 264.127 195.713 265.48 196.235 266.298C196.757 267.115 199.69 269.725 200.549 270.154L202.429 271.078C203.438 271.648 204.529 272.059 205.663 272.297C206.617 272.403 207.581 272.385 208.531 272.242C209.266 272.163 210.079 272.043 210.554 271.443C211.224 270.593 210.882 269.212 210.425 267.984C210.594 267.849 210.725 267.672 210.804 267.471C210.885 267.149 210.927 266.819 210.928 266.487C211.064 265.845 211.285 265.224 211.584 264.64C212.356 262.76 212.323 260.645 212.277 258.599C212.286 255.273 212.057 251.95 211.594 248.656C211.363 247.27 211.049 245.885 210.781 244.499C209.795 239.481 209.372 234.37 209.52 229.258C209.536 228.017 209.363 226.78 209.007 225.591C208.855 224.905 208.815 224.198 208.887 223.499L209.441 215.043C209.599 213.323 209.625 211.594 209.52 209.87C209.441 208.946 209.289 208.023 209.196 207.099C209.056 205.338 209.027 203.571 209.109 201.806C209.159 199.908 209.247 197.872 210.333 196.347C210.388 196.25 210.462 196.164 210.551 196.095C210.64 196.026 210.741 195.975 210.85 195.946C211.072 195.913 211.136 196.214 211.053 196.408C211.169 196.759 211.289 197.105 211.409 197.456C211.446 197.557 211.478 197.654 211.515 197.751C211.575 197.932 211.64 198.112 211.704 198.292C211.769 198.472 211.797 198.541 211.838 198.666L212.019 199.128C212.069 199.266 212.125 199.4 212.176 199.534C212.226 199.668 212.291 199.825 212.351 199.968C212.411 200.111 212.471 200.255 212.536 200.398C212.601 200.541 212.647 200.661 212.707 200.795L212.929 201.257C212.984 201.372 213.039 201.492 213.099 201.608C213.159 201.723 213.28 201.945 213.372 202.111C213.423 202.208 213.474 202.305 213.529 202.398C213.677 202.656 213.829 202.906 213.991 203.155C214.305 203.617 214.642 204.079 214.915 204.573C215.011 204.735 215.097 204.903 215.173 205.076C215.429 205.714 215.632 206.372 215.779 207.044C215.94 207.653 216.13 208.249 216.337 208.836C216.545 209.422 216.799 210.009 217.026 210.581C217.15 210.868 217.28 211.154 217.409 211.436C217.797 212.29 218.217 213.131 218.642 213.962C218.717 214.109 218.776 214.264 218.818 214.424C218.839 214.501 218.856 214.58 218.869 214.659C218.886 214.813 218.886 214.968 218.869 215.121C218.864 215.218 218.851 215.313 218.832 215.408C218.804 215.55 218.762 215.689 218.707 215.823C218.139 217.121 218.596 218.4 218.846 219.675C219.064 221.019 219.169 222.378 219.16 223.739C219.16 224.201 219.16 224.663 219.201 225.092C219.201 225.656 219.201 226.215 219.234 226.778C219.266 227.342 219.234 227.988 219.266 228.593C219.276 229.199 219.251 229.805 219.192 230.408C219.192 230.621 219.137 230.829 219.104 231.036C219.003 231.66 218.859 232.279 218.735 232.884C218.274 235.319 218.06 237.795 218.097 240.273C218.097 241.268 218.13 242.264 218.194 243.261C218.25 244.264 218.328 245.261 218.416 246.263C218.462 246.813 218.518 247.362 218.573 247.912C218.665 248.863 218.767 249.815 218.869 250.766C218.97 251.718 219.081 252.766 219.178 253.759C219.275 254.752 219.363 255.745 219.432 256.733C219.476 257.223 219.373 257.715 219.137 258.146C219.043 258.318 218.966 258.497 218.906 258.682C218.863 258.811 218.829 258.942 218.804 259.075C218.777 259.228 218.758 259.382 218.749 259.537C218.737 259.861 218.756 260.186 218.804 260.506C218.829 260.667 218.856 260.821 218.887 260.968C218.956 261.287 219.04 261.606 219.123 261.92C219.313 262.79 219.624 263.629 220.047 264.414C220.137 264.575 220.238 264.729 220.351 264.876C220.384 264.922 220.421 264.963 220.458 265.009C220.553 265.12 220.641 265.238 220.721 265.36C220.759 265.417 220.791 265.478 220.818 265.541C220.913 265.796 220.932 266.073 220.873 266.34C220.823 266.617 220.726 266.894 220.652 267.157L220.892 267.189C220.555 268.256 220.398 269.351 220.966 270.067C221.428 270.667 222.255 270.787 222.989 270.866C223.938 271.012 224.903 271.033 225.857 270.926C226.991 270.688 228.082 270.276 229.091 269.706L230.971 268.783C231.83 268.353 234.758 265.762 235.28 264.922C235.802 264.081 235.742 262.756 234.925 262.261C234.691 262.143 234.448 262.043 234.2 261.961C233.368 261.615 232.024 261.583 230.768 261.564C230.703 261.102 230.666 260.599 230.647 260.123C230.563 258.356 230.597 256.584 230.749 254.821C230.855 253.57 231.017 252.323 231.003 251.071C231.003 249.399 230.657 247.746 230.477 246.083C230.296 244.421 230.278 242.795 230.25 241.151C230.209 238.731 230.92 236.426 231.229 234.034L231.77 229.826C231.861 229.315 231.873 228.794 231.807 228.279C231.724 227.817 231.511 227.356 231.423 226.894C231.234 225.845 231.71 224.806 231.858 223.749C232.029 222.534 231.765 221.301 231.594 220.082C231.37 218.156 231.264 216.219 231.276 214.281C231.109 202.365 230.772 190.182 226.744 179.033C226.583 178.571 226.407 178.109 226.227 177.68C226.308 177.658 226.388 177.632 226.467 177.601C226.593 177.555 226.712 177.493 226.823 177.417C226.872 177.387 226.918 177.353 226.961 177.315C227.09 177.187 227.184 177.028 227.234 176.853C227.288 176.684 227.316 176.508 227.317 176.331C227.311 176.019 227.266 175.709 227.183 175.408L227.128 175.218C227.035 174.904 226.934 174.595 226.827 174.295C226.726 173.994 226.615 173.703 226.499 173.408C226.259 172.86 226.064 172.293 225.917 171.713C225.636 170.401 225.917 168.886 225.128 167.82C223.382 165.427 224.615 161.751 223.885 158.837C223.645 157.913 223.294 156.989 223.072 156.066C222.934 155.474 222.846 154.869 222.758 154.264C222.527 152.956 222.413 151.63 222.416 150.302C222.416 149.637 222.518 148.972 222.596 148.311L223.151 143.73C223.77 144.915 224.212 146.185 224.462 147.498C224.504 147.688 224.541 147.873 224.583 148.062C225.082 150.322 225.699 152.554 226.43 154.749C226.851 156.075 227.266 157.396 227.719 158.707C227.853 159.081 227.982 159.46 228.102 159.843C228.22 160.226 228.313 160.617 228.379 161.012C228.43 161.326 228.453 161.649 228.476 161.968C228.5 162.287 228.518 162.615 228.55 162.933C228.701 164.297 229.159 165.609 229.89 166.771C229.913 166.801 229.935 166.832 229.955 166.863C230.079 167.088 230.278 167.261 230.518 167.353C230.684 167.388 230.856 167.388 231.022 167.353H231.049C231.294 167.302 231.539 167.247 231.779 167.187C231.815 167.18 231.851 167.17 231.885 167.159C231.996 168.591 232.421 170.018 232.458 171.463C232.504 173.565 231.733 175.578 231.243 177.615C230.831 179.474 230.555 181.36 230.416 183.259C230.353 183.635 230.377 184.02 230.486 184.386C230.538 184.563 230.651 184.717 230.804 184.82C230.958 184.924 231.142 184.971 231.326 184.954C231.456 184.91 231.576 184.841 231.679 184.749C231.781 184.658 231.864 184.547 231.922 184.423C232.472 183.509 232.655 182.422 232.435 181.379C232.874 181.472 233.1 181.975 233.206 182.432C233.487 183.618 233.42 184.859 233.012 186.007C232.74 186.773 232.32 187.48 232.089 188.27C232.006 188.516 232.006 188.782 232.089 189.027C232.32 189.558 233.049 189.521 233.576 189.327C235.297 188.626 236.695 187.309 237.498 185.633C238.315 183.965 238.71 182.122 238.648 180.266Z" fill="#3D3C40" fill-opacity="0.16"/>
<path d="M211.7 271.484C211.206 272.08 210.36 272.2 209.593 272.279C208.603 272.422 207.6 272.44 206.605 272.334C205.432 272.098 204.301 271.69 203.247 271.124L201.288 270.2C200.397 269.771 197.348 267.194 196.803 266.358C196.258 265.522 196.314 264.206 197.173 263.712C197.418 263.596 197.671 263.497 197.93 263.416C199.371 262.843 202.291 263.134 203.824 262.913C204.585 262.877 205.34 263.054 206.004 263.425C207.519 264.095 210.189 264.626 210.85 266.33C211.363 267.642 212.767 270.187 211.7 271.484Z" fill="#3D3C40"/>
<path d="M222.578 270.219C223.072 270.815 223.918 270.935 224.684 271.013C226.869 271.422 229.128 271.009 231.026 269.854L232.985 268.93C233.881 268.501 236.93 265.924 237.475 265.088C238.02 264.252 237.964 262.931 237.101 262.442C236.858 262.323 236.606 262.224 236.348 262.146C234.906 261.573 231.987 261.864 230.454 261.643C229.692 261.605 228.935 261.783 228.269 262.155C226.758 262.825 224.112 263.356 223.428 265.06C222.901 266.376 221.493 268.921 222.578 270.219Z" fill="#3D3C40"/>
<path d="M227.34 176.835C227.812 177.742 228.224 178.681 228.573 179.643C232.768 190.727 233.119 202.855 233.294 214.71C233.279 216.638 233.388 218.565 233.622 220.479C233.798 221.693 234.084 222.917 233.895 224.132C233.742 225.18 233.248 226.215 233.433 227.254C233.521 227.716 233.742 228.177 233.83 228.639C233.899 229.151 233.885 229.67 233.788 230.177L233.23 234.361C232.906 236.745 232.167 239.035 232.209 241.442C232.236 243.081 232.264 244.721 232.444 246.351C232.712 247.994 232.896 249.649 232.994 251.311C232.994 252.558 232.837 253.8 232.726 255.043C232.57 256.796 232.535 258.559 232.62 260.317C232.684 261.67 232.841 263.088 233.544 264.229C232.735 265.383 231.941 266.418 230.652 267C228.033 268.145 225.026 267.757 222.194 267.346C222.351 266.824 222.592 266.233 222.365 265.734C222.234 265.493 222.071 265.271 221.88 265.074C221.264 264.194 220.835 263.198 220.619 262.146C220.278 260.894 219.936 259.55 220.619 258.354C220.86 257.934 220.968 257.451 220.929 256.969C220.342 249.117 218.592 240.97 220.204 233.253C220.375 232.431 220.578 231.609 220.666 230.773C220.753 229.571 220.768 228.365 220.712 227.161L220.73 225.439C220.647 223.651 220.73 221.818 220.361 220.049C220.107 218.784 219.626 217.509 220.217 216.216C220.345 215.922 220.403 215.602 220.388 215.282C220.373 214.962 220.284 214.649 220.13 214.368C218.885 212.19 217.885 209.88 217.146 207.482C216.993 206.813 216.783 206.158 216.518 205.524C216.158 204.856 215.744 204.218 215.28 203.617C213.894 201.58 213.035 199.22 212.213 196.892C212.3 196.675 212.213 196.38 212.005 196.43C211.892 196.458 211.787 196.508 211.694 196.577C211.601 196.646 211.523 196.733 211.464 196.832C210.337 198.347 210.24 200.37 210.189 202.264C210.105 204.019 210.135 205.777 210.282 207.529C210.374 208.452 210.536 209.376 210.619 210.3C210.727 212.014 210.7 213.734 210.536 215.444L209.968 223.822C209.887 224.518 209.927 225.223 210.088 225.905C210.458 227.084 210.639 228.314 210.624 229.549C210.478 234.63 210.925 239.711 211.954 244.688C212.231 246.074 212.559 247.432 212.799 248.812C213.279 252.088 213.516 255.395 213.51 258.705C213.561 260.742 213.594 262.862 212.79 264.709C212.475 265.289 212.244 265.911 212.106 266.556C212.106 266.887 212.062 267.216 211.977 267.536C211.741 268.141 211.053 268.399 210.402 268.538C209.209 268.797 207.984 268.884 206.767 268.796C206.481 268.793 206.199 268.73 205.94 268.612C205.478 268.376 205.247 267.877 204.9 267.503C204.157 266.69 202.919 266.441 202.24 265.573C201.39 264.483 201.746 262.908 202.24 261.624C202.734 260.34 203.367 258.95 202.933 257.638C202.42 256.1 200.623 255.269 200.115 253.717C201.501 247.464 198.092 240.998 198.383 234.602C198.452 233.11 198.711 231.632 198.715 230.14C198.715 226.298 197.066 222.557 197.33 218.724C198.027 208.983 194.706 199.257 193.302 189.591C193.033 188.149 192.934 186.681 193.006 185.217C193.214 182.797 194.337 180.548 195.685 178.53C196.655 177.084 197.819 175.666 199.422 174.992C200.743 174.433 202.221 174.438 203.653 174.447C207.229 174.475 210.804 174.502 214.379 174.567C216.812 174.532 219.242 174.748 221.631 175.214C223.566 175.652 225.377 176.553 227.34 176.835Z" fill="#3D3C40"/>
<path d="M169.578 132.429C169.232 130.734 169.888 128.919 169.375 127.27C169.19 126.674 168.737 126.055 168.114 126.069C167.49 126.083 167.098 126.679 166.562 126.96C165.698 127.422 164.645 127.002 163.79 126.549C162.936 126.097 161.943 125.58 161.019 125.852C160.908 126.443 161.305 127.002 161.739 127.413C162.216 127.777 162.611 128.236 162.899 128.762C163.116 129.307 163.014 129.916 163.06 130.503C163.157 131.842 163.984 133.001 164.857 134.045C166.226 135.727 167.68 137.338 169.213 138.871C169.213 138.871 171.523 135.989 171.49 135.486C171.458 134.983 170.668 134.562 170.382 134.184C169.988 133.665 169.713 133.066 169.578 132.429Z" fill="white"/>
<path opacity="0.72" d="M169.578 132.429C169.232 130.734 169.888 128.919 169.375 127.27C169.19 126.674 168.737 126.055 168.114 126.069C167.49 126.083 167.098 126.679 166.562 126.96C165.698 127.422 164.645 127.002 163.79 126.549C162.936 126.097 161.943 125.579 161.019 125.852C160.908 126.443 161.305 127.002 161.739 127.413C162.216 127.777 162.611 128.236 162.899 128.762C163.116 129.307 163.014 129.916 163.06 130.503C163.157 131.842 163.984 133.001 164.857 134.045C166.226 135.727 167.68 137.338 169.213 138.871C169.213 138.871 171.523 135.989 171.49 135.486C171.458 134.983 170.668 134.562 170.382 134.184C169.988 133.665 169.713 133.066 169.578 132.429Z" fill="#3D3C40" fill-opacity="0.72"/>
<path d="M238.892 167.898C239.1 168.436 239.254 168.993 239.354 169.561C239.955 172.47 240.334 175.421 240.708 178.368C240.805 179.153 240.906 179.943 240.934 180.732C241.042 182.614 240.655 184.492 239.812 186.178C238.96 187.874 237.506 189.192 235.733 189.872C235.188 190.066 234.426 190.103 234.186 189.577C234.1 189.333 234.1 189.068 234.186 188.824C234.403 188.039 234.842 187.332 235.109 186.57C235.531 185.432 235.602 184.193 235.313 183.014C235.202 182.552 234.966 182.058 234.509 181.966C234.737 183.007 234.544 184.096 233.973 184.995C233.91 185.12 233.823 185.23 233.717 185.321C233.61 185.411 233.487 185.48 233.354 185.522C233.166 185.541 232.976 185.496 232.817 185.394C232.657 185.291 232.537 185.138 232.477 184.958C232.365 184.595 232.342 184.21 232.407 183.836C232.552 181.945 232.839 180.068 233.266 178.22C233.775 176.193 234.583 174.193 234.527 172.101C234.481 170.207 233.728 168.346 233.941 166.466C233.937 166.362 233.969 166.26 234.031 166.176C234.093 166.092 234.182 166.031 234.283 166.004C234.813 165.787 235.358 165.606 235.913 165.464C236.241 165.381 237.359 165.002 237.673 165.168C237.987 165.335 238.006 166.152 238.135 166.438C238.38 166.914 238.68 167.385 238.892 167.898Z" fill="white"/>
<path opacity="0.72" d="M238.892 167.898C239.1 168.436 239.254 168.993 239.354 169.561C239.955 172.47 240.334 175.421 240.708 178.368C240.805 179.153 240.906 179.943 240.934 180.732C241.042 182.614 240.655 184.492 239.812 186.178C238.96 187.874 237.506 189.192 235.733 189.872C235.188 190.066 234.426 190.103 234.186 189.577C234.1 189.333 234.1 189.068 234.186 188.824C234.403 188.039 234.842 187.332 235.109 186.57C235.531 185.432 235.602 184.193 235.313 183.014C235.202 182.552 234.966 182.058 234.509 181.966C234.737 183.007 234.544 184.096 233.973 184.995C233.91 185.12 233.823 185.23 233.717 185.321C233.61 185.411 233.487 185.48 233.354 185.522C233.166 185.541 232.976 185.496 232.817 185.394C232.657 185.291 232.537 185.138 232.477 184.958C232.365 184.595 232.342 184.21 232.407 183.836C232.552 181.945 232.839 180.068 233.266 178.22C233.775 176.193 234.583 174.193 234.527 172.101C234.481 170.207 233.728 168.346 233.941 166.466C233.937 166.362 233.969 166.26 234.031 166.176C234.093 166.092 234.182 166.031 234.283 166.004C234.813 165.787 235.358 165.606 235.913 165.464C236.241 165.381 237.359 165.002 237.673 165.168C237.987 165.335 238.006 166.152 238.135 166.438C238.38 166.914 238.68 167.385 238.892 167.898Z" fill="#3D3C40" fill-opacity="0.72"/>
<path d="M201.51 111.784C205.783 111.784 209.247 108.321 209.247 104.048C209.247 99.776 205.783 96.3125 201.51 96.3125C197.237 96.3125 193.773 99.776 193.773 104.048C193.773 108.321 197.237 111.784 201.51 111.784Z" fill="white"/>
<path opacity="0.72" d="M201.51 111.784C205.783 111.784 209.247 108.321 209.247 104.048C209.247 99.7759 205.783 96.3125 201.51 96.3125C197.237 96.3125 193.773 99.7759 193.773 104.048C193.773 108.321 197.237 111.784 201.51 111.784Z" fill="#3D3C40" fill-opacity="0.72"/>
<path d="M208.443 109.646C208.44 110.139 208.479 110.632 208.559 111.119C208.666 111.612 208.821 112.093 209.021 112.556C209.278 113.312 209.642 114.027 210.102 114.68C210.568 115.339 211.269 115.795 212.06 115.955C206.77 118.435 201.123 120.067 195.325 120.79C196.238 120.183 196.997 119.372 197.542 118.421C197.834 117.812 198.032 117.163 198.129 116.495C198.625 113.698 198.375 110.819 197.404 108.15C197.307 107.891 197.214 107.568 197.404 107.351C197.483 107.273 197.577 107.214 197.681 107.175C199.977 106.2 202.458 105.737 204.951 105.817C205.589 105.817 206.226 105.85 206.864 105.896C207.206 105.923 207.958 105.85 208.249 106.099C208.54 106.348 208.411 107.327 208.42 107.729L208.443 109.646Z" fill="white"/>
<path opacity="0.72" d="M208.443 109.646C208.44 110.139 208.479 110.632 208.559 111.119C208.666 111.612 208.821 112.093 209.021 112.555C209.278 113.312 209.642 114.027 210.101 114.68C210.568 115.339 211.268 115.795 212.06 115.955C206.77 118.435 201.123 120.067 195.325 120.79C196.238 120.183 196.997 119.372 197.542 118.421C197.834 117.812 198.031 117.163 198.129 116.495C198.625 113.698 198.375 110.819 197.404 108.149C197.307 107.891 197.214 107.568 197.404 107.351C197.483 107.273 197.577 107.213 197.681 107.175C199.977 106.2 202.458 105.737 204.951 105.817C205.589 105.817 206.226 105.85 206.863 105.896C207.205 105.923 207.958 105.85 208.249 106.099C208.54 106.348 208.411 107.327 208.42 107.729L208.443 109.646Z" fill="#3D3C40" fill-opacity="0.72"/>
<path d="M212.536 115.29C211.397 113.832 209.804 112.798 208.009 112.351C206.214 111.904 204.322 112.07 202.633 112.823C198.937 114.583 197.136 118.827 193.898 121.284C193.161 121.836 192.376 122.32 191.551 122.73C191.065 122.998 190.547 123.202 190.008 123.339C189.403 123.473 188.775 123.455 188.161 123.598C187.012 123.935 186.034 124.694 185.422 125.723C185.12 126.261 184.783 126.779 184.415 127.274C184.078 127.676 183.657 128.004 183.302 128.387C182.013 129.773 181.662 131.759 181.371 133.625C180.362 134.685 179.261 135.654 178.082 136.52C177.712 136.806 177.301 137.033 176.863 137.195C175.731 137.564 174.479 137.098 173.514 136.4C172.548 135.703 171.763 134.784 170.811 134.091C169.938 135.338 169.024 136.594 168.091 137.786C167.951 138.018 167.736 138.194 167.481 138.285C167.306 138.876 167.726 139.485 168.04 140.012L169.726 142.848C170.286 143.879 170.97 144.837 171.763 145.702C172.581 146.553 173.685 147.071 174.862 147.157C175.607 147.15 176.344 147.007 177.038 146.736C180.271 145.656 183.205 143.933 186.276 142.464C186.83 142.149 187.45 141.967 188.087 141.933C188.405 141.926 188.717 142.023 188.975 142.208C189.234 142.394 189.425 142.659 189.519 142.963C189.87 144.737 190.216 146.501 190.697 148.237C191.156 149.881 191.579 151.53 191.967 153.184C192.227 154.199 192.413 155.231 192.521 156.273C192.572 156.864 192.577 157.456 192.586 158.051L192.651 165.219C192.651 165.995 192.216 166.475 191.875 167.168C191.36 168.245 191.282 169.48 191.658 170.613C191.847 171.172 192.147 171.69 192.36 172.244C192.868 173.579 192.849 175.047 192.822 176.474L192.761 179.744C192.744 179.88 192.768 180.019 192.831 180.141C193.029 180.451 193.51 180.271 193.815 180.058L195.325 179.024C197.372 179.306 199.441 179.407 201.505 179.324C207.376 179.241 213.252 179.472 219.109 179.883C221.067 180.021 223.086 180.169 224.934 179.518C225.857 179.185 226.735 178.654 227.705 178.391C228.101 178.326 228.477 178.168 228.8 177.929C229.336 177.435 229.192 176.544 228.975 175.869C228.781 175.26 228.564 174.655 228.319 174.063C228.07 173.519 227.867 172.955 227.71 172.378C227.419 171.075 227.71 169.565 226.892 168.503C225.072 166.124 226.361 162.462 225.594 159.566C225.349 158.643 224.984 157.719 224.753 156.795C224.606 156.204 224.513 155.604 224.425 155.003C224.183 153.703 224.064 152.382 224.07 151.059C224.07 150.399 224.176 149.738 224.259 149.082L224.837 144.519C225.557 145.87 226.059 147.326 226.324 148.833C226.849 151.085 227.496 153.307 228.264 155.488C228.698 156.804 229.132 158.116 229.604 159.423C229.905 160.17 230.135 160.943 230.292 161.732C230.393 162.365 230.398 163.012 230.472 163.644C230.627 165.009 231.102 166.317 231.858 167.464C231.999 167.73 232.232 167.937 232.514 168.046C232.701 168.087 232.895 168.087 233.082 168.046C235.124 167.642 237.102 166.958 238.957 166.014C239.352 165.848 239.694 165.58 239.95 165.238C240.449 164.425 239.89 163.413 239.645 162.49C239.401 161.566 239.447 160.314 238.671 159.654C235.959 157.345 237.285 152.666 235.95 149.378C235.71 148.801 235.433 148.242 235.23 147.651C235.073 147.189 234.957 146.727 234.842 146.265C233.896 142.438 232.883 138.625 231.802 134.825C230.684 130.891 230.804 126.794 229.396 122.952C229.131 122.149 228.786 121.375 228.366 120.642C227.894 119.876 227.264 119.219 226.518 118.716C224.472 117.363 222.412 116.213 220.005 115.724C217.598 115.234 214.984 115.262 212.536 115.29Z" fill="white"/>
<path d="M212.536 115.29C211.397 113.832 209.804 112.798 208.009 112.351C206.214 111.904 204.322 112.07 202.633 112.823C198.937 114.583 197.136 118.827 193.898 121.284C193.161 121.836 192.376 122.32 191.551 122.73C191.065 122.998 190.547 123.202 190.008 123.339C189.403 123.473 188.775 123.455 188.161 123.598C187.012 123.935 186.034 124.694 185.422 125.723C185.12 126.261 184.783 126.779 184.415 127.274C184.078 127.676 183.657 128.004 183.302 128.387C182.013 129.773 181.662 131.759 181.371 133.625C180.362 134.685 179.261 135.654 178.082 136.52C177.712 136.806 177.301 137.033 176.863 137.195C175.731 137.564 174.479 137.098 173.514 136.4C172.548 135.703 171.763 134.784 170.811 134.091C169.938 135.338 169.024 136.594 168.091 137.786C167.951 138.018 167.736 138.194 167.481 138.285C167.306 138.876 167.726 139.485 168.04 140.012L169.726 142.848C170.286 143.879 170.97 144.837 171.763 145.702C172.581 146.553 173.685 147.071 174.862 147.157C175.607 147.15 176.344 147.007 177.038 146.736C180.271 145.656 183.205 143.933 186.276 142.464C186.83 142.149 187.45 141.967 188.087 141.933C188.405 141.926 188.717 142.023 188.975 142.208C189.234 142.394 189.425 142.659 189.519 142.963C189.87 144.737 190.216 146.501 190.697 148.237C191.156 149.881 191.579 151.53 191.967 153.184C192.227 154.199 192.413 155.231 192.521 156.273C192.572 156.864 192.577 157.456 192.586 158.051L192.651 165.219C192.651 165.995 192.216 166.475 191.875 167.168C191.36 168.245 191.282 169.48 191.658 170.613C191.847 171.172 192.147 171.69 192.36 172.244C192.868 173.579 192.849 175.047 192.822 176.474L192.761 179.744C192.744 179.88 192.768 180.019 192.831 180.141C193.029 180.451 193.51 180.271 193.815 180.058L195.325 179.024C197.372 179.306 199.441 179.407 201.505 179.324C207.376 179.241 213.252 179.472 219.109 179.883C221.067 180.021 223.086 180.169 224.934 179.518C225.857 179.185 226.735 178.654 227.705 178.391C228.101 178.326 228.477 178.168 228.8 177.929C229.336 177.435 229.192 176.544 228.975 175.869C228.781 175.26 228.564 174.655 228.319 174.063C228.07 173.519 227.867 172.955 227.71 172.378C227.419 171.075 227.71 169.565 226.892 168.503C225.072 166.124 226.361 162.462 225.594 159.566C225.349 158.643 224.984 157.719 224.753 156.795C224.606 156.204 224.513 155.604 224.425 155.003C224.183 153.703 224.064 152.382 224.07 151.059C224.07 150.399 224.176 149.738 224.259 149.082L224.837 144.519C225.557 145.87 226.059 147.326 226.324 148.833C226.849 151.085 227.496 153.307 228.264 155.488C228.698 156.804 229.132 158.116 229.604 159.423C229.905 160.17 230.135 160.943 230.292 161.732C230.393 162.365 230.398 163.012 230.472 163.644C230.627 165.009 231.102 166.317 231.858 167.464C231.999 167.73 232.232 167.937 232.514 168.046C232.701 168.087 232.895 168.087 233.082 168.046C235.124 167.642 237.102 166.958 238.957 166.014C239.352 165.848 239.694 165.58 239.95 165.238C240.449 164.425 239.89 163.413 239.645 162.49C239.401 161.566 239.447 160.314 238.671 159.654C235.959 157.345 237.285 152.666 235.95 149.378C235.71 148.801 235.433 148.242 235.23 147.651C235.073 147.189 234.957 146.727 234.842 146.265C233.896 142.438 232.883 138.625 231.802 134.825C230.684 130.891 230.804 126.794 229.396 122.952C229.131 122.149 228.786 121.375 228.366 120.642C227.894 119.876 227.264 119.219 226.518 118.716C224.472 117.363 222.412 116.213 220.005 115.724C217.598 115.234 214.984 115.262 212.536 115.29Z" fill="#3D3C40" fill-opacity="0.64"/>
<path d="M194.48 105.942C193.44 105.383 193.713 103.859 193.556 102.709C193.191 100.303 190.48 98.8804 189.861 96.5342C190.592 96.6253 191.335 96.5201 192.013 96.2294C192.143 95.4504 191.989 94.6506 191.579 93.9756C193.81 93.0519 195.621 91.2923 197.884 90.4748C200.739 89.4449 203.889 90.0776 206.79 91.0337C208.226 91.4955 209.718 92.1282 210.587 93.366C211.538 94.7284 211.51 96.5157 211.473 98.1784C211.395 100.783 211.289 103.48 210.129 105.813C208.656 108.782 204.475 111.53 201.02 110.727C199.588 110.394 199.173 109.489 198.558 108.242C198.18 107.466 198.041 106.565 197.173 106.159C196.304 105.753 195.325 106.395 194.48 105.942Z" fill="#3D3C40"/>
<g opacity="0.1">
<path opacity="0.1" d="M191.976 95.0933C191.907 94.6927 191.763 94.3089 191.551 93.9617C191.68 93.9094 191.81 93.854 191.939 93.7955C192.039 94.2211 192.052 94.6626 191.976 95.0933Z" fill="#3D3C40"/>
<path opacity="0.1" d="M193.537 101.568C193.713 102.737 193.44 104.256 194.461 104.801C195.302 105.263 196.309 104.612 197.136 105.009C197.962 105.406 198.124 106.316 198.521 107.092C199.126 108.339 199.551 109.24 200.983 109.577C204.438 110.38 208.619 107.628 210.092 104.658C211.252 102.326 211.358 99.6286 211.436 97.0238C211.436 96.8945 211.436 96.7698 211.436 96.6405C211.436 97.1439 211.436 97.6519 211.436 98.1507C211.358 100.755 211.252 103.453 210.092 105.785C208.619 108.755 204.438 111.503 200.983 110.699C199.551 110.366 199.136 109.461 198.521 108.214C198.143 107.438 198.004 106.538 197.136 106.131C196.267 105.725 195.288 106.381 194.461 105.928C193.422 105.369 193.694 103.845 193.537 102.695C193.172 100.289 190.461 98.8665 189.842 96.5204C190.009 96.5428 190.177 96.5536 190.346 96.5527C191.339 98.2661 193.237 99.587 193.537 101.568Z" fill="#3D3C40"/>
</g>
<defs>
<filter id="filter0_f" x="2" y="1" width="326.682" height="256" filterUnits="userSpaceOnUse" color-interpolation-filters="sRGB">
<feFlood flood-opacity="0" result="BackgroundImageFix"/>
<feBlend mode="normal" in="SourceGraphic" in2="BackgroundImageFix" result="shape"/>
<feGaussianBlur stdDeviation="2" result="effect1_foregroundBlur"/>
</filter>
</defs>
</svg>
