<?xml version="1.0" encoding="UTF-8" standalone="no"?><!DOCTYPE svg PUBLIC "-//W3C//DTD SVG 1.1//EN" "http://www.w3.org/Graphics/SVG/1.1/DTD/svg11.dtd"><svg width="100%" height="100%" viewBox="0 0 1001 165" version="1.1" xmlns="http://www.w3.org/2000/svg" xmlns:xlink="http://www.w3.org/1999/xlink" xml:space="preserve" xmlns:serif="http://www.serif.com/" style="fill-rule:evenodd;clip-rule:evenodd;stroke-linejoin:round;stroke-miterlimit:1.41421;"><g><path d="M384.862,84.87c0,-2.501 -0.418,-4.536 -1.253,-6.102c-0.833,-1.562 -1.981,-2.79 -3.441,-3.674c-1.46,-0.888 -3.26,-1.489 -5.397,-1.8c-2.139,-0.313 -4.512,-0.469 -7.12,-0.469c-5.632,0 -11.628,1.094 -17.991,3.284c-1.461,-2.712 -2.555,-5.268 -3.284,-7.666c-0.73,-2.398 -1.097,-5.266 -1.097,-8.605c4.59,-1.564 9.178,-2.711 13.768,-3.441c4.588,-0.73 8.867,-1.096 12.828,-1.096c10.848,0 19.322,2.607 25.424,7.824c6.101,5.215 9.152,13.557 9.152,25.03l0,46.934c-3.651,1.147 -8.084,2.243 -13.299,3.286c-5.213,1.043 -11.107,1.565 -17.678,1.565c-5.319,0 -10.196,-0.47 -14.629,-1.409c-4.432,-0.938 -8.24,-2.504 -11.418,-4.694c-3.183,-2.188 -5.633,-5.005 -7.356,-8.447c-1.719,-3.443 -2.58,-7.666 -2.58,-12.673c0,-5.005 1.069,-9.203 3.207,-12.593c2.138,-3.389 4.903,-6.102 8.291,-8.135c3.391,-2.034 7.171,-3.494 11.344,-4.381c4.172,-0.887 8.343,-1.33 12.515,-1.33c3.025,0 6.362,0.158 10.014,0.469l0,-1.877Zm0,16.115c-1.253,-0.209 -2.608,-0.393 -4.07,-0.548c-1.46,-0.156 -2.761,-0.234 -3.91,-0.234c-5.111,0 -9.153,0.911 -12.126,2.737c-2.972,1.825 -4.458,4.772 -4.458,8.839c0,2.713 0.574,4.797 1.721,6.259c1.147,1.459 2.53,2.528 4.146,3.205c1.617,0.679 3.336,1.096 5.162,1.253c1.827,0.155 3.417,0.236 4.771,0.236c1.566,0 3.131,-0.132 4.694,-0.393c1.566,-0.261 2.921,-0.494 4.07,-0.704l0,-20.65Zm36.4,-26.91l-10.17,0l-0.784,-3.129l29.258,-37.391l3.598,0l0,23.623l18.93,0c0.311,1.566 0.521,2.973 0.627,4.224c0.102,1.253 0.154,2.556 0.154,3.913c0,1.459 -0.052,2.867 -0.154,4.223c-0.106,1.357 -0.316,2.869 -0.627,4.537l-18.93,0l0,31.76c0,3.232 0.262,5.839 0.784,7.822c0.519,1.979 1.276,3.545 2.266,4.693c0.993,1.147 2.217,1.929 3.677,2.346c1.46,0.419 3.183,0.627 5.162,0.627c1.566,0 3.103,-0.131 4.617,-0.392c1.511,-0.26 2.841,-0.495 3.988,-0.703c0.732,1.979 1.251,4.04 1.565,6.179c0.314,2.138 0.469,4.043 0.469,5.711c0,1.147 -0.025,2.111 -0.078,2.894c-0.052,0.781 -0.129,1.54 -0.235,2.268c-4.797,1.149 -9.75,1.72 -14.861,1.72c-9.492,0 -16.742,-2.215 -21.747,-6.646c-5.006,-4.434 -7.509,-11.658 -7.509,-21.67l0,-36.609Zm58.696,0l-10.168,0l-0.784,-3.129l29.257,-37.391l3.598,0l0,23.623l18.93,0c0.312,1.566 0.522,2.973 0.627,4.224c0.102,1.253 0.155,2.556 0.155,3.913c0,1.459 -0.053,2.867 -0.155,4.223c-0.105,1.357 -0.315,2.869 -0.627,4.537l-18.93,0l0,31.76c0,3.232 0.263,5.839 0.783,7.822c0.522,1.979 1.278,3.545 2.268,4.693c0.992,1.147 2.215,1.929 3.677,2.346c1.459,0.419 3.182,0.627 5.161,0.627c1.565,0 3.103,-0.131 4.617,-0.392c1.512,-0.26 2.842,-0.495 3.989,-0.703c0.73,1.979 1.251,4.04 1.563,6.179c0.315,2.138 0.471,4.043 0.471,5.711c0,1.147 -0.026,2.111 -0.079,2.894c-0.051,0.781 -0.129,1.54 -0.234,2.268c-4.798,1.149 -9.75,1.72 -14.863,1.72c-9.49,0 -16.74,-2.215 -21.746,-6.646c-5.006,-4.434 -7.51,-11.658 -7.51,-21.67l0,-36.609Zm102.767,14.865c-0.208,-5.009 -1.591,-9.049 -4.146,-12.126c-2.555,-3.077 -6.127,-4.617 -10.717,-4.617c-5.215,0 -9.178,1.461 -11.89,4.381c-2.711,2.921 -4.327,7.041 -4.848,12.362l31.601,0Zm-31.759,15.486c0.418,6.258 2.608,10.795 6.571,13.612c3.963,2.816 9.178,4.224 15.646,4.224c3.546,0 7.168,-0.34 10.872,-1.019c3.703,-0.677 7.222,-1.642 10.561,-2.893c1.147,2.086 2.137,4.589 2.972,7.51c0.834,2.918 1.303,6.049 1.408,9.386c-8.136,3.129 -17.315,4.694 -27.537,4.694c-7.508,0 -13.947,-1.043 -19.321,-3.13c-5.37,-2.085 -9.751,-4.981 -13.14,-8.681c-3.39,-3.703 -5.894,-8.11 -7.51,-13.222c-1.616,-5.11 -2.423,-10.689 -2.423,-16.737c0,-5.946 0.833,-11.526 2.502,-16.741c1.667,-5.217 4.145,-9.752 7.431,-13.61c3.285,-3.861 7.352,-6.911 12.203,-9.154c4.85,-2.242 10.508,-3.364 16.974,-3.364c5.632,0 10.639,0.991 15.019,2.973c4.381,1.981 8.109,4.694 11.186,8.137c3.077,3.439 5.399,7.535 6.963,12.28c1.565,4.745 2.347,9.831 2.347,15.253c0,1.982 -0.078,3.939 -0.235,5.867c-0.156,1.928 -0.341,3.468 -0.547,4.615l-51.942,0Zm61.208,-47.248c1.564,-0.311 3.05,-0.547 4.458,-0.702c1.41,-0.159 2.946,-0.236 4.616,-0.236c1.565,0 3.104,0.106 4.614,0.312c1.514,0.209 3,0.471 4.458,0.784c0.315,0.522 0.602,1.277 0.862,2.268c0.261,0.991 0.495,2.034 0.704,3.13c0.209,1.095 0.39,2.188 0.547,3.285c0.157,1.096 0.286,2.005 0.392,2.739c2.294,-3.235 5.112,-6.13 8.448,-8.684c3.338,-2.556 7.51,-3.834 12.515,-3.834c1.045,0 2.244,0.052 3.599,0.157c1.355,0.104 2.346,0.26 2.972,0.47c0.209,1.041 0.366,2.241 0.469,3.597c0.107,1.356 0.158,2.764 0.158,4.225c0,1.773 -0.08,3.702 -0.235,5.788c-0.157,2.086 -0.444,4.067 -0.862,5.945c-1.147,-0.21 -2.424,-0.313 -3.831,-0.313c-1.408,0 -2.27,0 -2.581,0c-1.775,0 -3.755,0.183 -5.947,0.547c-2.189,0.366 -4.275,1.33 -6.257,2.896c-1.983,1.564 -3.624,3.911 -4.929,7.041c-1.303,3.127 -1.957,7.508 -1.957,13.141l0,38.486c-1.875,0.311 -3.752,0.52 -5.631,0.624c-1.876,0.105 -3.701,0.156 -5.475,0.156c-1.774,0 -3.572,-0.051 -5.398,-0.156c-1.825,-0.104 -3.728,-0.313 -5.709,-0.624l0,-81.042Zm59.226,0c1.459,-0.311 2.92,-0.547 4.379,-0.702c1.461,-0.159 3.077,-0.236 4.851,-0.236c1.773,0 3.337,0.077 4.693,0.236c1.356,0.155 2.764,0.391 4.224,0.702c0.312,0.522 0.601,1.279 0.861,2.27c0.26,0.99 0.496,2.035 0.704,3.128c0.209,1.096 0.39,2.164 0.547,3.207c0.159,1.043 0.288,1.93 0.392,2.66c0.832,-1.563 1.929,-3.128 3.286,-4.694c1.355,-1.562 2.971,-2.969 4.848,-4.223c1.877,-1.252 3.989,-2.269 6.337,-3.05c2.346,-0.784 4.981,-1.175 7.901,-1.175c12.619,0 20.702,4.799 24.249,14.395c2.085,-3.86 5.032,-7.222 8.838,-10.092c3.808,-2.869 8.632,-4.303 14.474,-4.303c9.177,0 15.93,2.532 20.258,7.59c4.33,5.057 6.494,12.958 6.494,23.702l0,51.47c-3.754,0.626 -7.459,0.937 -11.108,0.937c-3.651,0 -7.354,-0.311 -11.108,-0.937l0,-45.684c0,-5.632 -0.705,-9.959 -2.114,-12.983c-1.406,-3.025 -4.248,-4.538 -8.524,-4.538c-1.775,0 -3.52,0.262 -5.24,0.782c-1.723,0.52 -3.287,1.485 -4.694,2.894c-1.408,1.408 -2.555,3.391 -3.443,5.946c-0.887,2.553 -1.33,5.867 -1.33,9.934l0,43.649c-3.755,0.626 -7.458,0.937 -11.108,0.937c-3.65,0 -7.354,-0.311 -11.109,-0.937l0,-45.684c0,-5.632 -0.703,-9.959 -2.112,-12.983c-1.408,-3.025 -4.249,-4.538 -8.525,-4.538c-1.771,0 -3.546,0.262 -5.32,0.782c-1.771,0.52 -3.363,1.538 -4.771,3.051c-1.409,1.511 -2.53,3.623 -3.363,6.336c-0.835,2.711 -1.253,6.258 -1.253,10.638l0,42.398c-3.755,0.626 -7.455,0.937 -11.107,0.937c-3.651,0 -7.352,-0.311 -11.107,-0.937l0,-80.885Zm162.58,65.865c5.841,0 10.039,-2.163 12.593,-6.493c2.556,-4.327 3.834,-10.56 3.834,-18.694c0,-8.136 -1.278,-14.367 -3.834,-18.696c-2.554,-4.33 -6.752,-6.493 -12.593,-6.493c-5.736,0 -9.882,2.163 -12.437,6.493c-2.557,4.329 -3.835,10.56 -3.835,18.696c0,8.134 1.278,14.367 3.835,18.694c2.555,4.33 6.701,6.493 12.437,6.493Zm0,16.897c-6.571,0 -12.282,-1.07 -17.131,-3.208c-4.85,-2.137 -8.866,-5.11 -12.047,-8.918c-3.181,-3.807 -5.58,-8.265 -7.195,-13.376c-1.618,-5.111 -2.426,-10.637 -2.426,-16.582c0,-5.945 0.808,-11.526 2.426,-16.74c1.615,-5.215 4.014,-9.726 7.195,-13.533c3.181,-3.808 7.197,-6.803 12.047,-8.996c4.849,-2.19 10.56,-3.286 17.131,-3.286c6.571,0 12.306,1.096 17.209,3.286c4.901,2.193 8.968,5.188 12.204,8.996c3.233,3.807 5.631,8.318 7.197,13.533c1.564,5.214 2.345,10.795 2.345,16.74c0,5.945 -0.781,11.471 -2.345,16.582c-1.566,5.111 -3.964,9.569 -7.197,13.376c-3.236,3.808 -7.303,6.781 -12.204,8.918c-4.903,2.138 -10.638,3.208 -17.209,3.208Zm67.477,-37.078c-5.842,-1.67 -10.405,-4.146 -13.689,-7.432c-3.286,-3.284 -4.929,-8.213 -4.929,-14.785c0,-7.927 2.843,-14.13 8.528,-18.615c5.683,-4.486 13.429,-6.729 23.232,-6.729c4.068,0 8.082,0.366 12.046,1.096c3.964,0.73 7.979,1.824 12.046,3.286c-0.209,2.71 -0.73,5.526 -1.566,8.448c-0.832,2.919 -1.823,5.474 -2.97,7.667c-2.504,-1.044 -5.267,-1.957 -8.293,-2.74c-3.023,-0.781 -6.205,-1.172 -9.542,-1.172c-3.547,0 -6.309,0.547 -8.293,1.642c-1.981,1.096 -2.972,2.843 -2.972,5.24c0,2.295 0.704,3.912 2.112,4.851c1.408,0.938 3.417,1.827 6.023,2.659l8.918,2.662c2.921,0.833 5.554,1.849 7.901,3.049c2.346,1.2 4.355,2.686 6.023,4.458c1.669,1.773 2.972,3.964 3.91,6.571c0.94,2.608 1.41,5.788 1.41,9.542c0,3.861 -0.809,7.459 -2.426,10.796c-1.616,3.338 -3.964,6.232 -7.04,8.682c-3.077,2.453 -6.806,4.382 -11.187,5.789c-4.379,1.409 -9.334,2.113 -14.862,2.113c-2.504,0 -4.796,-0.079 -6.882,-0.235c-2.087,-0.158 -4.094,-0.418 -6.024,-0.782c-1.929,-0.366 -3.833,-0.808 -5.71,-1.33c-1.878,-0.521 -3.912,-1.199 -6.102,-2.034c0.21,-2.817 0.705,-5.659 1.486,-8.526c0.782,-2.867 1.8,-5.659 3.051,-8.371c3.442,1.357 6.702,2.373 9.779,3.051c3.077,0.679 6.284,1.019 9.62,1.019c1.462,0 3.052,-0.132 4.771,-0.393c1.722,-0.261 3.313,-0.73 4.773,-1.408c1.461,-0.678 2.687,-1.565 3.677,-2.659c0.991,-1.095 1.484,-2.529 1.484,-4.304c0,-2.501 -0.755,-4.301 -2.267,-5.396c-1.513,-1.094 -3.625,-2.062 -6.335,-2.895l-9.701,-2.815Zm54.112,-28.787l-10.167,0l-0.785,-3.129l29.256,-37.391l3.598,0l0,23.623l18.931,0c0.313,1.566 0.521,2.973 0.627,4.224c0.103,1.253 0.156,2.556 0.156,3.913c0,1.459 -0.053,2.867 -0.156,4.223c-0.106,1.357 -0.314,2.869 -0.627,4.537l-18.931,0l0,31.76c0,3.232 0.263,5.839 0.783,7.822c0.523,1.979 1.278,3.545 2.268,4.693c0.993,1.147 2.218,1.929 3.677,2.346c1.459,0.419 3.183,0.627 5.163,0.627c1.565,0 3.102,-0.131 4.616,-0.392c1.511,-0.26 2.841,-0.495 3.988,-0.703c0.731,1.979 1.253,4.04 1.564,6.179c0.315,2.138 0.47,4.043 0.47,5.711c0,1.147 -0.026,2.111 -0.078,2.894c-0.052,0.781 -0.129,1.54 -0.235,2.268c-4.796,1.149 -9.75,1.72 -14.861,1.72c-9.492,0 -16.741,-2.215 -21.748,-6.646c-5.005,-4.434 -7.509,-11.658 -7.509,-21.67l0,-36.609Zm-737.501,-41.662c4.521,-0.629 8.87,-0.945 13.05,-0.945c4.407,0 8.758,0.316 13.051,0.945l27.965,58.043l28.812,-58.043c3.503,-0.629 7.399,-0.945 11.694,-0.945c4.294,0 8.416,0.316 12.372,0.945l5.762,106.583c-4.292,0.63 -8.36,0.944 -12.201,0.944c-3.844,0 -7.627,-0.314 -11.355,-0.944l-3.052,-77.061l-24.745,53.261c-1.583,0.21 -3.22,0.396 -4.916,0.551c-1.695,0.158 -3.388,0.236 -5.084,0.236c-1.47,0 -2.937,-0.052 -4.405,-0.157c-1.469,-0.105 -2.994,-0.316 -4.577,-0.63l-23.049,-54.365l-2.373,78.165c-3.615,0.63 -7.118,0.944 -10.509,0.944c-3.616,0 -7.346,-0.314 -11.185,-0.944l4.745,-106.583Z" style="fill:#222;"/><path d="M130.41,15.678l0.865,17.434c14.134,15.615 19.713,37.729 12.677,58.513c-10.503,31.025 -45.136,47.334 -77.354,36.427c-32.219,-10.906 -49.823,-44.899 -39.32,-75.924c7.059,-20.853 25.019,-35.058 45.82,-38.819l11.239,-13.279c-35.063,-0.949 -68.143,20.815 -79.979,55.778c-14.542,42.958 8.493,89.571 51.451,104.114c42.958,14.542 89.572,-8.494 104.115,-51.452c11.816,-34.906 -1.179,-72.227 -29.514,-92.792Z" style="fill:#222;"/><path d="M110.273,67.122l-0.595,-24.373l-0.477,-14.025l-0.323,-12.15c0,0 0.067,-5.859 -0.137,-7.236c-0.043,-0.29 -0.134,-0.525 -0.243,-0.731l-0.041,-0.086l-0.047,-0.075c-0.224,-0.387 -0.578,-0.701 -1.035,-0.856c-0.467,-0.158 -0.951,-0.119 -1.371,0.062l-0.026,0.01l-0.145,0.074c-0.199,0.097 -0.402,0.223 -0.6,0.415c-0.999,0.969 -4.504,5.664 -4.504,5.664l-7.638,9.456l-8.898,10.851l-15.278,18.999c0,0 -7.011,8.75 -5.462,19.521c1.55,10.77 9.557,16.017 15.769,18.12c6.211,2.103 15.759,2.799 23.533,-4.816c7.773,-7.615 7.518,-18.824 7.518,-18.824Z" style="fill:#222;"/></g></svg>