<?xml version="1.0" encoding="UTF-8"?>
<svg version="1.1" xmlns="http://www.w3.org/2000/svg" width="721" height="203"><script xmlns="" id="argent-x-extension" data-extension-id="{51e0c76c-7dbc-41ba-a45d-c579be84301b}"/>
<path d="M0 0 C7.43304952 4.28545599 10.58973692 10.0209139 12.97900391 18.11938477 C14.87790449 26.56686243 14.43884693 35.47153539 14.38891602 44.07861328 C14.37491369 47.4583329 14.40937894 50.8353511 14.44726562 54.21484375 C14.44821575 56.37239651 14.44636377 58.52995273 14.44140625 60.6875 C14.45466446 61.69272705 14.46792267 62.6979541 14.48158264 63.73364258 C14.38870605 70.68972224 14.38870605 70.68972224 11.47900391 74.46582031 C10.59905762 75.11647461 9.71911133 75.76712891 8.8125 76.4375 C8.24635986 76.86901367 7.68021973 77.30052734 7.09692383 77.74511719 C6.57638428 78.07157227 6.05584473 78.39802734 5.51953125 78.734375 C4.90319824 79.12657227 4.28686523 79.51876953 3.65185547 79.92285156 C2.98299316 80.34018555 2.31413086 80.75751953 1.625 81.1875 C0.10226816 82.15531224 -1.4198248 83.12413014 -2.94140625 84.09375 C-3.77559082 84.62355469 -4.60977539 85.15335937 -5.46923828 85.69921875 C-10.61068505 88.98708484 -15.70823066 92.34233553 -20.8125 95.6875 C-22.48440356 96.78111443 -24.15630758 97.8747282 -25.82835388 98.96812439 C-30.75996399 102.19315052 -35.68918927 105.4218008 -40.6171875 108.65234375 C-42.6405858 109.97662239 -44.66402161 111.30084373 -46.6875 112.625 C-48.05575928 113.5236377 -48.05575928 113.5236377 -49.45166016 114.44042969 C-52.02130401 116.1205997 -54.60071193 117.78386368 -57.1875 119.4375 C-58.0753418 120.00984375 -58.96318359 120.5821875 -59.87792969 121.171875 C-60.74836914 121.71714844 -61.61880859 122.26242188 -62.515625 122.82421875 C-63.2880957 123.31237061 -64.06056641 123.80052246 -64.85644531 124.3034668 C-68.91790501 126.27932355 -72.81245405 126.31705863 -77.1875 125.4375 C-85.30152455 121.45703513 -88.89382531 114.84039695 -92.1171875 106.76171875 C-93.83743498 101.41890631 -94.58590383 96.00450931 -95.1875 90.4375 C-108.59178554 98.82643692 -108.59178554 98.82643692 -121.8125 107.5 C-127.30542521 111.18950243 -132.82515127 114.83406335 -138.375 118.4375 C-139.45418701 119.14144897 -139.45418701 119.14144897 -140.55517578 119.85961914 C-141.23177246 120.29781982 -141.90836914 120.73602051 -142.60546875 121.1875 C-143.20125732 121.57421875 -143.7970459 121.9609375 -144.41088867 122.359375 C-149.75329983 125.60138237 -153.96326323 126.20811979 -160.1875 125.4375 C-167.0106942 122.28833344 -170.87762248 116.61421083 -173.67578125 109.828125 C-175.92049149 103.59659905 -177.48048317 98.13302704 -177.1875 91.4375 C-180.81409104 93.74751149 -184.43868642 96.06063391 -188.0625 98.375 C-189.17189941 99.08342041 -190.28129883 99.79184082 -191.42431641 100.52172852 C-197.48297477 104.3965117 -203.52202439 108.29893189 -209.53125 112.25 C-210.12374542 112.63926163 -210.71624084 113.02852325 -211.32669067 113.42958069 C-214.20257802 115.31996124 -217.07554661 117.21459296 -219.94482422 119.11499023 C-220.9813916 119.79762939 -222.01795898 120.48026855 -223.0859375 121.18359375 C-224.00036621 121.78872803 -224.91479492 122.3938623 -225.85693359 123.01733398 C-230.73615559 125.99056197 -235.62647626 126.14958231 -241.1875 125.4375 C-247.81570531 122.90014016 -251.39281152 116.62631738 -254.1875 110.4375 C-257.70942961 100.32205627 -259.12868515 90.03958032 -260.1875 79.4375 C-274.36478393 88.40996138 -288.45939299 97.50070394 -302.50146484 106.68310547 C-306.59959398 109.35981479 -310.70444684 112.02605261 -314.8125 114.6875 C-315.83307495 115.35011841 -315.83307495 115.35011841 -316.87426758 116.02612305 C-318.10201904 116.82088196 -319.33190151 117.61236416 -320.56445312 118.3996582 C-322.03160711 119.33781578 -323.4890735 120.29108148 -324.9453125 121.24609375 C-328.03301535 122.8867721 -329.90066488 122.40861038 -333.1875 121.4375 C-335.43336062 116.94577876 -334.66231782 110.98491921 -334.75732422 105.99926758 C-334.79390208 104.50815337 -334.8483954 103.01736364 -334.92138672 101.52758789 C-335.51198566 89.27878353 -335.51198566 89.27878353 -332.49560547 85.08544922 C-330.15938897 83.22729422 -327.82115323 81.83864691 -325.1875 80.4375 C-323.55419691 79.37327892 -321.92662993 78.30020654 -320.3046875 77.21875 C-318.55992161 76.12080955 -316.81240732 75.02722733 -315.0625 73.9375 C-313.11775806 72.713401 -311.17377219 71.48810014 -309.23046875 70.26171875 C-308.2357959 69.63442871 -307.24112305 69.00713867 -306.21630859 68.36083984 C-301.24052721 65.20114246 -296.30718606 61.9771768 -291.375 58.75 C-289.46747006 57.5025703 -287.55991837 56.25517387 -285.65234375 55.0078125 C-284.7382373 54.41000977 -283.82413086 53.81220703 -282.88232422 53.19628906 C-278.03982022 50.0358072 -273.18291308 46.89763641 -268.32495117 43.76098633 C-265.60149451 42.00206575 -262.88512657 40.23591771 -260.1875 38.4375 C-259.91105585 35.79350093 -259.81847369 33.37040495 -259.8515625 30.7265625 C-259.83904829 29.15624588 -259.82601109 27.58593336 -259.8125 26.015625 C-259.80857028 23.53793862 -259.8125109 21.06065566 -259.82714844 18.58300781 C-259.83572251 16.1927462 -259.81402919 13.80417541 -259.7890625 11.4140625 C-259.80240631 10.67539948 -259.81575012 9.93673645 -259.82949829 9.1756897 C-259.77460363 5.35088084 -259.46205223 3.73669519 -256.83740234 0.87646484 C-255.52570068 0.16417725 -255.52570068 0.16417725 -254.1875 -0.5625 C-253.1975 -0.2325 -252.2075 0.0975 -251.1875 0.4375 C-251.1875 10.9975 -251.1875 21.5575 -251.1875 32.4375 C-240.17376665 25.63489999 -229.30773023 18.63143303 -218.50244141 11.50415039 C-215.40635615 9.46777218 -212.30147579 7.4464016 -209.1875 5.4375 C-208.25421875 4.83437988 -207.3209375 4.23125977 -206.359375 3.60986328 C-205.49054688 3.06571777 -204.62171875 2.52157227 -203.7265625 1.9609375 C-202.9732666 1.48575684 -202.2199707 1.01057617 -201.44384766 0.52099609 C-197.41014815 -1.41598274 -193.51995335 -1.41996473 -189.1875 -0.5625 C-182.12013161 2.69936234 -177.93185119 9.27427074 -174.9375 16.25 C-171.2875423 26.24175921 -170.90989257 35.87299488 -171.1875 46.4375 C-159.02295845 38.93397292 -147.04344558 31.16177849 -135.0859375 23.33349609 C-129.71087917 19.81743284 -124.33241226 16.30640675 -118.9362793 12.82275391 C-115.48358705 10.59327906 -112.04490028 8.35824229 -108.67578125 6.00390625 C-107.71027344 5.34261719 -106.74476563 4.68132813 -105.75 4 C-104.96753906 3.44441406 -104.18507813 2.88882813 -103.37890625 2.31640625 C-101.1875 1.4375 -101.1875 1.4375 -98.55053711 2.38256836 C-97.77073486 2.7306958 -96.99093262 3.07882324 -96.1875 3.4375 C-95.93906305 8.2934869 -95.75832341 13.14573499 -95.63818359 18.0065918 C-95.58808837 19.65698695 -95.5199829 21.30694245 -95.43310547 22.95581055 C-94.73216978 36.60756395 -94.73216978 36.60756395 -98.17456055 40.93603516 C-100.76256842 42.75857591 -103.3190496 44.10760562 -106.1875 45.4375 C-107.56854447 46.31513047 -108.93594069 47.21480838 -110.28515625 48.140625 C-111.60553392 48.99150583 -112.9271755 49.84042817 -114.25 50.6875 C-115.73050209 51.64057322 -117.21096985 52.59369975 -118.69140625 53.546875 C-119.43664551 54.02576172 -120.18188477 54.50464844 -120.94970703 54.99804688 C-124.53390819 57.30357273 -128.11038816 59.62099685 -131.6875 61.9375 C-133.09242186 62.84639444 -134.49736988 63.75524846 -135.90234375 64.6640625 C-138.85397065 66.57381879 -141.80430439 68.48555515 -144.75390625 70.3984375 C-145.50671875 70.88634766 -146.25953125 71.37425781 -147.03515625 71.87695312 C-148.45867459 72.7996039 -149.88187831 73.72274039 -151.3046875 74.64648438 C-155.90241742 77.6254869 -160.53360443 80.54706394 -165.1875 83.4375 C-162.64172052 85.98327948 -161.12292152 86.4462564 -157.5 86.9375 C-148.43964475 86.53741357 -140.13263547 78.84166376 -132.88668823 73.94088745 C-129.87841135 71.90731583 -126.86155608 69.88658176 -123.84375 67.8671875 C-123.25504623 67.4731926 -122.66634247 67.07919769 -122.05979919 66.67326355 C-117.22088133 63.44293519 -112.32372613 60.32702726 -107.35791016 57.29663086 C-103.04492766 54.64725985 -98.82275564 51.87468386 -94.6171875 49.05859375 C-93.43378859 48.27009336 -92.25027537 47.48176451 -91.06665039 46.69360352 C-89.29262945 45.51214277 -87.52161278 44.32718845 -85.75875854 43.12911987 C-84.11294442 42.01083486 -82.45701716 40.90747855 -80.80078125 39.8046875 C-79.83954346 39.15612793 -78.87830566 38.50756836 -77.88793945 37.83935547 C-74.98026398 36.32991938 -73.40781975 35.87398726 -70.1875 36.4375 C-66.89835265 41.37122102 -67.69844443 47.22569827 -67.65209961 53.00610352 C-67.62520199 55.23327462 -67.55031264 57.45566872 -67.47460938 59.68164062 C-67.28321003 70.02786701 -67.28321003 70.02786701 -69.62963867 73.68554688 C-71.40882804 75.2377024 -73.09901286 76.34772052 -75.1875 77.4375 C-75.99058594 77.99179688 -76.79367187 78.54609375 -77.62109375 79.1171875 C-78.61302734 79.70886719 -78.61302734 79.70886719 -79.625 80.3125 C-80.30433594 80.72242187 -80.98367188 81.13234375 -81.68359375 81.5546875 C-82.42802734 81.99167969 -82.42802734 81.99167969 -83.1875 82.4375 C-81.46523504 85.68599977 -81.46523504 85.68599977 -78.1875 86.4375 C-69.95474403 87.63499178 -64.91673429 83.85455663 -58.1875 79.4375 C-57.09953125 78.72335938 -56.0115625 78.00921875 -54.890625 77.2734375 C-52.43709572 75.64874694 -49.99447728 74.00851626 -47.5546875 72.36328125 C-39.48166593 66.93278593 -31.2979941 61.6682003 -23.14160156 56.36425781 C-20.20095935 54.44627861 -17.26757957 52.51763964 -14.3359375 50.5859375 C-13.41578857 49.98177002 -12.49563965 49.37760254 -11.54760742 48.75512695 C-9.79803907 47.60616862 -8.05071092 46.45379 -6.3059082 45.29760742 C-5.52820068 44.78818604 -4.75049316 44.27876465 -3.94921875 43.75390625 C-3.26819092 43.30474854 -2.58716309 42.85559082 -1.88549805 42.39282227 C-0.1875 41.4375 -0.1875 41.4375 1.8125 41.4375 C-0.90471504 38.59677518 -2.2854788 37.52770212 -6.3125 37.125 C-12.36026639 37.6127231 -16.61981086 40.36268592 -21.52734375 43.671875 C-22.12925537 44.07349854 -22.73116699 44.47512207 -23.35131836 44.88891602 C-24.54848806 45.69482882 -25.73616398 46.51508339 -26.91235352 47.35131836 C-31.35868173 50.36391965 -34.80407394 51.21018747 -40.1875 51.4375 C-46.59560934 49.48248359 -50.23871864 46.25987301 -54 40.8125 C-55.74914697 35.84124019 -56.34379024 31.61831017 -55.1875 26.4375 C-53.57397461 24.65087891 -53.57397461 24.65087891 -51.40234375 23.1015625 C-50.58588379 22.51157471 -49.76942383 21.92158691 -48.92822266 21.3137207 C-48.02378418 20.69456787 -47.1193457 20.07541504 -46.1875 19.4375 C-44.75543213 18.45172974 -44.75543213 18.45172974 -43.29443359 17.44604492 C-40.21222374 15.35566482 -37.11020418 13.29846472 -34 11.25 C-32.94619141 10.55197266 -31.89238281 9.85394531 -30.80664062 9.13476562 C-28.79792301 7.80448068 -26.78775703 6.47637915 -24.77587891 5.15087891 C-22.7169577 3.78797483 -20.6743555 2.4059574 -18.63671875 1.01171875 C-12.92213033 -2.66129422 -6.14902465 -2.76706109 0 0 Z M-202.5625 40.875 C-203.17407959 41.26042969 -203.78565918 41.64585938 -204.41577148 42.04296875 C-206.68753838 43.48629201 -208.93714089 44.96101608 -211.1875 46.4375 C-213.27457007 47.79322975 -215.36182311 49.14867784 -217.44921875 50.50390625 C-221.97328098 53.44689254 -226.48716702 56.40497255 -230.99609375 59.37109375 C-237.69474079 63.77689483 -244.4289196 68.12429687 -251.1875 72.4375 C-250.43263405 78.39255363 -249.75719069 82.245705 -245.0625 86.25 C-240.44273189 88.15816509 -235.71438048 88.45272906 -231.01025391 86.56274414 C-228.78715518 85.32063592 -226.6777708 83.98035904 -224.5625 82.5625 C-223.78398682 82.06363281 -223.00547363 81.56476563 -222.20336914 81.05078125 C-219.84988525 79.53441687 -217.51695146 77.99046764 -215.1875 76.4375 C-213.88686164 75.58051226 -212.58608946 74.72372757 -211.28515625 73.8671875 C-208.84990321 72.25537692 -206.42438992 70.62998515 -204.00390625 68.99609375 C-199.72302585 66.11319012 -195.39595773 63.30304406 -191.0625 60.5 C-190.35150146 60.03916016 -189.64050293 59.57832031 -188.90795898 59.10351562 C-185.36996897 56.81793767 -181.81674802 54.57692053 -178.1875 52.4375 C-178.75814364 46.44574181 -180.78508715 42.43951071 -185.4375 38.5625 C-191.92966916 35.90661262 -196.86876752 37.22852968 -202.5625 40.875 Z " fill="#231F21" transform="translate(687.1875,38.5625)"/>
<path d="M0 0 C0.33 11.88 0.66 23.76 1 36 C34.66 36 68.32 36 103 36 C103 30.72 103 25.44 103 20 C105.97 20 108.94 20 112 20 C112.06058594 21.07121094 112.12117188 22.14242187 112.18359375 23.24609375 C112.26798537 24.64324391 112.35263406 26.04037857 112.4375 27.4375 C112.47681641 28.14455078 112.51613281 28.85160156 112.55664062 29.58007812 C112.47624438 33.08690419 112.47624438 33.08690419 114 36 C115.68183948 36.23287008 117.3712416 36.41264166 119.0625 36.5625 C120.691875 36.706875 122.32125 36.85125 124 37 C124 31.39 124 25.78 124 20 C126.97 20 129.94 20 133 20 C133 25.28 133 30.56 133 36 C135.97 36.33 138.94 36.66 142 37 C142 30.73 142 24.46 142 18 C145.3 17.67 148.6 17.34 152 17 C152.11605098 21.58312084 152.18720362 26.16586449 152.25 30.75 C152.28351563 32.05195312 152.31703125 33.35390625 152.3515625 34.6953125 C152.36445313 35.94570312 152.37734375 37.19609375 152.390625 38.484375 C152.41157227 39.63647461 152.43251953 40.78857422 152.45410156 41.97558594 C151.90430911 45.63732191 150.86536431 46.74207694 148 49 C143.70531771 51.14734115 138.79780232 50.23383861 134.375 48.9375 C129.70296459 47.63971239 126.5095829 48.4968057 122 50 C116.04798091 50.28800092 112.3437251 49.67186255 107 47 C105.09139339 47.54087273 105.09139339 47.54087273 102.97497559 48.41323853 C98.01315147 50.15083812 93.6221791 50.42585221 88.40039062 50.38818359 C87.03022041 50.39606903 87.03022041 50.39606903 85.63237 50.40411377 C82.64015135 50.41721968 79.6484732 50.40860914 76.65625 50.3984375 C74.5607493 50.40046094 72.46524928 50.40337462 70.36975098 50.40713501 C65.98878237 50.41154563 61.6079979 50.40516796 57.22705078 50.39111328 C51.6286376 50.37402231 46.03065598 50.38387025 40.43225861 50.40183067 C36.10838607 50.4127026 31.78461482 50.40920653 27.46073914 50.4014473 C25.39719084 50.39945471 23.33363316 50.40187125 21.27009583 50.40888596 C18.379688 50.41655666 15.48996647 50.40481783 12.59960938 50.38818359 C11.7577861 50.39425629 10.91596283 50.40032898 10.04862976 50.40658569 C4.33787678 50.34610073 -0.78699494 49.42622923 -6 47 C-12.56581602 40.02382048 -10.11566995 25.52554912 -10.0625 16.4375 C-10.0574746 14.93685045 -10.05291353 13.43619928 -10.04882812 11.93554688 C-10.03790576 8.29033023 -10.02069856 4.64517578 -10 1 C-3.375 0 -3.375 0 0 0 Z " fill="#0BA290" transform="translate(79,71)"/>
<path d="M0 0 C4.30757797 2.42343927 6.86896719 4.78270886 9.625 8.875 C10.223125 9.720625 10.82125 10.56625 11.4375 11.4375 C13.70166498 17.9916618 13.95734728 25.80483641 11.125 32.25 C7.93570979 37.62623207 2.50946024 42.65267725 -3.375 44.875 C-10.86490068 45.69474719 -18.50207048 46.22362553 -24.73046875 41.43359375 C-29.90796529 36.52665522 -33.90067597 32.18252406 -34.7109375 24.82421875 C-34.80635685 16.85670294 -34.31303881 11.14445791 -28.796875 5.1640625 C-20.50168661 -2.49590876 -10.4036649 -4.80646218 0 0 Z " fill="#0AA290" transform="translate(398.375,43.125)"/>
<path d="M0 0 C0.50377768 2.26999825 1.00290019 4.54103003 1.5 6.8125 C1.7784375 8.07707031 2.056875 9.34164062 2.34375 10.64453125 C3 14 3 14 3 17 C5.97 17 8.94 17 12 17 C12 13.7 12 10.4 12 7 C13.98 6.67 15.96 6.34 18 6 C18.495 10.95 18.495 10.95 19 16 C21.31 16 23.62 16 26 16 C26.18175781 15.37351562 26.36351562 14.74703125 26.55078125 14.1015625 C26.92783203 12.87566406 26.92783203 12.87566406 27.3125 11.625 C27.55613281 10.81289063 27.79976562 10.00078125 28.05078125 9.1640625 C29 7 29 7 32 5 C36.01499931 4.73125841 39.97137407 4.91336288 44 5 C44 8.96 44 12.92 44 17 C46.97 17 49.94 17 53 17 C53 13.7 53 10.4 53 7 C54.98 7 56.96 7 59 7 C59 10.3 59 13.6 59 17 C60.98 17 62.96 17 65 17 C65 13.7 65 10.4 65 7 C66.98 7 68.96 7 71 7 C71 10.3 71 13.6 71 17 C72.65 17 74.3 17 76 17 C76 13.37 76 9.74 76 6 C78.31 6 80.62 6 83 6 C83.05394705 8.60444348 83.09364469 11.20776998 83.125 13.8125 C83.14175781 14.55048828 83.15851563 15.28847656 83.17578125 16.04882812 C83.21074628 19.91246426 83.19397555 21.70903668 81 25 C76.79231892 26.2021946 73.29854107 25.84073007 69.01171875 25.1875 C65.9478911 24.90193936 63.03210532 25.55079921 60 26 C57.99932541 25.67073975 55.999403 25.33689574 54 25 C51.81392342 24.91077238 49.62539069 24.86983379 47.4375 24.875 C46.34308594 24.87242188 45.24867187 24.86984375 44.12109375 24.8671875 C41.06439055 24.91407724 41.06439055 24.91407724 38.37890625 25.5390625 C35.85933035 26.02725619 34.02344336 25.89095601 31.5 25.5 C28.88107715 25.15540489 27.10666488 24.97866702 24.5 25.5 C21.93221397 26.01355721 20.26117271 25.85075608 17.6875 25.5 C14.55197791 25.07811081 11.93176694 25.04262218 8.8125 25.5625 C4.75970035 26.02757537 2.78321097 25.26107032 -1 24 C-2.68437744 24.62056011 -4.35008418 25.29289322 -6 26 C-9.62778888 26.45801743 -12.8977454 26.55981407 -16.23046875 24.8671875 C-18 23 -18 23 -18.390625 20.08203125 C-18.34421875 19.00308594 -18.2978125 17.92414062 -18.25 16.8125 C-18.21390625 15.72582031 -18.1778125 14.63914062 -18.140625 13.51953125 C-18.09421875 12.68808594 -18.0478125 11.85664062 -18 11 C-16.35 11 -14.7 11 -13 11 C-13 13.31 -13 15.62 -13 18 C-10.03 17.34 -7.06 16.68 -4 16 C-4.495 13.9271875 -4.495 13.9271875 -5 11.8125 C-5.74889577 8.4688386 -6.22217867 5.44376933 -6 2 C-2.25 0 -2.25 0 0 0 Z M33.3125 13.375 C31.7905543 14.91117258 31.7905543 14.91117258 32 17 C34.97 17.495 34.97 17.495 38 18 C38 16.02 38 14.04 38 12 C35.02482427 11.68416352 35.02482427 11.68416352 33.3125 13.375 Z " fill="#221F21" transform="translate(40,38)"/>
<path d="M0 0 C5.27224623 1.86079279 10.39112524 4.63136213 14 9 C15.24641193 12.73923578 15.6249447 16.12233107 15 20 C13.1875 23.0625 13.1875 23.0625 10 25 C7.3754933 25.05082671 4.93303908 24.7127023 2.3359375 24.33203125 C-1.73505141 23.92683914 -5.61621135 24.13963385 -9.6875 24.4375 C-10.76704956 24.51532715 -10.76704956 24.51532715 -11.8684082 24.59472656 C-13.5794598 24.72305026 -15.28982128 24.86052495 -17 25 C-17.18755859 25.92425781 -17.18755859 25.92425781 -17.37890625 26.8671875 C-18.36412559 30.25039353 -20.01658104 31.17341697 -23 33 C-26.30303141 33.8989902 -29.61527697 34.50050689 -33 35 C-33.33 32.36 -33.66 29.72 -34 27 C-32.35 26.34 -30.7 25.68 -29 25 C-29.825 24.71125 -30.65 24.4225 -31.5 24.125 C-34 22 -34 22 -34.3671875 19.85546875 C-34.38356782 14.52367426 -33.78044109 9.26797733 -33 4 C-24.0247473 3.37260369 -24.0247473 3.37260369 -19.9375 5.875 C-16.79801129 9.3183102 -16.90051731 11.4237961 -17 16 C-15.35 15.67 -13.7 15.34 -12 15 C-11.731875 13.741875 -11.46375 12.48375 -11.1875 11.1875 C-10.5762958 8.80591123 -10.05874033 7.09398453 -8.75 5 C-6.16614302 3.5235103 -3.91070951 3.8059527 -1 4 C-0.67 2.68 -0.34 1.36 0 0 Z M4 10 C4 11.98 4 13.96 4 16 C6.475 16.495 6.475 16.495 9 17 C8.81171228 14.55519921 8.81171228 14.55519921 8 12 C6.03241727 10.63979849 6.03241727 10.63979849 4 10 Z M-28 11 C-28 12.98 -28 14.96 -28 17 C-26.35 17 -24.7 17 -23 17 C-23 15.68 -23 14.36 -23 13 C-25.475 12.01 -25.475 12.01 -28 11 Z M-5 11 C-5.33 12.65 -5.66 14.3 -6 16 C-4.35 16 -2.7 16 -1 16 C-1 14.35 -1 12.7 -1 11 C-2.32 11 -3.64 11 -5 11 Z " fill="#221F20" transform="translate(160,39)"/>
<path d="M0 0 C3.3 0 6.6 0 10 0 C10.0872253 4.39570794 10.14046869 8.79119271 10.1875 13.1875 C10.21263672 14.43337891 10.23777344 15.67925781 10.26367188 16.96289062 C10.27333984 18.16494141 10.28300781 19.36699219 10.29296875 20.60546875 C10.3086792 21.71043701 10.32438965 22.81540527 10.34057617 23.95385742 C9.95593278 27.39414104 9.03400899 29.22791959 7 32 C4.9140625 33.546875 4.9140625 33.546875 2.625 34.75 C1.87476563 35.15734375 1.12453125 35.5646875 0.3515625 35.984375 C-6.46812185 38.92975362 -15.35772495 39.27735556 -22.484375 37.31640625 C-27.21076536 35.17531588 -29.53415881 32.67015377 -32 28 C-32.4838213 24.9572148 -32.42592309 22.01000561 -32.3125 18.9375 C-32.30283203 18.14794922 -32.29316406 17.35839844 -32.28320312 16.54492188 C-32.20688469 12.58631769 -31.95579007 8.86201352 -31 5 C-28.03 5 -25.06 5 -22 5 C-22.03480469 6.20398438 -22.06960937 7.40796875 -22.10546875 8.6484375 C-22.1336028 10.22394442 -22.16090337 11.79946638 -22.1875 13.375 C-22.21263672 14.1690625 -22.23777344 14.963125 -22.26367188 15.78125 C-22.29004405 17.85586148 -22.15486462 19.93100865 -22 22 C-18.34340181 24.43773213 -16.53281487 24.23840358 -12.1875 24.1875 C-10.38345703 24.17783203 -10.38345703 24.17783203 -8.54296875 24.16796875 C-5.27884944 24.01321998 -2.20592654 23.61369191 1 23 C0.7525 21.205625 0.7525 21.205625 0.5 19.375 C-0.23219971 12.92958003 -0.08292095 6.47704735 0 0 Z " fill="#0BA28F" transform="translate(52,92)"/>
<path d="M0 0 C0 7.26 0 14.52 0 22 C2.76375 21.87625 5.5275 21.7525 8.375 21.625 C9.24431152 21.59100098 10.11362305 21.55700195 11.00927734 21.52197266 C15.47543818 21.45208915 15.47543818 21.45208915 19 19 C16.36 18.34 13.72 17.68 11 17 C11 17.99 11 18.98 11 20 C9.35 20 7.7 20 6 20 C6.36440793 12.59037208 6.36440793 12.59037208 8.9765625 10.1640625 C13.3285094 8.48850672 16.69778014 9.30245546 21.1875 10.1875 C22.00669922 10.32736328 22.82589844 10.46722656 23.66992188 10.61132812 C29.70997076 11.70997076 29.70997076 11.70997076 32 14 C31.1875 16.9375 31.1875 16.9375 30 20 C29.01 20.33 28.02 20.66 27 21 C31.29 21.33 35.58 21.66 40 22 C39.505 16.555 39.505 16.555 39 11 C41.31 11 43.62 11 46 11 C46.76713134 23.59800134 46.76713134 23.59800134 44.1875 28.3125 C39.61300909 30.73428931 35.15210582 31.28869558 30 31 C25.33453627 29.54163015 25.33453627 29.54163015 23.6875 26.875 C23.460625 26.25625 23.23375 25.6375 23 25 C22.071875 25.804375 21.14375 26.60875 20.1875 27.4375 C14.40181259 31.58019301 7.91070093 31.0924032 1.0625 30.875 C-3.0513728 29.69960777 -3.87614188 28.742902 -6 25 C-6.49226174 20.88509983 -6.37571698 16.82407205 -6.25 12.6875 C-6.22292969 11.00430664 -6.22292969 11.00430664 -6.1953125 9.28710938 C-6.14827856 6.52386553 -6.08256317 3.76237302 -6 1 C-3 0 -3 0 0 0 Z " fill="#221F21" transform="translate(238,33)"/>
<path d="M0 0 C1.14982806 2.91510752 2.29415488 5.83234434 3.4375 8.75 C3.92573242 9.9875 3.92573242 9.9875 4.42382812 11.25 C4.73642578 12.04921875 5.04902344 12.8484375 5.37109375 13.671875 C5.65911865 14.4050293 5.94714355 15.13818359 6.24389648 15.89355469 C7.84818269 20.3629707 8.41205903 24.22011529 8 29 C5.54340598 33.91318805 3.07532368 35.99101771 -2 38 C-5.62733025 39.14717349 -9.14665686 39.23563125 -12.9375 39.3125 C-14.14277344 39.34988281 -15.34804688 39.38726562 -16.58984375 39.42578125 C-20.61252831 38.92352167 -22.1918135 37.87024587 -25 35 C-25.90238747 32.29283758 -26.11851302 30.76223232 -26.09765625 27.98828125 C-26.09443359 27.23095703 -26.09121094 26.47363281 -26.08789062 25.69335938 C-26.07951172 24.90767578 -26.07113281 24.12199219 -26.0625 23.3125 C-26.05798828 22.51521484 -26.05347656 21.71792969 -26.04882812 20.89648438 C-26.0370585 18.93095743 -26.01912348 16.96546915 -26 15 C-19.84765625 14.90234375 -19.84765625 14.90234375 -18 15 C-17 16 -17 16 -16.90234375 18.28515625 C-16.93489583 20.85677083 -16.96744792 23.42838542 -17 26 C-12.05 25.67 -7.1 25.34 -2 25 C-2.86625 22.97746094 -2.86625 22.97746094 -3.75 20.9140625 C-4.50018766 19.15112151 -5.25017743 17.3880963 -6 15.625 C-6.3815625 14.73554687 -6.763125 13.84609375 -7.15625 12.9296875 C-7.5171875 12.07890625 -7.878125 11.228125 -8.25 10.3515625 C-8.58515625 9.56604004 -8.9203125 8.78051758 -9.265625 7.97119141 C-10 6 -10 6 -10 4 C-3.375 0 -3.375 0 0 0 Z " fill="#0CA28E" transform="translate(280,82)"/>
<path d="M0 0 C0.07465394 4.14425088 0.12883721 8.28813624 0.16479492 12.43286133 C0.17979877 13.84015734 0.20020863 15.24740724 0.22631836 16.65454102 C0.26307665 18.68777907 0.27980984 20.72039432 0.29296875 22.75390625 C0.3086792 23.97408447 0.32438965 25.1942627 0.34057617 26.45141602 C-0.21518658 32.24210529 -2.17367201 36.90454817 -6.6875 40.75 C-11.78518411 44.91998057 -17.2240085 47.6352492 -24 47 C-24.33730842 45.56342755 -24.66969591 44.12569907 -25 42.6875 C-25.185625 41.88699219 -25.37125 41.08648437 -25.5625 40.26171875 C-26 38 -26 38 -26 35 C-24.64455078 34.60167969 -24.64455078 34.60167969 -23.26171875 34.1953125 C-22.08222656 33.84210938 -20.90273437 33.48890625 -19.6875 33.125 C-18.51574219 32.77695313 -17.34398437 32.42890625 -16.13671875 32.0703125 C-12.89088275 31.11234547 -12.89088275 31.11234547 -10 29 C-9.58210911 26.08935621 -9.58210911 26.08935621 -9.70703125 22.6796875 C-9.71669922 21.42285156 -9.72636719 20.16601562 -9.73632812 18.87109375 C-9.76146484 17.55238281 -9.78660156 16.23367187 -9.8125 14.875 C-9.82754517 13.53517097 -9.84123387 12.19532596 -9.85351562 10.85546875 C-9.88897128 7.56991158 -9.93839151 4.28515418 -10 1 C-6.61981469 -0.04005702 -3.5219721 -0.08004482 0 0 Z " fill="#0CA28C" transform="translate(249,90)"/>
<path d="M0 0 C0.99 0 1.98 0 3 0 C3 53.79 3 107.58 3 163 C2.01 163 1.02 163 0 163 C0 109.21 0 55.42 0 0 Z " fill="#777777" transform="translate(317,20)"/>
<path d="M0 0 C0.10823773 2.24893954 0.18569645 4.49937575 0.25 6.75 C0.29640625 8.00296875 0.3428125 9.2559375 0.390625 10.546875 C0 14 0 14 -1.80078125 16.375 C-8.25446372 21.14361795 -17.35177464 20.65641466 -25 20 C-29.26469804 18.48205663 -30.49935788 17.75096319 -33 14 C-33.1953125 11.08203125 -33.1953125 11.08203125 -33.125 7.8125 C-33.10695312 6.72582031 -33.08890625 5.63914062 -33.0703125 4.51953125 C-33.04710937 3.68808594 -33.02390625 2.85664062 -33 2 C-31.02 2 -29.04 2 -27 2 C-27 4.64 -27 7.28 -27 10 C-24.22276075 10.78688445 -21.77389923 11.11949924 -18.890625 11.09765625 C-17.75947266 11.09282227 -17.75947266 11.09282227 -16.60546875 11.08789062 C-15.82816406 11.07951172 -15.05085938 11.07113281 -14.25 11.0625 C-13.06083984 11.05573242 -13.06083984 11.05573242 -11.84765625 11.04882812 C-9.89840492 11.03708565 -7.94919262 11.01915146 -6 11 C-6.495 6.05 -6.495 6.05 -7 1 C-4.53721199 -0.231394 -2.7204945 -0.07159196 0 0 Z " fill="#211F20" transform="translate(218,44)"/>
<path d="M0 0 C2.79192205 -0.05380578 5.5828141 -0.09357669 8.375 -0.125 C9.1690625 -0.14175781 9.963125 -0.15851563 10.78125 -0.17578125 C12.85492015 -0.19335473 14.92883241 -0.10335168 17 0 C19.7343066 2.7343066 19.95340665 4.76993555 20.09765625 8.578125 C20.08605469 9.45984375 20.07445312 10.3415625 20.0625 11.25 C20.05347656 12.14203125 20.04445312 13.0340625 20.03515625 13.953125 C20.02355469 14.62859375 20.01195312 15.3040625 20 16 C18.35 16 16.7 16 15 16 C15 12.04 15 8.08 15 4 C14.01 4 13.02 4 12 4 C12 7.96 12 11.92 12 16 C10.68 16 9.36 16 8 16 C8 12.04 8 8.08 8 4 C6.68 4 5.36 4 4 4 C4.33 4.66 4.66 5.32 5 6 C5.06950541 7.54023996 5.08452357 9.08334988 5.0625 10.625 C5.05347656 11.44226563 5.04445312 12.25953125 5.03515625 13.1015625 C5.02355469 13.72804687 5.01195312 14.35453125 5 15 C3.35 15.33 1.7 15.66 0 16 C0 10.72 0 5.44 0 0 Z " fill="#242424" transform="translate(123,148)"/>
<path d="M0 0 C1.98 0 3.96 0 6 0 C7.07090792 3.50401072 7.16638464 6.78454216 7.1875 10.4375 C7.20167969 11.54996094 7.21585938 12.66242187 7.23046875 13.80859375 C6.87889001 18.67706551 5.78415854 21.19717102 2.375 24.6875 C-1.14479228 27.45802957 -4.64539564 28.17412676 -9 29 C-9 26.36 -9 23.72 -9 21 C-6.03 19.68 -3.06 18.36 0 17 C0 11.39 0 5.78 0 0 Z " fill="#212021" transform="translate(222,45)"/>
<path d="M0 0 C8.3984375 -0.1953125 8.3984375 -0.1953125 11 0 C13 2 13 2 13.0625 5.75 C13.03800781 6.4615625 13.01351562 7.173125 12.98828125 7.90625 C12.92464352 10.21586671 12.92464352 10.21586671 13.75 13.25 C14 16 14 16 12.6875 18.375 C10 20 10 20 0 20 C0 13.4 0 6.8 0 0 Z M4 3 C4 4.65 4 6.3 4 8 C5.65 7.67 7.3 7.34 9 7 C8.67 5.68 8.34 4.36 8 3 C6.68 3 5.36 3 4 3 Z M4 11 C4 12.65 4 14.3 4 16 C5.65 16 7.3 16 9 16 C9 14.68 9 13.36 9 12 C7.35 11.67 5.7 11.34 4 11 Z " fill="#242424" transform="translate(184,144)"/>
<path d="M0 0 C10 0 10 0 12.625 1.3125 C14.89833553 5.75583762 14.67768083 10.12646551 14 15 C12.625 18.1875 12.625 18.1875 10 20 C6.7 20 3.4 20 0 20 C0 13.4 0 6.8 0 0 Z M4 3 C4 7.29 4 11.58 4 16 C5.65 16 7.3 16 9 16 C10.5635348 12.87293041 10.39958487 9.42017557 10 6 C9.34 5.01 8.68 4.02 8 3 C6.68 3 5.36 3 4 3 Z " fill="#242424" transform="translate(24,144)"/>
<path d="M0 0 C1.6796875 1.09765625 1.6796875 1.09765625 3 3 C3.29296875 6.13671875 3.29296875 6.13671875 3.1875 9.6875 C3.16042969 10.86699219 3.13335937 12.04648438 3.10546875 13.26171875 C3.07066406 14.16535156 3.03585938 15.06898438 3 16 C1.37536158 16.05395478 -0.24978541 16.09277195 -1.875 16.125 C-2.77992188 16.14820313 -3.68484375 16.17140625 -4.6171875 16.1953125 C-7 16 -7 16 -9 14 C-9.3125 11 -9.3125 11 -9 8 C-5.77208445 5.8480563 -4.71599191 5.79913557 -1 6 C-1 5.34 -1 4.68 -1 4 C-3.31 4 -5.62 4 -8 4 C-8 3.01 -8 2.02 -8 1 C-5.20129973 -0.39935013 -3.09501208 -0.25265405 0 0 Z M-4 9 C-4 10.32 -4 11.64 -4 13 C-3.01 12.67 -2.02 12.34 -1 12 C-1 11.01 -1 10.02 -1 9 C-1.99 9 -2.98 9 -4 9 Z " fill="#242424" transform="translate(153,148)"/>
<path d="M0 0 C1 1 1 1 1.09765625 4.16015625 C1.08605469 5.44792969 1.07445313 6.73570312 1.0625 8.0625 C1.05347656 9.35285156 1.04445313 10.64320313 1.03515625 11.97265625 C1.02355469 12.97167969 1.01195313 13.97070312 1 15 C-0.62463842 15.05395478 -2.24978541 15.09277195 -3.875 15.125 C-4.77992187 15.14820313 -5.68484375 15.17140625 -6.6171875 15.1953125 C-9 15 -9 15 -11 13 C-10.625 9.375 -10.625 9.375 -10 6 C-6.535 5.505 -6.535 5.505 -3 5 C-3 4.34 -3 3.68 -3 3 C-5.31 3 -7.62 3 -10 3 C-10 2.01 -10 1.02 -10 0 C-6.28523623 -1.23825459 -3.81171187 -0.70587257 0 0 Z M-7 9 C-6.67 9.99 -6.34 10.98 -6 12 C-5.01 11.67 -4.02 11.34 -3 11 C-3 10.01 -3 9.02 -3 8 C-5.0745356 7.8509288 -5.0745356 7.8509288 -7 9 Z " fill="#242424" transform="translate(87,149)"/>
<path d="M0 0 C0.91007812 0.00902344 1.82015625 0.01804688 2.7578125 0.02734375 C3.45648438 0.03894531 4.15515625 0.05054688 4.875 0.0625 C4.875 1.0525 4.875 2.0425 4.875 3.0625 C2.235 3.0625 -0.405 3.0625 -3.125 3.0625 C-3.125 4.3825 -3.125 5.7025 -3.125 7.0625 C-2.196875 7.289375 -1.26875 7.51625 -0.3125 7.75 C2.875 9.0625 2.875 9.0625 4.875 11.375 C5.875 14.0625 5.875 14.0625 5.125 16.8125 C3.875 19.0625 3.875 19.0625 2.875 20.0625 C1.18891034 20.13455511 -0.50000659 20.14636068 -2.1875 20.125 C-3.10660156 20.11597656 -4.02570313 20.10695312 -4.97265625 20.09765625 C-5.68292969 20.08605469 -6.39320312 20.07445312 -7.125 20.0625 C-7.125 18.7425 -7.125 17.4225 -7.125 16.0625 C-4.815 16.0625 -2.505 16.0625 -0.125 16.0625 C0.205 14.7425 0.535 13.4225 0.875 12.0625 C-0.07375 11.77375 -1.0225 11.485 -2 11.1875 C-5.125 10.0625 -5.125 10.0625 -7.125 8.0625 C-7.25 4.4375 -7.25 4.4375 -7.125 1.0625 C-4.60024538 -0.19987731 -2.81299534 -0.03606404 0 0 Z " fill="#242424" transform="translate(116.125,143.9375)"/>
<path d="M0 0 C2.49491849 4.69631716 1.99613805 7.93629825 1 13 C-1 15 -1 15 -4.4375 15.3125 C-8 15 -8 15 -9.6953125 13.79296875 C-11.41119625 11.43491294 -11.4331896 9.89658557 -11.4375 7 C-11.45683594 6.13375 -11.47617187 5.2675 -11.49609375 4.375 C-11 2 -11 2 -9.20703125 0.16796875 C-5.95636262 -1.5522966 -3.5002979 -0.74044763 0 0 Z M-6 3 C-7.41577477 4.18424326 -7.41577477 4.18424326 -7.0625 7.5625 C-7.041875 8.696875 -7.02125 9.83125 -7 11 C-5.68 11 -4.36 11 -3 11 C-3 8.36 -3 5.72 -3 3 C-3.99 3 -4.98 3 -6 3 Z " fill="#242424" transform="translate(51,149)"/>
<path d="M0 0 C2.875 0.875 2.875 0.875 4.875 2.875 C5 6.5 5 6.5 4.875 9.875 C2.235 9.875 -0.405 9.875 -3.125 9.875 C-3.125 10.535 -3.125 11.195 -3.125 11.875 C-0.815 11.875 1.495 11.875 3.875 11.875 C4.205 13.195 4.535 14.515 4.875 15.875 C3.43844146 15.95631463 2.0005517 16.01433559 0.5625 16.0625 C-0.63826172 16.11470703 -0.63826172 16.11470703 -1.86328125 16.16796875 C-4.125 15.875 -4.125 15.875 -5.890625 14.640625 C-8.18241341 11.36249727 -7.73778452 7.69629674 -7.125 3.875 C-4.96786348 0.39039486 -4.11135677 -0.16445427 0 0 Z M-2.125 3.875 C-2.455 4.865 -2.785 5.855 -3.125 6.875 C-1.805 6.875 -0.485 6.875 0.875 6.875 C0.875 5.885 0.875 4.895 0.875 3.875 C-0.115 3.875 -1.105 3.875 -2.125 3.875 Z " fill="#242424" transform="translate(254.125,148.125)"/>
<path d="M0 0 C8.625 -0.25 8.625 -0.25 12 2 C12.29296875 5.2578125 12.29296875 5.2578125 12.1875 9.125 C12.16042969 10.40632812 12.13335937 11.68765625 12.10546875 13.0078125 C12.07066406 13.99523437 12.03585938 14.98265625 12 16 C10.68 16 9.36 16 8 16 C8 12.04 8 8.08 8 4 C6.68 4 5.36 4 4 4 C4 7.96 4 11.92 4 16 C2.68 16 1.36 16 0 16 C0 10.72 0 5.44 0 0 Z " fill="#242424" transform="translate(90,148)"/>
<path d="M0 0 C1.423125 -0.061875 2.84625 -0.12375 4.3125 -0.1875 C5.51326172 -0.23970703 5.51326172 -0.23970703 6.73828125 -0.29296875 C9 0 9 0 10.78125 1.09375 C12.60763905 3.9504098 12.28691682 6.34046705 12.1875 9.6875 C12.16042969 10.86699219 12.13335937 12.04648438 12.10546875 13.26171875 C12.07066406 14.16535156 12.03585938 15.06898438 12 16 C10.68 16 9.36 16 8 16 C8 12.04 8 8.08 8 4 C6.68 4 5.36 4 4 4 C4 7.96 4 11.92 4 16 C2.68 16 1.36 16 0 16 C0 10.72 0 5.44 0 0 Z " fill="#242424" transform="translate(233,148)"/>
<path d="M0 0 C1.32 0 2.64 0 4 0 C4.33 3.96 4.66 7.92 5 12 C5.66 12 6.32 12 7 12 C7.33 8.04 7.66 4.08 8 0 C9.32 0 10.64 0 12 0 C12 5.28 12 10.56 12 16 C10.39125 16.061875 8.7825 16.12375 7.125 16.1875 C6.22007812 16.22230469 5.31515625 16.25710937 4.3828125 16.29296875 C3.20332031 16.14794922 3.20332031 16.14794922 2 16 C-0.42130331 12.36804504 -0.21022785 10.61650652 -0.125 6.3125 C-0.09792969 4.54326172 -0.09792969 4.54326172 -0.0703125 2.73828125 C-0.04710937 1.83464844 -0.02390625 0.93101562 0 0 Z " fill="#242424" transform="translate(199,148)"/>
<path d="M0 0 C0.33 1.32 0.66 2.64 1 4 C-0.98 4.33 -2.96 4.66 -5 5 C-3.02 5.99 -1.04 6.98 1 8 C1.125 10.875 1.125 10.875 1 14 C-1 16 -1 16 -3.1640625 16.1953125 C-3.97617187 16.17210937 -4.78828125 16.14890625 -5.625 16.125 C-6.44226563 16.10695312 -7.25953125 16.08890625 -8.1015625 16.0703125 C-8.72804688 16.04710937 -9.35453125 16.02390625 -10 16 C-9.67 14.68 -9.34 13.36 -9 12 C-7.35 12 -5.7 12 -4 12 C-3.67 11.34 -3.34 10.68 -3 10 C-3.78375 9.87625 -4.5675 9.7525 -5.375 9.625 C-8 9 -8 9 -10 7 C-10.3125 4.5 -10.3125 4.5 -10 2 C-6.3558226 -0.4294516 -4.28758728 -0.16179575 0 0 Z " fill="#242424" transform="translate(270,148)"/>
<path d="M0 0 C1.670625 0.061875 1.670625 0.061875 3.375 0.125 C3.705 1.445 4.035 2.765 4.375 4.125 C2.395 4.455 0.415 4.785 -1.625 5.125 C-0.655625 5.516875 0.31375 5.90875 1.3125 6.3125 C4.375 8.125 4.375 8.125 5.4375 10.625 C5.375 13.125 5.375 13.125 4.4375 14.9375 C1.14281888 16.83443762 -1.86738464 16.30980076 -5.625 16.125 C-5.955 15.465 -6.285 14.805 -6.625 14.125 C-6.295 13.465 -5.965 12.805 -5.625 12.125 C-3.645 12.125 -1.665 12.125 0.375 12.125 C-0.615 11.465 -1.605 10.805 -2.625 10.125 C-3.96290641 9.13112666 -5.29718122 8.1323108 -6.625 7.125 C-5.84042384 2.15601765 -5.49387562 0.18944399 0 0 Z " fill="#242424" transform="translate(219.625,147.875)"/>
<path d="M0 0 C0.33 1.32 0.66 2.64 1 4 C-0.98 4.33 -2.96 4.66 -5 5 C-4.030625 5.474375 -3.06125 5.94875 -2.0625 6.4375 C1 8 1 8 2 9 C2.1875 11.4375 2.1875 11.4375 2 14 C0 16 0 16 -2.1640625 16.1953125 C-2.97617187 16.17210937 -3.78828125 16.14890625 -4.625 16.125 C-5.44226563 16.10695312 -6.25953125 16.08890625 -7.1015625 16.0703125 C-7.72804688 16.04710937 -8.35453125 16.02390625 -9 16 C-9 14.68 -9 13.36 -9 12 C-7.02 12 -5.04 12 -3 12 C-3.99 11.34 -4.98 10.68 -6 10 C-7.35251497 8.68612831 -8.68945377 7.35573748 -10 6 C-7.83322503 -0.036016 -6.28508493 -0.13663228 0 0 Z " fill="#242424" transform="translate(282,148)"/>
<path d="M0 0 C0.66 0.33 1.32 0.66 2 1 C1.67 1.99 1.34 2.98 1 4 C-0.98 4 -2.96 4 -5 4 C-5 4.66 -5 5.32 -5 6 C-4.21625 6.12375 -3.4325 6.2475 -2.625 6.375 C0 7 0 7 2 9 C2.25 11.5 2.25 11.5 2 14 C0 16 0 16 -2.1640625 16.1953125 C-2.97617188 16.17210937 -3.78828125 16.14890625 -4.625 16.125 C-5.44226563 16.10695312 -6.25953125 16.08890625 -7.1015625 16.0703125 C-7.72804688 16.04710937 -8.35453125 16.02390625 -9 16 C-9 14.68 -9 13.36 -9 12 C-7.02 12 -5.04 12 -3 12 C-4.96382007 10.49440461 -6.78263366 9.10868317 -9 8 C-9.1875 5.125 -9.1875 5.125 -9 2 C-5.54337669 -0.30441554 -4.05142119 -0.25860135 0 0 Z " fill="#242424" transform="translate(73,148)"/>
<path d="M0 0 C1.98 0 3.96 0 6 0 C6 1.32 6 2.64 6 4 C7.32 4 8.64 4 10 4 C10 6.31 10 8.62 10 11 C5.38 11 0.76 11 -4 11 C-4 8.69 -4 6.38 -4 4 C-2.68 4 -1.36 4 0 4 C0 2.68 0 1.36 0 0 Z " fill="#221F21" transform="translate(105,32)"/>
<path d="M0 0 C3.63 0 7.26 0 11 0 C11 3.63 11 7.26 11 11 C7.37 11 3.74 11 0 11 C0 7.37 0 3.74 0 0 Z " fill="#189C8F" transform="translate(35,90)"/>
<path d="M0 0 C1.32 0 2.64 0 4 0 C4 0.99 4 1.98 4 3 C5.32 3 6.64 3 8 3 C8 4.32 8 5.64 8 7 C6.68 7 5.36 7 4 7 C4 9.97 4 12.94 4 16 C4.99 15.67 5.98 15.34 7 15 C7.33 16.32 7.66 17.64 8 19 C5.69 19 3.38 19 1 19 C-0.26237731 16.47524538 -0.09856404 14.68799534 -0.0625 11.875 C-0.05347656 10.96492187 -0.04445312 10.05484375 -0.03515625 9.1171875 C-0.02355469 8.41851562 -0.01195312 7.71984375 0 7 C-0.66 7 -1.32 7 -2 7 C-2 5.68 -2 4.36 -2 3 C-1.34 3 -0.68 3 0 3 C0 2.01 0 1.02 0 0 Z " fill="#242424" transform="translate(170,145)"/>
<path d="M0 0 C2.97 0 5.94 0 9 0 C9 1.32 9 2.64 9 4 C7.35 4.33 5.7 4.66 4 5 C4.33 5.66 4.66 6.32 5 7 C5.06950541 8.54023996 5.08452357 10.08334988 5.0625 11.625 C5.05347656 12.44226563 5.04445313 13.25953125 5.03515625 14.1015625 C5.02355469 14.72804687 5.01195312 15.35453125 5 16 C3.35 16 1.7 16 0 16 C0 10.72 0 5.44 0 0 Z " fill="#242424" transform="translate(54,148)"/>
<path d="M0 0 C1.65322266 0.01740234 1.65322266 0.01740234 3.33984375 0.03515625 C4.99693359 0.04869141 4.99693359 0.04869141 6.6875 0.0625 C7.54214844 0.07410156 8.39679688 0.08570313 9.27734375 0.09765625 C9.27734375 2.40765625 9.27734375 4.71765625 9.27734375 7.09765625 C7.29824977 7.12452178 5.31905404 7.14399 3.33984375 7.16015625 C2.23769531 7.17175781 1.13554687 7.18335938 0 7.1953125 C-2.72265625 7.09765625 -2.72265625 7.09765625 -3.72265625 6.09765625 C-3.84765625 3.59765625 -3.84765625 3.59765625 -3.72265625 1.09765625 C-2.72265625 0.09765625 -2.72265625 0.09765625 0 0 Z " fill="#222021" transform="translate(274.72265625,34.90234375)"/>
<path d="M0 0 C2.97 0 5.94 0 9 0 C9 1.32 9 2.64 9 4 C7.35 4.33 5.7 4.66 4 5 C4 8.63 4 12.26 4 16 C2.68 16 1.36 16 0 16 C0 10.72 0 5.44 0 0 Z " fill="#242424" transform="translate(158,148)"/>
<path d="M0 0 C1.98 0.495 1.98 0.495 4 1 C4 5.95 4 10.9 4 16 C2.35 16 0.7 16 -1 16 C-1.02685095 13.52076199 -1.04676547 11.0418116 -1.0625 8.5625 C-1.07506836 7.50192383 -1.07506836 7.50192383 -1.08789062 6.41992188 C-1.09653588 4.61306441 -1.05220011 2.80612397 -1 1 C-0.67 0.67 -0.34 0.34 0 0 Z " fill="#242424" transform="translate(227,148)"/>
<path d="M0 0 C4.29 0 8.58 0 13 0 C13 1.98 13 3.96 13 6 C8.71 6 4.42 6 0 6 C0 4.02 0 2.04 0 0 Z " fill="#211E1F" transform="translate(195,42)"/>
<path d="M0 0 C2.31 0 4.62 0 7 0 C7 2.31 7 4.62 7 7 C4.69 7 2.38 7 0 7 C0 4.69 0 2.38 0 0 Z " fill="#212121" transform="translate(51,35)"/>
<path d="M0 0 C1.98 0 3.96 0 6 0 C6 2.64 6 5.28 6 8 C4.02 8 2.04 8 0 8 C0 5.36 0 2.72 0 0 Z " fill="#212021" transform="translate(251,65)"/>
<path d="M0 0 C3.3 0 6.6 0 10 0 C10 0.99 10 1.98 10 3 C9.01 3 8.02 3 7 3 C7 2.34 7 1.68 7 1 C3.47618313 3.54604597 3.47618313 3.54604597 1 7 C1.66 7 2.32 7 3 7 C3 7.99 3 8.98 3 10 C2.01 10 1.02 10 0 10 C0 6.7 0 3.4 0 0 Z " fill="#0AA295" transform="translate(35,91)"/>
<path d="M0 0 C1.98 0.495 1.98 0.495 4 1 C4 1.99 4 2.98 4 4 C2.35 4 0.7 4 -1 4 C-0.67 2.68 -0.34 1.36 0 0 Z " fill="#222525" transform="translate(227,143)"/>
</svg>