<svg width="234" height="167" viewBox="0 0 234 167" fill="none" xmlns="http://www.w3.org/2000/svg">
<g clip-path="url(#clip0)">
<path d="M230.294 112.273C224.867 123.437 213.847 130.902 202.426 135.825C187.051 142.455 170.12 145.084 153.421 143.972C150.495 143.778 147.577 143.468 144.668 143.041C134.566 141.572 124.717 138.712 115.403 134.544C112.715 133.337 110.082 132.019 107.502 130.59C103.195 128.209 99.0669 125.518 95.1526 122.537C94.168 121.787 93.1971 121.019 92.2397 120.231C91.5759 119.685 90.9181 119.127 90.2502 118.585C88.8408 117.443 87.3905 116.357 85.7727 115.544C85.2846 115.299 84.7842 115.079 84.2734 114.885C79.1504 112.941 73.2431 113.675 67.9097 115.19C63.853 116.343 59.8985 117.921 55.8458 119.048C54.0432 119.564 52.2064 119.953 50.3491 120.213C46.2022 120.736 41.991 120.367 37.9992 119.131L37.6581 119.025C37.0861 118.846 36.519 118.65 35.9565 118.437L35.6154 118.306C35.0707 118.097 34.5376 117.873 34.016 117.632L33.6749 117.477C33.1302 117.225 32.5971 116.958 32.0755 116.677C31.8876 116.579 31.7017 116.473 31.5179 116.373C28.5504 114.721 25.8531 112.627 23.5188 110.163C23.4514 110.096 23.3881 110.027 23.3146 109.96C22.9898 109.609 22.6711 109.253 22.3627 108.888C22.2483 108.754 22.1339 108.619 22.0216 108.481C21.6553 108.035 21.3019 107.58 20.9614 107.114C20.9104 107.047 20.8614 106.978 20.8123 106.91C19.4175 104.986 18.2612 102.901 17.3684 100.7C17.3398 100.633 17.3133 100.564 17.2888 100.497C17.0164 99.7972 16.7679 99.0864 16.5432 98.364C16.4513 98.0625 16.3634 97.7529 16.2858 97.4515C16.2593 97.3619 16.2348 97.2702 16.2123 97.1806C15.0847 92.7546 14.9561 88.1535 14.9561 83.5788C14.9561 83.0451 14.9561 82.5122 14.9561 81.9799C14.9887 74.5802 15.1031 67.0542 16.198 59.7563C16.198 59.7053 16.2123 59.6544 16.2205 59.6055C16.5869 57.1487 17.0853 54.7132 17.7136 52.3097C18.3712 49.7877 19.2116 47.3167 20.2281 44.9161C22.7467 39.0093 26.4092 33.6342 30.4761 28.6522C40.72 16.1156 54.1545 5.5914 69.8788 1.65221C86.8226 -2.59046 105.654 1.47501 119.321 12.3251C123.488 15.6329 127.232 19.5497 131.912 22.0855C135.997 24.2934 140.779 25.2079 145.155 23.4705C148.77 22.0346 151.123 21.3217 155.184 21.5396C163.591 22.0138 171.878 23.7448 179.769 26.6744C180.088 26.7905 180.407 26.9107 180.723 27.0308C201.295 34.8787 218.978 50.4705 228.17 70.5065C228.414 71.0361 228.65 71.5698 228.879 72.1075C234.359 84.8722 236.341 99.8325 230.294 112.273Z" fill="#166DE0" fill-opacity="0.08"/>
<path opacity="0.1" d="M24.5731 151.333C34.5321 151.333 42.6056 150.04 42.6056 148.445C42.6056 146.85 34.5321 145.557 24.5731 145.557C14.614 145.557 6.54053 146.85 6.54053 148.445C6.54053 150.04 14.614 151.333 24.5731 151.333Z" fill="#6C63FF"/>
<path d="M215.291 21.9463H26.2744C24.8654 21.9463 23.7231 23.0853 23.7231 24.4903V129.05C23.7231 130.455 24.8654 131.594 26.2744 131.594H215.291C216.7 131.594 217.842 130.455 217.842 129.05V24.4903C217.842 23.0853 216.7 21.9463 215.291 21.9463Z" fill="url(#paint0_linear)"/>
<path d="M215.005 23.4883H26.583C25.174 23.4883 24.0317 24.6273 24.0317 26.0323V128.685C24.0317 130.09 25.174 131.229 26.583 131.229H215.005C216.414 131.229 217.557 130.09 217.557 128.685V26.0323C217.557 24.6273 216.414 23.4883 215.005 23.4883Z" fill="white"/>
<path d="M215.005 23.4883H26.583C25.174 23.4883 24.0317 24.6273 24.0317 26.0323V128.685C24.0317 130.09 25.174 131.229 26.583 131.229H215.005C216.414 131.229 217.557 130.09 217.557 128.685V26.0323C217.557 24.6273 216.414 23.4883 215.005 23.4883Z" fill="white"/>
<path opacity="0.04" d="M215.005 23.4883H26.583C25.174 23.4883 24.0317 24.6273 24.0317 26.0323V128.685C24.0317 130.09 25.174 131.229 26.583 131.229H215.005C216.414 131.229 217.557 130.09 217.557 128.685V26.0323C217.557 24.6273 216.414 23.4883 215.005 23.4883Z" fill="white"/>
<path d="M216.574 22.252H25.0143C24.7537 22.252 24.5038 22.3552 24.3195 22.5389C24.1353 22.7226 24.0317 22.9718 24.0317 23.2317V27.3725H217.548V23.2317C217.548 22.9732 217.446 22.7253 217.264 22.5418C217.081 22.3583 216.833 22.2541 216.574 22.252Z" fill="#3D3C40"/>
<path d="M27.8966 26.1361C28.6299 26.1361 29.2243 25.5434 29.2243 24.8122C29.2243 24.081 28.6299 23.4883 27.8966 23.4883C27.1633 23.4883 26.5688 24.081 26.5688 24.8122C26.5688 25.5434 27.1633 26.1361 27.8966 26.1361Z" fill="white"/>
<path d="M31.4713 26.1361C32.2046 26.1361 32.799 25.5434 32.799 24.8122C32.799 24.081 32.2046 23.4883 31.4713 23.4883C30.738 23.4883 30.1436 24.081 30.1436 24.8122C30.1436 25.5434 30.738 26.1361 31.4713 26.1361Z" fill="white"/>
<path d="M35.046 26.1361C35.7793 26.1361 36.3737 25.5434 36.3737 24.8122C36.3737 24.081 35.7793 23.4883 35.046 23.4883C34.3127 23.4883 33.7183 24.081 33.7183 24.8122C33.7183 25.5434 34.3127 26.1361 35.046 26.1361Z" fill="white"/>
<path d="M91.9051 37.0029H39.9707V41.3984H91.9051V37.0029Z" fill="#166DE0" fill-opacity="0.08"/>
<path d="M201.683 54.5869H40.0356V122.201H201.683V54.5869Z" fill="#166DE0" fill-opacity="0.08"/>
<path d="M201.618 48.1191H185.256V51.9707H201.618V48.1191Z" fill="#166DE0" fill-opacity="0.08"/>
<path opacity="0.1" d="M176.567 92.2793C176.552 92.5537 176.513 92.8263 176.451 93.094C176.451 93.0186 176.451 92.9759 176.434 92.9697C176.373 92.9535 176.446 92.6418 176.567 92.2793Z" fill="black"/>
<path opacity="0.1" d="M174.306 152.657C174.306 152.657 175.123 153.676 174.775 154.144C174.428 154.613 174.306 152.657 174.306 152.657Z" fill="black" stroke="#6C63FF" stroke-miterlimit="10"/>
<g opacity="0.1">
<path opacity="0.1" d="M183.144 60.9045C183.038 61.4035 182.684 61.9697 182.176 61.9086C182.019 61.8883 181.876 61.8088 181.72 61.7742C181.293 61.6805 181.04 62.0797 180.638 61.9779C180.438 61.9207 180.252 61.8235 180.091 61.6922C179.93 61.5608 179.798 61.3982 179.702 61.2141C179.595 61.0068 179.531 60.7804 179.512 60.548C179.471 60.9087 179.538 61.2733 179.702 61.597C179.798 61.7811 179.93 61.9438 180.091 62.0751C180.252 62.2064 180.438 62.3036 180.638 62.3608C181.046 62.4545 181.293 62.0553 181.72 62.1571C181.87 62.209 182.022 62.2532 182.176 62.2895C182.684 62.3526 183.038 61.7864 183.144 61.2874C183.228 60.8465 183.261 60.3975 183.242 59.9492C183.24 60.27 183.207 60.5899 183.144 60.9045Z" fill="black"/>
<path opacity="0.1" d="M180.346 57.8374C180.372 57.5036 180.326 57.1682 180.211 56.8536C180.118 56.6444 180.04 56.4294 179.976 56.21C179.967 56.2442 179.96 56.2789 179.956 56.3138C179.921 56.6336 180.101 56.9249 180.211 57.2365C180.282 57.43 180.328 57.632 180.346 57.8374Z" fill="black"/>
<path opacity="0.1" d="M195.951 56.7637C195.855 57.3421 195.386 57.886 195.339 58.495C195.327 58.5992 195.327 58.7044 195.339 58.8086C195.441 58.0978 196.072 57.4684 195.951 56.7637Z" fill="black"/>
<path opacity="0.1" d="M195.986 61.0615C195.969 61.1467 195.929 61.2256 195.87 61.2896C195.719 61.4506 195.461 61.4628 195.257 61.5422C194.761 61.7316 194.44 62.3304 193.901 62.3243C193.763 62.3165 193.63 62.2672 193.521 62.1829C193.411 62.0985 193.33 61.9831 193.288 61.8518C193.275 61.8959 193.266 61.9408 193.259 61.9862C193.253 62.0754 193.265 62.1648 193.294 62.2493C193.324 62.3339 193.369 62.4118 193.429 62.4787C193.488 62.5455 193.56 62.6 193.641 62.6388C193.722 62.6777 193.809 62.7003 193.899 62.7052C194.432 62.7052 194.759 62.1125 195.255 61.9251C195.459 61.8457 195.708 61.8335 195.868 61.6726C195.928 61.5952 195.97 61.5058 195.992 61.4105C196.014 61.3152 196.015 61.2163 195.994 61.1206C195.992 61.0962 195.988 61.0799 195.986 61.0615Z" fill="black"/>
<path opacity="0.1" d="M193.425 60.8929C193.374 60.5222 192.924 60.3715 192.687 60.0782C192.542 59.8856 192.463 59.6512 192.462 59.4102C192.446 59.789 192.452 60.176 192.687 60.4611C192.922 60.7463 193.28 60.8685 193.394 61.1618C193.423 61.0753 193.433 60.9837 193.425 60.8929Z" fill="black"/>
</g>
<g opacity="0.1">
<path opacity="0.1" d="M182.415 60.8922C182.426 60.5541 182.548 60.229 182.761 59.9656C182.974 59.7023 183.266 59.515 183.595 59.4318C184.506 59.2098 185.462 59.2529 186.349 59.556C188.287 60.1956 186.104 62.4972 186.104 62.4972C186.104 62.4972 184.651 63.923 183.297 62.927C182.897 62.6255 182.617 62.1926 182.507 61.7049C182.44 61.4392 182.409 61.1659 182.415 60.8922Z" fill="black"/>
<path opacity="0.1" d="M185.983 59.3689V59.4646H189.523V59.3506L185.983 59.3689Z" fill="black"/>
<path opacity="0.1" d="M187.113 60.389H187.225V60.0652C187.225 60.0652 187.585 59.7861 188.181 60.0652V60.3544H188.385V60.165H188.285C188.285 60.165 188.326 59.7719 187.66 59.835C187.66 59.835 187.125 59.7841 187.137 60.1222H187.015L187.113 60.389Z" fill="black"/>
</g>
<path d="M24.4932 118.672V93.6211H24.6534V118.672H24.4932Z" fill="#535461" stroke="#3D3C40"/>
<path d="M31.9467 119.059L31.9466 119.06L31.8731 120.234L31.8731 120.234L31.771 121.89L31.7709 121.89L31.7281 122.58L31.728 122.581L31.626 124.237L31.6259 124.239L31.5811 124.927L31.581 124.929L31.4789 126.585L31.4788 126.585L30.3084 145.419L30.3084 145.419C30.2663 146.102 29.9645 146.744 29.4642 147.213C28.9637 147.683 28.3023 147.944 27.6148 147.944H21.5318C21.5318 147.944 21.5318 147.944 21.5318 147.944C20.8445 147.944 20.1834 147.683 19.6833 147.213C19.1833 146.744 18.8819 146.102 18.8402 145.42L18.8402 145.419L17.6636 126.585L17.6636 126.585L17.5615 124.929L17.5615 124.929L17.5187 124.239L17.5186 124.238L17.4186 122.577L17.4185 122.576L17.3756 121.886L17.3756 121.886L17.2735 120.23L17.2735 120.23L17.1999 119.057C17.1999 119.057 17.1999 119.057 17.1999 119.057C17.1903 118.9 17.2129 118.743 17.2664 118.595C17.3199 118.447 17.4033 118.312 17.5115 118.197C17.6196 118.082 17.7502 117.991 17.8954 117.929C18.0405 117.866 18.197 117.834 18.3551 117.834H18.3555L30.7932 117.834L30.7936 117.834C30.9519 117.834 31.1085 117.866 31.2536 117.929C31.3988 117.991 31.5294 118.083 31.6375 118.198C31.7455 118.313 31.8286 118.449 31.8818 118.597C31.935 118.745 31.9571 118.902 31.9467 119.059Z" fill="#3F3D56" stroke="#3D3C40"/>
<path d="M32.3722 120.266L32.2701 121.922H16.8746L16.7725 120.266H32.3722Z" fill="white"/>
<path d="M32.2272 122.612L32.125 124.27H17.0217L16.9175 122.612H32.2272Z" fill="white"/>
<path d="M32.08 124.96L31.9779 126.616H17.1686L17.0645 124.96H32.08Z" fill="white"/>
<path d="M15.0012 102.886C21.7583 107.76 24.5731 115.385 24.5731 115.385C24.5731 115.385 16.429 115.106 9.66171 110.232C2.8944 105.358 0.0898438 97.7324 0.0898438 97.7324C0.0898438 97.7324 8.24207 98.0115 15.0012 102.886Z" fill="#06D6A0"/>
<path d="M0.100098 97.7324C0.100098 97.7324 8.55259 102.417 11.2632 106.287C13.9738 110.157 24.5731 115.387 24.5731 115.387" stroke="#3D3C40" stroke-width="2" stroke-miterlimit="10"/>
<path d="M19.3623 93.0742C23.039 95.7221 24.5731 99.8772 24.5731 99.8772C24.5731 99.8772 20.1405 99.7264 16.4617 97.0725C12.7829 94.4185 11.2529 90.2695 11.2529 90.2695C11.2529 90.2695 15.6855 90.4101 19.3623 93.0742Z" fill="#06D6A0"/>
<path d="M11.2529 90.2588C11.2529 90.2588 15.853 92.8048 17.3278 94.9129C18.8026 97.021 24.5731 99.8664 24.5731 99.8664" stroke="#3D3C40" stroke-width="2" stroke-miterlimit="10"/>
<path d="M29.9187 99.6574C25.6924 104.287 24.7998 110.336 24.7998 110.336C24.7998 110.336 30.7562 108.88 34.9804 104.25C39.2046 99.6207 40.0993 93.5693 40.0993 93.5693C40.0993 93.5693 34.1429 95.0257 29.9187 99.6574Z" fill="#06D6A0"/>
<path d="M40.0993 93.5693C40.0993 93.5693 34.5964 98.3151 33.1971 101.586C31.7979 104.857 24.7998 110.344 24.7998 110.344" stroke="#3D3C40" stroke-width="2" stroke-miterlimit="10"/>
<ellipse cx="120.75" cy="74.595" rx="25.8261" ry="25.4944" fill="white"/>
<path fill-rule="evenodd" clip-rule="evenodd" d="M147.75 74.8892C147.75 80.2213 146.166 85.4337 143.199 89.867C140.232 94.3004 136.015 97.7558 131.082 99.7961C126.148 101.836 120.719 102.37 115.482 101.33C110.244 100.289 105.433 97.7216 101.657 93.9511C97.8816 90.1806 95.3103 85.3767 94.2686 80.1471C93.227 74.9174 93.7619 69.4967 95.8056 64.5705C97.8493 59.6444 101.31 55.434 105.75 52.4718C110.191 49.5095 115.411 47.9285 120.751 47.9287C124.297 47.9288 127.808 48.6263 131.083 49.9812C134.359 51.3362 137.335 53.3221 139.842 55.8256C142.35 58.3291 144.338 61.3012 145.695 64.5721C147.052 67.8431 147.75 71.3488 147.75 74.8892ZM113.004 67.8999H111.064C110.209 67.9026 109.389 68.2479 108.785 68.8604C108.18 69.4729 107.839 70.3029 107.837 71.1689V86.8574C107.839 87.7234 108.18 88.5534 108.785 89.1659C109.389 89.7784 110.209 90.1237 111.064 90.1264H130.435C131.29 90.1237 132.11 89.7784 132.715 89.166C133.319 88.5535 133.66 87.7235 133.663 86.8574V71.1689C133.66 70.3027 133.319 69.4728 132.715 68.8603C132.11 68.2478 131.29 67.9025 130.435 67.8999H128.499V63.9785C128.496 62.9402 128.29 61.9128 127.893 60.9556C127.496 59.9983 126.915 59.1301 126.185 58.4009C125.456 57.6717 124.59 57.096 123.64 56.707C122.689 56.318 121.672 56.1233 120.646 56.1342C116.394 56.1995 113.004 59.7788 113.004 64.0843V67.8999ZM119.618 83.7174V78.0984V78.0955C119.095 77.8369 118.673 77.4061 118.422 76.8736C118.171 76.341 118.106 75.7381 118.237 75.1632C118.368 74.5882 118.688 74.0753 119.144 73.708C119.6 73.3406 120.165 73.1407 120.748 73.1407C121.331 73.1407 121.896 73.3406 122.352 73.708C122.808 74.0753 123.128 74.5882 123.259 75.1632C123.39 75.7381 123.325 76.341 123.074 76.8736C122.823 77.4061 122.401 77.8369 121.877 78.0955V83.7492C121.877 83.9043 121.846 84.0578 121.786 84.2004C121.726 84.3429 121.638 84.4716 121.527 84.5787C121.416 84.6858 121.285 84.7689 121.141 84.8232C120.998 84.8775 120.845 84.9017 120.692 84.8945C120.399 84.8728 120.125 84.7391 119.926 84.5206C119.726 84.302 119.616 84.0149 119.618 83.7174ZM126.24 67.8999H115.26L115.265 63.9785C115.265 62.5048 115.843 61.0914 116.872 60.0493C117.901 59.0073 119.297 58.4218 120.752 58.4218C122.208 58.4218 123.603 59.0073 124.633 60.0493C125.662 61.0914 126.24 62.5048 126.24 63.9785V67.8999Z" fill="#579EFF"/>
</g>
<defs>
<linearGradient id="paint0_linear" x1="120.782" y1="131.594" x2="120.782" y2="21.9463" gradientUnits="userSpaceOnUse">
<stop stop-color="#808080" stop-opacity="0.25"/>
<stop offset="0.54" stop-color="#808080" stop-opacity="0.12"/>
<stop offset="1" stop-color="#808080" stop-opacity="0.1"/>
</linearGradient>
<clipPath id="clip0">
<rect width="234" height="167" fill="white"/>
</clipPath>
</defs>
</svg>
