<svg width="164" height="118" viewBox="0 0 164 118" fill="none" xmlns="http://www.w3.org/2000/svg">
<g filter="url(#filter0_d)">
<path d="M148.467 34.3364H59.3504C56.9348 34.3364 54.9766 36.2947 54.9766 38.7103V103.224C54.9766 105.64 56.9348 107.598 59.3504 107.598H148.467C150.883 107.598 152.841 105.64 152.841 103.224V38.7103C152.841 36.2947 150.883 34.3364 148.467 34.3364Z" fill="white"/>
<path opacity="0.08" d="M146.828 38.7104H104.183C103.277 38.7104 102.543 39.4449 102.543 40.3507C102.543 41.2566 103.277 41.9908 104.183 41.9908H146.828C147.734 41.9908 148.468 41.2566 148.468 40.3507C148.468 39.4449 147.734 38.7104 146.828 38.7104Z" fill="#3D3C40"/>
<path opacity="0.08" d="M146.828 46.3643H104.183C103.277 46.3643 102.543 47.0986 102.543 48.0044C102.543 48.9103 103.277 49.6446 104.183 49.6446H146.828C147.734 49.6446 148.468 48.9103 148.468 48.0044C148.468 47.0986 147.734 46.3643 146.828 46.3643Z" fill="#3D3C40"/>
<path opacity="0.08" d="M146.828 54.0186H104.183C103.277 54.0186 102.543 54.7529 102.543 55.6587C102.543 56.5646 103.277 57.2989 104.183 57.2989H146.828C147.734 57.2989 148.468 56.5646 148.468 55.6587C148.468 54.7529 147.734 54.0186 146.828 54.0186Z" fill="#3D3C40"/>
<path opacity="0.08" d="M146.828 66.5933H104.183C103.277 66.5933 102.543 67.3276 102.543 68.2334C102.543 69.1393 103.277 69.8736 104.183 69.8736H146.828C147.734 69.8736 148.468 69.1393 148.468 68.2334C148.468 67.3276 147.734 66.5933 146.828 66.5933Z" fill="#3D3C40"/>
<path opacity="0.08" d="M146.828 74.2476H104.183C103.277 74.2476 102.543 74.9819 102.543 75.8877C102.543 76.7936 103.277 77.5279 104.183 77.5279H146.828C147.734 77.5279 148.468 76.7936 148.468 75.8877C148.468 74.9819 147.734 74.2476 146.828 74.2476Z" fill="#3D3C40"/>
<path opacity="0.08" d="M146.828 81.9019H104.183C103.277 81.9019 102.543 82.6362 102.543 83.542C102.543 84.4479 103.277 85.1822 104.183 85.1822H146.828C147.734 85.1822 148.468 84.4479 148.468 83.542C148.468 82.6362 147.734 81.9019 146.828 81.9019Z" fill="#3D3C40"/>
<path d="M133.706 89.5562H117.304C116.398 89.5562 115.664 90.2905 115.664 91.1963C115.664 92.1022 116.398 92.8365 117.304 92.8365H133.706C134.612 92.8365 135.346 92.1022 135.346 91.1963C135.346 90.2905 134.612 89.5562 133.706 89.5562Z" fill="#579EFF"/>
<path fill-rule="evenodd" clip-rule="evenodd" d="M145.735 97.7572H105.277C104.069 97.7572 103.09 98.7364 103.09 99.9441C103.09 101.152 104.069 102.131 105.277 102.131H145.735C146.942 102.131 147.921 101.152 147.921 99.9441C147.921 98.7364 146.942 97.7572 145.735 97.7572ZM105.277 97.2104C103.767 97.2104 102.543 98.4346 102.543 99.9441C102.543 101.454 103.767 102.678 105.277 102.678H145.735C147.244 102.678 148.468 101.454 148.468 99.9441C148.468 98.4346 147.244 97.2104 145.735 97.2104H105.277Z" fill="#3D3C40" fill-opacity="0.16"/>
<path d="M54.9766 38.7103C54.9766 36.2946 56.9349 34.3364 59.3504 34.3364H98.168V107.598H59.3504C56.9349 107.598 54.9766 105.64 54.9766 103.224V38.7103Z" fill="#145DBF"/>
<path opacity="0.48" d="M62.6319 40.3507C62.6319 39.4449 61.8976 38.7104 60.9917 38.7104C60.0859 38.7104 59.3516 39.4449 59.3516 40.3507C59.3516 41.2566 60.0859 41.9908 60.9917 41.9908C61.8976 41.9908 62.6319 41.2566 62.6319 40.3507Z" fill="white"/>
<path opacity="0.48" d="M86.6856 38.7104H66.4566C65.5507 38.7104 64.8164 39.4449 64.8164 40.3507C64.8164 41.2566 65.5507 41.9908 66.4566 41.9908H86.6856C87.5914 41.9908 88.326 41.2566 88.326 40.3507C88.326 39.4449 87.5914 38.7104 86.6856 38.7104Z" fill="white"/>
<path opacity="0.48" d="M62.6319 48.0044C62.6319 47.0986 61.8976 46.3643 60.9917 46.3643C60.0859 46.3643 59.3516 47.0986 59.3516 48.0044C59.3516 48.9103 60.0859 49.6446 60.9917 49.6446C61.8976 49.6446 62.6319 48.9103 62.6319 48.0044Z" fill="white"/>
<path opacity="0.48" d="M86.6856 46.3643H66.4566C65.5507 46.3643 64.8164 47.0986 64.8164 48.0044C64.8164 48.9103 65.5507 49.6446 66.4566 49.6446H86.6856C87.5914 49.6446 88.326 48.9103 88.326 48.0044C88.326 47.0986 87.5914 46.3643 86.6856 46.3643Z" fill="white"/>
<path d="M62.6319 55.6587C62.6319 54.7529 61.8976 54.0186 60.9917 54.0186C60.0859 54.0186 59.3516 54.7529 59.3516 55.6587C59.3516 56.5646 60.0859 57.2989 60.9917 57.2989C61.8976 57.2989 62.6319 56.5646 62.6319 55.6587Z" fill="#06D6A0"/>
<path d="M86.6856 54.0186H66.4566C65.5507 54.0186 64.8164 54.7529 64.8164 55.6587C64.8164 56.5646 65.5507 57.2989 66.4566 57.2989H86.6856C87.5914 57.2989 88.326 56.5646 88.326 55.6587C88.326 54.7529 87.5914 54.0186 86.6856 54.0186Z" fill="white"/>
<path d="M93.7956 55.6587C93.7956 54.7529 93.0616 54.0186 92.1556 54.0186C91.2496 54.0186 90.5156 54.7529 90.5156 55.6587C90.5156 56.5646 91.2496 57.2989 92.1556 57.2989C93.0616 57.2989 93.7956 56.5646 93.7956 55.6587Z" fill="white"/>
<path opacity="0.48" d="M62.6319 63.313C62.6319 62.4072 61.8976 61.6729 60.9917 61.6729C60.0859 61.6729 59.3516 62.4072 59.3516 63.313C59.3516 64.2189 60.0859 64.9532 60.9917 64.9532C61.8976 64.9532 62.6319 64.2189 62.6319 63.313Z" fill="white"/>
<path opacity="0.48" d="M86.6856 61.6729H66.4566C65.5507 61.6729 64.8164 62.4072 64.8164 63.313C64.8164 64.2189 65.5507 64.9532 66.4566 64.9532H86.6856C87.5914 64.9532 88.326 64.2189 88.326 63.313C88.326 62.4072 87.5914 61.6729 86.6856 61.6729Z" fill="white"/>
<path opacity="0.48" d="M62.6319 70.9673C62.6319 70.0615 61.8976 69.3271 60.9917 69.3271C60.0859 69.3271 59.3516 70.0615 59.3516 70.9673C59.3516 71.8732 60.0859 72.6075 60.9917 72.6075C61.8976 72.6075 62.6319 71.8732 62.6319 70.9673Z" fill="white"/>
<path opacity="0.48" d="M86.6856 69.3271H66.4566C65.5507 69.3271 64.8164 70.0615 64.8164 70.9673C64.8164 71.8732 65.5507 72.6075 66.4566 72.6075H86.6856C87.5914 72.6075 88.326 71.8732 88.326 70.9673C88.326 70.0615 87.5914 69.3271 86.6856 69.3271Z" fill="white"/>
<path d="M62.6319 78.6216C62.6319 77.7158 61.8976 76.9814 60.9917 76.9814C60.0859 76.9814 59.3516 77.7158 59.3516 78.6216C59.3516 79.5275 60.0859 80.2618 60.9917 80.2618C61.8976 80.2618 62.6319 79.5275 62.6319 78.6216Z" fill="#FFBC42"/>
<path opacity="0.48" d="M86.6856 76.9814H66.4566C65.5507 76.9814 64.8164 77.7158 64.8164 78.6216C64.8164 79.5275 65.5507 80.2618 66.4566 80.2618H86.6856C87.5914 80.2618 88.326 79.5275 88.326 78.6216C88.326 77.7158 87.5914 76.9814 86.6856 76.9814Z" fill="white"/>
<path opacity="0.48" d="M62.6319 86.2754C62.6319 85.3696 61.8976 84.6353 60.9917 84.6353C60.0859 84.6353 59.3516 85.3696 59.3516 86.2754C59.3516 87.1813 60.0859 87.9156 60.9917 87.9156C61.8976 87.9156 62.6319 87.1813 62.6319 86.2754Z" fill="white"/>
<path opacity="0.48" d="M86.6856 84.6353H66.4566C65.5507 84.6353 64.8164 85.3696 64.8164 86.2754C64.8164 87.1813 65.5507 87.9156 66.4566 87.9156H86.6856C87.5914 87.9156 88.326 87.1813 88.326 86.2754C88.326 85.3696 87.5914 84.6353 86.6856 84.6353Z" fill="white"/>
<path opacity="0.48" d="M62.6319 93.9297C62.6319 93.0239 61.8976 92.2896 60.9917 92.2896C60.0859 92.2896 59.3516 93.0239 59.3516 93.9297C59.3516 94.8356 60.0859 95.5699 60.9917 95.5699C61.8976 95.5699 62.6319 94.8356 62.6319 93.9297Z" fill="white"/>
<path opacity="0.48" d="M86.6856 92.2896H66.4566C65.5507 92.2896 64.8164 93.0239 64.8164 93.9297C64.8164 94.8356 65.5507 95.5699 66.4566 95.5699H86.6856C87.5914 95.5699 88.326 94.8356 88.326 93.9297C88.326 93.0239 87.5914 92.2896 86.6856 92.2896Z" fill="white"/>
<path d="M62.6319 101.584C62.6319 100.678 61.8976 99.9438 60.9917 99.9438C60.0859 99.9438 59.3516 100.678 59.3516 101.584C59.3516 102.49 60.0859 103.224 60.9917 103.224C61.8976 103.224 62.6319 102.49 62.6319 101.584Z" fill="#F74343"/>
<path opacity="0.48" d="M86.6856 99.9438H66.4566C65.5507 99.9438 64.8164 100.678 64.8164 101.584C64.8164 102.49 65.5507 103.224 66.4566 103.224H86.6856C87.5914 103.224 88.326 102.49 88.326 101.584C88.326 100.678 87.5914 99.9438 86.6856 99.9438Z" fill="white"/>
<path d="M148.467 34.6099H59.3505C57.0858 34.6099 55.25 36.4457 55.25 38.7103V103.224C55.25 105.489 57.0858 107.325 59.3505 107.325H148.467C150.732 107.325 152.568 105.489 152.568 103.224V38.7103C152.568 36.4457 150.732 34.6099 148.467 34.6099Z" stroke="#3D3C40" stroke-opacity="0.16" stroke-width="0.546729"/>
</g>
<g filter="url(#filter1_d)">
<path d="M48.688 91.7428C71.7872 91.7428 90.513 73.0172 90.513 49.918C90.513 26.8188 71.7872 8.09326 48.688 8.09326C25.5889 8.09326 6.86328 26.8188 6.86328 49.918C6.86328 73.0172 25.5889 91.7428 48.688 91.7428Z" fill="#145DBF"/>
<path d="M48.6879 92.2899C72.089 92.2899 91.059 73.3195 91.059 49.9184C91.059 26.5172 72.089 7.54688 48.6879 7.54688C25.2868 7.54688 6.31641 26.5172 6.31641 49.9184C6.31641 73.3195 25.2868 92.2899 48.6879 92.2899Z" stroke="white" stroke-width="1.09346"/>
</g>
<mask id="mask0" mask-type="alpha" maskUnits="userSpaceOnUse" x="6" y="8" width="85" height="84">
<path d="M48.6841 91.7433C71.7833 91.7433 90.509 73.0177 90.509 49.9185C90.509 26.8193 71.7833 8.09375 48.6841 8.09375C25.585 8.09375 6.85938 26.8193 6.85938 49.9185C6.85938 73.0177 25.585 91.7433 48.6841 91.7433Z" fill="#2B5EB9"/>
</mask>
<g mask="url(#mask0)">
<path d="M148.738 11.9204H17.5234V90.6494H148.738V11.9204Z" fill="#145DBF"/>
<path opacity="0.72" d="M29.3164 22.9991C28.8032 22.9991 28.3995 23.181 28.1055 23.5447C27.8115 23.9085 27.6645 24.4106 27.6645 25.0509C27.6645 25.7212 27.8053 26.2282 28.0869 26.572C28.3709 26.9159 28.7808 27.0878 29.3164 27.0878C29.5481 27.0878 29.7724 27.0654 29.9892 27.0205C30.2059 26.9732 30.4314 26.9134 30.6657 26.8411V27.6073C30.2371 27.7693 29.7512 27.8502 29.208 27.8502C28.4083 27.8502 27.7941 27.6086 27.3655 27.1252C26.937 26.6393 26.7227 25.9454 26.7227 25.0434C26.7227 24.4754 26.8261 23.9783 27.0329 23.5522C27.2422 23.1262 27.5437 22.7998 27.9373 22.573C28.331 22.3463 28.7932 22.2329 29.3239 22.2329C29.882 22.2329 30.3978 22.35 30.8712 22.5842L30.5498 23.328C30.3654 23.2407 30.1698 23.1648 29.963 23.1C29.7587 23.0327 29.5432 22.9991 29.3164 22.9991ZM36.3052 27.7755H35.4083V25.3125H32.8893V27.7755H31.996V22.3114H32.8893V24.5464H35.4083V22.3114H36.3052V27.7755ZM41.287 27.7755L40.7414 26.2581H38.6522L38.1177 27.7755H37.1759L39.2203 22.2889H40.192L42.2364 27.7755H41.287ZM40.5059 25.4882L39.9939 24.0007C39.9566 23.901 39.9042 23.7441 39.8369 23.5298C39.7721 23.3155 39.7273 23.1585 39.7024 23.0589C39.6351 23.3653 39.5367 23.7004 39.4072 24.0642L38.9138 25.4882H40.5059ZM47.6629 27.7755H46.5678L43.8806 23.4214H43.8505L43.8697 23.6644C43.9041 24.1278 43.9216 24.5514 43.9216 24.9351V27.7755H43.1108V22.3114H44.1944L46.8745 26.643H46.8969C46.892 26.5857 46.8816 26.3777 46.8668 26.0189C46.8521 25.6576 46.8444 25.3761 46.8444 25.1743V22.3114H47.6629V27.7755ZM53.8108 27.7755H52.7157L50.0286 23.4214H49.9985L50.0171 23.6644C50.0521 24.1278 50.0696 24.5514 50.0696 24.9351V27.7755H49.2588V22.3114H50.3424L53.0224 26.643H53.0449C53.0394 26.5857 53.0296 26.3777 53.0148 26.0189C53 25.6576 52.9924 25.3761 52.9924 25.1743V22.3114H53.8108V27.7755ZM58.4974 27.7755H55.4067V22.3114H58.4974V23.0663H56.2995V24.5538H58.3591V25.3013H56.2995V27.0168H58.4974V27.7755ZM59.8352 27.7755V22.3114H60.7286V27.0093H63.0418V27.7755H59.8352ZM67.2872 26.2917C67.2872 26.7776 67.1117 27.1588 66.7607 27.4354C66.4091 27.712 65.9247 27.8502 65.3064 27.8502C64.6886 27.8502 64.1828 27.7543 63.7892 27.5625V26.7178C64.0385 26.8349 64.3026 26.9271 64.5814 26.9944C64.863 27.0616 65.1248 27.0953 65.3665 27.0953C65.7202 27.0953 65.9805 27.028 66.1478 26.8934C66.3167 26.7589 66.4015 26.5783 66.4015 26.3515C66.4015 26.1472 66.3244 25.9741 66.1702 25.832C66.0155 25.69 65.6967 25.5218 65.2134 25.3275C64.7148 25.1257 64.3638 24.8952 64.1593 24.6361C63.9548 24.377 63.8526 24.0655 63.8526 23.7017C63.8526 23.2457 64.0144 22.887 64.3386 22.6254C64.6623 22.3637 65.0975 22.2329 65.6431 22.2329C66.1664 22.2329 66.6868 22.3475 67.2051 22.5767L66.9214 23.3055C66.4354 23.1012 66.0018 22.9991 65.6207 22.9991C65.3315 22.9991 65.1123 23.0626 64.963 23.1897C64.8132 23.3143 64.7383 23.4799 64.7383 23.6868C64.7383 23.8288 64.7684 23.9509 64.828 24.053C64.8881 24.1527 64.9865 24.2474 65.1232 24.3371C65.2604 24.4268 65.507 24.5451 65.8635 24.6922C66.2648 24.8591 66.5584 25.0148 66.7453 25.1593C66.9323 25.3038 67.0696 25.467 67.1565 25.6489C67.244 25.8308 67.2872 26.0451 67.2872 26.2917Z" fill="white"/>
<g opacity="0.72">
<path opacity="0.72" d="M20.3903 23.9214L21.894 25.433L23.3977 23.9214L23.8622 24.3938L21.894 26.362L19.9258 24.3938L20.3903 23.9214Z" fill="white"/>
</g>
<path opacity="0.72" d="M41.3893 40.2965C40.7888 40.2965 40.3141 40.497 39.9653 40.8982C39.619 41.2968 39.4458 41.8437 39.4458 42.5389C39.4458 43.254 39.6128 43.8071 39.9466 44.1983C40.283 44.587 40.7614 44.7814 41.3818 44.7814C41.763 44.7814 42.1978 44.7129 42.6859 44.5758V45.1327C42.3074 45.2747 41.8403 45.3457 41.2846 45.3457C40.4798 45.3457 39.8582 45.1015 39.4197 44.6132C38.9837 44.1248 38.7656 43.4309 38.7656 42.5315C38.7656 41.9683 38.8703 41.475 39.0796 41.0514C39.2914 40.6279 39.5953 40.3015 39.9915 40.0722C40.3901 39.843 40.8586 39.7284 41.3968 39.7284C41.9698 39.7284 42.4706 39.833 42.8992 40.0423L42.6301 40.588C42.2165 40.3936 41.8029 40.2965 41.3893 40.2965ZM47.6267 43.2191C47.6267 43.8869 47.4583 44.4089 47.1221 44.7851C46.7859 45.1588 46.3211 45.3457 45.7279 45.3457C45.3616 45.3457 45.0369 45.2598 44.7526 45.0878C44.4688 44.9159 44.2496 44.6692 44.0949 44.3478C43.9401 44.0264 43.8631 43.6502 43.8631 43.2191C43.8631 42.5514 44.0304 42.0319 44.3639 41.6606C44.6979 41.2869 45.1615 41.1 45.7542 41.1C46.3272 41.1 46.782 41.2906 47.1183 41.6718C47.4573 42.0531 47.6267 42.5688 47.6267 43.2191ZM44.506 43.2191C44.506 43.7424 44.6104 44.141 44.8198 44.4151C45.0292 44.6892 45.337 44.8262 45.7433 44.8262C46.1489 44.8262 46.4567 44.6904 46.6661 44.4188C46.8777 44.1448 46.9838 43.7449 46.9838 43.2191C46.9838 42.6984 46.8777 42.3035 46.6661 42.0344C46.4567 41.7628 46.1467 41.627 45.7356 41.627C45.3294 41.627 45.0232 41.7603 44.816 42.0269C44.6093 42.2935 44.506 42.6909 44.506 43.2191ZM51.8273 45.271V42.6211C51.8273 42.2872 51.7513 42.0381 51.5993 41.8736C51.4473 41.7092 51.2095 41.627 50.8852 41.627C50.4566 41.627 50.1428 41.7429 49.9438 41.9746C49.7442 42.2063 49.6447 42.5888 49.6447 43.1219V45.271H49.0242V41.1748H49.5288L49.6294 41.7354H49.6595C49.7869 41.5336 49.9646 41.3778 50.1942 41.2682C50.4233 41.1561 50.6786 41.1 50.9601 41.1C51.4533 41.1 51.8245 41.2196 52.0738 41.4588C52.3231 41.6955 52.4478 42.0755 52.4478 42.5987V45.271H51.8273ZM55.3553 44.8337C55.4646 44.8337 55.5707 44.8262 55.6729 44.8113C55.7746 44.7938 55.8561 44.7764 55.9157 44.7589V45.2336C55.8484 45.266 55.7489 45.2921 55.6166 45.3121C55.4871 45.3345 55.3701 45.3457 55.2656 45.3457C54.4729 45.3457 54.077 44.9284 54.077 44.0937V41.6569H53.4899V41.3579L54.077 41.1L54.3384 40.2255H54.697V41.1748H55.8856V41.6569H54.697V44.0675C54.697 44.3142 54.7561 44.5036 54.8731 44.6356C54.9901 44.7676 55.1508 44.8337 55.3553 44.8337ZM58.9129 41.1C59.0949 41.1 59.2579 41.1149 59.4022 41.1448L59.3163 41.7204C59.1469 41.6831 58.9976 41.6644 58.868 41.6644C58.5367 41.6644 58.2524 41.7989 58.0157 42.068C57.7817 42.3371 57.6647 42.6722 57.6647 43.0734V45.271H57.0441V41.1748H57.5559L57.627 41.9335H57.657C57.809 41.6669 57.9922 41.4613 58.2065 41.3168C58.4208 41.1723 58.6559 41.1 58.9129 41.1ZM61.0949 45.271H60.4749V41.1748H61.0949V45.271ZM60.4224 40.0647C60.4224 39.9227 60.4574 39.8193 60.5268 39.7546C60.5968 39.6873 60.6843 39.6536 60.7887 39.6536C60.8882 39.6536 60.974 39.6873 61.0467 39.7546C61.1189 39.8218 61.155 39.9252 61.155 40.0647C61.155 40.2043 61.1189 40.309 61.0467 40.3787C60.974 40.446 60.8882 40.4796 60.7887 40.4796C60.6843 40.4796 60.5968 40.446 60.5268 40.3787C60.4574 40.309 60.4224 40.2043 60.4224 40.0647ZM64.6229 41.1075C65.1609 41.1075 65.5786 41.2919 65.8749 41.6606C66.174 42.0269 66.3232 42.5464 66.3232 43.2191C66.3232 43.8918 66.1729 44.4151 65.8711 44.7889C65.572 45.1601 65.156 45.3457 64.6229 45.3457C64.3561 45.3457 64.1123 45.2971 63.8903 45.1999C63.671 45.1003 63.4868 44.9483 63.3375 44.744H63.2922L63.1615 45.271H62.717V39.4556H63.3375V40.8683C63.3375 41.1847 63.3271 41.4688 63.3075 41.7204H63.3375C63.6262 41.3118 64.0548 41.1075 64.6229 41.1075ZM64.5332 41.627C64.1095 41.627 63.8044 41.7491 63.6175 41.9933C63.4305 42.2349 63.3375 42.6435 63.3375 43.2191C63.3375 43.7947 63.4332 44.207 63.6251 44.4562C63.817 44.7029 64.1248 44.8262 64.548 44.8262C64.9296 44.8262 65.2134 44.6879 65.4003 44.4113C65.5873 44.1323 65.6808 43.7324 65.6808 43.2116C65.6808 42.6784 65.5873 42.281 65.4003 42.0194C65.2134 41.7578 64.9241 41.627 64.5332 41.627ZM68.3002 41.1748V43.8321C68.3002 44.1659 68.3762 44.4151 68.5282 44.5796C68.6802 44.744 68.918 44.8262 69.2422 44.8262C69.6709 44.8262 69.9836 44.7091 70.1804 44.4749C70.3794 44.2407 70.4789 43.8582 70.4789 43.3275V41.1748H71.0994V45.271H70.5877L70.4981 44.7216H70.4641C70.3373 44.9234 70.1602 45.0779 69.9333 45.185C69.7091 45.2921 69.4527 45.3457 69.1635 45.3457C68.6654 45.3457 68.2915 45.2273 68.0421 44.9906C67.7956 44.754 67.6726 44.3753 67.6726 43.8545V41.1748H68.3002ZM74.048 44.8337C74.1579 44.8337 74.2634 44.8262 74.3656 44.8113C74.4678 44.7938 74.5488 44.7764 74.6089 44.7589V45.2336C74.5417 45.266 74.4416 45.2921 74.3098 45.3121C74.1803 45.3345 74.0633 45.3457 73.9583 45.3457C73.1661 45.3457 72.7697 44.9284 72.7697 44.0937V41.6569H72.1831V41.3579L72.7697 41.1L73.0316 40.2255H73.3902V41.1748H74.5788V41.6569H73.3902V44.0675C73.3902 44.3142 73.4487 44.5036 73.5657 44.6356C73.6833 44.7676 73.844 44.8337 74.048 44.8337ZM79.2725 43.2191C79.2725 43.8869 79.1047 44.4089 78.7679 44.7851C78.4316 45.1588 77.9669 45.3457 77.3743 45.3457C77.0079 45.3457 76.6826 45.2598 76.3983 45.0878C76.1146 44.9159 75.8954 44.6692 75.7406 44.3478C75.5865 44.0264 75.5094 43.6502 75.5094 43.2191C75.5094 42.5514 75.6761 42.0319 76.0102 41.6606C76.3437 41.2869 76.8073 41.1 77.4 41.1C77.9735 41.1 78.4278 41.2906 78.7646 41.6718C79.103 42.0531 79.2725 42.5688 79.2725 43.2191ZM76.1518 43.2191C76.1518 43.7424 76.2567 44.141 76.4661 44.4151C76.675 44.6892 76.9828 44.8262 77.389 44.8262C77.7952 44.8262 78.103 44.6904 78.3119 44.4188C78.524 44.1448 78.6301 43.7449 78.6301 43.2191C78.6301 42.6984 78.524 42.3035 78.3119 42.0344C78.103 41.7628 77.7925 41.627 77.3814 41.627C76.9751 41.627 76.669 41.7603 76.4623 42.0269C76.2551 42.2935 76.1518 42.6909 76.1518 43.2191ZM82.5387 41.1C82.7207 41.1 82.8842 41.1149 83.0285 41.1448L82.9427 41.7204C82.7732 41.6831 82.6234 41.6644 82.4938 41.6644C82.1625 41.6644 81.8788 41.7989 81.642 42.068C81.4075 42.3371 81.2905 42.6722 81.2905 43.0734V45.271H80.6699V41.1748H81.1822L81.2533 41.9335H81.2828C81.4348 41.6669 81.618 41.4613 81.8323 41.3168C82.0466 41.1723 82.2822 41.1 82.5387 41.1ZM86.743 44.1535C86.743 44.5347 86.6009 44.8287 86.3171 45.0355C86.0328 45.2423 85.6342 45.3457 85.1209 45.3457C84.578 45.3457 84.1542 45.2598 83.8503 45.0878V44.5123C84.0471 44.6119 84.2576 44.6904 84.4823 44.7477C84.7086 44.805 84.9268 44.8337 85.1362 44.8337C85.4598 44.8337 85.7091 44.7826 85.8835 44.6804C86.058 44.5758 86.1449 44.4176 86.1449 44.2058C86.1449 44.0463 86.0755 43.9105 85.936 43.7984C85.7988 43.6838 85.5298 43.5493 85.1285 43.3948C84.7474 43.2528 84.4757 43.1294 84.3139 43.0248C84.1542 42.9176 84.0345 42.7968 83.9552 42.6622C83.8776 42.5277 83.8393 42.367 83.8393 42.1801C83.8393 41.8462 83.9749 41.5834 84.2466 41.3915C84.5184 41.1972 84.8907 41.1 85.3642 41.1C85.8048 41.1 86.2362 41.1897 86.6572 41.3691L86.4368 41.8736C86.0257 41.7042 85.6528 41.6195 85.3193 41.6195C85.0252 41.6195 84.8032 41.6656 84.654 41.7578C84.5047 41.85 84.4298 41.9771 84.4298 42.139C84.4298 42.2486 84.4571 42.3421 84.5118 42.4193C84.5692 42.4966 84.66 42.5701 84.7846 42.6398C84.9093 42.7096 85.1487 42.8105 85.5025 42.9426C85.988 43.1195 86.316 43.2976 86.4855 43.477C86.6572 43.6564 86.743 43.8819 86.743 44.1535Z" fill="white"/>
<g opacity="0.72">
<path opacity="0.72" d="M30.6463 39.2598C30.0532 39.2598 29.5021 39.4094 28.993 39.7085C28.4996 40.0024 28.106 40.3961 27.812 40.8895C27.5129 41.3986 27.3633 41.9497 27.3633 42.5428C27.3633 43.1359 27.5129 43.687 27.812 44.1961C28.106 44.6894 28.4996 45.0831 28.993 45.377C29.5021 45.6762 30.0532 45.8258 30.6463 45.8258C31.2394 45.8258 31.7905 45.6762 32.2996 45.377C32.793 45.0831 33.1866 44.6894 33.4805 44.1961C33.7797 43.687 33.9293 43.1359 33.9293 42.5428C33.9293 41.9497 33.7797 41.3986 33.4805 40.8895C33.1866 40.3961 32.793 40.0024 32.2996 39.7085C31.7905 39.4094 31.2394 39.2598 30.6463 39.2598ZM33.268 42.7081C33.2102 42.7868 33.0764 42.8734 32.8664 42.9679C32.604 43.0834 32.3022 43.17 31.9611 43.2277V42.1176C32.4282 42.0336 32.7877 41.9339 33.0396 41.8185C33.0501 41.808 33.0711 41.7975 33.1026 41.787C33.1394 41.7765 33.163 41.766 33.1735 41.7555C33.2365 41.9812 33.268 42.2436 33.268 42.5428V42.7081ZM30.1582 43.9835C30.2106 43.9835 30.2894 43.9888 30.3943 43.9993C30.5046 44.0097 30.5885 44.015 30.6463 44.015C30.8667 44.015 31.0321 44.0045 31.1423 43.9835C31.0635 44.2984 30.9769 44.5608 30.8825 44.7708C30.7985 44.9597 30.7198 45.0805 30.6463 45.1329C30.5675 45.0752 30.4862 44.9545 30.4022 44.7708C30.2972 44.5504 30.2159 44.2879 30.1582 43.9835ZM30.6463 43.3615C30.3629 43.3615 30.1555 43.351 30.0243 43.3301C30.0243 43.2566 30.0191 43.1411 30.0086 42.9836C29.9981 42.7947 29.9928 42.6477 29.9928 42.5428V42.1806C30.145 42.2016 30.3629 42.2121 30.6463 42.2121C30.9297 42.2121 31.1475 42.2016 31.2997 42.1806V42.5428C31.2997 42.6477 31.2945 42.7947 31.284 42.9836C31.2735 43.1411 31.2682 43.2566 31.2682 43.3301C31.137 43.351 30.9297 43.3615 30.6463 43.3615ZM31.2367 41.5272C31.1055 41.5482 30.9087 41.5587 30.6463 41.5587C30.3838 41.5587 30.187 41.5482 30.0558 41.5272C30.1188 41.1073 30.2133 40.7399 30.3392 40.425C30.4442 40.1625 30.5466 39.9946 30.6463 39.9211C30.746 39.9946 30.8483 40.1625 30.9533 40.425C31.0793 40.7399 31.1738 41.1073 31.2367 41.5272ZM32.8743 41.165C32.7064 41.2332 32.5673 41.2857 32.457 41.3225C32.2681 41.3854 32.0791 41.4301 31.8902 41.4563C31.8272 40.9367 31.7091 40.4774 31.5359 40.0785C32.108 40.2832 32.5541 40.6454 32.8743 41.165ZM28.4182 41.165C28.5862 40.9078 28.783 40.69 29.0087 40.5116C29.2449 40.3174 29.5073 40.173 29.796 40.0785C29.6281 40.4459 29.4968 40.9052 29.4024 41.4563C28.9982 41.3671 28.6702 41.27 28.4182 41.165ZM28.1506 41.7555C28.1663 41.766 28.1899 41.7791 28.2214 41.7948L28.2844 41.8185C28.5678 41.9444 28.93 42.0441 29.3709 42.1176C29.3551 42.1754 29.3446 42.241 29.3394 42.3144C29.3341 42.3617 29.3315 42.4378 29.3315 42.5428C29.3315 42.8472 29.3446 43.0755 29.3709 43.2277C29.0297 43.17 28.7279 43.0834 28.4655 42.9679C28.2503 42.8734 28.1138 42.7868 28.0561 42.7081V42.5428C28.0403 42.4116 28.0403 42.2751 28.0561 42.1334C28.0718 41.9917 28.1033 41.8657 28.1506 41.7555ZM28.2529 43.5899C28.6623 43.7526 29.0664 43.8628 29.4653 43.9205C29.5178 44.2722 29.6281 44.6317 29.796 44.9991C29.4496 44.8836 29.1426 44.7026 28.8749 44.4559C28.6072 44.2092 28.3999 43.9205 28.2529 43.5899ZM33.0396 43.5899C32.8927 43.9205 32.6854 44.2092 32.4177 44.4559C32.15 44.7026 31.843 44.8836 31.4966 44.9991C31.6645 44.6317 31.7747 44.2722 31.8272 43.9205C32.3468 43.847 32.751 43.7368 33.0396 43.5899Z" fill="white"/>
</g>
<path d="M43.4632 59.9822C43.4632 60.8842 43.2128 61.5743 42.712 62.0525C42.2113 62.5287 41.49 62.7666 40.5481 62.7666H39.0195V57.3025H40.7089C41.5784 57.3025 42.2549 57.5367 42.7382 58.0051C43.2215 58.4735 43.4632 59.1326 43.4632 59.9822ZM42.5215 60.0121C42.5215 58.704 41.9098 58.0499 40.6865 58.0499H39.9128V62.0154H40.5481C41.8637 62.0154 42.5215 61.3476 42.5215 60.0121ZM46.6583 62.8415C46.0159 62.8415 45.5123 62.6545 45.1487 62.2805C44.7874 61.9044 44.6069 61.3874 44.6069 60.7297C44.6069 60.0545 44.7748 59.5238 45.111 59.1375C45.4478 58.7513 45.9098 58.5582 46.4981 58.5582C47.0437 58.5582 47.4745 58.7239 47.7911 59.0553C48.1076 59.3867 48.2657 59.8427 48.2657 60.4232V60.8978H45.5112C45.5238 61.299 45.6321 61.608 45.8365 61.8246C46.0405 62.0389 46.3286 62.146 46.6998 62.146C46.9437 62.146 47.1706 62.1236 47.3799 62.0788C47.5915 62.0318 47.8184 61.9541 48.0601 61.847V62.561C47.8458 62.6632 47.6293 62.7354 47.4095 62.778C47.1902 62.8201 46.9398 62.8415 46.6583 62.8415ZM46.4981 59.2235C46.2187 59.2235 45.9945 59.3119 45.825 59.4889C45.6583 59.6658 45.5582 59.9236 45.526 60.2625H47.4024C47.3974 59.9212 47.3149 59.6633 47.1558 59.4889C46.9961 59.3119 46.7769 59.2235 46.4981 59.2235ZM50.5116 62.7666L48.942 58.633H49.8687L50.7095 61.0362C50.8539 61.4398 50.9413 61.7661 50.9714 62.0154H51.0009C51.0234 61.836 51.1108 61.5095 51.2628 61.0362L52.1037 58.633H53.038L51.4607 62.7666H50.5116ZM55.7772 62.8415C55.1342 62.8415 54.6312 62.6545 54.2671 62.2805C53.9063 61.9044 53.7253 61.3874 53.7253 60.7297C53.7253 60.0545 53.8937 59.5238 54.2299 59.1375C54.5662 58.7513 55.0287 58.5582 55.6164 58.5582C56.1621 58.5582 56.5934 58.7239 56.9094 59.0553C57.226 59.3867 57.384 59.8427 57.384 60.4232V60.8978H54.6296C54.6421 61.299 54.7504 61.608 54.9549 61.8246C55.1594 62.0389 55.4469 62.146 55.8182 62.146C56.0625 62.146 56.2894 62.1236 56.4983 62.0788C56.7104 62.0318 56.9368 61.9541 57.179 61.847V62.561C56.9647 62.6632 56.7476 62.7354 56.5284 62.778C56.3091 62.8201 56.0587 62.8415 55.7772 62.8415ZM55.6164 59.2235C55.3376 59.2235 55.1134 59.3119 54.9439 59.4889C54.7766 59.6658 54.6771 59.9236 54.6449 60.2625H56.5207C56.5158 59.9212 56.4338 59.6633 56.2741 59.4889C56.115 59.3119 55.8958 59.2235 55.6164 59.2235ZM59.5665 62.7666H58.6885V56.9512H59.5665V62.7666ZM64.7987 60.6923C64.7987 61.3675 64.6254 61.8945 64.2793 62.2734C63.9327 62.6518 63.4505 62.8415 62.8327 62.8415C62.4467 62.8415 62.105 62.754 61.8087 62.5796C61.5123 62.4052 61.2844 62.1548 61.1247 61.8284C60.9656 61.5021 60.8858 61.1234 60.8858 60.6923C60.8858 60.022 61.0575 59.4988 61.4014 59.1226C61.7453 58.7464 62.2297 58.5582 62.8551 58.5582C63.4532 58.5582 63.9267 58.7513 64.2755 59.1375C64.6243 59.5212 64.7987 60.0395 64.7987 60.6923ZM61.7901 60.6923C61.7901 61.6466 62.1427 62.1236 62.848 62.1236C63.5456 62.1236 63.8944 61.6466 63.8944 60.6923C63.8944 59.748 63.5429 59.2758 62.8404 59.2758C62.4713 59.2758 62.2034 59.3979 62.0367 59.6421C61.8721 59.8863 61.7901 60.2364 61.7901 60.6923ZM68.2141 62.8415C67.6909 62.8415 67.2853 62.6534 66.996 62.2767H66.9435C66.9785 62.6261 66.996 62.8376 66.996 62.9125V64.6052H66.1174V58.633H66.8276C66.8479 58.7102 66.8889 58.8946 66.9512 59.1861H66.996C67.27 58.7675 67.6811 58.5582 68.2295 58.5582C68.745 58.5582 69.1463 58.7451 69.4328 59.1188C69.722 59.4926 69.8664 60.0171 69.8664 60.6923C69.8664 61.3675 69.7193 61.8945 69.4252 62.2734C69.1337 62.6518 68.7303 62.8415 68.2141 62.8415ZM68.0015 59.2758C67.6527 59.2758 67.3973 59.378 67.235 59.5823C67.0759 59.7866 66.996 60.113 66.996 60.5615V60.6923C66.996 61.1956 67.0759 61.5606 67.235 61.7874C67.3946 62.0115 67.6548 62.1236 68.0162 62.1236C68.3202 62.1236 68.5542 61.999 68.7188 61.7502C68.8833 61.5008 68.9654 61.1458 68.9654 60.6848C68.9654 60.2214 68.8833 59.8713 68.7188 59.6346C68.557 59.3954 68.318 59.2758 68.0015 59.2758ZM72.998 62.8415C72.3551 62.8415 71.8515 62.6545 71.488 62.2805C71.1266 61.9044 70.9462 61.3874 70.9462 60.7297C70.9462 60.0545 71.1145 59.5238 71.4508 59.1375C71.787 58.7513 72.249 58.5582 72.8373 58.5582C73.3829 58.5582 73.8137 58.7239 74.1303 59.0553C74.4469 59.3867 74.6049 59.8427 74.6049 60.4232V60.8978H71.8504C71.863 61.299 71.9713 61.608 72.1758 61.8246C72.3802 62.0389 72.6678 62.146 73.039 62.146C73.2834 62.146 73.5098 62.1236 73.7192 62.0788C73.9313 62.0318 74.1576 61.9541 74.3993 61.847V62.561C74.185 62.6632 73.9685 62.7354 73.7492 62.778C73.53 62.8201 73.2796 62.8415 72.998 62.8415ZM72.8373 59.2235C72.5579 59.2235 72.3337 59.3119 72.1643 59.4889C71.9975 59.6658 71.898 59.9236 71.8658 60.2625H73.7416C73.7367 59.9212 73.6546 59.6633 73.495 59.4889C73.3354 59.3119 73.1161 59.2235 72.8373 59.2235ZM78.0055 58.5582C78.1827 58.5582 78.3286 58.5707 78.4429 58.5956L78.3571 59.4141C78.2324 59.3842 78.1028 59.3692 77.9683 59.3692C77.6173 59.3692 77.332 59.4839 77.1127 59.7131C76.8957 59.9423 76.7874 60.2401 76.7874 60.6063V62.7666H75.9094V58.633H76.5966L76.7125 59.3618H76.7573C76.8946 59.1151 77.0728 58.9195 77.292 58.775C77.5135 58.6305 77.7518 58.5582 78.0055 58.5582ZM82.2962 61.5893C82.2962 61.9929 82.1492 62.3029 81.855 62.52C81.5609 62.7343 81.1399 62.8415 80.5915 62.8415C80.041 62.8415 79.5987 62.7578 79.2652 62.5911V61.8322C79.7507 62.0564 80.2028 62.1684 80.6216 62.1684C81.1623 62.1684 81.4324 62.0055 81.4324 61.6791C81.4324 61.5743 81.4029 61.4871 81.3428 61.4174C81.2832 61.3476 81.1847 61.2754 81.0475 61.2006C80.9108 61.1258 80.72 61.0411 80.4756 60.9464C80 60.7621 79.6774 60.5777 79.5079 60.3933C79.3412 60.2089 79.2575 59.9697 79.2575 59.6757C79.2575 59.3219 79.3997 59.0478 79.6834 58.8535C79.9699 58.6566 80.3586 58.5582 80.8496 58.5582C81.3356 58.5582 81.7954 58.6566 82.229 58.8535L81.9447 59.515C81.4986 59.3306 81.1235 59.2385 80.8195 59.2385C80.3565 59.2385 80.1246 59.3705 80.1246 59.6346C80.1246 59.7642 80.1842 59.8738 80.304 59.9635C80.4259 60.0532 80.69 60.1765 81.0962 60.3335C81.4379 60.4655 81.6856 60.5864 81.8403 60.696C81.9945 60.8057 82.1093 60.9327 82.1836 61.0773C82.2585 61.2193 82.2962 61.39 82.2962 61.5893Z" fill="white"/>
<path d="M30.6463 56.7554C30.0532 56.7554 29.5021 56.905 28.993 57.2041C28.4996 57.498 28.106 57.8917 27.812 58.3851C27.5129 58.8942 27.3633 59.4453 27.3633 60.0384C27.3633 60.6315 27.5129 61.1826 27.812 61.6917C28.106 62.1848 28.4996 62.5785 28.993 62.8726C29.5021 63.1717 30.0532 63.3215 30.6463 63.3215C31.2394 63.3215 31.7905 63.1717 32.2996 62.8726C32.793 62.5785 33.1866 62.1848 33.4805 61.6917C33.7797 61.1826 33.9293 60.6315 33.9293 60.0384C33.9293 59.4453 33.7797 58.8942 33.4805 58.3851C33.1866 57.8917 32.793 57.498 32.2996 57.2041C31.7905 56.905 31.2394 56.7554 30.6463 56.7554ZM33.268 60.2037C33.2102 60.2824 33.0764 60.369 32.8664 60.4635C32.604 60.579 32.3022 60.6656 31.9611 60.7233V59.6132C32.4282 59.5293 32.7877 59.4295 33.0396 59.3141C33.0501 59.3036 33.0711 59.2931 33.1026 59.2826C33.1394 59.2721 33.163 59.2616 33.1735 59.2511C33.2365 59.4768 33.268 59.7392 33.268 60.0384V60.2037ZM30.1582 61.4791C30.2106 61.4791 30.2894 61.4844 30.3943 61.4949C30.5046 61.5054 30.5885 61.5106 30.6463 61.5106C30.8667 61.5106 31.0321 61.5001 31.1423 61.4791C31.0635 61.7939 30.9769 62.0563 30.8825 62.2663C30.7985 62.4555 30.7198 62.5763 30.6463 62.6288C30.5675 62.5708 30.4862 62.45 30.4022 62.2663C30.2972 62.046 30.2159 61.7835 30.1582 61.4791ZM30.6463 60.8571C30.3629 60.8571 30.1555 60.8466 30.0243 60.8257C30.0243 60.7522 30.0191 60.6367 30.0086 60.4792C29.9981 60.2903 29.9928 60.1433 29.9928 60.0384V59.6762C30.145 59.6972 30.3629 59.7077 30.6463 59.7077C30.9297 59.7077 31.1475 59.6972 31.2997 59.6762V60.0384C31.2997 60.1433 31.2945 60.2903 31.284 60.4792C31.2735 60.6367 31.2682 60.7522 31.2682 60.8257C31.137 60.8466 30.9297 60.8571 30.6463 60.8571ZM31.2367 59.0228C31.1055 59.0438 30.9087 59.0543 30.6463 59.0543C30.3838 59.0543 30.187 59.0438 30.0558 59.0228C30.1188 58.6029 30.2133 58.2355 30.3392 57.9206C30.4442 57.6581 30.5466 57.4902 30.6463 57.4167C30.746 57.4902 30.8483 57.6581 30.9533 57.9206C31.0793 58.2355 31.1738 58.6029 31.2367 59.0228ZM32.8743 58.6606C32.7064 58.7288 32.5673 58.7813 32.457 58.8181C32.2681 58.8811 32.0791 58.9257 31.8902 58.9519C31.8272 58.4323 31.7091 57.973 31.5359 57.5742C32.108 57.7788 32.5541 58.141 32.8743 58.6606ZM28.4182 58.6606C28.5862 58.4034 28.783 58.1856 29.0087 58.0072C29.2449 57.813 29.5073 57.6686 29.796 57.5742C29.6281 57.9416 29.4968 58.4008 29.4024 58.9519C28.9982 58.8627 28.6702 58.7656 28.4182 58.6606ZM28.1506 59.2511C28.1663 59.2616 28.1899 59.2747 28.2214 59.2904L28.2844 59.3141C28.5678 59.44 28.93 59.5398 29.3709 59.6132C29.3551 59.671 29.3446 59.7366 29.3394 59.8101C29.3341 59.8573 29.3315 59.9334 29.3315 60.0384C29.3315 60.3428 29.3446 60.5711 29.3709 60.7233C29.0297 60.6656 28.7279 60.579 28.4655 60.4635C28.2503 60.369 28.1138 60.2824 28.0561 60.2037V60.0384C28.0403 59.9072 28.0403 59.7707 28.0561 59.629C28.0718 59.4873 28.1033 59.3613 28.1506 59.2511ZM28.2529 61.0855C28.6623 61.2482 29.0664 61.3584 29.4653 61.4161C29.5178 61.7677 29.6281 62.1274 29.796 62.4948C29.4496 62.3795 29.1426 62.1979 28.8749 61.9514C28.6072 61.7048 28.3999 61.4161 28.2529 61.0855ZM33.0396 61.0855C32.8927 61.4161 32.6854 61.7048 32.4177 61.9514C32.15 62.1979 31.843 62.3795 31.4966 62.4948C31.6645 62.1274 31.7747 61.7677 31.8272 61.4161C32.3468 61.3426 32.751 61.2324 33.0396 61.0855Z" fill="white"/>
<path opacity="0.72" d="M40.733 80.2614H40.0976V75.3616H38.3672V74.7973H42.4634V75.3616H40.733V80.2614ZM47.0378 78.2095C47.0378 78.877 46.8694 79.3992 46.5331 79.7753C46.1969 80.1493 45.7322 80.3363 45.139 80.3363C44.7727 80.3363 44.4479 80.2499 44.1636 80.0782C43.8799 79.9065 43.6601 79.6594 43.5059 79.3385C43.3512 79.017 43.2741 78.6403 43.2741 78.2095C43.2741 77.5419 43.4408 77.0225 43.7749 76.6508C44.1089 76.2773 44.572 76.0904 45.1652 76.0904C45.7382 76.0904 46.1931 76.2812 46.5293 76.6622C46.8683 77.0433 47.0378 77.5594 47.0378 78.2095ZM43.917 78.2095C43.917 78.7327 44.0215 79.1313 44.2309 79.4057C44.4403 79.6796 44.7481 79.8169 45.1543 79.8169C45.56 79.8169 45.8678 79.6807 46.0772 79.409C46.2887 79.1351 46.3948 78.7354 46.3948 78.2095C46.3948 77.689 46.2887 77.2937 46.0772 77.0247C45.8678 76.753 45.5578 76.6174 45.1466 76.6174C44.7404 76.6174 44.4342 76.7508 44.227 77.0171C44.0204 77.2839 43.917 77.6813 43.917 78.2095ZM51.9709 78.2095C51.9709 78.877 51.8025 79.3992 51.4663 79.7753C51.13 80.1493 50.6653 80.3363 50.0721 80.3363C49.7058 80.3363 49.3805 80.2499 49.0967 80.0782C48.8124 79.9065 48.5932 79.6594 48.439 79.3385C48.2843 79.017 48.2072 78.6403 48.2072 78.2095C48.2072 77.5419 48.374 77.0225 48.708 76.6508C49.0421 76.2773 49.5052 76.0904 50.0984 76.0904C50.6713 76.0904 51.1262 76.2812 51.4624 76.6622C51.8014 77.0433 51.9709 77.5594 51.9709 78.2095ZM48.8502 78.2095C48.8502 78.7327 48.9546 79.1313 49.164 79.4057C49.3734 79.6796 49.6812 79.8169 50.0869 79.8169C50.4931 79.8169 50.8009 79.6807 51.0103 79.409C51.2219 79.1351 51.3279 78.7354 51.3279 78.2095C51.3279 77.689 51.2219 77.2937 51.0103 77.0247C50.8009 76.753 50.4909 76.6174 50.0798 76.6174C49.6735 76.6174 49.3668 76.7508 49.1602 77.0171C48.9535 77.2839 48.8502 77.6813 48.8502 78.2095ZM53.9889 80.2614H53.3683V74.4458H53.9889V80.2614ZM56.2234 78.1646C56.3305 78.0127 56.4934 77.8131 56.7127 77.5665L58.0358 76.1653H58.7722L57.1129 77.9104L58.8881 80.2614H58.1369L56.6903 78.3254L56.2234 78.7289V80.2614H55.6105V74.4458H56.2234V77.5294C56.2234 77.6666 56.2135 77.8782 56.1933 78.1646H56.2234ZM60.5584 80.2614H59.9378V76.1653H60.5584V80.2614ZM59.8859 75.0554C59.8859 74.9133 59.9203 74.8099 59.9903 74.7449C60.0603 74.6776 60.1472 74.6443 60.2522 74.6443C60.3517 74.6443 60.4375 74.6776 60.5097 74.7449C60.5819 74.8121 60.618 74.9154 60.618 75.0554C60.618 75.1948 60.5819 75.2992 60.5097 75.3692C60.4375 75.4365 60.3517 75.4698 60.2522 75.4698C60.1472 75.4698 60.0603 75.4365 59.9903 75.3692C59.9203 75.2992 59.8859 75.1948 59.8859 75.0554ZM63.5031 79.824C63.6129 79.824 63.7185 79.8169 63.8207 79.8016C63.9229 79.7841 64.0039 79.7666 64.064 79.7491V80.2242C63.9967 80.2564 63.8967 80.2827 63.7649 80.3024C63.6354 80.3248 63.5184 80.3363 63.4134 80.3363C62.6212 80.3363 62.2248 79.9186 62.2248 79.0842V76.6475H61.6382V76.3484L62.2248 76.0904L62.4867 75.2156H62.8453V76.1653H64.0339V76.6475H62.8453V79.058C62.8453 79.3046 62.9038 79.4937 63.0208 79.6261C63.1384 79.7578 63.2991 79.824 63.5031 79.824Z" fill="white"/>
<g opacity="0.72">
<path opacity="0.72" d="M30.6463 74.2505C30.0532 74.2505 29.5021 74.4003 28.993 74.6994C28.4996 74.9935 28.106 75.3871 27.812 75.8803C27.5129 76.3893 27.3633 76.9404 27.3633 77.5336C27.3633 78.1268 27.5129 78.6779 27.812 79.1869C28.106 79.6801 28.4996 80.0737 28.993 80.3678C29.5021 80.6669 30.0532 80.8167 30.6463 80.8167C31.2394 80.8167 31.7905 80.6669 32.2996 80.3678C32.793 80.0737 33.1866 79.6801 33.4805 79.1869C33.7797 78.6779 33.9293 78.1268 33.9293 77.5336C33.9293 76.9404 33.7797 76.3893 33.4805 75.8803C33.1866 75.3871 32.793 74.9935 32.2996 74.6994C31.7905 74.4003 31.2394 74.2505 30.6463 74.2505ZM33.268 77.6987C33.2102 77.7774 33.0764 77.8644 32.8664 77.9589C32.604 78.0743 32.3022 78.1607 31.9611 78.2186V77.1082C32.4282 77.0246 32.7877 76.9245 33.0396 76.8092C33.0501 76.7988 33.0711 76.7884 33.1026 76.778C33.1394 76.7671 33.163 76.7567 33.1735 76.7463C33.2365 76.9721 33.268 77.2345 33.268 77.5336V77.6987ZM30.1582 78.9742C30.2106 78.9742 30.2894 78.9797 30.3943 78.9901C30.5046 79.0005 30.5885 79.0059 30.6463 79.0059C30.8667 79.0059 31.0321 78.9956 31.1423 78.9742C31.0635 79.2891 30.9769 79.5516 30.8825 79.7615C30.7985 79.9507 30.7198 80.0715 30.6463 80.124C30.5675 80.066 30.4862 79.9452 30.4022 79.7615C30.2972 79.5412 30.2159 79.2788 30.1582 78.9742ZM30.6463 78.3526C30.3629 78.3526 30.1555 78.3417 30.0243 78.3209C30.0243 78.2476 30.0191 78.1317 30.0086 77.9743C29.9981 77.7856 29.9928 77.6386 29.9928 77.5336V77.1717C30.145 77.1924 30.3629 77.2028 30.6463 77.2028C30.9297 77.2028 31.1475 77.1924 31.2997 77.1717V77.5336C31.2997 77.6386 31.2945 77.7856 31.284 77.9743C31.2735 78.1317 31.2682 78.2476 31.2682 78.3209C31.137 78.3417 30.9297 78.3526 30.6463 78.3526ZM31.2367 76.5178C31.1055 76.5391 30.9087 76.5495 30.6463 76.5495C30.3838 76.5495 30.187 76.5391 30.0558 76.5178C30.1188 76.0979 30.2133 75.7305 30.3392 75.4156C30.4442 75.1531 30.5466 74.9853 30.6463 74.912C30.746 74.9853 30.8483 75.1531 30.9533 75.4156C31.0793 75.7305 31.1738 76.0979 31.2367 76.5178ZM32.8743 76.1558C32.7064 76.2242 32.5673 76.2767 32.457 76.3133C32.2681 76.3762 32.0791 76.421 31.8902 76.4472C31.8272 75.9273 31.7091 75.4681 31.5359 75.0695C32.108 75.274 32.5541 75.6364 32.8743 76.1558ZM28.4182 76.1558C28.5862 75.8989 28.783 75.6807 29.0087 75.5025C29.2449 75.3084 29.5073 75.1641 29.796 75.0695C29.6281 75.4369 29.4968 75.8961 29.4024 76.4472C28.9982 76.3581 28.6702 76.2608 28.4182 76.1558ZM28.1506 76.7463C28.1663 76.7567 28.1899 76.7698 28.2214 76.7857L28.2844 76.8092C28.5678 76.9355 28.93 77.035 29.3709 77.1082C29.3551 77.1662 29.3446 77.2318 29.3394 77.3051C29.3341 77.3526 29.3315 77.4286 29.3315 77.5336C29.3315 77.8381 29.3446 78.0661 29.3709 78.2186C29.0297 78.1607 28.7279 78.0743 28.4655 77.9589C28.2503 77.8644 28.1138 77.7774 28.0561 77.6987V77.5336C28.0403 77.4024 28.0403 77.2657 28.0561 77.1241C28.0718 76.9825 28.1033 76.8567 28.1506 76.7463ZM28.2529 78.5806C28.6623 78.7435 29.0664 78.8534 29.4653 78.9114C29.5178 79.2629 29.6281 79.6227 29.796 79.9901C29.4496 79.8747 29.1426 79.6932 28.8749 79.4466C28.6072 79.2 28.3999 78.9114 28.2529 78.5806ZM33.0396 78.5806C32.8927 78.9114 32.6854 79.2 32.4177 79.4466C32.15 79.6932 31.843 79.8747 31.4966 79.9901C31.6645 79.6227 31.7747 79.2629 31.8272 78.9114C32.3468 78.8381 32.751 78.7277 33.0396 78.5806Z" fill="white"/>
</g>
</g>
<defs>
<filter id="filter0_d" x="51.6962" y="33.243" width="104.425" height="79.8226" filterUnits="userSpaceOnUse" color-interpolation-filters="sRGB">
<feFlood flood-opacity="0" result="BackgroundImageFix"/>
<feColorMatrix in="SourceAlpha" type="matrix" values="0 0 0 0 0 0 0 0 0 0 0 0 0 0 0 0 0 0 127 0"/>
<feOffset dy="2.18692"/>
<feGaussianBlur stdDeviation="1.64019"/>
<feColorMatrix type="matrix" values="0 0 0 0 0 0 0 0 0 0 0 0 0 0 0 0 0 0 0.12 0"/>
<feBlend mode="normal" in2="BackgroundImageFix" result="effect1_dropShadow"/>
<feBlend mode="normal" in="SourceGraphic" in2="effect1_dropShadow" result="shape"/>
</filter>
<filter id="filter1_d" x="0.769531" y="4.00024" width="95.8361" height="95.8365" filterUnits="userSpaceOnUse" color-interpolation-filters="sRGB">
<feFlood flood-opacity="0" result="BackgroundImageFix"/>
<feColorMatrix in="SourceAlpha" type="matrix" values="0 0 0 0 0 0 0 0 0 0 0 0 0 0 0 0 0 0 127 0"/>
<feOffset dy="2"/>
<feGaussianBlur stdDeviation="2.5"/>
<feColorMatrix type="matrix" values="0 0 0 0 0 0 0 0 0 0 0 0 0 0 0 0 0 0 0.12 0"/>
<feBlend mode="normal" in2="BackgroundImageFix" result="effect1_dropShadow"/>
<feBlend mode="normal" in="SourceGraphic" in2="effect1_dropShadow" result="shape"/>
</filter>
</defs>
</svg>
