<svg width="15" height="17" viewBox="0 0 15 17" fill="none" xmlns="http://www.w3.org/2000/svg">
<path d="M13.2423 2.62158H2.2881C1.64543 2.62158 1.12445 3.14257 1.12445 3.78523V14.6779C1.12445 15.3206 1.64543 15.8416 2.2881 15.8416H13.2423C13.8849 15.8416 14.4059 15.3206 14.4059 14.6779V3.78523C14.4059 3.14257 13.8849 2.62158 13.2423 2.62158Z" stroke="#7E96C8" stroke-width="0.56277" stroke-miterlimit="10"/>
<path d="M4.55947 1H4.53993C4.01103 1 3.58228 1.42875 3.58228 1.95765V3.35603C3.58228 3.88493 4.01103 4.31368 4.53993 4.31368H4.55947C5.08837 4.31368 5.51712 3.88493 5.51712 3.35603V1.95765C5.51712 1.42875 5.08837 1 4.55947 1Z" fill="white" stroke="#7E96C8" stroke-width="0.56277" stroke-miterlimit="10"/>
<path d="M10.7418 1H10.7222C10.1933 1 9.76459 1.42875 9.76459 1.95765V3.35603C9.76459 3.88493 10.1933 4.31368 10.7222 4.31368H10.7418C11.2707 4.31368 11.6994 3.88493 11.6994 3.35603V1.95765C11.6994 1.42875 11.2707 1 10.7418 1Z" fill="white" stroke="#7E96C8" stroke-width="0.56277" stroke-miterlimit="10"/>
<path d="M1 6.04871H14.2816" stroke="#7E96C8" stroke-width="0.56277" stroke-miterlimit="10"/>
<path d="M6.42896 9.28687C6.83181 9.28687 7.15839 8.96029 7.15839 8.55743C7.15839 8.15458 6.83181 7.828 6.42896 7.828C6.0261 7.828 5.69952 8.15458 5.69952 8.55743C5.69952 8.96029 6.0261 9.28687 6.42896 9.28687Z" fill="#7E96C8"/>
<path d="M9.10144 9.28687C9.50429 9.28687 9.83087 8.96029 9.83087 8.55743C9.83087 8.15458 9.50429 7.828 9.10144 7.828C8.69859 7.828 8.37201 8.15458 8.37201 8.55743C8.37201 8.96029 8.69859 9.28687 9.10144 9.28687Z" fill="#7E96C8"/>
<path d="M11.7739 9.28687C12.1767 9.28687 12.5033 8.96029 12.5033 8.55743C12.5033 8.15458 12.1767 7.828 11.7739 7.828C11.371 7.828 11.0444 8.15458 11.0444 8.55743C11.0444 8.96029 11.371 9.28687 11.7739 9.28687Z" fill="#7E96C8"/>
<path d="M3.75653 11.6386C4.15938 11.6386 4.48596 11.312 4.48596 10.9091C4.48596 10.5063 4.15938 10.1797 3.75653 10.1797C3.35368 10.1797 3.0271 10.5063 3.0271 10.9091C3.0271 11.312 3.35368 11.6386 3.75653 11.6386Z" fill="#7E96C8"/>
<path d="M6.42896 11.6386C6.83181 11.6386 7.15839 11.312 7.15839 10.9091C7.15839 10.5063 6.83181 10.1797 6.42896 10.1797C6.0261 10.1797 5.69952 10.5063 5.69952 10.9091C5.69952 11.312 6.0261 11.6386 6.42896 11.6386Z" fill="#7E96C8"/>
<path d="M9.10144 11.6386C9.50429 11.6386 9.83087 11.312 9.83087 10.9091C9.83087 10.5063 9.50429 10.1797 9.10144 10.1797C8.69859 10.1797 8.37201 10.5063 8.37201 10.9091C8.37201 11.312 8.69859 11.6386 9.10144 11.6386Z" fill="#7E96C8"/>
<path d="M11.7739 11.6386C12.1767 11.6386 12.5033 11.312 12.5033 10.9091C12.5033 10.5063 12.1767 10.1797 11.7739 10.1797C11.371 10.1797 11.0444 10.5063 11.0444 10.9091C11.0444 11.312 11.371 11.6386 11.7739 11.6386Z" fill="#7E96C8"/>
<path d="M3.75653 13.9904C4.15938 13.9904 4.48596 13.6638 4.48596 13.261C4.48596 12.8581 4.15938 12.5316 3.75653 12.5316C3.35368 12.5316 3.0271 12.8581 3.0271 13.261C3.0271 13.6638 3.35368 13.9904 3.75653 13.9904Z" fill="#7E96C8"/>
<path d="M6.42896 13.9904C6.83181 13.9904 7.15839 13.6638 7.15839 13.261C7.15839 12.8581 6.83181 12.5316 6.42896 12.5316C6.0261 12.5316 5.69952 12.8581 5.69952 13.261C5.69952 13.6638 6.0261 13.9904 6.42896 13.9904Z" fill="#7E96C8"/>
<path d="M9.10144 13.9904C9.50429 13.9904 9.83087 13.6638 9.83087 13.261C9.83087 12.8581 9.50429 12.5316 9.10144 12.5316C8.69859 12.5316 8.37201 12.8581 8.37201 13.261C8.37201 13.6638 8.69859 13.9904 9.10144 13.9904Z" fill="#7E96C8"/>
<path d="M11.7739 13.9904C12.1767 13.9904 12.5033 13.6638 12.5033 13.261C12.5033 12.8581 12.1767 12.5316 11.7739 12.5316C11.371 12.5316 11.0444 12.8581 11.0444 13.261C11.0444 13.6638 11.371 13.9904 11.7739 13.9904Z" fill="#7E96C8"/>
</svg>
