<?xml version="1.0" encoding="UTF-8" standalone="no"?>
<svg width="20px" height="20px" viewBox="0 0 20 20" version="1.1" xmlns="http://www.w3.org/2000/svg" xmlns:xlink="http://www.w3.org/1999/xlink">
    <!-- Generator: Sketch 41.2 (35397) - http://www.bohemiancoding.com/sketch -->
    <title>delete</title>
    <desc>Created with Sketch.</desc>
    <defs></defs>
    <g id="Page-1" stroke="none" stroke-width="1" fill="none" fill-rule="evenodd">
        <g id="Uploading-File" transform="translate(-811.000000, -802.000000)">
            <g id="Group-4" transform="translate(309.000000, 25.000000)">
                <g id="Group-4-Copy" transform="translate(291.000000, 706.000000)">
                    <g id="delete" transform="translate(211.000000, 71.000000)">
                        <g id="icons">
                            <circle id="Oval" fill="#000000" cx="10" cy="10" r="10"></circle>
                            <path d="M11.2499792,9.99997225 L14.8392903,6.41071666 C14.9280132,6.32193825 14.9280132,6.17806175 14.8392903,6.08928334 L13.9106681,5.16071666 C13.8219452,5.07193825 13.6780132,5.07193825 13.5892903,5.16071666 L9.99997918,8.74997225 L6.41066811,5.16071666 C6.32194518,5.07193825 6.1780132,5.07193825 6.08929027,5.16071666 L5.16066811,6.08928334 C5.07194518,6.17806175 5.07194518,6.32193825 5.16066811,6.41071666 L8.7499792,9.99997225 L5.16066811,13.5892833 C5.07194518,13.6780617 5.07194518,13.8219382 5.16066811,13.9107167 L6.08929027,14.8392833 C6.1780132,14.9280617 6.32194518,14.9280617 6.41066811,14.8392833 L9.9999792,11.2499722 L13.5892903,14.8392833 C13.6780132,14.9280617 13.8219452,14.9280617 13.9106681,14.8392833 L14.8392903,13.9107167 C14.9280132,13.8219382 14.9280132,13.6780617 14.8392903,13.5892833 L11.2499792,9.99997225 Z" id="Shape" fill="#FFFFFF"></path>
                        </g>
                    </g>
                </g>
            </g>
        </g>
    </g>
</svg>