<?xml version="1.0" encoding="UTF-8" standalone="no"?>
<svg width="20px" height="20px" viewBox="0 0 20 20" version="1.1" xmlns="http://www.w3.org/2000/svg" xmlns:xlink="http://www.w3.org/1999/xlink">
    <!-- Generator: Sketch 41.2 (35397) - http://www.bohemiancoding.com/sketch -->
    <title>Group 4</title>
    <desc>Created with Sketch.</desc>
    <defs></defs>
    <g id="Page-1" stroke="none" stroke-width="1" fill="none" fill-rule="evenodd">
        <g id="Message-Thread:-File" transform="translate(-862.000000, -378.000000)">
            <g id="Group-4-Copy" transform="translate(651.000000, 307.000000)">
                <g id="Group-4" transform="translate(211.000000, 71.000000)">
                    <circle id="Oval" fill="#000000" cx="10" cy="10" r="10"></circle>
                    <path d="M14.75,15 L5.25,15 C5.1118164,15 5,14.8881836 5,14.75 L5,13.25 C5,13.1119385 5.1118164,13 5.25,13 L14.75,13 C14.8881836,13 15,13.1119385 15,13.25 L15,14.75 C15,14.8881836 14.8881836,15 14.75,15 Z M12,8.11986512 L12,5 L8,5 L8,8.11986512 L6,8.11986512 L9.39345313,11.7590966 C9.69296502,12.0803011 10.3070345,12.0803011 10.6065474,11.7590966 L14,8.11986512 L12,8.11986512 Z" id="Shape" fill="#FFFFFF"></path>
                </g>
            </g>
        </g>
    </g>
</svg>