<svg fill="none" xmlns="http://www.w3.org/2000/svg" viewBox="6.209 6.209 16 16" width="16" height="16"><path d="M7.255 22.204c-0.882 0 -1.281 -0.636 -0.888 -1.413L13.494 6.79c0.404 -0.775 1.039 -0.775 1.435 0l7.126 14.001c0.403 0.775 0 1.413 -0.888 1.413H7.255Z" fill="#FFBC1F"/><path d="m13.092 11.968 0.733 4.922a0.388 0.388 0 0 0 0.773 0l0.732 -4.922c0.133 -1.919 -2.373 -1.919 -2.238 0Z" fill="#2D3039"/><path d="M14.21 17.78a1.122 1.122 0 1 1 -0.004 2.244 1.122 1.122 0 0 1 0.004 -2.244Z" fill="#2D3039"/></svg>