<svg width="32" height="40" viewBox="0 0 32 40" fill="none" xmlns="http://www.w3.org/2000/svg">
<path d="M1.59518 10.3571L10.4929 1.57645C10.8672 1.20709 11.3718 1 11.8977 1H28C29.6569 1 31 2.34315 31 4V36C31 37.6569 29.6569 39 28 39H4C2.34315 39 1 37.6569 1 36V11.7806C1 11.2456 1.21437 10.7329 1.59518 10.3571Z" stroke="#338AFF" stroke-width="2"/>
<path d="M11 2V11C11 11.5523 10.5523 12 10 12H2" stroke="#338AFF" stroke-width="2"/>
<path d="M9 28.95V23.05C9 23.0224 9.02239 23 9.05 23H13.5L16.9175 20.0707C16.9499 20.0429 17 20.066 17 20.1087V31.8913C17 31.934 16.9499 31.9571 16.9175 31.9293L13.5 29H9.05C9.02239 29 9 28.9776 9 28.95Z" stroke="#338AFF" stroke-width="2"/>
<path d="M22.7107 21.3515C22.3872 21.1299 21.9583 21.2328 21.7533 21.5831C21.5484 21.9334 21.6441 22.3965 21.9675 22.6181C23.1165 23.4062 23.8025 24.745 23.8025 26.1999C23.8025 27.6549 23.1165 28.994 21.9675 29.7818C21.6441 30.0034 21.5484 30.4668 21.7533 30.8168C21.9415 31.138 22.3638 31.2865 22.7107 31.0484C24.2632 29.984 25.19 28.1715 25.19 26.1999C25.19 24.2284 24.2632 22.4159 22.7107 21.3515ZM21.092 23.7978C20.7572 23.5999 20.3349 23.7303 20.1493 24.0931C19.9739 24.4378 20.0754 24.8665 20.3738 25.0802L20.4225 25.1121C20.7957 25.3337 21.0275 25.7509 21.0275 26.1999C21.0275 26.6226 20.8221 27.017 20.4871 27.2466L20.4228 27.2877C20.0872 27.4881 19.9649 27.944 20.1496 28.3068C20.3355 28.6712 20.7581 28.8006 21.0922 28.6021C21.9082 28.1162 22.4153 27.1959 22.4153 26.1999C22.4153 25.204 21.9082 24.2834 21.092 23.7978Z" fill="#338AFF"/>
</svg>
