<?xml version="1.0" encoding="UTF-8"?><!DOCTYPE svg PUBLIC "-//W3C//DTD SVG 1.1//EN" "http://www.w3.org/Graphics/SVG/1.1/DTD/svg11.dtd"><svg xmlns="http://www.w3.org/2000/svg" xmlns:xlink="http://www.w3.org/1999/xlink" version="1.1" width="16" height="16" viewBox="0 0 16 16"><path d="M8 1C4.15 1 1 4.15 1 8C1 11.85 4.15 15 8 15C11.85 15 15 11.85 15 8C15 4.15 11.85 1 8 1ZM8 13.6C4.913 13.6 2.4 11.087 2.4 8C2.4 4.913 4.913 2.4 8 2.4C11.087 2.4 13.6 4.913 13.6 8C13.6 11.087 11.087 13.6 8 13.6ZM11.213 4.906L6.6 9.519L4.787 7.713L3.8 8.7L6.6 11.5L12.2 5.9L11.213 4.906Z" fill="white"/></svg>
