<svg fill="none" height="48" viewBox="0 0 48 48" width="48" xmlns="http://www.w3.org/2000/svg" xmlns:xlink="http://www.w3.org/1999/xlink"><linearGradient id="a"><stop offset="0" stop-color="#0050d3"/><stop offset=".94" stop-color="#007ffc"/><stop offset="1" stop-color="#0082ff"/></linearGradient><linearGradient id="b" gradientUnits="userSpaceOnUse" x1="37.5113" x2="18.7215" xlink:href="#a" y1="40.2376" y2="29.4358"/><linearGradient id="c" gradientUnits="userSpaceOnUse" x1="10.466" x2="29.2558" xlink:href="#a" y1="7.74603" y2="18.5431"/><rect fill="#fff" height="48" rx="24" width="48"/><path d="m10.0648 31.5952c-.31054.5064-.65929 1.094-.93161 1.5622-.12744.2154-.16531.4722-.10546.7152.05986.2429.21266.4528.42555.5843l6.21072 3.822c.1079.0666.228.1111.3533.1308s.2533.0143.3764-.0159c.1232-.0303.2392-.0847.3411-.1602s.1877-.1706.2525-.2796c.2437-.4156.5638-.9555.9125-1.5336 2.4604-4.0608 4.9399-3.564 9.3973-1.4332l6.1582 2.9286c.1154.0549.2407.0861.3684.0918.1277.0056.2553-.0144.3751-.059.1199-.0445.2296-.1127.3226-.2004s.1675-.1932.219-.3102l2.9572-6.6884c.1005-.2296.1067-.4895.0173-.7236-.0894-.2342-.2671-.4238-.495-.5281-1.2995-.6115-3.8841-1.8346-6.2107-2.9525-8.3892-4.08-15.5029-3.8124-20.9444 5.0498z" fill="url(#b)"/><path d="m37.9125 16.4028c.3105-.5064.6593-1.0988.9555-1.5622.127-.216.1642-.4732.1034-.7162-.0608-.2431-.2146-.4525-.4283-.5833l-6.2107-3.82198c-.1077-.06588-.2274-.10974-.3522-.12907-.1248-.01932-.2522-.01372-.3748.01649s-.238.08442-.3396.15951c-.1015.07509-.1871.16955-.2519.27795-.2485.4156-.5686.9555-.9173 1.5336-2.4604 4.0608-4.9351 3.5639-9.3973 1.4332l-6.1772-2.9143c-.1152-.0541-.2401-.0848-.3673-.09-.1272-.0053-.2542.015-.3735.0595-.1192.0445-.2284.1124-.3211.1997-.0927.0872-.167.1922-.2185.3086l-2.9573 6.6884c-.1004.2296-.1066.4895-.0172.7236.0894.2342.2671.4238.495.5281 1.2995.6116 3.8888 1.8298 6.2107 2.9525 8.3844 4.0465 15.4981 3.779 20.9396-5.0641z" fill="url(#c)"/></svg>