<svg width="16" height="16" viewBox="0 0 16 16" fill="none" xmlns="http://www.w3.org/2000/svg">
<g clip-path="url(#clip0)">
<path d="M15.712 11.664L10.112 1.26398C9.90933 0.869308 9.616 0.559975 9.232 0.335975C8.848 0.111975 8.43733 -2.47955e-05 8 -2.47955e-05C7.56267 -2.47955e-05 7.152 0.111975 6.768 0.335975C6.384 0.559975 6.09067 0.869308 5.888 1.26398L0.288 11.664C0.0853333 12.0373 -0.0106667 12.4373 0 12.864C0.0106667 13.28 0.122667 13.6693 0.336 14.032C0.56 14.3946 0.853333 14.6773 1.216 14.88C1.57867 15.0933 1.97333 15.2 2.4 15.2H13.6C14.0267 15.2 14.4213 15.0933 14.784 14.88C15.1467 14.6773 15.4347 14.3946 15.648 14.032C15.872 13.6693 15.9893 13.28 16 12.864C16.0107 12.4373 15.9147 12.0373 15.712 11.664ZM13.6 13.6H2.4C2.208 13.6 2.03733 13.5413 1.888 13.424C1.74933 13.296 1.65867 13.1413 1.616 12.96C1.57333 12.768 1.6 12.5866 1.696 12.416L7.296 2.01597C7.37067 1.88797 7.472 1.78664 7.6 1.71198C7.728 1.63731 7.86133 1.59997 8 1.59997C8.13867 1.59997 8.272 1.63731 8.4 1.71198C8.528 1.78664 8.62933 1.88797 8.704 2.01597L14.304 12.416C14.4 12.5866 14.4267 12.768 14.384 12.96C14.3413 13.1413 14.2453 13.296 14.096 13.424C13.9573 13.5413 13.792 13.6 13.6 13.6ZM8.4 8.79998H7.6L7.2 3.99998H8.8L8.4 8.79998ZM8.8 11.2C8.8 11.424 8.72 11.616 8.56 11.776C8.41067 11.9253 8.224 12 8 12C7.776 12 7.584 11.9253 7.424 11.776C7.27467 11.616 7.2 11.424 7.2 11.2C7.2 10.976 7.27467 10.7893 7.424 10.64C7.584 10.48 7.776 10.4 8 10.4C8.224 10.4 8.41067 10.48 8.56 10.64C8.72 10.7893 8.8 10.976 8.8 11.2Z" fill="#DB3214"/>
</g>
<defs>
<clipPath id="clip0">
<rect width="16" height="16" fill="white"/>
</clipPath>
</defs>
</svg>
