<svg width="32" height="40" viewBox="0 0 32 40" fill="none" xmlns="http://www.w3.org/2000/svg">
<path d="M1.59518 10.3571L10.4929 1.57645C10.8672 1.20709 11.3718 1 11.8977 1H28C29.6569 1 31 2.34315 31 4V36C31 37.6569 29.6569 39 28 39H4C2.34315 39 1 37.6569 1 36V11.7806C1 11.2456 1.21437 10.7329 1.59518 10.3571Z" stroke="#1CA660" stroke-width="2"/>
<path d="M11 2V11C11 11.5523 10.5523 12 10 12H2" stroke="#1CA660" stroke-width="2"/>
<path d="M22 31H18.8902L15.9034 26.461L12.9165 31H10L14.2606 24.8112L10.2723 19H13.2767L16.0439 23.3174L18.7584 19H21.6925L17.6603 24.9508L22 31Z" fill="#1CA660"/>
</svg>
