<svg width="32" height="40" viewBox="0 0 32 40" fill="none" xmlns="http://www.w3.org/2000/svg">
<path d="M1.59518 10.3571L10.4929 1.57645C10.8672 1.20709 11.3718 1 11.8977 1H28C29.6569 1 31 2.34315 31 4V36C31 37.6569 29.6569 39 28 39H4C2.34315 39 1 37.6569 1 36V11.7806C1 11.2456 1.21437 10.7329 1.59518 10.3571Z" stroke="#338AFF" stroke-width="2"/>
<path d="M11 2V11C11 11.5523 10.5523 12 10 12H2" stroke="#338AFF" stroke-width="2"/>
<path fill-rule="evenodd" clip-rule="evenodd" d="M21.7791 17.1452C21.2806 16.6467 20.6909 16.3074 20.0147 16.1314C19.3421 15.9563 18.6668 15.9562 17.9942 16.131C17.324 16.2989 16.7342 16.6394 16.2283 17.1452L9.54617 23.8274C8.87 24.5036 8.4115 25.2967 8.17592 26.2028C7.94136 27.105 7.94136 28.0098 8.17592 28.912C8.4115 29.818 8.87 30.6112 9.54617 31.2874C10.2224 31.9636 11.0155 32.4221 11.9216 32.6576C12.8237 32.8922 13.7286 32.8922 14.6307 32.6576C15.5368 32.4221 16.33 31.9636 17.0062 31.2874L22.9282 25.3654C23.1234 25.1701 23.1234 24.8535 22.9282 24.6583L22.2211 23.9511C22.0258 23.7559 21.7092 23.7559 21.514 23.9511L15.5919 29.8732C15.1741 30.291 14.6862 30.5711 14.1234 30.7176C13.5577 30.8648 12.9946 30.8648 12.4289 30.7176C11.8662 30.5711 11.3782 30.291 10.9604 29.8732C10.5425 29.4553 10.2624 28.9674 10.116 28.4047C9.96871 27.8389 9.96871 27.2759 10.116 26.7101C10.2624 26.1474 10.5425 25.6595 10.9604 25.2416L17.6425 18.5595C17.8907 18.3113 18.1736 18.1513 18.4954 18.0726L18.5003 18.0714C18.839 17.983 19.1696 17.9797 19.4969 18.0593C19.8296 18.1465 20.1174 18.3119 20.3649 18.5595C20.613 18.8076 20.7731 19.0905 20.8517 19.4123L20.853 19.4172C20.9408 19.7537 20.9408 20.0875 20.853 20.4241L20.8518 20.429C20.7731 20.7508 20.613 21.0337 20.3649 21.2818L14.3191 27.3276C14.2026 27.4441 14.0692 27.4997 13.8998 27.4997C13.7541 27.4997 13.6273 27.4489 13.506 27.3276C13.3873 27.2089 13.3293 27.0777 13.3214 26.921C13.3292 26.7643 13.3873 26.6331 13.506 26.5144L18.7916 21.2288C18.9869 21.0335 18.9869 20.7169 18.7916 20.5217L18.0845 19.8146C17.8892 19.6193 17.5726 19.6193 17.3774 19.8146L12.0918 25.1002C11.7629 25.4291 11.5382 25.8193 11.4216 26.2662L11.4204 26.2711C11.3146 26.7036 11.3146 27.1384 11.4203 27.5709L11.4216 27.5758C11.5382 28.0227 11.7629 28.4129 12.0918 28.7418C12.42 29.0701 12.8066 29.2916 13.2474 29.3998C13.6877 29.5143 14.1277 29.5195 14.5625 29.4132L14.5674 29.4119C15.0143 29.2954 15.4045 29.0707 15.7334 28.7418L21.7791 22.696C22.285 22.1902 22.6255 21.6004 22.7934 20.9302C22.9682 20.2575 22.968 19.5823 22.793 18.9096C22.617 18.2335 22.2777 17.6438 21.7791 17.1452Z" fill="#338AFF"/>
</svg>
