<svg width="32" height="40" viewBox="0 0 32 40" fill="none" xmlns="http://www.w3.org/2000/svg">
<path d="M1.59518 10.3571L10.4929 1.57645C10.8672 1.20709 11.3718 1 11.8977 1H28C29.6569 1 31 2.34315 31 4V36C31 37.6569 29.6569 39 28 39H4C2.34315 39 1 37.6569 1 36V11.7806C1 11.2456 1.21437 10.7329 1.59518 10.3571Z" stroke="#EE4F5C" stroke-width="2"/>
<path d="M11 2V11C11 11.5523 10.5523 12 10 12H2" stroke="#EE4F5C" stroke-width="2"/>
<path fill-rule="evenodd" clip-rule="evenodd" d="M15.4878 16L15.5123 16.0001C16.2287 16.0131 16.8592 16.3652 17.2494 16.9687C17.9458 18.0474 17.8281 19.8849 17.2172 22.1847C17.3043 22.2828 17.3949 22.3787 17.489 22.4723C17.9556 22.9358 18.441 23.3538 18.933 23.721C20.63 23.4697 22.081 23.5831 22.9802 24.1658C23.6244 24.5823 24.0002 25.2422 24.0002 25.9892C24.0002 26.8132 23.5542 27.5091 22.805 27.8166C21.6981 28.2728 20.1011 27.7781 18.3347 26.6764C17.7146 26.8249 17.109 27.0241 16.5567 27.2659C15.9606 27.5271 15.3969 27.7853 14.8716 28.0376C13.5482 30.5492 12.1564 32 10.3567 32C10.075 32 9.79159 31.9601 9.51152 31.88C8.55309 31.6059 8.05649 30.9591 8.00369 30.2141C7.91274 28.8547 9.5044 27.5801 12.7964 25.9402C13.0103 25.4962 13.1918 25.0872 13.5144 24.3424L13.6995 23.9135C13.8503 23.57 14.0054 23.1584 14.153 22.7112C13.0842 20.9253 12.7816 18.9172 13.3628 17.5226C13.75 16.5872 14.5365 16 15.4878 16ZM13.2174 27.6068L12.7509 28.3362C11.8148 29.7998 10.9009 30.5345 9.97437 30.2673L9.92091 30.2507L9.86789 30.2318L9.61256 30.1366L9.75723 29.9056C10.0016 29.5155 10.9189 28.8706 12.3068 28.1039L12.4573 28.0213L13.2174 27.6068ZM16.0392 23.389L15.7855 23.1189L15.6667 23.47L15.5682 23.7522C15.4669 24.0335 15.3574 24.3118 15.2398 24.5868L15.0595 25.0047L14.984 25.1804C14.8851 25.4099 14.7923 25.6219 14.6984 25.8327L14.4593 26.3691L14.9936 26.1254L15.0759 26.0879C15.2966 25.9878 15.5297 25.8841 15.8799 25.7299C16.3776 25.5127 16.9239 25.3204 17.484 25.166L17.908 25.0491L17.5624 24.7771L17.2998 24.5655C16.953 24.2795 16.6196 23.9776 16.3006 23.661C16.2237 23.5838 16.1481 23.5049 16.0392 23.389ZM22.0633 25.5729C22.2394 25.6872 22.3054 25.8086 22.3139 25.993L22.3147 26.0569L22.3128 26.1648L22.2267 26.23C21.929 26.4556 21.1166 26.258 20.1282 25.7671L20.0134 25.7092L19.2833 25.3349L20.1025 25.2895C20.9912 25.2402 21.697 25.3344 22.0633 25.5729ZM15.8343 17.8769C15.7459 17.7411 15.6389 17.6826 15.4904 17.6777L15.4796 17.6776C15.2279 17.6816 15.0428 17.8606 14.9172 18.1635C14.6171 18.8836 14.7438 20.1101 15.2981 21.2851L15.5718 21.8653L15.7157 21.2401C16.0876 19.6238 16.165 18.3878 15.8343 17.8769Z" fill="#EE4F5C"/>
</svg>
