<svg width="16" height="16" viewBox="0 0 16 16" fill="none" xmlns="http://www.w3.org/2000/svg">
<g clip-path="url(#clip0)">
<path d="M7.2 5.59961H8.8V3.99961H7.2V5.59961ZM8 14.3996C6.848 14.3996 5.776 14.1063 4.784 13.5196C3.81333 12.9543 3.04533 12.1863 2.48 11.2156C1.89333 10.2236 1.6 9.15161 1.6 7.99961C1.6 6.84761 1.89333 5.77561 2.48 4.78361C3.04533 3.81294 3.81333 3.04494 4.784 2.47961C5.776 1.89294 6.848 1.59961 8 1.59961C9.152 1.59961 10.224 1.89294 11.216 2.47961C12.1867 3.04494 12.9547 3.81294 13.52 4.78361C14.1067 5.77561 14.4 6.84761 14.4 7.99961C14.4 9.15161 14.1067 10.2236 13.52 11.2156C12.9547 12.1863 12.1867 12.9543 11.216 13.5196C10.224 14.1063 9.152 14.3996 8 14.3996ZM8 -0.000391006C6.56 -0.000391006 5.216 0.367609 3.968 1.10361C2.76267 1.80761 1.808 2.76228 1.104 3.96761C0.368 5.21561 0 6.55961 0 7.99961C0 9.43961 0.368 10.7836 1.104 12.0316C1.808 13.2369 2.76267 14.1916 3.968 14.8956C5.216 15.6316 6.56 15.9996 8 15.9996C9.44 15.9996 10.784 15.6316 12.032 14.8956C13.2373 14.1916 14.192 13.2369 14.896 12.0316C15.632 10.7836 16 9.43961 16 7.99961C16 6.55961 15.632 5.21561 14.896 3.96761C14.192 2.76228 13.2373 1.80761 12.032 1.10361C10.784 0.367609 9.44 -0.000391006 8 -0.000391006ZM7.2 11.9996H8.8V7.19961H7.2V11.9996Z" fill="#DB3214"/>
</g>
<defs>
<clipPath id="clip0">
<path d="M0 0H16V16H0V0Z" fill="white"/>
</clipPath>
</defs>
</svg>
