<svg width="18" height="18" viewBox="0 0 18 18" fill="none" xmlns="http://www.w3.org/2000/svg">
<g clip-path="url(#clip0)">
<path d="M9 -0.000195742C7.38 -0.000195742 5.868 0.413804 4.464 1.2418C3.108 2.0338 2.034 3.1078 1.242 4.4638C0.414 5.8678 0 7.3798 0 8.9998C0 10.6198 0.414 12.1318 1.242 13.5358C2.034 14.8918 3.108 15.9658 4.464 16.7578C5.868 17.5858 7.38 17.9998 9 17.9998C10.62 17.9998 12.132 17.5858 13.536 16.7578C14.892 15.9658 15.966 14.8918 16.758 13.5358C17.586 12.1318 18 10.6198 18 8.9998C18 7.3798 17.586 5.8678 16.758 4.4638C15.966 3.1078 14.892 2.0338 13.536 1.2418C12.132 0.413804 10.62 -0.000195742 9 -0.000195742ZM9 16.1998C7.704 16.1998 6.498 15.8698 5.382 15.2098C4.29 14.5738 3.426 13.7098 2.79 12.6178C2.13 11.5018 1.8 10.2958 1.8 8.9998C1.8 7.7038 2.13 6.4978 2.79 5.3818C3.426 4.2898 4.29 3.4258 5.382 2.7898C6.498 2.1298 7.704 1.7998 9 1.7998C10.296 1.7998 11.502 2.1298 12.618 2.7898C13.71 3.4258 14.574 4.2898 15.21 5.3818C15.87 6.4978 16.2 7.7038 16.2 8.9998C16.2 10.2958 15.87 11.5018 15.21 12.6178C14.574 13.7098 13.71 14.5738 12.618 15.2098C11.502 15.8698 10.296 16.1998 9 16.1998ZM9.45 9.8998H8.55L8.1 4.4998H9.9L9.45 9.8998ZM9.9 12.5998C9.9 12.8518 9.81 13.0678 9.63 13.2478C9.462 13.4158 9.252 13.4998 9 13.4998C8.748 13.4998 8.532 13.4158 8.352 13.2478C8.184 13.0678 8.1 12.8518 8.1 12.5998C8.1 12.3478 8.184 12.1378 8.352 11.9698C8.532 11.7898 8.748 11.6998 9 11.6998C9.252 11.6998 9.462 11.7898 9.63 11.9698C9.81 12.1378 9.9 12.3478 9.9 12.5998Z" fill="white"/>
</g>
<defs>
<clipPath id="clip0">
<path d="M0 0H18V18H0V0Z" fill="white"/>
</clipPath>
</defs>
</svg>
