<svg width="32" height="40" viewBox="0 0 32 40" fill="none" xmlns="http://www.w3.org/2000/svg">
<path d="M1.59518 10.3571L10.4929 1.57645C10.8672 1.20709 11.3718 1 11.8977 1H28C29.6569 1 31 2.34315 31 4V36C31 37.6569 29.6569 39 28 39H4C2.34315 39 1 37.6569 1 36V11.7806C1 11.2456 1.21437 10.7329 1.59518 10.3571Z" stroke="#338AFF" stroke-width="2"/>
<path d="M11 2V11C11 11.5523 10.5523 12 10 12H2" stroke="#338AFF" stroke-width="2"/>
<path d="M11 31.5955V20.4045C11 20.2187 11.1956 20.0978 11.3618 20.1809L22.5528 25.7764C22.737 25.8685 22.737 26.1315 22.5528 26.2236L11.3618 31.8191C11.1956 31.9022 11 31.7813 11 31.5955Z" stroke="#338AFF" stroke-width="2"/>
</svg>
