<svg width="17" height="15" viewBox="0 0 17 15" fill="currentColor" xmlns="http://www.w3.org/2000/svg">
<path d="M15.736 11.438L10.48 1.68205C10.288 1.31005 10.012 1.02205 9.652 0.818049C9.304 0.602049 8.92 0.494048 8.5 0.494048C8.08 0.494048 7.69 0.602049 7.33 0.818049C6.982 1.02205 6.712 1.31005 6.52 1.68205L1.264 11.438C1.072 11.786 0.982 12.158 0.994 12.554C1.006 12.95 1.114 13.322 1.318 13.67C1.522 14.006 1.792 14.27 2.128 14.462C2.476 14.654 2.854 14.75 3.262 14.75H13.756C14.152 14.75 14.518 14.654 14.854 14.462C15.202 14.27 15.478 14.006 15.682 13.67C15.886 13.322 15.994 12.95 16.006 12.554C16.018 12.158 15.928 11.786 15.736 11.438ZM13.756 13.256H3.244C3.064 13.256 2.908 13.202 2.776 13.094C2.644 12.974 2.56 12.83 2.524 12.662C2.488 12.482 2.512 12.308 2.596 12.14L7.834 2.40205C7.906 2.27005 8.002 2.17405 8.122 2.11405C8.242 2.04205 8.368 2.00605 8.5 2.00605C8.632 2.00605 8.758 2.04205 8.878 2.11405C8.998 2.17405 9.094 2.27005 9.166 2.40205L14.404 12.14C14.488 12.308 14.512 12.482 14.476 12.662C14.44 12.83 14.356 12.974 14.224 13.094C14.092 13.202 13.936 13.256 13.756 13.256ZM8.878 8.75605H8.122L7.744 4.25605H9.256L8.878 8.75605ZM9.256 11.006C9.256 11.21 9.178 11.384 9.022 11.528C8.878 11.672 8.704 11.744 8.5 11.744C8.296 11.744 8.116 11.672 7.96 11.528C7.816 11.384 7.744 11.21 7.744 11.006C7.744 10.802 7.816 10.628 7.96 10.484C8.116 10.328 8.296 10.25 8.5 10.25C8.704 10.25 8.878 10.328 9.022 10.484C9.178 10.628 9.256 10.802 9.256 11.006Z" fill="white"/>
</svg>
