<svg width="32" height="40" viewBox="0 0 32 40" fill="none" xmlns="http://www.w3.org/2000/svg">
<path d="M1.59518 10.3571L10.4929 1.57645C10.8672 1.20709 11.3718 1 11.8977 1H28C29.6569 1 31 2.34315 31 4V36C31 37.6569 29.6569 39 28 39H4C2.34315 39 1 37.6569 1 36V11.7806C1 11.2456 1.21437 10.7329 1.59518 10.3571Z" stroke="#338AFF" stroke-width="2"/>
<path d="M11 2V11C11 11.5523 10.5523 12 10 12H2" stroke="#338AFF" stroke-width="2"/>
<path d="M20.9939 32H18.1414L16.5172 25.601C16.4606 25.37 16.3764 24.9811 16.2647 24.4341L16.1427 23.821C16.0583 23.3804 16.0081 23.0698 15.9919 22.8892L15.9645 23.1038C15.9303 23.3432 15.8762 23.6565 15.8019 24.044L15.6459 24.8279C15.5737 25.1794 15.5137 25.4534 15.466 25.6501L13.8586 32H11.0141L8 20H10.4646L11.9758 26.5499C12.2397 27.7592 12.431 28.8071 12.5495 29.6936C12.5793 29.4057 12.6447 28.9721 12.7457 28.3927L12.7717 28.2449C12.8875 27.591 12.9966 27.0834 13.099 26.7223L14.8202 20H17.1879L18.9091 26.7223L18.9452 26.8725C19.014 27.1684 19.0962 27.578 19.1919 28.1012L19.2634 28.5005C19.342 28.9511 19.4044 29.3488 19.4505 29.6936L19.4867 29.4248C19.5401 29.0497 19.6143 28.6071 19.7091 28.0971L19.8037 27.6027C19.8856 27.1874 19.9618 26.8365 20.0323 26.5499L21.5354 20H24L20.9939 32Z" fill="#338AFF"/>
</svg>
